<?xml version='1.0' encoding='ascii'?>
<svg xmlns="http://www.w3.org/2000/svg" xmlns:inkscape="http://www.inkscape.org/namespaces/inkscape" version="1.1" width="400" height="400">
    <g id="ViewLayer_LineSet" inkscape:groupmode="lineset" inkscape:label="ViewLayer_LineSet">
        <g xmlns:inkscape="http://www.inkscape.org/namespaces/inkscape" inkscape:groupmode="layer" inkscape:label="fills" id="fills">
            <path fill_rule="evenodd" stroke="none" fill-opacity="1.0" fill="rgb(255, 255, 255)" d=" M 176.144, 137.353 176.329, 138.682 176.593, 140.060 176.823, 141.068 177.175, 142.440 177.614, 143.896 178.125, 145.404 178.689, 146.932 179.317, 148.458 179.917, 149.710 179.824, 150.181 179.481, 151.305 179.072, 152.585 178.676, 154.025 178.298, 155.576 177.940, 157.210 177.644, 158.892 177.447, 160.592 177.368, 162.291 177.417, 163.990 177.601, 165.690 177.909, 167.380 178.285, 169.049 178.630, 170.697 178.852, 172.330 178.903, 173.979 178.880, 175.690 178.837, 177.514 178.849, 179.465 179.005, 181.456 179.378, 183.374 179.887, 185.155 179.982, 185.467 179.964, 185.738 180.155, 188.156 180.509, 189.753 180.654, 190.370 181.028, 191.849 181.475, 193.293 181.946, 194.688 182.423, 196.024 182.899, 197.299 183.279, 198.372 183.384, 198.675 183.571, 199.240 183.662, 199.480 183.663, 199.485 184.027, 200.568 184.353, 201.618 184.641, 202.638 184.894, 203.636 185.115, 204.627 185.314, 205.615 185.508, 206.608 185.613, 207.178 185.731, 208.009 185.861, 209.024 185.977, 210.051 186.077, 211.089 186.167, 212.136 186.250, 213.192 186.330, 214.252 186.406, 215.314 186.483, 216.374 186.501, 216.666 186.525, 217.104 186.106, 218.163 185.526, 219.442 184.856, 220.762 184.153, 222.145 183.531, 223.618 183.246, 224.478 182.753, 226.014 182.328, 227.586 181.944, 229.186 181.629, 230.815 181.383, 232.474 181.126, 234.971 181.048, 236.647 181.095, 238.326 181.374, 240.737 181.704, 242.322 182.306, 244.536 182.493, 245.354 182.621, 246.286 182.733, 247.885 182.799, 249.534 182.863, 251.217 182.896, 251.780 182.432, 253.572 182.027, 255.427 181.707, 257.290 181.548, 258.298 181.303, 260.166 181.131, 262.024 181.048, 263.858 181.090, 265.657 181.187, 266.642 181.397, 268.349 181.786, 269.951 182.196, 271.498 182.513, 273.046 182.544, 273.292 182.435, 273.715 181.884, 275.522 181.541, 276.973 181.366, 278.407 181.309, 279.503 181.237, 280.356 181.221, 281.730 181.665, 282.885 181.933, 283.499 182.565, 284.041 183.276, 284.753 183.379, 284.799 183.445, 285.464 183.538, 287.020 183.553, 288.580 183.519, 290.163 183.506, 291.755 183.519, 293.334 183.496, 294.530 183.365, 296.037 183.190, 297.524 183.026, 298.601 182.735, 300.120 182.423, 301.314 181.980, 302.500 181.581, 303.785 181.358, 304.976 181.237, 306.104 181.220, 307.192 181.271, 308.044 181.889, 309.700 182.509, 310.393 183.062, 310.785 183.949, 311.328 185.072, 311.850 186.444, 312.321 188.056, 312.642 189.836, 312.648 191.619, 312.483 193.323, 312.332 194.987, 312.352 196.704, 312.537 198.222, 312.990 200.037, 313.586 201.896, 313.912 203.579, 314.092 205.311, 314.578 207.072, 314.940 208.852, 315.108 210.431, 315.148 210.566, 315.149 211.945, 315.102 213.261, 314.832 214.348, 314.794 215.226, 315.455 216.254, 315.670 217.082, 315.477 217.629, 315.123 217.936, 314.742 218.105, 314.366 218.122, 314.300 218.229, 314.379 219.209, 314.576 220.016, 314.441 220.562, 314.189 220.926, 313.900 221.162, 313.580 221.269, 313.234 221.441, 313.295 222.226, 313.205 222.655, 312.872 222.892, 312.498 223.007, 311.950 222.921, 311.429 222.897, 311.348 222.874, 311.283 222.986, 311.239 223.425, 310.928 223.724, 310.601 223.819, 310.459 223.949, 310.225 224.014, 309.973 224.026, 309.617 224.008, 309.466 224.017, 308.945 224.005, 308.932 224.423, 308.577 224.677, 308.311 224.947, 307.738 225.001, 307.180 224.978, 306.793 224.820, 306.336 224.753, 305.866 224.535, 305.378 223.673, 305.085 222.499, 305.019 221.310, 304.568 221.109, 304.404 220.501, 303.548 219.241, 302.796 217.754, 302.648 216.427, 302.114 215.098, 301.696 213.744, 301.813 212.938, 301.589 211.510, 300.980 210.039, 300.502 208.879, 299.920 207.361, 299.367 205.841, 298.885 204.338, 298.499 203.885, 298.327 203.616, 298.173 202.418, 297.442 201.297, 296.682 200.231, 295.895 199.171, 295.199 198.253, 294.369 197.704, 293.744 197.153, 292.743 196.899, 292.012 196.672, 290.882 196.532, 289.697 196.436, 288.463 196.405, 287.389 196.455, 286.180 196.582, 284.800 196.752, 283.338 197.004, 281.866 198.253, 281.931 199.658, 282.199 201.025, 282.707 202.371, 283.438 203.855, 284.219 205.520, 284.939 207.379, 285.416 209.327, 285.660 211.217, 285.589 212.882, 285.226 214.292, 284.756 215.457, 284.193 216.568, 283.937 217.244, 284.018 217.806, 284.139 218.994, 284.668 220.331, 285.336 220.535, 285.380 222.197, 285.384 223.616, 284.998 224.397, 284.446 224.677, 284.003 224.966, 283.419 225.001, 282.433 224.852, 282.003 224.736, 281.516 224.594, 281.291 224.156, 281.121 224.043, 281.079 223.706, 280.986 223.888, 280.682 224.025, 280.204 224.008, 279.651 224.016, 279.573 223.777, 278.933 222.965, 278.693 222.927, 278.495 222.817, 277.948 222.620, 277.346 221.684, 277.228 221.287, 277.120 221.300, 276.982 221.265, 276.756 221.278, 276.462 220.775, 276.225 219.997, 276.155 219.214, 275.812 218.799, 275.288 218.525, 275.139 217.969, 274.950 217.102, 274.925 216.717, 274.878 215.957, 274.458 215.505, 274.323 215.205, 274.078 213.848, 273.958 213.070, 273.564 211.553, 273.208 210.571, 272.910 208.996, 272.541 207.477, 272.223 206.323, 272.178 205.641, 272.076 204.632, 271.590 203.775, 271.127 202.544, 270.472 201.405, 269.845 200.313, 269.322 199.512, 268.940 199.662, 268.128 199.959, 266.657 200.280, 265.205 200.617, 263.769 200.956, 262.342 201.285, 260.921 201.606, 259.506 201.926, 258.099 202.263, 256.704 202.639, 255.323 203.082, 253.963 203.601, 252.616 204.181, 251.247 204.807, 249.834 205.347, 248.355 205.725, 247.778 206.713, 246.755 207.606, 245.468 208.091, 243.747 208.253, 242.987 208.439, 242.061 208.522, 241.297 208.663, 239.683 208.772, 238.169 208.895, 236.743 209.051, 235.393 209.215, 234.294 209.315, 233.724 209.543, 232.567 209.768, 231.457 209.984, 230.389 210.199, 229.353 210.413, 228.348 210.620, 227.362 210.820, 226.390 211.018, 225.429 211.215, 224.474 211.415, 223.522 211.619, 222.568 211.825, 221.606 212.030, 220.636 212.229, 219.654 212.416, 218.656 212.578, 217.640 212.841, 215.700 212.966, 214.697 213.087, 213.692 213.209, 212.679 213.329, 211.660 213.445, 210.643 213.549, 209.624 213.732, 207.832 213.833, 206.798 213.915, 205.742 214.072, 203.881 214.167, 202.757 214.293, 200.764 214.342, 199.599 214.338, 197.523 214.279, 196.432 214.161, 195.370 214.040, 194.465 213.870, 193.466 213.674, 192.457 213.598, 192.116 213.630, 191.894 213.696, 191.524 213.744, 191.229 213.938, 190.231 213.990, 189.906 214.179, 189.466 214.434, 188.697 214.676, 187.538 214.817, 186.607 214.927, 185.297 215.016, 183.935 215.164, 182.544 215.347, 181.138 215.476, 179.732 215.522, 178.646 215.558, 177.146 215.546, 175.628 215.512, 174.581 215.451, 172.902 215.302, 170.923 215.151, 169.032 214.974, 167.635 214.757, 166.446 214.523, 165.390 214.416, 164.927 214.441, 164.720 214.555, 163.548 214.651, 162.301 214.792, 160.321 214.887, 158.976 214.993, 157.587 215.112, 156.158 215.242, 154.695 215.351, 153.189 215.397, 152.371 215.410, 151.591 215.423, 149.925 215.426, 149.141 215.387, 148.389 215.241, 146.599 214.944, 144.781 214.683, 143.009 214.653, 142.705 214.879, 141.185 215.136, 139.817 215.171, 138.917 215.242, 137.585 215.162, 136.850 215.071, 135.634 214.748, 134.064 214.843, 133.696 215.121, 132.541 215.219, 131.621 215.288, 130.501 215.202, 129.449 215.008, 128.415 214.999, 128.374 214.983, 128.291 214.766, 127.321 214.461, 126.192 214.133, 125.081 213.778, 124.048 213.480, 123.359 213.059, 122.508 212.671, 121.757 212.617, 121.651 212.338, 121.136 211.941, 120.444 211.475, 119.618 210.955, 118.693 210.388, 117.699 209.784, 116.655 209.156, 115.571 208.512, 114.478 208.003, 113.618 207.300, 112.435 206.594, 111.309 205.881, 110.138 204.759, 108.353 205.596, 107.191 205.851, 106.896 206.542, 106.257 207.560, 105.839 209.255, 105.724 210.069, 105.684 210.889, 105.541 211.871, 105.211 212.753, 104.734 213.322, 104.100 213.696, 103.453 213.864, 102.637 213.922, 101.724 213.916, 101.398 214.028, 101.033 214.299, 100.453 214.433, 99.896 214.620, 99.142 214.538, 98.799 214.928, 98.302 214.983, 98.248 215.295, 97.759 215.396, 97.297 215.430, 96.979 215.330, 96.474 215.202, 95.986 214.994, 95.466 214.980, 95.437 215.042, 95.292 215.758, 95.032 216.270, 94.752 216.690, 94.313 217.066, 93.969 217.208, 93.593 217.033, 93.066 216.816, 92.712 215.882, 91.805 215.036, 90.667 214.153, 89.347 213.643, 88.542 213.562, 88.344 213.610, 88.253 213.639, 87.807 213.622, 87.028 213.639, 85.798 213.163, 84.509 212.813, 83.720 212.550, 83.357 212.432, 83.123 211.731, 82.059 210.933, 80.825 210.117, 79.450 209.678, 78.891 208.638, 77.569 207.269, 76.472 206.752, 76.125 205.325, 75.208 203.756, 74.531 201.786, 73.863 200.219, 73.492 198.562, 73.346 196.849, 73.410 195.173, 73.675 193.637, 74.168 193.206, 74.332 191.629, 74.953 190.182, 75.722 189.615, 76.083 188.277, 77.151 187.156, 78.376 186.668, 79.061 185.762, 80.478 185.163, 81.997 184.857, 82.874 184.554, 84.465 184.456, 85.394 184.331, 86.975 184.310, 88.539 184.395, 89.446 184.553, 90.963 185.103, 93.284 185.642, 94.657 185.966, 95.447 186.647, 96.681 186.774, 96.863 185.951, 97.071 184.201, 97.765 182.609, 98.765 181.329, 99.897 180.260, 101.178 179.434, 102.515 178.919, 103.909 178.906, 104.054 178.894, 104.347 178.835, 105.391 178.847, 105.517 179.069, 106.942 179.110, 107.155 179.171, 107.429 179.164, 107.773 179.084, 108.352 179.072, 108.409 178.800, 109.331 178.418, 110.465 177.980, 111.732 177.526, 113.099 177.154, 114.335 176.731, 115.935 176.364, 117.720 176.118, 119.369 176.070, 119.776 175.920, 121.461 175.941, 123.070 176.070, 124.601 176.148, 125.295 176.334, 126.813 176.593, 128.230 176.356, 129.493 176.127, 130.678 176.012, 132.141 175.921, 133.403 175.942, 134.785 176.029, 136.053 176.144, 137.353  z" />
        </g>
        <g inkscape:groupmode="layer" id="strokes" inkscape:label="strokes">
            <path fill="none" stroke-width="3.0" stroke-linecap="butt" stroke-opacity="1.0" stroke="rgb(0, 0, 0)" stroke-linejoin="round" d=" M 183.640, 113.260 183.365, 113.637 183.363, 113.640 183.357, 113.648 183.200, 113.863 182.671, 114.588 181.690, 115.983 180.898, 117.161 180.158, 118.400 179.484, 119.692 179.167, 120.387 179.161, 120.400 178.844, 121.094 178.550, 121.739 177.995, 123.136 177.254, 125.472 176.635, 128.005 176.593, 128.230 176.356, 129.493 176.127, 130.678 176.012, 132.141 175.921, 133.403 175.942, 134.785 176.029, 136.053 176.144, 137.353 176.329, 138.682 176.593, 140.060 176.823, 141.068 177.175, 142.440 177.614, 143.896 178.125, 145.404 178.689, 146.932 179.317, 148.458 179.917, 149.710 " />
            <path fill="none" stroke-width="3.0" stroke-linecap="butt" stroke-opacity="1.0" stroke="rgb(0, 0, 0)" stroke-linejoin="round" d=" M 179.893, 147.405 180.044, 148.223 180.022, 149.171 179.917, 149.710 179.824, 150.181 179.481, 151.305 179.072, 152.585 178.676, 154.025 178.298, 155.576 177.940, 157.210 177.644, 158.892 177.447, 160.592 177.368, 162.291 177.417, 163.990 177.601, 165.690 177.909, 167.380 178.285, 169.049 178.630, 170.697 178.852, 172.330 178.903, 173.979 178.880, 175.690 178.837, 177.514 178.849, 179.465 179.005, 181.456 179.378, 183.374 179.887, 185.155 179.982, 185.467 180.397, 186.826 180.793, 188.425 181.108, 189.956 181.411, 191.470 181.752, 192.989 182.145, 194.525 182.576, 196.081 183.046, 197.655 183.384, 198.675 183.571, 199.240 183.662, 199.480 184.171, 200.825 184.852, 202.396 185.568, 203.956 186.257, 205.523 186.897, 207.094 187.522, 208.642 187.573, 208.776 187.768, 209.293 188.100, 210.170 " />
            <path fill="none" stroke-width="3.0" stroke-linecap="butt" stroke-opacity="1.0" stroke="rgb(0, 0, 0)" stroke-linejoin="round" d=" M 179.344, 134.371 179.321, 134.534 179.248, 135.051 179.150, 135.574 179.097, 135.862 178.983, 136.871 178.896, 138.139 178.847, 139.184 178.836, 140.364 178.884, 141.657 179.009, 142.992 179.136, 144.267 179.294, 145.378 179.566, 146.350 179.893, 147.405 179.922, 147.498 " />
            <path fill="none" stroke-width="3.0" stroke-linecap="butt" stroke-opacity="1.0" stroke="rgb(0, 0, 0)" stroke-linejoin="round" d=" M 188.489, 99.700 188.390, 100.113 188.089, 100.971 187.952, 101.362 " />
            <path fill="none" stroke-width="3.0" stroke-linecap="butt" stroke-opacity="1.0" stroke="rgb(0, 0, 0)" stroke-linejoin="round" d=" M 188.089, 100.971 187.851, 101.474 187.821, 101.520 187.818, 101.525 187.268, 102.355 " />
            <path fill="none" stroke-width="3.0" stroke-linecap="butt" stroke-opacity="1.0" stroke="rgb(0, 0, 0)" stroke-linejoin="round" d=" M 189.532, 227.656 189.506, 227.622 189.489, 227.580 189.491, 227.483 189.583, 227.400 189.658, 227.356 " />
            <path fill="none" stroke-width="3.0" stroke-linecap="butt" stroke-opacity="1.0" stroke="rgb(0, 0, 0)" stroke-linejoin="round" d=" M 186.439, 226.423 186.052, 227.547 185.715, 228.539 185.362, 229.410 185.090, 230.224 184.878, 230.999 184.499, 231.637 184.374, 232.286 184.313, 232.860 184.264, 233.195 184.383, 233.802 184.592, 234.084 184.941, 234.329 185.381, 234.386 185.724, 234.274 185.875, 234.119 186.248, 233.865 186.513, 233.650 186.865, 233.170 187.130, 232.557 187.328, 231.862 187.660, 231.151 187.672, 231.126 188.064, 230.318 188.456, 229.475 188.903, 228.534 189.181, 227.937 189.532, 227.656 189.826, 227.927 189.838, 228.425 189.746, 229.028 189.717, 229.701 189.688, 230.406 189.673, 231.155 189.596, 231.969 189.576, 232.193 189.562, 233.157 189.492, 234.228 189.441, 235.334 189.306, 236.362 " />
            <path fill="none" stroke-width="3.0" stroke-linecap="butt" stroke-opacity="1.0" stroke="rgb(0, 0, 0)" stroke-linejoin="round" d=" M 189.843, 227.940 189.826, 227.927 " />
            <path fill="none" stroke-width="3.0" stroke-linecap="butt" stroke-opacity="1.0" stroke="rgb(0, 0, 0)" stroke-linejoin="round" d=" M 191.510, 229.416 191.337, 228.659 191.365, 227.677 191.635, 225.933 " />
            <path fill="none" stroke-width="3.0" stroke-linecap="butt" stroke-opacity="1.0" stroke="rgb(0, 0, 0)" stroke-linejoin="round" d=" M 186.977, 227.293 187.095, 226.155 " />
            <path fill="none" stroke-width="3.0" stroke-linecap="butt" stroke-opacity="1.0" stroke="rgb(0, 0, 0)" stroke-linejoin="round" d=" M 188.248, 213.270 188.008, 214.532 187.591, 216.011 187.163, 217.606 186.968, 219.330 187.009, 221.046 187.014, 222.631 186.962, 223.020 186.826, 224.042 186.711, 224.958 186.664, 225.330 " />
            <path fill="none" stroke-width="3.0" stroke-linecap="butt" stroke-opacity="1.0" stroke="rgb(0, 0, 0)" stroke-linejoin="round" d=" M 186.711, 224.958 186.689, 225.112 186.439, 226.423 186.426, 226.491 " />
            <path fill="none" stroke-width="3.0" stroke-linecap="butt" stroke-opacity="1.0" stroke="rgb(0, 0, 0)" stroke-linejoin="round" d=" M 187.672, 227.649 187.871, 226.673 " />
            <path fill="none" stroke-width="3.0" stroke-linecap="butt" stroke-opacity="1.0" stroke="rgb(0, 0, 0)" stroke-linejoin="round" d=" M 190.525, 227.189 189.735, 226.843 " />
            <path fill="none" stroke-width="3.0" stroke-linecap="butt" stroke-opacity="1.0" stroke="rgb(0, 0, 0)" stroke-linejoin="round" d=" M 193.137, 228.795 192.999, 228.488 192.913, 228.016 193.017, 227.201 " />
            <path fill="none" stroke-width="3.0" stroke-linecap="butt" stroke-opacity="1.0" stroke="rgb(0, 0, 0)" stroke-linejoin="round" d=" M 193.137, 228.795 193.292, 228.963 193.315, 228.988 193.367, 229.044 193.400, 229.079 193.709, 229.414 " />
            <path fill="none" stroke-width="3.0" stroke-linecap="butt" stroke-opacity="1.0" stroke="rgb(0, 0, 0)" stroke-linejoin="round" d=" M 193.504, 229.388 193.529, 230.054 193.538, 230.729 193.558, 231.578 193.761, 232.547 193.761, 233.744 193.922, 235.031 194.123, 236.336 194.307, 237.602 194.331, 237.763 " />
            <path fill="none" stroke-width="3.0" stroke-linecap="butt" stroke-opacity="1.0" stroke="rgb(0, 0, 0)" stroke-linejoin="round" d=" M 191.710, 237.678 191.875, 237.065 191.933, 236.850 192.123, 235.549 192.262, 234.421 192.395, 233.357 192.529, 232.432 192.637, 231.634 192.756, 230.923 192.862, 230.249 192.922, 229.604 192.970, 229.217 193.292, 228.963 " />
            <path fill="none" stroke-width="3.0" stroke-linecap="butt" stroke-opacity="1.0" stroke="rgb(0, 0, 0)" stroke-linejoin="round" d=" M 194.865, 229.506 194.635, 228.553 " />
            <path fill="none" stroke-width="3.0" stroke-linecap="butt" stroke-opacity="1.0" stroke="rgb(0, 0, 0)" stroke-linejoin="round" d=" M 196.815, 228.992 196.914, 228.640 196.998, 228.338 197.019, 228.264 197.384, 228.283 197.397, 228.284 197.437, 228.286 197.443, 228.286 197.547, 228.292 197.628, 228.296 " />
            <path fill="none" stroke-width="3.0" stroke-linecap="butt" stroke-opacity="1.0" stroke="rgb(0, 0, 0)" stroke-linejoin="round" d=" M 197.138, 228.024 197.019, 228.264 " />
            <path fill="none" stroke-width="3.0" stroke-linecap="butt" stroke-opacity="1.0" stroke="rgb(0, 0, 0)" stroke-linejoin="round" d=" M 196.898, 232.605 196.922, 231.876 196.931, 231.615 196.923, 230.680 196.901, 229.792 196.873, 229.003 196.914, 228.640 " />
            <path fill="none" stroke-width="3.0" stroke-linecap="butt" stroke-opacity="1.0" stroke="rgb(0, 0, 0)" stroke-linejoin="round" d=" M 199.417, 228.797 199.169, 227.598 " />
            <path fill="none" stroke-width="3.0" stroke-linecap="butt" stroke-opacity="1.0" stroke="rgb(0, 0, 0)" stroke-linejoin="round" d=" M 197.437, 228.286 197.575, 228.477 197.703, 228.654 197.768, 228.745 197.967, 229.400 197.989, 229.475 198.040, 229.641 " />
            <path fill="none" stroke-width="3.0" stroke-linecap="butt" stroke-opacity="1.0" stroke="rgb(0, 0, 0)" stroke-linejoin="round" d=" M 197.989, 229.475 198.182, 230.496 198.614, 231.829 198.889, 232.604 199.021, 232.975 " />
            <path fill="none" stroke-width="3.0" stroke-linecap="butt" stroke-opacity="1.0" stroke="rgb(0, 0, 0)" stroke-linejoin="round" d=" M 202.950, 237.782 202.922, 237.184 202.818, 236.648 202.799, 235.787 202.444, 234.794 202.191, 233.323 201.987, 232.580 201.986, 232.576 201.985, 232.575 201.897, 232.254 " />
            <path fill="none" stroke-width="3.0" stroke-linecap="butt" stroke-opacity="1.0" stroke="rgb(0, 0, 0)" stroke-linejoin="round" d=" M 201.931, 232.458 201.897, 232.254 201.689, 231.000 201.375, 229.912 201.090, 228.806 200.869, 227.681 200.787, 226.495 200.943, 225.361 200.960, 225.242 " />
            <path fill="none" stroke-width="3.0" stroke-linecap="butt" stroke-opacity="1.0" stroke="rgb(0, 0, 0)" stroke-linejoin="round" d=" M 204.902, 298.910 203.885, 298.327 203.616, 298.173 202.418, 297.442 201.297, 296.682 200.231, 295.895 199.171, 295.199 198.253, 294.369 197.704, 293.744 197.153, 292.743 196.899, 292.012 196.672, 290.882 196.532, 289.697 196.436, 288.463 196.405, 287.389 " />
            <path fill="none" stroke-width="3.0" stroke-linecap="butt" stroke-opacity="1.0" stroke="rgb(0, 0, 0)" stroke-linejoin="round" d=" M 221.282, 304.647 221.109, 304.404 220.501, 303.548 219.241, 302.796 217.754, 302.648 216.427, 302.114 215.098, 301.696 213.744, 301.813 212.938, 301.589 211.510, 300.980 210.039, 300.502 208.879, 299.920 207.361, 299.367 205.841, 298.885 204.338, 298.499 203.885, 298.327 " />
            <path fill="none" stroke-width="3.0" stroke-linecap="butt" stroke-opacity="1.0" stroke="rgb(0, 0, 0)" stroke-linejoin="round" d=" M 182.423, 301.314 181.980, 302.500 181.581, 303.785 181.358, 304.976 181.237, 306.104 181.220, 307.192 181.271, 308.044 181.889, 309.700 182.509, 310.393 183.062, 310.785 183.949, 311.328 185.072, 311.850 186.444, 312.321 188.056, 312.642 189.836, 312.648 191.619, 312.483 193.323, 312.332 194.987, 312.352 196.704, 312.537 198.222, 312.990 200.037, 313.586 201.896, 313.912 203.579, 314.092 205.311, 314.578 207.072, 314.940 208.852, 315.108 210.431, 315.148 210.566, 315.149 211.945, 315.102 213.261, 314.832 214.348, 314.794 215.226, 315.455 216.254, 315.670 217.082, 315.477 217.629, 315.123 217.936, 314.742 218.105, 314.366 218.122, 314.300 218.202, 313.987 218.354, 313.514 218.219, 313.460 217.721, 313.296 217.012, 313.132 216.577, 312.777 " />
            <path fill="none" stroke-width="3.0" stroke-linecap="butt" stroke-opacity="1.0" stroke="rgb(0, 0, 0)" stroke-linejoin="round" d=" M 179.982, 185.467 179.964, 185.738 180.155, 188.156 180.509, 189.753 180.654, 190.370 181.028, 191.849 181.475, 193.293 181.946, 194.688 182.423, 196.024 182.899, 197.299 183.279, 198.372 183.384, 198.675 " />
            <path fill="none" stroke-width="3.0" stroke-linecap="butt" stroke-opacity="1.0" stroke="rgb(0, 0, 0)" stroke-linejoin="round" d=" M 194.346, 177.869 194.364, 177.814 194.385, 177.748 194.452, 177.537 194.581, 177.134 195.146, 176.207 196.004, 175.012 196.953, 173.506 197.825, 171.746 198.583, 169.870 199.240, 167.976 199.249, 167.948 199.843, 166.067 200.386, 164.187 200.809, 162.282 201.039, 160.415 201.153, 158.669 201.037, 157.026 200.987, 155.797 200.987, 155.796 200.987, 155.790 200.985, 155.736 200.646, 154.232 200.384, 152.789 200.188, 151.430 200.092, 150.146 200.092, 148.928 200.192, 147.758 200.387, 146.596 200.446, 146.357 200.714, 145.267 200.838, 144.884 201.146, 143.928 201.294, 143.469 " />
            <path fill="none" stroke-width="3.0" stroke-linecap="butt" stroke-opacity="1.0" stroke="rgb(0, 0, 0)" stroke-linejoin="round" d=" M 201.496, 214.418 200.672, 213.559 200.548, 213.430 199.823, 212.675 198.913, 211.810 198.363, 210.970 197.942, 209.622 197.992, 208.088 197.779, 206.488 197.592, 204.862 197.453, 203.243 197.334, 201.623 197.264, 200.008 197.251, 198.380 197.263, 196.739 197.273, 195.095 197.276, 193.455 197.263, 191.819 197.274, 190.946 197.283, 190.263 197.226, 188.607 197.119, 187.138 196.889, 185.490 196.552, 183.865 196.108, 182.270 195.595, 180.713 195.139, 179.296 194.620, 177.933 194.452, 177.537 " />
            <path fill="none" stroke-width="3.0" stroke-linecap="butt" stroke-opacity="1.0" stroke="rgb(0, 0, 0)" stroke-linejoin="round" d=" M 194.393, 178.085 194.385, 177.748 " />
            <path fill="none" stroke-width="3.0" stroke-linecap="butt" stroke-opacity="1.0" stroke="rgb(0, 0, 0)" stroke-linejoin="round" d=" M 199.484, 97.187 199.500, 95.967 198.895, 95.049 197.791, 94.630 196.415, 94.612 195.374, 95.379 " />
            <path fill="none" stroke-width="3.0" stroke-linecap="butt" stroke-opacity="1.0" stroke="rgb(0, 0, 0)" stroke-linejoin="round" d=" M 194.415, 99.783 194.316, 99.230 194.231, 98.758 194.349, 97.667 194.543, 97.090 194.707, 96.602 195.401, 95.697 196.432, 95.198 197.592, 95.133 198.602, 95.507 199.068, 96.237 199.020, 96.997 198.550, 97.637 " />
            <path fill="none" stroke-width="3.0" stroke-linecap="butt" stroke-opacity="1.0" stroke="rgb(0, 0, 0)" stroke-linejoin="round" d=" M 198.497, 101.393 198.275, 101.525 198.179, 101.582 198.177, 101.583 198.018, 101.678 197.898, 101.749 197.178, 101.791 196.487, 101.550 195.845, 101.156 195.228, 100.620 195.063, 100.367 195.060, 100.363 195.043, 100.336 194.747, 99.884 194.590, 98.870 194.727, 97.856 194.963, 97.234 195.085, 96.916 195.717, 96.129 196.603, 95.616 197.576, 95.499 198.378, 95.787 198.782, 96.258 " />
            <path fill="none" stroke-width="3.0" stroke-linecap="butt" stroke-opacity="1.0" stroke="rgb(0, 0, 0)" stroke-linejoin="round" d=" M 198.423, 97.368 198.275, 97.055 " />
            <path fill="none" stroke-width="3.0" stroke-linecap="butt" stroke-opacity="1.0" stroke="rgb(0, 0, 0)" stroke-linejoin="round" d=" M 198.603, 96.621 198.275, 97.055 197.606, 97.308 " />
            <path fill="none" stroke-width="3.0" stroke-linecap="butt" stroke-opacity="1.0" stroke="rgb(0, 0, 0)" stroke-linejoin="round" d=" M 196.884, 98.509 197.281, 98.366 197.778, 98.188 198.683, 97.786 199.484, 97.187 " />
            <path fill="none" stroke-width="3.0" stroke-linecap="butt" stroke-opacity="1.0" stroke="rgb(0, 0, 0)" stroke-linejoin="round" d=" M 198.536, 96.107 198.270, 96.037 197.903, 95.876 " />
            <path fill="none" stroke-width="3.0" stroke-linecap="butt" stroke-opacity="1.0" stroke="rgb(0, 0, 0)" stroke-linejoin="round" d=" M 197.234, 96.154 197.903, 95.876 198.075, 95.804 " />
            <path fill="none" stroke-width="3.0" stroke-linecap="butt" stroke-opacity="1.0" stroke="rgb(0, 0, 0)" stroke-linejoin="round" d=" M 198.818, 98.061 199.398, 97.760 199.128, 98.322 198.821, 98.300 " />
            <path fill="none" stroke-width="3.0" stroke-linecap="butt" stroke-opacity="1.0" stroke="rgb(0, 0, 0)" stroke-linejoin="round" d=" M 198.821, 98.300 198.789, 98.363 198.719, 98.497 198.679, 98.576 198.709, 98.614 198.788, 98.715 198.792, 98.719 198.850, 98.792 " />
            <path fill="none" stroke-width="3.0" stroke-linecap="butt" stroke-opacity="1.0" stroke="rgb(0, 0, 0)" stroke-linejoin="round" d=" M 198.821, 98.300 198.818, 98.061 198.760, 98.266 198.325, 98.582 198.134, 98.965 197.988, 99.259 " />
            <path fill="none" stroke-width="3.0" stroke-linecap="butt" stroke-opacity="1.0" stroke="rgb(0, 0, 0)" stroke-linejoin="round" d=" M 198.760, 98.266 198.719, 98.497 " />
            <path fill="none" stroke-width="3.0" stroke-linecap="butt" stroke-opacity="1.0" stroke="rgb(0, 0, 0)" stroke-linejoin="round" d=" M 194.362, 97.184 194.274, 97.422 194.106, 98.509 194.187, 98.971 194.193, 99.008 194.283, 99.514 194.415, 99.783 194.962, 100.500 195.613, 101.025 196.276, 101.445 196.487, 101.550 " />
            <path fill="none" stroke-width="3.0" stroke-linecap="butt" stroke-opacity="1.0" stroke="rgb(0, 0, 0)" stroke-linejoin="round" d=" M 194.126, 98.850 194.193, 99.008 " />
            <path fill="none" stroke-width="3.0" stroke-linecap="butt" stroke-opacity="1.0" stroke="rgb(0, 0, 0)" stroke-linejoin="round" d=" M 196.717, 101.389 196.656, 101.356 196.123, 101.066 " />
            <path fill="none" stroke-width="3.0" stroke-linecap="butt" stroke-opacity="1.0" stroke="rgb(0, 0, 0)" stroke-linejoin="round" d=" M 198.709, 98.614 198.711, 98.943 198.712, 98.981 198.825, 99.390 " />
            <path fill="none" stroke-width="3.0" stroke-linecap="butt" stroke-opacity="1.0" stroke="rgb(0, 0, 0)" stroke-linejoin="round" d=" M 198.711, 98.943 198.531, 99.288 198.485, 99.376 198.645, 99.858 " />
            <path fill="none" stroke-width="3.0" stroke-linecap="butt" stroke-opacity="1.0" stroke="rgb(0, 0, 0)" stroke-linejoin="round" d=" M 198.283, 101.588 198.320, 101.590 198.516, 101.509 " />
            <path fill="none" stroke-width="3.0" stroke-linecap="butt" stroke-opacity="1.0" stroke="rgb(0, 0, 0)" stroke-linejoin="round" d=" M 198.018, 101.678 198.283, 101.588 198.285, 101.588 198.386, 101.553 198.516, 101.509 199.262, 101.076 " />
            <path fill="none" stroke-width="3.0" stroke-linecap="butt" stroke-opacity="1.0" stroke="rgb(0, 0, 0)" stroke-linejoin="round" d=" M 198.825, 99.390 199.049, 99.710 199.208, 99.935 199.136, 99.786 199.136, 99.785 199.135, 99.784 198.946, 99.388 " />
            <path fill="none" stroke-width="3.0" stroke-linecap="butt" stroke-opacity="1.0" stroke="rgb(0, 0, 0)" stroke-linejoin="round" d=" M 198.850, 98.792 198.719, 98.971 198.712, 98.981 " />
            <path fill="none" stroke-width="3.0" stroke-linecap="butt" stroke-opacity="1.0" stroke="rgb(0, 0, 0)" stroke-linejoin="round" d=" M 209.391, 93.928 209.707, 93.613 210.215, 93.138 210.841, 92.489 211.468, 91.689 212.217, 90.565 212.684, 89.930 213.050, 89.315 213.229, 88.858 213.245, 88.816 213.482, 88.208 213.517, 88.118 213.639, 87.807 " />
            <path fill="none" stroke-width="3.0" stroke-linecap="butt" stroke-opacity="1.0" stroke="rgb(0, 0, 0)" stroke-linejoin="round" d=" M 206.161, 106.301 206.429, 106.206 206.454, 106.197 207.444, 105.847 207.560, 105.839 209.255, 105.724 210.069, 105.684 210.889, 105.541 211.871, 105.211 212.753, 104.734 213.322, 104.100 213.696, 103.453 213.864, 102.637 213.922, 101.724 213.916, 101.398 " />
            <path fill="none" stroke-width="3.0" stroke-linecap="butt" stroke-opacity="1.0" stroke="rgb(0, 0, 0)" stroke-linejoin="round" d=" M 205.372, 107.338 205.851, 106.896 206.542, 106.257 207.560, 105.839 " />
            <path fill="none" stroke-width="3.0" stroke-linecap="butt" stroke-opacity="1.0" stroke="rgb(0, 0, 0)" stroke-linejoin="round" d=" M 213.816, 101.728 213.916, 101.398 214.028, 101.033 214.299, 100.453 214.433, 99.896 214.620, 99.142 214.538, 98.799 " />
            <path fill="none" stroke-width="3.0" stroke-linecap="butt" stroke-opacity="1.0" stroke="rgb(0, 0, 0)" stroke-linejoin="round" d=" M 212.289, 101.738 212.726, 100.921 213.312, 100.182 213.938, 99.516 214.528, 98.812 214.538, 98.799 214.928, 98.302 215.008, 98.199 215.025, 98.177 " />
            <path fill="none" stroke-width="3.0" stroke-linecap="butt" stroke-opacity="1.0" stroke="rgb(0, 0, 0)" stroke-linejoin="round" d=" M 200.943, 225.361 200.983, 225.221 201.242, 223.945 201.597, 222.915 201.749, 222.473 201.765, 222.427 201.773, 222.403 201.797, 222.333 201.801, 222.322 " />
            <path fill="none" stroke-width="3.0" stroke-linecap="butt" stroke-opacity="1.0" stroke="rgb(0, 0, 0)" stroke-linejoin="round" d=" M 205.192, 221.217 205.182, 220.889 205.181, 220.861 205.168, 220.431 205.157, 220.070 205.124, 219.679 204.692, 218.089 203.820, 216.639 203.061, 215.541 202.121, 214.681 201.154, 213.956 200.548, 213.430 " />
            <path fill="none" stroke-width="3.0" stroke-linecap="butt" stroke-opacity="1.0" stroke="rgb(0, 0, 0)" stroke-linejoin="round" d=" M 202.360, 222.790 202.917, 223.800 203.374, 224.822 " />
            <path fill="none" stroke-width="3.0" stroke-linecap="butt" stroke-opacity="1.0" stroke="rgb(0, 0, 0)" stroke-linejoin="round" d=" M 203.470, 225.084 203.566, 225.735 203.655, 226.340 203.907, 226.794 203.928, 226.833 203.952, 226.875 204.272, 227.450 204.475, 227.711 205.234, 228.595 205.496, 228.765 206.031, 229.067 206.266, 229.199 206.537, 229.250 207.322, 229.146 207.568, 229.037 " />
            <path fill="none" stroke-width="3.0" stroke-linecap="butt" stroke-opacity="1.0" stroke="rgb(0, 0, 0)" stroke-linejoin="round" d=" M 203.105, 224.085 203.374, 224.822 203.393, 224.874 203.470, 225.084 203.472, 225.089 203.561, 225.333 " />
            <path fill="none" stroke-width="3.0" stroke-linecap="butt" stroke-opacity="1.0" stroke="rgb(0, 0, 0)" stroke-linejoin="round" d=" M 203.040, 112.377 203.186, 111.728 203.323, 111.118 203.358, 111.035 203.849, 109.888 204.619, 108.548 204.759, 108.353 205.596, 107.191 205.851, 106.896 " />
            <path fill="none" stroke-width="3.0" stroke-linecap="butt" stroke-opacity="1.0" stroke="rgb(0, 0, 0)" stroke-linejoin="round" d=" M 203.229, 112.092 203.358, 111.035 " />
            <path fill="none" stroke-width="3.0" stroke-linecap="butt" stroke-opacity="1.0" stroke="rgb(0, 0, 0)" stroke-linejoin="round" d=" M 213.728, 88.749 213.643, 88.542 213.562, 88.344 " />
            <path fill="none" stroke-width="3.0" stroke-linecap="butt" stroke-opacity="1.0" stroke="rgb(0, 0, 0)" stroke-linejoin="round" d=" M 216.690, 94.313 217.066, 93.969 217.208, 93.593 217.033, 93.066 216.816, 92.712 215.882, 91.805 215.036, 90.667 " />
            <path fill="none" stroke-width="3.0" stroke-linecap="butt" stroke-opacity="1.0" stroke="rgb(0, 0, 0)" stroke-linejoin="round" d=" M 215.072, 90.722 215.036, 90.667 214.153, 89.347 213.643, 88.542 " />
            <path fill="none" stroke-width="3.0" stroke-linecap="butt" stroke-opacity="1.0" stroke="rgb(0, 0, 0)" stroke-linejoin="round" d=" M 216.270, 94.752 216.690, 94.313 216.792, 94.207 " />
            <path fill="none" stroke-width="3.0" stroke-linecap="butt" stroke-opacity="1.0" stroke="rgb(0, 0, 0)" stroke-linejoin="round" d=" M 214.378, 95.804 214.749, 95.391 214.841, 95.290 214.844, 95.286 214.888, 95.237 214.890, 95.235 215.288, 95.060 215.814, 94.912 216.270, 94.752 215.758, 95.032 215.042, 95.292 214.980, 95.437 214.757, 95.965 " />
            <path fill="none" stroke-width="3.0" stroke-linecap="butt" stroke-opacity="1.0" stroke="rgb(0, 0, 0)" stroke-linejoin="round" d=" M 215.552, 94.742 215.415, 94.844 214.890, 95.235 " />
            <path fill="none" stroke-width="3.0" stroke-linecap="butt" stroke-opacity="1.0" stroke="rgb(0, 0, 0)" stroke-linejoin="round" d=" M 214.983, 98.248 215.025, 98.177 215.329, 97.561 215.330, 97.560 " />
            <path fill="none" stroke-width="3.0" stroke-linecap="butt" stroke-opacity="1.0" stroke="rgb(0, 0, 0)" stroke-linejoin="round" d=" M 215.295, 97.759 215.330, 97.560 215.430, 96.979 " />
            <path fill="none" stroke-width="3.0" stroke-linecap="butt" stroke-opacity="1.0" stroke="rgb(0, 0, 0)" stroke-linejoin="round" d=" M 214.928, 98.302 214.983, 98.248 215.295, 97.759 215.396, 97.297 215.430, 96.979 215.330, 96.474 215.202, 95.986 214.994, 95.466 214.980, 95.437 " />
            <path fill="none" stroke-width="3.0" stroke-linecap="butt" stroke-opacity="1.0" stroke="rgb(0, 0, 0)" stroke-linejoin="round" d=" M 213.399, 88.651 213.562, 88.344 213.610, 88.253 213.639, 87.807 213.622, 87.028 213.639, 85.798 213.163, 84.509 212.813, 83.720 212.550, 83.357 " />
            <path fill="none" stroke-width="3.0" stroke-linecap="butt" stroke-opacity="1.0" stroke="rgb(0, 0, 0)" stroke-linejoin="round" d=" M 212.851, 83.951 212.585, 83.426 212.582, 83.421 212.550, 83.357 212.432, 83.123 211.731, 82.059 210.933, 80.825 210.117, 79.450 209.678, 78.891 208.638, 77.569 207.269, 76.472 206.752, 76.125 205.325, 75.208 203.756, 74.531 201.786, 73.863 200.219, 73.492 198.562, 73.346 196.849, 73.410 195.173, 73.675 193.637, 74.168 193.206, 74.332 191.629, 74.953 190.182, 75.722 189.615, 76.083 188.277, 77.151 187.156, 78.376 186.668, 79.061 185.762, 80.478 185.163, 81.997 184.857, 82.874 184.554, 84.465 184.456, 85.394 184.331, 86.975 184.310, 88.539 184.395, 89.446 184.553, 90.963 185.103, 93.284 185.642, 94.657 185.966, 95.447 186.647, 96.681 186.774, 96.863 187.441, 97.817 188.217, 98.992 188.541, 99.484 188.571, 99.529 " />
            <path fill="none" stroke-width="3.0" stroke-linecap="butt" stroke-opacity="1.0" stroke="rgb(0, 0, 0)" stroke-linejoin="round" d=" M 218.122, 314.300 218.229, 314.379 219.209, 314.576 220.016, 314.441 220.562, 314.189 220.926, 313.900 221.162, 313.580 221.269, 313.234 221.275, 313.213 221.300, 312.869 221.272, 312.583 " />
            <path fill="none" stroke-width="3.0" stroke-linecap="butt" stroke-opacity="1.0" stroke="rgb(0, 0, 0)" stroke-linejoin="round" d=" M 214.321, 311.484 214.516, 310.116 214.646, 310.689 214.637, 311.046 214.577, 311.368 " />
            <path fill="none" stroke-width="3.0" stroke-linecap="butt" stroke-opacity="1.0" stroke="rgb(0, 0, 0)" stroke-linejoin="round" d=" M 216.589, 309.966 216.084, 309.340 " />
            <path fill="none" stroke-width="3.0" stroke-linecap="butt" stroke-opacity="1.0" stroke="rgb(0, 0, 0)" stroke-linejoin="round" d=" M 221.205, 312.893 221.272, 312.583 221.277, 312.560 221.265, 312.515 220.807, 312.222 220.092, 311.907 219.347, 311.458 218.819, 310.750 218.356, 310.520 218.048, 310.367 217.293, 310.125 217.272, 310.112 217.123, 310.024 216.630, 309.734 216.107, 309.324 215.945, 309.197 " />
            <path fill="none" stroke-width="3.0" stroke-linecap="butt" stroke-opacity="1.0" stroke="rgb(0, 0, 0)" stroke-linejoin="round" d=" M 216.919, 313.231 216.577, 312.777 216.275, 312.376 215.919, 312.155 215.682, 312.008 215.399, 311.832 214.570, 311.565 214.561, 311.562 214.321, 311.484 " />
            <path fill="none" stroke-width="3.0" stroke-linecap="butt" stroke-opacity="1.0" stroke="rgb(0, 0, 0)" stroke-linejoin="round" d=" M 218.354, 313.514 218.208, 313.653 218.144, 314.037 218.029, 314.231 217.940, 314.380 217.682, 313.974 217.579, 313.813 218.208, 313.653 " />
            <path fill="none" stroke-width="3.0" stroke-linecap="butt" stroke-opacity="1.0" stroke="rgb(0, 0, 0)" stroke-linejoin="round" d=" M 215.957, 313.142 214.999, 312.465 " />
            <path fill="none" stroke-width="3.0" stroke-linecap="butt" stroke-opacity="1.0" stroke="rgb(0, 0, 0)" stroke-linejoin="round" d=" M 209.103, 234.932 209.215, 234.294 209.315, 233.724 209.543, 232.567 209.768, 231.457 209.984, 230.389 210.199, 229.353 210.413, 228.348 210.620, 227.362 210.820, 226.390 211.018, 225.429 211.215, 224.474 211.415, 223.522 211.619, 222.568 211.825, 221.606 212.030, 220.636 212.229, 219.654 212.416, 218.656 212.578, 217.640 212.841, 215.700 212.966, 214.697 213.087, 213.692 213.209, 212.679 213.329, 211.660 213.445, 210.643 213.549, 209.624 213.732, 207.832 213.833, 206.798 213.915, 205.742 214.072, 203.881 214.167, 202.757 214.293, 200.764 214.342, 199.599 214.338, 197.523 214.279, 196.432 214.161, 195.370 214.040, 194.465 213.870, 193.466 213.674, 192.457 213.598, 192.116 213.594, 192.097 213.591, 192.084 213.456, 191.475 213.395, 191.244 213.226, 190.610 213.138, 190.254 213.135, 190.243 213.035, 189.839 212.894, 189.089 " />
            <path fill="none" stroke-width="3.0" stroke-linecap="butt" stroke-opacity="1.0" stroke="rgb(0, 0, 0)" stroke-linejoin="round" d=" M 215.452, 304.461 215.614, 304.619 " />
            <path fill="none" stroke-width="3.0" stroke-linecap="butt" stroke-opacity="1.0" stroke="rgb(0, 0, 0)" stroke-linejoin="round" d=" M 220.243, 304.880 221.019, 306.156 " />
            <path fill="none" stroke-width="3.0" stroke-linecap="butt" stroke-opacity="1.0" stroke="rgb(0, 0, 0)" stroke-linejoin="round" d=" M 224.005, 308.932 224.423, 308.577 224.677, 308.311 224.947, 307.738 225.001, 307.180 224.978, 306.793 224.820, 306.336 224.753, 305.866 224.535, 305.378 223.673, 305.085 222.499, 305.019 221.310, 304.568 221.109, 304.404 " />
            <path fill="none" stroke-width="3.0" stroke-linecap="butt" stroke-opacity="1.0" stroke="rgb(0, 0, 0)" stroke-linejoin="round" d=" M 221.576, 307.953 221.479, 307.855 220.747, 307.115 219.835, 306.350 218.725, 306.216 217.763, 305.897 216.869, 305.384 216.046, 304.810 215.827, 304.700 215.614, 304.619 214.750, 304.289 213.346, 303.826 211.988, 303.102 " />
            <path fill="none" stroke-width="3.0" stroke-linecap="butt" stroke-opacity="1.0" stroke="rgb(0, 0, 0)" stroke-linejoin="round" d=" M 222.686, 308.336 222.571, 308.294 221.503, 307.875 221.479, 307.855 " />
            <path fill="none" stroke-width="3.0" stroke-linecap="butt" stroke-opacity="1.0" stroke="rgb(0, 0, 0)" stroke-linejoin="round" d=" M 214.223, 305.966 215.352, 306.551 " />
            <path fill="none" stroke-width="3.0" stroke-linecap="butt" stroke-opacity="1.0" stroke="rgb(0, 0, 0)" stroke-linejoin="round" d=" M 222.050, 310.418 221.786, 310.295 220.779, 309.972 220.199, 309.213 219.515, 308.783 218.747, 308.702 218.152, 308.493 217.612, 308.184 217.592, 308.170 217.094, 307.800 217.035, 307.757 216.333, 307.160 215.345, 306.649 " />
            <path fill="none" stroke-width="3.0" stroke-linecap="butt" stroke-opacity="1.0" stroke="rgb(0, 0, 0)" stroke-linejoin="round" d=" M 214.879, 141.185 215.136, 139.817 215.171, 138.917 215.242, 137.585 215.162, 136.850 215.071, 135.634 214.748, 134.064 214.709, 133.873 214.400, 132.698 214.298, 132.341 214.278, 132.269 " />
            <path fill="none" stroke-width="3.0" stroke-linecap="butt" stroke-opacity="1.0" stroke="rgb(0, 0, 0)" stroke-linejoin="round" d=" M 213.588, 145.393 213.629, 145.273 " />
            <path fill="none" stroke-width="3.0" stroke-linecap="butt" stroke-opacity="1.0" stroke="rgb(0, 0, 0)" stroke-linejoin="round" d=" M 213.298, 145.812 213.608, 145.307 213.629, 145.273 213.852, 144.911 214.050, 144.467 214.287, 143.744 214.614, 142.745 " />
            <path fill="none" stroke-width="3.0" stroke-linecap="butt" stroke-opacity="1.0" stroke="rgb(0, 0, 0)" stroke-linejoin="round" d=" M 214.287, 143.744 214.640, 142.796 214.653, 142.705 214.879, 141.185 214.963, 140.626 " />
            <path fill="none" stroke-width="3.0" stroke-linecap="butt" stroke-opacity="1.0" stroke="rgb(0, 0, 0)" stroke-linejoin="round" d=" M 215.121, 132.541 215.218, 131.443 215.288, 130.501 " />
            <path fill="none" stroke-width="3.0" stroke-linecap="butt" stroke-opacity="1.0" stroke="rgb(0, 0, 0)" stroke-linejoin="round" d=" M 214.748, 134.064 214.843, 133.696 215.121, 132.541 215.219, 131.621 215.288, 130.501 215.202, 129.449 215.008, 128.415 214.999, 128.374 214.766, 127.321 " />
            <path fill="none" stroke-width="3.0" stroke-linecap="butt" stroke-opacity="1.0" stroke="rgb(0, 0, 0)" stroke-linejoin="round" d=" M 214.041, 168.430 214.045, 168.361 214.048, 168.318 214.049, 168.305 214.089, 167.664 214.187, 166.791 214.312, 165.806 214.416, 164.927 214.441, 164.720 214.555, 163.548 214.651, 162.301 214.792, 160.321 214.887, 158.976 214.993, 157.587 215.112, 156.158 215.242, 154.695 215.351, 153.189 215.397, 152.371 " />
            <path fill="none" stroke-width="3.0" stroke-linecap="butt" stroke-opacity="1.0" stroke="rgb(0, 0, 0)" stroke-linejoin="round" d=" M 214.057, 169.101 214.045, 168.361 " />
            <path fill="none" stroke-width="3.0" stroke-linecap="butt" stroke-opacity="1.0" stroke="rgb(0, 0, 0)" stroke-linejoin="round" d=" M 213.312, 307.455 214.607, 307.765 215.469, 308.194 215.877, 308.868 216.107, 309.324 " />
            <path fill="none" stroke-width="3.0" stroke-linecap="butt" stroke-opacity="1.0" stroke="rgb(0, 0, 0)" stroke-linejoin="round" d=" M 216.034, 307.563 215.132, 306.982 " />
            <path fill="none" stroke-width="3.0" stroke-linecap="butt" stroke-opacity="1.0" stroke="rgb(0, 0, 0)" stroke-linejoin="round" d=" M 216.084, 309.340 215.945, 309.197 215.364, 308.601 " />
            <path fill="none" stroke-width="3.0" stroke-linecap="butt" stroke-opacity="1.0" stroke="rgb(0, 0, 0)" stroke-linejoin="round" d=" M 219.507, 310.719 219.564, 310.723 220.574, 310.797 219.833, 310.284 219.060, 309.899 218.377, 309.620 " />
            <path fill="none" stroke-width="3.0" stroke-linecap="butt" stroke-opacity="1.0" stroke="rgb(0, 0, 0)" stroke-linejoin="round" d=" M 219.373, 309.232 220.115, 309.756 " />
            <path fill="none" stroke-width="3.0" stroke-linecap="butt" stroke-opacity="1.0" stroke="rgb(0, 0, 0)" stroke-linejoin="round" d=" M 213.395, 191.244 213.527, 190.935 213.786, 190.381 213.990, 189.906 214.179, 189.466 214.434, 188.697 214.676, 187.538 214.817, 186.607 214.927, 185.297 215.016, 183.935 215.164, 182.544 215.347, 181.138 215.476, 179.732 215.522, 178.646 215.558, 177.146 215.546, 175.628 215.512, 174.581 215.451, 172.902 215.302, 170.923 215.151, 169.032 214.974, 167.635 214.757, 166.446 214.523, 165.390 214.416, 164.927 " />
            <path fill="none" stroke-width="3.0" stroke-linecap="butt" stroke-opacity="1.0" stroke="rgb(0, 0, 0)" stroke-linejoin="round" d=" M 187.422, 239.487 187.264, 240.119 186.878, 241.493 186.414, 242.942 186.060, 243.949 185.884, 244.449 " />
            <path fill="none" stroke-width="3.0" stroke-linecap="butt" stroke-opacity="1.0" stroke="rgb(0, 0, 0)" stroke-linejoin="round" d=" M 187.856, 235.458 187.838, 236.013 187.763, 237.129 187.625, 238.293 187.422, 239.487 187.409, 239.565 " />
            <path fill="none" stroke-width="3.0" stroke-linecap="butt" stroke-opacity="1.0" stroke="rgb(0, 0, 0)" stroke-linejoin="round" d=" M 179.094, 108.334 179.080, 108.379 179.072, 108.409 178.800, 109.331 178.418, 110.465 177.980, 111.732 177.526, 113.099 177.154, 114.335 176.731, 115.935 176.364, 117.720 176.118, 119.369 176.070, 119.776 175.920, 121.461 175.941, 123.070 176.070, 124.601 176.148, 125.295 176.334, 126.813 176.593, 128.230 " />
            <path fill="none" stroke-width="3.0" stroke-linecap="butt" stroke-opacity="1.0" stroke="rgb(0, 0, 0)" stroke-linejoin="round" d=" M 178.847, 105.517 179.069, 106.942 179.110, 107.155 179.171, 107.429 " />
            <path fill="none" stroke-width="3.0" stroke-linecap="butt" stroke-opacity="1.0" stroke="rgb(0, 0, 0)" stroke-linejoin="round" d=" M 186.774, 96.863 185.951, 97.071 184.201, 97.765 182.609, 98.765 181.329, 99.897 180.260, 101.178 179.434, 102.515 178.919, 103.909 178.906, 104.054 178.894, 104.347 178.847, 105.517 178.835, 105.391 178.894, 104.347 " />
            <path fill="none" stroke-width="3.0" stroke-linecap="butt" stroke-opacity="1.0" stroke="rgb(0, 0, 0)" stroke-linejoin="round" d=" M 213.480, 123.359 213.059, 122.508 212.671, 121.757 212.617, 121.651 212.338, 121.136 211.941, 120.444 211.475, 119.618 210.955, 118.693 210.388, 117.699 209.784, 116.655 209.156, 115.571 208.512, 114.478 208.003, 113.618 207.300, 112.435 206.594, 111.309 205.881, 110.138 204.759, 108.353 " />
            <path fill="none" stroke-width="3.0" stroke-linecap="butt" stroke-opacity="1.0" stroke="rgb(0, 0, 0)" stroke-linejoin="round" d=" M 197.004, 281.866 198.253, 281.931 199.658, 282.199 201.025, 282.707 202.371, 283.438 203.855, 284.219 205.520, 284.939 207.379, 285.416 209.327, 285.660 211.217, 285.589 212.882, 285.226 214.292, 284.756 215.457, 284.193 216.568, 283.937 217.244, 284.018 " />
            <path fill="none" stroke-width="3.0" stroke-linecap="butt" stroke-opacity="1.0" stroke="rgb(0, 0, 0)" stroke-linejoin="round" d=" M 216.637, 283.888 217.244, 284.018 217.806, 284.139 218.994, 284.668 220.331, 285.336 220.535, 285.380 222.197, 285.384 223.616, 284.998 224.397, 284.446 224.677, 284.003 224.966, 283.419 225.001, 282.433 224.852, 282.003 224.736, 281.516 224.594, 281.291 224.156, 281.121 224.043, 281.079 223.706, 280.986 223.212, 280.850 223.045, 280.819 " />
            <path fill="none" stroke-width="3.0" stroke-linecap="butt" stroke-opacity="1.0" stroke="rgb(0, 0, 0)" stroke-linejoin="round" d=" M 216.589, 274.863 216.084, 274.795 " />
            <path fill="none" stroke-width="3.0" stroke-linecap="butt" stroke-opacity="1.0" stroke="rgb(0, 0, 0)" stroke-linejoin="round" d=" M 221.287, 277.120 221.300, 276.982 221.265, 276.756 221.278, 276.462 220.775, 276.225 219.997, 276.155 219.214, 275.812 218.799, 275.288 218.525, 275.139 217.969, 274.950 217.102, 274.925 216.717, 274.878 216.589, 274.863 215.969, 274.702 " />
            <path fill="none" stroke-width="3.0" stroke-linecap="butt" stroke-opacity="1.0" stroke="rgb(0, 0, 0)" stroke-linejoin="round" d=" M 217.969, 274.950 218.799, 275.288 " />
            <path fill="none" stroke-width="3.0" stroke-linecap="butt" stroke-opacity="1.0" stroke="rgb(0, 0, 0)" stroke-linejoin="round" d=" M 218.802, 276.108 218.377, 276.047 218.131, 275.985 217.980, 275.947 217.814, 275.906 217.395, 275.722 217.035, 275.621 216.034, 274.998 215.132, 274.733 214.543, 274.571 214.442, 274.544 213.876, 274.388 212.978, 274.110 212.438, 273.942 212.256, 273.877 211.487, 273.604 210.428, 273.224 210.133, 273.118 209.550, 272.958 " />
            <path fill="none" stroke-width="3.0" stroke-linecap="butt" stroke-opacity="1.0" stroke="rgb(0, 0, 0)" stroke-linejoin="round" d=" M 215.345, 275.299 215.477, 275.329 216.335, 275.525 217.035, 275.621 217.612, 276.253 " />
            <path fill="none" stroke-width="3.0" stroke-linecap="butt" stroke-opacity="1.0" stroke="rgb(0, 0, 0)" stroke-linejoin="round" d=" M 216.084, 274.795 215.969, 274.702 215.505, 274.323 215.205, 274.078 213.848, 273.958 213.070, 273.564 211.553, 273.208 210.571, 272.910 208.996, 272.541 207.477, 272.223 206.323, 272.178 206.005, 272.165 205.753, 272.130 " />
            <path fill="none" stroke-width="3.0" stroke-linecap="butt" stroke-opacity="1.0" stroke="rgb(0, 0, 0)" stroke-linejoin="round" d=" M 220.687, 277.060 220.583, 276.928 220.115, 276.333 219.373, 275.972 219.040, 276.051 218.802, 276.108 218.661, 276.141 " />
            <path fill="none" stroke-width="3.0" stroke-linecap="butt" stroke-opacity="1.0" stroke="rgb(0, 0, 0)" stroke-linejoin="round" d=" M 223.196, 280.867 223.045, 280.819 222.193, 280.546 221.565, 280.099 221.019, 279.711 220.243, 279.017 218.845, 278.904 217.678, 278.995 217.294, 278.912 217.197, 278.890 216.708, 278.784 216.406, 278.703 215.702, 278.514 215.507, 278.440 215.456, 278.421 214.679, 278.126 " />
            <path fill="none" stroke-width="3.0" stroke-linecap="butt" stroke-opacity="1.0" stroke="rgb(0, 0, 0)" stroke-linejoin="round" d=" M 220.729, 277.913 220.277, 277.534 219.817, 277.148 218.733, 277.280 217.845, 277.085 217.606, 276.948 216.957, 276.577 216.673, 276.397 215.965, 275.946 215.812, 275.896 214.613, 275.507 214.587, 275.498 214.565, 275.491 214.560, 275.489 214.554, 275.487 214.541, 275.483 213.242, 275.108 " />
            <path fill="none" stroke-width="3.0" stroke-linecap="butt" stroke-opacity="1.0" stroke="rgb(0, 0, 0)" stroke-linejoin="round" d=" M 219.884, 277.489 219.854, 277.337 219.848, 277.307 219.817, 277.148 " />
            <path fill="none" stroke-width="3.0" stroke-linecap="butt" stroke-opacity="1.0" stroke="rgb(0, 0, 0)" stroke-linejoin="round" d=" M 221.593, 278.476 221.574, 278.461 220.954, 277.971 220.650, 277.732 220.277, 277.534 " />
            <path fill="none" stroke-width="3.0" stroke-linecap="butt" stroke-opacity="1.0" stroke="rgb(0, 0, 0)" stroke-linejoin="round" d=" M 213.715, 191.378 213.744, 191.229 213.938, 190.231 213.990, 189.906 " />
            <path fill="none" stroke-width="3.0" stroke-linecap="butt" stroke-opacity="1.0" stroke="rgb(0, 0, 0)" stroke-linejoin="round" d=" M 213.594, 192.097 213.630, 191.894 213.696, 191.524 213.744, 191.229 " />
            <path fill="none" stroke-width="3.0" stroke-linecap="butt" stroke-opacity="1.0" stroke="rgb(0, 0, 0)" stroke-linejoin="round" d=" M 188.590, 99.961 188.696, 100.710 188.696, 100.714 188.706, 100.783 188.717, 100.863 188.608, 102.267 " />
            <path fill="none" stroke-width="3.0" stroke-linecap="butt" stroke-opacity="1.0" stroke="rgb(0, 0, 0)" stroke-linejoin="round" d=" M 187.573, 208.776 187.776, 209.404 188.021, 210.158 188.321, 211.678 188.258, 213.179 188.248, 213.270 188.107, 214.667 " />
            <path fill="none" stroke-width="3.0" stroke-linecap="butt" stroke-opacity="1.0" stroke="rgb(0, 0, 0)" stroke-linejoin="round" d=" M 185.908, 233.995 185.724, 234.274 " />
            <path fill="none" stroke-width="3.0" stroke-linecap="butt" stroke-opacity="1.0" stroke="rgb(0, 0, 0)" stroke-linejoin="round" d=" M 196.663, 240.890 196.748, 240.741 196.906, 240.192 196.979, 239.465 197.052, 238.607 197.028, 237.568 197.099, 236.309 197.100, 234.975 197.009, 233.478 196.924, 232.385 196.922, 231.876 " />
            <path fill="none" stroke-width="3.0" stroke-linecap="butt" stroke-opacity="1.0" stroke="rgb(0, 0, 0)" stroke-linejoin="round" d=" M 198.889, 232.604 198.913, 232.702 199.251, 233.954 199.331, 234.246 199.718, 235.461 199.882, 236.251 199.946, 236.539 200.155, 237.424 200.357, 237.913 200.360, 237.921 200.361, 237.922 200.361, 237.922 200.372, 237.948 200.453, 238.146 200.818, 238.725 201.249, 239.154 201.511, 239.266 201.724, 239.237 201.853, 239.220 " />
            <path fill="none" stroke-width="3.0" stroke-linecap="butt" stroke-opacity="1.0" stroke="rgb(0, 0, 0)" stroke-linejoin="round" d=" M 200.410, 237.593 200.093, 236.818 " />
            <path fill="none" stroke-width="3.0" stroke-linecap="butt" stroke-opacity="1.0" stroke="rgb(0, 0, 0)" stroke-linejoin="round" d=" M 182.640, 274.035 182.740, 275.560 182.807, 277.242 182.875, 278.935 182.976, 280.618 183.122, 282.270 183.290, 283.886 183.379, 284.799 183.445, 285.464 183.538, 287.020 183.553, 288.580 183.519, 290.163 183.506, 291.755 183.519, 293.334 183.496, 294.530 183.365, 296.037 183.190, 297.524 183.026, 298.601 182.735, 300.120 182.423, 301.314 182.334, 301.654 " />
            <path fill="none" stroke-width="3.0" stroke-linecap="butt" stroke-opacity="1.0" stroke="rgb(0, 0, 0)" stroke-linejoin="round" d=" M 205.982, 223.490 205.765, 222.812 205.726, 222.687 205.595, 222.281 205.575, 222.217 205.196, 220.911 " />
            <path fill="none" stroke-width="3.0" stroke-linecap="butt" stroke-opacity="1.0" stroke="rgb(0, 0, 0)" stroke-linejoin="round" d=" M 206.986, 225.998 206.978, 225.891 206.975, 225.850 206.973, 225.818 206.881, 224.577 206.751, 224.375 206.096, 223.344 205.926, 223.076 205.867, 222.962 " />
            <path fill="none" stroke-width="3.0" stroke-linecap="butt" stroke-opacity="1.0" stroke="rgb(0, 0, 0)" stroke-linejoin="round" d=" M 205.993, 223.276 205.867, 222.962 205.595, 222.281 " />
            <path fill="none" stroke-width="3.0" stroke-linecap="butt" stroke-opacity="1.0" stroke="rgb(0, 0, 0)" stroke-linejoin="round" d=" M 208.160, 228.572 208.177, 228.553 208.048, 228.110 207.787, 227.609 207.473, 227.043 207.131, 226.402 207.011, 225.976 " />
            <path fill="none" stroke-width="3.0" stroke-linecap="butt" stroke-opacity="1.0" stroke="rgb(0, 0, 0)" stroke-linejoin="round" d=" M 207.159, 226.597 207.011, 225.976 206.973, 225.818 " />
            <path fill="none" stroke-width="3.0" stroke-linecap="butt" stroke-opacity="1.0" stroke="rgb(0, 0, 0)" stroke-linejoin="round" d=" M 213.288, 88.995 213.399, 88.651 213.374, 88.681 213.229, 88.858 " />
            <path fill="none" stroke-width="3.0" stroke-linecap="butt" stroke-opacity="1.0" stroke="rgb(0, 0, 0)" stroke-linejoin="round" d=" M 222.874, 311.283 222.986, 311.239 223.425, 310.928 223.724, 310.601 223.819, 310.459 223.949, 310.225 224.014, 309.973 224.026, 309.617 224.008, 309.466 224.017, 308.945 224.005, 308.932 223.539, 308.443 222.686, 308.336 222.603, 308.326 " />
            <path fill="none" stroke-width="3.0" stroke-linecap="butt" stroke-opacity="1.0" stroke="rgb(0, 0, 0)" stroke-linejoin="round" d=" M 221.277, 312.560 221.269, 312.557 221.259, 312.553 220.820, 312.374 " />
            <path fill="none" stroke-width="3.0" stroke-linecap="butt" stroke-opacity="1.0" stroke="rgb(0, 0, 0)" stroke-linejoin="round" d=" M 218.799, 310.878 217.969, 310.541 " />
            <path fill="none" stroke-width="3.0" stroke-linecap="butt" stroke-opacity="1.0" stroke="rgb(0, 0, 0)" stroke-linejoin="round" d=" M 222.390, 311.639 222.488, 311.432 222.620, 311.152 222.455, 310.749 222.588, 310.674 222.591, 310.672 222.711, 310.604 " />
            <path fill="none" stroke-width="3.0" stroke-linecap="butt" stroke-opacity="1.0" stroke="rgb(0, 0, 0)" stroke-linejoin="round" d=" M 221.269, 313.234 221.441, 313.295 222.226, 313.205 222.655, 312.872 222.892, 312.498 223.007, 311.950 222.921, 311.429 222.897, 311.348 222.874, 311.283 222.777, 311.020 " />
            <path fill="none" stroke-width="3.0" stroke-linecap="butt" stroke-opacity="1.0" stroke="rgb(0, 0, 0)" stroke-linejoin="round" d=" M 214.653, 142.705 214.683, 143.009 214.944, 144.781 215.241, 146.599 215.387, 148.389 215.426, 149.141 215.423, 149.925 215.417, 150.747 215.397, 152.371 215.410, 151.591 215.423, 149.925 " />
            <path fill="none" stroke-width="3.0" stroke-linecap="butt" stroke-opacity="1.0" stroke="rgb(0, 0, 0)" stroke-linejoin="round" d=" M 222.817, 311.269 222.777, 311.020 222.711, 310.604 222.050, 310.418 221.810, 310.351 " />
            <path fill="none" stroke-width="3.0" stroke-linecap="butt" stroke-opacity="1.0" stroke="rgb(0, 0, 0)" stroke-linejoin="round" d=" M 219.817, 306.840 219.885, 306.487 " />
            <path fill="none" stroke-width="3.0" stroke-linecap="butt" stroke-opacity="1.0" stroke="rgb(0, 0, 0)" stroke-linejoin="round" d=" M 219.641, 307.379 220.649, 307.970 " />
            <path fill="none" stroke-width="3.0" stroke-linecap="butt" stroke-opacity="1.0" stroke="rgb(0, 0, 0)" stroke-linejoin="round" d=" M 223.600, 309.721 223.777, 309.279 " />
            <path fill="none" stroke-width="3.0" stroke-linecap="butt" stroke-opacity="1.0" stroke="rgb(0, 0, 0)" stroke-linejoin="round" d=" M 196.400, 287.508 196.405, 287.389 196.455, 286.180 196.582, 284.800 196.752, 283.338 197.004, 281.866 197.011, 281.821 197.221, 280.271 197.477, 278.736 197.774, 277.210 198.096, 275.685 198.455, 274.165 198.812, 272.647 199.119, 271.130 199.386, 269.620 199.512, 268.940 199.662, 268.128 199.959, 266.657 200.280, 265.205 200.617, 263.769 200.956, 262.342 201.285, 260.921 201.606, 259.506 201.926, 258.099 202.263, 256.704 202.639, 255.323 203.082, 253.963 203.601, 252.616 204.181, 251.247 204.807, 249.834 205.347, 248.355 205.725, 247.778 206.713, 246.755 207.606, 245.468 208.091, 243.747 208.253, 242.987 208.439, 242.061 208.522, 241.297 208.663, 239.683 208.772, 238.169 208.895, 236.743 209.051, 235.393 209.215, 234.294 " />
            <path fill="none" stroke-width="3.0" stroke-linecap="butt" stroke-opacity="1.0" stroke="rgb(0, 0, 0)" stroke-linejoin="round" d=" M 179.176, 107.148 179.175, 107.212 179.173, 107.313 179.171, 107.429 179.164, 107.773 179.084, 108.352 " />
            <path fill="none" stroke-width="3.0" stroke-linecap="butt" stroke-opacity="1.0" stroke="rgb(0, 0, 0)" stroke-linejoin="round" d=" M 179.281, 107.455 179.223, 107.722 179.218, 107.741 179.215, 107.756 179.209, 107.782 179.084, 108.352 179.072, 108.409 " />
            <path fill="none" stroke-width="3.0" stroke-linecap="butt" stroke-opacity="1.0" stroke="rgb(0, 0, 0)" stroke-linejoin="round" d=" M 181.358, 278.922 181.309, 279.503 181.237, 280.356 181.221, 281.730 181.665, 282.885 181.933, 283.499 182.565, 284.041 " />
            <path fill="none" stroke-width="3.0" stroke-linecap="butt" stroke-opacity="1.0" stroke="rgb(0, 0, 0)" stroke-linejoin="round" d=" M 182.497, 283.972 182.565, 284.041 183.276, 284.753 183.379, 284.799 " />
            <path fill="none" stroke-width="3.0" stroke-linecap="butt" stroke-opacity="1.0" stroke="rgb(0, 0, 0)" stroke-linejoin="round" d=" M 205.938, 272.219 205.766, 272.136 205.753, 272.130 205.641, 272.076 204.632, 271.590 203.775, 271.127 202.544, 270.472 201.405, 269.845 200.313, 269.322 199.512, 268.940 " />
            <path fill="none" stroke-width="3.0" stroke-linecap="butt" stroke-opacity="1.0" stroke="rgb(0, 0, 0)" stroke-linejoin="round" d=" M 223.706, 280.986 223.888, 280.682 224.025, 280.204 224.008, 279.651 224.016, 279.573 223.777, 278.933 222.965, 278.693 222.759, 278.632 221.574, 278.461 " />
            <path fill="none" stroke-width="3.0" stroke-linecap="butt" stroke-opacity="1.0" stroke="rgb(0, 0, 0)" stroke-linejoin="round" d=" M 222.817, 277.948 222.710, 277.796 222.455, 277.470 222.620, 277.346 " />
            <path fill="none" stroke-width="3.0" stroke-linecap="butt" stroke-opacity="1.0" stroke="rgb(0, 0, 0)" stroke-linejoin="round" d=" M 222.965, 278.693 222.927, 278.495 222.817, 277.948 222.620, 277.346 221.684, 277.228 221.287, 277.120 220.583, 276.928 " />
            <path fill="none" stroke-width="3.0" stroke-linecap="butt" stroke-opacity="1.0" stroke="rgb(0, 0, 0)" stroke-linejoin="round" d=" M 222.658, 278.337 222.709, 277.806 222.710, 277.796 " />
            <path fill="none" stroke-width="3.0" stroke-linecap="butt" stroke-opacity="1.0" stroke="rgb(0, 0, 0)" stroke-linejoin="round" d=" M 216.717, 274.878 215.957, 274.458 215.505, 274.323 " />
            <path fill="none" stroke-width="3.0" stroke-linecap="butt" stroke-opacity="1.0" stroke="rgb(0, 0, 0)" stroke-linejoin="round" d=" M 220.188, 282.495 221.310, 283.239 " />
            <path fill="none" stroke-width="3.0" stroke-linecap="butt" stroke-opacity="1.0" stroke="rgb(0, 0, 0)" stroke-linejoin="round" d=" M 220.820, 276.334 221.278, 276.462 " />
            <path fill="none" stroke-width="3.0" stroke-linecap="butt" stroke-opacity="1.0" stroke="rgb(0, 0, 0)" stroke-linejoin="round" d=" M 221.131, 276.998 221.265, 276.756 " />
            <path fill="none" stroke-width="3.0" stroke-linecap="butt" stroke-opacity="1.0" stroke="rgb(0, 0, 0)" stroke-linejoin="round" d=" M 214.999, 128.374 214.983, 128.291 214.766, 127.321 214.461, 126.192 214.133, 125.081 " />
            <path fill="none" stroke-width="3.0" stroke-linecap="butt" stroke-opacity="1.0" stroke="rgb(0, 0, 0)" stroke-linejoin="round" d=" M 214.133, 125.081 213.853, 124.306 213.608, 123.684 213.572, 123.593 213.480, 123.359 213.778, 124.048 214.133, 125.081 " />
            <path fill="none" stroke-width="3.0" stroke-linecap="butt" stroke-opacity="1.0" stroke="rgb(0, 0, 0)" stroke-linejoin="round" d=" M 186.525, 217.104 186.106, 218.163 185.526, 219.442 184.856, 220.762 184.153, 222.145 183.531, 223.618 183.246, 224.478 182.753, 226.014 182.328, 227.586 181.944, 229.186 181.629, 230.815 181.383, 232.474 181.126, 234.971 181.048, 236.647 181.095, 238.326 181.374, 240.737 181.704, 242.322 182.306, 244.536 182.320, 244.586 182.484, 245.207 182.486, 245.216 182.705, 246.048 " />
            <path fill="none" stroke-width="3.0" stroke-linecap="butt" stroke-opacity="1.0" stroke="rgb(0, 0, 0)" stroke-linejoin="round" d=" M 190.048, 239.350 190.300, 239.487 190.678, 239.490 190.795, 239.303 191.173, 239.066 191.278, 238.883 191.394, 238.649 191.637, 238.209 191.801, 237.494 191.875, 237.065 " />
            <path fill="none" stroke-width="3.0" stroke-linecap="butt" stroke-opacity="1.0" stroke="rgb(0, 0, 0)" stroke-linejoin="round" d=" M 194.307, 237.602 194.124, 238.615 194.162, 239.521 194.279, 240.286 194.508, 240.979 194.697, 241.295 194.865, 241.517 195.107, 241.752 195.380, 241.722 195.719, 241.853 196.013, 241.688 196.247, 241.602 196.375, 241.418 196.508, 241.214 196.663, 240.890 196.674, 240.866 " />
            <path fill="none" stroke-width="3.0" stroke-linecap="butt" stroke-opacity="1.0" stroke="rgb(0, 0, 0)" stroke-linejoin="round" d=" M 189.312, 238.496 189.255, 238.351 189.168, 237.840 189.172, 237.187 189.306, 236.362 189.286, 236.605 189.254, 237.401 " />
            <path fill="none" stroke-width="3.0" stroke-linecap="butt" stroke-opacity="1.0" stroke="rgb(0, 0, 0)" stroke-linejoin="round" d=" M 201.724, 239.237 201.960, 239.285 202.267, 239.285 202.474, 239.169 202.617, 239.044 202.724, 238.746 202.888, 238.582 202.966, 238.350 202.983, 237.989 202.950, 237.782 202.885, 237.374 " />
            <path fill="none" stroke-width="3.0" stroke-linecap="butt" stroke-opacity="1.0" stroke="rgb(0, 0, 0)" stroke-linejoin="round" d=" M 189.303, 238.461 189.312, 238.496 189.416, 238.877 189.569, 239.105 189.865, 239.317 190.048, 239.350 190.221, 239.380 " />
            <path fill="none" stroke-width="3.0" stroke-linecap="butt" stroke-opacity="1.0" stroke="rgb(0, 0, 0)" stroke-linejoin="round" d=" M 190.678, 239.490 190.897, 239.080 " />
            <path fill="none" stroke-width="3.0" stroke-linecap="butt" stroke-opacity="1.0" stroke="rgb(0, 0, 0)" stroke-linejoin="round" d=" M 183.662, 199.480 183.663, 199.485 184.027, 200.568 184.353, 201.618 184.641, 202.638 184.894, 203.636 185.115, 204.627 185.314, 205.615 185.508, 206.608 185.613, 207.178 185.693, 207.611 " />
            <path fill="none" stroke-width="3.0" stroke-linecap="butt" stroke-opacity="1.0" stroke="rgb(0, 0, 0)" stroke-linejoin="round" d=" M 210.539, 147.409 211.005, 147.201 211.285, 147.055 211.626, 146.582 212.082, 145.752 " />
            <path fill="none" stroke-width="3.0" stroke-linecap="butt" stroke-opacity="1.0" stroke="rgb(0, 0, 0)" stroke-linejoin="round" d=" M 205.199, 220.958 205.196, 220.911 205.168, 220.431 " />
            <path fill="none" stroke-width="3.0" stroke-linecap="butt" stroke-opacity="1.0" stroke="rgb(0, 0, 0)" stroke-linejoin="round" d=" M 207.848, 228.940 207.568, 229.037 207.737, 228.938 207.895, 228.844 207.965, 228.802 207.973, 228.797 " />
            <path fill="none" stroke-width="3.0" stroke-linecap="butt" stroke-opacity="1.0" stroke="rgb(0, 0, 0)" stroke-linejoin="round" d=" M 208.160, 228.567 208.160, 228.572 208.124, 228.811 207.848, 228.940 207.969, 228.802 207.973, 228.797 207.982, 228.765 207.982, 228.764 208.039, 228.546 " />
            <path fill="none" stroke-width="3.0" stroke-linecap="butt" stroke-opacity="1.0" stroke="rgb(0, 0, 0)" stroke-linejoin="round" d=" M 208.160, 228.567 208.177, 228.553 " />
            <path fill="none" stroke-width="3.0" stroke-linecap="butt" stroke-opacity="1.0" stroke="rgb(0, 0, 0)" stroke-linejoin="round" d=" M 214.076, 168.662 214.049, 168.305 " />
            <path fill="none" stroke-width="3.0" stroke-linecap="butt" stroke-opacity="1.0" stroke="rgb(0, 0, 0)" stroke-linejoin="round" d=" M 224.598, 306.538 224.738, 306.243 224.753, 305.866 " />
            <path fill="none" stroke-width="3.0" stroke-linecap="butt" stroke-opacity="1.0" stroke="rgb(0, 0, 0)" stroke-linejoin="round" d=" M 187.660, 231.151 187.677, 231.405 187.740, 232.481 187.793, 233.555 187.835, 234.629 187.856, 235.458 187.862, 235.709 " />
            <path fill="none" stroke-width="3.0" stroke-linecap="butt" stroke-opacity="1.0" stroke="rgb(0, 0, 0)" stroke-linejoin="round" d=" M 186.060, 243.949 185.599, 245.030 184.896, 246.581 184.175, 248.212 183.464, 249.926 182.908, 251.734 182.896, 251.780 182.432, 253.572 182.027, 255.427 181.707, 257.290 181.548, 258.298 181.303, 260.166 181.131, 262.024 181.048, 263.858 181.090, 265.657 181.187, 266.642 181.397, 268.349 181.786, 269.951 182.196, 271.498 182.513, 273.046 182.544, 273.292 182.640, 274.035 182.714, 274.615 " />
            <path fill="none" stroke-width="3.0" stroke-linecap="butt" stroke-opacity="1.0" stroke="rgb(0, 0, 0)" stroke-linejoin="round" d=" M 179.117, 106.602 179.173, 107.313 " />
            <path fill="none" stroke-width="3.0" stroke-linecap="butt" stroke-opacity="1.0" stroke="rgb(0, 0, 0)" stroke-linejoin="round" d=" M 182.544, 273.292 182.435, 273.715 181.884, 275.522 181.541, 276.973 181.366, 278.407 181.309, 279.503 " />
            <path fill="none" stroke-width="3.0" stroke-linecap="butt" stroke-opacity="1.0" stroke="rgb(0, 0, 0)" stroke-linejoin="round" d=" M 224.736, 281.516 224.753, 281.858 224.534, 282.213 223.673, 282.528 " />
            <path fill="none" stroke-width="3.0" stroke-linecap="butt" stroke-opacity="1.0" stroke="rgb(0, 0, 0)" stroke-linejoin="round" d=" M 195.107, 241.752 195.499, 241.683 195.719, 241.853 " />
            <path fill="none" stroke-width="3.0" stroke-linecap="butt" stroke-opacity="1.0" stroke="rgb(0, 0, 0)" stroke-linejoin="round" d=" M 182.621, 246.286 182.733, 247.885 182.799, 249.534 182.863, 251.217 182.896, 251.780 " />
            <path fill="none" stroke-width="3.0" stroke-linecap="butt" stroke-opacity="1.0" stroke="rgb(0, 0, 0)" stroke-linejoin="round" d=" M 185.613, 207.178 185.731, 208.009 185.861, 209.024 185.977, 210.051 186.077, 211.089 186.167, 212.136 186.250, 213.192 186.330, 214.252 186.406, 215.314 186.483, 216.374 186.501, 216.666 186.525, 217.104 186.557, 217.709 186.619, 218.753 186.689, 219.797 186.768, 220.843 186.857, 221.891 186.955, 222.939 186.962, 223.020 " />
            <path fill="none" stroke-width="3.0" stroke-linecap="butt" stroke-opacity="1.0" stroke="rgb(0, 0, 0)" stroke-linejoin="round" d=" M 182.306, 244.536 182.493, 245.354 182.621, 246.286 182.704, 246.886 " />
            <path fill="none" stroke-width="3.0" stroke-linecap="butt" stroke-opacity="1.0" stroke="rgb(0, 0, 0)" stroke-linejoin="round" d=" M 187.821, 101.520 187.397, 101.922 " />
            <path fill="none" stroke-width="3.0" stroke-linecap="butt" stroke-opacity="1.0" stroke="rgb(0, 0, 0)" stroke-linejoin="round" d=" M 188.217, 98.992 188.489, 99.700 188.590, 99.961 188.653, 100.127 " />
            <path fill="none" stroke-width="3.0" stroke-linecap="butt" stroke-opacity="1.0" stroke="rgb(0, 0, 0)" stroke-linejoin="round" d=" M 193.400, 229.128 193.504, 229.388 193.518, 229.424 " />
            <path fill="none" stroke-width="3.0" stroke-linecap="butt" stroke-opacity="1.0" stroke="rgb(0, 0, 0)" stroke-linejoin="round" d=" M 193.315, 228.988 193.400, 229.128 193.594, 229.446 " />
            <path fill="none" stroke-width="3.0" stroke-linecap="butt" stroke-opacity="1.0" stroke="rgb(0, 0, 0)" stroke-linejoin="round" d=" M 196.998, 228.338 197.384, 228.283 " />
            <path fill="none" stroke-width="3.0" stroke-linecap="butt" stroke-opacity="1.0" stroke="rgb(0, 0, 0)" stroke-linejoin="round" d=" M 197.397, 228.284 197.575, 228.477 " />
            <path fill="none" stroke-width="3.0" stroke-linecap="butt" stroke-opacity="1.0" stroke="rgb(0, 0, 0)" stroke-linejoin="round" d=" M 197.703, 228.654 197.967, 229.400 " />
            <path fill="none" stroke-width="3.0" stroke-linecap="butt" stroke-opacity="1.0" stroke="rgb(0, 0, 0)" stroke-linejoin="round" d=" M 201.721, 142.680 201.732, 142.660 " />
            <path fill="none" stroke-width="3.0" stroke-linecap="butt" stroke-opacity="1.0" stroke="rgb(0, 0, 0)" stroke-linejoin="round" d=" M 201.146, 143.928 201.721, 142.680 201.727, 142.666 201.913, 142.263 " />
            <path fill="none" stroke-width="3.0" stroke-linecap="butt" stroke-opacity="1.0" stroke="rgb(0, 0, 0)" stroke-linejoin="round" d=" M 202.133, 222.515 202.249, 222.528 " />
            <path fill="none" stroke-width="3.0" stroke-linecap="butt" stroke-opacity="1.0" stroke="rgb(0, 0, 0)" stroke-linejoin="round" d=" M 201.597, 222.915 202.065, 222.566 202.133, 222.515 202.155, 222.499 202.156, 222.498 202.157, 222.498 202.448, 222.281 " />
            <path fill="none" stroke-width="3.0" stroke-linecap="butt" stroke-opacity="1.0" stroke="rgb(0, 0, 0)" stroke-linejoin="round" d=" M 202.065, 222.566 202.360, 222.790 202.595, 222.968 " />
            <path fill="none" stroke-width="3.0" stroke-linecap="butt" stroke-opacity="1.0" stroke="rgb(0, 0, 0)" stroke-linejoin="round" d=" M 202.155, 222.499 202.249, 222.528 202.703, 222.670 " />
            <path fill="none" stroke-width="3.0" stroke-linecap="butt" stroke-opacity="1.0" stroke="rgb(0, 0, 0)" stroke-linejoin="round" d=" M 203.393, 224.874 203.566, 225.735 " />
            <path fill="none" stroke-width="3.0" stroke-linecap="butt" stroke-opacity="1.0" stroke="rgb(0, 0, 0)" stroke-linejoin="round" d=" M 206.323, 272.178 205.641, 272.076 " />
            <path fill="none" stroke-width="3.0" stroke-linecap="butt" stroke-opacity="1.0" stroke="rgb(0, 0, 0)" stroke-linejoin="round" d=" M 213.138, 190.254 213.132, 190.211 " />
            <path fill="none" stroke-width="3.0" stroke-linecap="butt" stroke-opacity="1.0" stroke="rgb(0, 0, 0)" stroke-linejoin="round" d=" M 213.598, 192.116 213.630, 191.894 " />
            <path fill="none" stroke-width="3.0" stroke-linecap="butt" stroke-opacity="1.0" stroke="rgb(0, 0, 0)" stroke-linejoin="round" d=" M 214.298, 132.341 214.193, 131.873 " />
            <path fill="none" stroke-width="3.0" stroke-linecap="butt" stroke-opacity="1.0" stroke="rgb(0, 0, 0)" stroke-linejoin="round" d=" M 214.570, 311.565 214.577, 311.368 " />
            <path fill="none" stroke-width="3.0" stroke-linecap="butt" stroke-opacity="1.0" stroke="rgb(0, 0, 0)" stroke-linejoin="round" d=" M 215.507, 278.440 215.452, 278.417 " />
            <path fill="none" stroke-width="3.0" stroke-linecap="butt" stroke-opacity="1.0" stroke="rgb(0, 0, 0)" stroke-linejoin="round" d=" M 219.040, 276.051 218.819, 275.891 " />
        </g>
    </g>
</svg>
