<?xml version='1.0' encoding='ascii'?>
<svg xmlns="http://www.w3.org/2000/svg" xmlns:inkscape="http://www.inkscape.org/namespaces/inkscape" version="1.1" width="400" height="400">
    <g id="ViewLayer_LineSet" inkscape:groupmode="lineset" inkscape:label="ViewLayer_LineSet">
        <g xmlns:inkscape="http://www.inkscape.org/namespaces/inkscape" inkscape:groupmode="layer" inkscape:label="fills" id="fills">
            <path fill_rule="evenodd" stroke="none" fill-opacity="1.0" fill="rgb(255, 255, 255)" d=" M 223.953, 124.591 224.082, 123.061 224.103, 121.451 223.953, 119.766 223.901, 119.360 223.655, 117.710 223.285, 115.926 222.862, 114.325 222.487, 113.092 222.037, 111.724 221.599, 110.456 221.219, 109.324 220.946, 108.391 220.935, 108.342 220.857, 107.764 220.851, 107.420 220.913, 107.145 220.953, 106.932 221.177, 105.508 221.188, 105.381 221.127, 104.292 221.116, 104.044 221.105, 103.899 220.590, 102.505 219.764, 101.168 218.695, 99.887 217.415, 98.755 215.823, 97.755 214.073, 97.061 213.244, 96.852 213.372, 96.669 214.055, 95.435 214.377, 94.644 214.921, 93.274 215.473, 90.954 215.629, 89.436 215.714, 88.529 215.693, 86.966 215.568, 85.384 215.471, 84.455 215.169, 82.864 214.861, 81.987 214.259, 80.470 213.353, 79.052 212.866, 78.366 211.748, 77.139 210.407, 76.075 209.842, 75.713 208.395, 74.944 206.818, 74.323 206.387, 74.158 204.851, 73.666 203.175, 73.402 201.462, 73.338 199.806, 73.484 198.237, 73.854 196.269, 74.522 194.699, 75.197 193.273, 76.119 192.755, 76.464 191.387, 77.561 190.346, 78.881 189.908, 79.441 189.091, 80.815 188.293, 82.049 187.592, 83.113 187.473, 83.348 187.211, 83.711 186.861, 84.500 186.385, 85.788 186.402, 87.018 186.385, 87.797 186.414, 88.243 186.462, 88.334 186.375, 88.546 185.872, 89.338 185.006, 90.631 184.142, 91.795 183.206, 92.702 182.991, 93.056 182.816, 93.583 182.958, 93.959 183.347, 94.314 183.754, 94.740 184.267, 95.020 184.978, 95.287 185.041, 95.433 185.030, 95.456 184.822, 95.976 184.694, 96.464 184.594, 96.970 184.628, 97.287 184.729, 97.749 185.041, 98.238 185.110, 98.304 185.488, 98.785 185.404, 99.132 185.589, 99.886 185.725, 100.443 185.996, 101.023 186.108, 101.388 186.102, 101.714 186.160, 102.627 186.328, 103.442 186.703, 104.089 187.272, 104.723 188.153, 105.199 189.135, 105.531 189.955, 105.676 190.767, 105.716 192.466, 105.831 193.482, 106.249 194.182, 106.896 194.428, 107.181 195.265, 108.344 194.142, 110.127 193.426, 111.297 192.720, 112.423 192.017, 113.605 191.507, 114.465 190.864, 115.558 190.238, 116.641 189.635, 117.686 189.068, 118.680 188.550, 119.605 188.084, 120.433 187.687, 121.126 187.410, 121.640 187.355, 121.745 187.062, 122.314 187.056, 122.326 186.969, 122.496 186.551, 123.346 186.253, 124.036 185.901, 125.070 185.578, 126.179 185.280, 127.307 185.061, 128.276 184.853, 129.431 184.781, 130.478 184.853, 131.597 184.968, 132.512 185.258, 133.665 185.293, 133.796 185.276, 133.859 184.906, 135.617 184.806, 136.831 184.736, 137.567 184.805, 138.897 184.857, 139.798 185.153, 141.376 185.365, 142.736 185.339, 142.997 185.074, 144.769 184.785, 146.589 184.650, 148.378 184.607, 149.131 184.601, 149.913 184.598, 150.735 184.614, 152.360 184.653, 153.179 184.762, 154.685 184.897, 156.150 185.025, 157.578 185.136, 158.967 185.236, 160.312 185.332, 161.607 185.384, 162.293 185.479, 163.538 185.593, 164.712 185.615, 164.903 185.504, 165.381 185.270, 166.436 185.054, 167.626 184.877, 169.023 184.724, 170.913 184.574, 172.891 184.512, 174.570 184.478, 175.609 184.466, 177.126 184.502, 178.627 184.548, 179.722 184.676, 181.128 184.860, 182.534 185.008, 183.926 185.097, 185.287 185.207, 186.597 185.348, 187.528 185.590, 188.687 185.845, 189.455 186.035, 189.898 186.087, 190.221 186.259, 191.104 186.325, 191.515 186.352, 191.667 186.429, 192.219 186.375, 192.452 186.171, 193.459 185.993, 194.456 185.871, 195.362 185.749, 196.423 185.689, 197.513 185.686, 199.588 185.734, 200.753 185.862, 202.747 185.956, 203.871 186.117, 205.733 186.202, 206.788 186.305, 207.822 186.492, 209.615 186.600, 210.633 186.719, 211.650 186.840, 212.670 186.963, 213.683 187.084, 214.688 187.208, 215.690 187.344, 216.652 187.467, 217.628 187.629, 218.644 187.813, 219.640 188.010, 220.622 188.213, 221.593 188.418, 222.553 188.621, 223.507 188.819, 224.460 188.975, 225.227 189.018, 225.437 189.209, 226.376 189.408, 227.349 189.614, 228.336 189.825, 229.343 190.038, 230.380 190.253, 231.449 190.476, 232.559 190.702, 233.717 190.801, 234.284 190.965, 235.386 191.121, 236.736 191.245, 238.162 191.357, 239.674 191.500, 241.289 191.581, 242.051 191.771, 242.979 191.931, 243.738 192.417, 245.460 193.309, 246.748 194.298, 247.770 194.677, 248.345 195.217, 249.824 195.843, 251.238 196.423, 252.607 196.938, 253.955 197.376, 255.315 197.748, 256.698 198.084, 258.092 198.404, 259.499 198.724, 260.914 199.055, 262.334 199.396, 263.761 199.735, 265.198 200.059, 266.652 200.358, 268.123 200.508, 268.932 199.710, 269.312 198.619, 269.836 197.481, 270.462 196.249, 271.117 195.392, 271.581 194.385, 272.066 193.703, 272.168 192.547, 272.213 191.028, 272.531 189.452, 272.900 188.471, 273.198 186.954, 273.555 186.176, 273.948 184.818, 274.067 184.518, 274.312 184.067, 274.447 183.299, 274.869 182.922, 274.915 182.055, 274.940 181.499, 275.129 181.225, 275.278 180.811, 275.807 180.027, 276.145 179.249, 276.215 178.747, 276.454 178.759, 276.746 178.724, 276.972 178.737, 277.110 178.340, 277.218 177.404, 277.335 177.207, 277.938 177.097, 278.485 177.059, 278.683 176.246, 278.924 176.007, 279.563 176.016, 279.641 175.998, 280.194 176.135, 280.672 176.318, 280.977 175.981, 281.070 175.868, 281.111 175.426, 281.277 175.286, 281.504 175.172, 281.993 175.023, 282.424 175.058, 283.409 175.347, 283.993 175.627, 284.436 176.408, 284.989 177.828, 285.375 179.489, 285.371 179.692, 285.326 181.029, 284.659 182.218, 284.128 182.767, 284.010 183.456, 283.929 184.565, 284.184 185.732, 284.746 187.142, 285.217 188.807, 285.579 190.697, 285.650 192.645, 285.406 194.504, 284.929 196.170, 284.210 197.653, 283.429 199.000, 282.698 200.366, 282.189 201.771, 281.921 203.057, 281.854 203.259, 283.330 203.434, 284.791 203.535, 286.175 203.558, 287.512 203.573, 288.525 203.490, 289.687 203.352, 290.871 203.127, 292.004 202.870, 292.830 202.351, 293.761 201.775, 294.381 200.853, 295.189 199.792, 295.885 198.726, 296.672 197.605, 297.432 196.408, 298.163 196.138, 298.318 195.686, 298.489 194.183, 298.875 192.662, 299.358 191.145, 299.911 189.985, 300.492 188.514, 300.971 187.086, 301.578 186.280, 301.803 184.926, 301.686 183.597, 302.103 182.270, 302.637 180.783, 302.785 179.523, 303.538 178.915, 304.394 178.713, 304.559 177.525, 305.009 176.351, 305.075 175.490, 305.369 175.271, 305.857 175.205, 306.326 175.046, 306.783 175.023, 307.169 175.077, 307.728 175.347, 308.301 175.601, 308.567 176.020, 308.923 176.008, 308.935 176.016, 309.456 175.999, 309.607 176.010, 309.963 176.075, 310.215 176.205, 310.450 176.300, 310.591 176.599, 310.917 177.038, 311.229 177.150, 311.272 177.125, 311.338 177.103, 311.419 177.016, 311.940 177.130, 312.488 177.369, 312.861 177.798, 313.195 178.582, 313.284 178.755, 313.223 178.862, 313.570 179.098, 313.891 179.462, 314.179 180.008, 314.431 180.815, 314.566 181.795, 314.369 181.902, 314.290 181.919, 314.355 182.088, 314.733 182.395, 315.112 182.942, 315.467 183.770, 315.662 184.798, 315.444 185.676, 314.787 186.763, 314.822 188.079, 315.092 189.458, 315.138 189.593, 315.138 191.172, 315.098 192.952, 314.930 194.713, 314.567 196.443, 314.080 198.128, 313.903 199.987, 313.576 201.802, 312.980 203.320, 312.527 205.037, 312.341 206.701, 312.323 208.405, 312.473 210.188, 312.638 211.968, 312.633 213.580, 312.312 214.952, 311.841 216.075, 311.318 216.962, 310.775 217.515, 310.382 218.135, 309.690 218.753, 308.034 218.803, 307.181 218.787, 306.094 218.666, 304.966 218.443, 303.775 218.044, 302.490 217.602, 301.306 217.290, 300.110 217.000, 298.591 216.836, 297.514 216.660, 296.027 216.531, 294.520 216.506, 293.323 216.525, 291.745 216.526, 290.153 216.521, 288.571 216.540, 287.016 216.614, 285.461 216.675, 284.778 216.750, 284.745 217.463, 284.028 218.092, 283.490 218.359, 282.876 218.804, 281.721 218.787, 280.346 218.716, 279.501 218.660, 278.396 218.483, 276.963 218.140, 275.512 217.589, 273.705 217.481, 273.286 217.513, 273.035 217.826, 271.488 218.234, 269.939 218.621, 268.337 218.834, 266.632 218.929, 265.645 218.976, 263.847 218.898, 262.013 218.727, 260.155 218.484, 258.286 218.329, 257.279 218.010, 255.415 217.606, 253.558 217.130, 251.718 217.121, 251.688 217.149, 251.204 217.217, 249.520 217.284, 247.871 217.393, 246.260 217.516, 245.303 217.656, 244.713 217.695, 244.573 218.131, 243.078 218.329, 242.316 218.666, 240.733 218.934, 238.319 218.976, 236.637 218.893, 234.960 218.637, 232.464 218.391, 230.804 218.076, 229.176 217.692, 227.576 217.268, 226.003 216.777, 224.469 216.493, 223.608 215.874, 222.134 215.171, 220.750 214.500, 219.431 213.921, 218.150 213.497, 217.080 213.520, 216.656 213.539, 216.364 213.615, 215.305 213.693, 214.243 213.772, 213.183 213.856, 212.126 213.946, 211.078 214.047, 210.041 214.163, 209.014 214.293, 207.998 214.408, 207.185 214.516, 206.598 214.710, 205.605 214.909, 204.616 215.130, 203.627 215.383, 202.628 215.671, 201.608 215.997, 200.558 216.361, 199.474 216.408, 199.336 216.449, 199.229 216.530, 198.983 216.745, 198.362 217.125, 197.289 217.601, 196.014 218.079, 194.678 218.550, 193.284 218.995, 191.839 219.370, 190.361 219.515, 189.743 219.869, 188.146 220.060, 185.728 220.042, 185.456 220.137, 185.145 220.646, 183.364 221.019, 181.446 221.175, 179.455 221.187, 177.504 221.144, 175.680 221.121, 173.969 221.172, 172.320 221.392, 170.687 221.739, 169.040 222.115, 167.370 222.422, 165.680 222.606, 163.979 222.655, 162.281 222.576, 160.581 222.378, 158.882 222.082, 157.200 221.724, 155.567 221.348, 154.016 220.952, 152.575 220.543, 151.295 220.200, 150.170 220.112, 149.722 220.718, 148.457 221.343, 146.930 221.905, 145.400 222.417, 143.890 222.855, 142.434 223.207, 141.062 223.434, 140.051 223.698, 138.673 223.884, 137.344 223.999, 136.044 224.083, 134.776 224.104, 133.393 224.012, 132.132 223.897, 130.668 223.669, 129.484 223.431, 128.219 223.690, 126.803 223.876, 125.286 223.953, 124.591  z" />
        </g>
        <g inkscape:groupmode="layer" id="strokes" inkscape:label="strokes">
            <path fill="none" stroke-width="3.0" stroke-linecap="butt" stroke-opacity="1.0" stroke="rgb(0, 0, 0)" stroke-linejoin="round" d=" M 223.431, 128.219 223.690, 126.803 223.876, 125.286 223.953, 124.591 224.082, 123.061 224.103, 121.451 223.953, 119.766 223.901, 119.360 223.655, 117.710 223.285, 115.926 222.862, 114.325 222.487, 113.092 222.037, 111.724 221.599, 110.456 221.219, 109.324 220.946, 108.391 220.938, 108.365 220.926, 108.325 " />
            <path fill="none" stroke-width="3.0" stroke-linecap="butt" stroke-opacity="1.0" stroke="rgb(0, 0, 0)" stroke-linejoin="round" d=" M 212.627, 101.913 212.203, 101.511 " />
            <path fill="none" stroke-width="3.0" stroke-linecap="butt" stroke-opacity="1.0" stroke="rgb(0, 0, 0)" stroke-linejoin="round" d=" M 212.756, 102.346 212.209, 101.519 212.203, 101.511 212.173, 101.464 211.934, 100.959 " />
            <path fill="none" stroke-width="3.0" stroke-linecap="butt" stroke-opacity="1.0" stroke="rgb(0, 0, 0)" stroke-linejoin="round" d=" M 221.177, 105.508 221.188, 105.381 221.127, 104.292 " />
            <path fill="none" stroke-width="3.0" stroke-linecap="butt" stroke-opacity="1.0" stroke="rgb(0, 0, 0)" stroke-linejoin="round" d=" M 220.112, 149.722 220.718, 148.457 221.343, 146.930 221.905, 145.400 222.417, 143.890 222.855, 142.434 223.207, 141.062 223.434, 140.051 223.698, 138.673 223.884, 137.344 223.999, 136.044 224.083, 134.776 224.104, 133.393 224.012, 132.132 223.897, 130.668 223.669, 129.484 223.431, 128.219 223.389, 127.995 223.133, 126.948 222.770, 125.462 222.030, 123.126 221.474, 121.729 221.180, 121.083 220.863, 120.389 220.858, 120.376 220.541, 119.681 219.866, 118.391 219.126, 117.151 218.334, 115.973 217.353, 114.579 216.824, 113.853 216.666, 113.637 216.661, 113.630 216.658, 113.626 216.384, 113.250 " />
            <path fill="none" stroke-width="3.0" stroke-linecap="butt" stroke-opacity="1.0" stroke="rgb(0, 0, 0)" stroke-linejoin="round" d=" M 211.416, 102.257 211.305, 100.853 211.317, 100.774 211.327, 100.703 211.327, 100.700 211.433, 99.949 " />
            <path fill="none" stroke-width="3.0" stroke-linecap="butt" stroke-opacity="1.0" stroke="rgb(0, 0, 0)" stroke-linejoin="round" d=" M 211.369, 100.117 211.433, 99.949 211.534, 99.686 211.805, 98.975 " />
            <path fill="none" stroke-width="3.0" stroke-linecap="butt" stroke-opacity="1.0" stroke="rgb(0, 0, 0)" stroke-linejoin="round" d=" M 212.130, 98.452 212.510, 97.906 213.244, 96.852 213.372, 96.669 214.055, 95.435 214.377, 94.644 214.921, 93.274 215.473, 90.954 215.629, 89.436 215.714, 88.529 215.693, 86.966 215.568, 85.384 215.471, 84.455 215.169, 82.864 214.861, 81.987 214.259, 80.470 213.353, 79.052 212.866, 78.366 211.748, 77.139 210.407, 76.075 209.842, 75.713 208.395, 74.944 206.818, 74.323 206.387, 74.158 204.851, 73.666 203.175, 73.402 201.462, 73.338 199.806, 73.484 198.237, 73.854 196.269, 74.522 194.699, 75.197 193.273, 76.119 192.755, 76.464 191.387, 77.561 190.346, 78.881 189.908, 79.441 189.091, 80.815 188.293, 82.049 187.592, 83.113 187.473, 83.348 187.172, 83.941 " />
            <path fill="none" stroke-width="3.0" stroke-linecap="butt" stroke-opacity="1.0" stroke="rgb(0, 0, 0)" stroke-linejoin="round" d=" M 185.488, 98.785 185.404, 99.132 185.589, 99.886 185.725, 100.443 185.996, 101.023 186.108, 101.388 186.208, 101.718 " />
            <path fill="none" stroke-width="3.0" stroke-linecap="butt" stroke-opacity="1.0" stroke="rgb(0, 0, 0)" stroke-linejoin="round" d=" M 194.182, 106.896 194.428, 107.181 195.265, 108.344 195.405, 108.539 196.174, 109.879 196.666, 111.026 196.701, 111.108 196.839, 111.723 196.982, 112.366 " />
            <path fill="none" stroke-width="3.0" stroke-linecap="butt" stroke-opacity="1.0" stroke="rgb(0, 0, 0)" stroke-linejoin="round" d=" M 186.108, 101.388 186.102, 101.714 186.160, 102.627 186.328, 103.442 186.703, 104.089 187.272, 104.723 188.153, 105.199 189.135, 105.531 189.955, 105.676 190.767, 105.716 192.466, 105.831 192.580, 105.839 193.571, 106.189 193.596, 106.198 193.862, 106.291 " />
            <path fill="none" stroke-width="3.0" stroke-linecap="butt" stroke-opacity="1.0" stroke="rgb(0, 0, 0)" stroke-linejoin="round" d=" M 195.265, 108.344 194.142, 110.127 193.426, 111.297 192.720, 112.423 192.017, 113.605 191.507, 114.465 190.864, 115.558 190.238, 116.641 189.635, 117.686 189.068, 118.680 188.550, 119.605 188.084, 120.433 187.687, 121.126 187.410, 121.640 187.355, 121.745 " />
            <path fill="none" stroke-width="3.0" stroke-linecap="butt" stroke-opacity="1.0" stroke="rgb(0, 0, 0)" stroke-linejoin="round" d=" M 186.375, 88.546 185.872, 89.338 185.006, 90.631 184.952, 90.712 " />
            <path fill="none" stroke-width="3.0" stroke-linecap="butt" stroke-opacity="1.0" stroke="rgb(0, 0, 0)" stroke-linejoin="round" d=" M 185.006, 90.631 184.142, 91.795 183.206, 92.702 182.991, 93.056 182.816, 93.583 182.958, 93.959 183.347, 94.314 " />
            <path fill="none" stroke-width="3.0" stroke-linecap="butt" stroke-opacity="1.0" stroke="rgb(0, 0, 0)" stroke-linejoin="round" d=" M 183.234, 94.196 183.347, 94.314 183.754, 94.740 " />
            <path fill="none" stroke-width="3.0" stroke-linecap="butt" stroke-opacity="1.0" stroke="rgb(0, 0, 0)" stroke-linejoin="round" d=" M 185.041, 95.433 185.030, 95.456 184.822, 95.976 184.694, 96.464 184.594, 96.970 " />
            <path fill="none" stroke-width="3.0" stroke-linecap="butt" stroke-opacity="1.0" stroke="rgb(0, 0, 0)" stroke-linejoin="round" d=" M 185.002, 98.167 185.010, 98.178 185.110, 98.304 185.488, 98.785 185.500, 98.800 186.089, 99.504 186.715, 100.171 187.299, 100.911 187.734, 101.729 " />
            <path fill="none" stroke-width="3.0" stroke-linecap="butt" stroke-opacity="1.0" stroke="rgb(0, 0, 0)" stroke-linejoin="round" d=" M 184.694, 97.550 184.695, 97.551 185.002, 98.167 185.041, 98.238 " />
            <path fill="none" stroke-width="3.0" stroke-linecap="butt" stroke-opacity="1.0" stroke="rgb(0, 0, 0)" stroke-linejoin="round" d=" M 185.110, 98.304 185.041, 98.238 184.729, 97.749 184.628, 97.287 184.594, 96.970 184.694, 97.550 184.729, 97.749 " />
            <path fill="none" stroke-width="3.0" stroke-linecap="butt" stroke-opacity="1.0" stroke="rgb(0, 0, 0)" stroke-linejoin="round" d=" M 185.645, 95.794 185.275, 95.384 185.183, 95.282 185.179, 95.279 185.135, 95.229 185.132, 95.226 184.727, 95.055 184.207, 94.902 183.754, 94.740 184.267, 95.020 184.978, 95.287 185.041, 95.433 185.267, 95.956 " />
            <path fill="none" stroke-width="3.0" stroke-linecap="butt" stroke-opacity="1.0" stroke="rgb(0, 0, 0)" stroke-linejoin="round" d=" M 187.473, 83.348 187.211, 83.711 186.861, 84.500 186.385, 85.788 186.402, 87.018 186.385, 87.797 " />
            <path fill="none" stroke-width="3.0" stroke-linecap="butt" stroke-opacity="1.0" stroke="rgb(0, 0, 0)" stroke-linejoin="round" d=" M 186.625, 88.641 186.462, 88.334 186.414, 88.243 186.385, 87.797 186.507, 88.107 186.542, 88.197 186.781, 88.809 186.797, 88.850 186.975, 89.305 187.340, 89.921 187.807, 90.555 188.558, 91.677 189.184, 92.477 189.809, 93.129 190.316, 93.604 190.633, 93.920 " />
            <path fill="none" stroke-width="3.0" stroke-linecap="butt" stroke-opacity="1.0" stroke="rgb(0, 0, 0)" stroke-linejoin="round" d=" M 186.734, 88.984 186.625, 88.641 186.649, 88.670 186.797, 88.850 " />
            <path fill="none" stroke-width="3.0" stroke-linecap="butt" stroke-opacity="1.0" stroke="rgb(0, 0, 0)" stroke-linejoin="round" d=" M 194.273, 272.120 194.019, 272.155 193.703, 272.168 192.547, 272.213 191.028, 272.531 189.452, 272.900 188.471, 273.198 186.954, 273.555 186.176, 273.948 184.818, 274.067 184.518, 274.312 184.052, 274.694 183.940, 274.785 " />
            <path fill="none" stroke-width="3.0" stroke-linecap="butt" stroke-opacity="1.0" stroke="rgb(0, 0, 0)" stroke-linejoin="round" d=" M 183.435, 274.853 183.940, 274.785 " />
            <path fill="none" stroke-width="3.0" stroke-linecap="butt" stroke-opacity="1.0" stroke="rgb(0, 0, 0)" stroke-linejoin="round" d=" M 184.052, 274.694 183.435, 274.853 183.299, 274.869 182.922, 274.915 182.055, 274.940 181.499, 275.129 181.225, 275.278 180.811, 275.807 180.027, 276.145 179.249, 276.215 178.747, 276.454 178.759, 276.746 178.724, 276.972 178.737, 277.110 " />
            <path fill="none" stroke-width="3.0" stroke-linecap="butt" stroke-opacity="1.0" stroke="rgb(0, 0, 0)" stroke-linejoin="round" d=" M 184.518, 274.312 184.067, 274.447 183.299, 274.869 " />
            <path fill="none" stroke-width="3.0" stroke-linecap="butt" stroke-opacity="1.0" stroke="rgb(0, 0, 0)" stroke-linejoin="round" d=" M 184.470, 94.731 184.655, 94.869 185.132, 95.226 " />
            <path fill="none" stroke-width="3.0" stroke-linecap="butt" stroke-opacity="1.0" stroke="rgb(0, 0, 0)" stroke-linejoin="round" d=" M 185.615, 164.903 185.504, 165.381 185.270, 166.436 185.054, 167.626 184.877, 169.023 184.724, 170.913 184.574, 172.891 184.512, 174.570 184.478, 175.609 184.466, 177.126 184.502, 178.627 184.548, 179.722 184.676, 181.128 184.860, 182.534 185.008, 183.926 185.097, 185.287 185.207, 186.597 185.348, 187.528 185.590, 188.687 185.845, 189.455 186.035, 189.898 186.238, 190.371 186.497, 190.925 186.653, 191.287 " />
            <path fill="none" stroke-width="3.0" stroke-linecap="butt" stroke-opacity="1.0" stroke="rgb(0, 0, 0)" stroke-linejoin="round" d=" M 184.572, 278.408 184.322, 278.506 183.617, 278.695 183.317, 278.776 182.826, 278.882 182.730, 278.902 182.346, 278.985 181.179, 278.894 179.781, 279.007 179.005, 279.701 178.459, 280.089 177.831, 280.536 176.811, 280.841 176.318, 280.977 175.981, 281.070 175.868, 281.111 175.426, 281.277 175.286, 281.504 175.172, 281.993 175.023, 282.424 175.058, 283.409 175.347, 283.993 175.627, 284.436 176.408, 284.989 177.828, 285.375 179.489, 285.371 179.692, 285.326 181.029, 284.659 182.218, 284.128 182.767, 284.010 183.388, 283.878 " />
            <path fill="none" stroke-width="3.0" stroke-linecap="butt" stroke-opacity="1.0" stroke="rgb(0, 0, 0)" stroke-linejoin="round" d=" M 178.713, 283.229 179.836, 282.484 " />
            <path fill="none" stroke-width="3.0" stroke-linecap="butt" stroke-opacity="1.0" stroke="rgb(0, 0, 0)" stroke-linejoin="round" d=" M 186.782, 275.098 185.482, 275.473 185.473, 275.476 185.464, 275.479 185.459, 275.480 185.438, 275.487 185.410, 275.496 184.214, 275.886 184.059, 275.936 183.356, 276.383 183.067, 276.568 182.418, 276.939 182.179, 277.075 181.291, 277.270 180.207, 277.138 179.734, 277.533 179.294, 277.901 " />
            <path fill="none" stroke-width="3.0" stroke-linecap="butt" stroke-opacity="1.0" stroke="rgb(0, 0, 0)" stroke-linejoin="round" d=" M 190.474, 272.948 189.891, 273.108 189.597, 273.213 188.537, 273.595 187.776, 273.865 187.586, 273.932 187.051, 274.099 186.150, 274.381 185.583, 274.535 185.481, 274.563 184.892, 274.723 183.990, 274.989 182.989, 275.611 182.631, 275.715 182.212, 275.895 182.044, 275.938 181.893, 275.976 181.647, 276.039 181.226, 276.098 " />
            <path fill="none" stroke-width="3.0" stroke-linecap="butt" stroke-opacity="1.0" stroke="rgb(0, 0, 0)" stroke-linejoin="round" d=" M 184.679, 275.290 184.547, 275.321 183.690, 275.517 182.989, 275.611 182.412, 276.244 " />
            <path fill="none" stroke-width="3.0" stroke-linecap="butt" stroke-opacity="1.0" stroke="rgb(0, 0, 0)" stroke-linejoin="round" d=" M 182.767, 284.010 183.456, 283.929 184.565, 284.184 185.732, 284.746 187.142, 285.217 188.807, 285.579 190.697, 285.650 192.645, 285.406 194.504, 284.929 196.170, 284.210 197.653, 283.429 199.000, 282.698 200.366, 282.189 201.771, 281.921 203.057, 281.854 " />
            <path fill="none" stroke-width="3.0" stroke-linecap="butt" stroke-opacity="1.0" stroke="rgb(0, 0, 0)" stroke-linejoin="round" d=" M 178.885, 276.988 178.759, 276.746 " />
            <path fill="none" stroke-width="3.0" stroke-linecap="butt" stroke-opacity="1.0" stroke="rgb(0, 0, 0)" stroke-linejoin="round" d=" M 184.968, 132.512 185.258, 133.665 185.293, 133.796 " />
            <path fill="none" stroke-width="3.0" stroke-linecap="butt" stroke-opacity="1.0" stroke="rgb(0, 0, 0)" stroke-linejoin="round" d=" M 184.853, 129.431 184.781, 130.478 184.853, 131.597 184.968, 132.512 184.862, 131.418 184.781, 130.478 " />
            <path fill="none" stroke-width="3.0" stroke-linecap="butt" stroke-opacity="1.0" stroke="rgb(0, 0, 0)" stroke-linejoin="round" d=" M 185.901, 125.070 185.578, 126.179 185.280, 127.307 185.047, 128.398 184.853, 129.431 185.061, 128.276 185.280, 127.307 " />
            <path fill="none" stroke-width="3.0" stroke-linecap="butt" stroke-opacity="1.0" stroke="rgb(0, 0, 0)" stroke-linejoin="round" d=" M 185.819, 131.861 185.724, 132.258 185.595, 132.687 185.293, 133.796 185.276, 133.859 184.906, 135.617 184.806, 136.831 184.736, 137.567 184.805, 138.897 184.857, 139.798 185.153, 141.376 185.365, 142.736 185.373, 142.782 185.723, 143.712 " />
            <path fill="none" stroke-width="3.0" stroke-linecap="butt" stroke-opacity="1.0" stroke="rgb(0, 0, 0)" stroke-linejoin="round" d=" M 186.035, 189.898 186.087, 190.221 186.259, 191.104 186.310, 191.368 " />
            <path fill="none" stroke-width="3.0" stroke-linecap="butt" stroke-opacity="1.0" stroke="rgb(0, 0, 0)" stroke-linejoin="round" d=" M 181.363, 276.131 181.226, 276.098 180.982, 276.040 180.651, 275.962 179.909, 276.323 179.442, 276.918 179.337, 277.051 " />
            <path fill="none" stroke-width="3.0" stroke-linecap="butt" stroke-opacity="1.0" stroke="rgb(0, 0, 0)" stroke-linejoin="round" d=" M 217.291, 246.028 217.530, 245.168 217.537, 245.141 217.656, 244.713 217.695, 244.573 218.131, 243.078 218.329, 242.316 218.666, 240.733 218.934, 238.319 218.976, 236.637 218.893, 234.960 218.637, 232.464 218.391, 230.804 218.076, 229.176 217.692, 227.576 217.268, 226.003 216.777, 224.469 216.493, 223.608 215.874, 222.134 215.171, 220.750 214.500, 219.431 213.921, 218.150 213.497, 217.080 " />
            <path fill="none" stroke-width="3.0" stroke-linecap="butt" stroke-opacity="1.0" stroke="rgb(0, 0, 0)" stroke-linejoin="round" d=" M 220.102, 147.488 220.133, 147.388 220.457, 146.341 220.730, 145.367 220.890, 144.257 221.016, 142.982 221.140, 141.647 221.189, 140.354 221.177, 139.174 221.129, 138.128 221.042, 136.862 220.929, 135.852 220.875, 135.562 220.778, 135.041 220.704, 134.523 220.681, 134.362 " />
            <path fill="none" stroke-width="3.0" stroke-linecap="butt" stroke-opacity="1.0" stroke="rgb(0, 0, 0)" stroke-linejoin="round" d=" M 211.923, 210.159 212.264, 209.251 212.463, 208.721 212.497, 208.631 213.122, 207.082 213.763, 205.512 214.452, 203.945 215.168, 202.384 215.848, 200.812 216.408, 199.336 216.449, 199.229 216.530, 198.983 216.972, 197.643 217.442, 196.068 217.875, 194.514 218.268, 192.979 218.610, 191.460 218.915, 189.947 219.231, 188.414 219.627, 186.816 220.042, 185.456 220.137, 185.145 220.646, 183.364 221.019, 181.446 221.175, 179.455 221.187, 177.504 221.144, 175.680 221.121, 173.969 221.172, 172.320 221.392, 170.687 221.739, 169.040 222.115, 167.370 222.422, 165.680 222.606, 163.979 222.655, 162.281 222.576, 160.581 222.378, 158.882 222.082, 157.200 221.724, 155.567 221.348, 154.016 220.952, 152.575 220.543, 151.295 220.200, 150.170 220.112, 149.722 220.002, 149.161 219.980, 148.212 220.133, 147.388 " />
            <path fill="none" stroke-width="3.0" stroke-linecap="butt" stroke-opacity="1.0" stroke="rgb(0, 0, 0)" stroke-linejoin="round" d=" M 210.718, 236.352 210.583, 235.324 210.532, 234.218 210.463, 233.147 210.448, 232.183 210.429, 231.959 210.351, 231.145 210.336, 230.396 210.307, 229.691 210.278, 229.018 210.187, 228.415 210.198, 227.917 210.492, 227.645 210.845, 227.926 211.121, 228.524 211.568, 229.465 211.962, 230.309 212.351, 231.116 212.357, 231.130 212.693, 231.852 212.894, 232.547 213.159, 233.159 213.512, 233.639 213.776, 233.855 214.149, 234.109 214.300, 234.265 214.643, 234.378 215.083, 234.319 215.432, 234.074 215.634, 233.789 215.762, 233.185 215.715, 232.851 215.651, 232.276 215.525, 231.627 215.146, 230.989 214.934, 230.214 214.662, 229.400 214.309, 228.529 213.972, 227.537 213.585, 226.413 " />
            <path fill="none" stroke-width="3.0" stroke-linecap="butt" stroke-opacity="1.0" stroke="rgb(0, 0, 0)" stroke-linejoin="round" d=" M 210.365, 227.349 210.441, 227.390 210.533, 227.475 210.535, 227.570 210.518, 227.611 210.492, 227.645 " />
            <path fill="none" stroke-width="3.0" stroke-linecap="butt" stroke-opacity="1.0" stroke="rgb(0, 0, 0)" stroke-linejoin="round" d=" M 210.289, 226.832 209.498, 227.179 " />
            <path fill="none" stroke-width="3.0" stroke-linecap="butt" stroke-opacity="1.0" stroke="rgb(0, 0, 0)" stroke-linejoin="round" d=" M 208.389, 225.923 208.659, 227.667 208.687, 228.649 208.514, 229.406 " />
            <path fill="none" stroke-width="3.0" stroke-linecap="butt" stroke-opacity="1.0" stroke="rgb(0, 0, 0)" stroke-linejoin="round" d=" M 212.352, 227.639 212.153, 226.663 " />
            <path fill="none" stroke-width="3.0" stroke-linecap="butt" stroke-opacity="1.0" stroke="rgb(0, 0, 0)" stroke-linejoin="round" d=" M 213.361, 225.320 213.321, 225.006 213.198, 224.032 213.055, 222.958 213.010, 222.621 213.015, 221.036 213.056, 219.321 212.861, 217.596 212.434, 216.001 212.016, 214.523 211.775, 213.260 " />
            <path fill="none" stroke-width="3.0" stroke-linecap="butt" stroke-opacity="1.0" stroke="rgb(0, 0, 0)" stroke-linejoin="round" d=" M 213.598, 226.481 213.585, 226.413 213.335, 225.102 213.321, 225.006 " />
            <path fill="none" stroke-width="3.0" stroke-linecap="butt" stroke-opacity="1.0" stroke="rgb(0, 0, 0)" stroke-linejoin="round" d=" M 212.929, 226.145 213.049, 227.285 " />
            <path fill="none" stroke-width="3.0" stroke-linecap="butt" stroke-opacity="1.0" stroke="rgb(0, 0, 0)" stroke-linejoin="round" d=" M 207.007, 227.188 207.111, 228.006 207.025, 228.477 206.887, 228.791 " />
            <path fill="none" stroke-width="3.0" stroke-linecap="butt" stroke-opacity="1.0" stroke="rgb(0, 0, 0)" stroke-linejoin="round" d=" M 206.732, 228.957 207.055, 229.206 207.102, 229.594 207.162, 230.239 207.268, 230.913 207.387, 231.624 207.495, 232.422 207.629, 233.347 207.762, 234.411 207.901, 235.539 208.090, 236.841 208.147, 237.054 208.314, 237.668 " />
            <path fill="none" stroke-width="3.0" stroke-linecap="butt" stroke-opacity="1.0" stroke="rgb(0, 0, 0)" stroke-linejoin="round" d=" M 206.430, 229.436 206.632, 229.102 206.697, 228.994 " />
            <path fill="none" stroke-width="3.0" stroke-linecap="butt" stroke-opacity="1.0" stroke="rgb(0, 0, 0)" stroke-linejoin="round" d=" M 206.505, 229.414 206.520, 229.378 206.632, 229.102 " />
            <path fill="none" stroke-width="3.0" stroke-linecap="butt" stroke-opacity="1.0" stroke="rgb(0, 0, 0)" stroke-linejoin="round" d=" M 206.315, 229.405 206.627, 229.070 206.659, 229.035 206.697, 228.994 206.732, 228.957 206.887, 228.791 " />
            <path fill="none" stroke-width="3.0" stroke-linecap="butt" stroke-opacity="1.0" stroke="rgb(0, 0, 0)" stroke-linejoin="round" d=" M 205.389, 228.544 205.159, 229.496 " />
            <path fill="none" stroke-width="3.0" stroke-linecap="butt" stroke-opacity="1.0" stroke="rgb(0, 0, 0)" stroke-linejoin="round" d=" M 205.752, 237.285 205.903, 236.326 206.103, 235.021 206.263, 233.734 206.265, 232.537 206.468, 231.568 206.486, 230.719 206.486, 230.199 " />
            <path fill="none" stroke-width="3.0" stroke-linecap="butt" stroke-opacity="1.0" stroke="rgb(0, 0, 0)" stroke-linejoin="round" d=" M 206.443, 230.838 206.486, 230.199 206.496, 230.044 206.520, 229.378 " />
            <path fill="none" stroke-width="3.0" stroke-linecap="butt" stroke-opacity="1.0" stroke="rgb(0, 0, 0)" stroke-linejoin="round" d=" M 202.396, 228.286 202.477, 228.282 202.581, 228.276 202.587, 228.276 202.626, 228.274 202.640, 228.273 203.005, 228.253 203.025, 228.326 203.113, 228.639 203.209, 228.982 " />
            <path fill="none" stroke-width="3.0" stroke-linecap="butt" stroke-opacity="1.0" stroke="rgb(0, 0, 0)" stroke-linejoin="round" d=" M 202.885, 228.017 203.005, 228.253 " />
            <path fill="none" stroke-width="3.0" stroke-linecap="butt" stroke-opacity="1.0" stroke="rgb(0, 0, 0)" stroke-linejoin="round" d=" M 203.113, 228.639 203.151, 228.993 203.123, 229.782 203.102, 230.670 203.093, 231.605 203.102, 231.866 203.126, 232.595 " />
            <path fill="none" stroke-width="3.0" stroke-linecap="butt" stroke-opacity="1.0" stroke="rgb(0, 0, 0)" stroke-linejoin="round" d=" M 201.984, 229.632 202.041, 229.443 202.042, 229.442 202.256, 228.735 202.321, 228.645 202.454, 228.461 202.587, 228.276 " />
            <path fill="none" stroke-width="3.0" stroke-linecap="butt" stroke-opacity="1.0" stroke="rgb(0, 0, 0)" stroke-linejoin="round" d=" M 201.003, 232.966 201.130, 232.606 201.410, 231.820 201.842, 230.486 202.041, 229.443 " />
            <path fill="none" stroke-width="3.0" stroke-linecap="butt" stroke-opacity="1.0" stroke="rgb(0, 0, 0)" stroke-linejoin="round" d=" M 200.078, 236.529 200.148, 236.198 200.306, 235.451 200.693, 234.236 200.773, 233.944 201.109, 232.692 201.130, 232.606 " />
            <path fill="none" stroke-width="3.0" stroke-linecap="butt" stroke-opacity="1.0" stroke="rgb(0, 0, 0)" stroke-linejoin="round" d=" M 200.855, 227.589 200.607, 228.787 " />
            <path fill="none" stroke-width="3.0" stroke-linecap="butt" stroke-opacity="1.0" stroke="rgb(0, 0, 0)" stroke-linejoin="round" d=" M 199.064, 225.232 199.081, 225.352 199.239, 226.485 199.157, 227.671 198.934, 228.796 198.649, 229.902 198.335, 230.990 198.126, 232.245 198.093, 232.447 " />
            <path fill="none" stroke-width="3.0" stroke-linecap="butt" stroke-opacity="1.0" stroke="rgb(0, 0, 0)" stroke-linejoin="round" d=" M 211.917, 214.658 211.775, 213.260 211.766, 213.169 211.702, 211.668 212.002, 210.147 212.255, 209.362 212.463, 208.721 " />
            <path fill="none" stroke-width="3.0" stroke-linecap="butt" stroke-opacity="1.0" stroke="rgb(0, 0, 0)" stroke-linejoin="round" d=" M 183.444, 312.764 183.012, 313.123 182.301, 313.287 181.804, 313.450 181.670, 313.504 181.821, 313.977 181.902, 314.290 181.919, 314.355 182.088, 314.733 182.395, 315.112 182.942, 315.467 183.770, 315.662 184.798, 315.444 185.676, 314.787 186.763, 314.822 188.079, 315.092 189.458, 315.138 189.593, 315.138 191.172, 315.098 192.952, 314.930 194.713, 314.567 196.443, 314.080 198.128, 313.903 199.987, 313.576 201.802, 312.980 203.320, 312.527 205.037, 312.341 206.701, 312.323 208.405, 312.473 210.188, 312.638 211.968, 312.633 213.580, 312.312 214.952, 311.841 216.075, 311.318 216.962, 310.775 217.515, 310.382 218.135, 309.690 218.753, 308.034 218.803, 307.181 218.787, 306.094 218.666, 304.966 218.443, 303.775 218.044, 302.490 217.602, 301.306 " />
            <path fill="none" stroke-width="3.0" stroke-linecap="butt" stroke-opacity="1.0" stroke="rgb(0, 0, 0)" stroke-linejoin="round" d=" M 205.554, 177.539 205.516, 177.631 205.396, 177.925 204.881, 179.288 204.428, 180.704 203.917, 182.260 203.477, 183.857 203.148, 185.484 202.929, 187.133 202.829, 188.600 202.774, 190.252 202.774, 190.933 202.773, 191.808 202.754, 193.444 202.754, 195.084 202.761, 196.729 202.773, 198.370 202.760, 199.997 202.691, 201.613 202.577, 203.234 202.456, 204.871 202.455, 204.880 " />
            <path fill="none" stroke-width="3.0" stroke-linecap="butt" stroke-opacity="1.0" stroke="rgb(0, 0, 0)" stroke-linejoin="round" d=" M 198.727, 143.460 198.860, 143.875 199.184, 144.883 199.306, 145.263 199.584, 146.345 199.647, 146.590 199.845, 147.749 199.947, 148.917 199.945, 150.131 199.844, 151.412 199.641, 152.771 199.375, 154.215 199.043, 155.720 199.038, 155.780 199.038, 155.786 199.037, 155.787 198.929, 157.015 198.825, 158.691 198.985, 160.454 199.262, 162.279 199.647, 164.139 200.120, 166.034 200.676, 167.953 201.340, 169.871 202.138, 171.729 203.095, 173.493 204.041, 174.987 204.872, 176.188 205.422, 177.128 205.554, 177.539 205.616, 177.734 205.638, 177.804 205.659, 177.870 " />
            <path fill="none" stroke-width="3.0" stroke-linecap="butt" stroke-opacity="1.0" stroke="rgb(0, 0, 0)" stroke-linejoin="round" d=" M 200.540, 97.178 200.521, 95.961 201.128, 95.040 202.233, 94.620 203.610, 94.604 204.650, 95.370 " />
            <path fill="none" stroke-width="3.0" stroke-linecap="butt" stroke-opacity="1.0" stroke="rgb(0, 0, 0)" stroke-linejoin="round" d=" M 201.474, 97.625 201.003, 96.988 200.953, 96.231 201.421, 95.499 202.431, 95.122 203.592, 95.188 204.624, 95.685 205.318, 96.591 205.482, 97.079 205.676, 97.658 205.795, 98.749 205.710, 99.217 205.609, 99.775 " />
            <path fill="none" stroke-width="3.0" stroke-linecap="butt" stroke-opacity="1.0" stroke="rgb(0, 0, 0)" stroke-linejoin="round" d=" M 201.242, 96.252 201.647, 95.779 202.449, 95.491 203.423, 95.607 204.307, 96.119 204.939, 96.905 205.061, 97.224 205.299, 97.847 205.434, 98.860 205.277, 99.876 204.980, 100.329 204.961, 100.358 204.961, 100.358 204.796, 100.610 204.179, 101.147 203.536, 101.542 202.846, 101.786 202.126, 101.741 201.988, 101.659 201.842, 101.573 201.840, 101.571 201.741, 101.513 201.526, 101.386 " />
            <path fill="none" stroke-width="3.0" stroke-linecap="butt" stroke-opacity="1.0" stroke="rgb(0, 0, 0)" stroke-linejoin="round" d=" M 203.536, 101.542 203.748, 101.436 204.411, 101.014 205.062, 100.491 205.609, 99.775 205.741, 99.505 205.830, 98.998 205.836, 98.963 205.917, 98.499 205.752, 97.412 205.662, 97.174 " />
            <path fill="none" stroke-width="3.0" stroke-linecap="butt" stroke-opacity="1.0" stroke="rgb(0, 0, 0)" stroke-linejoin="round" d=" M 202.416, 97.302 201.746, 97.050 " />
            <path fill="none" stroke-width="3.0" stroke-linecap="butt" stroke-opacity="1.0" stroke="rgb(0, 0, 0)" stroke-linejoin="round" d=" M 201.418, 96.615 201.746, 97.050 201.600, 97.357 " />
            <path fill="none" stroke-width="3.0" stroke-linecap="butt" stroke-opacity="1.0" stroke="rgb(0, 0, 0)" stroke-linejoin="round" d=" M 200.540, 97.178 201.341, 97.779 202.246, 98.176 202.752, 98.358 203.140, 98.497 " />
            <path fill="none" stroke-width="3.0" stroke-linecap="butt" stroke-opacity="1.0" stroke="rgb(0, 0, 0)" stroke-linejoin="round" d=" M 201.200, 98.289 200.896, 98.310 200.625, 97.748 201.204, 98.050 " />
            <path fill="none" stroke-width="3.0" stroke-linecap="butt" stroke-opacity="1.0" stroke="rgb(0, 0, 0)" stroke-linejoin="round" d=" M 201.177, 98.782 201.233, 98.710 201.237, 98.705 201.315, 98.605 201.345, 98.567 201.305, 98.489 201.234, 98.353 201.200, 98.289 201.204, 98.050 201.263, 98.256 201.699, 98.570 201.894, 98.963 202.036, 99.250 " />
            <path fill="none" stroke-width="3.0" stroke-linecap="butt" stroke-opacity="1.0" stroke="rgb(0, 0, 0)" stroke-linejoin="round" d=" M 201.508, 101.498 201.635, 101.540 201.743, 101.577 201.744, 101.577 201.988, 101.659 " />
            <path fill="none" stroke-width="3.0" stroke-linecap="butt" stroke-opacity="1.0" stroke="rgb(0, 0, 0)" stroke-linejoin="round" d=" M 200.763, 101.066 201.508, 101.498 201.706, 101.579 201.744, 101.577 " />
            <path fill="none" stroke-width="3.0" stroke-linecap="butt" stroke-opacity="1.0" stroke="rgb(0, 0, 0)" stroke-linejoin="round" d=" M 203.899, 101.059 203.347, 101.357 203.307, 101.378 " />
            <path fill="none" stroke-width="3.0" stroke-linecap="butt" stroke-opacity="1.0" stroke="rgb(0, 0, 0)" stroke-linejoin="round" d=" M 201.315, 98.935 201.497, 99.289 201.539, 99.370 201.380, 99.853 " />
            <path fill="none" stroke-width="3.0" stroke-linecap="butt" stroke-opacity="1.0" stroke="rgb(0, 0, 0)" stroke-linejoin="round" d=" M 201.202, 99.383 201.315, 98.973 201.315, 98.935 201.315, 98.605 " />
            <path fill="none" stroke-width="3.0" stroke-linecap="butt" stroke-opacity="1.0" stroke="rgb(0, 0, 0)" stroke-linejoin="round" d=" M 201.315, 98.973 201.308, 98.963 201.177, 98.782 " />
            <path fill="none" stroke-width="3.0" stroke-linecap="butt" stroke-opacity="1.0" stroke="rgb(0, 0, 0)" stroke-linejoin="round" d=" M 201.202, 99.383 200.956, 99.733 200.818, 99.929 200.872, 99.817 200.873, 99.814 200.873, 99.814 201.081, 99.380 " />
            <path fill="none" stroke-width="3.0" stroke-linecap="butt" stroke-opacity="1.0" stroke="rgb(0, 0, 0)" stroke-linejoin="round" d=" M 198.295, 142.653 198.305, 142.671 " />
            <path fill="none" stroke-width="3.0" stroke-linecap="butt" stroke-opacity="1.0" stroke="rgb(0, 0, 0)" stroke-linejoin="round" d=" M 198.112, 142.254 198.299, 142.658 198.305, 142.671 198.860, 143.875 " />
            <path fill="none" stroke-width="3.0" stroke-linecap="butt" stroke-opacity="1.0" stroke="rgb(0, 0, 0)" stroke-linejoin="round" d=" M 196.650, 224.811 197.107, 223.789 197.664, 222.778 " />
            <path fill="none" stroke-width="3.0" stroke-linecap="butt" stroke-opacity="1.0" stroke="rgb(0, 0, 0)" stroke-linejoin="round" d=" M 197.428, 222.956 197.664, 222.778 197.958, 222.557 " />
            <path fill="none" stroke-width="3.0" stroke-linecap="butt" stroke-opacity="1.0" stroke="rgb(0, 0, 0)" stroke-linejoin="round" d=" M 196.463, 225.323 196.552, 225.079 196.554, 225.074 196.633, 224.857 196.650, 224.811 196.919, 224.075 " />
            <path fill="none" stroke-width="3.0" stroke-linecap="butt" stroke-opacity="1.0" stroke="rgb(0, 0, 0)" stroke-linejoin="round" d=" M 192.456, 229.027 192.702, 229.136 193.487, 229.240 193.758, 229.189 193.995, 229.057 194.528, 228.755 194.790, 228.585 195.549, 227.702 195.752, 227.439 196.075, 226.859 196.097, 226.820 196.118, 226.783 196.369, 226.330 196.457, 225.733 196.554, 225.074 " />
            <path fill="none" stroke-width="3.0" stroke-linecap="butt" stroke-opacity="1.0" stroke="rgb(0, 0, 0)" stroke-linejoin="round" d=" M 185.447, 311.357 185.387, 311.035 185.376, 310.678 185.508, 310.105 185.703, 311.474 " />
            <path fill="none" stroke-width="3.0" stroke-linecap="butt" stroke-opacity="1.0" stroke="rgb(0, 0, 0)" stroke-linejoin="round" d=" M 183.435, 309.956 183.940, 309.330 " />
            <path fill="none" stroke-width="3.0" stroke-linecap="butt" stroke-opacity="1.0" stroke="rgb(0, 0, 0)" stroke-linejoin="round" d=" M 184.081, 309.186 183.916, 309.314 183.392, 309.723 182.901, 310.014 182.754, 310.101 182.731, 310.115 181.976, 310.357 181.668, 310.510 181.205, 310.740 180.681, 311.453 179.932, 311.897 179.216, 312.212 178.759, 312.505 178.746, 312.550 178.752, 312.576 178.820, 312.883 " />
            <path fill="none" stroke-width="3.0" stroke-linecap="butt" stroke-opacity="1.0" stroke="rgb(0, 0, 0)" stroke-linejoin="round" d=" M 185.447, 311.357 185.454, 311.555 " />
            <path fill="none" stroke-width="3.0" stroke-linecap="butt" stroke-opacity="1.0" stroke="rgb(0, 0, 0)" stroke-linejoin="round" d=" M 182.055, 310.531 181.225, 310.868 " />
            <path fill="none" stroke-width="3.0" stroke-linecap="butt" stroke-opacity="1.0" stroke="rgb(0, 0, 0)" stroke-linejoin="round" d=" M 184.679, 306.640 183.689, 307.149 182.989, 307.747 182.928, 307.792 182.431, 308.160 182.412, 308.174 181.872, 308.485 181.277, 308.694 180.509, 308.774 179.825, 309.204 179.243, 309.959 178.241, 310.291 178.001, 310.402 " />
            <path fill="none" stroke-width="3.0" stroke-linecap="butt" stroke-opacity="1.0" stroke="rgb(0, 0, 0)" stroke-linejoin="round" d=" M 183.916, 309.314 184.146, 308.857 184.555, 308.186 185.417, 307.756 186.712, 307.446 " />
            <path fill="none" stroke-width="3.0" stroke-linecap="butt" stroke-opacity="1.0" stroke="rgb(0, 0, 0)" stroke-linejoin="round" d=" M 184.660, 308.591 184.081, 309.186 183.940, 309.330 " />
            <path fill="none" stroke-width="3.0" stroke-linecap="butt" stroke-opacity="1.0" stroke="rgb(0, 0, 0)" stroke-linejoin="round" d=" M 183.990, 307.553 184.892, 306.972 " />
            <path fill="none" stroke-width="3.0" stroke-linecap="butt" stroke-opacity="1.0" stroke="rgb(0, 0, 0)" stroke-linejoin="round" d=" M 180.517, 310.709 180.460, 310.713 179.450, 310.787 180.191, 310.274 180.964, 309.889 181.647, 309.609 " />
            <path fill="none" stroke-width="3.0" stroke-linecap="butt" stroke-opacity="1.0" stroke="rgb(0, 0, 0)" stroke-linejoin="round" d=" M 186.991, 189.962 186.880, 190.415 186.868, 190.463 186.811, 190.698 186.653, 191.287 186.603, 191.472 186.440, 192.170 186.440, 192.172 186.429, 192.219 186.375, 192.452 186.171, 193.459 185.993, 194.456 185.871, 195.362 185.749, 196.423 185.689, 197.513 185.686, 199.588 185.734, 200.753 185.862, 202.747 185.956, 203.871 186.117, 205.733 186.202, 206.788 186.305, 207.822 186.492, 209.615 186.600, 210.633 186.719, 211.650 186.840, 212.670 186.963, 213.683 187.084, 214.688 187.208, 215.690 187.344, 216.652 " />
            <path fill="none" stroke-width="3.0" stroke-linecap="butt" stroke-opacity="1.0" stroke="rgb(0, 0, 0)" stroke-linejoin="round" d=" M 188.036, 303.092 186.678, 303.816 185.274, 304.280 184.411, 304.608 184.197, 304.689 183.978, 304.800 183.155, 305.374 182.261, 305.888 181.299, 306.206 180.188, 306.340 179.276, 307.104 178.543, 307.847 178.448, 307.943 " />
            <path fill="none" stroke-width="3.0" stroke-linecap="butt" stroke-opacity="1.0" stroke="rgb(0, 0, 0)" stroke-linejoin="round" d=" M 196.138, 298.318 195.686, 298.489 194.183, 298.875 192.662, 299.358 191.145, 299.911 189.985, 300.492 188.514, 300.971 187.086, 301.578 186.280, 301.803 184.926, 301.686 183.597, 302.103 182.270, 302.637 180.783, 302.785 179.523, 303.538 178.915, 304.394 178.742, 304.637 " />
            <path fill="none" stroke-width="3.0" stroke-linecap="butt" stroke-opacity="1.0" stroke="rgb(0, 0, 0)" stroke-linejoin="round" d=" M 180.140, 306.478 180.207, 306.830 " />
            <path fill="none" stroke-width="3.0" stroke-linecap="butt" stroke-opacity="1.0" stroke="rgb(0, 0, 0)" stroke-linejoin="round" d=" M 178.543, 307.847 178.521, 307.865 177.453, 308.284 177.338, 308.326 " />
            <path fill="none" stroke-width="3.0" stroke-linecap="butt" stroke-opacity="1.0" stroke="rgb(0, 0, 0)" stroke-linejoin="round" d=" M 179.374, 307.959 180.381, 307.369 " />
            <path fill="none" stroke-width="3.0" stroke-linecap="butt" stroke-opacity="1.0" stroke="rgb(0, 0, 0)" stroke-linejoin="round" d=" M 185.365, 142.736 185.339, 142.997 185.074, 144.769 184.785, 146.589 184.650, 148.378 184.607, 149.131 184.601, 149.913 184.598, 150.735 184.614, 152.360 184.653, 153.179 184.762, 154.685 184.897, 156.150 185.025, 157.578 185.136, 158.967 185.236, 160.312 185.332, 161.607 185.384, 162.293 185.479, 163.538 185.593, 164.712 185.615, 164.903 185.718, 165.797 185.839, 166.780 185.932, 167.655 185.972, 168.303 185.973, 168.316 185.975, 168.357 185.979, 168.420 " />
            <path fill="none" stroke-width="3.0" stroke-linecap="butt" stroke-opacity="1.0" stroke="rgb(0, 0, 0)" stroke-linejoin="round" d=" M 186.898, 190.201 186.868, 190.463 " />
            <path fill="none" stroke-width="3.0" stroke-linecap="butt" stroke-opacity="1.0" stroke="rgb(0, 0, 0)" stroke-linejoin="round" d=" M 185.404, 142.740 185.723, 143.712 185.971, 144.469 186.169, 144.898 186.384, 145.237 186.406, 145.271 186.733, 145.786 " />
            <path fill="none" stroke-width="3.0" stroke-linecap="butt" stroke-opacity="1.0" stroke="rgb(0, 0, 0)" stroke-linejoin="round" d=" M 187.931, 145.824 188.368, 146.687 188.713, 147.153 188.989, 147.290 189.442, 147.485 " />
            <path fill="none" stroke-width="3.0" stroke-linecap="butt" stroke-opacity="1.0" stroke="rgb(0, 0, 0)" stroke-linejoin="round" d=" M 216.530, 198.983 216.745, 198.362 217.125, 197.289 217.601, 196.014 218.079, 194.678 218.550, 193.284 218.995, 191.839 219.370, 190.361 219.515, 189.743 219.869, 188.146 220.060, 185.728 220.042, 185.456 " />
            <path fill="none" stroke-width="3.0" stroke-linecap="butt" stroke-opacity="1.0" stroke="rgb(0, 0, 0)" stroke-linejoin="round" d=" M 220.851, 107.420 220.913, 107.145 220.953, 106.932 221.177, 105.508 221.127, 104.292 221.116, 104.044 221.105, 103.899 220.590, 102.505 219.764, 101.168 218.695, 99.887 217.415, 98.755 215.823, 97.755 214.073, 97.061 213.244, 96.852 " />
            <path fill="none" stroke-width="3.0" stroke-linecap="butt" stroke-opacity="1.0" stroke="rgb(0, 0, 0)" stroke-linejoin="round" d=" M 220.935, 108.342 220.857, 107.764 220.851, 107.420 220.849, 107.307 220.847, 107.209 220.845, 107.138 " />
            <path fill="none" stroke-width="3.0" stroke-linecap="butt" stroke-opacity="1.0" stroke="rgb(0, 0, 0)" stroke-linejoin="round" d=" M 212.072, 101.352 211.934, 100.959 211.634, 100.103 211.534, 99.686 " />
            <path fill="none" stroke-width="3.0" stroke-linecap="butt" stroke-opacity="1.0" stroke="rgb(0, 0, 0)" stroke-linejoin="round" d=" M 216.675, 284.778 216.750, 284.745 217.463, 284.028 217.527, 283.963 " />
            <path fill="none" stroke-width="3.0" stroke-linecap="butt" stroke-opacity="1.0" stroke="rgb(0, 0, 0)" stroke-linejoin="round" d=" M 217.463, 284.028 218.092, 283.490 218.359, 282.876 218.804, 281.721 218.787, 280.346 218.716, 279.501 218.666, 278.912 " />
            <path fill="none" stroke-width="3.0" stroke-linecap="butt" stroke-opacity="1.0" stroke="rgb(0, 0, 0)" stroke-linejoin="round" d=" M 218.716, 279.501 218.660, 278.396 218.483, 276.963 218.140, 275.512 217.589, 273.705 217.481, 273.286 " />
            <path fill="none" stroke-width="3.0" stroke-linecap="butt" stroke-opacity="1.0" stroke="rgb(0, 0, 0)" stroke-linejoin="round" d=" M 200.508, 268.932 199.710, 269.312 198.619, 269.836 197.481, 270.462 196.249, 271.117 195.392, 271.581 194.385, 272.066 194.273, 272.120 194.260, 272.126 194.086, 272.210 " />
            <path fill="none" stroke-width="3.0" stroke-linecap="butt" stroke-opacity="1.0" stroke="rgb(0, 0, 0)" stroke-linejoin="round" d=" M 181.205, 275.881 180.982, 276.040 " />
            <path fill="none" stroke-width="3.0" stroke-linecap="butt" stroke-opacity="1.0" stroke="rgb(0, 0, 0)" stroke-linejoin="round" d=" M 178.747, 276.454 179.204, 276.324 " />
            <path fill="none" stroke-width="3.0" stroke-linecap="butt" stroke-opacity="1.0" stroke="rgb(0, 0, 0)" stroke-linejoin="round" d=" M 181.225, 275.278 182.055, 274.940 " />
            <path fill="none" stroke-width="3.0" stroke-linecap="butt" stroke-opacity="1.0" stroke="rgb(0, 0, 0)" stroke-linejoin="round" d=" M 179.442, 276.918 178.737, 277.110 178.340, 277.218 177.404, 277.335 177.207, 277.938 " />
            <path fill="none" stroke-width="3.0" stroke-linecap="butt" stroke-opacity="1.0" stroke="rgb(0, 0, 0)" stroke-linejoin="round" d=" M 177.404, 277.335 177.569, 277.460 177.313, 277.785 177.207, 277.938 177.097, 278.485 177.059, 278.683 " />
            <path fill="none" stroke-width="3.0" stroke-linecap="butt" stroke-opacity="1.0" stroke="rgb(0, 0, 0)" stroke-linejoin="round" d=" M 186.551, 123.346 186.473, 123.546 186.434, 123.647 186.182, 124.292 185.901, 125.070 186.253, 124.036 186.551, 123.346 186.969, 122.496 187.056, 122.326 187.355, 121.745 187.062, 122.314 187.056, 122.326 " />
            <path fill="none" stroke-width="3.0" stroke-linecap="butt" stroke-opacity="1.0" stroke="rgb(0, 0, 0)" stroke-linejoin="round" d=" M 177.313, 277.785 177.314, 277.797 177.362, 278.328 " />
            <path fill="none" stroke-width="3.0" stroke-linecap="butt" stroke-opacity="1.0" stroke="rgb(0, 0, 0)" stroke-linejoin="round" d=" M 180.207, 277.138 180.175, 277.298 180.169, 277.327 180.139, 277.478 " />
            <path fill="none" stroke-width="3.0" stroke-linecap="butt" stroke-opacity="1.0" stroke="rgb(0, 0, 0)" stroke-linejoin="round" d=" M 179.734, 277.533 179.375, 277.725 179.072, 277.963 178.451, 278.451 178.431, 278.467 " />
            <path fill="none" stroke-width="3.0" stroke-linecap="butt" stroke-opacity="1.0" stroke="rgb(0, 0, 0)" stroke-linejoin="round" d=" M 178.451, 278.451 177.265, 278.622 177.059, 278.683 176.246, 278.924 176.007, 279.563 176.016, 279.641 175.998, 280.194 176.135, 280.672 176.318, 280.977 " />
            <path fill="none" stroke-width="3.0" stroke-linecap="butt" stroke-opacity="1.0" stroke="rgb(0, 0, 0)" stroke-linejoin="round" d=" M 210.769, 237.391 210.738, 236.595 210.718, 236.352 210.850, 237.177 210.856, 237.830 210.770, 238.340 210.715, 238.479 " />
            <path fill="none" stroke-width="3.0" stroke-linecap="butt" stroke-opacity="1.0" stroke="rgb(0, 0, 0)" stroke-linejoin="round" d=" M 201.775, 294.381 200.853, 295.189 199.792, 295.885 198.726, 296.672 197.605, 297.432 196.408, 298.163 196.138, 298.318 195.122, 298.900 " />
            <path fill="none" stroke-width="3.0" stroke-linecap="butt" stroke-opacity="1.0" stroke="rgb(0, 0, 0)" stroke-linejoin="round" d=" M 203.573, 288.525 203.490, 289.687 203.352, 290.871 203.127, 292.004 202.870, 292.830 202.789, 293.090 " />
            <path fill="none" stroke-width="3.0" stroke-linecap="butt" stroke-opacity="1.0" stroke="rgb(0, 0, 0)" stroke-linejoin="round" d=" M 202.456, 204.871 202.265, 206.480 202.064, 208.083 202.088, 209.614 201.663, 210.961 201.111, 211.799 200.201, 212.665 199.482, 213.414 199.353, 213.549 198.528, 214.408 " />
            <path fill="none" stroke-width="3.0" stroke-linecap="butt" stroke-opacity="1.0" stroke="rgb(0, 0, 0)" stroke-linejoin="round" d=" M 198.223, 222.312 198.227, 222.323 198.251, 222.393 198.259, 222.417 198.275, 222.462 198.427, 222.904 198.782, 223.935 199.041, 225.211 199.081, 225.352 " />
            <path fill="none" stroke-width="3.0" stroke-linecap="butt" stroke-opacity="1.0" stroke="rgb(0, 0, 0)" stroke-linejoin="round" d=" M 197.575, 222.273 197.865, 222.488 197.866, 222.489 197.868, 222.490 197.889, 222.505 197.958, 222.557 198.427, 222.904 " />
            <path fill="none" stroke-width="3.0" stroke-linecap="butt" stroke-opacity="1.0" stroke="rgb(0, 0, 0)" stroke-linejoin="round" d=" M 214.332, 207.601 214.408, 207.185 214.516, 206.598 214.710, 205.605 214.909, 204.616 215.130, 203.627 215.383, 202.628 215.671, 201.608 215.997, 200.558 216.361, 199.474 216.408, 199.336 " />
            <path fill="none" stroke-width="3.0" stroke-linecap="butt" stroke-opacity="1.0" stroke="rgb(0, 0, 0)" stroke-linejoin="round" d=" M 201.950, 95.795 202.120, 95.866 202.787, 96.145 " />
            <path fill="none" stroke-width="3.0" stroke-linecap="butt" stroke-opacity="1.0" stroke="rgb(0, 0, 0)" stroke-linejoin="round" d=" M 201.752, 96.023 201.758, 96.480 " />
            <path fill="none" stroke-width="3.0" stroke-linecap="butt" stroke-opacity="1.0" stroke="rgb(0, 0, 0)" stroke-linejoin="round" d=" M 201.487, 96.100 201.752, 96.023 202.120, 95.866 " />
            <path fill="none" stroke-width="3.0" stroke-linecap="butt" stroke-opacity="1.0" stroke="rgb(0, 0, 0)" stroke-linejoin="round" d=" M 211.449, 99.517 211.481, 99.467 211.805, 98.975 212.510, 97.906 " />
            <path fill="none" stroke-width="3.0" stroke-linecap="butt" stroke-opacity="1.0" stroke="rgb(0, 0, 0)" stroke-linejoin="round" d=" M 194.153, 222.959 194.098, 223.066 193.935, 223.323 193.275, 224.366 193.143, 224.567 193.051, 225.809 193.049, 225.840 193.046, 225.881 193.038, 225.988 " />
            <path fill="none" stroke-width="3.0" stroke-linecap="butt" stroke-opacity="1.0" stroke="rgb(0, 0, 0)" stroke-linejoin="round" d=" M 194.828, 220.897 194.449, 222.207 194.429, 222.268 194.298, 222.678 194.259, 222.798 194.040, 223.480 " />
            <path fill="none" stroke-width="3.0" stroke-linecap="butt" stroke-opacity="1.0" stroke="rgb(0, 0, 0)" stroke-linejoin="round" d=" M 197.322, 222.662 197.779, 222.518 197.868, 222.490 " />
            <path fill="none" stroke-width="3.0" stroke-linecap="butt" stroke-opacity="1.0" stroke="rgb(0, 0, 0)" stroke-linejoin="round" d=" M 199.932, 236.810 199.613, 237.583 " />
            <path fill="none" stroke-width="3.0" stroke-linecap="butt" stroke-opacity="1.0" stroke="rgb(0, 0, 0)" stroke-linejoin="round" d=" M 198.171, 239.210 198.297, 239.229 198.515, 239.263 198.775, 239.145 199.206, 238.715 199.571, 238.136 199.655, 237.931 199.664, 237.910 199.664, 237.910 199.664, 237.909 199.668, 237.900 199.869, 237.414 200.078, 236.529 200.142, 236.241 200.148, 236.198 " />
            <path fill="none" stroke-width="3.0" stroke-linecap="butt" stroke-opacity="1.0" stroke="rgb(0, 0, 0)" stroke-linejoin="round" d=" M 199.482, 213.414 198.870, 213.946 197.903, 214.671 196.963, 215.531 196.204, 216.630 195.330, 218.079 194.899, 219.668 194.867, 220.060 194.856, 220.420 194.843, 220.846 194.842, 220.877 194.832, 221.207 " />
            <path fill="none" stroke-width="3.0" stroke-linecap="butt" stroke-opacity="1.0" stroke="rgb(0, 0, 0)" stroke-linejoin="round" d=" M 178.752, 312.576 178.724, 312.859 178.749, 313.203 178.755, 313.223 178.862, 313.570 179.098, 313.891 179.462, 314.179 180.008, 314.431 180.815, 314.566 181.795, 314.369 181.902, 314.290 " />
            <path fill="none" stroke-width="3.0" stroke-linecap="butt" stroke-opacity="1.0" stroke="rgb(0, 0, 0)" stroke-linejoin="round" d=" M 185.703, 311.474 185.463, 311.552 185.454, 311.555 184.625, 311.822 184.339, 311.997 184.112, 312.135 183.744, 312.360 183.444, 312.764 183.105, 313.221 " />
            <path fill="none" stroke-width="3.0" stroke-linecap="butt" stroke-opacity="1.0" stroke="rgb(0, 0, 0)" stroke-linejoin="round" d=" M 177.421, 308.316 177.338, 308.326 176.486, 308.433 176.020, 308.923 176.008, 308.935 176.016, 309.456 175.999, 309.607 176.010, 309.963 176.075, 310.215 176.205, 310.450 176.300, 310.591 176.599, 310.917 177.038, 311.229 177.150, 311.272 " />
            <path fill="none" stroke-width="3.0" stroke-linecap="butt" stroke-opacity="1.0" stroke="rgb(0, 0, 0)" stroke-linejoin="round" d=" M 177.314, 310.595 177.437, 310.665 177.440, 310.666 177.569, 310.740 177.404, 311.141 177.537, 311.421 177.634, 311.627 " />
            <path fill="none" stroke-width="3.0" stroke-linecap="butt" stroke-opacity="1.0" stroke="rgb(0, 0, 0)" stroke-linejoin="round" d=" M 178.215, 310.342 178.001, 310.402 177.314, 310.595 177.246, 311.016 177.207, 311.260 " />
            <path fill="none" stroke-width="3.0" stroke-linecap="butt" stroke-opacity="1.0" stroke="rgb(0, 0, 0)" stroke-linejoin="round" d=" M 177.246, 311.016 177.150, 311.272 177.125, 311.338 177.103, 311.419 177.016, 311.940 177.130, 312.488 177.369, 312.861 177.798, 313.195 178.582, 313.284 178.755, 313.223 " />
            <path fill="none" stroke-width="3.0" stroke-linecap="butt" stroke-opacity="1.0" stroke="rgb(0, 0, 0)" stroke-linejoin="round" d=" M 185.025, 312.455 184.067, 313.133 " />
            <path fill="none" stroke-width="3.0" stroke-linecap="butt" stroke-opacity="1.0" stroke="rgb(0, 0, 0)" stroke-linejoin="round" d=" M 181.670, 313.504 181.814, 313.643 " />
            <path fill="none" stroke-width="3.0" stroke-linecap="butt" stroke-opacity="1.0" stroke="rgb(0, 0, 0)" stroke-linejoin="round" d=" M 182.083, 314.370 181.994, 314.221 181.880, 314.026 181.814, 313.643 182.443, 313.802 " />
            <path fill="none" stroke-width="3.0" stroke-linecap="butt" stroke-opacity="1.0" stroke="rgb(0, 0, 0)" stroke-linejoin="round" d=" M 178.915, 304.394 178.713, 304.559 177.525, 305.009 176.351, 305.075 175.490, 305.369 175.271, 305.857 175.205, 306.326 175.046, 306.783 175.023, 307.169 175.077, 307.728 175.347, 308.301 175.601, 308.567 176.020, 308.923 " />
            <path fill="none" stroke-width="3.0" stroke-linecap="butt" stroke-opacity="1.0" stroke="rgb(0, 0, 0)" stroke-linejoin="round" d=" M 179.781, 304.870 179.005, 306.146 " />
            <path fill="none" stroke-width="3.0" stroke-linecap="butt" stroke-opacity="1.0" stroke="rgb(0, 0, 0)" stroke-linejoin="round" d=" M 185.801, 305.955 184.672, 306.541 " />
            <path fill="none" stroke-width="3.0" stroke-linecap="butt" stroke-opacity="1.0" stroke="rgb(0, 0, 0)" stroke-linejoin="round" d=" M 180.651, 309.222 179.909, 309.746 " />
            <path fill="none" stroke-width="3.0" stroke-linecap="butt" stroke-opacity="1.0" stroke="rgb(0, 0, 0)" stroke-linejoin="round" d=" M 179.204, 312.364 178.765, 312.542 178.755, 312.546 178.746, 312.550 " />
            <path fill="none" stroke-width="3.0" stroke-linecap="butt" stroke-opacity="1.0" stroke="rgb(0, 0, 0)" stroke-linejoin="round" d=" M 214.133, 244.443 213.972, 243.984 213.604, 242.936 213.141, 241.486 212.754, 240.111 212.602, 239.498 " />
            <path fill="none" stroke-width="3.0" stroke-linecap="butt" stroke-opacity="1.0" stroke="rgb(0, 0, 0)" stroke-linejoin="round" d=" M 217.690, 301.644 217.602, 301.306 217.290, 300.110 217.000, 298.591 216.836, 297.514 216.660, 296.027 216.531, 294.520 216.506, 293.323 216.525, 291.745 216.526, 290.153 216.521, 288.571 216.540, 287.016 216.614, 285.461 216.675, 284.778 216.754, 283.880 216.915, 282.263 217.060, 280.609 217.161, 278.926 217.225, 277.233 217.291, 275.551 217.403, 273.892 217.481, 273.286 217.513, 273.035 217.826, 271.488 218.234, 269.939 218.621, 268.337 218.834, 266.632 218.929, 265.645 218.976, 263.847 218.898, 262.013 218.727, 260.155 218.484, 258.286 218.329, 257.279 218.010, 255.415 217.606, 253.558 217.130, 251.718 217.121, 251.688 216.568, 249.913 215.848, 248.202 215.120, 246.575 214.416, 245.026 213.972, 243.984 " />
            <path fill="none" stroke-width="3.0" stroke-linecap="butt" stroke-opacity="1.0" stroke="rgb(0, 0, 0)" stroke-linejoin="round" d=" M 192.466, 105.831 193.482, 106.249 194.182, 106.896 194.651, 107.329 " />
            <path fill="none" stroke-width="3.0" stroke-linecap="butt" stroke-opacity="1.0" stroke="rgb(0, 0, 0)" stroke-linejoin="round" d=" M 175.286, 281.504 175.271, 281.848 175.489, 282.202 176.351, 282.519 " />
            <path fill="none" stroke-width="3.0" stroke-linecap="butt" stroke-opacity="1.0" stroke="rgb(0, 0, 0)" stroke-linejoin="round" d=" M 186.259, 191.104 186.325, 191.515 186.352, 191.667 186.440, 192.172 " />
            <path fill="none" stroke-width="3.0" stroke-linecap="butt" stroke-opacity="1.0" stroke="rgb(0, 0, 0)" stroke-linejoin="round" d=" M 209.803, 239.370 209.980, 239.340 210.158, 239.309 210.455, 239.094 210.608, 238.867 210.715, 238.479 210.722, 238.451 " />
            <path fill="none" stroke-width="3.0" stroke-linecap="butt" stroke-opacity="1.0" stroke="rgb(0, 0, 0)" stroke-linejoin="round" d=" M 208.147, 237.054 208.220, 237.485 208.387, 238.199 208.631, 238.639 208.746, 238.874 208.851, 239.055 209.230, 239.290 209.346, 239.478 209.725, 239.482 209.980, 239.340 " />
            <path fill="none" stroke-width="3.0" stroke-linecap="butt" stroke-opacity="1.0" stroke="rgb(0, 0, 0)" stroke-linejoin="round" d=" M 209.127, 239.069 209.346, 239.478 " />
            <path fill="none" stroke-width="3.0" stroke-linecap="butt" stroke-opacity="1.0" stroke="rgb(0, 0, 0)" stroke-linejoin="round" d=" M 205.691, 237.754 205.714, 237.576 205.752, 237.285 205.851, 236.540 " />
            <path fill="none" stroke-width="3.0" stroke-linecap="butt" stroke-opacity="1.0" stroke="rgb(0, 0, 0)" stroke-linejoin="round" d=" M 203.351, 240.857 203.352, 240.859 203.519, 241.202 203.651, 241.405 203.777, 241.592 204.012, 241.676 204.305, 241.842 204.644, 241.712 204.917, 241.742 205.158, 241.509 205.329, 241.286 205.516, 240.969 205.747, 240.276 205.862, 239.511 205.900, 238.605 205.714, 237.576 " />
            <path fill="none" stroke-width="3.0" stroke-linecap="butt" stroke-opacity="1.0" stroke="rgb(0, 0, 0)" stroke-linejoin="round" d=" M 214.300, 234.265 214.116, 233.984 " />
            <path fill="none" stroke-width="3.0" stroke-linecap="butt" stroke-opacity="1.0" stroke="rgb(0, 0, 0)" stroke-linejoin="round" d=" M 202.870, 292.830 202.351, 293.761 201.775, 294.381 201.553, 294.618 " />
            <path fill="none" stroke-width="3.0" stroke-linecap="butt" stroke-opacity="1.0" stroke="rgb(0, 0, 0)" stroke-linejoin="round" d=" M 203.102, 231.866 203.100, 232.375 203.015, 233.468 202.924, 234.965 202.924, 236.299 202.996, 237.558 202.972, 238.597 203.045, 239.455 203.119, 240.182 203.279, 240.730 203.352, 240.859 " />
            <path fill="none" stroke-width="3.0" stroke-linecap="butt" stroke-opacity="1.0" stroke="rgb(0, 0, 0)" stroke-linejoin="round" d=" M 204.305, 241.842 204.525, 241.672 204.917, 241.742 " />
            <path fill="none" stroke-width="3.0" stroke-linecap="butt" stroke-opacity="1.0" stroke="rgb(0, 0, 0)" stroke-linejoin="round" d=" M 198.126, 232.245 198.043, 232.548 197.833, 233.313 197.580, 234.784 197.225, 235.777 197.205, 236.639 197.102, 237.174 197.074, 237.778 " />
            <path fill="none" stroke-width="3.0" stroke-linecap="butt" stroke-opacity="1.0" stroke="rgb(0, 0, 0)" stroke-linejoin="round" d=" M 197.139, 237.364 197.074, 237.778 197.042, 237.978 197.058, 238.340 197.136, 238.572 197.300, 238.737 197.409, 239.031 197.550, 239.161 197.757, 239.275 198.064, 239.275 198.297, 239.229 " />
            <path fill="none" stroke-width="3.0" stroke-linecap="butt" stroke-opacity="1.0" stroke="rgb(0, 0, 0)" stroke-linejoin="round" d=" M 193.014, 225.963 192.893, 226.392 192.551, 227.033 192.237, 227.600 191.976, 228.100 191.848, 228.543 191.863, 228.559 " />
            <path fill="none" stroke-width="3.0" stroke-linecap="butt" stroke-opacity="1.0" stroke="rgb(0, 0, 0)" stroke-linejoin="round" d=" M 191.862, 228.557 191.863, 228.559 191.900, 228.802 192.175, 228.931 " />
            <path fill="none" stroke-width="3.0" stroke-linecap="butt" stroke-opacity="1.0" stroke="rgb(0, 0, 0)" stroke-linejoin="round" d=" M 191.848, 228.543 191.862, 228.557 " />
            <path fill="none" stroke-width="3.0" stroke-linecap="butt" stroke-opacity="1.0" stroke="rgb(0, 0, 0)" stroke-linejoin="round" d=" M 191.985, 228.536 192.042, 228.753 192.042, 228.753 192.051, 228.787 192.055, 228.791 192.175, 228.931 192.456, 229.027 192.287, 228.928 192.127, 228.833 192.057, 228.791 192.051, 228.787 " />
            <path fill="none" stroke-width="3.0" stroke-linecap="butt" stroke-opacity="1.0" stroke="rgb(0, 0, 0)" stroke-linejoin="round" d=" M 175.430, 306.529 175.288, 306.235 175.271, 305.857 " />
            <path fill="none" stroke-width="3.0" stroke-linecap="butt" stroke-opacity="1.0" stroke="rgb(0, 0, 0)" stroke-linejoin="round" d=" M 213.055, 222.958 213.058, 222.927 213.157, 221.881 213.246, 220.835 213.327, 219.788 213.399, 218.744 213.463, 217.701 213.497, 217.080 213.520, 216.656 213.539, 216.364 213.615, 215.305 213.693, 214.243 213.772, 213.183 213.856, 212.126 213.946, 211.078 214.047, 210.041 214.163, 209.014 214.293, 207.998 214.408, 207.185 " />
            <path fill="none" stroke-width="3.0" stroke-linecap="butt" stroke-opacity="1.0" stroke="rgb(0, 0, 0)" stroke-linejoin="round" d=" M 190.801, 234.284 190.965, 235.386 191.121, 236.736 191.245, 238.162 191.357, 239.674 191.500, 241.289 191.581, 242.051 191.771, 242.979 191.931, 243.738 192.417, 245.460 193.309, 246.748 194.298, 247.770 194.677, 248.345 195.217, 249.824 195.843, 251.238 196.423, 252.607 196.938, 253.955 197.376, 255.315 197.748, 256.698 198.084, 258.092 198.404, 259.499 198.724, 260.914 199.055, 262.334 199.396, 263.761 199.735, 265.198 200.059, 266.652 200.358, 268.123 200.508, 268.932 200.634, 269.616 200.898, 271.126 201.206, 272.643 201.564, 274.160 201.922, 275.680 202.239, 277.206 202.540, 278.730 202.817, 280.260 203.050, 281.804 203.057, 281.854 203.259, 283.330 203.434, 284.791 203.535, 286.175 203.558, 287.512 203.573, 288.525 203.576, 288.785 " />
            <path fill="none" stroke-width="3.0" stroke-linecap="butt" stroke-opacity="1.0" stroke="rgb(0, 0, 0)" stroke-linejoin="round" d=" M 212.158, 235.698 212.164, 235.470 212.185, 234.616 212.226, 233.542 212.279, 232.466 212.340, 231.388 212.357, 231.130 " />
            <path fill="none" stroke-width="3.0" stroke-linecap="butt" stroke-opacity="1.0" stroke="rgb(0, 0, 0)" stroke-linejoin="round" d=" M 212.611, 239.555 212.602, 239.498 212.395, 238.283 212.256, 237.118 212.180, 236.003 212.164, 235.470 " />
            <path fill="none" stroke-width="3.0" stroke-linecap="butt" stroke-opacity="1.0" stroke="rgb(0, 0, 0)" stroke-linejoin="round" d=" M 188.975, 225.227 189.018, 225.437 189.209, 226.376 189.408, 227.349 189.614, 228.336 189.825, 229.343 190.038, 230.380 190.253, 231.449 190.476, 232.559 190.702, 233.717 190.801, 234.284 190.912, 234.925 " />
            <path fill="none" stroke-width="3.0" stroke-linecap="butt" stroke-opacity="1.0" stroke="rgb(0, 0, 0)" stroke-linejoin="round" d=" M 217.297, 246.866 217.509, 245.336 217.516, 245.303 217.656, 244.713 " />
            <path fill="none" stroke-width="3.0" stroke-linecap="butt" stroke-opacity="1.0" stroke="rgb(0, 0, 0)" stroke-linejoin="round" d=" M 217.121, 251.688 217.149, 251.204 217.217, 249.520 217.284, 247.871 217.393, 246.260 217.516, 245.303 " />
            <path fill="none" stroke-width="3.0" stroke-linecap="butt" stroke-opacity="1.0" stroke="rgb(0, 0, 0)" stroke-linejoin="round" d=" M 187.338, 216.603 187.344, 216.652 187.467, 217.628 187.629, 218.644 187.813, 219.640 188.010, 220.622 188.213, 221.593 188.418, 222.553 188.621, 223.507 188.819, 224.460 188.975, 225.227 189.014, 225.415 " />
            <path fill="none" stroke-width="3.0" stroke-linecap="butt" stroke-opacity="1.0" stroke="rgb(0, 0, 0)" stroke-linejoin="round" d=" M 184.411, 304.608 184.572, 304.451 " />
            <path fill="none" stroke-width="3.0" stroke-linecap="butt" stroke-opacity="1.0" stroke="rgb(0, 0, 0)" stroke-linejoin="round" d=" M 185.975, 168.357 185.964, 169.090 " />
            <path fill="none" stroke-width="3.0" stroke-linecap="butt" stroke-opacity="1.0" stroke="rgb(0, 0, 0)" stroke-linejoin="round" d=" M 185.972, 168.303 185.945, 168.652 " />
            <path fill="none" stroke-width="3.0" stroke-linecap="butt" stroke-opacity="1.0" stroke="rgb(0, 0, 0)" stroke-linejoin="round" d=" M 186.384, 145.237 186.431, 145.370 " />
            <path fill="none" stroke-width="3.0" stroke-linecap="butt" stroke-opacity="1.0" stroke="rgb(0, 0, 0)" stroke-linejoin="round" d=" M 186.352, 191.667 186.429, 192.219 " />
            <path fill="none" stroke-width="3.0" stroke-linecap="butt" stroke-opacity="1.0" stroke="rgb(0, 0, 0)" stroke-linejoin="round" d=" M 186.462, 88.334 186.375, 88.546 186.296, 88.739 " />
            <path fill="none" stroke-width="3.0" stroke-linecap="butt" stroke-opacity="1.0" stroke="rgb(0, 0, 0)" stroke-linejoin="round" d=" M 193.051, 225.809 193.014, 225.963 192.865, 226.587 " />
            <path fill="none" stroke-width="3.0" stroke-linecap="butt" stroke-opacity="1.0" stroke="rgb(0, 0, 0)" stroke-linejoin="round" d=" M 194.429, 222.268 194.153, 222.959 194.030, 223.266 " />
            <path fill="none" stroke-width="3.0" stroke-linecap="butt" stroke-opacity="1.0" stroke="rgb(0, 0, 0)" stroke-linejoin="round" d=" M 194.385, 272.066 193.703, 272.168 " />
            <path fill="none" stroke-width="3.0" stroke-linecap="butt" stroke-opacity="1.0" stroke="rgb(0, 0, 0)" stroke-linejoin="round" d=" M 194.856, 220.420 194.828, 220.897 194.825, 220.948 " />
            <path fill="none" stroke-width="3.0" stroke-linecap="butt" stroke-opacity="1.0" stroke="rgb(0, 0, 0)" stroke-linejoin="round" d=" M 196.457, 225.733 196.633, 224.857 " />
            <path fill="none" stroke-width="3.0" stroke-linecap="butt" stroke-opacity="1.0" stroke="rgb(0, 0, 0)" stroke-linejoin="round" d=" M 196.666, 111.026 196.795, 112.082 " />
            <path fill="none" stroke-width="3.0" stroke-linecap="butt" stroke-opacity="1.0" stroke="rgb(0, 0, 0)" stroke-linejoin="round" d=" M 197.779, 222.518 197.889, 222.505 " />
            <path fill="none" stroke-width="3.0" stroke-linecap="butt" stroke-opacity="1.0" stroke="rgb(0, 0, 0)" stroke-linejoin="round" d=" M 201.305, 98.489 201.263, 98.256 " />
            <path fill="none" stroke-width="3.0" stroke-linecap="butt" stroke-opacity="1.0" stroke="rgb(0, 0, 0)" stroke-linejoin="round" d=" M 202.042, 229.442 202.321, 228.645 " />
            <path fill="none" stroke-width="3.0" stroke-linecap="butt" stroke-opacity="1.0" stroke="rgb(0, 0, 0)" stroke-linejoin="round" d=" M 202.454, 228.461 202.626, 228.274 " />
            <path fill="none" stroke-width="3.0" stroke-linecap="butt" stroke-opacity="1.0" stroke="rgb(0, 0, 0)" stroke-linejoin="round" d=" M 202.640, 228.273 203.025, 228.326 " />
            <path fill="none" stroke-width="3.0" stroke-linecap="butt" stroke-opacity="1.0" stroke="rgb(0, 0, 0)" stroke-linejoin="round" d=" M 205.616, 177.734 205.610, 178.077 " />
            <path fill="none" stroke-width="3.0" stroke-linecap="butt" stroke-opacity="1.0" stroke="rgb(0, 0, 0)" stroke-linejoin="round" d=" M 205.830, 98.998 205.898, 98.840 " />
            <path fill="none" stroke-width="3.0" stroke-linecap="butt" stroke-opacity="1.0" stroke="rgb(0, 0, 0)" stroke-linejoin="round" d=" M 220.849, 107.307 220.905, 106.593 " />
            <path fill="none" stroke-width="3.0" stroke-linecap="butt" stroke-opacity="1.0" stroke="rgb(0, 0, 0)" stroke-linejoin="round" d=" M 220.946, 108.391 220.935, 108.342 220.811, 107.774 220.806, 107.747 220.803, 107.734 220.799, 107.715 220.740, 107.445 " />
        </g>
    </g>
</svg>
