<?xml version='1.0' encoding='ascii'?>
<svg xmlns="http://www.w3.org/2000/svg" xmlns:inkscape="http://www.inkscape.org/namespaces/inkscape" version="1.1" width="400" height="400">
    <g id="ViewLayer_LineSet" inkscape:groupmode="lineset" inkscape:label="ViewLayer_LineSet">
        <g xmlns:inkscape="http://www.inkscape.org/namespaces/inkscape" inkscape:groupmode="layer" inkscape:label="fills" id="fills">
            <path fill_rule="evenodd" stroke="none" fill-opacity="1.0" fill="rgb(255, 255, 255)" d=" M 181.155, 104.827 180.448, 104.803 180.294, 104.791 178.317, 104.486 177.547, 104.416 175.954, 104.354 175.136, 104.423 173.553, 104.605 171.182, 105.311 168.883, 106.387 166.728, 107.783 164.782, 109.434 164.037, 110.153 163.006, 111.199 162.279, 111.952 161.630, 112.788 160.811, 113.885 160.298, 114.789 159.949, 115.763 159.612, 116.914 159.464, 117.857 159.400, 118.781 159.257, 119.628 159.102, 119.930 158.641, 120.430 157.984, 121.145 156.273, 123.028 155.617, 123.789 155.021, 124.545 154.078, 125.823 153.552, 126.554 153.091, 127.269 152.651, 127.997 152.403, 128.416 152.397, 128.425 151.814, 129.348 151.227, 130.318 150.702, 131.252 150.230, 132.081 149.826, 132.793 149.500, 133.412 149.212, 133.974 148.926, 134.545 147.980, 136.440 147.611, 137.121 147.249, 137.843 146.789, 138.873 146.359, 139.805 146.071, 140.565 145.842, 141.338 145.521, 142.460 145.354, 143.193 145.225, 143.912 145.130, 144.602 144.998, 145.530 144.950, 145.926 144.508, 146.662 144.185, 147.235 144.007, 147.900 144.021, 148.540 143.812, 148.953 143.309, 149.988 142.478, 151.572 141.799, 152.646 140.996, 154.150 140.577, 155.148 140.228, 156.144 139.343, 157.486 138.770, 158.632 138.707, 159.102 138.686, 160.378 138.424, 161.732 138.121, 162.871 138.084, 163.116 138.190, 164.386 138.210, 164.561 138.505, 165.970 138.543, 167.284 138.545, 168.379 138.747, 169.232 138.685, 169.967 138.684, 170.460 138.714, 170.508 138.890, 170.564 138.961, 170.600 139.184, 170.658 139.593, 170.645 139.787, 170.598 140.083, 170.491 140.286, 170.671 140.449, 170.788 140.757, 170.854 140.890, 170.852 141.224, 170.793 141.355, 170.716 141.713, 170.481 141.833, 170.340 142.064, 170.048 142.159, 169.890 142.420, 169.180 142.623, 168.216 142.698, 167.018 142.632, 165.770 142.690, 164.664 142.720, 164.569 142.746, 165.045 142.705, 166.167 142.736, 166.953 142.675, 167.428 142.769, 168.162 142.718, 168.716 142.720, 169.194 142.926, 169.547 142.972, 169.624 143.179, 169.790 143.498, 169.866 143.807, 169.864 144.124, 169.815 144.461, 169.667 144.745, 169.414 144.980, 169.054 145.097, 168.850 145.331, 168.252 145.512, 167.445 145.533, 167.174 145.475, 166.140 145.653, 165.301 145.738, 164.182 145.934, 163.170 146.069, 162.334 146.211, 161.665 146.337, 161.077 146.407, 160.774 146.520, 160.582 146.527, 160.577 147.021, 160.272 147.198, 160.159 147.212, 160.464 147.311, 160.828 147.764, 161.868 148.022, 163.025 148.196, 164.151 148.381, 165.167 148.680, 165.912 148.766, 166.215 148.940, 166.765 149.175, 167.164 149.419, 167.394 149.757, 167.515 150.090, 167.537 150.445, 167.452 150.709, 167.313 151.036, 167.066 151.214, 166.795 151.395, 166.349 151.428, 166.027 151.414, 165.399 151.328, 164.576 151.011, 163.604 151.006, 162.441 150.753, 161.285 150.510, 160.183 150.361, 159.502 150.363, 158.767 150.266, 158.158 150.321, 158.115 151.050, 157.536 151.753, 157.274 153.015, 157.117 153.871, 157.128 154.139, 157.119 154.865, 157.149 155.319, 157.583 155.384, 157.703 155.573, 158.141 155.749, 159.077 155.947, 160.070 156.062, 160.438 156.531, 161.273 156.750, 161.596 157.316, 162.207 158.011, 162.649 158.401, 162.795 158.919, 162.805 159.337, 162.583 159.663, 162.176 159.963, 161.943 160.048, 161.780 159.958, 161.416 159.804, 161.079 159.643, 160.740 159.583, 160.606 159.459, 160.043 159.308, 159.171 159.225, 158.726 159.066, 158.299 158.814, 157.789 158.340, 156.799 158.245, 156.304 158.256, 155.690 158.256, 154.892 158.234, 154.231 158.073, 153.548 157.700, 152.727 157.190, 151.973 156.553, 151.302 155.829, 150.693 155.095, 150.116 154.439, 149.492 153.790, 148.883 153.316, 148.447 153.961, 148.185 154.756, 147.876 156.752, 147.045 157.539, 146.673 159.546, 145.554 160.200, 145.097 160.745, 144.592 161.896, 143.515 162.369, 143.017 162.786, 142.466 163.957, 140.692 164.188, 140.106 164.647, 138.882 164.808, 138.410 164.833, 137.665 164.893, 137.163 165.108, 136.510 165.652, 135.741 166.357, 134.939 167.192, 134.138 168.114, 133.341 169.039, 132.515 169.912, 131.642 170.461, 132.795 170.964, 133.809 171.513, 134.935 172.201, 136.642 172.781, 138.309 173.139, 139.481 173.543, 140.597 174.585, 142.887 175.156, 143.992 175.782, 145.130 176.415, 146.324 177.045, 147.543 177.654, 148.752 178.244, 149.916 178.716, 150.976 179.207, 152.108 179.667, 153.184 180.086, 154.212 180.447, 155.206 180.738, 156.179 180.959, 157.145 181.079, 157.920 181.084, 158.951 181.023, 159.964 180.974, 160.440 180.756, 161.848 180.465, 163.233 180.088, 164.589 179.630, 165.927 179.124, 167.280 178.602, 168.672 178.087, 170.132 177.576, 171.656 177.091, 173.225 176.645, 174.835 176.274, 176.496 176.007, 178.225 175.892, 180.202 175.883, 181.985 175.869, 182.208 175.830, 182.498 175.625, 183.660 175.437, 184.648 175.363, 185.315 175.366, 186.034 175.423, 187.026 175.494, 188.438 175.537, 189.172 175.550, 189.394 175.549, 190.033 175.526, 190.845 175.481, 191.653 175.424, 192.457 175.355, 193.243 175.309, 193.629 175.205, 194.467 175.101, 195.313 174.999, 196.169 174.904, 197.034 174.809, 197.904 174.718, 198.782 174.634, 199.662 174.558, 200.542 174.452, 201.714 174.336, 202.894 174.221, 203.946 174.081, 205.069 173.964, 205.935 173.853, 206.818 173.770, 207.719 173.736, 208.627 173.703, 210.555 173.703, 211.431 173.735, 212.298 173.785, 213.155 173.854, 214.006 173.937, 215.647 173.939, 216.405 173.932, 217.170 173.909, 217.966 173.735, 219.463 173.535, 220.431 173.276, 221.552 172.985, 222.818 172.580, 224.168 172.018, 225.663 171.329, 227.268 170.588, 228.959 169.903, 230.712 169.319, 232.488 168.810, 234.257 168.362, 236.016 168.024, 237.779 167.773, 239.555 167.589, 241.335 167.522, 242.106 167.392, 243.895 167.369, 245.657 167.527, 247.350 167.624, 248.147 167.901, 249.755 168.283, 251.288 168.679, 252.804 169.022, 254.351 169.294, 255.951 169.505, 257.608 169.680, 259.303 169.852, 261.009 170.044, 262.703 170.264, 264.367 170.492, 265.996 170.605, 266.894 170.720, 267.876 170.793, 268.671 170.842, 269.237 170.904, 270.718 170.890, 272.214 170.863, 274.089 170.859, 275.469 170.849, 277.165 170.765, 278.581 170.712, 279.516 170.664, 279.787 170.656, 280.300 170.561, 281.352 170.310, 282.782 169.925, 284.249 169.486, 285.696 169.162, 287.081 169.052, 288.380 169.071, 289.579 169.194, 291.431 169.546, 292.394 169.914, 293.069 170.563, 293.622 171.207, 294.083 172.086, 294.443 173.061, 294.753 174.100, 294.902 175.097, 294.785 175.665, 294.799 176.374, 294.507 177.125, 294.144 178.257, 292.864 178.925, 291.772 179.669, 290.594 180.378, 289.329 180.739, 288.709 181.267, 288.048 182.647, 286.931 183.269, 286.542 184.314, 286.069 184.942, 285.879 186.011, 285.809 187.163, 285.806 188.411, 285.858 189.273, 285.873 190.615, 285.879 191.969, 285.592 193.271, 285.064 194.071, 284.711 195.221, 283.866 196.105, 282.822 196.783, 281.814 197.262, 281.018 197.384, 280.815 198.082, 280.412 198.957, 280.178 199.891, 280.203 200.867, 280.321 201.590, 280.145 202.457, 279.548 202.902, 279.048 203.149, 278.664 203.205, 279.136 203.284, 279.765 203.510, 281.504 203.763, 283.190 204.037, 284.835 204.235, 286.017 204.449, 287.512 204.612, 289.013 204.636, 289.286 204.690, 290.076 204.748, 291.306 204.776, 292.540 204.767, 293.550 204.763, 293.593 204.506, 295.110 204.283, 296.681 204.216, 298.239 204.076, 300.303 203.797, 301.729 203.315, 303.058 202.624, 304.283 201.991, 305.525 201.430, 307.482 201.400, 308.707 201.421, 309.492 201.674, 310.481 202.010, 311.254 202.660, 311.911 203.907, 312.839 204.776, 313.246 205.859, 313.438 207.125, 313.471 208.534, 313.390 210.075, 313.169 211.684, 312.726 213.225, 311.942 214.656, 311.014 216.023, 310.133 217.392, 309.433 218.877, 308.862 220.544, 308.553 222.150, 308.336 223.703, 307.852 225.531, 307.197 227.002, 306.922 228.363, 306.542 229.632, 305.986 231.200, 305.279 232.195, 304.636 233.197, 303.726 233.726, 303.393 234.210, 303.559 234.657, 303.625 235.532, 303.388 236.109, 302.861 236.251, 302.707 236.619, 302.271 236.733, 301.817 236.730, 301.412 236.807, 301.003 236.786, 300.935 236.862, 300.874 237.176, 300.475 237.369, 300.094 237.460, 299.727 237.458, 299.360 237.408, 298.989 237.337, 298.655 237.102, 298.661 236.972, 298.634 236.984, 298.586 236.981, 298.064 236.910, 297.572 236.876, 297.038 236.469, 296.800 236.326, 296.599 235.617, 296.731 235.670, 296.533 235.700, 296.095 235.591, 295.720 235.576, 295.683 235.561, 295.203 235.133, 294.824 234.517, 294.671 233.805, 294.946 233.293, 294.984 233.362, 294.524 233.274, 293.699 233.095, 293.248 233.001, 292.875 232.779, 292.599 232.344, 292.323 231.671, 292.046 230.686, 292.192 230.008, 292.494 229.860, 292.331 229.273, 292.138 227.796, 291.836 227.172, 291.791 226.298, 292.204 225.280, 292.227 224.306, 292.356 223.484, 292.967 223.450, 292.965 222.114, 293.013 221.493, 293.099 220.342, 292.999 219.208, 293.092 218.335, 292.824 217.438, 292.518 216.560, 292.294 215.955, 292.220 215.556, 292.139 215.390, 292.057 214.898, 291.592 214.801, 291.421 214.588, 290.658 214.503, 290.090 214.372, 288.807 214.271, 287.884 214.205, 286.590 214.259, 285.102 214.505, 283.356 214.775, 281.854 214.975, 280.276 215.162, 279.165 215.397, 278.156 215.821, 276.608 216.274, 275.069 216.732, 273.542 217.166, 272.024 217.566, 270.505 217.922, 268.977 218.230, 267.437 218.499, 265.883 218.736, 264.315 218.929, 262.732 219.025, 261.993 219.203, 260.418 219.338, 258.836 219.431, 257.247 219.485, 255.657 219.515, 254.063 219.528, 252.468 219.551, 250.874 219.597, 249.275 219.663, 247.988 219.795, 246.590 220.067, 245.077 220.442, 243.703 220.621, 243.140 221.110, 241.667 221.281, 241.190 221.732, 239.587 221.896, 239.141 221.960, 237.844 222.212, 236.261 222.317, 235.515 222.321, 235.486 222.546, 234.096 222.724, 232.687 222.878, 231.350 223.026, 230.097 223.182, 228.928 223.336, 227.899 223.397, 227.526 223.690, 225.764 223.861, 224.769 223.997, 223.785 224.096, 222.798 224.170, 221.805 224.226, 220.802 224.347, 218.951 224.406, 217.923 224.448, 216.879 224.475, 215.819 224.491, 214.745 224.503, 213.659 224.513, 212.564 224.522, 211.462 224.533, 210.359 224.543, 209.262 224.553, 208.165 224.564, 207.066 224.573, 205.957 224.580, 204.835 224.579, 203.693 224.541, 202.527 224.443, 200.595 224.366, 199.387 224.263, 198.150 224.132, 196.893 223.970, 195.632 223.779, 194.374 223.468, 192.513 223.246, 191.260 222.987, 190.006 222.688, 188.750 222.340, 187.484 221.946, 186.203 221.781, 185.709 221.684, 185.390 221.269, 184.077 220.868, 182.792 220.552, 181.702 221.098, 182.600 222.007, 184.016 222.781, 185.224 223.305, 186.270 223.992, 187.608 224.774, 188.935 225.650, 190.260 225.866, 190.583 226.781, 191.863 227.766, 193.141 228.809, 194.412 229.897, 195.668 231.019, 196.900 232.173, 198.098 233.339, 199.271 233.586, 199.522 234.365, 200.328 235.445, 201.522 236.467, 202.720 237.404, 203.918 238.170, 205.137 238.454, 206.494 238.436, 207.107 238.382, 207.769 238.404, 209.360 238.494, 209.990 238.637, 211.249 239.133, 212.954 239.868, 214.470 240.442, 215.873 240.591, 217.218 240.812, 218.453 241.015, 219.590 240.909, 220.640 240.826, 221.681 240.442, 222.660 240.062, 223.683 239.541, 224.583 238.984, 225.385 238.693, 226.128 238.644, 226.634 238.637, 227.000 238.811, 227.388 238.935, 227.703 239.087, 228.030 239.323, 228.192 239.581, 228.362 239.925, 228.443 240.291, 228.309 240.511, 228.062 240.748, 227.684 240.929, 227.264 241.188, 226.851 241.521, 226.414 241.947, 225.584 242.385, 224.546 243.051, 223.508 243.561, 222.335 243.679, 221.137 243.753, 220.845 243.988, 220.274 244.005, 220.241 244.084, 220.859 244.196, 221.496 244.281, 222.175 244.365, 222.887 244.485, 223.652 244.708, 224.517 244.523, 225.403 244.386, 226.564 244.300, 227.694 244.207, 228.836 244.261, 229.545 244.296, 229.723 244.437, 230.181 244.554, 230.340 244.792, 230.635 245.207, 230.851 245.501, 230.903 245.829, 230.925 246.220, 230.745 246.374, 230.246 246.432, 230.153 246.507, 229.503 246.633, 228.778 246.849, 228.113 246.916, 227.894 247.094, 226.773 247.088, 225.669 247.373, 224.945 247.422, 224.686 247.606, 223.671 247.452, 222.795 247.445, 222.308 247.519, 222.450 247.679, 223.458 247.775, 224.652 248.162, 225.836 248.536, 227.017 248.357, 228.065 248.544, 228.954 248.594, 229.166 248.804, 229.878 249.096, 230.377 249.195, 230.523 249.519, 230.784 249.898, 230.904 250.299, 230.986 250.446, 230.879 250.658, 230.856 250.940, 230.554 250.965, 230.406 251.042, 229.883 251.028, 229.565 251.032, 229.138 250.994, 228.454 251.119, 227.666 251.168, 226.648 251.073, 225.419 251.067, 225.177 251.179, 225.422 251.525, 225.839 251.740, 226.083 252.102, 226.217 252.378, 226.358 252.579, 226.387 252.867, 226.368 253.138, 226.176 253.145, 226.165 253.228, 226.121 253.374, 225.922 253.454, 225.477 253.433, 225.223 253.413, 224.815 253.268, 224.275 253.174, 223.860 253.194, 223.785 253.418, 223.174 253.279, 222.264 253.207, 221.907 253.195, 221.861 253.064, 221.231 253.016, 220.162 253.028, 219.137 252.932, 218.748 252.670, 217.767 252.241, 216.833 252.153, 216.563 252.045, 216.183 251.871, 215.305 251.961, 215.255 252.210, 214.916 252.411, 214.670 252.449, 214.463 252.349, 214.206 252.187, 213.884 251.962, 213.436 251.983, 212.679 251.498, 211.394 251.348, 211.072 251.151, 210.832 251.086, 210.728 250.973, 210.196 250.643, 208.695 250.816, 208.088 250.783, 207.384 250.585, 206.779 250.580, 206.302 249.768, 204.992 249.314, 204.528 248.798, 203.924 248.131, 203.239 247.374, 202.512 246.575, 201.753 246.196, 201.143 245.656, 200.111 245.220, 198.840 245.110, 198.534 244.407, 196.929 243.772, 195.596 243.041, 194.099 242.330, 192.666 241.636, 191.032 241.139, 189.549 240.686, 188.045 240.351, 186.886 239.997, 185.398 239.609, 183.905 239.138, 182.417 238.552, 180.944 237.840, 179.502 237.013, 178.110 236.104, 176.795 235.165, 175.601 234.125, 174.362 233.458, 173.455 232.967, 172.603 232.596, 171.709 232.332, 170.710 232.227, 169.680 232.350, 168.219 232.416, 166.506 232.339, 164.631 232.123, 162.689 231.792, 160.770 231.407, 158.941 231.023, 157.207 230.618, 155.551 230.155, 153.965 229.631, 152.444 229.482, 152.044 228.906, 150.562 228.299, 149.154 227.690, 147.789 227.030, 146.493 226.573, 145.796 226.145, 144.679 225.842, 143.561 225.712, 142.565 225.643, 141.544 225.588, 141.023 225.378, 139.521 224.998, 137.895 224.584, 136.272 223.971, 134.684 222.901, 132.544 221.965, 131.027 220.856, 129.545 219.657, 128.155 219.283, 127.697 218.064, 126.384 217.578, 125.892 217.120, 125.361 216.230, 124.214 215.434, 123.209 214.520, 122.040 213.612, 120.945 212.840, 120.059 211.956, 119.117 211.117, 118.312 210.256, 117.548 209.305, 116.816 208.571, 116.249 207.654, 115.548 206.997, 114.945 206.645, 114.510 206.410, 114.063 206.076, 113.036 205.963, 111.989 205.936, 110.458 205.870, 109.280 205.835, 108.651 205.870, 107.351 205.926, 106.076 206.179, 105.026 206.319, 104.676 206.905, 103.665 207.906, 102.611 208.605, 102.030 209.336, 101.486 210.298, 100.804 210.669, 100.433 210.894, 100.080 211.232, 99.301 211.502, 98.554 211.638, 98.121 212.027, 97.085 212.498, 95.625 212.761, 94.224 212.739, 93.905 213.060, 92.845 213.154, 91.429 212.910, 90.267 212.631, 89.733 212.647, 89.232 212.957, 88.309 213.229, 87.281 213.357, 86.192 213.328, 85.074 213.057, 84.052 212.523, 83.270 212.245, 82.887 211.776, 82.148 211.252, 81.361 210.654, 80.421 210.106, 79.435 209.401, 78.414 208.636, 77.576 207.652, 76.738 206.554, 76.049 205.412, 75.451 204.389, 74.941 203.178, 74.493 202.043, 74.232 200.776, 74.049 199.627, 73.994 198.377, 74.046 197.277, 74.155 196.087, 74.389 195.090, 74.628 194.001, 75.050 193.170, 75.418 192.223, 75.986 191.799, 76.256 190.995, 76.897 190.003, 77.882 189.064, 79.028 188.210, 80.252 187.304, 81.665 186.583, 83.048 186.003, 84.479 185.570, 85.944 185.298, 87.432 185.174, 88.929 185.174, 91.175 185.359, 92.680 185.718, 94.098 186.031, 94.926 186.554, 96.225 187.198, 97.389 187.915, 98.442 188.473, 99.318 188.697, 99.913 188.786, 100.648 188.707, 101.571 188.557, 102.112 188.219, 102.884 187.807, 103.561 187.416, 104.020 186.721, 104.597 186.338, 104.797 185.645, 104.984 185.075, 105.027 184.334, 105.017 182.723, 104.915 181.909, 104.847 181.155, 104.827  z M 190.810, 272.886 190.198, 273.212 189.998, 273.302 189.211, 273.050 188.551, 273.345 188.116, 273.304 187.172, 273.532 186.865, 273.540 185.810, 273.797 185.686, 273.832 185.091, 273.705 184.363, 273.502 183.037, 273.299 182.981, 273.298 182.943, 273.224 182.652, 272.299 182.432, 271.214 182.267, 270.007 182.133, 268.710 182.062, 267.326 182.089, 265.854 182.081, 265.256 182.104, 264.631 182.140, 263.656 182.163, 263.396 182.283, 261.719 182.396, 260.632 182.548, 259.699 182.850, 258.151 183.189, 256.650 183.562, 255.199 183.943, 253.876 184.216, 253.087 184.816, 251.653 185.509, 250.185 186.232, 248.644 186.471, 248.127 187.186, 246.553 187.787, 244.882 188.253, 243.162 188.612, 241.441 188.906, 239.749 189.194, 238.107 189.600, 236.119 189.953, 234.581 190.267, 233.066 190.520, 231.574 190.686, 230.103 190.941, 228.742 191.419, 227.748 192.197, 226.473 192.473, 225.980 192.745, 225.380 192.849, 225.171 193.088, 224.624 193.200, 224.222 193.293, 223.972 193.642, 222.830 194.000, 221.742 194.396, 220.678 194.826, 219.623 195.273, 218.575 195.716, 217.537 196.147, 216.519 196.570, 215.520 196.972, 214.538 197.352, 213.571 197.709, 212.623 198.047, 211.689 198.303, 210.959 198.616, 210.029 198.706, 209.749 198.725, 209.847 198.832, 210.504 198.979, 211.471 199.116, 212.440 199.240, 213.411 199.358, 214.384 199.472, 215.363 199.588, 216.348 199.710, 217.335 199.780, 217.850 199.852, 218.426 199.999, 219.426 200.174, 220.423 200.377, 221.415 200.611, 222.398 200.861, 223.375 201.117, 224.347 201.372, 225.322 201.620, 226.308 201.857, 227.315 202.087, 228.352 202.313, 229.424 202.542, 230.534 202.779, 231.679 203.028, 232.857 203.282, 234.061 203.541, 235.280 203.793, 236.500 204.007, 237.695 204.145, 238.833 204.171, 239.938 204.071, 240.941 203.870, 241.811 203.458, 243.279 202.995, 244.916 202.546, 246.698 202.298, 247.768 201.877, 249.676 201.488, 251.600 201.184, 253.518 200.930, 255.421 200.755, 257.319 200.647, 259.217 200.607, 261.112 200.625, 262.102 200.642, 262.993 200.663, 263.988 200.778, 265.842 200.979, 267.642 201.275, 269.376 201.655, 271.057 202.076, 272.729 202.517, 274.422 202.681, 275.313 202.291, 275.117 201.871, 275.025 201.377, 275.061 200.542, 275.235 199.912, 275.319 199.858, 275.266 199.193, 274.741 199.068, 274.719 198.920, 274.146 198.377, 273.740 198.151, 273.744 197.395, 273.865 196.801, 274.074 196.767, 274.046 196.228, 273.683 195.952, 273.559 195.878, 273.401 195.407, 273.248 195.200, 273.133 194.629, 273.374 194.312, 273.436 194.164, 273.302 193.665, 273.080 193.240, 272.996 192.915, 273.226 192.838, 273.130 192.259, 273.150 191.852, 273.341 191.829, 273.339 191.398, 272.887 190.810, 272.886  z" />
        </g>
        <g inkscape:groupmode="layer" id="strokes" inkscape:label="strokes">
            <path fill="none" stroke-width="3.0" stroke-linecap="butt" stroke-opacity="1.0" stroke="rgb(0, 0, 0)" stroke-linejoin="round" d=" M 207.207, 147.123 207.417, 147.393 207.464, 147.453 207.508, 147.509 207.528, 147.534 207.740, 147.807 208.115, 148.388 208.547, 149.322 208.790, 150.307 208.894, 151.282 208.939, 152.298 208.999, 153.399 209.118, 154.611 209.321, 155.952 209.615, 157.419 210.004, 158.985 210.450, 160.618 210.882, 161.921 " />
            <path fill="none" stroke-width="3.0" stroke-linecap="butt" stroke-opacity="1.0" stroke="rgb(0, 0, 0)" stroke-linejoin="round" d=" M 184.334, 105.017 182.723, 104.915 181.909, 104.847 181.155, 104.827 180.448, 104.803 180.294, 104.791 179.764, 104.750 " />
            <path fill="none" stroke-width="3.0" stroke-linecap="butt" stroke-opacity="1.0" stroke="rgb(0, 0, 0)" stroke-linejoin="round" d=" M 187.416, 104.020 186.721, 104.597 186.338, 104.797 186.038, 104.955 186.013, 104.968 185.700, 105.132 " />
            <path fill="none" stroke-width="3.0" stroke-linecap="butt" stroke-opacity="1.0" stroke="rgb(0, 0, 0)" stroke-linejoin="round" d=" M 243.458, 221.271 243.760, 220.702 243.816, 220.597 243.988, 220.274 244.005, 220.241 244.018, 220.218 244.020, 220.214 244.179, 219.914 244.204, 219.867 244.207, 219.861 244.224, 219.846 245.021, 219.138 " />
            <path fill="none" stroke-width="3.0" stroke-linecap="butt" stroke-opacity="1.0" stroke="rgb(0, 0, 0)" stroke-linejoin="round" d=" M 240.929, 227.264 241.188, 226.851 241.521, 226.414 241.947, 225.584 242.385, 224.546 243.051, 223.508 243.561, 222.335 243.679, 221.137 243.753, 220.845 " />
            <path fill="none" stroke-width="3.0" stroke-linecap="butt" stroke-opacity="1.0" stroke="rgb(0, 0, 0)" stroke-linejoin="round" d=" M 244.347, 219.839 244.211, 219.866 " />
            <path fill="none" stroke-width="3.0" stroke-linecap="butt" stroke-opacity="1.0" stroke="rgb(0, 0, 0)" stroke-linejoin="round" d=" M 247.184, 220.245 247.147, 219.538 247.176, 219.332 247.294, 218.513 246.830, 216.816 " />
            <path fill="none" stroke-width="3.0" stroke-linecap="butt" stroke-opacity="1.0" stroke="rgb(0, 0, 0)" stroke-linejoin="round" d=" M 243.606, 221.202 243.753, 220.845 243.988, 220.274 " />
            <path fill="none" stroke-width="3.0" stroke-linecap="butt" stroke-opacity="1.0" stroke="rgb(0, 0, 0)" stroke-linejoin="round" d=" M 242.979, 220.198 243.129, 218.996 " />
            <path fill="none" stroke-width="3.0" stroke-linecap="butt" stroke-opacity="1.0" stroke="rgb(0, 0, 0)" stroke-linejoin="round" d=" M 238.441, 209.523 238.494, 209.990 238.637, 211.249 239.133, 212.954 239.868, 214.470 240.442, 215.873 240.591, 217.218 240.812, 218.453 241.015, 219.590 240.909, 220.640 240.826, 221.681 240.442, 222.660 240.062, 223.683 239.968, 223.936 " />
            <path fill="none" stroke-width="3.0" stroke-linecap="butt" stroke-opacity="1.0" stroke="rgb(0, 0, 0)" stroke-linejoin="round" d=" M 243.732, 220.210 243.865, 219.862 243.887, 219.805 243.894, 219.787 243.925, 219.705 244.163, 219.084 " />
            <path fill="none" stroke-width="3.0" stroke-linecap="butt" stroke-opacity="1.0" stroke="rgb(0, 0, 0)" stroke-linejoin="round" d=" M 240.062, 223.683 239.541, 224.583 238.984, 225.385 238.693, 226.128 238.644, 226.634 238.637, 227.000 238.811, 227.388 238.935, 227.703 239.087, 228.030 239.323, 228.192 239.581, 228.362 239.925, 228.443 240.291, 228.309 240.511, 228.062 240.748, 227.684 240.929, 227.264 241.030, 227.031 " />
            <path fill="none" stroke-width="3.0" stroke-linecap="butt" stroke-opacity="1.0" stroke="rgb(0, 0, 0)" stroke-linejoin="round" d=" M 246.222, 218.480 245.447, 218.506 " />
            <path fill="none" stroke-width="3.0" stroke-linecap="butt" stroke-opacity="1.0" stroke="rgb(0, 0, 0)" stroke-linejoin="round" d=" M 247.184, 220.245 247.286, 219.902 247.287, 219.899 247.319, 219.791 247.551, 219.018 247.784, 218.050 247.785, 217.528 " />
            <path fill="none" stroke-width="3.0" stroke-linecap="butt" stroke-opacity="1.0" stroke="rgb(0, 0, 0)" stroke-linejoin="round" d=" M 249.500, 218.987 249.464, 218.779 249.352, 218.124 " />
            <path fill="none" stroke-width="3.0" stroke-linecap="butt" stroke-opacity="1.0" stroke="rgb(0, 0, 0)" stroke-linejoin="round" d=" M 250.086, 218.372 250.083, 218.327 250.019, 217.414 249.941, 216.739 250.121, 216.142 " />
            <path fill="none" stroke-width="3.0" stroke-linecap="butt" stroke-opacity="1.0" stroke="rgb(0, 0, 0)" stroke-linejoin="round" d=" M 250.867, 223.242 250.885, 222.858 250.919, 222.138 250.860, 221.834 250.535, 220.901 250.370, 219.959 250.235, 218.958 250.083, 218.327 " />
            <path fill="none" stroke-width="3.0" stroke-linecap="butt" stroke-opacity="1.0" stroke="rgb(0, 0, 0)" stroke-linejoin="round" d=" M 251.168, 226.648 251.073, 225.419 251.067, 225.177 251.042, 224.134 250.887, 222.939 250.885, 222.858 " />
            <path fill="none" stroke-width="3.0" stroke-linecap="butt" stroke-opacity="1.0" stroke="rgb(0, 0, 0)" stroke-linejoin="round" d=" M 246.949, 226.020 247.040, 225.790 247.046, 225.773 247.088, 225.669 247.373, 224.945 247.422, 224.686 247.606, 223.671 247.452, 222.795 247.445, 222.308 247.440, 222.010 247.408, 221.271 247.359, 220.572 247.340, 220.391 " />
            <path fill="none" stroke-width="3.0" stroke-linecap="butt" stroke-opacity="1.0" stroke="rgb(0, 0, 0)" stroke-linejoin="round" d=" M 247.352, 220.738 247.340, 220.391 247.319, 219.791 " />
            <path fill="none" stroke-width="3.0" stroke-linecap="butt" stroke-opacity="1.0" stroke="rgb(0, 0, 0)" stroke-linejoin="round" d=" M 247.038, 225.797 247.046, 225.773 " />
            <path fill="none" stroke-width="3.0" stroke-linecap="butt" stroke-opacity="1.0" stroke="rgb(0, 0, 0)" stroke-linejoin="round" d=" M 244.005, 220.241 244.084, 220.859 244.196, 221.496 244.281, 222.175 244.365, 222.887 244.485, 223.652 244.708, 224.517 244.715, 224.542 " />
            <path fill="none" stroke-width="3.0" stroke-linecap="butt" stroke-opacity="1.0" stroke="rgb(0, 0, 0)" stroke-linejoin="round" d=" M 244.708, 224.517 244.523, 225.403 244.386, 226.564 244.300, 227.694 244.207, 228.836 244.261, 229.545 244.296, 229.723 244.437, 230.181 244.554, 230.340 244.792, 230.635 245.207, 230.851 245.501, 230.903 " />
            <path fill="none" stroke-width="3.0" stroke-linecap="butt" stroke-opacity="1.0" stroke="rgb(0, 0, 0)" stroke-linejoin="round" d=" M 251.912, 216.623 251.695, 215.536 " />
            <path fill="none" stroke-width="3.0" stroke-linecap="butt" stroke-opacity="1.0" stroke="rgb(0, 0, 0)" stroke-linejoin="round" d=" M 253.279, 222.264 253.218, 221.972 253.217, 221.965 253.195, 221.861 253.064, 221.231 253.016, 220.162 253.028, 219.137 252.932, 218.748 252.670, 217.767 252.241, 216.833 252.153, 216.563 " />
            <path fill="none" stroke-width="3.0" stroke-linecap="butt" stroke-opacity="1.0" stroke="rgb(0, 0, 0)" stroke-linejoin="round" d=" M 227.172, 294.315 227.068, 294.307 225.979, 294.219 224.798, 294.026 223.616, 293.851 223.584, 293.846 223.580, 293.846 222.337, 293.803 221.218, 293.680 220.213, 293.433 219.266, 293.110 219.208, 293.092 218.335, 292.824 217.438, 292.518 216.560, 292.294 215.955, 292.220 215.556, 292.139 " />
            <path fill="none" stroke-width="3.0" stroke-linecap="butt" stroke-opacity="1.0" stroke="rgb(0, 0, 0)" stroke-linejoin="round" d=" M 204.763, 293.593 204.506, 295.110 204.283, 296.681 204.216, 298.239 204.076, 300.303 203.797, 301.729 203.315, 303.058 202.624, 304.283 201.991, 305.525 201.430, 307.482 201.400, 308.707 201.421, 309.492 201.674, 310.481 202.010, 311.254 202.660, 311.911 203.907, 312.839 204.776, 313.246 205.859, 313.438 207.125, 313.471 208.534, 313.390 210.075, 313.169 211.684, 312.726 213.225, 311.942 214.656, 311.014 216.023, 310.133 217.392, 309.433 218.877, 308.862 219.037, 308.800 " />
            <path fill="none" stroke-width="3.0" stroke-linecap="butt" stroke-opacity="1.0" stroke="rgb(0, 0, 0)" stroke-linejoin="round" d=" M 234.273, 174.563 234.125, 174.362 233.458, 173.455 232.967, 172.603 232.596, 171.709 232.332, 170.710 232.227, 169.680 232.350, 168.219 232.416, 166.506 232.339, 164.631 232.123, 162.689 231.792, 160.770 231.407, 158.941 231.023, 157.207 230.618, 155.551 230.155, 153.965 229.631, 152.444 229.482, 152.044 228.906, 150.562 228.299, 149.154 227.690, 147.789 227.030, 146.493 226.573, 145.796 226.145, 144.679 225.842, 143.561 225.712, 142.565 " />
            <path fill="none" stroke-width="3.0" stroke-linecap="butt" stroke-opacity="1.0" stroke="rgb(0, 0, 0)" stroke-linejoin="round" d=" M 245.681, 200.185 245.656, 200.111 245.220, 198.840 245.110, 198.534 244.407, 196.929 243.772, 195.596 243.041, 194.099 242.330, 192.666 241.636, 191.032 241.139, 189.549 240.686, 188.045 240.351, 186.886 239.997, 185.398 239.609, 183.905 239.138, 182.417 238.552, 180.944 237.840, 179.502 237.013, 178.110 236.104, 176.795 235.165, 175.601 234.125, 174.362 " />
            <path fill="none" stroke-width="3.0" stroke-linecap="butt" stroke-opacity="1.0" stroke="rgb(0, 0, 0)" stroke-linejoin="round" d=" M 207.601, 94.301 207.089, 93.649 206.275, 93.685 205.349, 94.215 204.941, 95.326 " />
            <path fill="none" stroke-width="3.0" stroke-linecap="butt" stroke-opacity="1.0" stroke="rgb(0, 0, 0)" stroke-linejoin="round" d=" M 205.428, 99.842 205.362, 98.877 205.397, 97.749 205.490, 96.577 205.675, 95.463 206.100, 94.618 206.715, 94.131 207.298, 94.110 207.379, 94.107 207.609, 94.496 207.675, 94.607 207.684, 94.622 207.700, 94.650 " />
            <path fill="none" stroke-width="3.0" stroke-linecap="butt" stroke-opacity="1.0" stroke="rgb(0, 0, 0)" stroke-linejoin="round" d=" M 207.040, 99.600 206.943, 100.122 206.720, 100.673 206.432, 100.954 206.192, 100.935 206.035, 100.731 206.004, 100.639 205.913, 100.370 205.816, 99.771 205.722, 98.817 205.783, 97.757 205.943, 96.693 206.203, 95.695 206.555, 94.888 206.576, 94.867 206.667, 94.774 207.006, 94.432 207.397, 94.436 207.505, 94.786 " />
            <path fill="none" stroke-width="3.0" stroke-linecap="butt" stroke-opacity="1.0" stroke="rgb(0, 0, 0)" stroke-linejoin="round" d=" M 206.520, 95.332 206.535, 95.295 206.537, 95.291 206.550, 95.259 206.729, 94.829 206.729, 94.828 " />
            <path fill="none" stroke-width="3.0" stroke-linecap="butt" stroke-opacity="1.0" stroke="rgb(0, 0, 0)" stroke-linejoin="round" d=" M 206.493, 96.502 206.586, 95.827 206.537, 95.291 " />
            <path fill="none" stroke-width="3.0" stroke-linecap="butt" stroke-opacity="1.0" stroke="rgb(0, 0, 0)" stroke-linejoin="round" d=" M 206.203, 99.825 206.213, 99.708 206.228, 99.534 206.285, 98.868 206.378, 98.083 206.425, 97.511 206.441, 97.319 206.452, 97.171 206.466, 96.990 206.467, 96.978 206.469, 96.961 206.491, 96.673 " />
            <path fill="none" stroke-width="3.0" stroke-linecap="butt" stroke-opacity="1.0" stroke="rgb(0, 0, 0)" stroke-linejoin="round" d=" M 207.129, 96.070 206.872, 95.854 " />
            <path fill="none" stroke-width="3.0" stroke-linecap="butt" stroke-opacity="1.0" stroke="rgb(0, 0, 0)" stroke-linejoin="round" d=" M 207.143, 95.277 206.872, 95.854 206.616, 96.326 " />
            <path fill="none" stroke-width="3.0" stroke-linecap="butt" stroke-opacity="1.0" stroke="rgb(0, 0, 0)" stroke-linejoin="round" d=" M 206.425, 97.511 206.537, 97.369 206.818, 97.007 206.885, 96.917 207.272, 96.393 207.343, 96.245 207.711, 95.482 207.689, 94.783 " />
            <path fill="none" stroke-width="3.0" stroke-linecap="butt" stroke-opacity="1.0" stroke="rgb(0, 0, 0)" stroke-linejoin="round" d=" M 207.318, 96.264 207.557, 95.637 207.633, 95.438 207.644, 95.312 207.689, 94.783 207.700, 94.650 207.680, 94.506 207.601, 94.301 " />
            <path fill="none" stroke-width="3.0" stroke-linecap="butt" stroke-opacity="1.0" stroke="rgb(0, 0, 0)" stroke-linejoin="round" d=" M 207.157, 94.776 206.850, 94.842 206.847, 94.841 " />
            <path fill="none" stroke-width="3.0" stroke-linecap="butt" stroke-opacity="1.0" stroke="rgb(0, 0, 0)" stroke-linejoin="round" d=" M 206.300, 100.177 206.228, 99.534 " />
            <path fill="none" stroke-width="3.0" stroke-linecap="butt" stroke-opacity="1.0" stroke="rgb(0, 0, 0)" stroke-linejoin="round" d=" M 207.379, 94.107 207.178, 93.950 " />
            <path fill="none" stroke-width="3.0" stroke-linecap="butt" stroke-opacity="1.0" stroke="rgb(0, 0, 0)" stroke-linejoin="round" d=" M 206.711, 97.291 206.893, 97.274 " />
            <path fill="none" stroke-width="3.0" stroke-linecap="butt" stroke-opacity="1.0" stroke="rgb(0, 0, 0)" stroke-linejoin="round" d=" M 206.828, 97.686 207.134, 97.392 206.893, 97.274 206.935, 96.953 " />
            <path fill="none" stroke-width="3.0" stroke-linecap="butt" stroke-opacity="1.0" stroke="rgb(0, 0, 0)" stroke-linejoin="round" d=" M 207.343, 96.245 207.297, 96.817 206.935, 96.953 206.885, 96.917 " />
            <path fill="none" stroke-width="3.0" stroke-linecap="butt" stroke-opacity="1.0" stroke="rgb(0, 0, 0)" stroke-linejoin="round" d=" M 206.406, 100.668 206.282, 100.519 206.280, 100.517 " />
            <path fill="none" stroke-width="3.0" stroke-linecap="butt" stroke-opacity="1.0" stroke="rgb(0, 0, 0)" stroke-linejoin="round" d=" M 206.486, 97.729 206.801, 98.075 207.302, 98.410 207.097, 97.974 " />
            <path fill="none" stroke-width="3.0" stroke-linecap="butt" stroke-opacity="1.0" stroke="rgb(0, 0, 0)" stroke-linejoin="round" d=" M 206.537, 97.369 206.486, 97.729 206.414, 98.233 206.815, 98.583 " />
            <path fill="none" stroke-width="3.0" stroke-linecap="butt" stroke-opacity="1.0" stroke="rgb(0, 0, 0)" stroke-linejoin="round" d=" M 205.407, 100.832 205.528, 100.872 205.606, 100.898 205.819, 100.969 206.062, 101.017 206.432, 100.954 " />
            <path fill="none" stroke-width="3.0" stroke-linecap="butt" stroke-opacity="1.0" stroke="rgb(0, 0, 0)" stroke-linejoin="round" d=" M 205.160, 101.077 205.606, 100.898 " />
            <path fill="none" stroke-width="3.0" stroke-linecap="butt" stroke-opacity="1.0" stroke="rgb(0, 0, 0)" stroke-linejoin="round" d=" M 212.614, 90.252 212.630, 89.769 212.631, 89.742 212.631, 89.733 212.647, 89.232 212.957, 88.309 213.229, 87.281 213.357, 86.192 213.328, 85.074 213.057, 84.052 212.523, 83.270 212.245, 82.887 " />
            <path fill="none" stroke-width="3.0" stroke-linecap="butt" stroke-opacity="1.0" stroke="rgb(0, 0, 0)" stroke-linejoin="round" d=" M 212.923, 90.409 212.631, 89.742 " />
            <path fill="none" stroke-width="3.0" stroke-linecap="butt" stroke-opacity="1.0" stroke="rgb(0, 0, 0)" stroke-linejoin="round" d=" M 212.700, 83.601 212.245, 82.887 211.776, 82.148 211.252, 81.361 210.654, 80.421 210.106, 79.435 209.401, 78.414 208.636, 77.576 207.652, 76.738 206.554, 76.049 205.412, 75.451 204.389, 74.941 203.178, 74.493 202.043, 74.232 200.776, 74.049 199.627, 73.994 198.377, 74.046 197.277, 74.155 196.087, 74.389 195.090, 74.628 194.001, 75.050 193.170, 75.418 192.223, 75.986 191.799, 76.256 190.995, 76.897 190.003, 77.882 189.064, 79.028 188.210, 80.252 187.304, 81.665 186.583, 83.048 186.003, 84.479 185.570, 85.944 185.298, 87.432 185.174, 88.929 185.174, 91.175 185.359, 92.680 185.718, 94.098 186.031, 94.926 186.554, 96.225 187.198, 97.389 187.915, 98.442 188.473, 99.318 188.580, 99.485 " />
            <path fill="none" stroke-width="3.0" stroke-linecap="butt" stroke-opacity="1.0" stroke="rgb(0, 0, 0)" stroke-linejoin="round" d=" M 212.026, 96.164 212.580, 94.428 212.739, 93.905 213.060, 92.845 213.154, 91.429 " />
            <path fill="none" stroke-width="3.0" stroke-linecap="butt" stroke-opacity="1.0" stroke="rgb(0, 0, 0)" stroke-linejoin="round" d=" M 212.966, 92.890 213.143, 91.580 213.154, 91.429 212.910, 90.267 212.631, 89.733 " />
            <path fill="none" stroke-width="3.0" stroke-linecap="butt" stroke-opacity="1.0" stroke="rgb(0, 0, 0)" stroke-linejoin="round" d=" M 206.113, 105.191 206.179, 105.026 206.319, 104.676 206.716, 103.684 " />
            <path fill="none" stroke-width="3.0" stroke-linecap="butt" stroke-opacity="1.0" stroke="rgb(0, 0, 0)" stroke-linejoin="round" d=" M 205.963, 111.989 205.936, 110.458 205.870, 109.280 205.835, 108.651 205.870, 107.351 205.926, 106.076 206.179, 105.026 " />
            <path fill="none" stroke-width="3.0" stroke-linecap="butt" stroke-opacity="1.0" stroke="rgb(0, 0, 0)" stroke-linejoin="round" d=" M 206.483, 103.965 206.704, 103.697 206.716, 103.684 207.458, 102.784 " />
            <path fill="none" stroke-width="3.0" stroke-linecap="butt" stroke-opacity="1.0" stroke="rgb(0, 0, 0)" stroke-linejoin="round" d=" M 206.319, 104.676 206.905, 103.665 207.906, 102.611 208.605, 102.030 209.336, 101.486 210.298, 100.804 210.669, 100.433 210.894, 100.080 211.232, 99.301 211.502, 98.554 211.638, 98.121 " />
            <path fill="none" stroke-width="3.0" stroke-linecap="butt" stroke-opacity="1.0" stroke="rgb(0, 0, 0)" stroke-linejoin="round" d=" M 211.545, 98.370 211.638, 98.121 212.027, 97.085 212.498, 95.625 212.761, 94.224 212.739, 93.905 " />
            <path fill="none" stroke-width="3.0" stroke-linecap="butt" stroke-opacity="1.0" stroke="rgb(0, 0, 0)" stroke-linejoin="round" d=" M 251.534, 212.947 251.315, 211.875 251.276, 211.620 251.115, 210.862 251.094, 210.763 251.086, 210.728 250.973, 210.196 250.643, 208.695 250.634, 208.651 250.584, 208.221 250.513, 207.611 250.470, 207.237 " />
            <path fill="none" stroke-width="3.0" stroke-linecap="butt" stroke-opacity="1.0" stroke="rgb(0, 0, 0)" stroke-linejoin="round" d=" M 252.329, 217.180 252.153, 216.563 252.045, 216.183 251.871, 215.305 251.818, 215.036 251.855, 214.317 251.868, 214.062 251.534, 212.947 251.322, 212.243 " />
            <path fill="none" stroke-width="3.0" stroke-linecap="butt" stroke-opacity="1.0" stroke="rgb(0, 0, 0)" stroke-linejoin="round" d=" M 250.643, 208.695 250.816, 208.088 250.783, 207.384 250.585, 206.779 250.580, 206.302 249.768, 204.992 249.314, 204.528 248.798, 203.924 248.131, 203.239 247.374, 202.512 246.575, 201.753 246.196, 201.143 245.656, 200.111 " />
            <path fill="none" stroke-width="3.0" stroke-linecap="butt" stroke-opacity="1.0" stroke="rgb(0, 0, 0)" stroke-linejoin="round" d=" M 217.120, 125.361 216.230, 124.214 215.434, 123.209 214.520, 122.040 213.612, 120.945 212.840, 120.059 211.956, 119.117 211.117, 118.312 210.256, 117.548 209.305, 116.816 208.571, 116.249 207.654, 115.548 " />
            <path fill="none" stroke-width="3.0" stroke-linecap="butt" stroke-opacity="1.0" stroke="rgb(0, 0, 0)" stroke-linejoin="round" d=" M 207.959, 115.829 207.654, 115.548 206.997, 114.945 " />
            <path fill="none" stroke-width="3.0" stroke-linecap="butt" stroke-opacity="1.0" stroke="rgb(0, 0, 0)" stroke-linejoin="round" d=" M 207.396, 115.437 207.219, 115.219 207.213, 115.212 206.997, 114.945 206.645, 114.510 206.506, 114.339 " />
            <path fill="none" stroke-width="3.0" stroke-linecap="butt" stroke-opacity="1.0" stroke="rgb(0, 0, 0)" stroke-linejoin="round" d=" M 206.944, 115.113 206.518, 114.361 206.506, 114.339 206.491, 114.312 206.480, 114.293 206.323, 114.015 " />
            <path fill="none" stroke-width="3.0" stroke-linecap="butt" stroke-opacity="1.0" stroke="rgb(0, 0, 0)" stroke-linejoin="round" d=" M 206.491, 114.312 206.410, 114.063 206.076, 113.036 205.963, 111.989 205.924, 111.627 " />
            <path fill="none" stroke-width="3.0" stroke-linecap="butt" stroke-opacity="1.0" stroke="rgb(0, 0, 0)" stroke-linejoin="round" d=" M 225.740, 142.983 225.712, 142.565 225.643, 141.544 225.588, 141.023 225.378, 139.521 224.998, 137.895 224.584, 136.272 223.971, 134.684 222.901, 132.544 221.965, 131.027 220.856, 129.545 219.657, 128.155 219.624, 128.117 " />
            <path fill="none" stroke-width="3.0" stroke-linecap="butt" stroke-opacity="1.0" stroke="rgb(0, 0, 0)" stroke-linejoin="round" d=" M 219.657, 128.155 219.283, 127.697 218.064, 126.384 217.578, 125.892 217.120, 125.361 216.944, 125.158 " />
            <path fill="none" stroke-width="3.0" stroke-linecap="butt" stroke-opacity="1.0" stroke="rgb(0, 0, 0)" stroke-linejoin="round" d=" M 233.197, 303.726 233.726, 303.393 234.210, 303.559 234.657, 303.625 235.532, 303.388 236.109, 302.861 236.251, 302.707 236.619, 302.271 236.733, 301.817 236.730, 301.412 236.807, 301.003 236.786, 300.935 236.691, 300.631 236.530, 300.496 236.203, 300.552 235.733, 300.618 235.111, 300.770 " />
            <path fill="none" stroke-width="3.0" stroke-linecap="butt" stroke-opacity="1.0" stroke="rgb(0, 0, 0)" stroke-linejoin="round" d=" M 218.877, 308.862 220.544, 308.553 222.150, 308.336 223.703, 307.852 225.531, 307.197 227.002, 306.922 228.363, 306.542 229.632, 305.986 231.200, 305.279 232.195, 304.636 233.197, 303.726 233.281, 303.650 233.908, 303.095 " />
            <path fill="none" stroke-width="3.0" stroke-linecap="butt" stroke-opacity="1.0" stroke="rgb(0, 0, 0)" stroke-linejoin="round" d=" M 235.448, 300.958 235.111, 300.770 235.080, 300.753 234.660, 300.518 234.123, 300.271 234.023, 300.225 233.730, 300.181 232.844, 300.300 232.840, 300.290 232.795, 300.185 232.717, 300.003 232.293, 299.016 " />
            <path fill="none" stroke-width="3.0" stroke-linecap="butt" stroke-opacity="1.0" stroke="rgb(0, 0, 0)" stroke-linejoin="round" d=" M 233.410, 298.108 233.159, 297.986 232.709, 297.769 231.767, 297.425 231.247, 297.116 " />
            <path fill="none" stroke-width="3.0" stroke-linecap="butt" stroke-opacity="1.0" stroke="rgb(0, 0, 0)" stroke-linejoin="round" d=" M 235.679, 298.566 235.632, 298.507 235.274, 298.052 234.654, 298.000 234.239, 297.966 233.764, 298.016 233.159, 297.986 " />
            <path fill="none" stroke-width="3.0" stroke-linecap="butt" stroke-opacity="1.0" stroke="rgb(0, 0, 0)" stroke-linejoin="round" d=" M 235.080, 300.753 234.451, 300.346 234.123, 300.271 " />
            <path fill="none" stroke-width="3.0" stroke-linecap="butt" stroke-opacity="1.0" stroke="rgb(0, 0, 0)" stroke-linejoin="round" d=" M 236.387, 301.013 236.691, 300.631 " />
            <path fill="none" stroke-width="3.0" stroke-linecap="butt" stroke-opacity="1.0" stroke="rgb(0, 0, 0)" stroke-linejoin="round" d=" M 235.172, 301.016 234.253, 300.785 " />
            <path fill="none" stroke-width="3.0" stroke-linecap="butt" stroke-opacity="1.0" stroke="rgb(0, 0, 0)" stroke-linejoin="round" d=" M 223.232, 228.543 223.336, 227.899 223.397, 227.526 223.690, 225.764 223.861, 224.769 223.997, 223.785 224.096, 222.798 224.170, 221.805 224.226, 220.802 224.347, 218.951 224.406, 217.923 224.448, 216.879 224.475, 215.819 224.491, 214.745 224.503, 213.659 224.513, 212.564 224.522, 211.462 224.533, 210.359 224.543, 209.262 224.553, 208.165 224.564, 207.066 224.573, 205.957 224.580, 204.835 224.579, 203.693 224.541, 202.527 224.443, 200.595 224.366, 199.387 224.263, 198.150 224.132, 196.893 223.970, 195.632 223.779, 194.374 223.468, 192.513 223.246, 191.260 222.987, 190.006 222.688, 188.750 222.340, 187.484 221.946, 186.203 221.781, 185.709 " />
            <path fill="none" stroke-width="3.0" stroke-linecap="butt" stroke-opacity="1.0" stroke="rgb(0, 0, 0)" stroke-linejoin="round" d=" M 222.087, 186.714 221.781, 185.709 221.684, 185.390 221.269, 184.077 220.868, 182.792 220.552, 181.702 " />
            <path fill="none" stroke-width="3.0" stroke-linecap="butt" stroke-opacity="1.0" stroke="rgb(0, 0, 0)" stroke-linejoin="round" d=" M 230.299, 292.893 230.833, 293.409 231.207, 293.770 " />
            <path fill="none" stroke-width="3.0" stroke-linecap="butt" stroke-opacity="1.0" stroke="rgb(0, 0, 0)" stroke-linejoin="round" d=" M 230.840, 293.411 230.008, 292.494 229.860, 292.331 229.273, 292.138 227.796, 291.836 227.172, 291.791 226.298, 292.204 225.280, 292.227 224.306, 292.356 223.484, 292.967 " />
            <path fill="none" stroke-width="3.0" stroke-linecap="butt" stroke-opacity="1.0" stroke="rgb(0, 0, 0)" stroke-linejoin="round" d=" M 224.619, 293.032 223.484, 292.967 223.450, 292.965 222.114, 293.013 221.493, 293.099 " />
            <path fill="none" stroke-width="3.0" stroke-linecap="butt" stroke-opacity="1.0" stroke="rgb(0, 0, 0)" stroke-linejoin="round" d=" M 233.685, 295.306 233.284, 295.047 233.197, 294.991 233.014, 294.872 232.690, 294.653 231.979, 294.187 231.548, 294.163 230.777, 294.476 230.274, 294.536 " />
            <path fill="none" stroke-width="3.0" stroke-linecap="butt" stroke-opacity="1.0" stroke="rgb(0, 0, 0)" stroke-linejoin="round" d=" M 230.486, 294.598 230.274, 294.536 229.882, 294.421 228.884, 294.156 227.703, 294.225 227.068, 294.307 " />
            <path fill="none" stroke-width="3.0" stroke-linecap="butt" stroke-opacity="1.0" stroke="rgb(0, 0, 0)" stroke-linejoin="round" d=" M 235.617, 296.731 235.670, 296.533 235.700, 296.095 235.591, 295.720 235.576, 295.683 235.561, 295.203 235.133, 294.824 234.517, 294.671 233.805, 294.946 233.293, 294.984 233.197, 294.991 " />
            <path fill="none" stroke-width="3.0" stroke-linecap="butt" stroke-opacity="1.0" stroke="rgb(0, 0, 0)" stroke-linejoin="round" d=" M 232.889, 296.479 232.881, 296.478 232.863, 296.475 232.709, 296.453 232.275, 296.390 232.179, 296.376 231.897, 296.153 231.092, 295.914 230.376, 295.858 230.375, 295.858 230.217, 295.845 228.904, 295.741 " />
            <path fill="none" stroke-width="3.0" stroke-linecap="butt" stroke-opacity="1.0" stroke="rgb(0, 0, 0)" stroke-linejoin="round" d=" M 236.786, 300.935 236.862, 300.874 237.176, 300.475 237.369, 300.094 237.460, 299.727 237.458, 299.360 237.408, 298.989 237.337, 298.655 237.102, 298.661 236.980, 298.663 " />
            <path fill="none" stroke-width="3.0" stroke-linecap="butt" stroke-opacity="1.0" stroke="rgb(0, 0, 0)" stroke-linejoin="round" d=" M 237.102, 298.661 236.972, 298.634 236.708, 298.579 236.075, 298.584 235.632, 298.507 " />
            <path fill="none" stroke-width="3.0" stroke-linecap="butt" stroke-opacity="1.0" stroke="rgb(0, 0, 0)" stroke-linejoin="round" d=" M 231.247, 297.116 230.794, 297.054 230.652, 297.034 229.819, 297.229 " />
            <path fill="none" stroke-width="3.0" stroke-linecap="butt" stroke-opacity="1.0" stroke="rgb(0, 0, 0)" stroke-linejoin="round" d=" M 231.453, 296.302 230.621, 296.133 " />
            <path fill="none" stroke-width="3.0" stroke-linecap="butt" stroke-opacity="1.0" stroke="rgb(0, 0, 0)" stroke-linejoin="round" d=" M 234.770, 297.845 234.906, 297.779 235.469, 297.503 235.289, 297.409 235.027, 297.272 234.326, 297.237 233.731, 297.261 " />
            <path fill="none" stroke-width="3.0" stroke-linecap="butt" stroke-opacity="1.0" stroke="rgb(0, 0, 0)" stroke-linejoin="round" d=" M 233.131, 296.398 233.011, 296.414 232.709, 296.453 " />
            <path fill="none" stroke-width="3.0" stroke-linecap="butt" stroke-opacity="1.0" stroke="rgb(0, 0, 0)" stroke-linejoin="round" d=" M 235.279, 297.220 234.942, 296.804 234.869, 296.714 234.502, 296.440 233.825, 296.132 233.374, 296.263 233.011, 296.414 " />
            <path fill="none" stroke-width="3.0" stroke-linecap="butt" stroke-opacity="1.0" stroke="rgb(0, 0, 0)" stroke-linejoin="round" d=" M 234.243, 296.515 234.869, 296.714 " />
            <path fill="none" stroke-width="3.0" stroke-linecap="butt" stroke-opacity="1.0" stroke="rgb(0, 0, 0)" stroke-linejoin="round" d=" M 221.098, 182.600 222.007, 184.016 222.781, 185.224 222.928, 185.454 " />
            <path fill="none" stroke-width="3.0" stroke-linecap="butt" stroke-opacity="1.0" stroke="rgb(0, 0, 0)" stroke-linejoin="round" d=" M 222.781, 185.224 223.305, 186.270 223.992, 187.608 224.774, 188.935 225.650, 190.260 225.866, 190.583 226.781, 191.863 227.766, 193.141 228.809, 194.412 229.897, 195.668 231.019, 196.900 232.173, 198.098 233.339, 199.271 233.586, 199.522 234.483, 200.435 " />
            <path fill="none" stroke-width="3.0" stroke-linecap="butt" stroke-opacity="1.0" stroke="rgb(0, 0, 0)" stroke-linejoin="round" d=" M 210.615, 161.047 210.882, 161.921 211.116, 162.682 211.724, 164.276 212.443, 165.819 213.270, 167.303 214.175, 168.733 215.122, 170.124 216.029, 171.516 216.801, 172.964 217.442, 174.495 218.049, 176.108 218.718, 177.823 219.463, 179.607 220.329, 181.336 220.552, 181.702 221.098, 182.600 221.289, 182.889 222.218, 184.213 " />
            <path fill="none" stroke-width="3.0" stroke-linecap="butt" stroke-opacity="1.0" stroke="rgb(0, 0, 0)" stroke-linejoin="round" d=" M 188.941, 192.018 189.373, 192.545 189.395, 192.578 189.428, 192.626 189.829, 193.222 190.335, 194.016 190.929, 194.931 " />
            <path fill="none" stroke-width="3.0" stroke-linecap="butt" stroke-opacity="1.0" stroke="rgb(0, 0, 0)" stroke-linejoin="round" d=" M 189.085, 192.355 189.428, 192.626 " />
            <path fill="none" stroke-width="3.0" stroke-linecap="butt" stroke-opacity="1.0" stroke="rgb(0, 0, 0)" stroke-linejoin="round" d=" M 190.901, 194.886 190.929, 194.931 191.702, 196.163 192.215, 196.935 192.694, 197.630 193.257, 198.257 193.855, 198.911 194.490, 199.590 195.125, 200.286 195.732, 201.003 196.288, 201.748 196.645, 202.303 196.784, 202.518 " />
            <path fill="none" stroke-width="3.0" stroke-linecap="butt" stroke-opacity="1.0" stroke="rgb(0, 0, 0)" stroke-linejoin="round" d=" M 219.646, 248.163 219.663, 247.988 219.795, 246.590 220.067, 245.077 220.442, 243.703 220.464, 243.624 " />
            <path fill="none" stroke-width="3.0" stroke-linecap="butt" stroke-opacity="1.0" stroke="rgb(0, 0, 0)" stroke-linejoin="round" d=" M 220.442, 243.703 220.621, 243.140 221.110, 241.667 221.281, 241.190 221.732, 239.587 221.896, 239.141 221.960, 237.844 " />
            <path fill="none" stroke-width="3.0" stroke-linecap="butt" stroke-opacity="1.0" stroke="rgb(0, 0, 0)" stroke-linejoin="round" d=" M 167.465, 124.325 167.702, 124.633 167.898, 125.018 168.062, 125.489 168.211, 126.049 168.359, 126.703 168.528, 127.449 168.747, 128.303 169.109, 129.514 169.427, 130.518 169.810, 131.427 169.912, 131.642 170.461, 132.795 170.964, 133.809 171.513, 134.935 172.201, 136.642 172.415, 137.171 " />
            <path fill="none" stroke-width="3.0" stroke-linecap="butt" stroke-opacity="1.0" stroke="rgb(0, 0, 0)" stroke-linejoin="round" d=" M 172.781, 138.309 173.139, 139.481 173.543, 140.597 174.585, 142.887 175.156, 143.992 175.782, 145.130 176.415, 146.324 177.045, 147.543 177.654, 148.752 178.244, 149.916 178.716, 150.976 179.207, 152.108 179.667, 153.184 180.086, 154.212 180.447, 155.206 180.738, 156.179 180.959, 157.145 181.079, 157.920 181.111, 158.126 " />
            <path fill="none" stroke-width="3.0" stroke-linecap="butt" stroke-opacity="1.0" stroke="rgb(0, 0, 0)" stroke-linejoin="round" d=" M 180.294, 104.791 178.317, 104.486 177.547, 104.416 175.954, 104.354 175.136, 104.423 173.553, 104.605 171.182, 105.311 168.883, 106.387 166.728, 107.783 164.782, 109.434 164.037, 110.153 163.006, 111.199 162.279, 111.952 161.630, 112.788 160.811, 113.885 160.298, 114.789 159.949, 115.763 159.612, 116.914 159.464, 117.857 159.400, 118.781 159.257, 119.628 159.249, 119.675 159.207, 119.791 159.193, 119.833 159.190, 119.841 159.187, 119.848 159.175, 119.883 159.168, 119.901 158.934, 120.558 " />
            <path fill="none" stroke-width="3.0" stroke-linecap="butt" stroke-opacity="1.0" stroke="rgb(0, 0, 0)" stroke-linejoin="round" d=" M 181.079, 157.920 181.084, 158.951 181.023, 159.964 181.013, 160.136 " />
            <path fill="none" stroke-width="3.0" stroke-linecap="butt" stroke-opacity="1.0" stroke="rgb(0, 0, 0)" stroke-linejoin="round" d=" M 144.021, 148.540 143.812, 148.953 143.309, 149.988 142.478, 151.572 141.799, 152.646 140.996, 154.150 140.577, 155.148 140.228, 156.144 139.343, 157.486 138.770, 158.632 138.707, 159.102 138.686, 160.378 138.424, 161.732 138.121, 162.871 138.084, 163.116 138.190, 164.386 138.210, 164.561 138.505, 165.970 138.543, 167.284 138.545, 168.379 138.747, 169.232 138.685, 169.967 138.684, 170.460 " />
            <path fill="none" stroke-width="3.0" stroke-linecap="butt" stroke-opacity="1.0" stroke="rgb(0, 0, 0)" stroke-linejoin="round" d=" M 138.890, 170.564 138.714, 170.508 138.684, 170.460 138.760, 170.498 138.890, 170.564 138.961, 170.600 139.184, 170.658 139.593, 170.645 139.787, 170.598 140.083, 170.491 140.243, 170.434 140.681, 170.001 140.753, 169.848 140.963, 169.253 140.996, 169.096 141.109, 168.319 141.122, 168.166 140.987, 167.038 140.849, 165.751 140.906, 164.617 " />
            <path fill="none" stroke-width="3.0" stroke-linecap="butt" stroke-opacity="1.0" stroke="rgb(0, 0, 0)" stroke-linejoin="round" d=" M 140.898, 164.653 140.906, 164.617 141.142, 163.575 141.406, 162.897 141.864, 161.996 142.621, 161.668 142.687, 161.640 142.842, 161.573 143.075, 161.472 " />
            <path fill="none" stroke-width="3.0" stroke-linecap="butt" stroke-opacity="1.0" stroke="rgb(0, 0, 0)" stroke-linejoin="round" d=" M 143.414, 161.759 143.524, 161.563 143.558, 161.503 " />
            <path fill="none" stroke-width="3.0" stroke-linecap="butt" stroke-opacity="1.0" stroke="rgb(0, 0, 0)" stroke-linejoin="round" d=" M 145.653, 165.301 145.738, 164.182 145.934, 163.170 146.069, 162.334 146.211, 161.665 146.337, 161.077 146.407, 160.774 " />
            <path fill="none" stroke-width="3.0" stroke-linecap="butt" stroke-opacity="1.0" stroke="rgb(0, 0, 0)" stroke-linejoin="round" d=" M 146.303, 160.948 146.407, 160.774 146.520, 160.582 " />
            <path fill="none" stroke-width="3.0" stroke-linecap="butt" stroke-opacity="1.0" stroke="rgb(0, 0, 0)" stroke-linejoin="round" d=" M 146.166, 160.864 146.409, 160.671 146.435, 160.650 146.520, 160.582 146.527, 160.577 147.021, 160.272 147.198, 160.159 147.634, 159.879 148.938, 159.054 149.540, 158.739 150.266, 158.158 150.321, 158.115 151.050, 157.536 " />
            <path fill="none" stroke-width="3.0" stroke-linecap="butt" stroke-opacity="1.0" stroke="rgb(0, 0, 0)" stroke-linejoin="round" d=" M 170.849, 277.165 170.765, 278.581 170.712, 279.516 170.687, 279.958 170.656, 280.300 170.561, 281.352 170.310, 282.782 169.925, 284.249 169.486, 285.696 169.162, 287.081 169.052, 288.380 169.071, 289.579 169.194, 291.431 169.546, 292.394 169.914, 293.069 170.563, 293.622 171.207, 294.083 172.086, 294.443 173.061, 294.753 174.100, 294.902 175.097, 294.785 175.665, 294.799 176.374, 294.507 177.125, 294.144 178.257, 292.864 178.925, 291.772 179.669, 290.594 180.378, 289.329 180.739, 288.709 181.098, 288.090 " />
            <path fill="none" stroke-width="3.0" stroke-linecap="butt" stroke-opacity="1.0" stroke="rgb(0, 0, 0)" stroke-linejoin="round" d=" M 180.739, 288.709 181.267, 288.048 182.647, 286.931 182.927, 286.704 " />
            <path fill="none" stroke-width="3.0" stroke-linecap="butt" stroke-opacity="1.0" stroke="rgb(0, 0, 0)" stroke-linejoin="round" d=" M 149.420, 150.152 150.810, 149.457 151.449, 149.201 151.551, 149.161 151.594, 149.145 152.144, 148.933 152.877, 148.625 153.316, 148.447 153.961, 148.185 154.756, 147.876 156.752, 147.045 157.539, 146.673 159.546, 145.554 160.200, 145.097 160.745, 144.592 161.896, 143.515 162.369, 143.017 162.786, 142.466 163.957, 140.692 164.188, 140.106 164.647, 138.882 164.808, 138.410 164.833, 137.665 " />
            <path fill="none" stroke-width="3.0" stroke-linecap="butt" stroke-opacity="1.0" stroke="rgb(0, 0, 0)" stroke-linejoin="round" d=" M 144.950, 145.926 144.508, 146.662 144.185, 147.235 144.007, 147.900 144.021, 148.540 144.038, 149.286 " />
            <path fill="none" stroke-width="3.0" stroke-linecap="butt" stroke-opacity="1.0" stroke="rgb(0, 0, 0)" stroke-linejoin="round" d=" M 150.688, 157.672 151.050, 157.536 151.753, 157.274 153.015, 157.117 " />
            <path fill="none" stroke-width="3.0" stroke-linecap="butt" stroke-opacity="1.0" stroke="rgb(0, 0, 0)" stroke-linejoin="round" d=" M 152.450, 157.110 153.015, 157.117 153.871, 157.128 154.139, 157.119 154.865, 157.149 155.271, 157.165 155.271, 157.165 155.335, 157.168 " />
            <path fill="none" stroke-width="3.0" stroke-linecap="butt" stroke-opacity="1.0" stroke="rgb(0, 0, 0)" stroke-linejoin="round" d=" M 142.788, 161.771 143.529, 161.513 143.537, 161.510 143.558, 161.503 143.731, 161.442 144.388, 161.185 145.001, 160.824 145.007, 160.820 145.860, 160.318 " />
            <path fill="none" stroke-width="3.0" stroke-linecap="butt" stroke-opacity="1.0" stroke="rgb(0, 0, 0)" stroke-linejoin="round" d=" M 170.712, 279.516 170.664, 279.787 170.656, 280.300 " />
            <path fill="none" stroke-width="3.0" stroke-linecap="butt" stroke-opacity="1.0" stroke="rgb(0, 0, 0)" stroke-linejoin="round" d=" M 181.023, 159.964 180.974, 160.440 180.756, 161.848 180.465, 163.233 180.088, 164.589 179.630, 165.927 179.124, 167.280 178.602, 168.672 178.087, 170.132 177.576, 171.656 177.091, 173.225 176.645, 174.835 176.274, 176.496 176.007, 178.225 175.892, 180.202 175.883, 181.985 175.883, 182.103 175.882, 182.204 175.882, 182.240 175.881, 182.386 175.881, 182.526 " />
            <path fill="none" stroke-width="3.0" stroke-linecap="butt" stroke-opacity="1.0" stroke="rgb(0, 0, 0)" stroke-linejoin="round" d=" M 154.865, 157.149 155.319, 157.583 155.384, 157.703 155.541, 157.995 155.551, 158.015 155.858, 158.586 " />
            <path fill="none" stroke-width="3.0" stroke-linecap="butt" stroke-opacity="1.0" stroke="rgb(0, 0, 0)" stroke-linejoin="round" d=" M 155.573, 158.141 155.749, 159.077 155.947, 160.070 156.062, 160.438 156.531, 161.273 156.750, 161.596 157.316, 162.207 158.011, 162.649 158.401, 162.795 158.919, 162.805 159.337, 162.583 159.663, 162.176 159.963, 161.943 " />
            <path fill="none" stroke-width="3.0" stroke-linecap="butt" stroke-opacity="1.0" stroke="rgb(0, 0, 0)" stroke-linejoin="round" d=" M 184.314, 286.069 184.942, 285.879 186.011, 285.809 187.163, 285.806 188.411, 285.858 189.273, 285.873 190.615, 285.879 191.969, 285.592 193.271, 285.064 194.071, 284.711 195.221, 283.866 196.105, 282.822 196.783, 281.814 197.262, 281.018 197.384, 280.815 197.778, 280.162 " />
            <path fill="none" stroke-width="3.0" stroke-linecap="butt" stroke-opacity="1.0" stroke="rgb(0, 0, 0)" stroke-linejoin="round" d=" M 197.384, 280.815 198.082, 280.412 198.957, 280.178 199.891, 280.203 200.867, 280.321 201.590, 280.145 202.457, 279.548 202.902, 279.048 203.149, 278.664 " />
            <path fill="none" stroke-width="3.0" stroke-linecap="butt" stroke-opacity="1.0" stroke="rgb(0, 0, 0)" stroke-linejoin="round" d=" M 190.135, 273.287 190.122, 273.342 " />
            <path fill="none" stroke-width="3.0" stroke-linecap="butt" stroke-opacity="1.0" stroke="rgb(0, 0, 0)" stroke-linejoin="round" d=" M 190.135, 273.287 190.023, 273.310 " />
            <path fill="none" stroke-width="3.0" stroke-linecap="butt" stroke-opacity="1.0" stroke="rgb(0, 0, 0)" stroke-linejoin="round" d=" M 191.850, 273.361 191.837, 273.348 191.829, 273.339 191.398, 272.887 190.810, 272.886 190.198, 273.212 189.998, 273.302 " />
            <path fill="none" stroke-width="3.0" stroke-linecap="butt" stroke-opacity="1.0" stroke="rgb(0, 0, 0)" stroke-linejoin="round" d=" M 192.151, 273.359 191.852, 273.341 191.829, 273.339 " />
            <path fill="none" stroke-width="3.0" stroke-linecap="butt" stroke-opacity="1.0" stroke="rgb(0, 0, 0)" stroke-linejoin="round" d=" M 192.814, 273.798 192.445, 273.543 192.387, 273.503 192.373, 273.493 192.280, 273.429 191.852, 273.362 191.850, 273.361 191.819, 273.356 191.639, 273.328 191.308, 273.275 190.864, 273.329 189.991, 273.491 189.524, 273.555 189.449, 273.566 " />
            <path fill="none" stroke-width="3.0" stroke-linecap="butt" stroke-opacity="1.0" stroke="rgb(0, 0, 0)" stroke-linejoin="round" d=" M 191.570, 273.678 192.000, 273.568 192.009, 273.566 192.094, 273.544 192.164, 273.501 192.190, 273.485 192.280, 273.429 " />
            <path fill="none" stroke-width="3.0" stroke-linecap="butt" stroke-opacity="1.0" stroke="rgb(0, 0, 0)" stroke-linejoin="round" d=" M 190.122, 273.342 190.048, 273.318 190.023, 273.310 189.998, 273.302 189.211, 273.050 188.551, 273.345 " />
            <path fill="none" stroke-width="3.0" stroke-linecap="butt" stroke-opacity="1.0" stroke="rgb(0, 0, 0)" stroke-linejoin="round" d=" M 192.854, 273.514 192.408, 273.495 192.373, 273.493 " />
            <path fill="none" stroke-width="3.0" stroke-linecap="butt" stroke-opacity="1.0" stroke="rgb(0, 0, 0)" stroke-linejoin="round" d=" M 194.884, 274.073 194.554, 273.654 194.312, 273.436 194.164, 273.302 193.665, 273.080 193.240, 272.996 192.915, 273.226 192.714, 273.369 192.408, 273.495 " />
            <path fill="none" stroke-width="3.0" stroke-linecap="butt" stroke-opacity="1.0" stroke="rgb(0, 0, 0)" stroke-linejoin="round" d=" M 189.203, 273.407 189.103, 273.397 189.056, 273.393 188.551, 273.345 188.116, 273.304 187.172, 273.532 " />
            <path fill="none" stroke-width="3.0" stroke-linecap="butt" stroke-opacity="1.0" stroke="rgb(0, 0, 0)" stroke-linejoin="round" d=" M 188.395, 273.561 188.016, 273.509 187.172, 273.532 186.865, 273.540 185.810, 273.797 185.686, 273.832 " />
            <path fill="none" stroke-width="3.0" stroke-linecap="butt" stroke-opacity="1.0" stroke="rgb(0, 0, 0)" stroke-linejoin="round" d=" M 197.273, 275.465 196.898, 275.562 196.429, 275.684 195.996, 275.757 195.884, 275.767 194.965, 275.856 194.035, 275.832 " />
            <path fill="none" stroke-width="3.0" stroke-linecap="butt" stroke-opacity="1.0" stroke="rgb(0, 0, 0)" stroke-linejoin="round" d=" M 194.892, 274.182 194.673, 274.129 194.374, 274.055 193.204, 273.789 193.173, 273.794 191.925, 273.968 191.176, 274.080 190.844, 274.094 190.600, 274.104 190.445, 274.110 189.627, 274.093 188.905, 274.078 " />
            <path fill="none" stroke-width="3.0" stroke-linecap="butt" stroke-opacity="1.0" stroke="rgb(0, 0, 0)" stroke-linejoin="round" d=" M 189.766, 274.161 189.620, 274.168 189.116, 274.193 188.412, 274.244 188.257, 274.255 " />
            <path fill="none" stroke-width="3.0" stroke-linecap="butt" stroke-opacity="1.0" stroke="rgb(0, 0, 0)" stroke-linejoin="round" d=" M 189.760, 273.576 189.530, 273.569 189.449, 273.566 188.937, 273.548 188.850, 273.545 188.628, 273.553 188.395, 273.561 188.191, 273.568 188.043, 273.573 187.686, 273.650 187.550, 273.680 187.308, 273.733 187.049, 273.790 " />
            <path fill="none" stroke-width="3.0" stroke-linecap="butt" stroke-opacity="1.0" stroke="rgb(0, 0, 0)" stroke-linejoin="round" d=" M 197.175, 274.384 196.801, 274.074 196.767, 274.046 196.228, 273.683 195.952, 273.559 195.753, 273.470 195.329, 273.662 194.969, 274.051 " />
            <path fill="none" stroke-width="3.0" stroke-linecap="butt" stroke-opacity="1.0" stroke="rgb(0, 0, 0)" stroke-linejoin="round" d=" M 195.158, 274.002 194.969, 274.051 194.884, 274.073 194.882, 274.074 194.673, 274.129 " />
            <path fill="none" stroke-width="3.0" stroke-linecap="butt" stroke-opacity="1.0" stroke="rgb(0, 0, 0)" stroke-linejoin="round" d=" M 197.596, 274.699 197.175, 274.384 197.112, 274.337 " />
            <path fill="none" stroke-width="3.0" stroke-linecap="butt" stroke-opacity="1.0" stroke="rgb(0, 0, 0)" stroke-linejoin="round" d=" M 147.980, 136.440 147.611, 137.121 147.249, 137.843 146.789, 138.873 146.700, 139.073 " />
            <path fill="none" stroke-width="3.0" stroke-linecap="butt" stroke-opacity="1.0" stroke="rgb(0, 0, 0)" stroke-linejoin="round" d=" M 146.789, 138.873 146.359, 139.805 146.071, 140.565 145.842, 141.338 145.521, 142.460 145.354, 143.193 145.225, 143.912 145.130, 144.602 144.998, 145.530 144.950, 145.926 144.927, 146.113 144.926, 146.122 144.926, 146.122 144.869, 146.672 " />
            <path fill="none" stroke-width="3.0" stroke-linecap="butt" stroke-opacity="1.0" stroke="rgb(0, 0, 0)" stroke-linejoin="round" d=" M 173.735, 219.463 173.535, 220.431 173.276, 221.552 172.985, 222.818 172.580, 224.168 172.018, 225.663 171.329, 227.268 170.588, 228.959 169.903, 230.712 169.319, 232.488 168.810, 234.257 168.362, 236.016 168.024, 237.779 167.773, 239.555 167.589, 241.335 167.522, 242.106 167.392, 243.895 167.369, 245.657 167.527, 247.350 167.624, 248.147 167.901, 249.755 168.283, 251.288 168.679, 252.804 169.022, 254.351 169.294, 255.951 169.505, 257.608 169.680, 259.303 169.852, 261.009 170.044, 262.703 170.264, 264.367 170.492, 265.996 170.605, 266.894 " />
            <path fill="none" stroke-width="3.0" stroke-linecap="butt" stroke-opacity="1.0" stroke="rgb(0, 0, 0)" stroke-linejoin="round" d=" M 206.975, 146.919 207.464, 147.453 " />
            <path fill="none" stroke-width="3.0" stroke-linecap="butt" stroke-opacity="1.0" stroke="rgb(0, 0, 0)" stroke-linejoin="round" d=" M 238.170, 205.137 238.454, 206.494 238.436, 207.107 238.411, 207.942 " />
            <path fill="none" stroke-width="3.0" stroke-linecap="butt" stroke-opacity="1.0" stroke="rgb(0, 0, 0)" stroke-linejoin="round" d=" M 238.436, 207.107 238.382, 207.769 238.404, 209.360 238.494, 209.990 " />
            <path fill="none" stroke-width="3.0" stroke-linecap="butt" stroke-opacity="1.0" stroke="rgb(0, 0, 0)" stroke-linejoin="round" d=" M 233.586, 199.522 234.365, 200.328 235.445, 201.522 236.467, 202.720 237.404, 203.918 238.170, 205.137 238.235, 205.240 " />
            <path fill="none" stroke-width="3.0" stroke-linecap="butt" stroke-opacity="1.0" stroke="rgb(0, 0, 0)" stroke-linejoin="round" d=" M 247.519, 222.450 247.679, 223.458 247.775, 224.652 248.162, 225.836 248.536, 227.017 248.588, 227.183 " />
            <path fill="none" stroke-width="3.0" stroke-linecap="butt" stroke-opacity="1.0" stroke="rgb(0, 0, 0)" stroke-linejoin="round" d=" M 248.536, 227.017 248.357, 228.065 248.544, 228.954 248.594, 229.166 248.804, 229.878 249.096, 230.377 249.195, 230.523 249.519, 230.784 249.898, 230.904 250.299, 230.986 250.446, 230.879 250.630, 230.745 " />
            <path fill="none" stroke-width="3.0" stroke-linecap="butt" stroke-opacity="1.0" stroke="rgb(0, 0, 0)" stroke-linejoin="round" d=" M 251.986, 225.166 251.834, 224.503 " />
            <path fill="none" stroke-width="3.0" stroke-linecap="butt" stroke-opacity="1.0" stroke="rgb(0, 0, 0)" stroke-linejoin="round" d=" M 251.067, 225.177 251.179, 225.422 251.525, 225.839 251.740, 226.083 252.102, 226.217 252.378, 226.358 252.579, 226.387 252.867, 226.368 253.138, 226.176 253.145, 226.165 253.301, 225.929 " />
            <path fill="none" stroke-width="3.0" stroke-linecap="butt" stroke-opacity="1.0" stroke="rgb(0, 0, 0)" stroke-linejoin="round" d=" M 216.204, 292.420 215.618, 292.170 215.538, 292.135 215.420, 292.085 215.390, 292.057 214.898, 291.592 " />
            <path fill="none" stroke-width="3.0" stroke-linecap="butt" stroke-opacity="1.0" stroke="rgb(0, 0, 0)" stroke-linejoin="round" d=" M 251.498, 211.394 251.348, 211.072 251.151, 210.832 " />
            <path fill="none" stroke-width="3.0" stroke-linecap="butt" stroke-opacity="1.0" stroke="rgb(0, 0, 0)" stroke-linejoin="round" d=" M 251.951, 213.798 251.962, 213.436 251.983, 212.679 251.498, 211.394 251.151, 210.832 251.086, 210.728 " />
            <path fill="none" stroke-width="3.0" stroke-linecap="butt" stroke-opacity="1.0" stroke="rgb(0, 0, 0)" stroke-linejoin="round" d=" M 188.219, 102.884 187.807, 103.561 187.416, 104.020 187.011, 104.496 " />
            <path fill="none" stroke-width="3.0" stroke-linecap="butt" stroke-opacity="1.0" stroke="rgb(0, 0, 0)" stroke-linejoin="round" d=" M 221.699, 293.117 221.493, 293.099 220.342, 292.999 219.208, 293.092 " />
            <path fill="none" stroke-width="3.0" stroke-linecap="butt" stroke-opacity="1.0" stroke="rgb(0, 0, 0)" stroke-linejoin="round" d=" M 235.274, 298.052 234.687, 298.053 " />
            <path fill="none" stroke-width="3.0" stroke-linecap="butt" stroke-opacity="1.0" stroke="rgb(0, 0, 0)" stroke-linejoin="round" d=" M 236.972, 298.634 236.984, 298.586 236.981, 298.064 236.910, 297.572 236.876, 297.038 236.469, 296.800 236.434, 296.780 " />
            <path fill="none" stroke-width="3.0" stroke-linecap="butt" stroke-opacity="1.0" stroke="rgb(0, 0, 0)" stroke-linejoin="round" d=" M 236.469, 296.800 236.326, 296.599 235.617, 296.731 235.575, 296.739 235.263, 296.762 234.942, 296.804 " />
            <path fill="none" stroke-width="3.0" stroke-linecap="butt" stroke-opacity="1.0" stroke="rgb(0, 0, 0)" stroke-linejoin="round" d=" M 236.434, 296.780 236.326, 296.599 " />
            <path fill="none" stroke-width="3.0" stroke-linecap="butt" stroke-opacity="1.0" stroke="rgb(0, 0, 0)" stroke-linejoin="round" d=" M 232.358, 294.465 231.979, 294.187 " />
            <path fill="none" stroke-width="3.0" stroke-linecap="butt" stroke-opacity="1.0" stroke="rgb(0, 0, 0)" stroke-linejoin="round" d=" M 232.536, 295.004 232.652, 295.031 232.652, 295.031 233.249, 295.171 233.282, 295.179 " />
            <path fill="none" stroke-width="3.0" stroke-linecap="butt" stroke-opacity="1.0" stroke="rgb(0, 0, 0)" stroke-linejoin="round" d=" M 222.313, 235.536 222.321, 235.486 222.546, 234.096 222.724, 232.687 222.878, 231.350 223.026, 230.097 223.182, 228.928 223.336, 227.899 " />
            <path fill="none" stroke-width="3.0" stroke-linecap="butt" stroke-opacity="1.0" stroke="rgb(0, 0, 0)" stroke-linejoin="round" d=" M 222.081, 237.011 222.197, 236.285 222.317, 235.515 " />
            <path fill="none" stroke-width="3.0" stroke-linecap="butt" stroke-opacity="1.0" stroke="rgb(0, 0, 0)" stroke-linejoin="round" d=" M 221.952, 237.893 221.960, 237.844 222.212, 236.261 222.317, 235.515 222.321, 235.486 " />
            <path fill="none" stroke-width="3.0" stroke-linecap="butt" stroke-opacity="1.0" stroke="rgb(0, 0, 0)" stroke-linejoin="round" d=" M 214.245, 285.196 214.259, 285.102 214.505, 283.356 214.775, 281.854 214.975, 280.276 215.162, 279.165 215.397, 278.156 215.821, 276.608 216.274, 275.069 216.732, 273.542 217.166, 272.024 217.566, 270.505 217.922, 268.977 218.230, 267.437 218.499, 265.883 218.736, 264.315 218.929, 262.732 219.025, 261.993 219.203, 260.418 219.338, 258.836 219.431, 257.247 219.485, 255.657 219.515, 254.063 219.528, 252.468 219.551, 250.874 219.597, 249.275 219.663, 247.988 " />
            <path fill="none" stroke-width="3.0" stroke-linecap="butt" stroke-opacity="1.0" stroke="rgb(0, 0, 0)" stroke-linejoin="round" d=" M 142.420, 169.180 142.623, 168.216 142.698, 167.018 142.632, 165.770 142.690, 164.664 142.720, 164.569 142.942, 163.847 143.104, 163.194 143.242, 162.600 143.406, 162.037 143.524, 161.563 " />
            <path fill="none" stroke-width="3.0" stroke-linecap="butt" stroke-opacity="1.0" stroke="rgb(0, 0, 0)" stroke-linejoin="round" d=" M 183.316, 273.962 183.157, 273.648 183.079, 273.492 182.981, 273.298 182.943, 273.224 182.652, 272.299 182.432, 271.214 182.267, 270.007 182.133, 268.710 182.062, 267.326 182.089, 265.854 182.081, 265.256 " />
            <path fill="none" stroke-width="3.0" stroke-linecap="butt" stroke-opacity="1.0" stroke="rgb(0, 0, 0)" stroke-linejoin="round" d=" M 182.046, 266.206 182.081, 265.256 182.104, 264.631 182.140, 263.656 " />
            <path fill="none" stroke-width="3.0" stroke-linecap="butt" stroke-opacity="1.0" stroke="rgb(0, 0, 0)" stroke-linejoin="round" d=" M 151.483, 149.226 151.594, 149.145 " />
            <path fill="none" stroke-width="3.0" stroke-linecap="butt" stroke-opacity="1.0" stroke="rgb(0, 0, 0)" stroke-linejoin="round" d=" M 187.597, 274.428 186.918, 274.221 186.914, 274.220 186.894, 274.213 186.767, 274.175 186.580, 274.110 186.575, 274.109 186.525, 274.091 185.912, 273.881 185.686, 273.832 185.091, 273.705 184.363, 273.502 183.037, 273.299 182.981, 273.298 " />
            <path fill="none" stroke-width="3.0" stroke-linecap="butt" stroke-opacity="1.0" stroke="rgb(0, 0, 0)" stroke-linejoin="round" d=" M 187.313, 273.775 187.049, 273.790 186.925, 273.796 186.141, 273.839 " />
            <path fill="none" stroke-width="3.0" stroke-linecap="butt" stroke-opacity="1.0" stroke="rgb(0, 0, 0)" stroke-linejoin="round" d=" M 150.360, 159.643 150.361, 159.502 150.363, 158.767 150.266, 158.158 " />
            <path fill="none" stroke-width="3.0" stroke-linecap="butt" stroke-opacity="1.0" stroke="rgb(0, 0, 0)" stroke-linejoin="round" d=" M 151.414, 165.399 151.328, 164.576 151.011, 163.604 151.006, 162.441 150.753, 161.285 150.510, 160.183 150.361, 159.502 " />
            <path fill="none" stroke-width="3.0" stroke-linecap="butt" stroke-opacity="1.0" stroke="rgb(0, 0, 0)" stroke-linejoin="round" d=" M 175.625, 183.660 175.437, 184.648 175.363, 185.315 175.366, 186.034 175.423, 187.026 175.465, 187.737 " />
            <path fill="none" stroke-width="3.0" stroke-linecap="butt" stroke-opacity="1.0" stroke="rgb(0, 0, 0)" stroke-linejoin="round" d=" M 175.423, 187.026 175.494, 188.438 175.537, 189.172 175.550, 189.394 175.581, 189.928 175.614, 190.692 " />
            <path fill="none" stroke-width="3.0" stroke-linecap="butt" stroke-opacity="1.0" stroke="rgb(0, 0, 0)" stroke-linejoin="round" d=" M 164.816, 137.815 164.833, 137.665 164.893, 137.163 165.108, 136.510 " />
            <path fill="none" stroke-width="3.0" stroke-linecap="butt" stroke-opacity="1.0" stroke="rgb(0, 0, 0)" stroke-linejoin="round" d=" M 164.678, 137.291 164.854, 136.969 164.857, 136.963 165.095, 136.528 165.108, 136.510 165.652, 135.741 166.357, 134.939 167.192, 134.138 168.114, 133.341 169.039, 132.515 169.912, 131.642 " />
            <path fill="none" stroke-width="3.0" stroke-linecap="butt" stroke-opacity="1.0" stroke="rgb(0, 0, 0)" stroke-linejoin="round" d=" M 147.198, 160.159 147.212, 160.464 147.311, 160.828 147.764, 161.868 148.022, 163.025 148.196, 164.151 148.381, 165.167 148.680, 165.912 148.766, 166.215 148.940, 166.765 149.175, 167.164 149.419, 167.394 149.757, 167.515 150.090, 167.537 150.445, 167.452 150.709, 167.313 151.036, 167.066 151.214, 166.795 151.395, 166.349 " />
            <path fill="none" stroke-width="3.0" stroke-linecap="butt" stroke-opacity="1.0" stroke="rgb(0, 0, 0)" stroke-linejoin="round" d=" M 158.239, 156.611 158.245, 156.304 158.256, 155.690 158.256, 154.892 158.234, 154.231 158.073, 153.548 157.700, 152.727 157.190, 151.973 156.553, 151.302 155.829, 150.693 155.095, 150.116 154.439, 149.492 153.790, 148.883 153.316, 148.447 " />
            <path fill="none" stroke-width="3.0" stroke-linecap="butt" stroke-opacity="1.0" stroke="rgb(0, 0, 0)" stroke-linejoin="round" d=" M 159.596, 160.664 159.583, 160.606 159.459, 160.043 159.308, 159.171 159.225, 158.726 159.066, 158.299 158.814, 157.789 158.340, 156.799 158.245, 156.304 " />
            <path fill="none" stroke-width="3.0" stroke-linecap="butt" stroke-opacity="1.0" stroke="rgb(0, 0, 0)" stroke-linejoin="round" d=" M 195.952, 273.559 195.878, 273.401 195.407, 273.248 195.200, 273.133 194.629, 273.374 194.312, 273.436 " />
            <path fill="none" stroke-width="3.0" stroke-linecap="butt" stroke-opacity="1.0" stroke="rgb(0, 0, 0)" stroke-linejoin="round" d=" M 201.414, 277.087 201.030, 276.538 200.474, 275.870 199.994, 275.399 199.979, 275.384 199.912, 275.319 199.858, 275.266 199.193, 274.741 199.068, 274.719 198.415, 274.605 197.566, 275.026 196.898, 275.562 " />
            <path fill="none" stroke-width="3.0" stroke-linecap="butt" stroke-opacity="1.0" stroke="rgb(0, 0, 0)" stroke-linejoin="round" d=" M 201.278, 277.417 201.964, 277.731 " />
            <path fill="none" stroke-width="3.0" stroke-linecap="butt" stroke-opacity="1.0" stroke="rgb(0, 0, 0)" stroke-linejoin="round" d=" M 192.915, 273.226 192.838, 273.130 192.259, 273.150 191.852, 273.341 " />
            <path fill="none" stroke-width="3.0" stroke-linecap="butt" stroke-opacity="1.0" stroke="rgb(0, 0, 0)" stroke-linejoin="round" d=" M 192.549, 273.179 192.838, 273.130 " />
            <path fill="none" stroke-width="3.0" stroke-linecap="butt" stroke-opacity="1.0" stroke="rgb(0, 0, 0)" stroke-linejoin="round" d=" M 207.332, 147.381 207.528, 147.534 " />
            <path fill="none" stroke-width="3.0" stroke-linecap="butt" stroke-opacity="1.0" stroke="rgb(0, 0, 0)" stroke-linejoin="round" d=" M 188.707, 101.571 188.557, 102.112 188.219, 102.884 188.041, 103.291 " />
            <path fill="none" stroke-width="3.0" stroke-linecap="butt" stroke-opacity="1.0" stroke="rgb(0, 0, 0)" stroke-linejoin="round" d=" M 188.473, 99.318 188.697, 99.913 188.786, 100.648 188.839, 101.094 188.841, 101.109 188.848, 101.173 " />
            <path fill="none" stroke-width="3.0" stroke-linecap="butt" stroke-opacity="1.0" stroke="rgb(0, 0, 0)" stroke-linejoin="round" d=" M 245.957, 230.806 245.657, 230.899 245.501, 230.903 245.829, 230.925 246.220, 230.745 246.374, 230.246 246.432, 230.153 246.507, 229.503 246.633, 228.778 246.849, 228.113 246.916, 227.894 247.094, 226.773 247.088, 225.669 " />
            <path fill="none" stroke-width="3.0" stroke-linecap="butt" stroke-opacity="1.0" stroke="rgb(0, 0, 0)" stroke-linejoin="round" d=" M 251.028, 229.565 251.032, 229.138 250.994, 228.454 251.119, 227.666 251.168, 226.648 251.136, 226.912 251.008, 227.890 " />
            <path fill="none" stroke-width="3.0" stroke-linecap="butt" stroke-opacity="1.0" stroke="rgb(0, 0, 0)" stroke-linejoin="round" d=" M 250.446, 230.879 250.658, 230.856 250.940, 230.554 250.965, 230.406 251.042, 229.883 251.028, 229.565 251.017, 229.295 " />
            <path fill="none" stroke-width="3.0" stroke-linecap="butt" stroke-opacity="1.0" stroke="rgb(0, 0, 0)" stroke-linejoin="round" d=" M 253.145, 226.165 253.228, 226.121 253.374, 225.922 253.454, 225.477 253.433, 225.223 253.413, 224.815 253.268, 224.275 253.174, 223.860 " />
            <path fill="none" stroke-width="3.0" stroke-linecap="butt" stroke-opacity="1.0" stroke="rgb(0, 0, 0)" stroke-linejoin="round" d=" M 253.088, 224.183 253.174, 223.860 253.194, 223.785 253.261, 223.533 " />
            <path fill="none" stroke-width="3.0" stroke-linecap="butt" stroke-opacity="1.0" stroke="rgb(0, 0, 0)" stroke-linejoin="round" d=" M 253.194, 223.785 253.418, 223.174 253.279, 222.264 253.207, 221.907 253.195, 221.861 " />
            <path fill="none" stroke-width="3.0" stroke-linecap="butt" stroke-opacity="1.0" stroke="rgb(0, 0, 0)" stroke-linejoin="round" d=" M 245.657, 230.899 245.586, 230.885 245.332, 230.834 245.100, 230.698 " />
            <path fill="none" stroke-width="3.0" stroke-linecap="butt" stroke-opacity="1.0" stroke="rgb(0, 0, 0)" stroke-linejoin="round" d=" M 204.530, 288.078 204.612, 289.013 204.636, 289.286 204.673, 289.700 204.690, 290.076 204.748, 291.306 204.776, 292.540 204.784, 292.896 " />
            <path fill="none" stroke-width="3.0" stroke-linecap="butt" stroke-opacity="1.0" stroke="rgb(0, 0, 0)" stroke-linejoin="round" d=" M 204.235, 286.017 204.449, 287.512 204.612, 289.013 " />
            <path fill="none" stroke-width="3.0" stroke-linecap="butt" stroke-opacity="1.0" stroke="rgb(0, 0, 0)" stroke-linejoin="round" d=" M 215.104, 291.960 215.073, 291.903 215.070, 291.898 214.898, 291.592 214.801, 291.421 " />
            <path fill="none" stroke-width="3.0" stroke-linecap="butt" stroke-opacity="1.0" stroke="rgb(0, 0, 0)" stroke-linejoin="round" d=" M 214.875, 291.685 214.841, 291.564 214.832, 291.530 214.801, 291.421 214.588, 290.658 214.503, 290.090 214.372, 288.807 214.271, 287.884 " />
            <path fill="none" stroke-width="3.0" stroke-linecap="butt" stroke-opacity="1.0" stroke="rgb(0, 0, 0)" stroke-linejoin="round" d=" M 202.842, 276.183 202.989, 277.330 203.149, 278.664 203.205, 279.136 203.284, 279.765 203.510, 281.504 203.763, 283.190 204.037, 284.835 204.235, 286.017 204.308, 286.457 " />
            <path fill="none" stroke-width="3.0" stroke-linecap="butt" stroke-opacity="1.0" stroke="rgb(0, 0, 0)" stroke-linejoin="round" d=" M 214.277, 287.990 214.271, 287.884 214.205, 286.590 214.259, 285.102 " />
            <path fill="none" stroke-width="3.0" stroke-linecap="butt" stroke-opacity="1.0" stroke="rgb(0, 0, 0)" stroke-linejoin="round" d=" M 196.645, 202.303 196.770, 202.545 197.114, 203.319 197.417, 204.107 197.539, 204.469 197.690, 204.915 " />
            <path fill="none" stroke-width="3.0" stroke-linecap="butt" stroke-opacity="1.0" stroke="rgb(0, 0, 0)" stroke-linejoin="round" d=" M 251.871, 215.305 251.961, 215.255 252.210, 214.916 252.411, 214.670 252.449, 214.463 252.349, 214.206 252.187, 213.884 251.962, 213.436 " />
            <path fill="none" stroke-width="3.0" stroke-linecap="butt" stroke-opacity="1.0" stroke="rgb(0, 0, 0)" stroke-linejoin="round" d=" M 233.293, 294.984 233.362, 294.524 233.274, 293.699 233.095, 293.248 233.001, 292.875 232.779, 292.599 232.344, 292.323 231.671, 292.046 230.686, 292.192 230.008, 292.494 " />
            <path fill="none" stroke-width="3.0" stroke-linecap="butt" stroke-opacity="1.0" stroke="rgb(0, 0, 0)" stroke-linejoin="round" d=" M 197.539, 204.469 197.641, 204.854 197.855, 205.738 198.062, 206.646 198.262, 207.574 198.458, 208.515 198.650, 209.466 198.704, 209.740 198.704, 209.740 198.704, 209.741 198.704, 209.742 198.706, 209.749 198.725, 209.847 198.837, 210.422 " />
            <path fill="none" stroke-width="3.0" stroke-linecap="butt" stroke-opacity="1.0" stroke="rgb(0, 0, 0)" stroke-linejoin="round" d=" M 198.725, 209.847 198.832, 210.504 198.979, 211.471 199.116, 212.440 199.240, 213.411 199.358, 214.384 199.472, 215.363 199.588, 216.348 199.710, 217.335 199.780, 217.850 199.845, 218.329 " />
            <path fill="none" stroke-width="3.0" stroke-linecap="butt" stroke-opacity="1.0" stroke="rgb(0, 0, 0)" stroke-linejoin="round" d=" M 204.071, 240.941 203.870, 241.811 203.458, 243.279 202.995, 244.916 202.546, 246.698 202.298, 247.768 201.877, 249.676 201.488, 251.600 201.184, 253.518 200.930, 255.421 200.755, 257.319 200.647, 259.217 200.607, 261.112 200.625, 262.102 200.642, 262.993 200.663, 263.988 200.778, 265.842 200.979, 267.642 201.275, 269.376 201.655, 271.057 202.076, 272.729 202.517, 274.422 202.681, 275.313 202.842, 276.183 202.842, 276.184 " />
            <path fill="none" stroke-width="3.0" stroke-linecap="butt" stroke-opacity="1.0" stroke="rgb(0, 0, 0)" stroke-linejoin="round" d=" M 199.780, 217.850 199.852, 218.426 199.999, 219.426 200.174, 220.423 200.377, 221.415 200.611, 222.398 200.861, 223.375 201.117, 224.347 201.372, 225.322 201.620, 226.308 201.857, 227.315 202.087, 228.352 202.313, 229.424 202.542, 230.534 202.779, 231.679 203.028, 232.857 203.282, 234.061 203.541, 235.280 203.793, 236.500 204.007, 237.695 204.145, 238.833 204.171, 239.938 204.071, 240.941 204.049, 241.164 " />
            <path fill="none" stroke-width="3.0" stroke-linecap="butt" stroke-opacity="1.0" stroke="rgb(0, 0, 0)" stroke-linejoin="round" d=" M 159.102, 119.930 158.641, 120.430 157.984, 121.145 156.273, 123.028 155.617, 123.789 155.021, 124.545 154.078, 125.823 153.552, 126.554 153.091, 127.269 152.651, 127.997 152.403, 128.416 152.363, 128.484 152.191, 128.775 " />
            <path fill="none" stroke-width="3.0" stroke-linecap="butt" stroke-opacity="1.0" stroke="rgb(0, 0, 0)" stroke-linejoin="round" d=" M 152.397, 128.425 152.191, 128.775 151.701, 129.621 " />
            <path fill="none" stroke-width="3.0" stroke-linecap="butt" stroke-opacity="1.0" stroke="rgb(0, 0, 0)" stroke-linejoin="round" d=" M 152.403, 128.416 152.397, 128.425 151.814, 129.348 151.227, 130.318 150.702, 131.252 150.230, 132.081 149.826, 132.793 149.500, 133.412 149.212, 133.974 148.926, 134.545 147.980, 136.440 147.970, 136.461 " />
            <path fill="none" stroke-width="3.0" stroke-linecap="butt" stroke-opacity="1.0" stroke="rgb(0, 0, 0)" stroke-linejoin="round" d=" M 140.083, 170.491 140.286, 170.671 140.449, 170.788 140.757, 170.854 140.890, 170.852 141.224, 170.793 141.355, 170.716 141.713, 170.481 141.833, 170.340 142.064, 170.048 " />
            <path fill="none" stroke-width="3.0" stroke-linecap="butt" stroke-opacity="1.0" stroke="rgb(0, 0, 0)" stroke-linejoin="round" d=" M 142.159, 169.890 142.420, 169.180 142.342, 169.376 142.064, 170.048 142.159, 169.890 " />
            <path fill="none" stroke-width="3.0" stroke-linecap="butt" stroke-opacity="1.0" stroke="rgb(0, 0, 0)" stroke-linejoin="round" d=" M 142.803, 166.427 142.736, 166.953 142.675, 167.428 142.769, 168.162 142.718, 168.716 142.720, 169.194 142.926, 169.547 142.972, 169.624 143.179, 169.790 143.498, 169.866 143.807, 169.864 144.124, 169.815 144.461, 169.667 144.745, 169.414 144.980, 169.054 145.097, 168.850 145.331, 168.252 145.512, 167.445 145.533, 167.174 145.475, 166.140 145.653, 165.301 145.569, 165.606 145.260, 166.613 " />
            <path fill="none" stroke-width="3.0" stroke-linecap="butt" stroke-opacity="1.0" stroke="rgb(0, 0, 0)" stroke-linejoin="round" d=" M 184.039, 274.227 183.527, 273.887 183.079, 273.492 " />
            <path fill="none" stroke-width="3.0" stroke-linecap="butt" stroke-opacity="1.0" stroke="rgb(0, 0, 0)" stroke-linejoin="round" d=" M 170.842, 269.237 170.904, 270.718 170.890, 272.214 170.863, 274.089 170.859, 275.469 170.849, 277.165 170.849, 277.224 " />
            <path fill="none" stroke-width="3.0" stroke-linecap="butt" stroke-opacity="1.0" stroke="rgb(0, 0, 0)" stroke-linejoin="round" d=" M 142.720, 164.569 142.746, 165.045 142.705, 166.167 142.736, 166.953 " />
            <path fill="none" stroke-width="3.0" stroke-linecap="butt" stroke-opacity="1.0" stroke="rgb(0, 0, 0)" stroke-linejoin="round" d=" M 175.550, 189.394 175.549, 190.033 175.526, 190.845 175.481, 191.653 175.424, 192.457 175.355, 193.243 175.353, 193.259 175.270, 194.062 " />
            <path fill="none" stroke-width="3.0" stroke-linecap="butt" stroke-opacity="1.0" stroke="rgb(0, 0, 0)" stroke-linejoin="round" d=" M 175.355, 193.243 175.309, 193.629 175.205, 194.467 175.101, 195.313 174.999, 196.169 174.904, 197.034 174.809, 197.904 174.718, 198.782 174.634, 199.662 174.558, 200.542 174.452, 201.714 174.389, 202.419 174.384, 202.466 174.381, 202.503 " />
            <path fill="none" stroke-width="3.0" stroke-linecap="butt" stroke-opacity="1.0" stroke="rgb(0, 0, 0)" stroke-linejoin="round" d=" M 151.395, 166.349 151.428, 166.027 151.414, 165.399 151.422, 165.734 151.395, 166.349 " />
            <path fill="none" stroke-width="3.0" stroke-linecap="butt" stroke-opacity="1.0" stroke="rgb(0, 0, 0)" stroke-linejoin="round" d=" M 159.583, 160.606 159.643, 160.740 159.804, 161.079 159.958, 161.416 160.048, 161.780 159.963, 161.943 159.993, 161.628 159.985, 161.578 159.958, 161.416 " />
            <path fill="none" stroke-width="3.0" stroke-linecap="butt" stroke-opacity="1.0" stroke="rgb(0, 0, 0)" stroke-linejoin="round" d=" M 200.674, 275.217 200.542, 275.235 199.912, 275.319 " />
            <path fill="none" stroke-width="3.0" stroke-linecap="butt" stroke-opacity="1.0" stroke="rgb(0, 0, 0)" stroke-linejoin="round" d=" M 202.681, 275.313 202.291, 275.117 201.871, 275.025 201.377, 275.061 200.542, 275.235 " />
            <path fill="none" stroke-width="3.0" stroke-linecap="butt" stroke-opacity="1.0" stroke="rgb(0, 0, 0)" stroke-linejoin="round" d=" M 199.068, 274.719 198.920, 274.146 198.377, 273.740 198.151, 273.744 197.395, 273.865 196.801, 274.074 " />
            <path fill="none" stroke-width="3.0" stroke-linecap="butt" stroke-opacity="1.0" stroke="rgb(0, 0, 0)" stroke-linejoin="round" d=" M 174.221, 203.946 174.081, 205.069 173.964, 205.935 173.853, 206.818 173.770, 207.719 173.736, 208.627 173.703, 210.555 173.703, 211.431 173.735, 212.298 173.785, 213.155 173.854, 214.006 173.937, 215.647 173.939, 216.405 173.932, 217.170 173.909, 217.966 173.735, 219.463 173.732, 219.491 " />
            <path fill="none" stroke-width="3.0" stroke-linecap="butt" stroke-opacity="1.0" stroke="rgb(0, 0, 0)" stroke-linejoin="round" d=" M 250.630, 230.745 250.658, 230.856 " />
            <path fill="none" stroke-width="3.0" stroke-linecap="butt" stroke-opacity="1.0" stroke="rgb(0, 0, 0)" stroke-linejoin="round" d=" M 182.017, 265.040 182.066, 264.488 182.071, 264.439 182.140, 263.656 182.163, 263.396 182.283, 261.719 182.396, 260.632 " />
            <path fill="none" stroke-width="3.0" stroke-linecap="butt" stroke-opacity="1.0" stroke="rgb(0, 0, 0)" stroke-linejoin="round" d=" M 182.290, 261.280 182.396, 260.632 182.548, 259.699 182.850, 258.151 183.189, 256.650 183.562, 255.199 183.943, 253.876 " />
            <path fill="none" stroke-width="3.0" stroke-linecap="butt" stroke-opacity="1.0" stroke="rgb(0, 0, 0)" stroke-linejoin="round" d=" M 183.722, 254.513 183.943, 253.876 184.216, 253.087 184.816, 251.653 185.509, 250.185 186.232, 248.644 186.471, 248.127 187.186, 246.553 187.787, 244.882 188.253, 243.162 188.612, 241.441 188.906, 239.749 189.194, 238.107 189.600, 236.119 189.953, 234.581 190.267, 233.066 190.520, 231.574 190.686, 230.103 190.941, 228.742 " />
            <path fill="none" stroke-width="3.0" stroke-linecap="butt" stroke-opacity="1.0" stroke="rgb(0, 0, 0)" stroke-linejoin="round" d=" M 170.552, 266.440 170.605, 266.894 170.720, 267.876 170.738, 268.033 170.793, 268.671 170.842, 269.237 170.873, 269.600 " />
            <path fill="none" stroke-width="3.0" stroke-linecap="butt" stroke-opacity="1.0" stroke="rgb(0, 0, 0)" stroke-linejoin="round" d=" M 192.849, 225.171 192.893, 225.054 192.932, 224.946 193.200, 224.222 193.293, 223.972 193.642, 222.830 194.000, 221.742 194.396, 220.678 194.826, 219.623 195.273, 218.575 195.716, 217.537 196.147, 216.519 196.570, 215.520 196.972, 214.538 197.352, 213.571 197.709, 212.623 198.047, 211.689 " />
            <path fill="none" stroke-width="3.0" stroke-linecap="butt" stroke-opacity="1.0" stroke="rgb(0, 0, 0)" stroke-linejoin="round" d=" M 192.197, 226.473 192.745, 225.380 192.849, 225.171 193.088, 224.624 193.200, 224.222 " />
            <path fill="none" stroke-width="3.0" stroke-linecap="butt" stroke-opacity="1.0" stroke="rgb(0, 0, 0)" stroke-linejoin="round" d=" M 198.662, 209.870 198.704, 209.741 " />
            <path fill="none" stroke-width="3.0" stroke-linecap="butt" stroke-opacity="1.0" stroke="rgb(0, 0, 0)" stroke-linejoin="round" d=" M 198.366, 210.772 198.047, 211.689 198.303, 210.959 198.616, 210.029 " />
            <path fill="none" stroke-width="3.0" stroke-linecap="butt" stroke-opacity="1.0" stroke="rgb(0, 0, 0)" stroke-linejoin="round" d=" M 198.704, 209.742 198.662, 209.870 198.468, 210.462 198.366, 210.772 198.616, 210.029 198.706, 209.749 " />
            <path fill="none" stroke-width="3.0" stroke-linecap="butt" stroke-opacity="1.0" stroke="rgb(0, 0, 0)" stroke-linejoin="round" d=" M 190.786, 229.064 190.941, 228.742 191.419, 227.748 192.197, 226.473 192.473, 225.980 192.745, 225.380 " />
            <path fill="none" stroke-width="3.0" stroke-linecap="butt" stroke-opacity="1.0" stroke="rgb(0, 0, 0)" stroke-linejoin="round" d=" M 142.687, 161.640 142.962, 161.598 " />
            <path fill="none" stroke-width="3.0" stroke-linecap="butt" stroke-opacity="1.0" stroke="rgb(0, 0, 0)" stroke-linejoin="round" d=" M 145.001, 160.824 145.024, 160.825 " />
            <path fill="none" stroke-width="3.0" stroke-linecap="butt" stroke-opacity="1.0" stroke="rgb(0, 0, 0)" stroke-linejoin="round" d=" M 144.927, 146.113 144.899, 146.181 " />
            <path fill="none" stroke-width="3.0" stroke-linecap="butt" stroke-opacity="1.0" stroke="rgb(0, 0, 0)" stroke-linejoin="round" d=" M 155.384, 157.703 155.573, 158.141 155.655, 158.331 " />
            <path fill="none" stroke-width="3.0" stroke-linecap="butt" stroke-opacity="1.0" stroke="rgb(0, 0, 0)" stroke-linejoin="round" d=" M 159.257, 119.628 159.102, 119.930 159.081, 119.972 159.076, 119.982 159.071, 119.991 159.043, 120.047 158.859, 120.407 " />
            <path fill="none" stroke-width="3.0" stroke-linecap="butt" stroke-opacity="1.0" stroke="rgb(0, 0, 0)" stroke-linejoin="round" d=" M 159.071, 119.991 158.980, 120.125 " />
            <path fill="none" stroke-width="3.0" stroke-linecap="butt" stroke-opacity="1.0" stroke="rgb(0, 0, 0)" stroke-linejoin="round" d=" M 159.081, 119.972 158.362, 120.840 " />
            <path fill="none" stroke-width="3.0" stroke-linecap="butt" stroke-opacity="1.0" stroke="rgb(0, 0, 0)" stroke-linejoin="round" d=" M 170.720, 267.876 170.793, 268.671 " />
            <path fill="none" stroke-width="3.0" stroke-linecap="butt" stroke-opacity="1.0" stroke="rgb(0, 0, 0)" stroke-linejoin="round" d=" M 172.201, 136.642 172.781, 138.309 172.791, 138.338 " />
            <path fill="none" stroke-width="3.0" stroke-linecap="butt" stroke-opacity="1.0" stroke="rgb(0, 0, 0)" stroke-linejoin="round" d=" M 174.336, 202.894 174.221, 203.946 174.191, 204.212 " />
            <path fill="none" stroke-width="3.0" stroke-linecap="butt" stroke-opacity="1.0" stroke="rgb(0, 0, 0)" stroke-linejoin="round" d=" M 174.452, 201.714 174.336, 202.894 174.291, 203.358 " />
            <path fill="none" stroke-width="3.0" stroke-linecap="butt" stroke-opacity="1.0" stroke="rgb(0, 0, 0)" stroke-linejoin="round" d=" M 175.830, 182.498 175.625, 183.660 175.559, 184.032 " />
            <path fill="none" stroke-width="3.0" stroke-linecap="butt" stroke-opacity="1.0" stroke="rgb(0, 0, 0)" stroke-linejoin="round" d=" M 175.883, 181.985 175.869, 182.208 175.861, 182.323 175.854, 182.429 175.819, 182.968 " />
            <path fill="none" stroke-width="3.0" stroke-linecap="butt" stroke-opacity="1.0" stroke="rgb(0, 0, 0)" stroke-linejoin="round" d=" M 175.869, 182.208 175.830, 182.498 175.794, 182.775 175.793, 182.776 175.701, 183.472 " />
            <path fill="none" stroke-width="3.0" stroke-linecap="butt" stroke-opacity="1.0" stroke="rgb(0, 0, 0)" stroke-linejoin="round" d=" M 182.647, 286.931 183.269, 286.542 183.854, 286.178 " />
            <path fill="none" stroke-width="3.0" stroke-linecap="butt" stroke-opacity="1.0" stroke="rgb(0, 0, 0)" stroke-linejoin="round" d=" M 183.269, 286.542 184.314, 286.069 184.829, 285.836 " />
            <path fill="none" stroke-width="3.0" stroke-linecap="butt" stroke-opacity="1.0" stroke="rgb(0, 0, 0)" stroke-linejoin="round" d=" M 185.075, 105.027 184.334, 105.017 183.600, 105.008 " />
            <path fill="none" stroke-width="3.0" stroke-linecap="butt" stroke-opacity="1.0" stroke="rgb(0, 0, 0)" stroke-linejoin="round" d=" M 185.645, 104.984 185.075, 105.027 184.538, 105.066 " />
            <path fill="none" stroke-width="3.0" stroke-linecap="butt" stroke-opacity="1.0" stroke="rgb(0, 0, 0)" stroke-linejoin="round" d=" M 186.338, 104.797 185.645, 104.984 185.529, 105.016 " />
            <path fill="none" stroke-width="3.0" stroke-linecap="butt" stroke-opacity="1.0" stroke="rgb(0, 0, 0)" stroke-linejoin="round" d=" M 188.786, 100.648 188.707, 101.571 188.698, 101.673 " />
            <path fill="none" stroke-width="3.0" stroke-linecap="butt" stroke-opacity="1.0" stroke="rgb(0, 0, 0)" stroke-linejoin="round" d=" M 204.636, 289.286 204.690, 290.076 " />
            <path fill="none" stroke-width="3.0" stroke-linecap="butt" stroke-opacity="1.0" stroke="rgb(0, 0, 0)" stroke-linejoin="round" d=" M 204.776, 292.540 204.767, 293.550 204.767, 293.568 204.767, 293.584 204.764, 293.941 " />
            <path fill="none" stroke-width="3.0" stroke-linecap="butt" stroke-opacity="1.0" stroke="rgb(0, 0, 0)" stroke-linejoin="round" d=" M 204.767, 293.550 204.763, 293.593 204.697, 294.226 " />
            <path fill="none" stroke-width="3.0" stroke-linecap="butt" stroke-opacity="1.0" stroke="rgb(0, 0, 0)" stroke-linejoin="round" d=" M 206.645, 114.510 206.410, 114.063 " />
            <path fill="none" stroke-width="3.0" stroke-linecap="butt" stroke-opacity="1.0" stroke="rgb(0, 0, 0)" stroke-linejoin="round" d=" M 206.550, 95.259 206.847, 94.841 207.006, 94.619 " />
            <path fill="none" stroke-width="3.0" stroke-linecap="butt" stroke-opacity="1.0" stroke="rgb(0, 0, 0)" stroke-linejoin="round" d=" M 215.618, 292.170 215.556, 292.139 215.390, 292.057 " />
            <path fill="none" stroke-width="3.0" stroke-linecap="butt" stroke-opacity="1.0" stroke="rgb(0, 0, 0)" stroke-linejoin="round" d=" M 223.616, 293.851 223.382, 293.782 " />
            <path fill="none" stroke-width="3.0" stroke-linecap="butt" stroke-opacity="1.0" stroke="rgb(0, 0, 0)" stroke-linejoin="round" d=" M 230.376, 295.858 230.299, 295.716 " />
            <path fill="none" stroke-width="3.0" stroke-linecap="butt" stroke-opacity="1.0" stroke="rgb(0, 0, 0)" stroke-linejoin="round" d=" M 244.018, 220.218 244.042, 220.275 " />
            <path fill="none" stroke-width="3.0" stroke-linecap="butt" stroke-opacity="1.0" stroke="rgb(0, 0, 0)" stroke-linejoin="round" d=" M 244.179, 219.914 244.211, 219.866 244.224, 219.846 " />
            <path fill="none" stroke-width="3.0" stroke-linecap="butt" stroke-opacity="1.0" stroke="rgb(0, 0, 0)" stroke-linejoin="round" d=" M 247.445, 222.308 247.519, 222.450 247.591, 222.590 " />
            <path fill="none" stroke-width="3.0" stroke-linecap="butt" stroke-opacity="1.0" stroke="rgb(0, 0, 0)" stroke-linejoin="round" d=" M 250.584, 208.221 250.558, 207.393 " />
        </g>
    </g>
</svg>
