<?xml version='1.0' encoding='ascii'?>
<svg xmlns="http://www.w3.org/2000/svg" xmlns:inkscape="http://www.inkscape.org/namespaces/inkscape" version="1.1" width="400" height="400">
    <g id="ViewLayer_LineSet" inkscape:groupmode="lineset" inkscape:label="ViewLayer_LineSet">
        <g xmlns:inkscape="http://www.inkscape.org/namespaces/inkscape" inkscape:groupmode="layer" inkscape:label="fills" id="fills">
            <path fill_rule="evenodd" stroke="none" fill-opacity="1.0" fill="rgb(255, 255, 255)" d=" M 229.139, 133.805 229.641, 132.791 230.175, 131.673 231.058, 132.560 231.985, 133.387 232.912, 134.180 233.754, 134.975 234.467, 135.769 235.029, 136.543 235.239, 137.169 235.300, 137.693 235.322, 138.417 235.484, 138.888 235.944, 140.112 236.174, 140.699 237.345, 142.473 237.763, 143.022 238.236, 143.519 239.386, 144.597 239.932, 145.101 240.585, 145.559 242.593, 146.679 243.379, 147.051 245.375, 147.882 246.169, 148.193 246.814, 148.453 246.340, 148.889 245.691, 149.498 245.036, 150.122 244.301, 150.699 243.578, 151.308 242.941, 151.979 242.431, 152.733 242.058, 153.555 241.897, 154.237 241.876, 154.897 241.876, 155.696 241.887, 156.307 241.792, 156.806 241.317, 157.795 241.063, 158.305 240.906, 158.732 240.823, 159.177 240.672, 160.049 240.547, 160.612 240.488, 160.746 240.304, 161.137 240.173, 161.422 240.086, 161.785 240.164, 161.951 240.471, 162.178 240.793, 162.590 241.212, 162.811 241.729, 162.802 242.120, 162.655 242.815, 162.213 243.381, 161.603 243.600, 161.279 244.069, 160.445 244.184, 160.076 244.382, 159.083 244.557, 158.149 244.749, 157.706 244.812, 157.589 245.265, 157.156 245.992, 157.129 246.259, 157.134 247.115, 157.125 248.378, 157.280 249.083, 157.543 249.810, 158.121 249.865, 158.164 249.768, 158.773 249.770, 159.508 249.620, 160.190 249.377, 161.291 249.124, 162.447 249.121, 163.610 248.803, 164.582 248.718, 165.405 248.709, 165.740 248.710, 165.760 248.704, 166.034 248.737, 166.356 248.916, 166.801 249.095, 167.072 249.422, 167.319 249.685, 167.459 250.040, 167.542 250.373, 167.521 250.711, 167.400 250.956, 167.170 251.191, 166.772 251.365, 166.221 251.450, 165.918 251.748, 165.172 251.935, 164.157 252.109, 163.031 252.366, 161.874 252.819, 160.834 252.919, 160.470 252.933, 160.165 253.109, 160.278 253.604, 160.583 253.611, 160.588 253.724, 160.779 253.792, 161.083 253.919, 161.672 254.062, 162.340 254.196, 163.176 254.393, 164.188 254.478, 165.308 254.658, 166.146 254.598, 167.180 254.619, 167.451 254.799, 168.258 255.034, 168.856 255.150, 169.060 255.386, 169.420 255.669, 169.673 256.006, 169.821 256.324, 169.872 256.633, 169.874 256.952, 169.796 257.157, 169.631 257.206, 169.553 257.411, 169.200 257.414, 168.723 257.367, 168.168 257.452, 167.433 257.395, 166.971 257.426, 166.173 257.384, 165.052 257.411, 164.576 257.440, 164.671 257.498, 165.776 257.434, 167.024 257.508, 168.222 257.711, 169.186 257.972, 169.896 258.066, 170.055 258.297, 170.346 258.419, 170.486 258.775, 170.722 258.908, 170.798 259.241, 170.859 259.374, 170.860 259.681, 170.792 259.844, 170.677 260.047, 170.498 260.344, 170.604 260.537, 170.651 260.947, 170.664 261.170, 170.606 261.252, 170.567 261.416, 170.514 261.453, 170.470 261.446, 169.973 261.383, 169.239 261.586, 168.385 261.586, 167.291 261.624, 165.975 261.921, 164.568 261.941, 164.393 262.047, 163.122 262.011, 162.876 261.704, 161.739 261.442, 160.385 261.424, 159.108 261.361, 158.639 260.788, 157.492 259.903, 156.150 259.554, 155.154 259.134, 154.156 258.332, 152.652 257.653, 151.578 256.823, 149.993 256.320, 148.958 256.144, 148.601 256.192, 147.890 255.994, 147.216 255.652, 146.660 255.191, 145.952 255.140, 145.538 255.006, 144.611 254.909, 143.921 254.779, 143.204 254.611, 142.471 254.395, 141.735 254.050, 140.582 253.767, 139.818 253.432, 139.081 252.874, 137.857 252.519, 137.130 252.164, 136.467 251.205, 134.551 250.919, 133.979 250.635, 133.414 250.312, 132.796 249.915, 132.081 249.448, 131.247 248.920, 130.311 248.328, 129.344 247.743, 128.423 247.739, 128.417 247.490, 127.999 247.047, 127.271 246.585, 126.556 246.057, 125.827 245.114, 124.548 244.517, 123.793 243.860, 123.034 242.146, 121.151 241.491, 120.436 241.028, 119.936 240.926, 119.735 240.853, 119.514 240.731, 118.787 240.667, 117.864 240.518, 116.921 240.181, 115.769 239.832, 114.794 239.319, 113.892 238.501, 112.794 237.851, 111.958 237.125, 111.205 236.094, 110.159 235.349, 109.441 233.402, 107.790 231.248, 106.393 228.949, 105.318 226.577, 104.612 224.995, 104.429 224.176, 104.361 222.584, 104.424 221.813, 104.492 219.845, 104.796 219.682, 104.809 218.976, 104.833 218.221, 104.853 217.408, 104.921 215.814, 105.022 215.049, 105.032 214.487, 104.990 213.789, 104.799 213.412, 104.601 212.712, 104.023 212.324, 103.567 211.909, 102.885 211.574, 102.118 211.424, 101.575 211.347, 100.658 211.437, 99.920 211.662, 99.327 212.224, 98.452 212.938, 97.399 213.575, 96.231 214.090, 94.929 214.389, 94.099 214.744, 92.681 214.936, 91.180 214.949, 88.936 214.828, 87.439 214.560, 85.950 214.130, 84.486 213.551, 83.053 212.830, 81.670 211.926, 80.255 211.071, 79.031 210.132, 77.885 209.136, 76.903 208.331, 76.263 207.908, 75.993 206.959, 75.425 206.129, 75.058 205.041, 74.637 204.043, 74.397 202.853, 74.163 201.755, 74.053 200.503, 74.002 199.356, 74.056 198.087, 74.240 196.954, 74.500 195.742, 74.947 194.720, 75.459 193.576, 76.056 192.478, 76.743 191.495, 77.582 190.728, 78.418 190.024, 79.442 189.476, 80.427 188.879, 81.368 188.353, 82.154 187.878, 82.903 187.608, 83.277 187.075, 84.058 186.806, 85.080 186.774, 86.198 186.902, 87.287 187.173, 88.314 187.481, 89.238 187.497, 89.744 187.221, 90.273 186.976, 91.435 187.071, 92.851 187.392, 93.911 187.370, 94.230 187.632, 95.633 188.102, 97.092 188.502, 98.153 188.629, 98.560 188.899, 99.307 189.238, 100.085 189.462, 100.439 189.831, 100.811 190.793, 101.494 191.525, 102.037 192.225, 102.617 193.225, 103.672 193.812, 104.680 193.955, 105.036 194.178, 105.957 194.209, 106.104 194.255, 107.356 194.288, 108.657 194.254, 109.286 194.188, 110.464 194.160, 112.012 194.052, 113.042 193.727, 114.057 193.483, 114.527 193.143, 114.948 192.491, 115.548 191.561, 116.258 190.827, 116.825 189.878, 117.556 189.015, 118.320 188.177, 119.126 187.294, 120.066 186.520, 120.954 185.612, 122.048 184.700, 123.217 183.901, 124.222 183.016, 125.361 182.553, 125.898 182.067, 126.389 180.849, 127.704 180.504, 128.120 179.272, 129.548 178.164, 131.032 177.232, 132.551 176.141, 134.685 175.521, 136.272 175.111, 137.899 174.733, 139.527 174.527, 141.034 174.476, 141.554 174.411, 142.586 174.289, 143.572 173.986, 144.684 173.557, 145.800 173.101, 146.497 172.436, 147.804 171.835, 149.179 171.243, 150.585 170.712, 151.944 170.512, 152.442 169.981, 153.967 169.518, 155.557 169.113, 157.212 168.725, 158.942 168.330, 160.771 167.999, 162.700 167.813, 164.650 167.785, 166.530 167.894, 168.242 168.028, 169.701 167.941, 170.770 167.686, 171.776 167.300, 172.674 166.782, 173.524 166.102, 174.406 165.027, 175.639 164.061, 176.820 163.138, 178.127 162.305, 179.517 161.592, 180.957 161.006, 182.429 160.534, 183.916 160.146, 185.407 159.812, 186.804 159.448, 188.052 158.995, 189.558 158.498, 191.039 157.868, 192.560 157.101, 194.111 156.364, 195.604 155.723, 196.936 155.020, 198.540 154.906, 198.845 154.474, 200.119 153.935, 201.149 153.556, 201.759 152.757, 202.519 152.000, 203.245 151.332, 203.930 150.817, 204.534 150.363, 204.998 149.551, 206.308 149.546, 206.785 149.348, 207.390 149.315, 208.094 149.487, 208.700 149.158, 210.202 149.045, 210.734 148.985, 210.831 148.781, 211.077 148.632, 211.400 148.147, 212.685 148.171, 213.439 147.944, 213.890 147.782, 214.212 147.682, 214.469 147.720, 214.676 147.921, 214.922 148.169, 215.261 148.261, 215.312 148.086, 216.189 147.978, 216.569 147.890, 216.839 147.461, 217.773 147.199, 218.754 147.102, 219.144 147.114, 220.168 147.067, 221.238 146.938, 221.859 146.924, 221.913 146.852, 222.271 146.712, 223.180 146.937, 223.792 146.956, 223.865 146.861, 224.282 146.718, 224.821 146.697, 225.229 146.673, 225.484 146.755, 225.930 146.903, 226.128 146.985, 226.171 146.993, 226.182 147.261, 226.381 147.552, 226.394 147.752, 226.364 148.029, 226.223 148.390, 226.089 148.606, 225.846 148.955, 225.430 149.064, 225.188 149.058, 225.425 148.965, 226.654 149.015, 227.671 149.139, 228.460 149.099, 229.144 149.103, 229.581 149.089, 229.890 149.165, 230.412 149.192, 230.559 149.474, 230.862 149.685, 230.885 149.832, 230.992 150.231, 230.911 150.612, 230.790 150.937, 230.531 151.035, 230.383 151.327, 229.884 151.537, 229.172 151.586, 228.960 151.772, 228.071 151.595, 227.023 151.967, 225.841 152.356, 224.658 152.452, 223.464 152.611, 222.461 152.686, 222.317 152.679, 222.801 152.524, 223.677 152.709, 224.692 152.757, 224.951 153.043, 225.676 153.036, 226.779 153.215, 227.900 153.283, 228.117 153.497, 228.784 153.624, 229.509 153.698, 230.159 153.757, 230.252 153.912, 230.750 154.301, 230.936 154.629, 230.910 154.924, 230.857 155.340, 230.642 155.579, 230.346 155.692, 230.187 155.835, 229.729 155.870, 229.550 155.924, 228.842 155.829, 227.701 155.745, 226.570 155.607, 225.409 155.423, 224.521 155.645, 223.658 155.766, 222.894 155.850, 222.182 155.935, 221.501 156.047, 220.865 156.125, 220.247 156.137, 220.270 156.378, 220.854 156.451, 221.142 156.452, 221.145 156.569, 222.341 157.079, 223.514 157.746, 224.553 158.184, 225.591 158.611, 226.420 158.944, 226.857 159.207, 227.279 159.383, 227.689 159.619, 228.069 159.839, 228.316 160.206, 228.449 160.550, 228.369 160.805, 228.192 161.043, 228.036 161.196, 227.709 161.322, 227.396 161.493, 227.005 161.485, 226.640 161.437, 226.134 161.146, 225.391 160.979, 225.149 160.591, 224.588 160.069, 223.689 159.690, 222.667 159.303, 221.687 159.222, 220.647 159.116, 219.596 159.319, 218.459 159.540, 217.225 159.689, 215.879 160.263, 214.476 160.997, 212.961 161.494, 211.254 161.639, 209.977 161.726, 209.367 161.748, 207.775 161.695, 207.111 161.677, 206.501 161.961, 205.143 162.727, 203.924 163.663, 202.726 164.687, 201.530 165.768, 200.335 166.516, 199.559 166.794, 199.277 167.959, 198.104 169.113, 196.907 170.234, 195.675 171.322, 194.418 172.365, 193.147 173.350, 191.868 174.264, 190.589 174.480, 190.266 175.356, 188.941 176.138, 187.614 176.826, 186.276 177.350, 185.230 178.123, 184.022 179.033, 182.606 179.597, 181.676 179.275, 182.800 178.872, 184.085 178.453, 185.397 178.373, 185.656 178.188, 186.208 177.793, 187.489 177.445, 188.755 177.144, 190.012 176.886, 191.267 176.664, 192.519 176.352, 194.379 176.161, 195.638 175.999, 196.899 175.868, 198.157 175.766, 199.394 175.688, 200.602 175.588, 202.534 175.550, 203.700 175.549, 204.842 175.555, 205.965 175.565, 207.074 175.576, 208.174 175.587, 209.271 175.599, 210.369 175.610, 211.470 175.621, 212.572 175.631, 213.668 175.645, 214.753 175.663, 215.827 175.690, 216.887 175.732, 217.931 175.790, 218.957 175.907, 220.810 175.963, 221.812 176.035, 222.805 176.133, 223.793 176.267, 224.777 176.436, 225.772 176.730, 227.534 176.790, 227.898 176.950, 228.931 177.120, 230.097 177.289, 231.339 177.479, 232.660 177.700, 234.047 177.820, 234.780 177.898, 235.481 177.951, 236.253 178.154, 237.528 178.231, 239.148 178.500, 239.867 178.861, 241.191 179.139, 241.885 179.532, 243.135 179.909, 244.361 180.035, 244.858 180.145, 245.405 180.325, 246.466 180.400, 247.200 180.459, 247.867 180.532, 249.281 180.579, 250.879 180.602, 252.474 180.616, 254.070 180.645, 255.662 180.697, 257.254 180.788, 258.844 180.922, 260.427 181.097, 262.002 181.189, 262.742 181.382, 264.326 181.618, 265.894 181.891, 267.448 182.201, 268.988 182.559, 270.514 182.962, 272.031 183.397, 273.549 183.855, 275.075 184.310, 276.614 184.734, 278.164 184.971, 279.172 185.255, 280.653 185.443, 281.848 185.708, 283.349 185.908, 284.779 185.964, 286.155 185.883, 287.496 185.768, 288.814 185.634, 290.099 185.514, 290.895 185.319, 291.536 185.136, 291.846 185.007, 291.955 184.602, 292.140 184.176, 292.225 183.576, 292.313 182.694, 292.526 181.796, 292.830 180.924, 293.098 179.788, 293.006 178.636, 293.106 178.015, 293.020 176.681, 292.970 176.645, 292.972 175.825, 292.362 174.851, 292.232 173.832, 292.209 172.959, 291.796 172.335, 291.842 170.857, 292.144 170.271, 292.337 170.123, 292.500 169.444, 292.198 168.460, 292.054 167.786, 292.329 167.355, 292.608 167.135, 292.884 167.036, 293.254 166.857, 293.706 166.769, 294.529 166.837, 294.990 166.325, 294.952 165.615, 294.678 164.998, 294.829 164.570, 295.208 164.555, 295.689 164.540, 295.726 164.431, 296.101 164.462, 296.539 164.513, 296.739 163.806, 296.607 163.664, 296.805 163.255, 297.043 163.221, 297.576 163.149, 298.070 163.145, 298.592 163.157, 298.640 163.030, 298.667 162.791, 298.661 162.723, 298.996 162.672, 299.367 162.670, 299.733 162.760, 300.102 162.954, 300.481 163.269, 300.880 163.345, 300.940 163.323, 301.008 163.399, 301.419 163.396, 301.823 163.511, 302.277 163.880, 302.712 164.022, 302.867 164.597, 303.395 165.474, 303.630 165.920, 303.565 166.403, 303.403 166.939, 303.736 167.935, 304.643 168.931, 305.285 170.499, 305.992 171.768, 306.549 173.129, 306.928 174.599, 307.201 176.427, 307.858 177.980, 308.342 179.587, 308.559 181.255, 308.868 182.740, 309.438 184.107, 310.140 185.475, 311.020 186.906, 311.948 188.447, 312.732 190.055, 313.177 191.595, 313.398 193.006, 313.477 194.271, 313.444 195.355, 313.252 196.224, 312.845 197.470, 311.916 198.120, 311.259 198.456, 310.486 198.709, 309.498 198.731, 308.714 198.700, 307.488 198.140, 305.531 197.510, 304.288 196.826, 303.060 196.339, 301.733 196.062, 300.308 195.915, 298.245 195.847, 296.687 195.625, 295.115 195.418, 293.895 195.422, 292.912 195.441, 291.321 195.481, 289.710 195.569, 288.585 195.678, 287.561 195.699, 287.403 195.891, 286.062 196.094, 284.841 196.368, 283.197 196.623, 281.513 196.851, 279.773 196.925, 279.142 196.982, 278.669 197.229, 279.055 197.675, 279.556 198.541, 280.152 199.264, 280.327 200.239, 280.210 201.174, 280.183 202.049, 280.419 202.748, 280.822 202.870, 281.024 203.348, 281.820 204.026, 282.829 204.909, 283.872 206.060, 284.717 206.860, 285.070 208.162, 285.598 209.516, 285.885 210.859, 285.881 211.719, 285.864 212.968, 285.814 214.120, 285.816 215.189, 285.886 215.812, 286.074 216.858, 286.547 217.484, 286.938 218.723, 287.941 219.420, 288.764 219.752, 289.335 220.462, 290.600 221.206, 291.780 221.874, 292.869 223.005, 294.150 223.757, 294.513 224.465, 294.805 225.033, 294.791 226.030, 294.910 227.070, 294.759 228.045, 294.450 228.924, 294.090 229.568, 293.629 230.217, 293.075 230.584, 292.402 230.937, 291.437 231.059, 289.586 231.079, 288.386 230.969, 287.087 230.645, 285.703 230.206, 284.256 229.820, 282.789 229.570, 281.358 229.474, 280.303 229.467, 279.793 229.419, 279.522 229.366, 278.587 229.281, 277.172 229.272, 275.475 229.267, 274.094 229.238, 272.220 229.220, 270.721 229.273, 269.169 229.408, 267.591 229.613, 265.996 229.850, 264.369 230.079, 262.707 230.277, 261.015 230.452, 259.308 230.628, 257.615 230.839, 255.958 231.113, 254.358 231.454, 252.812 231.849, 251.297 232.230, 249.762 232.507, 248.152 232.604, 247.356 232.761, 245.662 232.738, 243.901 232.608, 242.112 232.541, 241.341 232.357, 239.561 232.105, 237.785 231.767, 236.021 231.320, 234.263 230.812, 232.494 230.229, 230.718 229.545, 228.964 228.805, 227.272 228.118, 225.669 227.559, 224.177 227.156, 222.830 226.869, 221.567 226.611, 220.450 226.396, 219.360 226.249, 217.987 226.219, 217.184 226.205, 216.413 226.206, 215.577 226.286, 214.006 226.351, 213.155 226.397, 212.298 226.426, 211.434 226.426, 210.557 226.390, 208.631 226.355, 207.724 226.273, 206.824 226.163, 205.942 226.046, 205.076 225.911, 203.995 225.790, 202.897 225.679, 201.764 225.568, 200.549 225.492, 199.670 225.408, 198.789 225.316, 197.913 225.221, 197.042 225.126, 196.177 225.025, 195.323 224.921, 194.476 224.817, 193.639 224.784, 193.359 224.775, 193.268 224.705, 192.466 224.647, 191.661 224.603, 190.854 224.580, 190.043 224.579, 189.391 224.591, 189.180 224.634, 188.445 224.704, 187.054 224.763, 186.043 224.766, 185.323 224.692, 184.657 224.534, 183.828 224.266, 182.249 224.263, 182.220 224.247, 181.987 224.239, 180.209 224.123, 178.231 223.858, 176.503 223.487, 174.842 223.040, 173.233 222.555, 171.662 222.044, 170.139 221.530, 168.679 221.008, 167.286 220.501, 165.936 220.043, 164.595 219.667, 163.240 219.375, 161.855 219.157, 160.448 219.110, 159.989 219.047, 158.958 219.051, 157.932 219.171, 157.154 219.391, 156.186 219.685, 155.212 220.046, 154.218 220.463, 153.190 220.923, 152.114 221.414, 150.982 221.886, 149.921 222.473, 148.757 223.078, 147.546 223.703, 146.324 224.328, 145.128 224.947, 143.986 225.512, 142.879 226.542, 140.586 226.951, 139.472 227.305, 138.330 227.862, 136.734 228.582, 134.949 229.139, 133.805  z M 217.476, 272.304 217.192, 273.128 217.100, 273.305 217.093, 273.305 216.435, 273.375 215.766, 273.509 215.040, 273.711 214.444, 273.838 214.321, 273.803 213.266, 273.546 212.958, 273.538 212.015, 273.311 211.579, 273.351 210.920, 273.056 210.132, 273.309 209.933, 273.219 209.321, 272.892 208.732, 272.893 208.300, 273.348 208.282, 273.349 207.872, 273.156 207.293, 273.138 207.216, 273.233 206.890, 273.003 206.466, 273.087 205.967, 273.309 205.819, 273.442 205.502, 273.380 204.931, 273.139 204.723, 273.254 204.252, 273.406 204.176, 273.566 203.902, 273.687 203.365, 274.054 203.331, 274.080 202.736, 273.872 201.979, 273.752 201.754, 273.748 201.210, 274.151 201.063, 274.725 200.938, 274.747 200.272, 275.272 200.219, 275.325 199.598, 275.243 198.754, 275.069 198.259, 275.026 197.839, 275.119 197.440, 275.324 197.599, 274.424 198.026, 272.725 198.452, 271.054 198.834, 269.373 199.135, 267.641 199.344, 265.844 199.462, 263.994 199.502, 262.108 199.518, 261.118 199.480, 259.224 199.374, 257.325 199.201, 255.427 198.947, 253.524 198.644, 251.606 198.255, 249.682 197.833, 247.774 197.584, 246.704 197.134, 244.923 196.670, 243.285 196.257, 241.818 196.050, 240.924 195.952, 239.945 195.978, 238.839 196.115, 237.699 196.331, 236.505 196.581, 235.284 196.841, 234.065 197.096, 232.861 197.344, 231.682 197.581, 230.535 197.809, 229.425 198.035, 228.351 198.265, 227.313 198.501, 226.306 198.748, 225.320 199.003, 224.344 199.260, 223.374 199.510, 222.397 199.745, 221.415 199.949, 220.424 200.126, 219.429 200.274, 218.431 200.341, 217.897 200.417, 217.342 200.539, 216.353 200.655, 215.369 200.770, 214.390 200.888, 213.417 201.014, 212.446 201.150, 211.478 201.297, 210.510 201.402, 209.871 201.425, 209.750 201.516, 210.035 201.767, 210.778 201.777, 210.808 201.830, 210.965 202.087, 211.695 202.425, 212.628 202.782, 213.578 203.161, 214.544 203.564, 215.526 203.987, 216.524 204.419, 217.543 204.861, 218.581 205.307, 219.628 205.737, 220.683 206.133, 221.748 206.489, 222.836 206.838, 223.978 206.930, 224.228 207.043, 224.630 207.282, 225.178 207.381, 225.376 207.657, 225.986 207.932, 226.479 208.712, 227.754 209.199, 228.768 209.450, 230.107 209.611, 231.580 209.866, 233.072 210.183, 234.586 210.539, 236.130 210.942, 238.112 211.228, 239.755 211.521, 241.447 211.880, 243.167 212.345, 244.889 212.943, 246.560 213.655, 248.136 213.894, 248.652 214.610, 250.198 215.296, 251.672 215.911, 253.097 216.335, 254.298 216.594, 255.198 216.950, 256.653 217.271, 258.159 217.573, 259.707 217.804, 261.099 217.932, 262.254 218.065, 263.651 218.085, 263.967 218.101, 264.636 218.110, 265.197 218.107, 265.862 218.087, 267.334 218.001, 268.718 217.864, 270.014 217.698, 271.221 217.476, 272.304  z" />
        </g>
        <g inkscape:groupmode="layer" id="strokes" inkscape:label="strokes">
            <path fill="none" stroke-width="3.0" stroke-linecap="butt" stroke-opacity="1.0" stroke="rgb(0, 0, 0)" stroke-linejoin="round" d=" M 228.125, 135.886 228.582, 134.949 229.139, 133.805 229.641, 132.791 230.175, 131.673 230.293, 131.425 230.676, 130.516 230.997, 129.515 231.360, 128.306 231.580, 127.452 231.752, 126.707 231.902, 126.055 232.052, 125.494 232.218, 125.024 232.399, 124.673 232.399, 124.673 232.416, 124.639 232.657, 124.331 " />
            <path fill="none" stroke-width="3.0" stroke-linecap="butt" stroke-opacity="1.0" stroke="rgb(0, 0, 0)" stroke-linejoin="round" d=" M 227.687, 137.167 227.862, 136.734 228.582, 134.949 " />
            <path fill="none" stroke-width="3.0" stroke-linecap="butt" stroke-opacity="1.0" stroke="rgb(0, 0, 0)" stroke-linejoin="round" d=" M 219.020, 158.132 219.051, 157.932 219.171, 157.154 219.391, 156.186 219.685, 155.212 220.046, 154.218 220.463, 153.190 220.923, 152.114 221.414, 150.982 221.886, 149.921 222.473, 148.757 223.078, 147.546 223.703, 146.324 224.328, 145.128 224.947, 143.986 225.512, 142.879 226.542, 140.586 226.951, 139.472 227.305, 138.330 227.862, 136.734 " />
            <path fill="none" stroke-width="3.0" stroke-linecap="butt" stroke-opacity="1.0" stroke="rgb(0, 0, 0)" stroke-linejoin="round" d=" M 214.431, 105.138 214.119, 104.973 214.094, 104.960 213.789, 104.799 213.412, 104.601 212.712, 104.023 " />
            <path fill="none" stroke-width="3.0" stroke-linecap="butt" stroke-opacity="1.0" stroke="rgb(0, 0, 0)" stroke-linejoin="round" d=" M 213.120, 104.502 212.712, 104.023 212.324, 103.567 211.909, 102.885 " />
            <path fill="none" stroke-width="3.0" stroke-linecap="butt" stroke-opacity="1.0" stroke="rgb(0, 0, 0)" stroke-linejoin="round" d=" M 216.530, 105.013 215.814, 105.022 215.049, 105.032 " />
            <path fill="none" stroke-width="3.0" stroke-linecap="butt" stroke-opacity="1.0" stroke="rgb(0, 0, 0)" stroke-linejoin="round" d=" M 214.603, 105.021 214.487, 104.990 213.789, 104.799 " />
            <path fill="none" stroke-width="3.0" stroke-linecap="butt" stroke-opacity="1.0" stroke="rgb(0, 0, 0)" stroke-linejoin="round" d=" M 220.366, 104.756 219.845, 104.796 219.682, 104.809 218.976, 104.833 218.221, 104.853 217.408, 104.921 215.814, 105.022 " />
            <path fill="none" stroke-width="3.0" stroke-linecap="butt" stroke-opacity="1.0" stroke="rgb(0, 0, 0)" stroke-linejoin="round" d=" M 215.592, 105.073 215.049, 105.032 214.487, 104.990 " />
            <path fill="none" stroke-width="3.0" stroke-linecap="butt" stroke-opacity="1.0" stroke="rgb(0, 0, 0)" stroke-linejoin="round" d=" M 240.882, 119.681 240.874, 119.634 240.853, 119.514 240.731, 118.787 240.667, 117.864 240.518, 116.921 240.181, 115.769 239.832, 114.794 239.319, 113.892 238.501, 112.794 237.851, 111.958 237.125, 111.205 236.094, 110.159 235.349, 109.441 233.402, 107.790 231.248, 106.393 228.949, 105.318 226.577, 104.612 224.995, 104.429 224.176, 104.361 222.584, 104.424 221.813, 104.492 219.845, 104.796 " />
            <path fill="none" stroke-width="3.0" stroke-linecap="butt" stroke-opacity="1.0" stroke="rgb(0, 0, 0)" stroke-linejoin="round" d=" M 224.250, 182.533 224.249, 182.391 224.249, 182.249 224.248, 182.141 224.248, 182.109 224.247, 181.987 224.239, 180.209 224.123, 178.231 223.858, 176.503 223.487, 174.842 223.040, 173.233 222.555, 171.662 222.044, 170.139 221.530, 168.679 221.008, 167.286 220.501, 165.936 220.043, 164.595 219.667, 163.240 219.375, 161.855 219.157, 160.448 219.110, 159.989 " />
            <path fill="none" stroke-width="3.0" stroke-linecap="butt" stroke-opacity="1.0" stroke="rgb(0, 0, 0)" stroke-linejoin="round" d=" M 257.056, 161.478 257.286, 161.579 257.439, 161.645 257.510, 161.676 258.265, 162.005 258.724, 162.903 258.989, 163.581 259.224, 164.622 259.233, 164.659 " />
            <path fill="none" stroke-width="3.0" stroke-linecap="butt" stroke-opacity="1.0" stroke="rgb(0, 0, 0)" stroke-linejoin="round" d=" M 261.453, 170.470 261.446, 169.973 261.383, 169.239 261.586, 168.385 261.586, 167.291 261.624, 165.975 261.921, 164.568 261.941, 164.393 262.047, 163.122 262.011, 162.876 261.704, 161.739 261.442, 160.385 261.424, 159.108 261.361, 158.639 260.788, 157.492 259.903, 156.150 259.554, 155.154 259.134, 154.156 258.332, 152.652 257.653, 151.578 256.823, 149.993 256.320, 148.958 256.144, 148.601 " />
            <path fill="none" stroke-width="3.0" stroke-linecap="butt" stroke-opacity="1.0" stroke="rgb(0, 0, 0)" stroke-linejoin="round" d=" M 255.107, 160.831 255.129, 160.829 " />
            <path fill="none" stroke-width="3.0" stroke-linecap="butt" stroke-opacity="1.0" stroke="rgb(0, 0, 0)" stroke-linejoin="round" d=" M 254.271, 160.324 255.123, 160.826 255.129, 160.829 255.743, 161.191 256.398, 161.449 256.573, 161.510 256.594, 161.517 256.602, 161.519 257.343, 161.775 " />
            <path fill="none" stroke-width="3.0" stroke-linecap="butt" stroke-opacity="1.0" stroke="rgb(0, 0, 0)" stroke-linejoin="round" d=" M 256.606, 161.568 256.724, 162.043 256.887, 162.606 257.027, 163.200 257.188, 163.854 257.411, 164.576 257.440, 164.671 257.498, 165.776 257.434, 167.024 257.508, 168.222 257.711, 169.186 257.972, 169.896 258.066, 170.055 258.297, 170.346 258.419, 170.486 258.775, 170.722 258.908, 170.798 259.241, 170.859 259.374, 170.860 259.681, 170.792 259.844, 170.677 260.047, 170.498 " />
            <path fill="none" stroke-width="3.0" stroke-linecap="butt" stroke-opacity="1.0" stroke="rgb(0, 0, 0)" stroke-linejoin="round" d=" M 257.169, 161.604 257.439, 161.645 " />
            <path fill="none" stroke-width="3.0" stroke-linecap="butt" stroke-opacity="1.0" stroke="rgb(0, 0, 0)" stroke-linejoin="round" d=" M 249.083, 157.543 249.810, 158.121 249.865, 158.164 250.592, 158.743 251.193, 159.060 252.498, 159.884 252.933, 160.165 253.109, 160.278 253.604, 160.583 253.611, 160.588 253.697, 160.657 253.723, 160.678 253.964, 160.870 " />
            <path fill="none" stroke-width="3.0" stroke-linecap="butt" stroke-opacity="1.0" stroke="rgb(0, 0, 0)" stroke-linejoin="round" d=" M 249.865, 158.164 249.768, 158.773 249.770, 159.508 249.770, 159.649 " />
            <path fill="none" stroke-width="3.0" stroke-linecap="butt" stroke-opacity="1.0" stroke="rgb(0, 0, 0)" stroke-linejoin="round" d=" M 249.770, 159.508 249.620, 160.190 249.377, 161.291 249.124, 162.447 249.121, 163.610 248.803, 164.582 248.718, 165.405 248.709, 165.740 248.710, 165.760 248.737, 166.356 " />
            <path fill="none" stroke-width="3.0" stroke-linecap="butt" stroke-opacity="1.0" stroke="rgb(0, 0, 0)" stroke-linejoin="round" d=" M 218.110, 265.197 218.107, 265.862 218.087, 267.334 218.001, 268.718 217.864, 270.014 217.698, 271.221 217.476, 272.304 217.192, 273.128 217.163, 273.213 " />
            <path fill="none" stroke-width="3.0" stroke-linecap="butt" stroke-opacity="1.0" stroke="rgb(0, 0, 0)" stroke-linejoin="round" d=" M 219.032, 288.096 219.420, 288.764 219.752, 289.335 220.462, 290.600 221.206, 291.780 221.874, 292.869 223.005, 294.150 223.757, 294.513 224.465, 294.805 225.033, 294.791 226.030, 294.910 227.070, 294.759 228.045, 294.450 228.924, 294.090 229.568, 293.629 230.217, 293.075 230.584, 292.402 230.937, 291.437 231.059, 289.586 231.079, 288.386 230.969, 287.087 230.645, 285.703 230.206, 284.256 229.820, 282.789 229.570, 281.358 229.474, 280.303 229.444, 279.965 229.419, 279.522 229.366, 278.587 229.281, 277.172 " />
            <path fill="none" stroke-width="3.0" stroke-linecap="butt" stroke-opacity="1.0" stroke="rgb(0, 0, 0)" stroke-linejoin="round" d=" M 217.204, 286.711 217.484, 286.938 218.723, 287.941 " />
            <path fill="none" stroke-width="3.0" stroke-linecap="butt" stroke-opacity="1.0" stroke="rgb(0, 0, 0)" stroke-linejoin="round" d=" M 218.161, 287.277 218.723, 287.941 219.420, 288.764 " />
            <path fill="none" stroke-width="3.0" stroke-linecap="butt" stroke-opacity="1.0" stroke="rgb(0, 0, 0)" stroke-linejoin="round" d=" M 224.664, 187.747 224.704, 187.054 224.763, 186.043 224.766, 185.323 224.692, 184.657 224.534, 183.828 " />
            <path fill="none" stroke-width="3.0" stroke-linecap="butt" stroke-opacity="1.0" stroke="rgb(0, 0, 0)" stroke-linejoin="round" d=" M 224.312, 182.976 224.277, 182.444 224.263, 182.230 224.263, 182.220 224.247, 181.987 " />
            <path fill="none" stroke-width="3.0" stroke-linecap="butt" stroke-opacity="1.0" stroke="rgb(0, 0, 0)" stroke-linejoin="round" d=" M 224.570, 184.040 224.534, 183.828 224.266, 182.249 " />
            <path fill="none" stroke-width="3.0" stroke-linecap="butt" stroke-opacity="1.0" stroke="rgb(0, 0, 0)" stroke-linejoin="round" d=" M 224.429, 183.480 224.339, 182.801 224.339, 182.799 224.266, 182.249 224.263, 182.220 " />
            <path fill="none" stroke-width="3.0" stroke-linecap="butt" stroke-opacity="1.0" stroke="rgb(0, 0, 0)" stroke-linejoin="round" d=" M 235.029, 136.543 235.239, 137.169 235.300, 137.693 235.315, 137.821 " />
            <path fill="none" stroke-width="3.0" stroke-linecap="butt" stroke-opacity="1.0" stroke="rgb(0, 0, 0)" stroke-linejoin="round" d=" M 230.175, 131.673 231.058, 132.560 231.985, 133.387 232.912, 134.180 233.754, 134.975 234.467, 135.769 235.029, 136.543 235.032, 136.547 235.278, 136.989 235.281, 136.995 235.452, 137.302 " />
            <path fill="none" stroke-width="3.0" stroke-linecap="butt" stroke-opacity="1.0" stroke="rgb(0, 0, 0)" stroke-linejoin="round" d=" M 235.300, 137.693 235.322, 138.417 235.484, 138.888 235.944, 140.112 236.174, 140.699 237.345, 142.473 237.763, 143.022 238.236, 143.519 239.386, 144.597 239.932, 145.101 240.585, 145.559 242.593, 146.679 243.379, 147.051 245.375, 147.882 246.169, 148.193 246.814, 148.453 247.254, 148.631 247.986, 148.939 248.538, 149.151 248.570, 149.164 248.579, 149.167 248.594, 149.173 248.681, 149.207 249.576, 149.591 249.803, 149.689 250.203, 149.861 " />
            <path fill="none" stroke-width="3.0" stroke-linecap="butt" stroke-opacity="1.0" stroke="rgb(0, 0, 0)" stroke-linejoin="round" d=" M 212.090, 103.297 211.909, 102.885 211.574, 102.118 211.424, 101.575 " />
            <path fill="none" stroke-width="3.0" stroke-linecap="butt" stroke-opacity="1.0" stroke="rgb(0, 0, 0)" stroke-linejoin="round" d=" M 211.432, 101.679 211.424, 101.575 211.347, 100.658 " />
            <path fill="none" stroke-width="3.0" stroke-linecap="butt" stroke-opacity="1.0" stroke="rgb(0, 0, 0)" stroke-linejoin="round" d=" M 219.119, 160.143 219.110, 159.989 219.047, 158.958 219.051, 157.932 " />
            <path fill="none" stroke-width="3.0" stroke-linecap="butt" stroke-opacity="1.0" stroke="rgb(0, 0, 0)" stroke-linejoin="round" d=" M 246.814, 148.453 246.340, 148.889 245.691, 149.498 245.036, 150.122 244.301, 150.699 243.578, 151.308 242.941, 151.979 242.431, 152.733 242.058, 153.555 241.897, 154.237 241.876, 154.897 241.876, 155.696 241.887, 156.307 241.892, 156.617 " />
            <path fill="none" stroke-width="3.0" stroke-linecap="butt" stroke-opacity="1.0" stroke="rgb(0, 0, 0)" stroke-linejoin="round" d=" M 244.273, 158.594 244.578, 158.026 244.589, 158.006 244.749, 157.706 244.812, 157.589 245.265, 157.156 " />
            <path fill="none" stroke-width="3.0" stroke-linecap="butt" stroke-opacity="1.0" stroke="rgb(0, 0, 0)" stroke-linejoin="round" d=" M 240.164, 161.951 240.471, 162.178 240.793, 162.590 241.212, 162.811 241.729, 162.802 242.120, 162.655 242.815, 162.213 243.381, 161.603 243.600, 161.279 244.069, 160.445 244.184, 160.076 244.382, 159.083 244.557, 158.149 " />
            <path fill="none" stroke-width="3.0" stroke-linecap="butt" stroke-opacity="1.0" stroke="rgb(0, 0, 0)" stroke-linejoin="round" d=" M 244.475, 158.337 244.557, 158.149 244.749, 157.706 " />
            <path fill="none" stroke-width="3.0" stroke-linecap="butt" stroke-opacity="1.0" stroke="rgb(0, 0, 0)" stroke-linejoin="round" d=" M 244.796, 157.174 244.859, 157.172 244.860, 157.172 245.265, 157.156 245.992, 157.129 246.259, 157.134 247.115, 157.125 247.680, 157.118 " />
            <path fill="none" stroke-width="3.0" stroke-linecap="butt" stroke-opacity="1.0" stroke="rgb(0, 0, 0)" stroke-linejoin="round" d=" M 247.115, 157.125 248.378, 157.280 249.083, 157.543 249.443, 157.678 " />
            <path fill="none" stroke-width="3.0" stroke-linecap="butt" stroke-opacity="1.0" stroke="rgb(0, 0, 0)" stroke-linejoin="round" d=" M 192.491, 115.548 191.561, 116.258 190.827, 116.825 189.878, 117.556 189.015, 118.320 188.177, 119.126 187.294, 120.066 186.520, 120.954 185.612, 122.048 184.700, 123.217 183.901, 124.222 183.016, 125.361 " />
            <path fill="none" stroke-width="3.0" stroke-linecap="butt" stroke-opacity="1.0" stroke="rgb(0, 0, 0)" stroke-linejoin="round" d=" M 192.671, 102.792 193.415, 103.691 193.427, 103.706 193.646, 103.972 " />
            <path fill="none" stroke-width="3.0" stroke-linecap="butt" stroke-opacity="1.0" stroke="rgb(0, 0, 0)" stroke-linejoin="round" d=" M 194.209, 106.104 194.255, 107.356 194.288, 108.657 194.254, 109.286 194.188, 110.464 194.160, 112.012 194.052, 113.042 193.727, 114.057 193.639, 114.333 " />
            <path fill="none" stroke-width="3.0" stroke-linecap="butt" stroke-opacity="1.0" stroke="rgb(0, 0, 0)" stroke-linejoin="round" d=" M 193.415, 103.691 193.812, 104.680 193.955, 105.036 194.019, 105.197 194.178, 105.957 194.209, 106.104 194.294, 106.509 " />
            <path fill="none" stroke-width="3.0" stroke-linecap="butt" stroke-opacity="1.0" stroke="rgb(0, 0, 0)" stroke-linejoin="round" d=" M 188.502, 98.153 188.629, 98.560 188.899, 99.307 189.238, 100.085 189.462, 100.439 189.831, 100.811 190.793, 101.494 191.525, 102.037 192.225, 102.617 193.225, 103.672 193.812, 104.680 " />
            <path fill="none" stroke-width="3.0" stroke-linecap="butt" stroke-opacity="1.0" stroke="rgb(0, 0, 0)" stroke-linejoin="round" d=" M 187.392, 93.911 187.370, 94.230 187.632, 95.633 188.102, 97.092 188.502, 98.153 188.585, 98.375 " />
            <path fill="none" stroke-width="3.0" stroke-linecap="butt" stroke-opacity="1.0" stroke="rgb(0, 0, 0)" stroke-linejoin="round" d=" M 211.556, 99.492 211.662, 99.327 212.224, 98.452 212.938, 97.399 213.575, 96.231 214.090, 94.929 214.389, 94.099 214.744, 92.681 214.936, 91.180 214.949, 88.936 214.828, 87.439 214.560, 85.950 214.130, 84.486 213.551, 83.053 212.830, 81.670 211.926, 80.255 211.071, 79.031 210.132, 77.885 209.136, 76.903 208.331, 76.263 207.908, 75.993 206.959, 75.425 206.129, 75.058 205.041, 74.637 204.043, 74.397 202.853, 74.163 201.755, 74.053 200.503, 74.002 199.356, 74.056 198.087, 74.240 196.954, 74.500 195.742, 74.947 194.720, 75.459 193.576, 76.056 192.478, 76.743 191.495, 77.582 190.728, 78.418 190.024, 79.442 189.476, 80.427 188.879, 81.368 188.353, 82.154 187.878, 82.903 187.431, 83.608 " />
            <path fill="none" stroke-width="3.0" stroke-linecap="butt" stroke-opacity="1.0" stroke="rgb(0, 0, 0)" stroke-linejoin="round" d=" M 187.878, 82.903 187.608, 83.277 187.075, 84.058 186.806, 85.080 186.774, 86.198 186.902, 87.287 187.173, 88.314 187.481, 89.238 187.497, 89.744 187.497, 89.749 187.498, 89.781 187.513, 90.258 " />
            <path fill="none" stroke-width="3.0" stroke-linecap="butt" stroke-opacity="1.0" stroke="rgb(0, 0, 0)" stroke-linejoin="round" d=" M 214.444, 273.838 214.321, 273.803 213.266, 273.546 212.958, 273.538 212.114, 273.515 211.732, 273.567 " />
            <path fill="none" stroke-width="3.0" stroke-linecap="butt" stroke-opacity="1.0" stroke="rgb(0, 0, 0)" stroke-linejoin="round" d=" M 209.995, 273.293 210.008, 273.349 " />
            <path fill="none" stroke-width="3.0" stroke-linecap="butt" stroke-opacity="1.0" stroke="rgb(0, 0, 0)" stroke-linejoin="round" d=" M 211.579, 273.351 210.920, 273.056 210.132, 273.309 210.107, 273.317 210.083, 273.325 210.008, 273.349 " />
            <path fill="none" stroke-width="3.0" stroke-linecap="butt" stroke-opacity="1.0" stroke="rgb(0, 0, 0)" stroke-linejoin="round" d=" M 210.132, 273.309 209.933, 273.219 209.321, 272.892 208.732, 272.893 208.300, 273.348 208.294, 273.354 208.281, 273.367 " />
            <path fill="none" stroke-width="3.0" stroke-linecap="butt" stroke-opacity="1.0" stroke="rgb(0, 0, 0)" stroke-linejoin="round" d=" M 187.497, 89.744 187.221, 90.273 186.976, 91.435 " />
            <path fill="none" stroke-width="3.0" stroke-linecap="butt" stroke-opacity="1.0" stroke="rgb(0, 0, 0)" stroke-linejoin="round" d=" M 188.105, 96.171 187.551, 94.434 187.392, 93.911 187.071, 92.851 186.976, 91.435 186.989, 91.585 187.165, 92.896 " />
            <path fill="none" stroke-width="3.0" stroke-linecap="butt" stroke-opacity="1.0" stroke="rgb(0, 0, 0)" stroke-linejoin="round" d=" M 206.096, 275.838 205.165, 275.863 204.246, 275.775 204.135, 275.764 203.702, 275.692 203.232, 275.569 202.857, 275.471 " />
            <path fill="none" stroke-width="3.0" stroke-linecap="butt" stroke-opacity="1.0" stroke="rgb(0, 0, 0)" stroke-linejoin="round" d=" M 203.232, 275.569 202.565, 275.033 201.716, 274.611 201.063, 274.725 200.938, 274.747 200.272, 275.272 200.219, 275.325 199.657, 275.876 199.101, 276.544 198.717, 277.093 " />
            <path fill="none" stroke-width="3.0" stroke-linecap="butt" stroke-opacity="1.0" stroke="rgb(0, 0, 0)" stroke-linejoin="round" d=" M 198.166, 277.737 198.853, 277.422 " />
            <path fill="none" stroke-width="3.0" stroke-linecap="butt" stroke-opacity="1.0" stroke="rgb(0, 0, 0)" stroke-linejoin="round" d=" M 211.225, 274.085 210.504, 274.100 209.686, 274.118 209.530, 274.111 209.286, 274.101 208.955, 274.087 208.205, 273.974 206.952, 273.799 206.927, 273.796 205.756, 274.061 205.458, 274.135 205.239, 274.189 " />
            <path fill="none" stroke-width="3.0" stroke-linecap="butt" stroke-opacity="1.0" stroke="rgb(0, 0, 0)" stroke-linejoin="round" d=" M 205.160, 274.057 204.803, 273.669 204.377, 273.476 204.176, 273.566 203.902, 273.687 203.365, 274.054 203.331, 274.080 202.534, 274.705 " />
            <path fill="none" stroke-width="3.0" stroke-linecap="butt" stroke-opacity="1.0" stroke="rgb(0, 0, 0)" stroke-linejoin="round" d=" M 210.670, 273.572 210.606, 273.563 210.140, 273.501 209.266, 273.336 208.823, 273.282 208.461, 273.339 208.312, 273.363 208.281, 273.367 208.278, 273.368 207.850, 273.436 207.754, 273.502 207.742, 273.511 207.732, 273.517 207.731, 273.518 207.685, 273.549 207.317, 273.804 " />
            <path fill="none" stroke-width="3.0" stroke-linecap="butt" stroke-opacity="1.0" stroke="rgb(0, 0, 0)" stroke-linejoin="round" d=" M 208.560, 273.685 208.123, 273.574 208.115, 273.572 208.037, 273.552 207.969, 273.510 207.944, 273.494 207.850, 273.436 " />
            <path fill="none" stroke-width="3.0" stroke-linecap="butt" stroke-opacity="1.0" stroke="rgb(0, 0, 0)" stroke-linejoin="round" d=" M 196.982, 278.669 197.229, 279.055 197.675, 279.556 198.541, 280.152 199.264, 280.327 200.239, 280.210 201.174, 280.183 202.049, 280.419 202.748, 280.822 " />
            <path fill="none" stroke-width="3.0" stroke-linecap="butt" stroke-opacity="1.0" stroke="rgb(0, 0, 0)" stroke-linejoin="round" d=" M 202.352, 280.169 202.748, 280.822 202.870, 281.024 203.348, 281.820 204.026, 282.829 204.909, 283.872 206.060, 284.717 206.860, 285.070 208.162, 285.598 209.516, 285.885 210.859, 285.881 211.719, 285.864 212.968, 285.814 214.120, 285.816 215.189, 285.886 215.812, 286.074 " />
            <path fill="none" stroke-width="3.0" stroke-linecap="butt" stroke-opacity="1.0" stroke="rgb(0, 0, 0)" stroke-linejoin="round" d=" M 212.958, 273.538 212.015, 273.311 211.579, 273.351 211.069, 273.397 211.024, 273.401 210.928, 273.410 " />
            <path fill="none" stroke-width="3.0" stroke-linecap="butt" stroke-opacity="1.0" stroke="rgb(0, 0, 0)" stroke-linejoin="round" d=" M 207.724, 273.503 207.417, 273.375 207.216, 273.233 206.890, 273.003 206.466, 273.087 205.967, 273.309 205.819, 273.442 205.577, 273.660 205.249, 274.080 " />
            <path fill="none" stroke-width="3.0" stroke-linecap="butt" stroke-opacity="1.0" stroke="rgb(0, 0, 0)" stroke-linejoin="round" d=" M 229.282, 277.231 229.281, 277.172 229.272, 275.475 229.267, 274.094 229.238, 272.220 229.220, 270.721 229.273, 269.169 229.408, 267.591 229.613, 265.996 229.850, 264.369 230.079, 262.707 230.277, 261.015 230.452, 259.308 230.628, 257.615 230.839, 255.958 231.113, 254.358 231.454, 252.812 231.849, 251.297 232.230, 249.762 232.507, 248.152 232.604, 247.356 232.761, 245.662 232.738, 243.901 232.608, 242.112 232.541, 241.341 232.357, 239.561 232.105, 237.785 231.767, 236.021 231.320, 234.263 230.812, 232.494 230.229, 230.718 229.545, 228.964 228.805, 227.272 228.118, 225.669 227.559, 224.177 227.156, 222.830 226.869, 221.567 226.611, 220.450 226.396, 219.360 " />
            <path fill="none" stroke-width="3.0" stroke-linecap="butt" stroke-opacity="1.0" stroke="rgb(0, 0, 0)" stroke-linejoin="round" d=" M 226.412, 219.510 226.396, 219.360 226.249, 217.987 226.219, 217.184 226.205, 216.413 226.206, 215.577 " />
            <path fill="none" stroke-width="3.0" stroke-linecap="butt" stroke-opacity="1.0" stroke="rgb(0, 0, 0)" stroke-linejoin="round" d=" M 189.270, 161.842 189.674, 160.622 190.122, 158.989 190.510, 157.424 190.806, 155.957 191.011, 154.616 191.131, 153.405 191.192, 152.304 191.236, 151.287 191.342, 150.312 191.584, 149.329 192.016, 148.395 192.393, 147.814 192.601, 147.546 192.620, 147.522 192.668, 147.460 192.706, 147.411 192.924, 147.131 " />
            <path fill="none" stroke-width="3.0" stroke-linecap="butt" stroke-opacity="1.0" stroke="rgb(0, 0, 0)" stroke-linejoin="round" d=" M 155.108, 219.146 155.903, 219.850 155.923, 219.867 155.958, 219.932 156.111, 220.220 156.114, 220.225 156.125, 220.247 156.137, 220.270 156.314, 220.603 156.370, 220.708 156.673, 221.277 " />
            <path fill="none" stroke-width="3.0" stroke-linecap="butt" stroke-opacity="1.0" stroke="rgb(0, 0, 0)" stroke-linejoin="round" d=" M 156.378, 220.854 156.451, 221.142 156.452, 221.143 156.452, 221.145 156.569, 222.341 157.079, 223.514 157.746, 224.553 158.184, 225.591 158.611, 226.420 158.944, 226.857 159.207, 227.279 " />
            <path fill="none" stroke-width="3.0" stroke-linecap="butt" stroke-opacity="1.0" stroke="rgb(0, 0, 0)" stroke-linejoin="round" d=" M 159.103, 227.034 159.207, 227.279 159.383, 227.689 159.619, 228.069 159.839, 228.316 160.206, 228.449 160.550, 228.369 160.805, 228.192 161.043, 228.036 161.196, 227.709 161.322, 227.396 161.493, 227.005 161.485, 226.640 161.437, 226.134 161.146, 225.391 160.979, 225.149 160.591, 224.588 160.069, 223.689 " />
            <path fill="none" stroke-width="3.0" stroke-linecap="butt" stroke-opacity="1.0" stroke="rgb(0, 0, 0)" stroke-linejoin="round" d=" M 154.685, 218.512 153.909, 218.486 " />
            <path fill="none" stroke-width="3.0" stroke-linecap="butt" stroke-opacity="1.0" stroke="rgb(0, 0, 0)" stroke-linejoin="round" d=" M 153.301, 216.822 152.837, 218.520 152.956, 219.342 152.985, 219.543 152.948, 220.251 " />
            <path fill="none" stroke-width="3.0" stroke-linecap="butt" stroke-opacity="1.0" stroke="rgb(0, 0, 0)" stroke-linejoin="round" d=" M 160.162, 223.942 160.069, 223.689 159.690, 222.667 159.303, 221.687 159.222, 220.647 159.116, 219.596 159.319, 218.459 159.540, 217.225 159.689, 215.879 160.263, 214.476 160.997, 212.961 161.494, 211.254 161.639, 209.977 161.690, 209.529 " />
            <path fill="none" stroke-width="3.0" stroke-linecap="butt" stroke-opacity="1.0" stroke="rgb(0, 0, 0)" stroke-linejoin="round" d=" M 156.089, 220.282 156.114, 220.225 " />
            <path fill="none" stroke-width="3.0" stroke-linecap="butt" stroke-opacity="1.0" stroke="rgb(0, 0, 0)" stroke-linejoin="round" d=" M 156.399, 220.215 156.267, 219.870 156.245, 219.815 156.238, 219.796 156.205, 219.711 155.967, 219.090 " />
            <path fill="none" stroke-width="3.0" stroke-linecap="butt" stroke-opacity="1.0" stroke="rgb(0, 0, 0)" stroke-linejoin="round" d=" M 157.002, 219.002 157.150, 220.206 " />
            <path fill="none" stroke-width="3.0" stroke-linecap="butt" stroke-opacity="1.0" stroke="rgb(0, 0, 0)" stroke-linejoin="round" d=" M 152.791, 220.398 152.771, 220.578 152.722, 221.276 152.690, 222.016 152.686, 222.317 152.679, 222.801 152.524, 223.677 152.709, 224.692 152.757, 224.951 153.043, 225.676 153.086, 225.785 153.091, 225.798 153.182, 226.026 " />
            <path fill="none" stroke-width="3.0" stroke-linecap="butt" stroke-opacity="1.0" stroke="rgb(0, 0, 0)" stroke-linejoin="round" d=" M 152.350, 217.532 152.347, 218.056 152.581, 219.023 152.811, 219.794 152.844, 219.902 152.845, 219.905 152.948, 220.251 " />
            <path fill="none" stroke-width="3.0" stroke-linecap="butt" stroke-opacity="1.0" stroke="rgb(0, 0, 0)" stroke-linejoin="round" d=" M 150.778, 218.131 150.666, 218.786 150.631, 218.994 " />
            <path fill="none" stroke-width="3.0" stroke-linecap="butt" stroke-opacity="1.0" stroke="rgb(0, 0, 0)" stroke-linejoin="round" d=" M 150.047, 218.341 149.895, 218.964 149.761, 219.965 149.595, 220.908 149.270, 221.840 149.211, 222.144 149.246, 222.864 149.264, 223.249 " />
            <path fill="none" stroke-width="3.0" stroke-linecap="butt" stroke-opacity="1.0" stroke="rgb(0, 0, 0)" stroke-linejoin="round" d=" M 150.010, 216.148 150.189, 216.746 150.114, 217.419 150.047, 218.341 150.045, 218.378 " />
            <path fill="none" stroke-width="3.0" stroke-linecap="butt" stroke-opacity="1.0" stroke="rgb(0, 0, 0)" stroke-linejoin="round" d=" M 148.807, 212.249 148.598, 212.948 148.262, 214.068 148.276, 214.323 148.315, 215.042 148.261, 215.312 148.086, 216.189 147.978, 216.569 147.802, 217.186 " />
            <path fill="none" stroke-width="3.0" stroke-linecap="butt" stroke-opacity="1.0" stroke="rgb(0, 0, 0)" stroke-linejoin="round" d=" M 148.435, 215.542 148.218, 216.629 " />
            <path fill="none" stroke-width="3.0" stroke-linecap="butt" stroke-opacity="1.0" stroke="rgb(0, 0, 0)" stroke-linejoin="round" d=" M 149.661, 207.243 149.617, 207.620 149.548, 208.217 149.497, 208.658 149.487, 208.700 149.158, 210.202 149.045, 210.734 149.038, 210.767 149.016, 210.869 148.854, 211.626 148.816, 211.881 148.598, 212.948 " />
            <path fill="none" stroke-width="3.0" stroke-linecap="butt" stroke-opacity="1.0" stroke="rgb(0, 0, 0)" stroke-linejoin="round" d=" M 149.571, 207.400 149.548, 208.217 " />
            <path fill="none" stroke-width="3.0" stroke-linecap="butt" stroke-opacity="1.0" stroke="rgb(0, 0, 0)" stroke-linejoin="round" d=" M 154.474, 200.119 153.935, 201.149 153.556, 201.759 152.757, 202.519 152.000, 203.245 151.332, 203.930 150.817, 204.534 150.363, 204.998 149.551, 206.308 149.546, 206.785 149.348, 207.390 149.315, 208.094 149.487, 208.700 " />
            <path fill="none" stroke-width="3.0" stroke-linecap="butt" stroke-opacity="1.0" stroke="rgb(0, 0, 0)" stroke-linejoin="round" d=" M 181.093, 308.806 181.255, 308.868 182.740, 309.438 184.107, 310.140 185.475, 311.020 186.906, 311.948 188.447, 312.732 190.055, 313.177 191.595, 313.398 193.006, 313.477 194.271, 313.444 195.355, 313.252 196.224, 312.845 197.470, 311.916 198.120, 311.259 198.456, 310.486 198.709, 309.498 198.731, 308.714 198.700, 307.488 198.140, 305.531 197.510, 304.288 196.826, 303.060 196.339, 301.733 196.062, 300.308 195.915, 298.245 195.847, 296.687 195.625, 295.115 195.418, 293.895 " />
            <path fill="none" stroke-width="3.0" stroke-linecap="butt" stroke-opacity="1.0" stroke="rgb(0, 0, 0)" stroke-linejoin="round" d=" M 195.440, 294.232 195.418, 293.993 " />
            <path fill="none" stroke-width="3.0" stroke-linecap="butt" stroke-opacity="1.0" stroke="rgb(0, 0, 0)" stroke-linejoin="round" d=" M 195.466, 294.903 195.422, 294.078 195.418, 294.006 " />
            <path fill="none" stroke-width="3.0" stroke-linecap="butt" stroke-opacity="1.0" stroke="rgb(0, 0, 0)" stroke-linejoin="round" d=" M 161.639, 209.977 161.726, 209.367 161.748, 207.775 161.695, 207.111 " />
            <path fill="none" stroke-width="3.0" stroke-linecap="butt" stroke-opacity="1.0" stroke="rgb(0, 0, 0)" stroke-linejoin="round" d=" M 161.896, 205.246 161.961, 205.143 162.727, 203.924 163.663, 202.726 164.687, 201.530 165.768, 200.335 166.516, 199.559 " />
            <path fill="none" stroke-width="3.0" stroke-linecap="butt" stroke-opacity="1.0" stroke="rgb(0, 0, 0)" stroke-linejoin="round" d=" M 161.721, 207.947 161.695, 207.111 161.677, 206.501 161.961, 205.143 " />
            <path fill="none" stroke-width="3.0" stroke-linecap="butt" stroke-opacity="1.0" stroke="rgb(0, 0, 0)" stroke-linejoin="round" d=" M 165.649, 200.442 166.516, 199.559 166.794, 199.277 167.959, 198.104 169.113, 196.907 170.234, 195.675 171.322, 194.418 172.365, 193.147 173.350, 191.868 174.264, 190.589 174.480, 190.266 175.356, 188.941 176.138, 187.614 176.826, 186.276 177.350, 185.230 " />
            <path fill="none" stroke-width="3.0" stroke-linecap="butt" stroke-opacity="1.0" stroke="rgb(0, 0, 0)" stroke-linejoin="round" d=" M 171.099, 150.981 170.712, 151.944 170.512, 152.442 169.981, 153.967 169.518, 155.557 169.113, 157.212 168.725, 158.942 168.330, 160.771 167.999, 162.700 167.813, 164.650 167.785, 166.530 167.894, 168.242 168.028, 169.701 167.941, 170.770 167.686, 171.776 167.300, 172.674 166.782, 173.524 166.102, 174.406 165.027, 175.639 164.061, 176.820 163.138, 178.127 162.305, 179.517 161.592, 180.957 161.006, 182.429 160.534, 183.916 160.146, 185.407 159.812, 186.804 159.790, 186.895 " />
            <path fill="none" stroke-width="3.0" stroke-linecap="butt" stroke-opacity="1.0" stroke="rgb(0, 0, 0)" stroke-linejoin="round" d=" M 192.522, 94.309 193.037, 93.655 193.853, 93.691 194.779, 94.223 195.186, 95.332 " />
            <path fill="none" stroke-width="3.0" stroke-linecap="butt" stroke-opacity="1.0" stroke="rgb(0, 0, 0)" stroke-linejoin="round" d=" M 192.522, 94.309 192.445, 94.513 192.422, 94.658 " />
            <path fill="none" stroke-width="3.0" stroke-linecap="butt" stroke-opacity="1.0" stroke="rgb(0, 0, 0)" stroke-linejoin="round" d=" M 192.494, 95.444 192.484, 95.337 192.437, 94.816 192.422, 94.658 192.442, 94.625 192.450, 94.611 192.515, 94.501 192.745, 94.114 192.824, 94.116 193.409, 94.135 194.028, 94.624 194.455, 95.467 194.641, 96.582 194.734, 97.756 194.769, 98.884 194.701, 99.850 " />
            <path fill="none" stroke-width="3.0" stroke-linecap="butt" stroke-opacity="1.0" stroke="rgb(0, 0, 0)" stroke-linejoin="round" d=" M 192.944, 93.955 192.745, 94.114 " />
            <path fill="none" stroke-width="3.0" stroke-linecap="butt" stroke-opacity="1.0" stroke="rgb(0, 0, 0)" stroke-linejoin="round" d=" M 192.620, 94.795 192.732, 94.445 193.126, 94.441 193.465, 94.781 193.555, 94.872 193.578, 94.895 193.928, 95.701 194.189, 96.699 194.348, 97.764 194.409, 98.823 194.314, 99.779 194.218, 100.376 194.127, 100.644 194.095, 100.738 193.937, 100.942 193.695, 100.965 193.410, 100.681 193.185, 100.130 193.091, 99.607 " />
            <path fill="none" stroke-width="3.0" stroke-linecap="butt" stroke-opacity="1.0" stroke="rgb(0, 0, 0)" stroke-linejoin="round" d=" M 193.636, 96.681 193.660, 96.968 193.661, 96.984 193.662, 96.996 193.677, 97.175 193.690, 97.326 193.706, 97.519 193.752, 98.089 193.847, 98.874 193.904, 99.551 193.919, 99.729 193.927, 99.830 " />
            <path fill="none" stroke-width="3.0" stroke-linecap="butt" stroke-opacity="1.0" stroke="rgb(0, 0, 0)" stroke-linejoin="round" d=" M 193.509, 96.335 193.252, 95.863 " />
            <path fill="none" stroke-width="3.0" stroke-linecap="butt" stroke-opacity="1.0" stroke="rgb(0, 0, 0)" stroke-linejoin="round" d=" M 192.982, 95.286 193.252, 95.863 193.002, 96.076 " />
            <path fill="none" stroke-width="3.0" stroke-linecap="butt" stroke-opacity="1.0" stroke="rgb(0, 0, 0)" stroke-linejoin="round" d=" M 192.437, 94.816 192.417, 95.490 192.790, 96.262 192.857, 96.402 193.245, 96.921 193.314, 97.014 193.593, 97.373 193.706, 97.519 " />
            <path fill="none" stroke-width="3.0" stroke-linecap="butt" stroke-opacity="1.0" stroke="rgb(0, 0, 0)" stroke-linejoin="round" d=" M 193.591, 95.295 193.544, 95.833 193.638, 96.508 " />
            <path fill="none" stroke-width="3.0" stroke-linecap="butt" stroke-opacity="1.0" stroke="rgb(0, 0, 0)" stroke-linejoin="round" d=" M 193.407, 94.833 193.407, 94.833 193.582, 95.272 193.591, 95.295 193.593, 95.299 193.609, 95.339 " />
            <path fill="none" stroke-width="3.0" stroke-linecap="butt" stroke-opacity="1.0" stroke="rgb(0, 0, 0)" stroke-linejoin="round" d=" M 192.815, 96.269 192.571, 95.643 192.494, 95.444 " />
            <path fill="none" stroke-width="3.0" stroke-linecap="butt" stroke-opacity="1.0" stroke="rgb(0, 0, 0)" stroke-linejoin="round" d=" M 193.193, 96.957 193.237, 97.280 " />
            <path fill="none" stroke-width="3.0" stroke-linecap="butt" stroke-opacity="1.0" stroke="rgb(0, 0, 0)" stroke-linejoin="round" d=" M 193.302, 97.695 192.997, 97.399 193.237, 97.280 193.419, 97.296 " />
            <path fill="none" stroke-width="3.0" stroke-linecap="butt" stroke-opacity="1.0" stroke="rgb(0, 0, 0)" stroke-linejoin="round" d=" M 192.790, 96.262 192.834, 96.821 193.193, 96.957 193.245, 96.921 " />
            <path fill="none" stroke-width="3.0" stroke-linecap="butt" stroke-opacity="1.0" stroke="rgb(0, 0, 0)" stroke-linejoin="round" d=" M 193.695, 100.965 194.068, 101.025 194.311, 100.976 194.523, 100.906 194.606, 100.878 194.723, 100.840 " />
            <path fill="none" stroke-width="3.0" stroke-linecap="butt" stroke-opacity="1.0" stroke="rgb(0, 0, 0)" stroke-linejoin="round" d=" M 193.848, 100.524 193.726, 100.674 " />
            <path fill="none" stroke-width="3.0" stroke-linecap="butt" stroke-opacity="1.0" stroke="rgb(0, 0, 0)" stroke-linejoin="round" d=" M 193.644, 97.738 193.711, 98.243 193.306, 98.592 " />
            <path fill="none" stroke-width="3.0" stroke-linecap="butt" stroke-opacity="1.0" stroke="rgb(0, 0, 0)" stroke-linejoin="round" d=" M 193.593, 97.373 193.644, 97.738 193.325, 98.084 192.823, 98.419 193.031, 97.982 " />
            <path fill="none" stroke-width="3.0" stroke-linecap="butt" stroke-opacity="1.0" stroke="rgb(0, 0, 0)" stroke-linejoin="round" d=" M 183.185, 125.165 183.016, 125.361 182.553, 125.898 182.067, 126.389 180.849, 127.704 180.504, 128.120 179.272, 129.548 178.164, 131.032 177.232, 132.551 176.141, 134.685 175.521, 136.272 175.111, 137.899 174.733, 139.527 174.527, 141.034 174.476, 141.554 174.411, 142.586 174.385, 142.993 " />
            <path fill="none" stroke-width="3.0" stroke-linecap="butt" stroke-opacity="1.0" stroke="rgb(0, 0, 0)" stroke-linejoin="round" d=" M 166.223, 303.100 166.850, 303.656 166.939, 303.736 167.935, 304.643 168.931, 305.285 170.499, 305.992 171.768, 306.549 173.129, 306.928 174.599, 307.201 176.427, 307.858 177.980, 308.342 179.587, 308.559 181.255, 308.868 " />
            <path fill="none" stroke-width="3.0" stroke-linecap="butt" stroke-opacity="1.0" stroke="rgb(0, 0, 0)" stroke-linejoin="round" d=" M 165.020, 300.776 164.397, 300.624 163.926, 300.557 163.601, 300.502 163.439, 300.637 163.345, 300.940 163.323, 301.008 163.399, 301.419 163.396, 301.823 163.511, 302.277 163.880, 302.712 164.022, 302.867 164.597, 303.395 165.474, 303.630 165.920, 303.565 166.403, 303.403 166.939, 303.736 " />
            <path fill="none" stroke-width="3.0" stroke-linecap="butt" stroke-opacity="1.0" stroke="rgb(0, 0, 0)" stroke-linejoin="round" d=" M 168.883, 297.124 168.363, 297.431 167.422, 297.775 166.975, 297.991 166.720, 298.114 " />
            <path fill="none" stroke-width="3.0" stroke-linecap="butt" stroke-opacity="1.0" stroke="rgb(0, 0, 0)" stroke-linejoin="round" d=" M 166.975, 297.991 166.367, 298.022 165.892, 297.972 165.479, 298.007 164.857, 298.059 164.497, 298.518 164.452, 298.574 " />
            <path fill="none" stroke-width="3.0" stroke-linecap="butt" stroke-opacity="1.0" stroke="rgb(0, 0, 0)" stroke-linejoin="round" d=" M 165.443, 298.059 164.857, 298.059 " />
            <path fill="none" stroke-width="3.0" stroke-linecap="butt" stroke-opacity="1.0" stroke="rgb(0, 0, 0)" stroke-linejoin="round" d=" M 171.226, 295.746 169.913, 295.852 169.756, 295.864 169.755, 295.864 169.038, 295.919 168.234, 296.159 167.950, 296.383 167.890, 296.430 167.567, 296.685 " />
            <path fill="none" stroke-width="3.0" stroke-linecap="butt" stroke-opacity="1.0" stroke="rgb(0, 0, 0)" stroke-linejoin="round" d=" M 170.312, 297.236 169.478, 297.040 169.335, 297.060 168.883, 297.124 " />
            <path fill="none" stroke-width="3.0" stroke-linecap="butt" stroke-opacity="1.0" stroke="rgb(0, 0, 0)" stroke-linejoin="round" d=" M 168.677, 296.308 169.510, 296.139 " />
            <path fill="none" stroke-width="3.0" stroke-linecap="butt" stroke-opacity="1.0" stroke="rgb(0, 0, 0)" stroke-linejoin="round" d=" M 165.361, 297.851 165.227, 297.786 164.662, 297.510 164.841, 297.416 165.104, 297.278 165.804, 297.243 166.399, 297.267 " />
            <path fill="none" stroke-width="3.0" stroke-linecap="butt" stroke-opacity="1.0" stroke="rgb(0, 0, 0)" stroke-linejoin="round" d=" M 167.128, 296.423 166.757, 296.268 166.305, 296.138 165.629, 296.446 165.262, 296.720 165.187, 296.813 164.852, 297.225 " />
            <path fill="none" stroke-width="3.0" stroke-linecap="butt" stroke-opacity="1.0" stroke="rgb(0, 0, 0)" stroke-linejoin="round" d=" M 167.839, 299.022 167.413, 300.011 167.336, 300.192 167.291, 300.296 167.286, 300.306 166.401, 300.187 166.106, 300.232 166.026, 300.269 165.470, 300.525 165.042, 300.764 165.020, 300.776 164.683, 300.965 " />
            <path fill="none" stroke-width="3.0" stroke-linecap="butt" stroke-opacity="1.0" stroke="rgb(0, 0, 0)" stroke-linejoin="round" d=" M 179.597, 181.676 179.275, 182.800 178.872, 184.085 178.453, 185.397 178.373, 185.656 178.046, 186.721 " />
            <path fill="none" stroke-width="3.0" stroke-linecap="butt" stroke-opacity="1.0" stroke="rgb(0, 0, 0)" stroke-linejoin="round" d=" M 176.749, 293.787 176.514, 293.857 " />
            <path fill="none" stroke-width="3.0" stroke-linecap="butt" stroke-opacity="1.0" stroke="rgb(0, 0, 0)" stroke-linejoin="round" d=" M 173.061, 294.313 172.427, 294.231 171.247, 294.163 170.249, 294.428 169.857, 294.542 169.645, 294.604 " />
            <path fill="none" stroke-width="3.0" stroke-linecap="butt" stroke-opacity="1.0" stroke="rgb(0, 0, 0)" stroke-linejoin="round" d=" M 184.602, 292.140 184.176, 292.225 183.576, 292.313 182.694, 292.526 181.796, 292.830 180.924, 293.098 180.865, 293.116 179.916, 293.439 178.913, 293.686 177.794, 293.809 176.550, 293.851 176.544, 293.852 176.514, 293.857 175.333, 294.032 174.152, 294.225 173.061, 294.313 172.959, 294.321 " />
            <path fill="none" stroke-width="3.0" stroke-linecap="butt" stroke-opacity="1.0" stroke="rgb(0, 0, 0)" stroke-linejoin="round" d=" M 180.924, 293.098 179.788, 293.006 178.636, 293.106 178.432, 293.123 " />
            <path fill="none" stroke-width="3.0" stroke-linecap="butt" stroke-opacity="1.0" stroke="rgb(0, 0, 0)" stroke-linejoin="round" d=" M 178.636, 293.106 178.015, 293.020 176.681, 292.970 176.645, 292.972 175.512, 293.038 " />
            <path fill="none" stroke-width="3.0" stroke-linecap="butt" stroke-opacity="1.0" stroke="rgb(0, 0, 0)" stroke-linejoin="round" d=" M 168.153, 294.194 167.772, 294.472 " />
            <path fill="none" stroke-width="3.0" stroke-linecap="butt" stroke-opacity="1.0" stroke="rgb(0, 0, 0)" stroke-linejoin="round" d=" M 169.857, 294.542 169.354, 294.483 168.583, 294.169 168.153, 294.194 167.440, 294.657 167.118, 294.881 166.937, 294.997 166.847, 295.055 166.447, 295.312 " />
            <path fill="none" stroke-width="3.0" stroke-linecap="butt" stroke-opacity="1.0" stroke="rgb(0, 0, 0)" stroke-linejoin="round" d=" M 166.847, 295.183 166.881, 295.175 167.475, 295.037 167.475, 295.037 167.595, 295.009 " />
            <path fill="none" stroke-width="3.0" stroke-linecap="butt" stroke-opacity="1.0" stroke="rgb(0, 0, 0)" stroke-linejoin="round" d=" M 179.033, 182.606 179.597, 181.676 179.800, 181.340 180.668, 179.613 181.412, 177.829 182.081, 176.114 182.689, 174.501 183.330, 172.969 184.102, 171.523 185.009, 170.130 185.955, 168.738 186.860, 167.309 187.685, 165.824 188.403, 164.281 189.011, 162.686 189.270, 161.842 189.512, 161.051 " />
            <path fill="none" stroke-width="3.0" stroke-linecap="butt" stroke-opacity="1.0" stroke="rgb(0, 0, 0)" stroke-linejoin="round" d=" M 177.912, 184.219 178.842, 182.895 179.033, 182.606 178.123, 184.022 177.350, 185.230 177.203, 185.460 " />
            <path fill="none" stroke-width="3.0" stroke-linecap="butt" stroke-opacity="1.0" stroke="rgb(0, 0, 0)" stroke-linejoin="round" d=" M 202.440, 204.921 202.593, 204.468 202.713, 204.113 203.017, 203.326 203.360, 202.552 203.483, 202.312 " />
            <path fill="none" stroke-width="3.0" stroke-linecap="butt" stroke-opacity="1.0" stroke="rgb(0, 0, 0)" stroke-linejoin="round" d=" M 203.346, 202.525 203.483, 202.312 203.842, 201.755 204.398, 201.010 205.006, 200.293 205.642, 199.596 206.275, 198.919 206.875, 198.263 207.435, 197.637 207.914, 196.940 208.426, 196.169 209.211, 194.917 209.227, 194.892 " />
            <path fill="none" stroke-width="3.0" stroke-linecap="butt" stroke-opacity="1.0" stroke="rgb(0, 0, 0)" stroke-linejoin="round" d=" M 201.293, 210.429 201.402, 209.871 201.425, 209.750 201.427, 209.741 201.427, 209.740 201.427, 209.740 201.427, 209.739 201.479, 209.472 201.671, 208.522 201.867, 207.580 202.068, 206.652 202.275, 205.744 202.488, 204.861 202.593, 204.468 " />
            <path fill="none" stroke-width="3.0" stroke-linecap="butt" stroke-opacity="1.0" stroke="rgb(0, 0, 0)" stroke-linejoin="round" d=" M 209.211, 194.917 209.792, 194.021 210.296, 193.228 210.696, 192.633 210.725, 192.591 210.751, 192.552 211.183, 192.026 " />
            <path fill="none" stroke-width="3.0" stroke-linecap="butt" stroke-opacity="1.0" stroke="rgb(0, 0, 0)" stroke-linejoin="round" d=" M 179.717, 243.603 179.909, 244.361 180.035, 244.858 180.089, 245.070 180.145, 245.405 180.325, 246.466 180.345, 246.589 180.400, 247.200 180.459, 247.867 180.485, 248.167 " />
            <path fill="none" stroke-width="3.0" stroke-linecap="butt" stroke-opacity="1.0" stroke="rgb(0, 0, 0)" stroke-linejoin="round" d=" M 179.066, 241.650 179.139, 241.885 179.532, 243.135 179.909, 244.361 " />
            <path fill="none" stroke-width="3.0" stroke-linecap="butt" stroke-opacity="1.0" stroke="rgb(0, 0, 0)" stroke-linejoin="round" d=" M 178.422, 239.584 178.500, 239.867 178.861, 241.191 179.139, 241.885 " />
            <path fill="none" stroke-width="3.0" stroke-linecap="butt" stroke-opacity="1.0" stroke="rgb(0, 0, 0)" stroke-linejoin="round" d=" M 180.459, 247.867 180.532, 249.281 180.579, 250.879 180.602, 252.474 180.616, 254.070 180.645, 255.662 180.697, 257.254 180.788, 258.844 180.922, 260.427 181.097, 262.002 181.189, 262.742 181.382, 264.326 181.618, 265.894 181.891, 267.448 182.201, 268.988 182.559, 270.514 182.962, 272.031 183.397, 273.549 183.855, 275.075 184.310, 276.614 184.734, 278.164 184.971, 279.172 185.255, 280.653 185.273, 280.748 185.542, 282.289 " />
            <path fill="none" stroke-width="3.0" stroke-linecap="butt" stroke-opacity="1.0" stroke="rgb(0, 0, 0)" stroke-linejoin="round" d=" M 211.283, 101.178 211.291, 101.118 211.293, 101.102 211.347, 100.658 211.437, 99.920 211.662, 99.327 " />
            <path fill="none" stroke-width="3.0" stroke-linecap="butt" stroke-opacity="1.0" stroke="rgb(0, 0, 0)" stroke-linejoin="round" d=" M 259.224, 164.622 259.281, 165.756 259.143, 167.044 259.007, 168.173 259.022, 168.326 259.132, 169.102 259.167, 169.259 259.377, 169.855 259.450, 170.007 259.887, 170.441 260.047, 170.498 260.344, 170.604 260.537, 170.651 260.947, 170.664 261.170, 170.606 261.252, 170.567 261.378, 170.506 261.453, 170.470 261.416, 170.514 261.252, 170.567 " />
            <path fill="none" stroke-width="3.0" stroke-linecap="butt" stroke-opacity="1.0" stroke="rgb(0, 0, 0)" stroke-linejoin="round" d=" M 257.395, 166.971 257.426, 166.173 257.384, 165.052 257.411, 164.576 " />
            <path fill="none" stroke-width="3.0" stroke-linecap="butt" stroke-opacity="1.0" stroke="rgb(0, 0, 0)" stroke-linejoin="round" d=" M 253.724, 160.779 253.792, 161.083 253.919, 161.672 254.062, 162.340 254.196, 163.176 254.393, 164.188 254.478, 165.308 254.658, 166.146 254.598, 167.180 254.619, 167.451 254.799, 168.258 255.034, 168.856 255.150, 169.060 255.386, 169.420 255.669, 169.673 256.006, 169.821 256.324, 169.872 256.633, 169.874 256.952, 169.796 257.157, 169.631 257.206, 169.553 257.411, 169.200 257.414, 168.723 257.367, 168.168 257.452, 167.433 257.395, 166.971 257.329, 166.433 " />
            <path fill="none" stroke-width="3.0" stroke-linecap="butt" stroke-opacity="1.0" stroke="rgb(0, 0, 0)" stroke-linejoin="round" d=" M 248.710, 165.760 248.704, 166.034 248.737, 166.356 248.916, 166.801 249.095, 167.072 249.422, 167.319 249.685, 167.459 250.040, 167.542 250.373, 167.521 250.711, 167.400 250.956, 167.170 251.191, 166.772 251.365, 166.221 251.450, 165.918 251.748, 165.172 251.935, 164.157 252.109, 163.031 252.366, 161.874 252.819, 160.834 252.919, 160.470 252.933, 160.165 " />
            <path fill="none" stroke-width="3.0" stroke-linecap="butt" stroke-opacity="1.0" stroke="rgb(0, 0, 0)" stroke-linejoin="round" d=" M 216.277, 286.185 216.858, 286.547 217.484, 286.938 " />
            <path fill="none" stroke-width="3.0" stroke-linecap="butt" stroke-opacity="1.0" stroke="rgb(0, 0, 0)" stroke-linejoin="round" d=" M 215.300, 285.843 215.812, 286.074 216.858, 286.547 " />
            <path fill="none" stroke-width="3.0" stroke-linecap="butt" stroke-opacity="1.0" stroke="rgb(0, 0, 0)" stroke-linejoin="round" d=" M 255.269, 146.679 255.213, 146.129 255.209, 146.102 255.207, 146.085 255.191, 145.952 255.140, 145.538 255.006, 144.611 254.909, 143.921 254.779, 143.204 254.611, 142.471 254.395, 141.735 254.050, 140.582 253.767, 139.818 253.432, 139.081 252.874, 137.857 252.519, 137.130 252.164, 136.467 251.205, 134.551 250.919, 133.979 250.635, 133.414 250.312, 132.796 249.915, 132.081 249.448, 131.247 248.920, 130.311 248.328, 129.344 247.743, 128.423 " />
            <path fill="none" stroke-width="3.0" stroke-linecap="butt" stroke-opacity="1.0" stroke="rgb(0, 0, 0)" stroke-linejoin="round" d=" M 213.990, 273.846 213.207, 273.803 213.087, 273.797 212.818, 273.782 " />
            <path fill="none" stroke-width="3.0" stroke-linecap="butt" stroke-opacity="1.0" stroke="rgb(0, 0, 0)" stroke-linejoin="round" d=" M 217.100, 273.305 217.093, 273.305 216.435, 273.375 215.766, 273.509 215.040, 273.711 214.444, 273.838 214.219, 273.887 213.606, 274.098 213.555, 274.115 213.551, 274.116 213.364, 274.181 213.236, 274.220 213.216, 274.226 213.212, 274.227 212.533, 274.435 " />
            <path fill="none" stroke-width="3.0" stroke-linecap="butt" stroke-opacity="1.0" stroke="rgb(0, 0, 0)" stroke-linejoin="round" d=" M 211.874, 274.262 211.719, 274.251 211.014, 274.200 210.511, 274.175 210.364, 274.168 " />
            <path fill="none" stroke-width="3.0" stroke-linecap="butt" stroke-opacity="1.0" stroke="rgb(0, 0, 0)" stroke-linejoin="round" d=" M 241.887, 156.307 241.792, 156.806 241.317, 157.795 241.063, 158.305 240.906, 158.732 240.823, 159.177 240.672, 160.049 240.547, 160.612 240.535, 160.670 " />
            <path fill="none" stroke-width="3.0" stroke-linecap="butt" stroke-opacity="1.0" stroke="rgb(0, 0, 0)" stroke-linejoin="round" d=" M 240.547, 160.612 240.488, 160.746 240.304, 161.137 240.173, 161.422 " />
            <path fill="none" stroke-width="3.0" stroke-linecap="butt" stroke-opacity="1.0" stroke="rgb(0, 0, 0)" stroke-linejoin="round" d=" M 193.812, 114.024 193.640, 114.331 193.639, 114.333 193.637, 114.336 193.636, 114.338 193.193, 115.125 " />
            <path fill="none" stroke-width="3.0" stroke-linecap="butt" stroke-opacity="1.0" stroke="rgb(0, 0, 0)" stroke-linejoin="round" d=" M 207.216, 273.233 207.293, 273.138 207.582, 273.185 " />
            <path fill="none" stroke-width="3.0" stroke-linecap="butt" stroke-opacity="1.0" stroke="rgb(0, 0, 0)" stroke-linejoin="round" d=" M 208.282, 273.349 207.872, 273.156 207.293, 273.138 " />
            <path fill="none" stroke-width="3.0" stroke-linecap="butt" stroke-opacity="1.0" stroke="rgb(0, 0, 0)" stroke-linejoin="round" d=" M 205.819, 273.442 205.502, 273.380 204.931, 273.139 204.723, 273.254 204.252, 273.406 204.176, 273.566 " />
            <path fill="none" stroke-width="3.0" stroke-linecap="butt" stroke-opacity="1.0" stroke="rgb(0, 0, 0)" stroke-linejoin="round" d=" M 203.331, 274.080 202.736, 273.872 201.979, 273.752 201.754, 273.748 201.210, 274.151 201.063, 274.725 " />
            <path fill="none" stroke-width="3.0" stroke-linecap="butt" stroke-opacity="1.0" stroke="rgb(0, 0, 0)" stroke-linejoin="round" d=" M 226.203, 215.650 226.206, 215.577 226.286, 214.006 226.351, 213.155 226.397, 212.298 226.426, 211.434 226.426, 210.557 226.390, 208.631 226.355, 207.724 226.273, 206.824 226.163, 205.942 226.046, 205.076 225.911, 203.995 " />
            <path fill="none" stroke-width="3.0" stroke-linecap="butt" stroke-opacity="1.0" stroke="rgb(0, 0, 0)" stroke-linejoin="round" d=" M 155.416, 224.548 155.423, 224.521 155.645, 223.658 155.766, 222.894 155.850, 222.182 155.935, 221.501 156.047, 220.865 156.125, 220.247 " />
            <path fill="none" stroke-width="3.0" stroke-linecap="butt" stroke-opacity="1.0" stroke="rgb(0, 0, 0)" stroke-linejoin="round" d=" M 149.246, 222.864 149.244, 222.946 149.089, 224.140 149.064, 225.188 149.058, 225.425 148.965, 226.654 " />
            <path fill="none" stroke-width="3.0" stroke-linecap="butt" stroke-opacity="1.0" stroke="rgb(0, 0, 0)" stroke-linejoin="round" d=" M 154.629, 230.910 154.924, 230.857 155.340, 230.642 155.579, 230.346 155.692, 230.187 155.835, 229.729 155.870, 229.550 155.924, 228.842 155.829, 227.701 155.745, 226.570 155.607, 225.409 155.423, 224.521 " />
            <path fill="none" stroke-width="3.0" stroke-linecap="butt" stroke-opacity="1.0" stroke="rgb(0, 0, 0)" stroke-linejoin="round" d=" M 185.255, 280.653 185.443, 281.848 185.708, 283.349 185.908, 284.779 185.964, 286.155 185.883, 287.496 185.768, 288.814 185.634, 290.099 185.514, 290.895 185.451, 291.310 " />
            <path fill="none" stroke-width="3.0" stroke-linecap="butt" stroke-opacity="1.0" stroke="rgb(0, 0, 0)" stroke-linejoin="round" d=" M 147.978, 216.569 147.890, 216.839 147.461, 217.773 147.199, 218.754 147.102, 219.144 147.114, 220.168 147.067, 221.238 146.938, 221.859 146.913, 221.980 146.911, 221.986 146.852, 222.271 " />
            <path fill="none" stroke-width="3.0" stroke-linecap="butt" stroke-opacity="1.0" stroke="rgb(0, 0, 0)" stroke-linejoin="round" d=" M 178.373, 185.656 178.188, 186.208 177.793, 187.489 177.445, 188.755 177.144, 190.012 176.886, 191.267 176.664, 192.519 176.352, 194.379 176.161, 195.638 175.999, 196.899 175.868, 198.157 175.766, 199.394 175.688, 200.602 175.588, 202.534 175.550, 203.700 175.549, 204.842 175.555, 205.965 175.565, 207.074 175.576, 208.174 175.587, 209.271 175.599, 210.369 175.610, 211.470 175.621, 212.572 175.631, 213.668 175.645, 214.753 175.663, 215.827 175.690, 216.887 175.732, 217.931 175.790, 218.957 175.907, 220.810 175.963, 221.812 176.035, 222.805 176.133, 223.793 176.267, 224.777 176.436, 225.772 176.730, 227.534 176.790, 227.898 176.897, 228.549 177.074, 229.616 " />
            <path fill="none" stroke-width="3.0" stroke-linecap="butt" stroke-opacity="1.0" stroke="rgb(0, 0, 0)" stroke-linejoin="round" d=" M 193.126, 94.626 193.280, 94.843 193.283, 94.848 193.582, 95.272 " />
            <path fill="none" stroke-width="3.0" stroke-linecap="butt" stroke-opacity="1.0" stroke="rgb(0, 0, 0)" stroke-linejoin="round" d=" M 192.971, 94.784 193.280, 94.843 " />
            <path fill="none" stroke-width="3.0" stroke-linecap="butt" stroke-opacity="1.0" stroke="rgb(0, 0, 0)" stroke-linejoin="round" d=" M 174.411, 142.586 174.289, 143.572 173.986, 144.684 173.557, 145.800 173.101, 146.497 172.436, 147.804 171.835, 149.179 171.243, 150.585 170.712, 151.944 " />
            <path fill="none" stroke-width="3.0" stroke-linecap="butt" stroke-opacity="1.0" stroke="rgb(0, 0, 0)" stroke-linejoin="round" d=" M 148.985, 210.831 148.781, 211.077 148.632, 211.400 " />
            <path fill="none" stroke-width="3.0" stroke-linecap="butt" stroke-opacity="1.0" stroke="rgb(0, 0, 0)" stroke-linejoin="round" d=" M 149.045, 210.734 148.985, 210.831 148.632, 211.400 148.147, 212.685 148.171, 213.439 148.182, 213.804 " />
            <path fill="none" stroke-width="3.0" stroke-linecap="butt" stroke-opacity="1.0" stroke="rgb(0, 0, 0)" stroke-linejoin="round" d=" M 148.296, 224.511 148.145, 225.172 " />
            <path fill="none" stroke-width="3.0" stroke-linecap="butt" stroke-opacity="1.0" stroke="rgb(0, 0, 0)" stroke-linejoin="round" d=" M 157.868, 192.560 157.101, 194.111 156.364, 195.604 155.723, 196.936 155.020, 198.540 154.906, 198.845 154.474, 200.119 154.449, 200.191 " />
            <path fill="none" stroke-width="3.0" stroke-linecap="butt" stroke-opacity="1.0" stroke="rgb(0, 0, 0)" stroke-linejoin="round" d=" M 166.026, 300.269 165.678, 300.344 165.042, 300.764 " />
            <path fill="none" stroke-width="3.0" stroke-linecap="butt" stroke-opacity="1.0" stroke="rgb(0, 0, 0)" stroke-linejoin="round" d=" M 166.937, 294.997 166.837, 294.990 166.325, 294.952 165.615, 294.678 164.998, 294.829 164.570, 295.208 164.555, 295.689 164.540, 295.726 164.431, 296.101 164.462, 296.539 164.513, 296.739 " />
            <path fill="none" stroke-width="3.0" stroke-linecap="butt" stroke-opacity="1.0" stroke="rgb(0, 0, 0)" stroke-linejoin="round" d=" M 165.187, 296.813 164.866, 296.775 164.557, 296.747 164.513, 296.739 163.806, 296.607 163.664, 296.805 " />
            <path fill="none" stroke-width="3.0" stroke-linecap="butt" stroke-opacity="1.0" stroke="rgb(0, 0, 0)" stroke-linejoin="round" d=" M 163.696, 296.786 163.664, 296.805 163.255, 297.043 163.221, 297.576 163.149, 298.070 163.145, 298.592 163.157, 298.640 " />
            <path fill="none" stroke-width="3.0" stroke-linecap="butt" stroke-opacity="1.0" stroke="rgb(0, 0, 0)" stroke-linejoin="round" d=" M 163.806, 296.607 163.696, 296.786 " />
            <path fill="none" stroke-width="3.0" stroke-linecap="butt" stroke-opacity="1.0" stroke="rgb(0, 0, 0)" stroke-linejoin="round" d=" M 165.878, 300.791 164.959, 301.023 " />
            <path fill="none" stroke-width="3.0" stroke-linecap="butt" stroke-opacity="1.0" stroke="rgb(0, 0, 0)" stroke-linejoin="round" d=" M 163.742, 301.017 163.439, 300.637 " />
            <path fill="none" stroke-width="3.0" stroke-linecap="butt" stroke-opacity="1.0" stroke="rgb(0, 0, 0)" stroke-linejoin="round" d=" M 176.645, 292.972 175.825, 292.362 174.851, 292.232 173.832, 292.209 172.959, 291.796 172.335, 291.842 170.857, 292.144 170.271, 292.337 170.123, 292.500 169.291, 293.419 " />
            <path fill="none" stroke-width="3.0" stroke-linecap="butt" stroke-opacity="1.0" stroke="rgb(0, 0, 0)" stroke-linejoin="round" d=" M 169.832, 292.899 169.295, 293.418 168.924, 293.776 " />
            <path fill="none" stroke-width="3.0" stroke-linecap="butt" stroke-opacity="1.0" stroke="rgb(0, 0, 0)" stroke-linejoin="round" d=" M 169.832, 295.722 169.755, 295.864 " />
            <path fill="none" stroke-width="3.0" stroke-linecap="butt" stroke-opacity="1.0" stroke="rgb(0, 0, 0)" stroke-linejoin="round" d=" M 165.887, 296.521 165.262, 296.720 " />
            <path fill="none" stroke-width="3.0" stroke-linecap="butt" stroke-opacity="1.0" stroke="rgb(0, 0, 0)" stroke-linejoin="round" d=" M 164.497, 298.518 164.055, 298.591 163.422, 298.584 163.157, 298.640 163.030, 298.667 " />
            <path fill="none" stroke-width="3.0" stroke-linecap="butt" stroke-opacity="1.0" stroke="rgb(0, 0, 0)" stroke-linejoin="round" d=" M 163.150, 298.670 163.030, 298.667 162.791, 298.661 162.723, 298.996 162.672, 299.367 162.670, 299.733 162.760, 300.102 162.954, 300.481 163.269, 300.880 163.345, 300.940 " />
            <path fill="none" stroke-width="3.0" stroke-linecap="butt" stroke-opacity="1.0" stroke="rgb(0, 0, 0)" stroke-linejoin="round" d=" M 196.075, 241.174 196.050, 240.924 195.952, 239.945 195.978, 238.839 196.115, 237.699 196.331, 236.505 196.581, 235.284 196.841, 234.065 197.096, 232.861 197.344, 231.682 197.581, 230.535 197.809, 229.425 198.035, 228.351 198.265, 227.313 198.501, 226.306 198.748, 225.320 199.003, 224.344 199.260, 223.374 199.510, 222.397 199.745, 221.415 199.949, 220.424 200.126, 219.429 200.274, 218.431 200.341, 217.897 " />
            <path fill="none" stroke-width="3.0" stroke-linecap="butt" stroke-opacity="1.0" stroke="rgb(0, 0, 0)" stroke-linejoin="round" d=" M 197.058, 277.987 197.129, 277.430 197.286, 276.190 197.440, 275.324 197.599, 274.424 198.026, 272.725 198.452, 271.054 198.834, 269.373 199.135, 267.641 199.344, 265.844 199.462, 263.994 199.502, 262.108 199.518, 261.118 199.480, 259.224 199.374, 257.325 199.201, 255.427 198.947, 253.524 198.644, 251.606 198.255, 249.682 197.833, 247.774 197.584, 246.704 197.134, 244.923 196.670, 243.285 196.257, 241.818 196.050, 240.924 " />
            <path fill="none" stroke-width="3.0" stroke-linecap="butt" stroke-opacity="1.0" stroke="rgb(0, 0, 0)" stroke-linejoin="round" d=" M 170.123, 292.500 169.444, 292.198 168.460, 292.054 167.786, 292.329 167.355, 292.608 167.135, 292.884 167.036, 293.254 166.857, 293.706 166.769, 294.529 166.837, 294.990 " />
            <path fill="none" stroke-width="3.0" stroke-linecap="butt" stroke-opacity="1.0" stroke="rgb(0, 0, 0)" stroke-linejoin="round" d=" M 247.952, 128.775 247.763, 128.456 247.739, 128.417 247.490, 127.999 247.047, 127.271 246.585, 126.556 246.057, 125.827 245.114, 124.548 244.517, 123.793 243.860, 123.034 242.146, 121.151 241.491, 120.436 241.028, 119.936 " />
            <path fill="none" stroke-width="3.0" stroke-linecap="butt" stroke-opacity="1.0" stroke="rgb(0, 0, 0)" stroke-linejoin="round" d=" M 241.151, 120.131 241.058, 119.994 " />
            <path fill="none" stroke-width="3.0" stroke-linecap="butt" stroke-opacity="1.0" stroke="rgb(0, 0, 0)" stroke-linejoin="round" d=" M 241.272, 120.413 241.087, 120.052 241.058, 119.994 241.055, 119.988 241.049, 119.978 241.028, 119.936 240.926, 119.735 " />
            <path fill="none" stroke-width="3.0" stroke-linecap="butt" stroke-opacity="1.0" stroke="rgb(0, 0, 0)" stroke-linejoin="round" d=" M 241.196, 120.565 241.003, 119.973 240.989, 119.929 240.978, 119.895 240.975, 119.888 240.971, 119.874 240.966, 119.859 240.926, 119.735 240.853, 119.514 " />
            <path fill="none" stroke-width="3.0" stroke-linecap="butt" stroke-opacity="1.0" stroke="rgb(0, 0, 0)" stroke-linejoin="round" d=" M 241.769, 120.846 241.049, 119.978 " />
            <path fill="none" stroke-width="3.0" stroke-linecap="butt" stroke-opacity="1.0" stroke="rgb(0, 0, 0)" stroke-linejoin="round" d=" M 256.096, 149.290 256.144, 148.601 256.192, 147.890 255.994, 147.216 255.652, 146.660 255.191, 145.952 " />
            <path fill="none" stroke-width="3.0" stroke-linecap="butt" stroke-opacity="1.0" stroke="rgb(0, 0, 0)" stroke-linejoin="round" d=" M 255.252, 146.183 255.207, 146.085 " />
            <path fill="none" stroke-width="3.0" stroke-linecap="butt" stroke-opacity="1.0" stroke="rgb(0, 0, 0)" stroke-linejoin="round" d=" M 218.085, 263.967 218.101, 264.636 218.110, 265.197 218.127, 266.211 " />
            <path fill="none" stroke-width="3.0" stroke-linecap="butt" stroke-opacity="1.0" stroke="rgb(0, 0, 0)" stroke-linejoin="round" d=" M 216.335, 254.298 216.594, 255.198 216.950, 256.653 217.271, 258.159 217.573, 259.707 217.804, 261.099 217.835, 261.287 " />
            <path fill="none" stroke-width="3.0" stroke-linecap="butt" stroke-opacity="1.0" stroke="rgb(0, 0, 0)" stroke-linejoin="round" d=" M 229.474, 280.303 229.467, 279.793 229.419, 279.522 " />
            <path fill="none" stroke-width="3.0" stroke-linecap="butt" stroke-opacity="1.0" stroke="rgb(0, 0, 0)" stroke-linejoin="round" d=" M 213.087, 273.797 212.822, 273.739 212.579, 273.686 212.449, 273.658 212.088, 273.579 211.938, 273.574 211.732, 273.567 211.502, 273.560 211.280, 273.553 211.194, 273.555 210.670, 273.572 210.602, 273.574 210.371, 273.582 " />
            <path fill="none" stroke-width="3.0" stroke-linecap="butt" stroke-opacity="1.0" stroke="rgb(0, 0, 0)" stroke-linejoin="round" d=" M 224.514, 190.700 224.548, 189.937 224.579, 189.391 224.591, 189.180 224.634, 188.445 224.704, 187.054 " />
            <path fill="none" stroke-width="3.0" stroke-linecap="butt" stroke-opacity="1.0" stroke="rgb(0, 0, 0)" stroke-linejoin="round" d=" M 224.857, 194.072 224.784, 193.359 224.775, 193.268 224.705, 192.466 224.647, 191.661 224.603, 190.854 224.580, 190.043 224.579, 189.391 " />
            <path fill="none" stroke-width="3.0" stroke-linecap="butt" stroke-opacity="1.0" stroke="rgb(0, 0, 0)" stroke-linejoin="round" d=" M 248.445, 129.619 247.952, 128.775 247.743, 128.423 247.739, 128.417 " />
            <path fill="none" stroke-width="3.0" stroke-linecap="butt" stroke-opacity="1.0" stroke="rgb(0, 0, 0)" stroke-linejoin="round" d=" M 199.598, 275.243 198.754, 275.069 198.259, 275.026 197.839, 275.119 197.440, 275.324 " />
            <path fill="none" stroke-width="3.0" stroke-linecap="butt" stroke-opacity="1.0" stroke="rgb(0, 0, 0)" stroke-linejoin="round" d=" M 202.087, 211.695 202.425, 212.628 202.782, 213.578 203.161, 214.544 203.564, 215.526 203.987, 216.524 204.419, 217.543 204.861, 218.581 205.307, 219.628 205.737, 220.683 206.133, 221.748 206.489, 222.836 206.838, 223.978 206.930, 224.228 207.199, 224.954 207.240, 225.064 207.282, 225.178 " />
            <path fill="none" stroke-width="3.0" stroke-linecap="butt" stroke-opacity="1.0" stroke="rgb(0, 0, 0)" stroke-linejoin="round" d=" M 154.173, 230.813 154.473, 230.906 154.629, 230.910 154.301, 230.936 153.912, 230.750 153.757, 230.252 153.698, 230.159 153.624, 229.509 153.497, 228.784 153.283, 228.117 153.215, 227.900 153.036, 226.779 153.043, 225.676 " />
            <path fill="none" stroke-width="3.0" stroke-linecap="butt" stroke-opacity="1.0" stroke="rgb(0, 0, 0)" stroke-linejoin="round" d=" M 154.473, 230.906 154.545, 230.892 154.799, 230.840 155.030, 230.704 " />
            <path fill="none" stroke-width="3.0" stroke-linecap="butt" stroke-opacity="1.0" stroke="rgb(0, 0, 0)" stroke-linejoin="round" d=" M 152.541, 222.596 152.611, 222.461 152.686, 222.317 " />
            <path fill="none" stroke-width="3.0" stroke-linecap="butt" stroke-opacity="1.0" stroke="rgb(0, 0, 0)" stroke-linejoin="round" d=" M 151.542, 227.190 151.595, 227.023 151.967, 225.841 152.356, 224.658 152.452, 223.464 152.611, 222.461 " />
            <path fill="none" stroke-width="3.0" stroke-linecap="butt" stroke-opacity="1.0" stroke="rgb(0, 0, 0)" stroke-linejoin="round" d=" M 149.501, 230.751 149.685, 230.885 149.832, 230.992 150.231, 230.911 150.612, 230.790 150.937, 230.531 151.035, 230.383 151.327, 229.884 151.537, 229.172 151.586, 228.960 151.772, 228.071 151.595, 227.023 " />
            <path fill="none" stroke-width="3.0" stroke-linecap="butt" stroke-opacity="1.0" stroke="rgb(0, 0, 0)" stroke-linejoin="round" d=" M 195.416, 294.488 195.417, 294.191 195.417, 294.043 195.418, 294.006 195.418, 293.993 195.418, 293.895 195.422, 292.912 195.441, 291.321 195.481, 289.710 195.569, 288.585 195.608, 288.086 195.678, 287.561 195.699, 287.403 195.824, 286.464 195.891, 286.062 196.094, 284.841 196.368, 283.197 196.623, 281.513 196.851, 279.773 196.925, 279.142 196.982, 278.669 197.129, 277.430 " />
            <path fill="none" stroke-width="3.0" stroke-linecap="butt" stroke-opacity="1.0" stroke="rgb(0, 0, 0)" stroke-linejoin="round" d=" M 159.812, 186.804 159.448, 188.052 158.995, 189.558 158.498, 191.039 157.868, 192.560 157.818, 192.680 " />
            <path fill="none" stroke-width="3.0" stroke-linecap="butt" stroke-opacity="1.0" stroke="rgb(0, 0, 0)" stroke-linejoin="round" d=" M 149.103, 229.581 149.099, 229.144 149.139, 228.460 149.015, 227.671 148.965, 226.654 148.997, 226.918 149.123, 227.897 " />
            <path fill="none" stroke-width="3.0" stroke-linecap="butt" stroke-opacity="1.0" stroke="rgb(0, 0, 0)" stroke-linejoin="round" d=" M 146.938, 221.859 146.924, 221.913 146.852, 222.271 146.712, 223.180 146.937, 223.792 " />
            <path fill="none" stroke-width="3.0" stroke-linecap="butt" stroke-opacity="1.0" stroke="rgb(0, 0, 0)" stroke-linejoin="round" d=" M 146.870, 223.539 146.937, 223.792 146.956, 223.865 147.043, 224.189 " />
            <path fill="none" stroke-width="3.0" stroke-linecap="butt" stroke-opacity="1.0" stroke="rgb(0, 0, 0)" stroke-linejoin="round" d=" M 146.956, 223.865 146.861, 224.282 146.718, 224.821 146.697, 225.229 146.673, 225.484 146.755, 225.930 146.903, 226.128 146.985, 226.171 " />
            <path fill="none" stroke-width="3.0" stroke-linecap="butt" stroke-opacity="1.0" stroke="rgb(0, 0, 0)" stroke-linejoin="round" d=" M 146.830, 225.935 146.985, 226.171 146.993, 226.182 147.261, 226.381 147.552, 226.394 147.752, 226.364 148.029, 226.223 148.390, 226.089 148.606, 225.846 148.955, 225.430 149.064, 225.188 " />
            <path fill="none" stroke-width="3.0" stroke-linecap="butt" stroke-opacity="1.0" stroke="rgb(0, 0, 0)" stroke-linejoin="round" d=" M 148.171, 213.439 147.944, 213.890 147.782, 214.212 147.682, 214.469 147.720, 214.676 147.921, 214.922 148.169, 215.261 148.261, 215.312 " />
            <path fill="none" stroke-width="3.0" stroke-linecap="butt" stroke-opacity="1.0" stroke="rgb(0, 0, 0)" stroke-linejoin="round" d=" M 200.281, 218.333 200.341, 217.897 200.417, 217.342 200.539, 216.353 200.655, 215.369 200.770, 214.390 200.888, 213.417 201.014, 212.446 201.150, 211.478 201.297, 210.510 201.402, 209.871 " />
            <path fill="none" stroke-width="3.0" stroke-linecap="butt" stroke-opacity="1.0" stroke="rgb(0, 0, 0)" stroke-linejoin="round" d=" M 176.790, 227.898 176.950, 228.931 177.120, 230.097 177.289, 231.339 177.479, 232.660 177.700, 234.047 177.820, 234.780 177.898, 235.481 177.951, 236.253 178.154, 237.528 178.212, 237.886 " />
            <path fill="none" stroke-width="3.0" stroke-linecap="butt" stroke-opacity="1.0" stroke="rgb(0, 0, 0)" stroke-linejoin="round" d=" M 178.154, 237.528 178.231, 239.148 178.500, 239.867 " />
            <path fill="none" stroke-width="3.0" stroke-linecap="butt" stroke-opacity="1.0" stroke="rgb(0, 0, 0)" stroke-linejoin="round" d=" M 240.086, 161.785 240.164, 161.951 240.138, 161.635 240.145, 161.591 240.173, 161.422 240.086, 161.785 " />
            <path fill="none" stroke-width="3.0" stroke-linecap="butt" stroke-opacity="1.0" stroke="rgb(0, 0, 0)" stroke-linejoin="round" d=" M 149.115, 229.301 149.103, 229.581 149.089, 229.890 149.165, 230.412 149.192, 230.559 149.474, 230.862 149.685, 230.885 " />
            <path fill="none" stroke-width="3.0" stroke-linecap="butt" stroke-opacity="1.0" stroke="rgb(0, 0, 0)" stroke-linejoin="round" d=" M 149.474, 230.862 149.501, 230.751 " />
            <path fill="none" stroke-width="3.0" stroke-linecap="butt" stroke-opacity="1.0" stroke="rgb(0, 0, 0)" stroke-linejoin="round" d=" M 217.804, 261.099 217.932, 262.254 218.065, 263.651 218.082, 263.835 218.090, 263.916 " />
            <path fill="none" stroke-width="3.0" stroke-linecap="butt" stroke-opacity="1.0" stroke="rgb(0, 0, 0)" stroke-linejoin="round" d=" M 225.747, 202.510 225.743, 202.468 225.679, 201.764 225.568, 200.549 225.492, 199.670 225.408, 198.789 225.316, 197.913 225.221, 197.042 225.126, 196.177 225.025, 195.323 224.921, 194.476 224.817, 193.639 224.784, 193.359 " />
            <path fill="none" stroke-width="3.0" stroke-linecap="butt" stroke-opacity="1.0" stroke="rgb(0, 0, 0)" stroke-linejoin="round" d=" M 225.936, 204.219 225.911, 203.995 225.790, 202.897 " />
            <path fill="none" stroke-width="3.0" stroke-linecap="butt" stroke-opacity="1.0" stroke="rgb(0, 0, 0)" stroke-linejoin="round" d=" M 225.836, 203.364 225.790, 202.897 225.679, 201.764 " />
            <path fill="none" stroke-width="3.0" stroke-linecap="butt" stroke-opacity="1.0" stroke="rgb(0, 0, 0)" stroke-linejoin="round" d=" M 201.471, 209.876 201.667, 210.473 201.755, 210.742 201.767, 210.778 " />
            <path fill="none" stroke-width="3.0" stroke-linecap="butt" stroke-opacity="1.0" stroke="rgb(0, 0, 0)" stroke-linejoin="round" d=" M 201.777, 210.808 201.830, 210.965 202.087, 211.695 201.777, 210.808 201.767, 210.778 201.516, 210.035 201.425, 209.750 " />
            <path fill="none" stroke-width="3.0" stroke-linecap="butt" stroke-opacity="1.0" stroke="rgb(0, 0, 0)" stroke-linejoin="round" d=" M 206.930, 224.228 207.043, 224.630 207.282, 225.178 207.381, 225.376 207.932, 226.479 " />
            <path fill="none" stroke-width="3.0" stroke-linecap="butt" stroke-opacity="1.0" stroke="rgb(0, 0, 0)" stroke-linejoin="round" d=" M 207.381, 225.376 207.657, 225.986 207.932, 226.479 208.712, 227.754 209.199, 228.768 209.344, 229.070 " />
            <path fill="none" stroke-width="3.0" stroke-linecap="butt" stroke-opacity="1.0" stroke="rgb(0, 0, 0)" stroke-linejoin="round" d=" M 209.199, 228.768 209.450, 230.107 209.611, 231.580 209.866, 233.072 210.183, 234.586 210.539, 236.130 210.631, 236.525 " />
            <path fill="none" stroke-width="3.0" stroke-linecap="butt" stroke-opacity="1.0" stroke="rgb(0, 0, 0)" stroke-linejoin="round" d=" M 210.539, 236.130 210.942, 238.112 211.228, 239.755 211.521, 241.447 211.880, 243.167 212.345, 244.889 212.943, 246.560 213.655, 248.136 213.894, 248.652 214.610, 250.198 215.296, 251.672 215.911, 253.097 216.335, 254.298 216.413, 254.519 " />
            <path fill="none" stroke-width="3.0" stroke-linecap="butt" stroke-opacity="1.0" stroke="rgb(0, 0, 0)" stroke-linejoin="round" d=" M 152.811, 219.794 152.791, 220.398 152.779, 220.744 " />
            <path fill="none" stroke-width="3.0" stroke-linecap="butt" stroke-opacity="1.0" stroke="rgb(0, 0, 0)" stroke-linejoin="round" d=" M 153.086, 225.785 153.092, 225.803 " />
            <path fill="none" stroke-width="3.0" stroke-linecap="butt" stroke-opacity="1.0" stroke="rgb(0, 0, 0)" stroke-linejoin="round" d=" M 155.903, 219.850 155.958, 219.932 " />
            <path fill="none" stroke-width="3.0" stroke-linecap="butt" stroke-opacity="1.0" stroke="rgb(0, 0, 0)" stroke-linejoin="round" d=" M 156.137, 220.270 156.378, 220.854 156.524, 221.208 " />
            <path fill="none" stroke-width="3.0" stroke-linecap="butt" stroke-opacity="1.0" stroke="rgb(0, 0, 0)" stroke-linejoin="round" d=" M 156.451, 221.142 156.452, 221.145 " />
            <path fill="none" stroke-width="3.0" stroke-linecap="butt" stroke-opacity="1.0" stroke="rgb(0, 0, 0)" stroke-linejoin="round" d=" M 167.414, 296.460 167.128, 296.423 166.999, 296.406 " />
            <path fill="none" stroke-width="3.0" stroke-linecap="butt" stroke-opacity="1.0" stroke="rgb(0, 0, 0)" stroke-linejoin="round" d=" M 167.950, 296.383 167.855, 296.397 167.414, 296.460 167.267, 296.481 167.247, 296.484 167.240, 296.485 " />
            <path fill="none" stroke-width="3.0" stroke-linecap="butt" stroke-opacity="1.0" stroke="rgb(0, 0, 0)" stroke-linejoin="round" d=" M 180.035, 244.858 180.145, 245.405 " />
            <path fill="none" stroke-width="3.0" stroke-linecap="butt" stroke-opacity="1.0" stroke="rgb(0, 0, 0)" stroke-linejoin="round" d=" M 180.325, 246.466 180.400, 247.200 " />
            <path fill="none" stroke-width="3.0" stroke-linecap="butt" stroke-opacity="1.0" stroke="rgb(0, 0, 0)" stroke-linejoin="round" d=" M 185.007, 291.955 184.602, 292.140 184.448, 292.210 " />
            <path fill="none" stroke-width="3.0" stroke-linecap="butt" stroke-opacity="1.0" stroke="rgb(0, 0, 0)" stroke-linejoin="round" d=" M 185.136, 291.846 185.007, 291.955 184.847, 292.091 184.826, 292.108 184.762, 292.163 " />
            <path fill="none" stroke-width="3.0" stroke-linecap="butt" stroke-opacity="1.0" stroke="rgb(0, 0, 0)" stroke-linejoin="round" d=" M 185.319, 291.536 185.136, 291.846 185.095, 291.915 185.069, 291.958 185.050, 291.990 " />
            <path fill="none" stroke-width="3.0" stroke-linecap="butt" stroke-opacity="1.0" stroke="rgb(0, 0, 0)" stroke-linejoin="round" d=" M 185.514, 290.895 185.319, 291.536 185.269, 291.699 " />
            <path fill="none" stroke-width="3.0" stroke-linecap="butt" stroke-opacity="1.0" stroke="rgb(0, 0, 0)" stroke-linejoin="round" d=" M 187.497, 89.749 187.208, 90.415 " />
            <path fill="none" stroke-width="3.0" stroke-linecap="butt" stroke-opacity="1.0" stroke="rgb(0, 0, 0)" stroke-linejoin="round" d=" M 192.601, 147.546 192.798, 147.392 " />
            <path fill="none" stroke-width="3.0" stroke-linecap="butt" stroke-opacity="1.0" stroke="rgb(0, 0, 0)" stroke-linejoin="round" d=" M 192.668, 147.460 193.156, 146.928 " />
            <path fill="none" stroke-width="3.0" stroke-linecap="butt" stroke-opacity="1.0" stroke="rgb(0, 0, 0)" stroke-linejoin="round" d=" M 193.283, 94.848 193.217, 95.287 " />
            <path fill="none" stroke-width="3.0" stroke-linecap="butt" stroke-opacity="1.0" stroke="rgb(0, 0, 0)" stroke-linejoin="round" d=" M 193.143, 114.948 192.491, 115.548 192.175, 115.839 " />
            <path fill="none" stroke-width="3.0" stroke-linecap="butt" stroke-opacity="1.0" stroke="rgb(0, 0, 0)" stroke-linejoin="round" d=" M 193.637, 114.336 193.483, 114.527 193.143, 114.948 192.928, 115.215 192.922, 115.221 192.740, 115.448 " />
            <path fill="none" stroke-width="3.0" stroke-linecap="butt" stroke-opacity="1.0" stroke="rgb(0, 0, 0)" stroke-linejoin="round" d=" M 193.904, 99.551 193.833, 100.183 " />
            <path fill="none" stroke-width="3.0" stroke-linecap="butt" stroke-opacity="1.0" stroke="rgb(0, 0, 0)" stroke-linejoin="round" d=" M 193.727, 114.057 193.483, 114.527 " />
            <path fill="none" stroke-width="3.0" stroke-linecap="butt" stroke-opacity="1.0" stroke="rgb(0, 0, 0)" stroke-linejoin="round" d=" M 193.955, 105.036 194.178, 105.957 " />
            <path fill="none" stroke-width="3.0" stroke-linecap="butt" stroke-opacity="1.0" stroke="rgb(0, 0, 0)" stroke-linejoin="round" d=" M 194.523, 100.906 194.972, 101.084 " />
            <path fill="none" stroke-width="3.0" stroke-linecap="butt" stroke-opacity="1.0" stroke="rgb(0, 0, 0)" stroke-linejoin="round" d=" M 195.569, 288.585 195.678, 287.561 " />
            <path fill="none" stroke-width="3.0" stroke-linecap="butt" stroke-opacity="1.0" stroke="rgb(0, 0, 0)" stroke-linejoin="round" d=" M 195.699, 287.403 195.891, 286.062 " />
            <path fill="none" stroke-width="3.0" stroke-linecap="butt" stroke-opacity="1.0" stroke="rgb(0, 0, 0)" stroke-linejoin="round" d=" M 200.219, 275.325 199.598, 275.243 199.457, 275.225 " />
            <path fill="none" stroke-width="3.0" stroke-linecap="butt" stroke-opacity="1.0" stroke="rgb(0, 0, 0)" stroke-linejoin="round" d=" M 201.427, 209.740 201.444, 209.792 201.471, 209.876 201.427, 209.741 " />
            <path fill="none" stroke-width="3.0" stroke-linecap="butt" stroke-opacity="1.0" stroke="rgb(0, 0, 0)" stroke-linejoin="round" d=" M 205.458, 274.135 205.250, 274.080 205.249, 274.080 205.160, 274.057 204.973, 274.008 " />
            <path fill="none" stroke-width="3.0" stroke-linecap="butt" stroke-opacity="1.0" stroke="rgb(0, 0, 0)" stroke-linejoin="round" d=" M 207.670, 273.505 207.161, 273.405 " />
            <path fill="none" stroke-width="3.0" stroke-linecap="butt" stroke-opacity="1.0" stroke="rgb(0, 0, 0)" stroke-linejoin="round" d=" M 207.754, 273.502 207.724, 273.503 207.670, 273.505 207.667, 273.505 207.278, 273.521 " />
            <path fill="none" stroke-width="3.0" stroke-linecap="butt" stroke-opacity="1.0" stroke="rgb(0, 0, 0)" stroke-linejoin="round" d=" M 208.300, 273.348 208.282, 273.349 207.979, 273.365 " />
            <path fill="none" stroke-width="3.0" stroke-linecap="butt" stroke-opacity="1.0" stroke="rgb(0, 0, 0)" stroke-linejoin="round" d=" M 210.107, 273.317 209.995, 273.293 " />
            <path fill="none" stroke-width="3.0" stroke-linecap="butt" stroke-opacity="1.0" stroke="rgb(0, 0, 0)" stroke-linejoin="round" d=" M 210.696, 192.633 211.038, 192.365 " />
            <path fill="none" stroke-width="3.0" stroke-linecap="butt" stroke-opacity="1.0" stroke="rgb(0, 0, 0)" stroke-linejoin="round" d=" M 216.998, 273.499 216.604, 273.895 " />
            <path fill="none" stroke-width="3.0" stroke-linecap="butt" stroke-opacity="1.0" stroke="rgb(0, 0, 0)" stroke-linejoin="round" d=" M 217.192, 273.128 217.100, 273.305 216.998, 273.499 216.906, 273.676 216.770, 273.937 " />
            <path fill="none" stroke-width="3.0" stroke-linecap="butt" stroke-opacity="1.0" stroke="rgb(0, 0, 0)" stroke-linejoin="round" d=" M 218.065, 263.651 218.085, 263.967 218.113, 264.400 218.114, 264.419 218.155, 265.044 " />
            <path fill="none" stroke-width="3.0" stroke-linecap="butt" stroke-opacity="1.0" stroke="rgb(0, 0, 0)" stroke-linejoin="round" d=" M 232.399, 124.673 232.399, 124.673 " />
            <path fill="none" stroke-width="3.0" stroke-linecap="butt" stroke-opacity="1.0" stroke="rgb(0, 0, 0)" stroke-linejoin="round" d=" M 248.538, 149.151 248.647, 149.232 " />
            <path fill="none" stroke-width="3.0" stroke-linecap="butt" stroke-opacity="1.0" stroke="rgb(0, 0, 0)" stroke-linejoin="round" d=" M 248.570, 149.164 248.589, 149.177 249.097, 149.522 " />
            <path fill="none" stroke-width="3.0" stroke-linecap="butt" stroke-opacity="1.0" stroke="rgb(0, 0, 0)" stroke-linejoin="round" d=" M 249.576, 149.591 250.710, 150.158 " />
            <path fill="none" stroke-width="3.0" stroke-linecap="butt" stroke-opacity="1.0" stroke="rgb(0, 0, 0)" stroke-linejoin="round" d=" M 253.611, 160.588 253.724, 160.779 253.827, 160.953 " />
            <path fill="none" stroke-width="3.0" stroke-linecap="butt" stroke-opacity="1.0" stroke="rgb(0, 0, 0)" stroke-linejoin="round" d=" M 256.573, 161.510 256.606, 161.568 256.717, 161.764 " />
        </g>
    </g>
</svg>
