<?xml version='1.0' encoding='ascii'?>
<svg xmlns="http://www.w3.org/2000/svg" xmlns:inkscape="http://www.inkscape.org/namespaces/inkscape" version="1.1" width="400" height="400">
    <g id="ViewLayer_LineSet" inkscape:groupmode="lineset" inkscape:label="ViewLayer_LineSet">
        <g xmlns:inkscape="http://www.inkscape.org/namespaces/inkscape" inkscape:groupmode="layer" inkscape:label="fills" id="fills">
            <path fill_rule="evenodd" stroke="none" fill-opacity="1.0" fill="rgb(255, 255, 255)" d=" M 227.177, 140.349 227.259, 140.122 227.395, 139.837 227.541, 139.652 227.743, 139.511 227.953, 139.486 228.071, 139.555 228.151, 139.641 228.299, 139.931 228.441, 140.285 228.665, 140.920 228.871, 141.527 229.118, 142.192 229.432, 142.907 230.019, 144.164 230.468, 145.054 231.038, 146.037 231.765, 147.141 232.619, 148.346 234.092, 150.266 235.159, 151.482 236.311, 152.626 237.510, 153.710 238.719, 154.762 239.901, 155.825 240.096, 156.032 240.447, 156.570 241.243, 157.759 242.005, 158.844 242.691, 159.846 243.094, 160.522 243.339, 161.010 244.312, 162.952 244.976, 164.052 246.384, 165.781 247.263, 166.761 248.786, 168.347 250.325, 169.927 251.321, 170.862 253.010, 172.270 254.128, 173.118 255.302, 173.928 256.501, 174.693 257.691, 175.418 258.844, 176.109 259.956, 176.781 261.024, 177.459 262.047, 178.173 262.250, 178.319 262.044, 178.792 261.974, 179.106 262.039, 179.852 262.195, 180.311 262.524, 180.935 262.841, 181.475 262.878, 181.538 263.010, 181.786 263.298, 182.511 263.365, 183.499 263.368, 184.493 263.446, 185.061 263.413, 185.694 263.410, 186.197 263.579, 186.685 263.700, 187.220 264.027, 187.608 264.245, 187.853 264.676, 188.070 265.040, 188.102 265.382, 188.091 265.776, 187.962 266.424, 187.595 266.764, 187.289 266.831, 187.160 267.014, 187.422 268.059, 188.548 268.564, 189.126 268.802, 189.441 269.491, 190.847 270.102, 191.933 270.806, 192.927 270.861, 193.363 270.763, 193.725 270.771, 194.110 270.840, 194.893 271.062, 195.486 271.078, 195.517 271.060, 195.952 270.792, 196.978 270.266, 198.094 269.818, 199.115 269.714, 200.054 269.699, 200.222 269.798, 200.940 270.113, 201.451 270.493, 201.762 270.510, 201.774 270.600, 201.819 270.868, 201.964 270.915, 201.980 271.392, 202.055 271.530, 202.021 271.607, 201.781 271.764, 201.193 271.914, 200.441 272.172, 199.620 272.476, 198.987 272.446, 199.555 272.543, 200.545 272.575, 200.731 272.776, 201.449 273.031, 201.909 273.058, 201.935 273.287, 202.215 273.567, 202.432 273.850, 202.505 274.258, 202.525 274.711, 202.359 274.780, 202.179 274.774, 201.752 274.724, 201.197 274.738, 200.990 275.014, 201.138 275.262, 201.196 275.710, 201.119 276.034, 201.029 276.111, 200.692 276.082, 200.445 276.017, 200.114 275.940, 199.600 275.871, 199.103 275.905, 198.467 276.129, 197.324 276.094, 196.152 276.033, 194.975 276.088, 193.813 276.095, 192.392 275.717, 191.549 275.457, 190.789 275.362, 190.400 275.526, 189.391 275.191, 188.891 275.160, 188.842 275.166, 188.599 275.085, 187.227 274.420, 185.691 274.063, 184.935 274.063, 184.933 273.926, 184.233 273.540, 183.162 272.854, 182.270 272.249, 181.483 272.127, 181.105 271.634, 179.798 271.164, 178.263 270.954, 177.736 270.260, 176.184 269.353, 174.726 268.770, 173.853 268.227, 172.853 267.374, 171.542 266.514, 170.337 265.690, 169.212 264.929, 168.133 264.623, 167.685 264.031, 166.707 263.434, 165.627 262.884, 164.512 262.379, 163.371 261.910, 162.208 261.442, 161.038 261.049, 160.137 260.523, 158.944 259.887, 157.798 259.127, 156.722 258.250, 155.749 257.561, 155.110 256.659, 154.310 255.754, 153.672 254.938, 153.124 254.453, 152.694 254.089, 152.199 253.529, 151.167 252.900, 149.938 252.189, 148.595 251.389, 147.234 250.317, 145.608 249.509, 144.273 248.717, 143.022 247.994, 141.829 247.335, 140.674 246.707, 139.521 246.058, 138.363 245.536, 137.486 244.801, 136.321 243.999, 135.223 243.160, 134.216 242.572, 133.556 242.483, 133.429 242.233, 132.963 241.687, 131.824 241.151, 130.612 240.322, 128.667 239.749, 127.341 239.063, 126.034 238.279, 124.769 237.409, 123.544 236.451, 122.349 235.936, 121.723 234.894, 120.556 233.707, 119.468 232.350, 118.503 231.602, 118.058 230.141, 117.234 228.571, 116.565 226.142, 115.748 224.623, 115.324 223.187, 114.924 221.837, 114.507 220.521, 114.067 219.176, 113.590 217.764, 113.096 216.291, 112.579 214.723, 111.969 213.119, 111.138 211.883, 110.231 210.826, 109.138 209.981, 107.894 209.959, 107.850 209.419, 106.600 209.144, 105.371 209.072, 104.031 209.252, 102.319 209.597, 100.204 209.819, 99.228 210.031, 98.633 210.593, 97.676 211.046, 97.132 211.071, 97.105 211.445, 96.909 211.565, 96.887 211.961, 96.802 212.277, 96.605 212.698, 96.338 213.142, 95.901 213.485, 95.243 213.510, 94.306 213.459, 93.243 213.328, 92.173 213.062, 91.175 212.676, 90.376 212.340, 89.894 212.030, 89.799 211.841, 89.598 211.474, 89.576 211.427, 89.548 211.434, 89.462 211.510, 88.340 211.518, 87.137 211.427, 85.791 211.238, 84.302 210.895, 82.736 210.363, 81.150 210.344, 81.101 210.255, 80.910 209.653, 79.576 208.761, 78.072 208.373, 77.684 207.594, 76.747 206.234, 75.732 204.755, 75.020 203.855, 74.738 203.227, 74.531 201.653, 74.316 200.068, 74.266 199.981, 74.269 198.484, 74.316 196.910, 74.530 196.290, 74.734 195.382, 75.019 193.904, 75.732 192.544, 76.749 191.774, 77.674 191.375, 78.072 190.484, 79.576 189.884, 80.906 189.793, 81.101 189.773, 81.150 189.242, 82.736 188.898, 84.302 188.710, 85.791 188.617, 87.137 188.622, 88.339 188.698, 89.462 188.704, 89.541 188.654, 89.570 188.288, 89.596 188.109, 89.793 187.798, 89.896 187.464, 90.379 187.075, 91.175 186.810, 92.173 186.676, 93.244 186.627, 94.306 186.650, 95.244 186.995, 95.901 187.438, 96.338 187.858, 96.605 188.175, 96.802 188.570, 96.888 188.691, 96.910 189.066, 97.106 189.089, 97.131 189.543, 97.674 190.109, 98.639 190.325, 99.246 190.547, 100.203 190.901, 102.358 191.082, 104.032 191.015, 105.363 190.731, 106.630 190.273, 107.694 190.146, 107.955 189.329, 109.148 188.262, 110.236 187.019, 111.139 185.423, 111.966 183.846, 112.579 182.374, 113.096 180.961, 113.592 179.618, 114.068 178.300, 114.508 176.950, 114.924 175.514, 115.323 173.994, 115.746 171.566, 116.564 169.994, 117.230 168.532, 118.052 167.785, 118.503 166.428, 119.466 165.241, 120.553 164.198, 121.720 163.686, 122.349 162.727, 123.543 161.854, 124.768 161.067, 126.031 160.385, 127.342 159.819, 128.670 158.991, 130.616 158.459, 131.830 157.918, 132.970 157.686, 133.402 157.579, 133.555 156.989, 134.224 156.146, 135.221 155.335, 136.315 154.597, 137.480 154.077, 138.358 153.422, 139.516 152.795, 140.671 152.139, 141.829 151.417, 143.020 150.625, 144.272 149.819, 145.610 148.749, 147.234 147.947, 148.596 147.239, 149.942 146.613, 151.177 146.012, 152.291 145.538, 152.951 145.262, 153.193 144.427, 153.720 143.502, 154.338 142.588, 155.124 141.891, 155.754 141.011, 156.723 140.250, 157.800 139.614, 158.947 138.677, 161.032 138.202, 162.201 137.728, 163.362 137.220, 164.504 136.667, 165.616 136.063, 166.691 135.412, 167.734 134.736, 168.747 134.413, 169.193 133.585, 170.310 132.727, 171.517 131.896, 172.842 131.608, 173.363 130.786, 174.729 129.878, 176.184 129.182, 177.736 128.972, 178.262 128.503, 179.798 128.009, 181.105 127.888, 181.482 127.283, 182.270 126.594, 183.160 126.210, 184.233 126.072, 184.933 126.073, 184.937 125.717, 185.690 125.050, 187.227 124.970, 188.599 124.976, 188.843 124.946, 188.891 124.610, 189.391 124.776, 190.399 124.681, 190.789 124.420, 191.549 124.041, 192.392 124.049, 193.813 124.104, 194.975 124.043, 196.152 124.008, 197.324 124.232, 198.467 124.266, 199.102 124.195, 199.600 124.120, 200.114 124.054, 200.445 124.026, 200.690 124.103, 201.029 124.427, 201.119 124.875, 201.196 125.123, 201.137 125.400, 200.989 125.414, 201.196 125.363, 201.752 125.356, 202.179 125.425, 202.360 125.878, 202.526 126.287, 202.507 126.570, 202.432 126.850, 202.215 127.083, 201.931 127.106, 201.909 127.361, 201.449 127.563, 200.731 127.594, 200.545 127.692, 199.555 127.662, 198.989 127.965, 199.620 128.223, 200.441 128.374, 201.193 128.529, 201.783 128.607, 202.021 128.745, 202.055 129.222, 201.980 129.268, 201.964 129.537, 201.819 129.626, 201.774 129.643, 201.762 130.023, 201.451 130.339, 200.940 130.437, 200.223 130.424, 200.054 130.319, 199.115 129.871, 198.094 129.345, 196.978 129.076, 195.952 129.059, 195.517 129.074, 195.486 129.297, 194.893 129.366, 194.110 129.374, 193.725 129.276, 193.366 129.332, 192.928 130.035, 191.933 130.646, 190.847 131.334, 189.441 131.570, 189.130 132.078, 188.548 133.123, 187.422 133.305, 187.160 133.373, 187.289 133.713, 187.595 134.361, 187.963 134.754, 188.091 135.097, 188.102 135.461, 188.070 135.894, 187.853 136.110, 187.608 136.436, 187.220 136.557, 186.685 136.727, 186.197 136.724, 185.694 136.691, 185.058 136.767, 184.493 136.772, 183.499 136.839, 182.511 137.127, 181.785 137.256, 181.543 137.296, 181.475 137.613, 180.935 137.941, 180.311 138.098, 179.852 138.163, 179.107 138.092, 178.792 137.887, 178.319 138.090, 178.173 139.113, 177.459 140.181, 176.781 141.292, 176.109 142.447, 175.418 143.636, 174.693 144.836, 173.928 146.009, 173.118 147.127, 172.270 147.723, 171.761 148.816, 170.862 149.812, 169.927 151.350, 168.346 152.874, 166.761 153.752, 165.781 155.161, 164.052 155.825, 162.953 156.797, 161.010 157.044, 160.519 157.446, 159.846 158.132, 158.844 158.893, 157.759 159.690, 156.570 160.041, 156.032 160.236, 155.824 161.416, 154.763 162.624, 153.709 163.823, 152.624 164.974, 151.478 166.038, 150.261 167.513, 148.343 168.368, 147.138 169.096, 146.035 169.668, 145.053 170.117, 144.163 170.705, 142.903 171.019, 142.189 171.266, 141.524 171.472, 140.918 171.697, 140.281 171.839, 139.927 171.988, 139.635 172.066, 139.552 172.178, 139.485 172.390, 139.513 172.589, 139.652 172.743, 139.850 172.882, 140.147 172.955, 140.351 173.003, 140.472 173.035, 140.573 173.051, 140.617 173.184, 141.151 173.356, 141.798 173.857, 143.574 174.051, 144.304 174.341, 145.319 174.827, 147.125 175.590, 149.242 176.186, 150.532 176.919, 152.176 177.272, 152.962 177.864, 154.374 178.416, 155.787 178.580, 156.214 178.583, 156.590 178.481, 157.760 178.299, 159.046 178.145, 159.921 178.089, 160.190 177.818, 161.370 177.594, 162.451 177.303, 164.005 177.199, 164.945 177.207, 165.763 177.256, 166.518 177.304, 167.212 177.627, 168.546 177.998, 169.682 178.221, 170.463 178.313, 171.291 178.184, 171.824 177.838, 172.781 177.412, 173.877 176.966, 175.088 176.532, 176.370 176.122, 177.690 175.751, 179.025 175.430, 180.374 175.221, 181.404 175.012, 182.281 174.728, 183.493 174.444, 184.682 173.934, 186.693 173.603, 187.926 173.305, 189.121 173.041, 190.318 172.602, 192.496 172.358, 193.675 172.124, 194.836 171.892, 195.977 171.678, 197.099 171.478, 198.206 171.309, 199.297 171.183, 200.380 171.013, 201.871 170.825, 203.442 170.705, 204.471 170.597, 205.494 170.498, 206.509 170.407, 207.516 170.322, 208.517 170.249, 209.512 170.193, 210.504 170.096, 212.375 170.057, 213.347 170.027, 214.321 170.009, 215.298 169.966, 217.139 169.938, 218.107 169.924, 219.072 169.924, 220.037 169.923, 221.840 169.934, 222.824 169.990, 223.833 170.092, 224.862 170.299, 226.620 170.426, 227.604 170.571, 228.588 170.758, 230.109 170.827, 231.050 170.861, 232.034 170.803, 233.905 170.697, 235.218 170.368, 237.291 170.062, 238.771 169.645, 240.610 169.243, 242.449 168.873, 244.277 168.547, 246.095 168.260, 247.898 168.064, 249.693 167.950, 251.472 167.901, 253.232 167.915, 254.970 168.036, 256.679 168.107, 257.491 168.307, 259.153 168.586, 260.787 168.949, 262.398 169.364, 264.003 169.833, 265.600 170.329, 267.192 170.805, 268.783 171.226, 270.373 171.584, 271.956 171.899, 273.521 172.177, 275.065 172.405, 276.585 172.556, 278.083 172.576, 278.932 172.527, 280.040 172.395, 281.225 172.318, 281.762 171.808, 281.423 171.708, 281.438 171.468, 281.217 171.058, 281.273 170.600, 281.316 170.321, 281.775 170.222, 282.258 170.048, 282.698 170.015, 282.887 169.955, 282.885 169.892, 282.888 169.756, 282.671 169.681, 282.569 169.044, 282.342 168.847, 282.459 168.601, 282.349 168.285, 282.581 168.052, 282.886 167.909, 283.228 167.797, 283.585 167.751, 283.712 167.708, 284.128 167.760, 284.526 167.686, 284.501 167.665, 284.502 167.331, 284.407 167.316, 284.388 167.148, 284.170 166.822, 283.960 166.448, 283.967 166.220, 284.257 166.180, 284.425 165.949, 284.602 165.818, 284.985 165.707, 285.405 165.710, 285.787 165.683, 286.002 165.794, 286.496 165.934, 286.925 166.175, 287.216 166.177, 288.462 166.206, 289.257 166.343, 290.035 166.462, 290.776 166.593, 291.479 166.763, 292.214 167.194, 292.955 167.592, 293.845 168.310, 295.299 168.910, 295.970 169.213, 296.636 169.522, 297.446 169.919, 298.485 170.126, 299.741 170.364, 301.003 171.062, 302.824 171.745, 303.791 172.560, 304.571 173.130, 305.005 173.294, 305.121 173.443, 305.234 174.001, 305.626 174.905, 306.109 175.876, 306.405 176.946, 306.459 178.036, 306.351 179.106, 306.175 180.104, 305.839 180.922, 305.292 181.412, 304.788 181.978, 303.859 182.256, 302.917 182.420, 301.327 182.351, 300.032 182.138, 298.557 181.888, 297.056 181.781, 295.443 181.958, 293.989 182.430, 291.863 182.500, 291.166 182.577, 290.960 182.640, 290.671 182.648, 290.517 182.773, 290.112 182.763, 288.726 182.611, 287.999 182.583, 287.559 182.454, 287.250 182.310, 286.919 182.124, 286.044 182.046, 284.943 181.965, 283.935 181.923, 283.804 182.095, 283.416 181.935, 282.479 181.749, 281.909 181.749, 281.668 181.770, 280.443 181.837, 279.031 181.940, 277.409 182.070, 275.778 182.224, 274.151 182.391, 272.531 182.521, 271.555 182.831, 269.920 183.247, 268.247 183.750, 266.508 184.317, 264.724 184.872, 262.886 185.322, 261.008 185.455, 260.416 185.872, 258.511 186.174, 256.648 186.400, 254.828 186.577, 253.037 186.720, 251.282 186.814, 249.546 186.826, 247.811 186.808, 246.074 186.783, 244.335 186.809, 242.133 186.881, 240.447 186.901, 238.769 186.816, 237.146 186.752, 235.616 186.858, 234.177 187.128, 232.791 187.469, 231.646 187.856, 230.736 188.149, 230.094 188.725, 228.871 189.266, 227.669 189.760, 226.485 190.203, 225.325 190.603, 224.194 190.974, 223.091 191.319, 222.014 191.641, 220.962 191.947, 219.932 192.243, 218.924 192.527, 217.935 192.798, 216.963 193.061, 216.003 193.317, 215.054 193.562, 214.112 193.797, 213.175 194.025, 212.240 194.245, 211.303 194.459, 210.360 194.664, 209.409 194.866, 208.444 194.999, 207.782 195.084, 207.374 195.285, 206.384 195.490, 205.384 195.694, 204.377 195.901, 203.362 196.111, 202.342 196.323, 201.313 196.535, 200.275 196.740, 199.229 196.934, 198.181 196.978, 197.926 197.074, 197.454 197.196, 196.845 197.415, 196.702 198.222, 196.196 198.920, 195.787 199.485, 195.576 200.059, 195.497 200.641, 195.578 201.212, 195.789 201.911, 196.198 202.719, 196.704 202.941, 196.849 203.063, 197.454 203.159, 197.930 203.203, 198.181 203.397, 199.229 203.602, 200.275 203.814, 201.313 204.026, 202.342 204.237, 203.364 204.444, 204.377 204.648, 205.384 204.851, 206.384 205.053, 207.375 205.138, 207.785 205.271, 208.445 205.472, 209.409 205.679, 210.361 205.893, 211.304 206.113, 212.241 206.341, 213.177 206.576, 214.114 206.821, 215.055 207.078, 216.005 207.341, 216.964 207.611, 217.937 207.894, 218.926 208.189, 219.935 208.495, 220.962 208.818, 222.016 209.163, 223.093 209.534, 224.195 209.934, 225.325 210.375, 226.486 210.871, 227.669 211.411, 228.871 211.989, 230.094 212.282, 230.736 212.670, 231.649 213.009, 232.791 213.278, 234.177 213.385, 235.616 213.321, 237.146 213.235, 238.769 213.256, 240.447 213.328, 242.133 213.354, 244.335 213.329, 246.074 213.310, 247.811 213.323, 249.546 213.415, 251.282 213.560, 253.037 213.737, 254.828 213.963, 256.648 214.264, 258.510 214.676, 260.417 214.813, 261.008 215.264, 262.886 215.820, 264.725 216.387, 266.509 216.891, 268.247 217.306, 269.921 217.616, 271.556 217.746, 272.531 217.913, 274.153 218.067, 275.778 218.197, 277.409 218.300, 279.031 218.367, 280.453 218.389, 281.670 218.389, 281.905 218.202, 282.479 218.040, 283.416 218.213, 283.805 218.172, 283.936 218.091, 284.943 218.013, 286.046 217.844, 286.840 217.552, 287.559 217.525, 288.001 217.373, 288.726 217.364, 290.112 217.489, 290.516 217.496, 290.672 217.560, 290.961 217.637, 291.166 217.707, 291.864 218.179, 293.991 218.356, 295.443 218.249, 297.056 217.999, 298.557 217.785, 300.032 217.716, 301.327 217.880, 302.917 218.159, 303.860 218.725, 304.788 219.215, 305.292 220.031, 305.841 221.031, 306.175 222.101, 306.351 223.191, 306.459 224.261, 306.405 225.232, 306.109 226.135, 305.626 226.694, 305.234 226.889, 305.087 227.005, 305.004 227.577, 304.571 228.392, 303.791 229.075, 302.824 229.773, 301.003 230.011, 299.741 230.218, 298.486 230.615, 297.446 230.924, 296.636 231.226, 295.970 231.827, 295.299 232.544, 293.846 232.943, 292.955 233.374, 292.215 233.544, 291.479 233.674, 290.776 233.794, 290.035 233.931, 289.258 233.960, 288.462 233.962, 287.217 234.203, 286.925 234.342, 286.496 234.454, 286.002 234.427, 285.787 234.430, 285.405 234.319, 284.985 234.187, 284.602 233.956, 284.426 233.917, 284.258 233.689, 283.967 233.315, 283.960 232.988, 284.171 232.820, 284.389 232.807, 284.406 232.378, 284.529 232.429, 284.128 232.386, 283.712 232.340, 283.585 232.231, 283.227 232.089, 282.884 231.852, 282.581 231.534, 282.350 231.290, 282.459 231.093, 282.342 230.456, 282.569 230.381, 282.671 230.245, 282.888 230.182, 282.885 230.121, 282.887 230.089, 282.698 229.915, 282.258 229.817, 281.776 229.538, 281.316 229.079, 281.273 228.669, 281.215 228.424, 281.437 228.328, 281.423 227.804, 281.773 227.735, 281.226 227.617, 280.130 227.562, 278.933 227.587, 278.086 227.735, 276.589 227.944, 275.175 228.126, 274.150 228.431, 272.576 228.749, 271.091 228.794, 270.896 229.031, 269.928 229.276, 269.006 229.811, 267.196 230.305, 265.604 230.773, 264.006 231.185, 262.399 231.547, 260.786 231.826, 259.151 232.026, 257.489 232.095, 256.678 232.218, 254.969 232.235, 253.232 232.186, 251.472 232.073, 249.692 231.877, 247.898 231.591, 246.094 231.263, 244.277 230.895, 242.449 230.497, 240.612 230.092, 238.777 229.803, 237.310 229.507, 235.262 229.412, 233.968 229.420, 233.119 229.413, 232.118 229.473, 230.831 229.592, 229.638 229.710, 228.648 229.898, 226.984 230.019, 225.915 230.115, 224.856 230.187, 223.820 230.222, 222.811 230.222, 221.832 230.214, 220.031 230.210, 219.067 230.193, 218.105 230.167, 217.138 230.124, 215.298 230.106, 214.321 230.077, 213.347 230.038, 212.375 229.939, 210.503 229.883, 209.512 229.811, 208.518 229.725, 207.517 229.632, 206.510 229.532, 205.495 229.423, 204.473 229.303, 203.444 229.108, 201.831 228.944, 200.382 228.819, 199.301 228.649, 198.209 228.453, 197.101 228.239, 195.978 228.010, 194.838 227.777, 193.676 227.534, 192.497 227.096, 190.320 226.831, 189.123 226.532, 187.928 226.205, 186.708 225.691, 184.683 225.408, 183.495 225.124, 182.282 224.918, 181.417 224.707, 180.375 224.387, 179.027 224.016, 177.691 223.606, 176.372 223.174, 175.088 222.727, 173.877 222.300, 172.781 221.953, 171.825 221.824, 171.292 221.915, 170.466 222.139, 169.683 222.510, 168.547 222.835, 167.214 222.933, 165.763 222.939, 164.945 222.834, 164.005 222.542, 162.452 222.317, 161.372 222.046, 160.190 221.999, 159.965 221.838, 159.046 221.656, 157.761 221.554, 156.591 221.557, 156.212 221.721, 155.787 222.280, 154.356 222.865, 152.963 223.217, 152.175 224.020, 150.371 224.542, 149.237 225.306, 147.122 225.855, 145.096 226.085, 144.300 226.336, 143.368 226.788, 141.795 226.959, 141.148 227.106, 140.553 227.154, 140.407 227.177, 140.349  z" />
        </g>
        <g inkscape:groupmode="layer" id="strokes" inkscape:label="strokes">
            <path fill="none" stroke-width="3.0" stroke-linecap="butt" stroke-opacity="1.0" stroke="rgb(0, 0, 0)" stroke-linejoin="round" d=" M 226.716, 141.607 227.100, 140.572 " />
            <path fill="none" stroke-width="3.0" stroke-linecap="butt" stroke-opacity="1.0" stroke="rgb(0, 0, 0)" stroke-linejoin="round" d=" M 226.920, 140.987 227.054, 140.678 227.100, 140.572 227.106, 140.553 227.154, 140.407 " />
            <path fill="none" stroke-width="3.0" stroke-linecap="butt" stroke-opacity="1.0" stroke="rgb(0, 0, 0)" stroke-linejoin="round" d=" M 226.544, 141.809 226.920, 140.987 226.980, 140.838 227.123, 140.484 227.127, 140.473 227.154, 140.407 227.177, 140.349 227.259, 140.122 " />
            <path fill="none" stroke-width="3.0" stroke-linecap="butt" stroke-opacity="1.0" stroke="rgb(0, 0, 0)" stroke-linejoin="round" d=" M 227.040, 140.612 227.137, 140.394 227.157, 140.349 227.167, 140.328 227.213, 140.225 227.215, 140.219 227.224, 140.200 227.247, 140.148 227.259, 140.122 227.395, 139.837 " />
            <path fill="none" stroke-width="3.0" stroke-linecap="butt" stroke-opacity="1.0" stroke="rgb(0, 0, 0)" stroke-linejoin="round" d=" M 226.279, 143.569 226.336, 143.368 226.788, 141.795 226.959, 141.148 227.106, 140.553 " />
            <path fill="none" stroke-width="3.0" stroke-linecap="butt" stroke-opacity="1.0" stroke="rgb(0, 0, 0)" stroke-linejoin="round" d=" M 223.584, 151.319 224.020, 150.371 224.542, 149.237 225.306, 147.122 225.855, 145.096 " />
            <path fill="none" stroke-width="3.0" stroke-linecap="butt" stroke-opacity="1.0" stroke="rgb(0, 0, 0)" stroke-linejoin="round" d=" M 225.518, 146.259 225.855, 145.096 226.085, 144.300 226.336, 143.368 " />
            <path fill="none" stroke-width="3.0" stroke-linecap="butt" stroke-opacity="1.0" stroke="rgb(0, 0, 0)" stroke-linejoin="round" d=" M 214.805, 112.012 214.723, 111.969 213.119, 111.138 211.883, 110.231 210.826, 109.138 209.981, 107.894 " />
            <path fill="none" stroke-width="3.0" stroke-linecap="butt" stroke-opacity="1.0" stroke="rgb(0, 0, 0)" stroke-linejoin="round" d=" M 242.806, 134.029 242.585, 133.618 242.520, 133.498 242.483, 133.429 242.233, 132.963 241.687, 131.824 241.151, 130.612 240.322, 128.667 239.749, 127.341 239.063, 126.034 238.279, 124.769 237.409, 123.544 236.451, 122.349 235.936, 121.723 234.894, 120.556 233.707, 119.468 232.350, 118.503 231.602, 118.058 230.141, 117.234 228.571, 116.565 226.142, 115.748 224.623, 115.324 223.187, 114.924 221.837, 114.507 220.521, 114.067 219.176, 113.590 217.764, 113.096 216.291, 112.579 214.723, 111.969 " />
            <path fill="none" stroke-width="3.0" stroke-linecap="butt" stroke-opacity="1.0" stroke="rgb(0, 0, 0)" stroke-linejoin="round" d=" M 228.441, 140.285 228.665, 140.920 228.871, 141.527 229.118, 142.192 229.432, 142.907 230.019, 144.164 230.468, 145.054 231.038, 146.037 231.765, 147.141 232.619, 148.346 234.092, 150.266 235.159, 151.482 236.311, 152.626 237.510, 153.710 238.719, 154.762 239.901, 155.825 240.096, 156.032 240.569, 156.537 " />
            <path fill="none" stroke-width="3.0" stroke-linecap="butt" stroke-opacity="1.0" stroke="rgb(0, 0, 0)" stroke-linejoin="round" d=" M 228.151, 139.641 228.299, 139.931 228.441, 140.285 228.480, 140.383 " />
            <path fill="none" stroke-width="3.0" stroke-linecap="butt" stroke-opacity="1.0" stroke="rgb(0, 0, 0)" stroke-linejoin="round" d=" M 227.953, 139.486 228.071, 139.555 228.151, 139.641 228.286, 139.784 " />
            <path fill="none" stroke-width="3.0" stroke-linecap="butt" stroke-opacity="1.0" stroke="rgb(0, 0, 0)" stroke-linejoin="round" d=" M 185.423, 111.966 183.846, 112.579 182.374, 113.096 180.961, 113.592 179.618, 114.068 178.300, 114.508 176.950, 114.924 175.514, 115.323 173.994, 115.746 171.566, 116.564 169.994, 117.230 168.532, 118.052 167.785, 118.503 166.428, 119.466 165.241, 120.553 164.198, 121.720 163.686, 122.349 162.727, 123.543 161.854, 124.768 161.067, 126.031 160.385, 127.342 159.819, 128.670 158.991, 130.616 158.459, 131.830 157.918, 132.970 157.686, 133.402 157.642, 133.484 157.583, 133.593 157.345, 134.035 " />
            <path fill="none" stroke-width="3.0" stroke-linecap="butt" stroke-opacity="1.0" stroke="rgb(0, 0, 0)" stroke-linejoin="round" d=" M 190.146, 107.955 189.329, 109.148 188.262, 110.236 187.019, 111.139 185.423, 111.966 185.331, 112.013 " />
            <path fill="none" stroke-width="3.0" stroke-linecap="butt" stroke-opacity="1.0" stroke="rgb(0, 0, 0)" stroke-linejoin="round" d=" M 268.564, 189.126 268.802, 189.441 269.491, 190.847 270.102, 191.933 270.806, 192.927 270.861, 193.363 270.932, 193.921 271.101, 194.913 271.078, 195.517 271.060, 195.952 271.058, 196.003 " />
            <path fill="none" stroke-width="3.0" stroke-linecap="butt" stroke-opacity="1.0" stroke="rgb(0, 0, 0)" stroke-linejoin="round" d=" M 275.733, 196.296 275.860, 195.514 275.913, 195.190 275.944, 194.917 275.786, 194.025 275.607, 193.267 275.438, 192.571 275.290, 191.903 275.226, 191.220 275.347, 190.493 275.362, 190.400 275.526, 189.391 275.191, 188.891 275.160, 188.842 274.376, 187.585 " />
            <path fill="none" stroke-width="3.0" stroke-linecap="butt" stroke-opacity="1.0" stroke="rgb(0, 0, 0)" stroke-linejoin="round" d=" M 270.493, 201.762 270.600, 201.819 270.868, 201.964 270.915, 201.980 271.392, 202.055 271.530, 202.021 271.607, 201.781 271.764, 201.193 271.914, 200.441 272.172, 199.620 272.476, 198.987 272.550, 198.831 272.617, 198.656 272.988, 197.631 273.345, 196.946 273.648, 196.366 273.969, 195.171 274.025, 194.939 273.924, 193.674 274.183, 192.253 274.593, 190.927 274.506, 190.400 274.469, 190.177 274.361, 189.517 274.296, 189.126 " />
            <path fill="none" stroke-width="3.0" stroke-linecap="butt" stroke-opacity="1.0" stroke="rgb(0, 0, 0)" stroke-linejoin="round" d=" M 273.813, 192.507 273.906, 191.248 " />
            <path fill="none" stroke-width="3.0" stroke-linecap="butt" stroke-opacity="1.0" stroke="rgb(0, 0, 0)" stroke-linejoin="round" d=" M 274.849, 189.773 274.544, 190.056 " />
            <path fill="none" stroke-width="3.0" stroke-linecap="butt" stroke-opacity="1.0" stroke="rgb(0, 0, 0)" stroke-linejoin="round" d=" M 274.326, 188.824 274.104, 188.183 273.861, 187.481 273.541, 186.845 273.063, 185.896 " />
            <path fill="none" stroke-width="3.0" stroke-linecap="butt" stroke-opacity="1.0" stroke="rgb(0, 0, 0)" stroke-linejoin="round" d=" M 274.601, 188.024 275.160, 188.850 275.526, 189.391 " />
            <path fill="none" stroke-width="3.0" stroke-linecap="butt" stroke-opacity="1.0" stroke="rgb(0, 0, 0)" stroke-linejoin="round" d=" M 275.160, 188.842 275.166, 188.599 275.085, 187.227 274.420, 185.691 274.063, 184.935 273.696, 184.158 273.235, 183.452 273.074, 183.199 273.062, 183.181 272.523, 182.336 272.249, 181.483 272.127, 181.105 271.634, 179.798 271.164, 178.263 270.954, 177.736 270.260, 176.184 269.353, 174.726 268.770, 173.853 268.466, 173.399 " />
            <path fill="none" stroke-width="3.0" stroke-linecap="butt" stroke-opacity="1.0" stroke="rgb(0, 0, 0)" stroke-linejoin="round" d=" M 275.888, 198.549 275.905, 198.467 276.129, 197.324 276.094, 196.152 276.033, 194.975 276.088, 193.813 276.095, 192.392 275.717, 191.549 275.457, 190.789 275.362, 190.400 " />
            <path fill="none" stroke-width="3.0" stroke-linecap="butt" stroke-opacity="1.0" stroke="rgb(0, 0, 0)" stroke-linejoin="round" d=" M 275.284, 197.493 275.309, 197.428 275.733, 196.296 275.787, 196.038 275.860, 195.514 " />
            <path fill="none" stroke-width="3.0" stroke-linecap="butt" stroke-opacity="1.0" stroke="rgb(0, 0, 0)" stroke-linejoin="round" d=" M 275.051, 199.418 275.194, 198.524 275.309, 197.428 " />
            <path fill="none" stroke-width="3.0" stroke-linecap="butt" stroke-opacity="1.0" stroke="rgb(0, 0, 0)" stroke-linejoin="round" d=" M 263.937, 180.639 264.325, 181.651 264.668, 183.108 264.689, 183.197 264.841, 183.576 264.842, 183.580 264.867, 183.641 264.873, 183.657 264.880, 183.674 265.187, 184.440 266.058, 186.048 266.343, 186.457 266.831, 187.160 267.014, 187.422 268.059, 188.548 268.564, 189.126 268.986, 189.608 " />
            <path fill="none" stroke-width="3.0" stroke-linecap="butt" stroke-opacity="1.0" stroke="rgb(0, 0, 0)" stroke-linejoin="round" d=" M 262.039, 179.852 262.257, 180.352 262.632, 181.075 262.878, 181.538 263.010, 181.786 263.091, 181.939 263.189, 182.069 263.194, 182.075 263.749, 182.811 264.696, 183.603 264.880, 183.674 " />
            <path fill="none" stroke-width="3.0" stroke-linecap="butt" stroke-opacity="1.0" stroke="rgb(0, 0, 0)" stroke-linejoin="round" d=" M 274.063, 184.935 274.063, 184.933 273.926, 184.233 273.540, 183.162 272.854, 182.270 272.249, 181.483 " />
            <path fill="none" stroke-width="3.0" stroke-linecap="butt" stroke-opacity="1.0" stroke="rgb(0, 0, 0)" stroke-linejoin="round" d=" M 270.861, 193.363 270.763, 193.725 270.771, 194.110 270.840, 194.893 271.062, 195.486 271.078, 195.517 " />
            <path fill="none" stroke-width="3.0" stroke-linecap="butt" stroke-opacity="1.0" stroke="rgb(0, 0, 0)" stroke-linejoin="round" d=" M 218.367, 280.453 218.389, 281.670 218.389, 281.905 218.389, 282.209 218.389, 282.237 218.389, 283.187 218.383, 283.270 218.321, 284.049 218.270, 284.705 217.990, 286.268 217.916, 286.662 217.898, 286.755 217.897, 286.762 217.891, 286.791 217.875, 286.879 217.875, 286.879 217.688, 287.874 217.633, 288.683 217.623, 288.834 217.616, 288.941 217.582, 289.443 217.543, 290.238 217.606, 290.861 217.637, 291.166 217.707, 291.864 218.179, 293.991 218.181, 293.999 " />
            <path fill="none" stroke-width="3.0" stroke-linecap="butt" stroke-opacity="1.0" stroke="rgb(0, 0, 0)" stroke-linejoin="round" d=" M 217.633, 288.683 217.435, 289.398 217.489, 290.516 217.496, 290.672 217.560, 290.961 217.637, 291.166 " />
            <path fill="none" stroke-width="3.0" stroke-linecap="butt" stroke-opacity="1.0" stroke="rgb(0, 0, 0)" stroke-linejoin="round" d=" M 227.577, 304.571 228.392, 303.791 229.075, 302.824 229.773, 301.003 230.011, 299.741 230.218, 298.486 230.615, 297.446 230.924, 296.636 231.226, 295.970 231.237, 295.946 " />
            <path fill="none" stroke-width="3.0" stroke-linecap="butt" stroke-opacity="1.0" stroke="rgb(0, 0, 0)" stroke-linejoin="round" d=" M 230.941, 294.259 230.797, 293.151 230.754, 292.883 " />
            <path fill="none" stroke-width="3.0" stroke-linecap="butt" stroke-opacity="1.0" stroke="rgb(0, 0, 0)" stroke-linejoin="round" d=" M 229.121, 292.979 229.106, 291.904 229.016, 290.478 228.907, 289.829 228.699, 288.201 228.415, 286.468 228.330, 285.863 228.327, 285.837 228.183, 284.813 228.110, 284.270 227.922, 282.711 227.859, 282.212 227.858, 282.203 227.856, 282.192 227.856, 282.186 227.853, 282.165 227.832, 281.993 227.804, 281.773 227.735, 281.226 227.617, 280.130 " />
            <path fill="none" stroke-width="3.0" stroke-linecap="butt" stroke-opacity="1.0" stroke="rgb(0, 0, 0)" stroke-linejoin="round" d=" M 231.226, 295.970 231.827, 295.299 232.544, 293.846 232.943, 292.955 233.374, 292.215 233.544, 291.479 233.674, 290.776 233.794, 290.035 233.931, 289.258 233.960, 288.462 233.962, 287.217 233.962, 287.083 233.936, 285.960 " />
            <path fill="none" stroke-width="3.0" stroke-linecap="butt" stroke-opacity="1.0" stroke="rgb(0, 0, 0)" stroke-linejoin="round" d=" M 226.212, 186.735 226.205, 186.708 225.691, 184.683 225.408, 183.495 225.124, 182.282 224.918, 181.417 " />
            <path fill="none" stroke-width="3.0" stroke-linecap="butt" stroke-opacity="1.0" stroke="rgb(0, 0, 0)" stroke-linejoin="round" d=" M 225.270, 183.052 224.982, 181.734 224.918, 181.417 224.707, 180.375 224.387, 179.027 224.016, 177.691 223.606, 176.372 223.174, 175.088 222.727, 173.877 222.300, 172.781 221.953, 171.825 221.824, 171.292 " />
            <path fill="none" stroke-width="3.0" stroke-linecap="butt" stroke-opacity="1.0" stroke="rgb(0, 0, 0)" stroke-linejoin="round" d=" M 265.338, 168.810 264.668, 167.759 264.623, 167.685 264.031, 166.707 263.434, 165.627 262.884, 164.512 262.379, 163.371 261.910, 162.208 261.442, 161.038 261.049, 160.137 260.523, 158.944 259.887, 157.798 259.127, 156.722 258.250, 155.749 257.561, 155.110 256.659, 154.310 255.754, 153.672 254.938, 153.124 254.453, 152.694 " />
            <path fill="none" stroke-width="3.0" stroke-linecap="butt" stroke-opacity="1.0" stroke="rgb(0, 0, 0)" stroke-linejoin="round" d=" M 254.673, 152.992 254.453, 152.694 254.089, 152.199 253.529, 151.167 252.900, 149.938 252.189, 148.595 251.389, 147.234 250.317, 145.608 249.509, 144.273 248.717, 143.022 247.994, 141.829 247.335, 140.674 246.707, 139.521 246.058, 138.363 245.536, 137.486 244.801, 136.321 243.999, 135.223 243.160, 134.216 242.572, 133.556 " />
            <path fill="none" stroke-width="3.0" stroke-linecap="butt" stroke-opacity="1.0" stroke="rgb(0, 0, 0)" stroke-linejoin="round" d=" M 243.094, 160.522 243.339, 161.010 244.312, 162.952 244.976, 164.052 246.384, 165.781 247.263, 166.761 248.786, 168.347 250.325, 169.927 251.321, 170.862 253.010, 172.270 254.128, 173.118 255.302, 173.928 256.501, 174.693 257.691, 175.418 258.844, 176.109 259.956, 176.781 261.024, 177.459 262.047, 178.173 262.250, 178.319 263.047, 178.888 263.935, 179.625 263.961, 179.646 264.025, 179.729 264.672, 180.553 " />
            <path fill="none" stroke-width="3.0" stroke-linecap="butt" stroke-opacity="1.0" stroke="rgb(0, 0, 0)" stroke-linejoin="round" d=" M 240.096, 156.032 240.447, 156.570 241.243, 157.759 242.005, 158.844 242.691, 159.846 243.094, 160.522 243.277, 160.828 " />
            <path fill="none" stroke-width="3.0" stroke-linecap="butt" stroke-opacity="1.0" stroke="rgb(0, 0, 0)" stroke-linejoin="round" d=" M 213.269, 95.457 213.360, 94.486 213.291, 93.367 213.249, 93.151 213.065, 92.226 212.996, 92.057 212.633, 91.171 212.203, 90.327 212.020, 89.972 212.016, 89.964 211.913, 89.763 211.841, 89.598 " />
            <path fill="none" stroke-width="3.0" stroke-linecap="butt" stroke-opacity="1.0" stroke="rgb(0, 0, 0)" stroke-linejoin="round" d=" M 211.445, 96.909 211.565, 96.887 211.961, 96.802 212.277, 96.605 212.698, 96.338 213.142, 95.901 213.485, 95.243 213.510, 94.306 213.459, 93.243 213.328, 92.173 213.062, 91.175 212.676, 90.376 212.340, 89.894 212.030, 89.799 211.913, 89.763 " />
            <path fill="none" stroke-width="3.0" stroke-linecap="butt" stroke-opacity="1.0" stroke="rgb(0, 0, 0)" stroke-linejoin="round" d=" M 212.030, 89.799 211.841, 89.598 211.474, 89.576 211.427, 89.548 " />
            <path fill="none" stroke-width="3.0" stroke-linecap="butt" stroke-opacity="1.0" stroke="rgb(0, 0, 0)" stroke-linejoin="round" d=" M 211.622, 91.448 211.489, 91.104 211.335, 90.705 " />
            <path fill="none" stroke-width="3.0" stroke-linecap="butt" stroke-opacity="1.0" stroke="rgb(0, 0, 0)" stroke-linejoin="round" d=" M 211.285, 91.553 211.328, 90.822 211.332, 90.762 211.335, 90.705 211.346, 90.520 211.427, 89.548 211.434, 89.462 211.510, 88.340 211.518, 87.137 211.427, 85.791 211.238, 84.302 210.895, 82.736 210.363, 81.150 210.344, 81.101 210.255, 80.910 209.636, 79.583 " />
            <path fill="none" stroke-width="3.0" stroke-linecap="butt" stroke-opacity="1.0" stroke="rgb(0, 0, 0)" stroke-linejoin="round" d=" M 210.255, 80.910 209.653, 79.576 208.761, 78.072 208.373, 77.684 207.548, 76.859 " />
            <path fill="none" stroke-width="3.0" stroke-linecap="butt" stroke-opacity="1.0" stroke="rgb(0, 0, 0)" stroke-linejoin="round" d=" M 209.150, 105.489 209.144, 105.371 209.072, 104.031 209.252, 102.319 " />
            <path fill="none" stroke-width="3.0" stroke-linecap="butt" stroke-opacity="1.0" stroke="rgb(0, 0, 0)" stroke-linejoin="round" d=" M 210.119, 108.178 209.981, 107.894 209.959, 107.850 209.476, 106.854 209.419, 106.600 209.144, 105.371 " />
            <path fill="none" stroke-width="3.0" stroke-linecap="butt" stroke-opacity="1.0" stroke="rgb(0, 0, 0)" stroke-linejoin="round" d=" M 209.241, 102.382 209.252, 102.319 209.597, 100.204 209.819, 99.228 " />
            <path fill="none" stroke-width="3.0" stroke-linecap="butt" stroke-opacity="1.0" stroke="rgb(0, 0, 0)" stroke-linejoin="round" d=" M 209.628, 99.767 209.819, 99.228 210.031, 98.633 " />
            <path fill="none" stroke-width="3.0" stroke-linecap="butt" stroke-opacity="1.0" stroke="rgb(0, 0, 0)" stroke-linejoin="round" d=" M 221.904, 172.504 221.841, 171.837 221.838, 171.806 221.805, 171.458 221.824, 171.292 221.915, 170.466 221.919, 170.434 " />
            <path fill="none" stroke-width="3.0" stroke-linecap="butt" stroke-opacity="1.0" stroke="rgb(0, 0, 0)" stroke-linejoin="round" d=" M 221.936, 172.465 221.838, 171.806 " />
            <path fill="none" stroke-width="3.0" stroke-linecap="butt" stroke-opacity="1.0" stroke="rgb(0, 0, 0)" stroke-linejoin="round" d=" M 221.915, 170.466 222.139, 169.683 222.510, 168.547 222.835, 167.214 222.933, 165.763 222.939, 164.945 222.834, 164.005 222.542, 162.452 222.317, 161.372 222.046, 160.190 221.999, 159.965 " />
            <path fill="none" stroke-width="3.0" stroke-linecap="butt" stroke-opacity="1.0" stroke="rgb(0, 0, 0)" stroke-linejoin="round" d=" M 222.076, 160.403 221.999, 159.965 221.838, 159.046 221.656, 157.761 221.554, 156.591 221.557, 156.212 " />
            <path fill="none" stroke-width="3.0" stroke-linecap="butt" stroke-opacity="1.0" stroke="rgb(0, 0, 0)" stroke-linejoin="round" d=" M 221.473, 156.999 221.524, 156.296 " />
            <path fill="none" stroke-width="3.0" stroke-linecap="butt" stroke-opacity="1.0" stroke="rgb(0, 0, 0)" stroke-linejoin="round" d=" M 221.291, 157.000 221.481, 156.407 221.515, 156.321 221.524, 156.296 221.557, 156.212 221.721, 155.787 222.280, 154.356 " />
            <path fill="none" stroke-width="3.0" stroke-linecap="butt" stroke-opacity="1.0" stroke="rgb(0, 0, 0)" stroke-linejoin="round" d=" M 262.250, 178.319 262.044, 178.792 261.974, 179.106 262.039, 179.852 262.195, 180.311 262.524, 180.935 262.841, 181.475 262.878, 181.538 " />
            <path fill="none" stroke-width="3.0" stroke-linecap="butt" stroke-opacity="1.0" stroke="rgb(0, 0, 0)" stroke-linejoin="round" d=" M 263.010, 181.786 263.298, 182.511 263.365, 183.499 263.368, 184.493 263.446, 185.061 263.491, 185.394 " />
            <path fill="none" stroke-width="3.0" stroke-linecap="butt" stroke-opacity="1.0" stroke="rgb(0, 0, 0)" stroke-linejoin="round" d=" M 263.446, 185.061 263.413, 185.694 263.410, 186.197 263.579, 186.685 263.700, 187.220 264.027, 187.608 264.245, 187.853 264.676, 188.070 265.040, 188.102 265.382, 188.091 265.776, 187.962 266.424, 187.595 266.764, 187.289 266.831, 187.160 " />
            <path fill="none" stroke-width="3.0" stroke-linecap="butt" stroke-opacity="1.0" stroke="rgb(0, 0, 0)" stroke-linejoin="round" d=" M 190.325, 99.246 190.547, 100.203 190.901, 102.358 190.905, 102.383 " />
            <path fill="none" stroke-width="3.0" stroke-linecap="butt" stroke-opacity="1.0" stroke="rgb(0, 0, 0)" stroke-linejoin="round" d=" M 190.901, 102.358 191.082, 104.032 191.015, 105.363 191.009, 105.493 " />
            <path fill="none" stroke-width="3.0" stroke-linecap="butt" stroke-opacity="1.0" stroke="rgb(0, 0, 0)" stroke-linejoin="round" d=" M 233.962, 287.217 234.203, 286.925 234.342, 286.496 234.454, 286.002 234.427, 285.787 234.430, 285.405 234.319, 284.985 234.187, 284.602 233.956, 284.426 233.888, 284.374 " />
            <path fill="none" stroke-width="3.0" stroke-linecap="butt" stroke-opacity="1.0" stroke="rgb(0, 0, 0)" stroke-linejoin="round" d=" M 232.848, 285.988 232.525, 285.645 232.154, 285.293 232.106, 285.248 " />
            <path fill="none" stroke-width="3.0" stroke-linecap="butt" stroke-opacity="1.0" stroke="rgb(0, 0, 0)" stroke-linejoin="round" d=" M 232.136, 284.920 232.132, 284.917 232.076, 284.863 231.161, 283.998 231.144, 283.865 " />
            <path fill="none" stroke-width="3.0" stroke-linecap="butt" stroke-opacity="1.0" stroke="rgb(0, 0, 0)" stroke-linejoin="round" d=" M 230.668, 282.942 230.612, 282.935 " />
            <path fill="none" stroke-width="3.0" stroke-linecap="butt" stroke-opacity="1.0" stroke="rgb(0, 0, 0)" stroke-linejoin="round" d=" M 230.878, 283.332 230.623, 282.951 230.612, 282.935 230.604, 282.923 230.603, 282.921 230.593, 282.906 230.383, 282.895 230.322, 282.892 230.245, 282.888 230.182, 282.885 230.121, 282.887 229.570, 282.910 228.729, 282.925 228.701, 282.532 228.491, 282.185 228.455, 282.126 228.247, 282.034 228.242, 282.032 228.173, 282.001 228.082, 281.960 " />
            <path fill="none" stroke-width="3.0" stroke-linecap="butt" stroke-opacity="1.0" stroke="rgb(0, 0, 0)" stroke-linejoin="round" d=" M 230.464, 282.814 230.322, 282.892 " />
            <path fill="none" stroke-width="3.0" stroke-linecap="butt" stroke-opacity="1.0" stroke="rgb(0, 0, 0)" stroke-linejoin="round" d=" M 233.967, 284.772 233.792, 284.689 233.296, 284.599 232.830, 284.399 232.819, 284.402 232.807, 284.406 232.378, 284.529 232.310, 284.549 232.076, 284.863 " />
            <path fill="none" stroke-width="3.0" stroke-linecap="butt" stroke-opacity="1.0" stroke="rgb(0, 0, 0)" stroke-linejoin="round" d=" M 233.888, 284.374 233.689, 283.967 " />
            <path fill="none" stroke-width="3.0" stroke-linecap="butt" stroke-opacity="1.0" stroke="rgb(0, 0, 0)" stroke-linejoin="round" d=" M 233.956, 284.426 233.917, 284.258 233.689, 283.967 233.315, 283.960 232.988, 284.171 232.820, 284.389 232.807, 284.406 " />
            <path fill="none" stroke-width="3.0" stroke-linecap="butt" stroke-opacity="1.0" stroke="rgb(0, 0, 0)" stroke-linejoin="round" d=" M 233.792, 284.689 233.738, 284.700 233.449, 284.758 " />
            <path fill="none" stroke-width="3.0" stroke-linecap="butt" stroke-opacity="1.0" stroke="rgb(0, 0, 0)" stroke-linejoin="round" d=" M 218.383, 283.270 218.213, 283.805 218.172, 283.936 218.091, 284.943 218.013, 286.046 217.844, 286.840 " />
            <path fill="none" stroke-width="3.0" stroke-linecap="butt" stroke-opacity="1.0" stroke="rgb(0, 0, 0)" stroke-linejoin="round" d=" M 218.389, 281.905 218.202, 282.479 218.040, 283.416 218.213, 283.805 " />
            <path fill="none" stroke-width="3.0" stroke-linecap="butt" stroke-opacity="1.0" stroke="rgb(0, 0, 0)" stroke-linejoin="round" d=" M 232.378, 284.529 232.429, 284.128 232.386, 283.712 232.340, 283.585 232.231, 283.227 232.089, 282.884 231.852, 282.581 231.534, 282.350 231.290, 282.459 " />
            <path fill="none" stroke-width="3.0" stroke-linecap="butt" stroke-opacity="1.0" stroke="rgb(0, 0, 0)" stroke-linejoin="round" d=" M 203.159, 197.930 203.203, 198.181 203.397, 199.229 203.602, 200.275 203.814, 201.313 204.026, 202.342 204.237, 203.364 204.444, 204.377 204.648, 205.384 204.851, 206.384 205.053, 207.375 205.138, 207.785 205.256, 208.357 " />
            <path fill="none" stroke-width="3.0" stroke-linecap="butt" stroke-opacity="1.0" stroke="rgb(0, 0, 0)" stroke-linejoin="round" d=" M 202.941, 196.849 203.063, 197.454 203.159, 197.930 203.258, 198.418 " />
            <path fill="none" stroke-width="3.0" stroke-linecap="butt" stroke-opacity="1.0" stroke="rgb(0, 0, 0)" stroke-linejoin="round" d=" M 228.664, 282.192 228.256, 282.030 228.252, 282.028 228.177, 281.999 228.082, 281.960 227.967, 281.975 227.832, 281.993 " />
            <path fill="none" stroke-width="3.0" stroke-linecap="butt" stroke-opacity="1.0" stroke="rgb(0, 0, 0)" stroke-linejoin="round" d=" M 228.729, 282.925 228.750, 282.979 228.819, 283.196 " />
            <path fill="none" stroke-width="3.0" stroke-linecap="butt" stroke-opacity="1.0" stroke="rgb(0, 0, 0)" stroke-linejoin="round" d=" M 230.006, 283.283 229.999, 283.283 229.998, 283.283 229.563, 283.294 229.548, 283.294 229.143, 283.305 228.819, 283.196 228.720, 283.162 228.709, 283.159 228.205, 282.989 " />
            <path fill="none" stroke-width="3.0" stroke-linecap="butt" stroke-opacity="1.0" stroke="rgb(0, 0, 0)" stroke-linejoin="round" d=" M 228.455, 282.126 228.314, 282.175 228.307, 282.177 228.181, 282.220 " />
            <path fill="none" stroke-width="3.0" stroke-linecap="butt" stroke-opacity="1.0" stroke="rgb(0, 0, 0)" stroke-linejoin="round" d=" M 229.710, 281.949 229.549, 282.085 229.493, 282.132 229.333, 282.336 " />
            <path fill="none" stroke-width="3.0" stroke-linecap="butt" stroke-opacity="1.0" stroke="rgb(0, 0, 0)" stroke-linejoin="round" d=" M 229.673, 282.592 229.710, 281.949 229.204, 281.549 229.062, 281.532 228.424, 281.437 228.328, 281.423 227.804, 281.773 " />
            <path fill="none" stroke-width="3.0" stroke-linecap="butt" stroke-opacity="1.0" stroke="rgb(0, 0, 0)" stroke-linejoin="round" d=" M 228.379, 281.980 228.252, 282.028 " />
            <path fill="none" stroke-width="3.0" stroke-linecap="butt" stroke-opacity="1.0" stroke="rgb(0, 0, 0)" stroke-linejoin="round" d=" M 201.212, 195.789 201.911, 196.198 202.719, 196.704 202.941, 196.849 203.606, 197.282 203.666, 197.321 203.670, 197.323 203.848, 197.439 203.938, 197.497 204.901, 198.118 " />
            <path fill="none" stroke-width="3.0" stroke-linecap="butt" stroke-opacity="1.0" stroke="rgb(0, 0, 0)" stroke-linejoin="round" d=" M 195.235, 198.118 196.201, 197.493 196.296, 197.431 196.469, 197.319 196.473, 197.317 196.529, 197.281 197.196, 196.845 197.415, 196.702 198.222, 196.196 198.920, 195.787 199.485, 195.576 200.059, 195.497 200.641, 195.578 201.212, 195.789 201.270, 195.811 " />
            <path fill="none" stroke-width="3.0" stroke-linecap="butt" stroke-opacity="1.0" stroke="rgb(0, 0, 0)" stroke-linejoin="round" d=" M 227.853, 275.695 227.944, 275.175 228.126, 274.150 228.431, 272.576 228.749, 271.091 228.773, 270.980 228.794, 270.896 229.031, 269.928 229.166, 269.377 229.276, 269.006 229.811, 267.196 230.305, 265.604 230.773, 264.006 231.185, 262.399 231.547, 260.786 231.826, 259.151 232.026, 257.489 232.095, 256.678 232.218, 254.969 232.235, 253.232 232.186, 251.472 232.073, 249.692 231.877, 247.898 231.591, 246.094 231.263, 244.277 230.895, 242.449 230.497, 240.612 230.092, 238.777 229.803, 237.310 229.507, 235.262 229.412, 233.968 229.420, 233.119 229.413, 232.118 229.473, 230.831 " />
            <path fill="none" stroke-width="3.0" stroke-linecap="butt" stroke-opacity="1.0" stroke="rgb(0, 0, 0)" stroke-linejoin="round" d=" M 173.035, 140.573 173.051, 140.617 173.416, 141.611 " />
            <path fill="none" stroke-width="3.0" stroke-linecap="butt" stroke-opacity="1.0" stroke="rgb(0, 0, 0)" stroke-linejoin="round" d=" M 173.209, 140.991 173.582, 141.815 " />
            <path fill="none" stroke-width="3.0" stroke-linecap="butt" stroke-opacity="1.0" stroke="rgb(0, 0, 0)" stroke-linejoin="round" d=" M 173.003, 140.472 173.035, 140.573 173.048, 140.604 173.124, 140.787 173.209, 140.991 173.111, 140.745 173.093, 140.700 173.036, 140.557 173.022, 140.521 173.020, 140.516 173.003, 140.472 172.955, 140.351 172.882, 140.147 " />
            <path fill="none" stroke-width="3.0" stroke-linecap="butt" stroke-opacity="1.0" stroke="rgb(0, 0, 0)" stroke-linejoin="round" d=" M 173.051, 140.617 173.184, 141.151 173.356, 141.798 173.857, 143.574 174.051, 144.304 174.341, 145.319 174.612, 146.265 " />
            <path fill="none" stroke-width="3.0" stroke-linecap="butt" stroke-opacity="1.0" stroke="rgb(0, 0, 0)" stroke-linejoin="round" d=" M 172.743, 139.850 172.882, 140.147 172.883, 140.148 172.917, 140.226 172.922, 140.238 172.942, 140.282 172.984, 140.378 172.989, 140.391 173.016, 140.451 173.087, 140.615 " />
            <path fill="none" stroke-width="3.0" stroke-linecap="butt" stroke-opacity="1.0" stroke="rgb(0, 0, 0)" stroke-linejoin="round" d=" M 172.170, 139.484 172.178, 139.485 172.390, 139.513 172.589, 139.652 172.743, 139.850 172.783, 139.901 " />
            <path fill="none" stroke-width="3.0" stroke-linecap="butt" stroke-opacity="1.0" stroke="rgb(0, 0, 0)" stroke-linejoin="round" d=" M 171.851, 139.783 171.988, 139.635 172.066, 139.552 172.178, 139.485 " />
            <path fill="none" stroke-width="3.0" stroke-linecap="butt" stroke-opacity="1.0" stroke="rgb(0, 0, 0)" stroke-linejoin="round" d=" M 174.341, 145.319 174.827, 147.125 175.590, 149.242 176.186, 150.532 176.550, 151.321 " />
            <path fill="none" stroke-width="3.0" stroke-linecap="butt" stroke-opacity="1.0" stroke="rgb(0, 0, 0)" stroke-linejoin="round" d=" M 159.568, 156.537 160.041, 156.032 160.236, 155.824 161.416, 154.763 162.624, 153.709 163.823, 152.624 164.974, 151.478 166.038, 150.261 167.513, 148.343 168.368, 147.138 169.096, 146.035 169.668, 145.053 170.117, 144.163 170.705, 142.903 171.019, 142.189 171.266, 141.524 171.472, 140.918 171.697, 140.281 " />
            <path fill="none" stroke-width="3.0" stroke-linecap="butt" stroke-opacity="1.0" stroke="rgb(0, 0, 0)" stroke-linejoin="round" d=" M 171.658, 140.379 171.697, 140.281 171.839, 139.927 171.988, 139.635 " />
            <path fill="none" stroke-width="3.0" stroke-linecap="butt" stroke-opacity="1.0" stroke="rgb(0, 0, 0)" stroke-linejoin="round" d=" M 125.842, 189.126 125.777, 189.518 125.668, 190.177 125.631, 190.401 125.544, 190.927 125.955, 192.253 126.214, 193.673 126.113, 194.939 126.169, 195.171 126.490, 196.366 126.792, 196.946 127.149, 197.631 127.520, 198.656 127.586, 198.831 127.662, 198.989 127.965, 199.620 128.223, 200.441 128.374, 201.193 128.529, 201.783 128.607, 202.021 128.745, 202.055 129.222, 201.980 129.268, 201.964 129.537, 201.819 129.643, 201.762 " />
            <path fill="none" stroke-width="3.0" stroke-linecap="butt" stroke-opacity="1.0" stroke="rgb(0, 0, 0)" stroke-linejoin="round" d=" M 128.745, 202.055 128.904, 201.976 " />
            <path fill="none" stroke-width="3.0" stroke-linecap="butt" stroke-opacity="1.0" stroke="rgb(0, 0, 0)" stroke-linejoin="round" d=" M 125.595, 190.056 125.287, 189.773 " />
            <path fill="none" stroke-width="3.0" stroke-linecap="butt" stroke-opacity="1.0" stroke="rgb(0, 0, 0)" stroke-linejoin="round" d=" M 127.073, 185.896 126.596, 186.845 126.275, 187.481 126.034, 188.180 125.811, 188.824 " />
            <path fill="none" stroke-width="3.0" stroke-linecap="butt" stroke-opacity="1.0" stroke="rgb(0, 0, 0)" stroke-linejoin="round" d=" M 125.595, 190.056 125.631, 190.401 " />
            <path fill="none" stroke-width="3.0" stroke-linecap="butt" stroke-opacity="1.0" stroke="rgb(0, 0, 0)" stroke-linejoin="round" d=" M 125.536, 188.024 124.976, 188.851 124.610, 189.391 124.776, 190.399 124.791, 190.493 124.912, 191.220 124.847, 191.903 124.698, 192.570 124.530, 193.267 124.351, 194.025 124.192, 194.917 124.224, 195.190 124.279, 195.535 124.402, 196.297 " />
            <path fill="none" stroke-width="3.0" stroke-linecap="butt" stroke-opacity="1.0" stroke="rgb(0, 0, 0)" stroke-linejoin="round" d=" M 129.078, 196.003 129.076, 195.952 129.059, 195.517 129.035, 194.913 129.205, 193.921 129.276, 193.366 129.332, 192.928 130.035, 191.933 130.646, 190.847 131.334, 189.441 131.570, 189.130 " />
            <path fill="none" stroke-width="3.0" stroke-linecap="butt" stroke-opacity="1.0" stroke="rgb(0, 0, 0)" stroke-linejoin="round" d=" M 129.537, 201.819 129.626, 201.774 129.643, 201.762 130.023, 201.451 130.339, 200.940 130.437, 200.223 130.424, 200.054 130.319, 199.115 129.871, 198.094 129.345, 196.978 129.076, 195.952 " />
            <path fill="none" stroke-width="3.0" stroke-linecap="butt" stroke-opacity="1.0" stroke="rgb(0, 0, 0)" stroke-linejoin="round" d=" M 126.231, 191.248 126.321, 192.508 " />
            <path fill="none" stroke-width="3.0" stroke-linecap="butt" stroke-opacity="1.0" stroke="rgb(0, 0, 0)" stroke-linejoin="round" d=" M 134.736, 168.747 134.413, 169.193 133.585, 170.310 132.727, 171.517 131.896, 172.842 131.608, 173.363 130.786, 174.729 129.878, 176.184 129.182, 177.736 128.972, 178.262 128.503, 179.798 128.009, 181.105 127.888, 181.482 127.614, 182.336 127.074, 183.181 127.062, 183.200 126.902, 183.452 126.441, 184.158 126.073, 184.937 125.717, 185.690 125.050, 187.227 124.970, 188.599 124.976, 188.843 " />
            <path fill="none" stroke-width="3.0" stroke-linecap="butt" stroke-opacity="1.0" stroke="rgb(0, 0, 0)" stroke-linejoin="round" d=" M 127.888, 181.482 127.283, 182.270 126.594, 183.160 126.210, 184.233 126.072, 184.933 126.073, 184.937 " />
            <path fill="none" stroke-width="3.0" stroke-linecap="butt" stroke-opacity="1.0" stroke="rgb(0, 0, 0)" stroke-linejoin="round" d=" M 127.137, 182.980 127.062, 183.200 " />
            <path fill="none" stroke-width="3.0" stroke-linecap="butt" stroke-opacity="1.0" stroke="rgb(0, 0, 0)" stroke-linejoin="round" d=" M 125.632, 187.792 124.976, 188.843 124.946, 188.891 124.610, 189.391 " />
            <path fill="none" stroke-width="3.0" stroke-linecap="butt" stroke-opacity="1.0" stroke="rgb(0, 0, 0)" stroke-linejoin="round" d=" M 126.309, 186.157 126.143, 186.559 125.632, 187.792 125.536, 188.024 " />
            <path fill="none" stroke-width="3.0" stroke-linecap="butt" stroke-opacity="1.0" stroke="rgb(0, 0, 0)" stroke-linejoin="round" d=" M 181.956, 293.998 181.958, 293.989 182.430, 291.863 182.500, 291.166 182.531, 290.861 182.594, 290.237 182.555, 289.443 182.520, 288.940 182.513, 288.831 182.503, 288.680 182.448, 287.873 182.284, 286.996 182.262, 286.878 182.261, 286.875 182.245, 286.789 182.243, 286.780 182.239, 286.755 182.147, 286.266 181.867, 284.704 181.815, 284.048 181.754, 283.270 181.747, 283.186 181.748, 282.239 181.748, 282.211 181.749, 281.909 181.749, 281.668 181.770, 280.443 " />
            <path fill="none" stroke-width="3.0" stroke-linecap="butt" stroke-opacity="1.0" stroke="rgb(0, 0, 0)" stroke-linejoin="round" d=" M 181.771, 295.527 181.781, 295.443 181.958, 293.989 " />
            <path fill="none" stroke-width="3.0" stroke-linecap="butt" stroke-opacity="1.0" stroke="rgb(0, 0, 0)" stroke-linejoin="round" d=" M 172.560, 304.571 173.294, 305.121 173.443, 305.234 174.001, 305.626 174.905, 306.109 175.876, 306.405 176.946, 306.459 178.036, 306.351 179.106, 306.175 180.104, 305.839 180.922, 305.292 181.412, 304.788 181.978, 303.859 182.256, 302.917 182.420, 301.327 182.351, 300.032 182.138, 298.557 181.888, 297.056 181.781, 295.443 " />
            <path fill="none" stroke-width="3.0" stroke-linecap="butt" stroke-opacity="1.0" stroke="rgb(0, 0, 0)" stroke-linejoin="round" d=" M 135.798, 180.318 136.202, 179.625 " />
            <path fill="none" stroke-width="3.0" stroke-linecap="butt" stroke-opacity="1.0" stroke="rgb(0, 0, 0)" stroke-linejoin="round" d=" M 135.465, 180.553 136.111, 179.729 136.176, 179.646 136.202, 179.625 137.090, 178.888 137.887, 178.319 138.090, 178.173 139.113, 177.459 140.181, 176.781 141.292, 176.109 142.447, 175.418 143.636, 174.693 144.836, 173.928 146.009, 173.118 147.127, 172.270 147.723, 171.761 148.816, 170.862 149.812, 169.927 151.350, 168.346 152.874, 166.761 153.752, 165.781 155.161, 164.052 155.825, 162.953 156.797, 161.010 157.044, 160.519 " />
            <path fill="none" stroke-width="3.0" stroke-linecap="butt" stroke-opacity="1.0" stroke="rgb(0, 0, 0)" stroke-linejoin="round" d=" M 131.151, 189.609 131.570, 189.130 132.078, 188.548 133.123, 187.422 133.305, 187.160 133.794, 186.457 134.079, 186.048 134.950, 184.440 135.257, 183.674 135.264, 183.657 135.270, 183.640 135.295, 183.580 135.296, 183.576 135.448, 183.197 135.469, 183.109 135.812, 181.651 136.199, 180.639 " />
            <path fill="none" stroke-width="3.0" stroke-linecap="butt" stroke-opacity="1.0" stroke="rgb(0, 0, 0)" stroke-linejoin="round" d=" M 135.257, 183.674 135.440, 183.603 136.387, 182.810 136.944, 182.073 136.949, 182.066 137.046, 181.939 137.127, 181.785 137.256, 181.543 137.505, 181.074 137.880, 180.352 138.098, 179.852 " />
            <path fill="none" stroke-width="3.0" stroke-linecap="butt" stroke-opacity="1.0" stroke="rgb(0, 0, 0)" stroke-linejoin="round" d=" M 168.899, 295.946 168.910, 295.970 169.213, 296.636 169.522, 297.446 169.919, 298.485 170.126, 299.741 170.364, 301.003 171.062, 302.824 171.745, 303.791 172.560, 304.571 173.130, 305.005 173.294, 305.121 " />
            <path fill="none" stroke-width="3.0" stroke-linecap="butt" stroke-opacity="1.0" stroke="rgb(0, 0, 0)" stroke-linejoin="round" d=" M 169.381, 292.883 169.339, 293.151 169.196, 294.259 " />
            <path fill="none" stroke-width="3.0" stroke-linecap="butt" stroke-opacity="1.0" stroke="rgb(0, 0, 0)" stroke-linejoin="round" d=" M 172.527, 280.040 172.395, 281.225 172.318, 281.762 172.286, 281.989 172.265, 282.136 172.260, 282.175 172.259, 282.181 172.258, 282.184 172.258, 282.188 172.184, 282.706 171.974, 284.262 171.925, 284.808 171.792, 285.835 171.788, 285.861 171.710, 286.466 171.435, 288.200 171.230, 289.829 171.120, 290.479 171.031, 291.904 171.018, 292.979 " />
            <path fill="none" stroke-width="3.0" stroke-linecap="butt" stroke-opacity="1.0" stroke="rgb(0, 0, 0)" stroke-linejoin="round" d=" M 178.313, 171.291 178.184, 171.824 177.838, 172.781 177.412, 173.877 176.966, 175.088 176.532, 176.370 176.122, 177.690 175.751, 179.025 175.430, 180.374 175.221, 181.404 175.155, 181.733 174.866, 183.050 " />
            <path fill="none" stroke-width="3.0" stroke-linecap="butt" stroke-opacity="1.0" stroke="rgb(0, 0, 0)" stroke-linejoin="round" d=" M 178.218, 170.434 178.221, 170.463 178.313, 171.291 178.331, 171.457 178.298, 171.806 178.296, 171.836 178.232, 172.504 " />
            <path fill="none" stroke-width="3.0" stroke-linecap="butt" stroke-opacity="1.0" stroke="rgb(0, 0, 0)" stroke-linejoin="round" d=" M 178.580, 156.214 178.583, 156.590 178.481, 157.760 178.299, 159.046 178.145, 159.921 178.061, 160.402 " />
            <path fill="none" stroke-width="3.0" stroke-linecap="butt" stroke-opacity="1.0" stroke="rgb(0, 0, 0)" stroke-linejoin="round" d=" M 178.145, 159.921 178.089, 160.190 177.818, 161.370 177.594, 162.451 177.303, 164.005 177.199, 164.945 177.207, 165.763 177.256, 166.518 177.304, 167.212 177.627, 168.546 177.998, 169.682 178.221, 170.463 " />
            <path fill="none" stroke-width="3.0" stroke-linecap="butt" stroke-opacity="1.0" stroke="rgb(0, 0, 0)" stroke-linejoin="round" d=" M 177.864, 154.374 178.416, 155.787 178.580, 156.214 178.613, 156.298 178.622, 156.323 178.654, 156.406 178.846, 156.999 " />
            <path fill="none" stroke-width="3.0" stroke-linecap="butt" stroke-opacity="1.0" stroke="rgb(0, 0, 0)" stroke-linejoin="round" d=" M 145.538, 152.951 145.262, 153.193 144.427, 153.720 143.502, 154.338 142.588, 155.124 141.891, 155.754 141.011, 156.723 140.250, 157.800 139.614, 158.947 138.677, 161.032 138.202, 162.201 137.728, 163.362 137.220, 164.504 136.667, 165.616 136.063, 166.691 135.412, 167.734 134.736, 168.747 134.721, 168.770 133.986, 169.827 " />
            <path fill="none" stroke-width="3.0" stroke-linecap="butt" stroke-opacity="1.0" stroke="rgb(0, 0, 0)" stroke-linejoin="round" d=" M 157.579, 133.555 156.989, 134.224 156.146, 135.221 155.335, 136.315 154.597, 137.480 154.077, 138.358 153.422, 139.516 152.795, 140.671 152.139, 141.829 151.417, 143.020 150.625, 144.272 149.819, 145.610 148.749, 147.234 147.947, 148.596 147.239, 149.942 146.613, 151.177 146.012, 152.291 145.760, 152.757 145.754, 152.769 " />
            <path fill="none" stroke-width="3.0" stroke-linecap="butt" stroke-opacity="1.0" stroke="rgb(0, 0, 0)" stroke-linejoin="round" d=" M 190.501, 79.582 189.884, 80.906 189.793, 81.101 189.773, 81.150 189.242, 82.736 188.898, 84.302 188.710, 85.791 188.617, 87.137 188.622, 88.339 188.698, 89.462 188.704, 89.541 188.781, 90.520 188.791, 90.712 188.795, 90.774 188.801, 90.890 188.836, 91.554 " />
            <path fill="none" stroke-width="3.0" stroke-linecap="butt" stroke-opacity="1.0" stroke="rgb(0, 0, 0)" stroke-linejoin="round" d=" M 188.288, 89.596 188.216, 89.757 188.114, 89.959 188.110, 89.968 187.930, 90.325 187.502, 91.168 187.130, 92.079 187.071, 92.225 186.888, 93.148 186.844, 93.367 186.775, 94.487 186.866, 95.458 " />
            <path fill="none" stroke-width="3.0" stroke-linecap="butt" stroke-opacity="1.0" stroke="rgb(0, 0, 0)" stroke-linejoin="round" d=" M 188.704, 89.541 188.654, 89.570 188.288, 89.596 188.109, 89.793 " />
            <path fill="none" stroke-width="3.0" stroke-linecap="butt" stroke-opacity="1.0" stroke="rgb(0, 0, 0)" stroke-linejoin="round" d=" M 188.216, 89.757 188.109, 89.793 187.798, 89.896 187.464, 90.379 187.075, 91.175 186.810, 92.173 186.676, 93.244 186.627, 94.306 186.650, 95.244 186.995, 95.901 187.438, 96.338 187.858, 96.605 188.175, 96.802 188.570, 96.888 188.691, 96.910 " />
            <path fill="none" stroke-width="3.0" stroke-linecap="butt" stroke-opacity="1.0" stroke="rgb(0, 0, 0)" stroke-linejoin="round" d=" M 136.913, 182.128 136.949, 182.066 " />
            <path fill="none" stroke-width="3.0" stroke-linecap="butt" stroke-opacity="1.0" stroke="rgb(0, 0, 0)" stroke-linejoin="round" d=" M 137.256, 181.543 137.296, 181.475 137.613, 180.935 137.941, 180.311 138.098, 179.852 138.163, 179.107 138.092, 178.792 137.887, 178.319 " />
            <path fill="none" stroke-width="3.0" stroke-linecap="butt" stroke-opacity="1.0" stroke="rgb(0, 0, 0)" stroke-linejoin="round" d=" M 136.646, 185.394 136.691, 185.058 136.767, 184.493 136.772, 183.499 136.839, 182.511 137.127, 181.785 " />
            <path fill="none" stroke-width="3.0" stroke-linecap="butt" stroke-opacity="1.0" stroke="rgb(0, 0, 0)" stroke-linejoin="round" d=" M 176.186, 150.532 176.919, 152.176 177.272, 152.962 177.864, 154.374 178.165, 155.091 " />
            <path fill="none" stroke-width="3.0" stroke-linecap="butt" stroke-opacity="1.0" stroke="rgb(0, 0, 0)" stroke-linejoin="round" d=" M 166.202, 285.960 166.175, 287.083 166.175, 287.216 166.177, 288.462 166.206, 289.257 166.343, 290.035 166.462, 290.776 166.593, 291.479 166.763, 292.214 167.194, 292.955 167.592, 293.845 168.310, 295.299 168.910, 295.970 " />
            <path fill="none" stroke-width="3.0" stroke-linecap="butt" stroke-opacity="1.0" stroke="rgb(0, 0, 0)" stroke-linejoin="round" d=" M 166.249, 284.372 166.180, 284.425 165.949, 284.602 165.818, 284.985 165.707, 285.405 165.710, 285.787 165.683, 286.002 165.794, 286.496 165.934, 286.925 166.175, 287.216 " />
            <path fill="none" stroke-width="3.0" stroke-linecap="butt" stroke-opacity="1.0" stroke="rgb(0, 0, 0)" stroke-linejoin="round" d=" M 182.310, 286.919 182.124, 286.044 182.046, 284.943 181.965, 283.935 181.923, 283.804 181.754, 283.270 " />
            <path fill="none" stroke-width="3.0" stroke-linecap="butt" stroke-opacity="1.0" stroke="rgb(0, 0, 0)" stroke-linejoin="round" d=" M 182.648, 290.517 182.773, 290.112 182.763, 288.726 182.611, 287.999 " />
            <path fill="none" stroke-width="3.0" stroke-linecap="butt" stroke-opacity="1.0" stroke="rgb(0, 0, 0)" stroke-linejoin="round" d=" M 168.992, 283.865 168.978, 283.998 168.063, 284.862 168.008, 284.914 168.001, 284.920 " />
            <path fill="none" stroke-width="3.0" stroke-linecap="butt" stroke-opacity="1.0" stroke="rgb(0, 0, 0)" stroke-linejoin="round" d=" M 169.892, 282.888 169.756, 282.671 169.681, 282.569 169.044, 282.342 168.847, 282.459 168.502, 282.662 168.320, 283.114 " />
            <path fill="none" stroke-width="3.0" stroke-linecap="butt" stroke-opacity="1.0" stroke="rgb(0, 0, 0)" stroke-linejoin="round" d=" M 169.043, 282.482 169.044, 282.342 " />
            <path fill="none" stroke-width="3.0" stroke-linecap="butt" stroke-opacity="1.0" stroke="rgb(0, 0, 0)" stroke-linejoin="round" d=" M 172.055, 281.960 171.960, 281.998 171.884, 282.027 171.880, 282.029 171.472, 282.189 " />
            <path fill="none" stroke-width="3.0" stroke-linecap="butt" stroke-opacity="1.0" stroke="rgb(0, 0, 0)" stroke-linejoin="round" d=" M 172.286, 281.989 172.165, 281.974 172.055, 281.960 171.966, 282.000 171.895, 282.031 171.890, 282.034 171.681, 282.126 171.647, 282.183 171.435, 282.531 171.407, 282.926 170.567, 282.910 170.015, 282.887 169.955, 282.885 169.892, 282.888 169.816, 282.892 169.754, 282.896 169.545, 282.907 169.535, 282.921 169.534, 282.923 169.526, 282.935 169.515, 282.951 169.257, 283.331 " />
            <path fill="none" stroke-width="3.0" stroke-linecap="butt" stroke-opacity="1.0" stroke="rgb(0, 0, 0)" stroke-linejoin="round" d=" M 171.319, 283.195 171.387, 282.979 171.407, 282.926 " />
            <path fill="none" stroke-width="3.0" stroke-linecap="butt" stroke-opacity="1.0" stroke="rgb(0, 0, 0)" stroke-linejoin="round" d=" M 171.681, 282.126 171.822, 282.174 171.826, 282.176 171.956, 282.220 " />
            <path fill="none" stroke-width="3.0" stroke-linecap="butt" stroke-opacity="1.0" stroke="rgb(0, 0, 0)" stroke-linejoin="round" d=" M 170.426, 281.949 170.588, 282.085 170.644, 282.132 170.803, 282.335 " />
            <path fill="none" stroke-width="3.0" stroke-linecap="butt" stroke-opacity="1.0" stroke="rgb(0, 0, 0)" stroke-linejoin="round" d=" M 172.318, 281.762 171.808, 281.423 171.708, 281.438 171.075, 281.532 170.933, 281.549 170.426, 281.949 170.464, 282.592 " />
            <path fill="none" stroke-width="3.0" stroke-linecap="butt" stroke-opacity="1.0" stroke="rgb(0, 0, 0)" stroke-linejoin="round" d=" M 168.031, 285.246 167.983, 285.292 167.612, 285.645 167.288, 285.987 " />
            <path fill="none" stroke-width="3.0" stroke-linecap="butt" stroke-opacity="1.0" stroke="rgb(0, 0, 0)" stroke-linejoin="round" d=" M 171.931, 282.989 171.428, 283.159 171.416, 283.162 171.319, 283.195 170.994, 283.305 170.589, 283.294 170.574, 283.293 170.138, 283.282 170.137, 283.282 170.131, 283.281 " />
            <path fill="none" stroke-width="3.0" stroke-linecap="butt" stroke-opacity="1.0" stroke="rgb(0, 0, 0)" stroke-linejoin="round" d=" M 182.683, 289.159 182.612, 288.021 182.612, 288.019 182.611, 287.999 182.583, 287.559 182.454, 287.250 182.310, 286.919 182.239, 286.755 " />
            <path fill="none" stroke-width="3.0" stroke-linecap="butt" stroke-opacity="1.0" stroke="rgb(0, 0, 0)" stroke-linejoin="round" d=" M 156.860, 160.828 157.044, 160.519 157.446, 159.846 158.132, 158.844 158.893, 157.759 159.690, 156.570 160.041, 156.032 " />
            <path fill="none" stroke-width="3.0" stroke-linecap="butt" stroke-opacity="1.0" stroke="rgb(0, 0, 0)" stroke-linejoin="round" d=" M 196.142, 197.557 196.296, 197.431 " />
            <path fill="none" stroke-width="3.0" stroke-linecap="butt" stroke-opacity="1.0" stroke="rgb(0, 0, 0)" stroke-linejoin="round" d=" M 196.411, 197.413 196.473, 197.317 " />
            <path fill="none" stroke-width="3.0" stroke-linecap="butt" stroke-opacity="1.0" stroke="rgb(0, 0, 0)" stroke-linejoin="round" d=" M 170.861, 232.034 170.803, 233.905 170.697, 235.218 170.368, 237.291 170.062, 238.771 169.645, 240.610 169.243, 242.449 168.873, 244.277 168.547, 246.095 168.260, 247.898 168.064, 249.693 167.950, 251.472 167.901, 253.232 167.915, 254.970 168.036, 256.679 168.107, 257.491 168.307, 259.153 168.586, 260.787 168.949, 262.398 169.364, 264.003 169.833, 265.600 170.329, 267.192 170.805, 268.783 171.226, 270.373 171.584, 271.956 171.899, 273.521 172.177, 275.065 172.405, 276.585 172.556, 278.083 172.576, 278.932 172.527, 280.040 172.512, 280.378 " />
            <path fill="none" stroke-width="3.0" stroke-linecap="butt" stroke-opacity="1.0" stroke="rgb(0, 0, 0)" stroke-linejoin="round" d=" M 171.013, 201.871 170.825, 203.442 170.705, 204.471 170.597, 205.494 170.498, 206.509 170.407, 207.516 170.322, 208.517 170.249, 209.512 170.193, 210.504 170.096, 212.375 170.057, 213.347 170.027, 214.321 170.009, 215.298 169.966, 217.139 169.938, 218.107 169.924, 219.072 169.924, 220.037 169.923, 221.840 169.934, 222.824 169.990, 223.833 170.092, 224.862 170.299, 226.620 170.426, 227.604 170.571, 228.588 170.758, 230.109 170.827, 231.050 170.861, 232.034 170.883, 232.706 " />
            <path fill="none" stroke-width="3.0" stroke-linecap="butt" stroke-opacity="1.0" stroke="rgb(0, 0, 0)" stroke-linejoin="round" d=" M 227.346, 139.898 227.395, 139.837 227.541, 139.652 227.743, 139.511 227.953, 139.486 227.966, 139.484 " />
            <path fill="none" stroke-width="3.0" stroke-linecap="butt" stroke-opacity="1.0" stroke="rgb(0, 0, 0)" stroke-linejoin="round" d=" M 271.060, 195.952 270.792, 196.978 270.266, 198.094 269.818, 199.115 269.714, 200.054 269.699, 200.222 269.798, 200.940 270.113, 201.451 270.493, 201.762 270.510, 201.774 270.600, 201.819 " />
            <path fill="none" stroke-width="3.0" stroke-linecap="butt" stroke-opacity="1.0" stroke="rgb(0, 0, 0)" stroke-linejoin="round" d=" M 218.356, 295.443 218.249, 297.056 217.999, 298.557 217.785, 300.032 217.716, 301.327 217.880, 302.917 218.159, 303.860 218.725, 304.788 219.215, 305.292 220.031, 305.841 221.031, 306.175 222.101, 306.351 223.191, 306.459 224.261, 306.405 225.232, 306.109 226.135, 305.626 226.694, 305.234 226.889, 305.087 227.577, 304.571 227.005, 305.004 226.889, 305.087 " />
            <path fill="none" stroke-width="3.0" stroke-linecap="butt" stroke-opacity="1.0" stroke="rgb(0, 0, 0)" stroke-linejoin="round" d=" M 209.524, 99.554 209.962, 98.751 210.040, 98.608 210.187, 98.338 " />
            <path fill="none" stroke-width="3.0" stroke-linecap="butt" stroke-opacity="1.0" stroke="rgb(0, 0, 0)" stroke-linejoin="round" d=" M 209.936, 98.751 209.980, 98.679 210.063, 98.542 210.176, 98.356 210.187, 98.338 210.580, 97.691 210.684, 97.520 210.784, 97.355 " />
            <path fill="none" stroke-width="3.0" stroke-linecap="butt" stroke-opacity="1.0" stroke="rgb(0, 0, 0)" stroke-linejoin="round" d=" M 209.962, 98.751 210.031, 98.633 210.593, 97.676 210.685, 97.518 211.046, 97.132 211.071, 97.105 211.216, 96.950 211.228, 96.938 211.228, 96.938 " />
            <path fill="none" stroke-width="3.0" stroke-linecap="butt" stroke-opacity="1.0" stroke="rgb(0, 0, 0)" stroke-linejoin="round" d=" M 191.015, 105.363 190.731, 106.630 190.679, 106.860 190.273, 107.694 190.146, 107.955 190.034, 108.186 " />
            <path fill="none" stroke-width="3.0" stroke-linecap="butt" stroke-opacity="1.0" stroke="rgb(0, 0, 0)" stroke-linejoin="round" d=" M 231.817, 283.114 231.634, 282.662 231.290, 282.459 231.093, 282.342 230.456, 282.569 230.381, 282.671 230.245, 282.888 " />
            <path fill="none" stroke-width="3.0" stroke-linecap="butt" stroke-opacity="1.0" stroke="rgb(0, 0, 0)" stroke-linejoin="round" d=" M 217.916, 286.662 217.844, 286.840 217.552, 287.559 217.525, 288.001 217.524, 288.023 217.524, 288.025 217.453, 289.159 " />
            <path fill="none" stroke-width="3.0" stroke-linecap="butt" stroke-opacity="1.0" stroke="rgb(0, 0, 0)" stroke-linejoin="round" d=" M 217.525, 288.001 217.373, 288.726 217.364, 290.112 217.489, 290.516 " />
            <path fill="none" stroke-width="3.0" stroke-linecap="butt" stroke-opacity="1.0" stroke="rgb(0, 0, 0)" stroke-linejoin="round" d=" M 231.534, 282.350 231.486, 282.455 " />
            <path fill="none" stroke-width="3.0" stroke-linecap="butt" stroke-opacity="1.0" stroke="rgb(0, 0, 0)" stroke-linejoin="round" d=" M 231.093, 282.342 231.094, 282.482 " />
            <path fill="none" stroke-width="3.0" stroke-linecap="butt" stroke-opacity="1.0" stroke="rgb(0, 0, 0)" stroke-linejoin="round" d=" M 230.121, 282.887 230.089, 282.698 229.915, 282.258 229.817, 281.776 229.538, 281.316 229.079, 281.273 228.669, 281.215 228.424, 281.437 " />
            <path fill="none" stroke-width="3.0" stroke-linecap="butt" stroke-opacity="1.0" stroke="rgb(0, 0, 0)" stroke-linejoin="round" d=" M 229.441, 231.149 229.473, 230.831 229.592, 229.638 229.710, 228.648 229.898, 226.984 230.019, 225.915 230.115, 224.856 230.187, 223.820 230.222, 222.811 230.222, 221.832 230.214, 220.031 230.210, 219.067 230.193, 218.105 230.167, 217.138 230.124, 215.298 230.106, 214.321 230.077, 213.347 230.038, 212.375 229.939, 210.503 229.883, 209.512 229.811, 208.518 229.725, 207.517 229.632, 206.510 229.532, 205.495 229.423, 204.473 229.303, 203.444 229.108, 201.831 " />
            <path fill="none" stroke-width="3.0" stroke-linecap="butt" stroke-opacity="1.0" stroke="rgb(0, 0, 0)" stroke-linejoin="round" d=" M 124.279, 195.535 124.350, 196.038 124.402, 196.297 124.828, 197.429 124.853, 197.493 " />
            <path fill="none" stroke-width="3.0" stroke-linecap="butt" stroke-opacity="1.0" stroke="rgb(0, 0, 0)" stroke-linejoin="round" d=" M 124.776, 190.399 124.681, 190.789 124.420, 191.549 124.041, 192.392 124.049, 193.813 124.104, 194.975 124.043, 196.152 124.008, 197.324 124.232, 198.467 124.248, 198.549 " />
            <path fill="none" stroke-width="3.0" stroke-linecap="butt" stroke-opacity="1.0" stroke="rgb(0, 0, 0)" stroke-linejoin="round" d=" M 182.500, 291.166 182.577, 290.960 182.640, 290.671 182.648, 290.517 182.702, 289.398 182.503, 288.680 " />
            <path fill="none" stroke-width="3.0" stroke-linecap="butt" stroke-opacity="1.0" stroke="rgb(0, 0, 0)" stroke-linejoin="round" d=" M 182.575, 287.807 182.562, 287.766 182.489, 287.540 182.352, 287.117 182.297, 286.947 182.250, 286.799 182.243, 286.780 " />
            <path fill="none" stroke-width="3.0" stroke-linecap="butt" stroke-opacity="1.0" stroke="rgb(0, 0, 0)" stroke-linejoin="round" d=" M 175.221, 181.404 175.012, 182.281 174.728, 183.493 174.444, 184.682 173.934, 186.693 173.923, 186.734 " />
            <path fill="none" stroke-width="3.0" stroke-linecap="butt" stroke-opacity="1.0" stroke="rgb(0, 0, 0)" stroke-linejoin="round" d=" M 188.611, 96.868 188.691, 96.910 189.066, 97.106 " />
            <path fill="none" stroke-width="3.0" stroke-linecap="butt" stroke-opacity="1.0" stroke="rgb(0, 0, 0)" stroke-linejoin="round" d=" M 188.909, 96.939 188.910, 96.940 188.921, 96.952 189.066, 97.106 189.089, 97.131 189.444, 97.510 " />
            <path fill="none" stroke-width="3.0" stroke-linecap="butt" stroke-opacity="1.0" stroke="rgb(0, 0, 0)" stroke-linejoin="round" d=" M 189.350, 97.356 189.444, 97.510 189.444, 97.510 189.531, 97.653 189.545, 97.676 189.968, 98.373 189.985, 98.401 190.080, 98.557 190.163, 98.693 190.199, 98.753 " />
            <path fill="none" stroke-width="3.0" stroke-linecap="butt" stroke-opacity="1.0" stroke="rgb(0, 0, 0)" stroke-linejoin="round" d=" M 196.913, 74.538 196.290, 74.734 195.382, 75.019 193.904, 75.732 192.544, 76.749 191.774, 77.674 " />
            <path fill="none" stroke-width="3.0" stroke-linecap="butt" stroke-opacity="1.0" stroke="rgb(0, 0, 0)" stroke-linejoin="round" d=" M 199.981, 74.269 198.484, 74.316 196.910, 74.530 196.290, 74.734 " />
            <path fill="none" stroke-width="3.0" stroke-linecap="butt" stroke-opacity="1.0" stroke="rgb(0, 0, 0)" stroke-linejoin="round" d=" M 192.589, 76.859 191.774, 77.674 191.375, 78.072 190.484, 79.576 189.884, 80.906 " />
            <path fill="none" stroke-width="3.0" stroke-linecap="butt" stroke-opacity="1.0" stroke="rgb(0, 0, 0)" stroke-linejoin="round" d=" M 168.847, 282.459 168.601, 282.349 168.285, 282.581 168.052, 282.886 167.909, 283.228 167.797, 283.585 167.751, 283.712 167.708, 284.128 167.760, 284.526 " />
            <path fill="none" stroke-width="3.0" stroke-linecap="butt" stroke-opacity="1.0" stroke="rgb(0, 0, 0)" stroke-linejoin="round" d=" M 171.708, 281.438 171.468, 281.217 171.058, 281.273 170.600, 281.316 170.321, 281.775 170.222, 282.258 170.048, 282.698 170.015, 282.887 " />
            <path fill="none" stroke-width="3.0" stroke-linecap="butt" stroke-opacity="1.0" stroke="rgb(0, 0, 0)" stroke-linejoin="round" d=" M 166.688, 284.758 166.400, 284.701 166.346, 284.690 " />
            <path fill="none" stroke-width="3.0" stroke-linecap="butt" stroke-opacity="1.0" stroke="rgb(0, 0, 0)" stroke-linejoin="round" d=" M 167.827, 284.549 167.760, 284.530 167.694, 284.511 167.693, 284.511 167.665, 284.502 167.331, 284.407 167.319, 284.403 167.306, 284.399 166.841, 284.599 166.346, 284.690 166.172, 284.774 " />
            <path fill="none" stroke-width="3.0" stroke-linecap="butt" stroke-opacity="1.0" stroke="rgb(0, 0, 0)" stroke-linejoin="round" d=" M 168.063, 284.862 167.827, 284.549 167.760, 284.526 167.686, 284.501 167.665, 284.502 " />
            <path fill="none" stroke-width="3.0" stroke-linecap="butt" stroke-opacity="1.0" stroke="rgb(0, 0, 0)" stroke-linejoin="round" d=" M 167.331, 284.407 167.316, 284.388 167.148, 284.170 166.822, 283.960 166.448, 283.967 166.220, 284.257 166.180, 284.425 " />
            <path fill="none" stroke-width="3.0" stroke-linecap="butt" stroke-opacity="1.0" stroke="rgb(0, 0, 0)" stroke-linejoin="round" d=" M 166.249, 284.372 166.448, 283.967 " />
            <path fill="none" stroke-width="3.0" stroke-linecap="butt" stroke-opacity="1.0" stroke="rgb(0, 0, 0)" stroke-linejoin="round" d=" M 181.923, 283.804 182.095, 283.416 181.935, 282.479 181.749, 281.909 " />
            <path fill="none" stroke-width="3.0" stroke-linecap="butt" stroke-opacity="1.0" stroke="rgb(0, 0, 0)" stroke-linejoin="round" d=" M 194.881, 208.357 194.999, 207.782 195.084, 207.374 195.285, 206.384 195.490, 205.384 195.694, 204.377 195.901, 203.362 196.111, 202.342 196.323, 201.313 196.535, 200.275 196.740, 199.229 196.934, 198.181 196.978, 197.926 " />
            <path fill="none" stroke-width="3.0" stroke-linecap="butt" stroke-opacity="1.0" stroke="rgb(0, 0, 0)" stroke-linejoin="round" d=" M 196.879, 198.417 196.978, 197.926 197.074, 197.454 197.196, 196.845 " />
            <path fill="none" stroke-width="3.0" stroke-linecap="butt" stroke-opacity="1.0" stroke="rgb(0, 0, 0)" stroke-linejoin="round" d=" M 168.651, 282.455 168.601, 282.349 " />
            <path fill="none" stroke-width="3.0" stroke-linecap="butt" stroke-opacity="1.0" stroke="rgb(0, 0, 0)" stroke-linejoin="round" d=" M 221.971, 155.092 222.280, 154.356 222.865, 152.963 223.217, 152.175 224.020, 150.371 " />
            <path fill="none" stroke-width="3.0" stroke-linecap="butt" stroke-opacity="1.0" stroke="rgb(0, 0, 0)" stroke-linejoin="round" d=" M 242.996, 134.161 242.572, 133.556 242.483, 133.429 " />
            <path fill="none" stroke-width="3.0" stroke-linecap="butt" stroke-opacity="1.0" stroke="rgb(0, 0, 0)" stroke-linejoin="round" d=" M 271.236, 201.982 271.392, 202.055 " />
            <path fill="none" stroke-width="3.0" stroke-linecap="butt" stroke-opacity="1.0" stroke="rgb(0, 0, 0)" stroke-linejoin="round" d=" M 272.476, 198.987 272.446, 199.555 272.543, 200.545 272.575, 200.731 272.776, 201.449 273.031, 201.909 273.058, 201.935 273.201, 202.074 " />
            <path fill="none" stroke-width="3.0" stroke-linecap="butt" stroke-opacity="1.0" stroke="rgb(0, 0, 0)" stroke-linejoin="round" d=" M 274.738, 200.990 275.014, 201.138 275.262, 201.196 275.710, 201.119 276.034, 201.029 276.111, 200.692 276.082, 200.445 276.017, 200.114 275.940, 199.600 275.871, 199.103 " />
            <path fill="none" stroke-width="3.0" stroke-linecap="butt" stroke-opacity="1.0" stroke="rgb(0, 0, 0)" stroke-linejoin="round" d=" M 275.862, 199.265 275.871, 199.103 275.905, 198.467 " />
            <path fill="none" stroke-width="3.0" stroke-linecap="butt" stroke-opacity="1.0" stroke="rgb(0, 0, 0)" stroke-linejoin="round" d=" M 273.058, 201.935 273.287, 202.215 273.567, 202.432 273.850, 202.505 274.258, 202.525 274.711, 202.359 274.780, 202.179 274.774, 201.752 274.724, 201.197 274.738, 200.990 274.765, 200.563 " />
            <path fill="none" stroke-width="3.0" stroke-linecap="butt" stroke-opacity="1.0" stroke="rgb(0, 0, 0)" stroke-linejoin="round" d=" M 274.711, 202.359 274.549, 202.410 274.504, 202.400 274.490, 202.397 274.373, 202.370 " />
            <path fill="none" stroke-width="3.0" stroke-linecap="butt" stroke-opacity="1.0" stroke="rgb(0, 0, 0)" stroke-linejoin="round" d=" M 212.670, 231.649 213.009, 232.791 213.278, 234.177 213.385, 235.616 213.321, 237.146 213.235, 238.769 213.256, 240.447 213.328, 242.133 213.354, 244.335 213.329, 246.074 213.310, 247.811 213.323, 249.546 213.415, 251.282 213.560, 253.037 213.737, 254.828 213.963, 256.648 214.264, 258.510 214.676, 260.417 214.813, 261.008 215.264, 262.886 215.820, 264.725 216.387, 266.509 216.891, 268.247 217.306, 269.921 217.616, 271.556 217.746, 272.531 217.913, 274.153 218.067, 275.778 218.197, 277.409 218.300, 279.031 218.367, 280.453 218.375, 280.625 " />
            <path fill="none" stroke-width="3.0" stroke-linecap="butt" stroke-opacity="1.0" stroke="rgb(0, 0, 0)" stroke-linejoin="round" d=" M 227.629, 280.379 227.617, 280.130 227.562, 278.933 227.587, 278.086 227.735, 276.589 227.944, 275.175 " />
            <path fill="none" stroke-width="3.0" stroke-linecap="butt" stroke-opacity="1.0" stroke="rgb(0, 0, 0)" stroke-linejoin="round" d=" M 229.174, 202.408 229.108, 201.831 228.944, 200.382 228.819, 199.301 228.649, 198.209 228.453, 197.101 228.239, 195.978 228.010, 194.838 227.777, 193.676 227.534, 192.497 227.096, 190.320 226.831, 189.123 226.532, 187.928 226.205, 186.708 " />
            <path fill="none" stroke-width="3.0" stroke-linecap="butt" stroke-opacity="1.0" stroke="rgb(0, 0, 0)" stroke-linejoin="round" d=" M 268.770, 173.853 268.227, 172.853 267.374, 171.542 266.514, 170.337 265.690, 169.212 264.929, 168.133 264.623, 167.685 " />
            <path fill="none" stroke-width="3.0" stroke-linecap="butt" stroke-opacity="1.0" stroke="rgb(0, 0, 0)" stroke-linejoin="round" d=" M 208.373, 77.684 207.594, 76.747 206.234, 75.732 204.755, 75.020 203.855, 74.738 203.223, 74.539 " />
            <path fill="none" stroke-width="3.0" stroke-linecap="butt" stroke-opacity="1.0" stroke="rgb(0, 0, 0)" stroke-linejoin="round" d=" M 125.005, 198.746 125.088, 199.431 125.144, 199.891 125.372, 200.567 125.419, 200.707 " />
            <path fill="none" stroke-width="3.0" stroke-linecap="butt" stroke-opacity="1.0" stroke="rgb(0, 0, 0)" stroke-linejoin="round" d=" M 124.828, 197.429 124.942, 198.524 125.088, 199.431 " />
            <path fill="none" stroke-width="3.0" stroke-linecap="butt" stroke-opacity="1.0" stroke="rgb(0, 0, 0)" stroke-linejoin="round" d=" M 125.414, 201.196 125.363, 201.752 125.356, 202.179 125.425, 202.360 125.878, 202.526 126.287, 202.507 126.570, 202.432 126.850, 202.215 127.083, 201.931 " />
            <path fill="none" stroke-width="3.0" stroke-linecap="butt" stroke-opacity="1.0" stroke="rgb(0, 0, 0)" stroke-linejoin="round" d=" M 125.425, 202.360 125.589, 202.410 125.627, 202.401 125.646, 202.397 125.764, 202.370 " />
            <path fill="none" stroke-width="3.0" stroke-linecap="butt" stroke-opacity="1.0" stroke="rgb(0, 0, 0)" stroke-linejoin="round" d=" M 126.935, 202.074 127.083, 201.931 127.106, 201.909 127.361, 201.449 127.563, 200.731 127.594, 200.545 127.692, 199.555 127.662, 198.989 " />
            <path fill="none" stroke-width="3.0" stroke-linecap="butt" stroke-opacity="1.0" stroke="rgb(0, 0, 0)" stroke-linejoin="round" d=" M 181.762, 280.624 181.770, 280.443 181.837, 279.031 181.940, 277.409 182.070, 275.778 182.224, 274.151 182.391, 272.531 182.521, 271.555 182.831, 269.920 183.247, 268.247 183.750, 266.508 184.317, 264.724 184.872, 262.886 185.322, 261.008 185.455, 260.416 185.872, 258.511 186.174, 256.648 186.400, 254.828 186.577, 253.037 186.720, 251.282 186.814, 249.546 186.826, 247.811 186.808, 246.074 186.783, 244.335 186.809, 242.133 186.881, 240.447 186.901, 238.769 186.816, 237.146 186.752, 235.616 186.858, 234.177 187.128, 232.791 187.469, 231.646 " />
            <path fill="none" stroke-width="3.0" stroke-linecap="butt" stroke-opacity="1.0" stroke="rgb(0, 0, 0)" stroke-linejoin="round" d=" M 124.266, 199.102 124.195, 199.600 124.120, 200.114 124.054, 200.445 124.026, 200.690 124.103, 201.029 124.427, 201.119 124.875, 201.196 125.123, 201.137 125.400, 200.989 " />
            <path fill="none" stroke-width="3.0" stroke-linecap="butt" stroke-opacity="1.0" stroke="rgb(0, 0, 0)" stroke-linejoin="round" d=" M 173.934, 186.693 173.603, 187.926 173.305, 189.121 173.041, 190.318 172.602, 192.496 172.358, 193.675 172.124, 194.836 171.892, 195.977 171.678, 197.099 171.478, 198.206 171.309, 199.297 171.183, 200.380 171.013, 201.871 170.952, 202.406 " />
            <path fill="none" stroke-width="3.0" stroke-linecap="butt" stroke-opacity="1.0" stroke="rgb(0, 0, 0)" stroke-linejoin="round" d=" M 129.059, 195.517 129.074, 195.486 129.297, 194.893 129.366, 194.110 129.374, 193.725 129.276, 193.366 " />
            <path fill="none" stroke-width="3.0" stroke-linecap="butt" stroke-opacity="1.0" stroke="rgb(0, 0, 0)" stroke-linejoin="round" d=" M 133.305, 187.160 133.373, 187.289 133.713, 187.595 134.361, 187.963 134.754, 188.091 135.097, 188.102 135.461, 188.070 135.894, 187.853 136.110, 187.608 136.436, 187.220 136.557, 186.685 136.727, 186.197 136.724, 185.694 136.691, 185.058 " />
            <path fill="none" stroke-width="3.0" stroke-linecap="butt" stroke-opacity="1.0" stroke="rgb(0, 0, 0)" stroke-linejoin="round" d=" M 187.338, 231.956 187.469, 231.646 187.856, 230.736 188.149, 230.094 188.725, 228.871 189.266, 227.669 189.760, 226.485 190.203, 225.325 190.603, 224.194 190.974, 223.091 191.319, 222.014 191.641, 220.962 191.947, 219.932 192.243, 218.924 192.527, 217.935 192.798, 216.963 193.061, 216.003 193.317, 215.054 193.562, 214.112 193.797, 213.175 194.025, 212.240 194.245, 211.303 194.459, 210.360 194.664, 209.409 194.866, 208.444 194.999, 207.782 " />
            <path fill="none" stroke-width="3.0" stroke-linecap="butt" stroke-opacity="1.0" stroke="rgb(0, 0, 0)" stroke-linejoin="round" d=" M 274.717, 200.707 274.765, 200.563 274.993, 199.891 275.051, 199.418 275.133, 198.746 " />
            <path fill="none" stroke-width="3.0" stroke-linecap="butt" stroke-opacity="1.0" stroke="rgb(0, 0, 0)" stroke-linejoin="round" d=" M 203.855, 74.738 203.227, 74.531 201.653, 74.316 200.068, 74.266 199.981, 74.269 198.488, 74.324 " />
            <path fill="none" stroke-width="3.0" stroke-linecap="butt" stroke-opacity="1.0" stroke="rgb(0, 0, 0)" stroke-linejoin="round" d=" M 205.138, 207.785 205.271, 208.445 205.472, 209.409 205.679, 210.361 205.893, 211.304 206.113, 212.241 206.341, 213.177 206.576, 214.114 206.821, 215.055 207.078, 216.005 207.341, 216.964 207.611, 217.937 207.894, 218.926 208.189, 219.935 208.495, 220.962 208.818, 222.016 209.163, 223.093 209.534, 224.195 209.934, 225.325 210.375, 226.486 210.871, 227.669 211.411, 228.871 211.989, 230.094 212.282, 230.736 212.670, 231.649 212.799, 231.955 " />
            <path fill="none" stroke-width="3.0" stroke-linecap="butt" stroke-opacity="1.0" stroke="rgb(0, 0, 0)" stroke-linejoin="round" d=" M 124.232, 198.467 124.266, 199.102 124.274, 199.264 " />
            <path fill="none" stroke-width="3.0" stroke-linecap="butt" stroke-opacity="1.0" stroke="rgb(0, 0, 0)" stroke-linejoin="round" d=" M 125.372, 200.567 125.400, 200.989 125.414, 201.196 125.414, 201.197 " />
            <path fill="none" stroke-width="3.0" stroke-linecap="butt" stroke-opacity="1.0" stroke="rgb(0, 0, 0)" stroke-linejoin="round" d=" M 146.012, 152.291 145.538, 152.951 145.488, 153.020 " />
            <path fill="none" stroke-width="3.0" stroke-linecap="butt" stroke-opacity="1.0" stroke="rgb(0, 0, 0)" stroke-linejoin="round" d=" M 157.686, 133.402 157.579, 133.555 157.150, 134.169 " />
            <path fill="none" stroke-width="3.0" stroke-linecap="butt" stroke-opacity="1.0" stroke="rgb(0, 0, 0)" stroke-linejoin="round" d=" M 169.526, 282.935 169.468, 282.942 " />
            <path fill="none" stroke-width="3.0" stroke-linecap="butt" stroke-opacity="1.0" stroke="rgb(0, 0, 0)" stroke-linejoin="round" d=" M 169.816, 282.892 169.673, 282.814 " />
            <path fill="none" stroke-width="3.0" stroke-linecap="butt" stroke-opacity="1.0" stroke="rgb(0, 0, 0)" stroke-linejoin="round" d=" M 171.884, 282.027 171.758, 281.980 " />
            <path fill="none" stroke-width="3.0" stroke-linecap="butt" stroke-opacity="1.0" stroke="rgb(0, 0, 0)" stroke-linejoin="round" d=" M 178.298, 171.806 178.201, 172.464 " />
            <path fill="none" stroke-width="3.0" stroke-linecap="butt" stroke-opacity="1.0" stroke="rgb(0, 0, 0)" stroke-linejoin="round" d=" M 178.613, 156.298 178.663, 156.999 " />
            <path fill="none" stroke-width="3.0" stroke-linecap="butt" stroke-opacity="1.0" stroke="rgb(0, 0, 0)" stroke-linejoin="round" d=" M 188.791, 90.712 188.642, 91.104 188.511, 91.447 " />
            <path fill="none" stroke-width="3.0" stroke-linecap="butt" stroke-opacity="1.0" stroke="rgb(0, 0, 0)" stroke-linejoin="round" d=" M 189.089, 97.131 189.543, 97.674 " />
            <path fill="none" stroke-width="3.0" stroke-linecap="butt" stroke-opacity="1.0" stroke="rgb(0, 0, 0)" stroke-linejoin="round" d=" M 189.531, 97.653 189.543, 97.674 190.109, 98.639 190.160, 98.726 " />
            <path fill="none" stroke-width="3.0" stroke-linecap="butt" stroke-opacity="1.0" stroke="rgb(0, 0, 0)" stroke-linejoin="round" d=" M 190.109, 98.639 190.325, 99.246 190.510, 99.767 " />
            <path fill="none" stroke-width="3.0" stroke-linecap="butt" stroke-opacity="1.0" stroke="rgb(0, 0, 0)" stroke-linejoin="round" d=" M 189.968, 98.373 190.102, 98.619 190.160, 98.726 190.612, 99.556 " />
            <path fill="none" stroke-width="3.0" stroke-linecap="butt" stroke-opacity="1.0" stroke="rgb(0, 0, 0)" stroke-linejoin="round" d=" M 190.731, 106.630 190.273, 107.694 " />
            <path fill="none" stroke-width="3.0" stroke-linecap="butt" stroke-opacity="1.0" stroke="rgb(0, 0, 0)" stroke-linejoin="round" d=" M 203.666, 197.321 203.725, 197.413 " />
            <path fill="none" stroke-width="3.0" stroke-linecap="butt" stroke-opacity="1.0" stroke="rgb(0, 0, 0)" stroke-linejoin="round" d=" M 203.848, 197.439 203.993, 197.557 " />
            <path fill="none" stroke-width="3.0" stroke-linecap="butt" stroke-opacity="1.0" stroke="rgb(0, 0, 0)" stroke-linejoin="round" d=" M 209.959, 107.850 209.419, 106.600 " />
            <path fill="none" stroke-width="3.0" stroke-linecap="butt" stroke-opacity="1.0" stroke="rgb(0, 0, 0)" stroke-linejoin="round" d=" M 210.593, 97.676 211.046, 97.132 " />
            <path fill="none" stroke-width="3.0" stroke-linecap="butt" stroke-opacity="1.0" stroke="rgb(0, 0, 0)" stroke-linejoin="round" d=" M 211.071, 97.105 211.445, 96.909 211.525, 96.867 " />
            <path fill="none" stroke-width="3.0" stroke-linecap="butt" stroke-opacity="1.0" stroke="rgb(0, 0, 0)" stroke-linejoin="round" d=" M 218.179, 293.991 218.356, 295.443 218.366, 295.527 " />
            <path fill="none" stroke-width="3.0" stroke-linecap="butt" stroke-opacity="1.0" stroke="rgb(0, 0, 0)" stroke-linejoin="round" d=" M 228.749, 271.091 228.794, 270.896 " />
            <path fill="none" stroke-width="3.0" stroke-linecap="butt" stroke-opacity="1.0" stroke="rgb(0, 0, 0)" stroke-linejoin="round" d=" M 229.031, 269.928 229.276, 269.006 " />
            <path fill="none" stroke-width="3.0" stroke-linecap="butt" stroke-opacity="1.0" stroke="rgb(0, 0, 0)" stroke-linejoin="round" d=" M 263.189, 182.069 263.224, 182.128 " />
            <path fill="none" stroke-width="3.0" stroke-linecap="butt" stroke-opacity="1.0" stroke="rgb(0, 0, 0)" stroke-linejoin="round" d=" M 263.935, 179.625 264.338, 180.318 " />
            <path fill="none" stroke-width="3.0" stroke-linecap="butt" stroke-opacity="1.0" stroke="rgb(0, 0, 0)" stroke-linejoin="round" d=" M 273.074, 183.199 273.000, 182.980 " />
            <path fill="none" stroke-width="3.0" stroke-linecap="butt" stroke-opacity="1.0" stroke="rgb(0, 0, 0)" stroke-linejoin="round" d=" M 274.506, 190.400 274.544, 190.056 " />
        </g>
    </g>
</svg>
