<?xml version='1.0' encoding='ascii'?>
<svg xmlns="http://www.w3.org/2000/svg" xmlns:inkscape="http://www.inkscape.org/namespaces/inkscape" version="1.1" width="400" height="400">
    <g id="ViewLayer_LineSet" inkscape:groupmode="lineset" inkscape:label="ViewLayer_LineSet">
        <g xmlns:inkscape="http://www.inkscape.org/namespaces/inkscape" inkscape:groupmode="layer" inkscape:label="fills" id="fills">
            <path fill_rule="evenodd" stroke="none" fill-opacity="1.0" fill="rgb(68, 34, 21)" d=" M 342.572, 148.692 342.529, 148.323 342.567, 148.259 343.236, 146.870 343.501, 145.986 343.619, 145.311 343.553, 144.362 343.328, 143.069 342.937, 140.733 340.897, 137.303 336.895, 132.751 331.120, 126.269 327.273, 122.571 323.145, 119.265 318.847, 115.672 316.956, 114.509 315.783, 113.390 315.859, 112.257 316.291, 110.561 316.539, 109.866 317.755, 107.776 318.118, 106.300 318.231, 105.996 318.563, 103.882 318.219, 102.132 317.763, 101.232 316.512, 100.363 315.584, 100.220 314.090, 100.427 312.282, 101.414 310.344, 102.802 308.439, 104.388 306.390, 106.237 303.274, 107.537 297.984, 107.257 288.067, 106.668 278.119, 107.115 276.238, 107.181 266.355, 107.544 256.337, 107.977 246.830, 108.075 245.631, 108.011 235.897, 107.871 227.235, 108.482 218.626, 109.630 211.456, 110.809 202.895, 112.061 192.435, 112.866 182.756, 112.406 172.328, 111.133 162.147, 109.892 151.859, 108.664 141.380, 107.848 130.691, 107.942 120.432, 109.293 110.630, 111.736 102.105, 114.805 93.896, 118.556 88.168, 121.735 84.259, 123.633 75.924, 128.877 67.962, 135.328 61.419, 142.204 55.679, 149.804 52.649, 154.511 51.693, 156.125 49.221, 161.886 49.008, 162.767 48.271, 164.691 46.702, 169.220 44.903, 174.792 43.027, 179.866 42.312, 184.232 42.037, 187.373 41.747, 189.270 42.038, 192.347 42.969, 193.905 44.357, 195.907 46.793, 196.909 49.462, 196.697 50.311, 196.411 51.536, 196.117 51.893, 195.974 52.018, 200.509 52.012, 200.975 51.546, 204.430 51.124, 210.239 51.183, 216.882 52.119, 225.023 53.623, 232.914 54.736, 238.321 55.768, 243.330 56.751, 248.237 57.087, 249.998 57.203, 254.363 56.284, 259.506 54.585, 264.390 53.303, 266.945 50.544, 272.346 47.876, 278.208 45.730, 284.047 43.521, 289.531 42.571, 292.567 41.882, 294.845 41.027, 297.916 40.125, 303.006 40.608, 306.851 41.524, 309.392 44.670, 313.231 47.574, 314.956 49.769, 316.323 56.081, 319.186 60.896, 321.325 64.843, 323.228 68.648, 324.733 71.713, 325.435 74.407, 326.384 77.084, 326.509 80.138, 325.790 81.707, 324.938 82.915, 324.111 85.224, 323.120 86.797, 322.897 88.195, 322.783 89.523, 322.741 90.957, 322.791 92.444, 323.104 93.265, 323.460 93.637, 323.353 93.457, 322.548 93.355, 322.291 91.987, 321.273 90.616, 320.908 89.354, 320.647 87.938, 320.458 86.435, 320.173 89.469, 319.324 90.697, 319.179 91.961, 319.167 92.851, 319.282 93.517, 319.470 94.476, 319.943 94.998, 320.218 95.231, 320.079 95.219, 319.973 95.061, 319.425 94.268, 318.545 93.622, 318.175 92.797, 317.760 91.559, 317.369 90.359, 316.982 88.440, 316.393 88.230, 316.314 88.620, 316.194 89.618, 316.218 90.808, 316.362 91.774, 316.577 92.856, 316.945 93.991, 317.622 94.524, 318.032 94.571, 318.043 94.874, 318.106 94.821, 317.594 94.723, 317.369 93.860, 316.204 92.779, 315.511 91.838, 314.975 90.500, 314.399 89.413, 313.875 89.022, 313.694 90.208, 313.820 91.150, 314.049 92.405, 314.558 93.464, 315.189 93.845, 315.174 93.993, 315.135 93.494, 314.224 92.258, 313.199 91.695, 312.803 91.681, 312.385 91.080, 311.612 90.331, 310.944 89.051, 310.365 87.642, 309.892 86.350, 309.625 84.188, 309.151 83.143, 308.724 82.126, 308.231 80.905, 307.547 78.505, 306.201 78.255, 305.989 76.588, 304.470 78.790, 303.077 82.796, 300.244 88.025, 296.489 94.361, 291.465 99.505, 286.512 100.701, 286.494 104.553, 286.468 107.942, 286.731 110.387, 286.863 112.995, 286.304 113.504, 285.856 115.094, 284.690 116.854, 283.550 118.267, 282.919 118.889, 282.719 119.954, 282.570 121.742, 282.479 122.984, 282.503 123.919, 282.609 124.762, 282.763 125.600, 283.055 126.268, 283.461 126.639, 283.314 126.561, 282.641 126.393, 282.460 125.558, 281.681 124.740, 281.085 123.775, 280.750 122.524, 280.306 120.511, 279.907 120.167, 279.794 121.237, 279.442 122.747, 279.358 123.929, 279.468 124.918, 279.702 125.993, 280.070 127.076, 280.503 127.106, 280.503 127.468, 280.365 127.575, 280.299 126.984, 279.480 125.876, 278.599 124.924, 277.904 124.588, 277.752 125.490, 278.024 126.159, 278.313 126.691, 278.614 127.111, 278.858 127.267, 278.986 127.582, 278.925 127.622, 278.799 127.452, 278.144 127.025, 277.553 126.424, 276.953 125.376, 276.242 124.483, 275.727 123.427, 275.188 122.168, 274.421 121.979, 274.269 122.151, 274.256 123.494, 274.353 124.378, 274.572 125.062, 274.860 125.670, 275.187 126.119, 275.479 126.704, 275.803 126.944, 275.663 126.932, 275.580 126.696, 274.952 126.315, 274.445 125.795, 273.846 125.130, 273.346 124.304, 272.808 124.166, 272.750 124.102, 272.525 123.328, 271.682 122.639, 271.074 121.403, 270.447 120.027, 269.830 118.736, 269.382 117.034, 268.689 115.847, 267.936 115.278, 267.575 113.903, 267.504 113.730, 267.438 114.007, 266.995 116.893, 261.736 119.317, 256.623 121.706, 251.319 123.158, 248.200 130.570, 250.086 134.007, 250.466 146.060, 251.695 157.983, 250.999 169.467, 249.063 180.417, 246.520 191.772, 242.107 196.046, 240.662 195.665, 243.613 195.100, 249.850 196.793, 256.153 197.751, 263.002 198.861, 270.612 200.229, 279.328 202.921, 286.524 206.498, 293.491 209.949, 299.945 211.572, 304.016 213.361, 306.946 215.105, 309.192 218.516, 311.250 222.888, 312.580 223.405, 312.648 223.417, 312.649 227.862, 313.227 232.012, 313.301 236.402, 313.086 238.052, 312.891 241.270, 312.654 244.123, 311.921 246.110, 311.047 248.907, 309.752 250.217, 309.515 251.403, 309.379 251.875, 309.343 253.656, 309.546 253.942, 309.446 254.090, 309.305 254.081, 308.966 253.828, 308.349 253.292, 308.099 252.393, 307.823 251.813, 307.707 250.920, 307.514 249.943, 307.204 249.874, 307.198 250.543, 306.760 252.918, 305.947 254.555, 305.929 255.485, 306.014 256.081, 306.109 258.541, 306.721 258.950, 306.759 259.072, 306.503 259.048, 306.277 258.580, 305.262 257.716, 304.703 256.770, 304.195 256.211, 303.985 255.348, 303.678 253.858, 303.139 253.600, 303.034 253.941, 302.959 255.600, 302.867 256.926, 303.012 258.351, 303.431 259.323, 303.816 260.489, 304.287 260.620, 304.288 260.768, 304.082 260.763, 303.889 260.759, 303.804 260.748, 303.434 260.738, 303.298 259.861, 302.530 259.010, 301.991 258.779, 301.856 258.884, 301.738 258.838, 301.554 258.655, 301.116 257.666, 300.397 256.685, 299.872 255.589, 299.337 254.177, 298.887 253.658, 298.434 252.973, 297.904 252.272, 297.383 251.110, 296.793 249.713, 296.127 248.513, 295.741 247.784, 295.465 246.282, 294.799 243.395, 293.705 241.076, 293.076 239.498, 292.476 236.906, 291.648 236.038, 291.318 235.686, 291.127 235.663, 289.670 236.968, 285.201 238.602, 279.843 241.092, 273.875 243.749, 267.887 246.731, 261.918 249.043, 257.823 252.218, 259.666 258.570, 263.357 262.536, 267.342 266.292, 270.509 268.867, 272.216 269.751, 272.594 272.304, 273.073 275.502, 273.521 279.167, 274.022 283.330, 275.004 286.861, 275.390 290.421, 274.908 293.275, 275.074 296.422, 274.767 298.686, 274.110 299.365, 273.418 300.540, 272.668 301.643, 271.823 302.009, 271.591 303.699, 270.962 303.763, 270.940 305.016, 270.628 306.271, 270.436 307.378, 270.463 308.285, 270.532 309.182, 270.632 309.335, 270.461 309.205, 270.019 309.159, 269.876 308.470, 269.535 307.675, 269.246 306.652, 268.927 305.479, 268.737 304.278, 268.496 304.243, 268.494 305.894, 267.712 307.045, 267.496 308.205, 267.475 309.270, 267.644 310.254, 267.904 311.567, 268.277 311.718, 268.316 311.821, 268.157 311.645, 267.619 311.614, 267.531 310.618, 266.922 309.703, 266.488 308.757, 266.040 307.593, 265.677 306.457, 265.256 305.882, 265.129 307.207, 264.976 308.389, 265.036 309.490, 265.271 310.691, 265.630 312.025, 266.021 312.158, 265.763 312.051, 265.123 312.025, 265.053 311.135, 264.385 310.099, 263.810 309.174, 263.330 308.059, 263.004 306.709, 262.553 306.546, 262.475 307.775, 262.604 309.517, 262.730 309.600, 262.448 309.539, 262.275 308.979, 261.364 308.264, 261.023 307.467, 260.718 306.501, 260.389 305.329, 260.070 304.250, 259.698 303.026, 259.186 302.627, 258.858 301.038, 258.131 298.713, 257.234 297.063, 256.962 295.741, 256.518 292.901, 255.036 289.787, 253.957 288.681, 253.654 287.241, 252.746 286.715, 251.552 285.300, 247.834 283.371, 243.297 280.890, 238.267 278.605, 232.463 275.917, 226.369 273.904, 220.189 272.553, 213.444 272.521, 208.124 273.341, 204.806 273.788, 204.535 280.209, 201.480 288.726, 197.340 290.965, 196.041 297.714, 192.123 300.585, 191.274 305.338, 190.465 308.557, 190.156 310.403, 189.515 314.775, 187.800 318.432, 185.887 322.943, 184.307 327.580, 184.146 332.711, 183.538 336.125, 183.328 337.790, 183.172 340.314, 183.143 344.343, 183.310 348.016, 183.470 348.382, 183.469 351.793, 183.262 354.198, 182.349 354.717, 181.853 356.436, 181.075 357.148, 180.732 357.970, 179.886 358.916, 179.015 359.176, 178.727 359.495, 178.676 360.178, 178.313 360.666, 177.985 361.100, 177.343 361.473, 176.730 361.694, 176.408 361.929, 176.089 362.223, 175.637 362.443, 175.096 363.074, 174.368 363.315, 173.972 363.604, 173.512 364.149, 172.559 364.352, 171.858 364.615, 171.107 364.720, 170.381 364.749, 169.685 364.724, 169.598 364.194, 168.439 363.147, 167.491 361.890, 166.850 361.572, 166.709 361.157, 166.479 360.500, 166.371 360.254, 165.935 358.394, 164.537 354.160, 161.142 350.131, 158.124 346.867, 155.651 344.089, 153.584 342.330, 151.656 342.229, 149.645 342.227, 149.616 342.434, 149.073 342.572, 148.692  z" />
        </g>
        <g inkscape:groupmode="layer" id="strokes" inkscape:label="strokes">
            <path fill="none" stroke-width="3.0" stroke-linecap="butt" stroke-opacity="1.0" stroke="rgb(0, 0, 0)" stroke-linejoin="round" d=" M 341.867, 150.388 342.090, 149.944 342.101, 149.921 342.140, 149.845 342.226, 149.617 342.227, 149.616 342.227, 149.616 342.434, 149.073 342.572, 148.692 342.529, 148.323 " />
            <path fill="none" stroke-width="3.0" stroke-linecap="butt" stroke-opacity="1.0" stroke="rgb(0, 0, 0)" stroke-linejoin="round" d=" M 342.079, 150.444 342.101, 149.921 " />
            <path fill="none" stroke-width="3.0" stroke-linecap="butt" stroke-opacity="1.0" stroke="rgb(0, 0, 0)" stroke-linejoin="round" d=" M 341.744, 149.751 341.883, 149.401 342.109, 149.024 342.155, 148.946 342.169, 148.924 342.169, 148.924 342.529, 148.323 342.567, 148.259 343.236, 146.870 343.501, 145.986 343.619, 145.311 343.553, 144.362 343.328, 143.069 342.937, 140.733 340.897, 137.303 336.895, 132.751 331.120, 126.269 327.273, 122.571 323.145, 119.265 318.847, 115.672 316.956, 114.509 315.758, 113.772 " />
            <path fill="none" stroke-width="3.0" stroke-linecap="butt" stroke-opacity="1.0" stroke="rgb(0, 0, 0)" stroke-linejoin="round" d=" M 342.330, 151.656 342.229, 149.645 342.227, 149.616 " />
            <path fill="none" stroke-width="3.0" stroke-linecap="butt" stroke-opacity="1.0" stroke="rgb(0, 0, 0)" stroke-linejoin="round" d=" M 360.500, 166.371 360.254, 165.935 358.394, 164.537 354.160, 161.142 350.131, 158.124 346.867, 155.651 344.089, 153.584 342.330, 151.656 342.206, 151.520 342.177, 151.488 342.054, 151.353 341.867, 150.388 341.862, 150.363 341.744, 149.751 341.681, 149.428 341.572, 148.865 " />
            <path fill="none" stroke-width="3.0" stroke-linecap="butt" stroke-opacity="1.0" stroke="rgb(0, 0, 0)" stroke-linejoin="round" d=" M 342.276, 149.417 342.572, 148.692 " />
            <path fill="none" stroke-width="3.0" stroke-linecap="butt" stroke-opacity="1.0" stroke="rgb(0, 0, 0)" stroke-linejoin="round" d=" M 364.352, 171.858 364.615, 171.107 364.720, 170.381 364.749, 169.685 364.724, 169.598 364.194, 168.439 363.147, 167.491 361.890, 166.850 361.572, 166.709 361.000, 166.455 " />
            <path fill="none" stroke-width="3.0" stroke-linecap="butt" stroke-opacity="1.0" stroke="rgb(0, 0, 0)" stroke-linejoin="round" d=" M 361.659, 175.961 362.318, 175.240 362.443, 175.096 363.074, 174.368 363.315, 173.972 363.604, 173.512 364.149, 172.559 364.352, 171.858 364.406, 171.671 " />
            <path fill="none" stroke-width="3.0" stroke-linecap="butt" stroke-opacity="1.0" stroke="rgb(0, 0, 0)" stroke-linejoin="round" d=" M 316.957, 107.351 315.868, 109.667 315.150, 111.926 314.913, 112.559 314.836, 112.764 314.830, 112.779 314.796, 112.871 314.300, 114.192 " />
            <path fill="none" stroke-width="3.0" stroke-linecap="butt" stroke-opacity="1.0" stroke="rgb(0, 0, 0)" stroke-linejoin="round" d=" M 315.718, 114.358 315.751, 113.870 315.758, 113.772 315.783, 113.390 315.859, 112.257 316.291, 110.561 316.449, 109.940 " />
            <path fill="none" stroke-width="3.0" stroke-linecap="butt" stroke-opacity="1.0" stroke="rgb(0, 0, 0)" stroke-linejoin="round" d=" M 318.118, 106.300 318.231, 105.996 318.563, 103.882 318.219, 102.132 317.763, 101.232 316.512, 100.363 315.584, 100.220 314.090, 100.427 312.282, 101.414 310.344, 102.802 308.439, 104.388 306.390, 106.237 303.274, 107.537 297.984, 107.257 288.067, 106.668 278.119, 107.115 276.238, 107.181 266.355, 107.544 256.337, 107.977 246.830, 108.075 " />
            <path fill="none" stroke-width="3.0" stroke-linecap="butt" stroke-opacity="1.0" stroke="rgb(0, 0, 0)" stroke-linejoin="round" d=" M 316.291, 110.561 316.539, 109.866 317.755, 107.776 318.118, 106.300 318.279, 105.645 " />
            <path fill="none" stroke-width="3.0" stroke-linecap="butt" stroke-opacity="1.0" stroke="rgb(0, 0, 0)" stroke-linejoin="round" d=" M 193.236, 112.904 192.435, 112.866 182.756, 112.406 172.829, 111.194 172.328, 111.133 162.402, 109.923 162.147, 109.892 152.217, 108.707 151.859, 108.664 141.889, 107.887 141.380, 107.848 131.381, 107.936 130.691, 107.942 120.777, 109.248 120.432, 109.293 110.729, 111.711 110.630, 111.736 102.105, 114.805 93.896, 118.556 88.168, 121.735 85.594, 123.164 " />
            <path fill="none" stroke-width="3.0" stroke-linecap="butt" stroke-opacity="1.0" stroke="rgb(0, 0, 0)" stroke-linejoin="round" d=" M 255.319, 108.529 246.830, 108.075 245.631, 108.011 235.897, 107.871 227.235, 108.482 218.626, 109.630 211.456, 110.809 202.895, 112.061 192.924, 112.828 192.435, 112.866 " />
            <path fill="none" stroke-width="3.0" stroke-linecap="butt" stroke-opacity="1.0" stroke="rgb(0, 0, 0)" stroke-linejoin="round" d=" M 287.864, 254.160 287.512, 253.360 287.498, 253.329 287.241, 252.746 286.715, 251.552 285.300, 247.834 283.371, 243.297 280.890, 238.267 278.605, 232.463 275.917, 226.369 273.904, 220.189 272.553, 213.444 " />
            <path fill="none" stroke-width="3.0" stroke-linecap="butt" stroke-opacity="1.0" stroke="rgb(0, 0, 0)" stroke-linejoin="round" d=" M 272.556, 214.086 272.553, 213.444 272.521, 208.124 273.341, 204.806 " />
            <path fill="none" stroke-width="3.0" stroke-linecap="butt" stroke-opacity="1.0" stroke="rgb(0, 0, 0)" stroke-linejoin="round" d=" M 258.570, 263.357 262.536, 267.342 266.292, 270.509 268.867, 272.216 269.751, 272.594 272.304, 273.073 275.502, 273.521 279.167, 274.022 283.330, 275.004 286.861, 275.390 290.421, 274.908 293.275, 275.074 296.422, 274.767 298.686, 274.110 299.365, 273.418 299.761, 273.014 301.643, 271.823 302.009, 271.591 303.699, 270.962 303.983, 270.857 " />
            <path fill="none" stroke-width="3.0" stroke-linecap="butt" stroke-opacity="1.0" stroke="rgb(0, 0, 0)" stroke-linejoin="round" d=" M 249.043, 257.823 252.218, 259.666 258.570, 263.357 261.462, 265.037 " />
            <path fill="none" stroke-width="3.0" stroke-linecap="butt" stroke-opacity="1.0" stroke="rgb(0, 0, 0)" stroke-linejoin="round" d=" M 288.908, 253.797 288.681, 253.654 287.241, 252.746 " />
            <path fill="none" stroke-width="3.0" stroke-linecap="butt" stroke-opacity="1.0" stroke="rgb(0, 0, 0)" stroke-linejoin="round" d=" M 295.741, 256.518 292.901, 255.036 289.787, 253.957 288.681, 253.654 " />
            <path fill="none" stroke-width="3.0" stroke-linecap="butt" stroke-opacity="1.0" stroke="rgb(0, 0, 0)" stroke-linejoin="round" d=" M 305.882, 265.129 307.207, 264.976 308.389, 265.036 309.490, 265.271 310.691, 265.630 312.025, 266.021 312.158, 265.763 312.051, 265.123 312.025, 265.053 311.135, 264.385 310.099, 263.810 309.174, 263.330 308.059, 263.004 306.709, 262.553 306.546, 262.475 305.809, 262.119 305.336, 261.854 303.772, 261.054 303.740, 261.038 303.491, 260.910 302.238, 260.366 300.697, 259.698 298.030, 258.622 " />
            <path fill="none" stroke-width="3.0" stroke-linecap="butt" stroke-opacity="1.0" stroke="rgb(0, 0, 0)" stroke-linejoin="round" d=" M 88.168, 121.735 84.259, 123.633 75.924, 128.877 68.154, 135.172 67.962, 135.328 61.419, 142.204 55.679, 149.804 52.649, 154.511 51.693, 156.125 49.221, 161.886 49.008, 162.767 " />
            <path fill="none" stroke-width="3.0" stroke-linecap="butt" stroke-opacity="1.0" stroke="rgb(0, 0, 0)" stroke-linejoin="round" d=" M 50.078, 159.972 49.174, 162.332 49.125, 162.460 49.008, 162.767 48.271, 164.691 46.702, 169.220 44.903, 174.792 43.027, 179.866 42.312, 184.232 42.037, 187.373 " />
            <path fill="none" stroke-width="3.0" stroke-linecap="butt" stroke-opacity="1.0" stroke="rgb(0, 0, 0)" stroke-linejoin="round" d=" M 303.699, 270.962 303.763, 270.940 305.016, 270.628 306.271, 270.436 307.378, 270.463 308.285, 270.532 309.182, 270.632 309.335, 270.461 309.205, 270.019 309.159, 269.876 308.470, 269.535 307.675, 269.246 306.652, 268.927 305.479, 268.737 304.278, 268.496 304.243, 268.494 302.944, 268.409 " />
            <path fill="none" stroke-width="3.0" stroke-linecap="butt" stroke-opacity="1.0" stroke="rgb(0, 0, 0)" stroke-linejoin="round" d=" M 304.243, 268.494 305.894, 267.712 307.045, 267.496 308.205, 267.475 309.270, 267.644 310.254, 267.904 311.567, 268.277 311.718, 268.316 311.821, 268.157 311.645, 267.619 311.614, 267.531 310.618, 266.922 309.703, 266.488 308.757, 266.040 307.593, 265.677 306.457, 265.256 305.882, 265.129 305.548, 265.056 305.536, 265.053 305.534, 265.052 304.874, 264.576 303.321, 263.784 302.429, 262.916 300.967, 261.491 " />
            <path fill="none" stroke-width="3.0" stroke-linecap="butt" stroke-opacity="1.0" stroke="rgb(0, 0, 0)" stroke-linejoin="round" d=" M 300.975, 262.582 301.579, 262.891 301.913, 263.063 303.321, 263.784 " />
            <path fill="none" stroke-width="3.0" stroke-linecap="butt" stroke-opacity="1.0" stroke="rgb(0, 0, 0)" stroke-linejoin="round" d=" M 306.546, 262.475 307.775, 262.604 309.517, 262.730 309.600, 262.448 309.539, 262.275 308.979, 261.364 308.264, 261.023 307.467, 260.718 306.501, 260.389 305.329, 260.070 304.250, 259.698 303.026, 259.186 302.627, 258.858 301.038, 258.131 298.713, 257.234 297.063, 256.962 " />
            <path fill="none" stroke-width="3.0" stroke-linecap="butt" stroke-opacity="1.0" stroke="rgb(0, 0, 0)" stroke-linejoin="round" d=" M 304.334, 260.191 305.419, 260.433 306.584, 260.687 307.545, 260.972 308.327, 261.235 309.018, 261.506 309.600, 262.448 " />
            <path fill="none" stroke-width="3.0" stroke-linecap="butt" stroke-opacity="1.0" stroke="rgb(0, 0, 0)" stroke-linejoin="round" d=" M 305.809, 262.119 306.186, 262.437 306.851, 262.999 308.177, 263.292 309.254, 263.538 310.176, 263.991 311.188, 264.515 312.051, 265.123 " />
            <path fill="none" stroke-width="3.0" stroke-linecap="butt" stroke-opacity="1.0" stroke="rgb(0, 0, 0)" stroke-linejoin="round" d=" M 304.428, 269.213 305.620, 269.273 306.777, 269.308 307.800, 269.559 308.584, 269.788 309.205, 270.019 " />
            <path fill="none" stroke-width="3.0" stroke-linecap="butt" stroke-opacity="1.0" stroke="rgb(0, 0, 0)" stroke-linejoin="round" d=" M 309.182, 270.632 308.572, 270.533 307.646, 270.412 306.410, 270.413 305.237, 270.567 303.983, 270.857 " />
            <path fill="none" stroke-width="3.0" stroke-linecap="butt" stroke-opacity="1.0" stroke="rgb(0, 0, 0)" stroke-linejoin="round" d=" M 306.530, 265.837 307.677, 266.066 308.842, 266.296 309.790, 266.687 310.693, 267.069 311.645, 267.619 " />
            <path fill="none" stroke-width="3.0" stroke-linecap="butt" stroke-opacity="1.0" stroke="rgb(0, 0, 0)" stroke-linejoin="round" d=" M 312.025, 266.021 311.905, 265.959 " />
            <path fill="none" stroke-width="3.0" stroke-linecap="butt" stroke-opacity="1.0" stroke="rgb(0, 0, 0)" stroke-linejoin="round" d=" M 115.818, 277.224 117.167, 278.751 117.923, 279.098 118.118, 279.187 118.225, 279.236 119.340, 279.521 120.092, 279.769 120.167, 279.794 120.511, 279.907 122.524, 280.306 123.775, 280.750 124.740, 281.085 125.558, 281.681 126.393, 282.460 126.561, 282.641 126.639, 283.314 126.370, 283.407 125.927, 283.005 125.093, 282.698 124.273, 282.458 123.310, 282.371 122.058, 282.248 120.090, 282.444 118.941, 282.619 118.267, 282.919 116.854, 283.550 115.094, 284.690 113.504, 285.856 112.995, 286.304 110.387, 286.863 107.942, 286.731 104.553, 286.468 100.701, 286.494 99.505, 286.512 " />
            <path fill="none" stroke-width="3.0" stroke-linecap="butt" stroke-opacity="1.0" stroke="rgb(0, 0, 0)" stroke-linejoin="round" d=" M 118.267, 282.919 118.889, 282.719 119.954, 282.570 121.742, 282.479 122.984, 282.503 123.919, 282.609 124.762, 282.763 125.600, 283.055 126.268, 283.461 126.639, 283.314 " />
            <path fill="none" stroke-width="3.0" stroke-linecap="butt" stroke-opacity="1.0" stroke="rgb(0, 0, 0)" stroke-linejoin="round" d=" M 120.167, 279.794 121.237, 279.442 122.747, 279.358 123.929, 279.468 124.918, 279.702 125.993, 280.070 127.076, 280.503 127.106, 280.503 127.468, 280.365 127.575, 280.299 126.984, 279.480 125.876, 278.599 124.924, 277.904 124.588, 277.752 123.612, 277.310 122.014, 276.485 121.096, 276.030 120.488, 275.883 120.065, 275.743 119.593, 275.587 " />
            <path fill="none" stroke-width="3.0" stroke-linecap="butt" stroke-opacity="1.0" stroke="rgb(0, 0, 0)" stroke-linejoin="round" d=" M 126.857, 278.650 127.111, 278.858 127.267, 278.986 127.582, 278.925 127.622, 278.799 127.452, 278.144 127.025, 277.553 126.424, 276.953 125.376, 276.242 124.483, 275.727 123.427, 275.188 122.168, 274.421 121.979, 274.269 121.452, 273.843 120.883, 273.352 119.711, 272.762 118.457, 272.038 117.914, 271.724 " />
            <path fill="none" stroke-width="3.0" stroke-linecap="butt" stroke-opacity="1.0" stroke="rgb(0, 0, 0)" stroke-linejoin="round" d=" M 121.979, 274.269 122.151, 274.256 123.494, 274.353 124.378, 274.572 125.062, 274.860 125.670, 275.187 126.119, 275.479 126.704, 275.803 126.944, 275.663 126.932, 275.580 126.696, 274.952 126.315, 274.445 125.795, 273.846 125.130, 273.346 124.304, 272.808 124.166, 272.750 124.011, 272.684 122.898, 272.215 121.903, 271.743 120.338, 270.961 119.341, 270.605 117.685, 269.824 114.608, 268.345 114.488, 268.302 113.428, 267.921 " />
            <path fill="none" stroke-width="3.0" stroke-linecap="butt" stroke-opacity="1.0" stroke="rgb(0, 0, 0)" stroke-linejoin="round" d=" M 124.166, 272.750 124.102, 272.525 123.328, 271.682 122.639, 271.074 121.403, 270.447 120.027, 269.830 118.736, 269.382 117.034, 268.689 115.847, 267.936 115.278, 267.575 113.903, 267.504 113.730, 267.438 " />
            <path fill="none" stroke-width="3.0" stroke-linecap="butt" stroke-opacity="1.0" stroke="rgb(0, 0, 0)" stroke-linejoin="round" d=" M 117.276, 279.059 117.876, 279.171 118.074, 279.208 118.225, 279.236 " />
            <path fill="none" stroke-width="3.0" stroke-linecap="butt" stroke-opacity="1.0" stroke="rgb(0, 0, 0)" stroke-linejoin="round" d=" M 115.847, 267.936 117.112, 269.083 118.773, 269.690 120.028, 270.124 121.389, 270.758 122.611, 271.355 123.289, 271.969 124.011, 272.684 " />
            <path fill="none" stroke-width="3.0" stroke-linecap="butt" stroke-opacity="1.0" stroke="rgb(0, 0, 0)" stroke-linejoin="round" d=" M 127.468, 280.365 127.065, 279.655 126.000, 278.849 125.054, 278.178 123.818, 277.638 123.489, 277.494 122.287, 276.970 " />
            <path fill="none" stroke-width="3.0" stroke-linecap="butt" stroke-opacity="1.0" stroke="rgb(0, 0, 0)" stroke-linejoin="round" d=" M 125.220, 279.561 126.275, 280.036 127.106, 280.503 " />
            <path fill="none" stroke-width="3.0" stroke-linecap="butt" stroke-opacity="1.0" stroke="rgb(0, 0, 0)" stroke-linejoin="round" d=" M 119.720, 274.415 120.452, 274.492 120.865, 274.535 121.336, 274.663 122.298, 275.092 123.478, 275.676 124.482, 276.138 125.346, 276.631 126.372, 277.289 126.962, 277.846 127.398, 278.348 127.582, 278.925 " />
            <path fill="none" stroke-width="3.0" stroke-linecap="butt" stroke-opacity="1.0" stroke="rgb(0, 0, 0)" stroke-linejoin="round" d=" M 124.588, 277.752 125.490, 278.024 126.159, 278.313 126.691, 278.614 127.111, 278.858 " />
            <path fill="none" stroke-width="3.0" stroke-linecap="butt" stroke-opacity="1.0" stroke="rgb(0, 0, 0)" stroke-linejoin="round" d=" M 126.944, 275.663 126.716, 275.067 126.327, 274.598 125.804, 274.001 125.129, 273.556 124.298, 273.028 124.240, 273.007 122.919, 272.510 121.925, 272.140 " />
            <path fill="none" stroke-width="3.0" stroke-linecap="butt" stroke-opacity="1.0" stroke="rgb(0, 0, 0)" stroke-linejoin="round" d=" M 361.572, 166.709 361.157, 166.479 360.500, 166.371 360.373, 166.350 " />
            <path fill="none" stroke-width="3.0" stroke-linecap="butt" stroke-opacity="1.0" stroke="rgb(0, 0, 0)" stroke-linejoin="round" d=" M 362.223, 175.637 362.443, 175.096 " />
            <path fill="none" stroke-width="3.0" stroke-linecap="butt" stroke-opacity="1.0" stroke="rgb(0, 0, 0)" stroke-linejoin="round" d=" M 359.010, 178.754 359.064, 178.745 359.148, 178.731 359.176, 178.727 359.495, 178.676 360.178, 178.313 360.666, 177.985 361.100, 177.343 361.473, 176.730 361.694, 176.408 362.223, 175.637 361.929, 176.089 361.694, 176.408 " />
            <path fill="none" stroke-width="3.0" stroke-linecap="butt" stroke-opacity="1.0" stroke="rgb(0, 0, 0)" stroke-linejoin="round" d=" M 360.373, 166.350 359.908, 166.995 " />
            <path fill="none" stroke-width="3.0" stroke-linecap="butt" stroke-opacity="1.0" stroke="rgb(0, 0, 0)" stroke-linejoin="round" d=" M 303.170, 268.482 302.944, 268.409 302.141, 268.149 301.028, 267.462 300.940, 267.407 300.863, 267.328 299.427, 265.862 " />
            <path fill="none" stroke-width="3.0" stroke-linecap="butt" stroke-opacity="1.0" stroke="rgb(0, 0, 0)" stroke-linejoin="round" d=" M 299.365, 273.418 300.540, 272.668 301.643, 271.823 " />
            <path fill="none" stroke-width="3.0" stroke-linecap="butt" stroke-opacity="1.0" stroke="rgb(0, 0, 0)" stroke-linejoin="round" d=" M 305.548, 265.056 305.945, 264.928 307.445, 264.782 " />
            <path fill="none" stroke-width="3.0" stroke-linecap="butt" stroke-opacity="1.0" stroke="rgb(0, 0, 0)" stroke-linejoin="round" d=" M 125.728, 277.937 126.336, 278.310 126.857, 278.650 " />
            <path fill="none" stroke-width="3.0" stroke-linecap="butt" stroke-opacity="1.0" stroke="rgb(0, 0, 0)" stroke-linejoin="round" d=" M 117.914, 271.724 118.038, 271.185 119.290, 271.600 120.117, 271.708 " />
            <path fill="none" stroke-width="3.0" stroke-linecap="butt" stroke-opacity="1.0" stroke="rgb(0, 0, 0)" stroke-linejoin="round" d=" M 121.430, 279.112 122.998, 279.163 " />
            <path fill="none" stroke-width="3.0" stroke-linecap="butt" stroke-opacity="1.0" stroke="rgb(0, 0, 0)" stroke-linejoin="round" d=" M 119.526, 280.455 120.694, 280.582 122.681, 280.785 123.976, 281.118 124.930, 281.399 125.790, 281.920 126.561, 282.641 " />
            <path fill="none" stroke-width="3.0" stroke-linecap="butt" stroke-opacity="1.0" stroke="rgb(0, 0, 0)" stroke-linejoin="round" d=" M 112.995, 286.304 114.058, 285.225 " />
            <path fill="none" stroke-width="3.0" stroke-linecap="butt" stroke-opacity="1.0" stroke="rgb(0, 0, 0)" stroke-linejoin="round" d=" M 303.170, 268.482 302.298, 268.360 " />
            <path fill="none" stroke-width="3.0" stroke-linecap="butt" stroke-opacity="1.0" stroke="rgb(0, 0, 0)" stroke-linejoin="round" d=" M 357.060, 175.239 357.593, 176.218 358.194, 177.057 358.828, 177.280 359.508, 177.285 359.868, 177.022 360.199, 176.845 360.626, 176.254 361.197, 175.408 362.068, 174.375 362.666, 173.863 362.733, 173.807 362.733, 173.806 362.829, 173.724 362.944, 173.625 363.077, 173.902 362.712, 174.578 362.605, 174.697 362.325, 175.012 362.307, 175.033 362.207, 175.145 361.992, 175.386 " />
            <path fill="none" stroke-width="3.0" stroke-linecap="butt" stroke-opacity="1.0" stroke="rgb(0, 0, 0)" stroke-linejoin="round" d=" M 335.533, 181.497 336.472, 181.152 336.825, 181.023 338.623, 180.924 341.446, 181.141 345.724, 181.776 349.479, 182.357 352.043, 182.401 354.324, 182.031 354.717, 181.853 356.436, 181.075 357.148, 180.732 357.970, 179.886 " />
            <path fill="none" stroke-width="3.0" stroke-linecap="butt" stroke-opacity="1.0" stroke="rgb(0, 0, 0)" stroke-linejoin="round" d=" M 334.198, 161.862 334.398, 161.447 334.682, 160.578 334.930, 159.681 " />
            <path fill="none" stroke-width="3.0" stroke-linecap="butt" stroke-opacity="1.0" stroke="rgb(0, 0, 0)" stroke-linejoin="round" d=" M 337.321, 183.177 337.790, 183.172 340.314, 183.143 344.343, 183.310 348.016, 183.470 348.382, 183.469 351.793, 183.262 354.198, 182.349 354.717, 181.853 " />
            <path fill="none" stroke-width="3.0" stroke-linecap="butt" stroke-opacity="1.0" stroke="rgb(0, 0, 0)" stroke-linejoin="round" d=" M 333.895, 161.610 334.458, 161.050 " />
            <path fill="none" stroke-width="3.0" stroke-linecap="butt" stroke-opacity="1.0" stroke="rgb(0, 0, 0)" stroke-linejoin="round" d=" M 330.879, 162.367 331.571, 161.850 332.307, 161.349 332.518, 161.186 333.006, 160.806 333.675, 160.255 334.301, 159.695 334.958, 159.122 335.284, 158.837 335.663, 158.586 " />
            <path fill="none" stroke-width="3.0" stroke-linecap="butt" stroke-opacity="1.0" stroke="rgb(0, 0, 0)" stroke-linejoin="round" d=" M 357.865, 179.984 357.970, 179.886 358.916, 179.015 359.176, 178.727 " />
            <path fill="none" stroke-width="3.0" stroke-linecap="butt" stroke-opacity="1.0" stroke="rgb(0, 0, 0)" stroke-linejoin="round" d=" M 322.614, 184.318 322.943, 184.307 327.580, 184.146 332.711, 183.538 336.125, 183.328 337.790, 183.172 " />
            <path fill="none" stroke-width="3.0" stroke-linecap="butt" stroke-opacity="1.0" stroke="rgb(0, 0, 0)" stroke-linejoin="round" d=" M 303.331, 129.588 302.525, 129.531 301.916, 129.655 300.613, 130.233 299.514, 131.028 " />
            <path fill="none" stroke-width="3.0" stroke-linecap="butt" stroke-opacity="1.0" stroke="rgb(0, 0, 0)" stroke-linejoin="round" d=" M 297.224, 138.834 302.343, 133.190 " />
            <path fill="none" stroke-width="3.0" stroke-linecap="butt" stroke-opacity="1.0" stroke="rgb(0, 0, 0)" stroke-linejoin="round" d=" M 301.086, 132.452 295.398, 136.775 " />
            <path fill="none" stroke-width="3.0" stroke-linecap="butt" stroke-opacity="1.0" stroke="rgb(0, 0, 0)" stroke-linejoin="round" d=" M 288.728, 143.953 288.667, 145.258 288.697, 146.581 289.350, 149.349 " />
            <path fill="none" stroke-width="3.0" stroke-linecap="butt" stroke-opacity="1.0" stroke="rgb(0, 0, 0)" stroke-linejoin="round" d=" M 285.623, 146.162 285.596, 144.901 286.180, 143.875 " />
            <path fill="none" stroke-width="3.0" stroke-linecap="butt" stroke-opacity="1.0" stroke="rgb(0, 0, 0)" stroke-linejoin="round" d=" M 291.456, 140.286 293.438, 138.187 293.547, 138.072 295.169, 136.355 299.028, 133.322 299.931, 132.588 " />
            <path fill="none" stroke-width="3.0" stroke-linecap="butt" stroke-opacity="1.0" stroke="rgb(0, 0, 0)" stroke-linejoin="round" d=" M 292.208, 193.785 296.631, 192.443 297.745, 192.105 300.353, 191.314 300.585, 191.274 305.338, 190.465 308.557, 190.156 310.403, 189.515 314.775, 187.800 318.432, 185.887 322.943, 184.307 " />
            <path fill="none" stroke-width="3.0" stroke-linecap="butt" stroke-opacity="1.0" stroke="rgb(0, 0, 0)" stroke-linejoin="round" d=" M 283.399, 141.770 281.622, 145.354 " />
            <path fill="none" stroke-width="3.0" stroke-linecap="butt" stroke-opacity="1.0" stroke="rgb(0, 0, 0)" stroke-linejoin="round" d=" M 123.158, 248.200 130.570, 250.086 134.007, 250.466 143.956, 251.480 146.060, 251.695 156.043, 251.112 157.983, 250.999 167.844, 249.337 169.467, 249.063 179.208, 246.801 180.417, 246.520 189.738, 242.898 191.772, 242.107 " />
            <path fill="none" stroke-width="3.0" stroke-linecap="butt" stroke-opacity="1.0" stroke="rgb(0, 0, 0)" stroke-linejoin="round" d=" M 271.812, 205.734 273.341, 204.806 273.788, 204.535 280.209, 201.480 288.726, 197.340 290.965, 196.041 297.714, 192.123 " />
            <path fill="none" stroke-width="3.0" stroke-linecap="butt" stroke-opacity="1.0" stroke="rgb(0, 0, 0)" stroke-linejoin="round" d=" M 54.585, 264.390 53.303, 266.945 50.544, 272.346 47.876, 278.208 45.730, 284.047 43.521, 289.531 42.571, 292.567 41.882, 294.845 41.027, 297.916 40.125, 303.006 40.608, 306.851 41.524, 309.392 44.670, 313.231 47.574, 314.956 50.147, 316.484 " />
            <path fill="none" stroke-width="3.0" stroke-linecap="butt" stroke-opacity="1.0" stroke="rgb(0, 0, 0)" stroke-linejoin="round" d=" M 195.783, 237.504 196.295, 238.736 196.081, 240.392 196.075, 240.435 196.046, 240.662 195.665, 243.613 195.100, 249.850 196.793, 256.153 197.751, 263.002 198.861, 270.612 200.229, 279.328 202.921, 286.524 206.498, 293.491 209.949, 299.945 211.572, 304.016 213.361, 306.946 215.105, 309.192 218.516, 311.250 222.888, 312.580 " />
            <path fill="none" stroke-width="3.0" stroke-linecap="butt" stroke-opacity="1.0" stroke="rgb(0, 0, 0)" stroke-linejoin="round" d=" M 235.541, 290.087 235.663, 289.670 236.968, 285.201 238.602, 279.843 241.092, 273.875 243.749, 267.887 246.731, 261.918 249.043, 257.823 250.563, 255.132 253.795, 248.233 257.182, 241.702 260.663, 234.917 264.890, 227.576 268.252, 220.980 270.463, 214.091 271.315, 208.027 271.614, 206.252 271.812, 205.734 272.049, 205.117 272.061, 205.084 272.087, 205.017 272.441, 204.091 273.534, 201.238 " />
            <path fill="none" stroke-width="3.0" stroke-linecap="butt" stroke-opacity="1.0" stroke="rgb(0, 0, 0)" stroke-linejoin="round" d=" M 73.296, 308.048 73.977, 306.560 75.559, 305.121 76.588, 304.470 78.790, 303.077 82.796, 300.244 88.025, 296.489 94.361, 291.465 99.505, 286.512 100.055, 285.983 106.268, 278.467 109.106, 274.542 109.397, 274.140 109.416, 274.115 110.470, 272.656 113.101, 268.444 113.413, 267.946 113.428, 267.921 113.730, 267.438 114.007, 266.995 116.893, 261.736 119.317, 256.623 121.706, 251.319 123.158, 248.200 124.329, 245.686 126.385, 240.494 129.396, 237.482 " />
            <path fill="none" stroke-width="3.0" stroke-linecap="butt" stroke-opacity="1.0" stroke="rgb(0, 0, 0)" stroke-linejoin="round" d=" M 52.286, 198.943 52.012, 200.975 51.546, 204.430 51.124, 210.239 51.183, 216.882 52.119, 225.023 53.623, 232.914 54.736, 238.321 55.768, 243.330 56.751, 248.237 57.087, 249.998 57.569, 252.524 " />
            <path fill="none" stroke-width="3.0" stroke-linecap="butt" stroke-opacity="1.0" stroke="rgb(0, 0, 0)" stroke-linejoin="round" d=" M 47.574, 314.956 49.769, 316.323 56.081, 319.186 60.896, 321.325 64.843, 323.228 68.648, 324.733 71.713, 325.435 74.407, 326.384 77.084, 326.509 80.138, 325.790 81.707, 324.938 82.915, 324.111 85.224, 323.120 85.361, 323.061 " />
            <path fill="none" stroke-width="3.0" stroke-linecap="butt" stroke-opacity="1.0" stroke="rgb(0, 0, 0)" stroke-linejoin="round" d=" M 195.783, 237.504 195.324, 233.641 195.476, 229.563 195.284, 224.764 194.394, 220.529 193.927, 214.942 " />
            <path fill="none" stroke-width="3.0" stroke-linecap="butt" stroke-opacity="1.0" stroke="rgb(0, 0, 0)" stroke-linejoin="round" d=" M 236.606, 293.059 235.690, 291.403 235.688, 291.267 235.686, 291.185 235.686, 291.127 235.663, 289.670 " />
            <path fill="none" stroke-width="3.0" stroke-linecap="butt" stroke-opacity="1.0" stroke="rgb(0, 0, 0)" stroke-linejoin="round" d=" M 223.417, 312.649 223.405, 312.648 222.888, 312.580 223.417, 312.649 227.862, 313.227 232.012, 313.301 236.402, 313.086 238.052, 312.891 241.270, 312.654 244.123, 311.921 246.110, 311.047 248.907, 309.752 250.217, 309.515 251.403, 309.379 251.875, 309.343 252.178, 309.320 253.376, 309.352 253.981, 309.312 254.090, 309.305 " />
            <path fill="none" stroke-width="3.0" stroke-linecap="butt" stroke-opacity="1.0" stroke="rgb(0, 0, 0)" stroke-linejoin="round" d=" M 42.277, 185.811 42.037, 187.373 41.747, 189.270 42.038, 192.347 42.969, 193.905 44.357, 195.907 46.793, 196.909 49.462, 196.697 50.311, 196.411 " />
            <path fill="none" stroke-width="3.0" stroke-linecap="butt" stroke-opacity="1.0" stroke="rgb(0, 0, 0)" stroke-linejoin="round" d=" M 49.530, 196.599 50.311, 196.411 51.536, 196.117 51.893, 195.974 " />
            <path fill="none" stroke-width="3.0" stroke-linecap="butt" stroke-opacity="1.0" stroke="rgb(0, 0, 0)" stroke-linejoin="round" d=" M 258.779, 301.856 258.884, 301.738 258.838, 301.554 258.655, 301.116 257.666, 300.397 256.685, 299.872 255.589, 299.337 254.177, 298.887 253.961, 298.818 253.944, 298.813 252.868, 298.443 251.832, 297.935 251.185, 297.410 249.380, 296.702 246.639, 295.479 244.636, 294.757 243.912, 294.496 " />
            <path fill="none" stroke-width="3.0" stroke-linecap="butt" stroke-opacity="1.0" stroke="rgb(0, 0, 0)" stroke-linejoin="round" d=" M 253.094, 298.768 254.141, 299.092 254.280, 299.132 255.722, 299.550 256.791, 300.090 257.744, 300.591 258.696, 301.234 258.884, 301.738 " />
            <path fill="none" stroke-width="3.0" stroke-linecap="butt" stroke-opacity="1.0" stroke="rgb(0, 0, 0)" stroke-linejoin="round" d=" M 260.768, 304.082 260.763, 303.889 260.759, 303.804 " />
            <path fill="none" stroke-width="3.0" stroke-linecap="butt" stroke-opacity="1.0" stroke="rgb(0, 0, 0)" stroke-linejoin="round" d=" M 253.600, 303.034 253.941, 302.959 255.600, 302.867 256.926, 303.012 258.351, 303.431 259.323, 303.816 260.489, 304.287 260.620, 304.288 260.768, 304.082 260.762, 303.892 260.759, 303.804 260.748, 303.434 260.738, 303.298 259.861, 302.530 259.010, 301.991 258.779, 301.856 258.773, 301.852 258.748, 301.837 257.801, 301.282 256.579, 300.834 255.050, 300.337 254.208, 300.119 253.325, 299.706 251.691, 298.980 250.122, 298.185 250.028, 298.137 248.413, 297.319 248.155, 297.188 " />
            <path fill="none" stroke-width="3.0" stroke-linecap="butt" stroke-opacity="1.0" stroke="rgb(0, 0, 0)" stroke-linejoin="round" d=" M 248.621, 297.862 249.212, 298.078 251.691, 298.980 " />
            <path fill="none" stroke-width="3.0" stroke-linecap="butt" stroke-opacity="1.0" stroke="rgb(0, 0, 0)" stroke-linejoin="round" d=" M 251.123, 300.733 249.207, 300.221 248.431, 300.014 " />
            <path fill="none" stroke-width="3.0" stroke-linecap="butt" stroke-opacity="1.0" stroke="rgb(0, 0, 0)" stroke-linejoin="round" d=" M 259.072, 306.503 259.048, 306.277 258.580, 305.262 257.716, 304.703 256.770, 304.195 256.211, 303.985 255.348, 303.678 253.858, 303.139 253.600, 303.034 253.578, 303.025 252.945, 302.768 252.270, 302.400 250.891, 301.824 250.226, 301.335 249.192, 300.574 248.431, 300.014 " />
            <path fill="none" stroke-width="3.0" stroke-linecap="butt" stroke-opacity="1.0" stroke="rgb(0, 0, 0)" stroke-linejoin="round" d=" M 252.945, 302.768 253.322, 303.096 254.058, 303.735 255.458, 304.142 256.293, 304.372 256.839, 304.520 257.760, 304.984 258.601, 305.430 259.072, 306.503 " />
            <path fill="none" stroke-width="3.0" stroke-linecap="butt" stroke-opacity="1.0" stroke="rgb(0, 0, 0)" stroke-linejoin="round" d=" M 249.874, 307.198 250.543, 306.760 252.918, 305.947 254.555, 305.929 255.485, 306.014 256.081, 306.109 258.541, 306.721 258.950, 306.759 259.072, 306.503 259.004, 306.491 257.895, 306.282 256.645, 306.004 " />
            <path fill="none" stroke-width="3.0" stroke-linecap="butt" stroke-opacity="1.0" stroke="rgb(0, 0, 0)" stroke-linejoin="round" d=" M 251.875, 309.343 253.656, 309.546 253.942, 309.446 254.090, 309.305 254.081, 308.966 253.828, 308.349 253.292, 308.099 252.393, 307.823 251.813, 307.707 250.920, 307.514 249.943, 307.204 249.874, 307.198 248.777, 307.094 " />
            <path fill="none" stroke-width="3.0" stroke-linecap="butt" stroke-opacity="1.0" stroke="rgb(0, 0, 0)" stroke-linejoin="round" d=" M 249.889, 308.081 250.876, 308.150 251.797, 308.219 252.391, 308.264 253.302, 308.469 253.833, 308.593 254.090, 309.305 " />
            <path fill="none" stroke-width="3.0" stroke-linecap="butt" stroke-opacity="1.0" stroke="rgb(0, 0, 0)" stroke-linejoin="round" d=" M 248.377, 306.913 247.725, 306.171 247.133, 305.349 246.986, 305.145 245.493, 303.072 " />
            <path fill="none" stroke-width="3.0" stroke-linecap="butt" stroke-opacity="1.0" stroke="rgb(0, 0, 0)" stroke-linejoin="round" d=" M 254.177, 298.887 253.658, 298.434 252.973, 297.904 252.272, 297.383 251.110, 296.793 249.713, 296.127 248.513, 295.741 247.784, 295.465 246.282, 294.799 243.395, 293.705 241.076, 293.076 " />
            <path fill="none" stroke-width="3.0" stroke-linecap="butt" stroke-opacity="1.0" stroke="rgb(0, 0, 0)" stroke-linejoin="round" d=" M 249.943, 307.204 249.866, 307.202 248.896, 307.180 248.629, 307.080 248.473, 307.022 248.038, 306.860 " />
            <path fill="none" stroke-width="3.0" stroke-linecap="butt" stroke-opacity="1.0" stroke="rgb(0, 0, 0)" stroke-linejoin="round" d=" M 248.896, 307.180 248.777, 307.094 248.564, 306.942 248.377, 306.913 248.038, 306.860 " />
            <path fill="none" stroke-width="3.0" stroke-linecap="butt" stroke-opacity="1.0" stroke="rgb(0, 0, 0)" stroke-linejoin="round" d=" M 251.832, 297.935 253.094, 298.768 251.801, 298.525 " />
            <path fill="none" stroke-width="3.0" stroke-linecap="butt" stroke-opacity="1.0" stroke="rgb(0, 0, 0)" stroke-linejoin="round" d=" M 249.775, 296.655 251.131, 297.197 252.269, 297.653 252.973, 298.131 253.660, 298.606 253.944, 298.813 " />
            <path fill="none" stroke-width="3.0" stroke-linecap="butt" stroke-opacity="1.0" stroke="rgb(0, 0, 0)" stroke-linejoin="round" d=" M 255.171, 301.040 256.648, 301.418 257.855, 301.720 259.059, 302.351 259.903, 302.805 260.743, 303.430 260.744, 303.431 260.748, 303.434 " />
            <path fill="none" stroke-width="3.0" stroke-linecap="butt" stroke-opacity="1.0" stroke="rgb(0, 0, 0)" stroke-linejoin="round" d=" M 253.656, 309.546 252.178, 309.320 " />
            <path fill="none" stroke-width="3.0" stroke-linecap="butt" stroke-opacity="1.0" stroke="rgb(0, 0, 0)" stroke-linejoin="round" d=" M 89.022, 313.694 90.208, 313.820 91.150, 314.049 92.405, 314.558 93.464, 315.189 93.845, 315.174 93.993, 315.135 93.494, 314.224 92.258, 313.199 91.695, 312.803 91.672, 312.787 91.624, 312.753 91.342, 312.555 89.808, 311.874 88.282, 311.198 87.972, 311.075 87.171, 310.759 86.587, 310.495 85.727, 310.104 85.234, 309.816 84.428, 309.347 83.143, 308.724 82.126, 308.231 80.905, 307.547 78.505, 306.201 " />
            <path fill="none" stroke-width="3.0" stroke-linecap="butt" stroke-opacity="1.0" stroke="rgb(0, 0, 0)" stroke-linejoin="round" d=" M 88.694, 313.592 88.511, 313.458 88.117, 313.172 87.462, 312.789 86.992, 312.515 86.654, 312.192 85.938, 311.507 85.800, 311.375 85.195, 310.797 85.084, 310.691 " />
            <path fill="none" stroke-width="3.0" stroke-linecap="butt" stroke-opacity="1.0" stroke="rgb(0, 0, 0)" stroke-linejoin="round" d=" M 86.435, 320.173 89.469, 319.324 90.697, 319.179 91.961, 319.167 92.851, 319.282 93.517, 319.470 94.476, 319.943 94.998, 320.218 95.231, 320.079 95.219, 319.973 95.061, 319.425 94.268, 318.545 93.622, 318.175 92.797, 317.760 91.559, 317.369 90.359, 316.982 88.440, 316.393 88.230, 316.314 88.136, 316.279 87.571, 316.067 86.164, 314.742 85.903, 314.007 85.876, 313.933 85.735, 313.535 " />
            <path fill="none" stroke-width="3.0" stroke-linecap="butt" stroke-opacity="1.0" stroke="rgb(0, 0, 0)" stroke-linejoin="round" d=" M 91.695, 312.803 91.681, 312.385 91.080, 311.612 90.331, 310.944 89.051, 310.365 87.642, 309.892 86.350, 309.625 84.188, 309.151 83.143, 308.724 " />
            <path fill="none" stroke-width="3.0" stroke-linecap="butt" stroke-opacity="1.0" stroke="rgb(0, 0, 0)" stroke-linejoin="round" d=" M 85.224, 323.120 86.797, 322.897 88.195, 322.783 89.523, 322.741 90.957, 322.791 92.444, 323.104 93.265, 323.460 93.637, 323.353 93.457, 322.548 93.355, 322.291 91.987, 321.273 90.616, 320.908 89.354, 320.647 87.938, 320.458 86.435, 320.173 86.301, 320.147 86.066, 320.066 85.089, 319.730 84.365, 319.719 83.045, 318.706 82.880, 318.579 " />
            <path fill="none" stroke-width="3.0" stroke-linecap="butt" stroke-opacity="1.0" stroke="rgb(0, 0, 0)" stroke-linejoin="round" d=" M 84.365, 319.719 84.416, 320.146 85.089, 319.730 85.844, 320.372 86.372, 320.820 88.020, 320.966 89.464, 321.089 90.742, 321.337 92.105, 321.616 93.457, 322.548 " />
            <path fill="none" stroke-width="3.0" stroke-linecap="butt" stroke-opacity="1.0" stroke="rgb(0, 0, 0)" stroke-linejoin="round" d=" M 93.845, 315.174 93.487, 314.407 92.228, 313.476 91.705, 313.100 91.324, 312.826 90.801, 312.638 89.751, 312.261 88.218, 311.689 " />
            <path fill="none" stroke-width="3.0" stroke-linecap="butt" stroke-opacity="1.0" stroke="rgb(0, 0, 0)" stroke-linejoin="round" d=" M 88.230, 316.314 88.620, 316.194 89.618, 316.218 90.808, 316.362 91.774, 316.577 92.856, 316.945 93.991, 317.622 94.524, 318.032 94.571, 318.043 94.874, 318.106 94.821, 317.594 94.723, 317.369 93.860, 316.204 92.779, 315.511 91.838, 314.975 90.500, 314.399 89.413, 313.875 89.022, 313.694 88.511, 313.458 " />
            <path fill="none" stroke-width="3.0" stroke-linecap="butt" stroke-opacity="1.0" stroke="rgb(0, 0, 0)" stroke-linejoin="round" d=" M 94.998, 320.218 94.655, 319.961 " />
            <path fill="none" stroke-width="3.0" stroke-linecap="butt" stroke-opacity="1.0" stroke="rgb(0, 0, 0)" stroke-linejoin="round" d=" M 95.231, 320.079 95.084, 319.608 94.325, 318.801 93.710, 318.488 92.905, 318.099 91.691, 317.846 90.536, 317.599 " />
            <path fill="none" stroke-width="3.0" stroke-linecap="butt" stroke-opacity="1.0" stroke="rgb(0, 0, 0)" stroke-linejoin="round" d=" M 93.265, 323.460 92.783, 323.114 " />
            <path fill="none" stroke-width="3.0" stroke-linecap="butt" stroke-opacity="1.0" stroke="rgb(0, 0, 0)" stroke-linejoin="round" d=" M 358.537, 179.123 359.148, 178.731 " />
            <path fill="none" stroke-width="3.0" stroke-linecap="butt" stroke-opacity="1.0" stroke="rgb(0, 0, 0)" stroke-linejoin="round" d=" M 330.222, 163.020 330.879, 162.367 331.005, 162.242 " />
            <path fill="none" stroke-width="3.0" stroke-linecap="butt" stroke-opacity="1.0" stroke="rgb(0, 0, 0)" stroke-linejoin="round" d=" M 254.134, 302.809 255.843, 302.781 257.240, 302.871 258.670, 303.397 " />
            <path fill="none" stroke-width="3.0" stroke-linecap="butt" stroke-opacity="1.0" stroke="rgb(0, 0, 0)" stroke-linejoin="round" d=" M 244.636, 294.757 242.163, 293.488 241.076, 293.076 239.498, 292.476 236.906, 291.648 236.038, 291.318 " />
            <path fill="none" stroke-width="3.0" stroke-linecap="butt" stroke-opacity="1.0" stroke="rgb(0, 0, 0)" stroke-linejoin="round" d=" M 236.994, 291.836 236.038, 291.318 235.686, 291.127 " />
            <path fill="none" stroke-width="3.0" stroke-linecap="butt" stroke-opacity="1.0" stroke="rgb(0, 0, 0)" stroke-linejoin="round" d=" M 50.098, 183.743 51.416, 188.707 " />
            <path fill="none" stroke-width="3.0" stroke-linecap="butt" stroke-opacity="1.0" stroke="rgb(0, 0, 0)" stroke-linejoin="round" d=" M 51.198, 185.501 51.251, 186.282 51.386, 188.265 51.396, 188.418 51.416, 188.707 51.883, 195.587 51.893, 195.974 52.018, 200.509 52.012, 200.975 " />
            <path fill="none" stroke-width="3.0" stroke-linecap="butt" stroke-opacity="1.0" stroke="rgb(0, 0, 0)" stroke-linejoin="round" d=" M 86.966, 314.154 88.076, 314.221 88.593, 314.334 89.567, 314.593 90.636, 314.963 91.978, 315.406 92.921, 315.910 93.978, 316.506 94.821, 317.594 " />
            <path fill="none" stroke-width="3.0" stroke-linecap="butt" stroke-opacity="1.0" stroke="rgb(0, 0, 0)" stroke-linejoin="round" d=" M 86.312, 315.632 87.890, 316.309 88.069, 316.364 88.865, 316.608 " />
            <path fill="none" stroke-width="3.0" stroke-linecap="butt" stroke-opacity="1.0" stroke="rgb(0, 0, 0)" stroke-linejoin="round" d=" M 84.899, 320.776 84.233, 320.988 " />
            <path fill="none" stroke-width="3.0" stroke-linecap="butt" stroke-opacity="1.0" stroke="rgb(0, 0, 0)" stroke-linejoin="round" d=" M 85.234, 309.816 86.416, 310.023 87.675, 310.219 89.029, 310.735 90.300, 311.223 90.981, 311.937 91.628, 312.622 91.624, 312.753 " />
            <path fill="none" stroke-width="3.0" stroke-linecap="butt" stroke-opacity="1.0" stroke="rgb(0, 0, 0)" stroke-linejoin="round" d=" M 80.506, 307.900 78.505, 306.201 78.255, 305.989 76.588, 304.470 " />
            <path fill="none" stroke-width="3.0" stroke-linecap="butt" stroke-opacity="1.0" stroke="rgb(0, 0, 0)" stroke-linejoin="round" d=" M 57.087, 249.998 57.203, 254.363 56.284, 259.506 54.585, 264.390 54.549, 264.493 " />
            <path fill="none" stroke-width="3.0" stroke-linecap="butt" stroke-opacity="1.0" stroke="rgb(0, 0, 0)" stroke-linejoin="round" d=" M 129.396, 237.482 131.313, 231.565 131.438, 225.380 " />
            <path fill="none" stroke-width="3.0" stroke-linecap="butt" stroke-opacity="1.0" stroke="rgb(0, 0, 0)" stroke-linejoin="round" d=" M 248.038, 306.860 247.252, 306.627 244.643, 305.852 " />
            <path fill="none" stroke-width="3.0" stroke-linecap="butt" stroke-opacity="1.0" stroke="rgb(0, 0, 0)" stroke-linejoin="round" d=" M 190.159, 242.652 191.772, 242.107 196.046, 240.662 " />
            <path fill="none" stroke-width="3.0" stroke-linecap="butt" stroke-opacity="1.0" stroke="rgb(0, 0, 0)" stroke-linejoin="round" d=" M 315.718, 114.358 315.317, 114.422 " />
            <path fill="none" stroke-width="3.0" stroke-linecap="butt" stroke-opacity="1.0" stroke="rgb(0, 0, 0)" stroke-linejoin="round" d=" M 291.212, 141.067 293.547, 138.072 " />
            <path fill="none" stroke-width="3.0" stroke-linecap="butt" stroke-opacity="1.0" stroke="rgb(0, 0, 0)" stroke-linejoin="round" d=" M 292.198, 274.728 288.034, 274.606 " />
            <path fill="none" stroke-width="3.0" stroke-linecap="butt" stroke-opacity="1.0" stroke="rgb(0, 0, 0)" stroke-linejoin="round" d=" M 297.436, 257.088 297.063, 256.962 295.741, 256.518 294.268, 256.023 " />
            <path fill="none" stroke-width="3.0" stroke-linecap="butt" stroke-opacity="1.0" stroke="rgb(0, 0, 0)" stroke-linejoin="round" d=" M 92.633, 314.604 91.383, 314.063 " />
            <path fill="none" stroke-width="3.0" stroke-linecap="butt" stroke-opacity="1.0" stroke="rgb(0, 0, 0)" stroke-linejoin="round" d=" M 333.699, 160.866 333.980, 160.734 334.287, 160.473 334.575, 160.129 334.798, 159.752 334.924, 159.401 334.958, 159.122 " />
            <path fill="none" stroke-width="3.0" stroke-linecap="butt" stroke-opacity="1.0" stroke="rgb(0, 0, 0)" stroke-linejoin="round" d=" M 83.045, 318.706 82.833, 317.275 " />
            <path fill="none" stroke-width="3.0" stroke-linecap="butt" stroke-opacity="1.0" stroke="rgb(0, 0, 0)" stroke-linejoin="round" d=" M 85.938, 311.507 86.389, 311.485 " />
            <path fill="none" stroke-width="3.0" stroke-linecap="butt" stroke-opacity="1.0" stroke="rgb(0, 0, 0)" stroke-linejoin="round" d=" M 87.462, 312.789 86.654, 312.192 " />
            <path fill="none" stroke-width="3.0" stroke-linecap="butt" stroke-opacity="1.0" stroke="rgb(0, 0, 0)" stroke-linejoin="round" d=" M 114.488, 268.302 115.278, 267.575 " />
            <path fill="none" stroke-width="3.0" stroke-linecap="butt" stroke-opacity="1.0" stroke="rgb(0, 0, 0)" stroke-linejoin="round" d=" M 120.065, 275.743 119.428, 275.124 " />
            <path fill="none" stroke-width="3.0" stroke-linecap="butt" stroke-opacity="1.0" stroke="rgb(0, 0, 0)" stroke-linejoin="round" d=" M 272.087, 205.017 272.776, 204.608 273.019, 204.465 273.495, 204.182 277.713, 201.681 " />
            <path fill="none" stroke-width="3.0" stroke-linecap="butt" stroke-opacity="1.0" stroke="rgb(0, 0, 0)" stroke-linejoin="round" d=" M 296.631, 192.443 297.714, 192.123 300.585, 191.274 " />
            <path fill="none" stroke-width="3.0" stroke-linecap="butt" stroke-opacity="1.0" stroke="rgb(0, 0, 0)" stroke-linejoin="round" d=" M 316.956, 114.509 315.783, 113.390 " />
            <path fill="none" stroke-width="3.0" stroke-linecap="butt" stroke-opacity="1.0" stroke="rgb(0, 0, 0)" stroke-linejoin="round" d=" M 336.472, 181.152 336.267, 181.384 " />
            <path fill="none" stroke-width="3.0" stroke-linecap="butt" stroke-opacity="1.0" stroke="rgb(0, 0, 0)" stroke-linejoin="round" d=" M 342.206, 151.520 342.158, 151.349 " />
        </g>
    </g>
</svg>
