<?xml version='1.0' encoding='ascii'?>
<svg xmlns="http://www.w3.org/2000/svg" xmlns:inkscape="http://www.inkscape.org/namespaces/inkscape" version="1.1" width="400" height="400">
    <g id="ViewLayer_LineSet" inkscape:groupmode="lineset" inkscape:label="ViewLayer_LineSet">
        <g xmlns:inkscape="http://www.inkscape.org/namespaces/inkscape" inkscape:groupmode="layer" inkscape:label="fills" id="fills">
            <path fill_rule="evenodd" stroke="none" fill-opacity="1.0" fill="rgb(68, 34, 21)" d=" M 80.244, 234.494 80.790, 234.856 81.254, 234.938 81.655, 235.160 82.124, 235.705 82.730, 236.256 83.946, 237.299 84.702, 237.735 85.665, 238.079 85.667, 238.083 86.348, 238.988 87.619, 239.731 88.752, 240.134 90.807, 240.508 93.839, 240.360 94.384, 240.281 97.361, 239.951 102.150, 239.751 106.404, 240.254 111.650, 240.737 114.471, 240.761 117.144, 240.887 121.553, 241.892 124.891, 243.280 125.632, 243.742 126.154, 244.089 127.219, 244.732 132.272, 246.850 134.342, 246.991 138.799, 246.897 142.842, 247.718 145.460, 253.093 148.406, 259.388 150.945, 265.434 152.601, 271.162 154.551, 276.441 154.969, 279.869 155.061, 284.256 153.105, 287.530 151.016, 290.295 148.964, 292.828 147.044, 295.152 144.962, 298.292 144.810, 298.957 144.222, 299.932 143.868, 300.878 143.478, 301.682 143.229, 302.205 142.862, 303.163 142.696, 303.791 142.663, 304.814 142.936, 305.127 143.279, 304.844 144.092, 303.434 144.491, 302.967 144.983, 302.455 145.652, 301.965 146.211, 301.725 146.159, 301.933 145.479, 303.099 144.750, 304.435 144.285, 305.177 143.977, 305.656 143.431, 306.639 142.967, 307.606 142.670, 308.921 142.895, 309.320 143.339, 309.019 144.731, 307.239 145.137, 306.812 145.833, 306.127 146.678, 305.393 148.267, 304.616 149.194, 304.671 149.441, 304.665 149.230, 305.125 148.530, 306.170 147.701, 307.445 147.006, 308.457 146.277, 309.746 145.785, 310.687 145.324, 311.848 145.300, 312.490 145.517, 312.792 145.725, 312.639 146.298, 311.656 146.992, 310.712 147.388, 310.214 147.860, 309.645 148.990, 308.680 149.926, 308.085 151.893, 307.306 152.331, 307.460 153.004, 307.669 153.760, 307.517 153.474, 307.868 152.855, 308.784 151.887, 310.093 151.194, 311.153 150.593, 312.141 150.012, 313.297 149.863, 313.857 150.048, 314.081 150.302, 313.914 150.972, 312.928 151.738, 312.005 152.575, 311.087 153.834, 310.195 154.330, 309.914 156.115, 309.507 156.384, 309.557 157.194, 309.738 158.045, 309.647 157.949, 309.776 157.206, 310.779 156.715, 311.551 156.244, 312.326 155.859, 313.062 155.762, 313.437 155.914, 313.639 156.129, 313.651 156.625, 313.176 157.243, 312.463 157.885, 311.757 158.855, 311.027 160.073, 310.263 161.279, 309.890 162.304, 310.013 163.433, 310.067 164.331, 309.925 166.450, 309.079 170.658, 306.306 171.358, 305.734 170.369, 310.376 169.305, 317.385 168.042, 323.507 167.193, 327.496 165.706, 331.745 163.769, 334.611 161.889, 337.236 160.130, 339.706 158.221, 342.142 156.587, 344.538 155.229, 346.646 154.523, 347.992 154.277, 348.684 153.674, 349.675 153.161, 350.676 152.659, 351.617 152.192, 352.638 151.840, 353.464 151.607, 354.232 151.520, 354.734 151.696, 354.941 151.905, 354.857 152.303, 354.236 152.820, 353.440 153.329, 352.684 154.128, 351.798 154.824, 351.065 155.360, 350.624 155.724, 350.585 156.642, 350.525 156.561, 350.746 156.410, 351.441 155.847, 352.219 155.294, 353.270 154.725, 354.325 154.230, 355.343 153.769, 356.337 153.297, 357.551 153.160, 358.144 153.338, 358.406 153.600, 358.256 154.196, 357.216 154.807, 356.245 155.469, 355.258 156.208, 354.527 156.654, 354.167 157.881, 353.739 158.953, 353.933 159.702, 353.775 159.220, 354.496 158.515, 355.649 157.952, 356.606 157.446, 357.635 156.911, 358.819 156.470, 360.011 156.355, 360.641 156.537, 360.967 156.793, 360.845 157.400, 359.947 158.176, 358.799 158.886, 357.798 159.665, 357.052 160.731, 356.254 161.943, 355.791 162.387, 355.935 163.145, 356.102 164.337, 355.855 163.922, 356.457 163.253, 357.399 162.708, 358.259 162.276, 359.007 161.915, 359.736 161.529, 360.949 161.694, 361.343 162.719, 360.224 163.108, 359.816 163.994, 358.894 164.771, 358.219 165.260, 357.888 167.495, 357.370 168.277, 357.657 169.586, 357.520 170.487, 357.102 170.054, 357.600 169.556, 358.154 168.970, 358.845 168.457, 359.544 168.031, 360.400 168.207, 360.810 168.539, 360.535 169.140, 360.182 169.912, 359.580 170.574, 359.111 171.424, 358.566 172.320, 358.075 174.792, 357.603 175.557, 357.726 177.324, 356.810 177.975, 356.280 180.528, 354.811 181.771, 353.016 182.873, 351.385 184.481, 350.171 186.225, 347.859 187.691, 345.118 189.147, 342.247 189.765, 340.189 191.878, 335.856 195.547, 330.499 199.362, 324.427 203.950, 318.241 208.156, 311.267 209.022, 309.638 213.359, 301.967 217.341, 293.902 220.850, 285.525 223.686, 276.879 224.529, 274.149 227.191, 265.484 229.493, 257.041 231.291, 248.834 233.102, 240.473 233.569, 238.363 233.910, 238.296 242.324, 235.167 247.262, 232.840 247.181, 232.973 246.573, 234.190 246.120, 235.818 246.208, 236.525 246.410, 236.579 246.703, 236.449 246.945, 235.871 247.657, 234.543 248.408, 233.622 248.991, 233.005 249.778, 232.303 250.446, 231.822 251.714, 231.307 252.565, 231.432 252.195, 231.878 251.079, 233.075 250.395, 234.029 249.475, 235.431 249.199, 236.311 249.195, 236.471 249.631, 236.406 249.755, 236.365 250.442, 235.488 251.420, 234.516 251.743, 234.220 252.104, 233.942 253.242, 233.252 254.380, 232.733 256.300, 232.264 257.141, 232.404 256.520, 232.950 255.552, 233.999 254.652, 235.001 254.151, 235.966 253.685, 236.901 253.745, 237.587 253.785, 237.757 253.943, 237.727 254.166, 237.641 254.198, 237.621 254.683, 236.887 254.734, 236.829 255.179, 236.369 255.389, 236.135 255.850, 235.749 256.794, 235.011 257.832, 234.378 258.687, 233.902 260.112, 233.265 261.502, 232.955 262.351, 232.855 263.777, 233.066 265.349, 233.133 266.598, 232.953 268.673, 231.780 269.912, 230.194 272.073, 227.379 272.599, 226.643 273.970, 230.371 275.927, 234.796 278.333, 238.603 280.808, 241.836 282.866, 244.763 283.911, 246.343 284.665, 248.452 284.622, 249.015 283.702, 250.460 280.851, 253.683 277.905, 256.439 275.218, 259.024 272.020, 262.515 271.014, 264.252 270.727, 264.928 270.074, 266.059 269.509, 267.020 268.517, 268.602 267.844, 269.797 267.387, 270.766 266.945, 271.866 266.603, 273.180 266.538, 273.872 266.681, 274.052 266.876, 273.993 266.966, 273.804 267.280, 273.012 267.682, 272.042 268.124, 271.213 268.612, 270.435 269.321, 269.480 270.495, 268.346 271.266, 267.745 272.089, 267.308 272.318, 267.325 272.267, 267.513 271.721, 268.678 271.001, 270.468 270.421, 271.916 269.955, 273.252 269.470, 274.863 269.276, 275.861 269.342, 276.035 269.540, 275.958 269.770, 275.862 270.267, 274.798 270.840, 273.595 271.362, 272.600 272.049, 271.571 272.807, 270.663 274.010, 270.166 274.779, 270.346 274.598, 270.799 273.984, 272.167 273.418, 273.235 272.911, 274.222 272.305, 275.463 271.940, 276.331 271.670, 277.062 271.540, 277.715 271.688, 277.848 271.863, 277.683 272.180, 277.161 272.537, 276.569 272.968, 275.889 273.694, 274.894 274.284, 274.128 274.920, 273.415 275.602, 272.783 276.451, 272.474 277.180, 272.755 278.036, 272.946 278.763, 272.851 278.681, 272.984 278.105, 273.934 277.312, 275.263 276.788, 276.216 276.377, 277.026 276.016, 277.848 275.761, 278.503 275.606, 279.199 275.747, 279.295 275.969, 279.291 276.287, 278.793 276.599, 278.275 276.996, 277.616 277.446, 276.969 278.014, 276.212 278.941, 275.316 279.428, 274.925 282.016, 273.884 284.118, 273.610 284.082, 273.648 283.167, 274.554 282.151, 275.666 281.266, 276.730 280.737, 277.550 280.184, 278.613 279.955, 279.728 280.113, 279.865 280.481, 279.764 280.989, 279.054 281.618, 278.292 282.153, 277.693 283.061, 276.884 284.077, 276.024 284.998, 275.416 285.953, 274.883 287.827, 274.583 288.541, 274.937 290.099, 274.942 292.681, 274.075 294.600, 272.780 297.225, 270.941 299.962, 268.902 303.657, 265.958 306.796, 262.962 310.745, 257.943 312.644, 253.559 313.439, 248.846 314.090, 244.055 314.518, 239.033 314.653, 233.899 315.059, 228.672 315.144, 223.319 314.953, 217.931 314.868, 212.446 315.484, 207.827 317.923, 199.944 319.993, 191.972 321.871, 184.611 323.288, 177.284 324.603, 169.909 325.822, 160.436 326.293, 150.332 325.793, 141.401 324.400, 132.583 323.018, 126.924 322.902, 126.505 320.641, 119.866 317.158, 112.891 312.873, 106.263 307.768, 99.510 301.951, 93.999 299.570, 92.061 298.868, 91.544 296.482, 89.645 293.323, 87.464 286.871, 83.887 280.586, 81.485 275.799, 79.457 269.343, 77.923 263.135, 76.850 256.194, 76.505 249.416, 76.482 242.831, 77.370 236.665, 78.945 230.670, 81.147 224.273, 84.365 217.883, 88.627 204.556, 97.924 198.218, 102.496 192.583, 107.839 187.967, 112.594 183.054, 118.049 178.255, 123.531 177.036, 124.697 173.481, 127.548 169.520, 130.353 164.198, 133.051 158.258, 135.974 152.866, 139.405 147.132, 144.617 141.350, 150.578 136.722, 158.292 134.767, 163.032 134.015, 162.908 131.701, 161.219 129.972, 159.614 128.182, 158.156 126.898, 157.185 126.421, 156.836 126.305, 156.760 125.737, 156.354 124.893, 155.839 123.578, 155.241 122.373, 155.293 120.826, 155.647 120.339, 156.840 120.013, 158.146 120.172, 158.896 120.287, 160.072 121.186, 161.834 121.441, 162.328 121.879, 163.789 122.849, 166.012 123.108, 168.438 120.841, 170.237 117.308, 173.109 112.722, 177.127 107.851, 182.200 102.334, 189.014 98.423, 193.729 96.441, 197.065 96.235, 199.249 96.157, 200.614 96.189, 201.062 96.258, 201.882 96.522, 202.886 97.277, 204.204 97.591, 204.671 97.527, 205.127 97.714, 205.714 97.955, 206.216 97.842, 207.039 95.865, 209.410 93.129, 211.627 89.987, 214.223 86.302, 217.244 82.546, 220.495 80.485, 222.272 80.061, 222.767 79.483, 222.946 78.594, 223.319 77.463, 223.965 76.399, 224.979 75.828, 226.208 75.880, 226.929 75.956, 227.498 76.203, 228.135 76.425, 228.879 77.047, 229.930 77.352, 230.291 78.157, 231.264 78.676, 232.427 79.030, 232.958 79.900, 233.992 80.244, 234.494  z" />
        </g>
        <g inkscape:groupmode="layer" id="strokes" inkscape:label="strokes">
            <path fill="none" stroke-width="3.0" stroke-linecap="butt" stroke-opacity="1.0" stroke="rgb(0, 0, 0)" stroke-linejoin="round" d=" M 77.569, 229.526 77.982, 229.823 78.120, 229.922 78.125, 229.926 78.157, 229.949 78.439, 230.152 79.330, 231.142 79.946, 231.996 80.418, 232.617 81.000, 232.923 " />
            <path fill="none" stroke-width="3.0" stroke-linecap="butt" stroke-opacity="1.0" stroke="rgb(0, 0, 0)" stroke-linejoin="round" d=" M 80.727, 232.719 81.000, 232.923 81.126, 233.016 81.801, 232.992 82.425, 232.710 82.970, 231.829 83.444, 230.748 " />
            <path fill="none" stroke-width="3.0" stroke-linecap="butt" stroke-opacity="1.0" stroke="rgb(0, 0, 0)" stroke-linejoin="round" d=" M 76.142, 227.929 76.203, 228.135 76.425, 228.879 77.047, 229.930 77.352, 230.291 78.157, 231.264 78.409, 231.569 78.499, 231.669 78.523, 231.696 78.823, 232.026 " />
            <path fill="none" stroke-width="3.0" stroke-linecap="butt" stroke-opacity="1.0" stroke="rgb(0, 0, 0)" stroke-linejoin="round" d=" M 78.157, 231.264 78.676, 232.427 79.030, 232.958 79.900, 233.992 80.244, 234.494 80.790, 234.856 81.254, 234.938 81.891, 235.052 " />
            <path fill="none" stroke-width="3.0" stroke-linecap="butt" stroke-opacity="1.0" stroke="rgb(0, 0, 0)" stroke-linejoin="round" d=" M 81.254, 234.938 81.655, 235.160 82.124, 235.705 82.730, 236.256 83.946, 237.299 84.702, 237.735 85.665, 238.079 86.854, 238.504 89.126, 238.727 91.747, 238.572 92.069, 238.545 95.523, 237.686 99.813, 236.631 102.757, 236.155 104.732, 236.102 104.757, 236.101 106.305, 236.604 " />
            <path fill="none" stroke-width="3.0" stroke-linecap="butt" stroke-opacity="1.0" stroke="rgb(0, 0, 0)" stroke-linejoin="round" d=" M 105.309, 215.314 105.851, 215.750 106.665, 215.755 " />
            <path fill="none" stroke-width="3.0" stroke-linecap="butt" stroke-opacity="1.0" stroke="rgb(0, 0, 0)" stroke-linejoin="round" d=" M 105.120, 214.938 105.193, 215.130 105.412, 215.697 105.692, 216.285 " />
            <path fill="none" stroke-width="3.0" stroke-linecap="butt" stroke-opacity="1.0" stroke="rgb(0, 0, 0)" stroke-linejoin="round" d=" M 104.844, 214.114 105.120, 214.938 105.243, 215.281 " />
            <path fill="none" stroke-width="3.0" stroke-linecap="butt" stroke-opacity="1.0" stroke="rgb(0, 0, 0)" stroke-linejoin="round" d=" M 85.665, 238.079 85.667, 238.083 86.348, 238.988 87.619, 239.731 88.752, 240.134 90.807, 240.508 93.839, 240.360 94.384, 240.281 97.462, 239.837 " />
            <path fill="none" stroke-width="3.0" stroke-linecap="butt" stroke-opacity="1.0" stroke="rgb(0, 0, 0)" stroke-linejoin="round" d=" M 104.355, 212.777 104.464, 212.863 104.630, 212.995 104.772, 213.108 105.316, 213.539 105.917, 214.020 106.570, 214.527 107.269, 215.045 107.821, 215.429 108.040, 215.582 108.741, 216.014 109.432, 216.647 " />
            <path fill="none" stroke-width="3.0" stroke-linecap="butt" stroke-opacity="1.0" stroke="rgb(0, 0, 0)" stroke-linejoin="round" d=" M 104.455, 212.862 104.355, 212.777 104.486, 213.047 " />
            <path fill="none" stroke-width="3.0" stroke-linecap="butt" stroke-opacity="1.0" stroke="rgb(0, 0, 0)" stroke-linejoin="round" d=" M 94.384, 240.281 97.361, 239.951 102.150, 239.751 106.404, 240.254 111.650, 240.737 114.471, 240.761 117.144, 240.887 119.579, 241.003 " />
            <path fill="none" stroke-width="3.0" stroke-linecap="butt" stroke-opacity="1.0" stroke="rgb(0, 0, 0)" stroke-linejoin="round" d=" M 137.054, 182.147 136.350, 181.980 135.438, 181.983 134.872, 182.289 " />
            <path fill="none" stroke-width="3.0" stroke-linecap="butt" stroke-opacity="1.0" stroke="rgb(0, 0, 0)" stroke-linejoin="round" d=" M 146.329, 189.055 149.592, 191.423 " />
            <path fill="none" stroke-width="3.0" stroke-linecap="butt" stroke-opacity="1.0" stroke="rgb(0, 0, 0)" stroke-linejoin="round" d=" M 134.937, 184.016 135.808, 185.714 140.822, 190.592 " />
            <path fill="none" stroke-width="3.0" stroke-linecap="butt" stroke-opacity="1.0" stroke="rgb(0, 0, 0)" stroke-linejoin="round" d=" M 146.043, 195.901 149.818, 200.056 150.161, 197.672 150.134, 196.049 149.922, 194.715 149.587, 193.464 " />
            <path fill="none" stroke-width="3.0" stroke-linecap="butt" stroke-opacity="1.0" stroke="rgb(0, 0, 0)" stroke-linejoin="round" d=" M 137.951, 184.710 142.400, 187.400 146.408, 191.116 " />
            <path fill="none" stroke-width="3.0" stroke-linecap="butt" stroke-opacity="1.0" stroke="rgb(0, 0, 0)" stroke-linejoin="round" d=" M 77.950, 230.710 77.492, 229.931 77.569, 229.526 " />
            <path fill="none" stroke-width="3.0" stroke-linecap="butt" stroke-opacity="1.0" stroke="rgb(0, 0, 0)" stroke-linejoin="round" d=" M 127.219, 244.732 132.272, 246.850 134.342, 246.991 138.799, 246.897 139.987, 246.872 " />
            <path fill="none" stroke-width="3.0" stroke-linecap="butt" stroke-opacity="1.0" stroke="rgb(0, 0, 0)" stroke-linejoin="round" d=" M 138.799, 246.897 142.842, 247.718 143.173, 247.786 148.968, 250.425 152.128, 251.332 158.453, 253.145 164.361, 253.446 171.021, 252.967 " />
            <path fill="none" stroke-width="3.0" stroke-linecap="butt" stroke-opacity="1.0" stroke="rgb(0, 0, 0)" stroke-linejoin="round" d=" M 256.799, 227.663 262.931, 223.216 267.591, 218.040 269.371, 215.660 272.521, 211.448 275.417, 206.358 278.480, 197.411 280.522, 191.343 282.684, 184.920 282.689, 184.904 282.764, 184.682 282.984, 184.026 283.053, 183.822 283.204, 183.501 287.454, 174.450 288.532, 172.155 " />
            <path fill="none" stroke-width="3.0" stroke-linecap="butt" stroke-opacity="1.0" stroke="rgb(0, 0, 0)" stroke-linejoin="round" d=" M 233.569, 238.363 233.910, 238.296 242.324, 235.167 " />
            <path fill="none" stroke-width="3.0" stroke-linecap="butt" stroke-opacity="1.0" stroke="rgb(0, 0, 0)" stroke-linejoin="round" d=" M 242.324, 235.167 247.354, 232.688 248.407, 232.169 249.627, 231.567 254.124, 229.119 254.181, 229.088 254.213, 229.071 255.090, 228.594 256.799, 227.663 255.040, 228.670 254.227, 229.134 254.194, 229.153 254.133, 229.188 250.024, 231.538 248.276, 232.362 247.262, 232.840 242.324, 235.167 " />
            <path fill="none" stroke-width="3.0" stroke-linecap="butt" stroke-opacity="1.0" stroke="rgb(0, 0, 0)" stroke-linejoin="round" d=" M 287.827, 274.583 288.541, 274.937 290.099, 274.942 292.681, 274.075 294.600, 272.780 297.225, 270.941 299.962, 268.902 303.657, 265.958 306.796, 262.962 310.745, 257.943 312.644, 253.559 313.439, 248.846 314.090, 244.055 314.518, 239.033 314.653, 233.899 315.059, 228.672 315.144, 223.319 314.953, 217.931 314.868, 212.446 315.484, 207.827 " />
            <path fill="none" stroke-width="3.0" stroke-linecap="butt" stroke-opacity="1.0" stroke="rgb(0, 0, 0)" stroke-linejoin="round" d=" M 269.371, 215.660 269.993, 219.097 271.375, 223.317 272.599, 226.643 273.970, 230.371 275.927, 234.796 278.333, 238.603 280.808, 241.836 282.866, 244.763 283.911, 246.343 284.673, 247.496 285.173, 248.149 285.304, 248.319 286.430, 249.788 " />
            <path fill="none" stroke-width="3.0" stroke-linecap="butt" stroke-opacity="1.0" stroke="rgb(0, 0, 0)" stroke-linejoin="round" d=" M 172.320, 358.075 174.792, 357.603 175.557, 357.726 177.324, 356.810 177.975, 356.280 180.528, 354.811 181.771, 353.016 182.873, 351.385 184.481, 350.171 186.225, 347.859 187.691, 345.118 189.147, 342.247 189.765, 340.189 191.878, 335.856 195.547, 330.499 199.362, 324.427 203.950, 318.241 208.156, 311.267 209.022, 309.638 213.359, 301.967 217.341, 293.902 220.850, 285.525 223.686, 276.879 224.529, 274.149 227.191, 265.484 229.493, 257.041 231.291, 248.834 233.102, 240.473 233.569, 238.363 234.966, 232.045 236.011, 225.346 236.824, 218.301 237.323, 213.484 " />
            <path fill="none" stroke-width="3.0" stroke-linecap="butt" stroke-opacity="1.0" stroke="rgb(0, 0, 0)" stroke-linejoin="round" d=" M 172.120, 254.696 172.156, 256.864 173.962, 263.056 175.830, 267.356 177.675, 271.278 178.191, 273.467 178.692, 275.594 " />
            <path fill="none" stroke-width="3.0" stroke-linecap="butt" stroke-opacity="1.0" stroke="rgb(0, 0, 0)" stroke-linejoin="round" d=" M 314.566, 210.796 315.484, 207.827 317.923, 199.944 319.993, 191.972 321.871, 184.611 323.288, 177.284 324.603, 169.909 325.822, 160.436 326.288, 150.447 326.293, 150.332 325.793, 141.401 324.400, 132.583 323.018, 126.924 322.902, 126.505 320.641, 119.866 317.158, 112.891 312.873, 106.263 307.768, 99.510 301.951, 93.999 299.570, 92.061 298.868, 91.544 295.432, 89.016 295.356, 88.960 293.323, 87.464 " />
            <path fill="none" stroke-width="3.0" stroke-linecap="butt" stroke-opacity="1.0" stroke="rgb(0, 0, 0)" stroke-linejoin="round" d=" M 283.911, 246.343 284.665, 248.452 284.622, 249.015 284.531, 250.205 " />
            <path fill="none" stroke-width="3.0" stroke-linecap="butt" stroke-opacity="1.0" stroke="rgb(0, 0, 0)" stroke-linejoin="round" d=" M 284.531, 250.205 287.619, 253.407 291.596, 255.809 295.837, 257.586 " />
            <path fill="none" stroke-width="3.0" stroke-linecap="butt" stroke-opacity="1.0" stroke="rgb(0, 0, 0)" stroke-linejoin="round" d=" M 178.191, 273.467 178.348, 276.103 176.869, 281.820 174.924, 288.331 173.825, 295.560 171.951, 302.951 171.358, 305.734 170.369, 310.376 169.305, 317.385 168.042, 323.507 167.193, 327.496 165.706, 331.745 163.769, 334.611 161.889, 337.236 160.130, 339.706 158.221, 342.142 156.587, 344.538 155.229, 346.646 154.523, 347.992 154.277, 348.684 153.674, 349.675 153.161, 350.676 152.659, 351.617 152.192, 352.638 151.840, 353.464 151.607, 354.232 151.520, 354.734 151.696, 354.941 151.905, 354.857 152.303, 354.236 152.820, 353.440 153.329, 352.684 154.128, 351.798 154.824, 351.065 155.360, 350.624 155.778, 350.280 " />
            <path fill="none" stroke-width="3.0" stroke-linecap="butt" stroke-opacity="1.0" stroke="rgb(0, 0, 0)" stroke-linejoin="round" d=" M 151.774, 354.794 151.781, 354.268 152.170, 353.511 152.598, 352.714 153.127, 351.710 153.798, 350.825 154.479, 349.864 155.353, 349.030 155.819, 348.413 " />
            <path fill="none" stroke-width="3.0" stroke-linecap="butt" stroke-opacity="1.0" stroke="rgb(0, 0, 0)" stroke-linejoin="round" d=" M 151.696, 354.941 151.774, 354.794 151.905, 354.857 " />
            <path fill="none" stroke-width="3.0" stroke-linecap="butt" stroke-opacity="1.0" stroke="rgb(0, 0, 0)" stroke-linejoin="round" d=" M 153.338, 358.406 153.409, 358.268 153.455, 357.641 154.072, 356.505 154.597, 355.532 155.140, 354.526 155.846, 353.530 156.567, 352.534 156.747, 351.304 157.106, 350.513 157.135, 350.448 157.304, 350.143 158.057, 348.782 159.616, 346.490 " />
            <path fill="none" stroke-width="3.0" stroke-linecap="butt" stroke-opacity="1.0" stroke="rgb(0, 0, 0)" stroke-linejoin="round" d=" M 157.220, 348.959 157.054, 349.410 156.642, 350.525 156.561, 350.746 156.410, 351.441 155.847, 352.219 155.294, 353.270 154.725, 354.325 154.230, 355.343 153.769, 356.337 153.297, 357.551 153.160, 358.144 153.338, 358.406 153.600, 358.256 154.196, 357.216 154.807, 356.245 155.469, 355.258 156.208, 354.527 156.654, 354.167 156.695, 354.134 157.025, 353.867 " />
            <path fill="none" stroke-width="3.0" stroke-linecap="butt" stroke-opacity="1.0" stroke="rgb(0, 0, 0)" stroke-linejoin="round" d=" M 158.364, 345.892 157.158, 348.262 157.054, 349.410 " />
            <path fill="none" stroke-width="3.0" stroke-linecap="butt" stroke-opacity="1.0" stroke="rgb(0, 0, 0)" stroke-linejoin="round" d=" M 156.537, 360.967 156.610, 360.790 156.622, 360.117 157.220, 359.044 157.861, 357.922 158.416, 356.930 159.144, 356.068 160.056, 355.012 " />
            <path fill="none" stroke-width="3.0" stroke-linecap="butt" stroke-opacity="1.0" stroke="rgb(0, 0, 0)" stroke-linejoin="round" d=" M 161.380, 347.831 160.438, 351.303 159.958, 352.974 159.798, 353.633 159.702, 353.775 159.220, 354.496 158.515, 355.649 157.952, 356.606 157.446, 357.635 156.911, 358.819 156.470, 360.011 156.355, 360.641 156.537, 360.967 156.793, 360.845 157.400, 359.947 158.176, 358.799 158.886, 357.798 159.665, 357.052 160.731, 356.254 160.738, 356.249 " />
            <path fill="none" stroke-width="3.0" stroke-linecap="butt" stroke-opacity="1.0" stroke="rgb(0, 0, 0)" stroke-linejoin="round" d=" M 159.220, 354.496 160.145, 353.682 160.246, 353.593 160.516, 353.047 160.797, 352.602 161.694, 351.179 163.416, 348.482 " />
            <path fill="none" stroke-width="3.0" stroke-linecap="butt" stroke-opacity="1.0" stroke="rgb(0, 0, 0)" stroke-linejoin="round" d=" M 165.547, 353.314 165.914, 350.799 163.107, 352.321 " />
            <path fill="none" stroke-width="3.0" stroke-linecap="butt" stroke-opacity="1.0" stroke="rgb(0, 0, 0)" stroke-linejoin="round" d=" M 161.694, 361.343 161.826, 361.102 162.137, 359.847 162.610, 359.171 163.119, 358.468 163.737, 357.655 164.513, 356.789 165.269, 355.969 " />
            <path fill="none" stroke-width="3.0" stroke-linecap="butt" stroke-opacity="1.0" stroke="rgb(0, 0, 0)" stroke-linejoin="round" d=" M 165.922, 352.597 165.638, 353.521 165.618, 353.586 165.512, 353.931 165.307, 354.587 164.537, 355.565 164.337, 355.855 163.922, 356.457 163.253, 357.399 162.708, 358.259 162.276, 359.007 161.915, 359.736 161.529, 360.949 161.694, 361.343 162.719, 360.224 163.108, 359.816 163.994, 358.894 164.771, 358.219 165.260, 357.888 165.261, 357.887 165.739, 357.564 " />
            <path fill="none" stroke-width="3.0" stroke-linecap="butt" stroke-opacity="1.0" stroke="rgb(0, 0, 0)" stroke-linejoin="round" d=" M 168.687, 350.570 167.086, 352.471 166.072, 353.994 165.943, 354.210 165.784, 354.476 " />
            <path fill="none" stroke-width="3.0" stroke-linecap="butt" stroke-opacity="1.0" stroke="rgb(0, 0, 0)" stroke-linejoin="round" d=" M 167.495, 357.370 168.277, 357.657 169.586, 357.520 170.487, 357.102 " />
            <path fill="none" stroke-width="3.0" stroke-linecap="butt" stroke-opacity="1.0" stroke="rgb(0, 0, 0)" stroke-linejoin="round" d=" M 168.359, 360.641 168.700, 359.721 169.349, 359.101 170.000, 358.436 170.600, 357.946 171.332, 357.337 172.255, 356.598 172.295, 356.451 172.340, 356.286 172.628, 355.228 " />
            <path fill="none" stroke-width="3.0" stroke-linecap="butt" stroke-opacity="1.0" stroke="rgb(0, 0, 0)" stroke-linejoin="round" d=" M 172.269, 355.213 172.076, 355.388 171.947, 355.504 171.710, 355.719 171.377, 356.020 170.661, 356.901 170.487, 357.102 170.054, 357.600 169.556, 358.154 168.970, 358.845 168.457, 359.544 168.031, 360.400 168.207, 360.810 168.539, 360.535 " />
            <path fill="none" stroke-width="3.0" stroke-linecap="butt" stroke-opacity="1.0" stroke="rgb(0, 0, 0)" stroke-linejoin="round" d=" M 168.207, 360.810 168.359, 360.641 168.539, 360.535 169.140, 360.182 169.912, 359.580 170.574, 359.111 171.424, 358.566 172.320, 358.075 172.513, 357.969 " />
            <path fill="none" stroke-width="3.0" stroke-linecap="butt" stroke-opacity="1.0" stroke="rgb(0, 0, 0)" stroke-linejoin="round" d=" M 171.985, 355.078 172.325, 353.916 " />
            <path fill="none" stroke-width="3.0" stroke-linecap="butt" stroke-opacity="1.0" stroke="rgb(0, 0, 0)" stroke-linejoin="round" d=" M 171.377, 356.020 171.932, 355.668 172.103, 355.560 172.123, 355.548 172.628, 355.228 173.479, 354.379 171.585, 350.960 171.118, 354.224 171.710, 355.719 " />
            <path fill="none" stroke-width="3.0" stroke-linecap="butt" stroke-opacity="1.0" stroke="rgb(0, 0, 0)" stroke-linejoin="round" d=" M 161.943, 355.791 162.387, 355.935 163.145, 356.102 164.337, 355.855 " />
            <path fill="none" stroke-width="3.0" stroke-linecap="butt" stroke-opacity="1.0" stroke="rgb(0, 0, 0)" stroke-linejoin="round" d=" M 165.547, 353.314 165.618, 353.586 " />
            <path fill="none" stroke-width="3.0" stroke-linecap="butt" stroke-opacity="1.0" stroke="rgb(0, 0, 0)" stroke-linejoin="round" d=" M 284.622, 249.015 283.702, 250.460 280.851, 253.683 277.905, 256.439 275.218, 259.024 272.020, 262.515 271.014, 264.252 270.727, 264.928 270.074, 266.059 269.509, 267.020 268.517, 268.602 267.844, 269.797 267.387, 270.766 266.945, 271.866 266.603, 273.180 266.538, 273.872 266.681, 274.052 266.876, 273.993 266.966, 273.804 267.280, 273.012 267.682, 272.042 268.124, 271.213 268.612, 270.435 269.321, 269.480 270.495, 268.346 271.266, 267.745 271.270, 267.742 " />
            <path fill="none" stroke-width="3.0" stroke-linecap="butt" stroke-opacity="1.0" stroke="rgb(0, 0, 0)" stroke-linejoin="round" d=" M 273.951, 263.063 273.156, 265.039 272.796, 265.747 272.666, 266.003 272.569, 266.194 272.391, 267.057 272.375, 267.116 272.368, 267.140 272.362, 267.163 272.318, 267.325 272.267, 267.513 271.721, 268.678 271.001, 270.468 270.421, 271.916 269.955, 273.252 269.470, 274.863 269.276, 275.861 269.342, 276.035 269.540, 275.958 269.770, 275.862 270.267, 274.798 270.840, 273.595 271.362, 272.600 272.049, 271.571 272.807, 270.663 272.905, 270.545 273.039, 270.386 " />
            <path fill="none" stroke-width="3.0" stroke-linecap="butt" stroke-opacity="1.0" stroke="rgb(0, 0, 0)" stroke-linejoin="round" d=" M 275.470, 267.760 275.198, 269.089 275.135, 269.334 275.069, 269.595 275.051, 269.666 274.779, 270.346 274.598, 270.799 273.984, 272.167 273.418, 273.235 272.911, 274.222 272.305, 275.463 271.940, 276.331 271.670, 277.062 271.540, 277.715 271.688, 277.848 271.863, 277.683 272.180, 277.161 272.537, 276.569 272.968, 275.889 273.694, 274.894 274.284, 274.128 274.920, 273.415 275.602, 272.783 275.790, 272.608 " />
            <path fill="none" stroke-width="3.0" stroke-linecap="butt" stroke-opacity="1.0" stroke="rgb(0, 0, 0)" stroke-linejoin="round" d=" M 280.357, 268.967 280.061, 270.707 279.755, 271.245 279.726, 271.296 279.662, 271.408 278.763, 272.851 278.681, 272.984 278.105, 273.934 277.312, 275.263 276.788, 276.216 276.377, 277.026 276.016, 277.848 275.761, 278.503 275.606, 279.199 275.747, 279.295 275.969, 279.291 276.287, 278.793 276.599, 278.275 276.996, 277.616 277.446, 276.969 278.014, 276.212 278.941, 275.316 279.428, 274.925 279.467, 274.894 279.673, 274.729 " />
            <path fill="none" stroke-width="3.0" stroke-linecap="butt" stroke-opacity="1.0" stroke="rgb(0, 0, 0)" stroke-linejoin="round" d=" M 286.861, 270.150 286.392, 271.053 286.195, 271.414 286.077, 271.536 285.262, 272.376 284.118, 273.610 284.082, 273.648 283.167, 274.554 282.151, 275.666 281.266, 276.730 280.737, 277.550 280.184, 278.613 279.955, 279.728 280.113, 279.865 280.481, 279.764 280.989, 279.054 281.618, 278.292 282.153, 277.693 283.061, 276.884 284.077, 276.024 284.998, 275.416 285.953, 274.883 286.309, 274.684 " />
            <path fill="none" stroke-width="3.0" stroke-linecap="butt" stroke-opacity="1.0" stroke="rgb(0, 0, 0)" stroke-linejoin="round" d=" M 287.112, 270.891 286.861, 270.150 286.814, 266.934 286.077, 271.536 " />
            <path fill="none" stroke-width="3.0" stroke-linecap="butt" stroke-opacity="1.0" stroke="rgb(0, 0, 0)" stroke-linejoin="round" d=" M 272.603, 264.591 272.184, 265.264 271.125, 266.324 270.345, 267.251 269.141, 268.770 268.448, 269.986 267.917, 270.923 267.463, 272.022 266.990, 273.304 266.876, 273.993 " />
            <path fill="none" stroke-width="3.0" stroke-linecap="butt" stroke-opacity="1.0" stroke="rgb(0, 0, 0)" stroke-linejoin="round" d=" M 271.813, 263.956 271.352, 264.808 " />
            <path fill="none" stroke-width="3.0" stroke-linecap="butt" stroke-opacity="1.0" stroke="rgb(0, 0, 0)" stroke-linejoin="round" d=" M 273.834, 267.562 274.817, 267.160 274.982, 269.084 " />
            <path fill="none" stroke-width="3.0" stroke-linecap="butt" stroke-opacity="1.0" stroke="rgb(0, 0, 0)" stroke-linejoin="round" d=" M 274.982, 269.084 275.068, 269.512 275.069, 269.595 " />
            <path fill="none" stroke-width="3.0" stroke-linecap="butt" stroke-opacity="1.0" stroke="rgb(0, 0, 0)" stroke-linejoin="round" d=" M 276.451, 272.474 277.180, 272.755 278.036, 272.946 278.763, 272.851 " />
            <path fill="none" stroke-width="3.0" stroke-linecap="butt" stroke-opacity="1.0" stroke="rgb(0, 0, 0)" stroke-linejoin="round" d=" M 279.473, 270.739 279.726, 271.296 " />
            <path fill="none" stroke-width="3.0" stroke-linecap="butt" stroke-opacity="1.0" stroke="rgb(0, 0, 0)" stroke-linejoin="round" d=" M 288.336, 270.609 287.112, 270.891 286.550, 271.261 286.453, 271.346 285.262, 272.376 " />
            <path fill="none" stroke-width="3.0" stroke-linecap="butt" stroke-opacity="1.0" stroke="rgb(0, 0, 0)" stroke-linejoin="round" d=" M 271.688, 277.848 271.901, 277.253 272.255, 276.562 272.675, 275.710 273.373, 274.515 273.945, 273.557 274.650, 272.531 275.554, 271.272 276.378, 270.369 276.851, 269.934 " />
            <path fill="none" stroke-width="3.0" stroke-linecap="butt" stroke-opacity="1.0" stroke="rgb(0, 0, 0)" stroke-linejoin="round" d=" M 279.322, 273.444 278.619, 274.322 277.667, 275.542 277.123, 276.471 276.653, 277.241 276.276, 278.038 275.971, 278.651 275.747, 279.295 " />
            <path fill="none" stroke-width="3.0" stroke-linecap="butt" stroke-opacity="1.0" stroke="rgb(0, 0, 0)" stroke-linejoin="round" d=" M 285.929, 272.798 285.167, 273.473 284.585, 273.988 283.610, 274.871 282.585, 275.974 281.627, 276.988 281.100, 277.820 280.444, 278.825 280.113, 279.865 " />
            <path fill="none" stroke-width="3.0" stroke-linecap="butt" stroke-opacity="1.0" stroke="rgb(0, 0, 0)" stroke-linejoin="round" d=" M 85.112, 230.517 84.422, 228.719 83.415, 226.990 82.250, 225.378 " />
            <path fill="none" stroke-width="3.0" stroke-linecap="butt" stroke-opacity="1.0" stroke="rgb(0, 0, 0)" stroke-linejoin="round" d=" M 104.455, 212.862 104.630, 212.995 " />
            <path fill="none" stroke-width="3.0" stroke-linecap="butt" stroke-opacity="1.0" stroke="rgb(0, 0, 0)" stroke-linejoin="round" d=" M 139.098, 180.739 136.903, 180.953 136.348, 181.098 " />
            <path fill="none" stroke-width="3.0" stroke-linecap="butt" stroke-opacity="1.0" stroke="rgb(0, 0, 0)" stroke-linejoin="round" d=" M 155.360, 350.624 155.724, 350.585 156.642, 350.525 " />
            <path fill="none" stroke-width="3.0" stroke-linecap="butt" stroke-opacity="1.0" stroke="rgb(0, 0, 0)" stroke-linejoin="round" d=" M 157.881, 353.739 158.953, 353.933 159.702, 353.775 " />
            <path fill="none" stroke-width="3.0" stroke-linecap="butt" stroke-opacity="1.0" stroke="rgb(0, 0, 0)" stroke-linejoin="round" d=" M 175.673, 239.918 170.290, 248.345 169.841, 249.047 172.405, 244.651 " />
            <path fill="none" stroke-width="3.0" stroke-linecap="butt" stroke-opacity="1.0" stroke="rgb(0, 0, 0)" stroke-linejoin="round" d=" M 275.644, 269.827 276.029, 269.082 276.789, 267.921 " />
            <path fill="none" stroke-width="3.0" stroke-linecap="butt" stroke-opacity="1.0" stroke="rgb(0, 0, 0)" stroke-linejoin="round" d=" M 280.090, 271.559 280.775, 270.771 281.983, 269.369 " />
            <path fill="none" stroke-width="3.0" stroke-linecap="butt" stroke-opacity="1.0" stroke="rgb(0, 0, 0)" stroke-linejoin="round" d=" M 272.700, 267.445 272.750, 267.358 273.017, 266.895 273.386, 266.386 273.572, 266.128 " />
            <path fill="none" stroke-width="3.0" stroke-linecap="butt" stroke-opacity="1.0" stroke="rgb(0, 0, 0)" stroke-linejoin="round" d=" M 269.747, 274.958 270.352, 273.381 270.845, 272.051 271.575, 270.650 272.514, 268.913 " />
            <path fill="none" stroke-width="3.0" stroke-linecap="butt" stroke-opacity="1.0" stroke="rgb(0, 0, 0)" stroke-linejoin="round" d=" M 279.473, 270.739 279.395, 268.004 280.357, 268.967 " />
            <path fill="none" stroke-width="3.0" stroke-linecap="butt" stroke-opacity="1.0" stroke="rgb(0, 0, 0)" stroke-linejoin="round" d=" M 273.951, 263.063 272.603, 264.591 272.796, 265.747 " />
            <path fill="none" stroke-width="3.0" stroke-linecap="butt" stroke-opacity="1.0" stroke="rgb(0, 0, 0)" stroke-linejoin="round" d=" M 171.985, 355.078 171.947, 355.504 " />
            <path fill="none" stroke-width="3.0" stroke-linecap="butt" stroke-opacity="1.0" stroke="rgb(0, 0, 0)" stroke-linejoin="round" d=" M 154.686, 348.603 155.061, 347.792 " />
            <path fill="none" stroke-width="3.0" stroke-linecap="butt" stroke-opacity="1.0" stroke="rgb(0, 0, 0)" stroke-linejoin="round" d=" M 97.591, 204.671 97.527, 205.127 97.714, 205.714 97.955, 206.216 " />
            <path fill="none" stroke-width="3.0" stroke-linecap="butt" stroke-opacity="1.0" stroke="rgb(0, 0, 0)" stroke-linejoin="round" d=" M 121.192, 161.498 121.441, 162.328 121.879, 163.789 122.849, 166.012 123.108, 168.438 120.841, 170.237 117.308, 173.109 112.722, 177.127 107.851, 182.200 102.334, 189.014 98.423, 193.729 96.441, 197.065 96.235, 199.249 96.157, 200.614 96.189, 201.062 96.258, 201.882 96.522, 202.886 97.277, 204.204 97.591, 204.671 98.058, 205.367 98.060, 205.372 98.068, 205.389 " />
            <path fill="none" stroke-width="3.0" stroke-linecap="butt" stroke-opacity="1.0" stroke="rgb(0, 0, 0)" stroke-linejoin="round" d=" M 98.194, 204.472 98.185, 204.533 98.185, 204.538 98.165, 204.682 98.087, 205.248 98.073, 205.351 98.068, 205.389 98.052, 205.506 97.955, 206.216 97.842, 207.039 95.865, 209.410 93.129, 211.627 89.987, 214.223 86.302, 217.244 82.546, 220.495 80.485, 222.272 80.061, 222.767 79.483, 222.946 78.594, 223.319 77.463, 223.965 76.399, 224.979 75.828, 226.208 75.880, 226.929 75.956, 227.498 76.203, 228.135 " />
            <path fill="none" stroke-width="3.0" stroke-linecap="butt" stroke-opacity="1.0" stroke="rgb(0, 0, 0)" stroke-linejoin="round" d=" M 97.527, 205.127 97.816, 205.746 " />
            <path fill="none" stroke-width="3.0" stroke-linecap="butt" stroke-opacity="1.0" stroke="rgb(0, 0, 0)" stroke-linejoin="round" d=" M 124.346, 167.919 123.506, 165.583 122.366, 163.285 121.671, 161.097 120.820, 159.192 " />
            <path fill="none" stroke-width="3.0" stroke-linecap="butt" stroke-opacity="1.0" stroke="rgb(0, 0, 0)" stroke-linejoin="round" d=" M 124.893, 155.839 123.578, 155.241 122.373, 155.293 120.826, 155.647 120.339, 156.840 120.013, 158.146 120.172, 158.896 120.324, 159.618 " />
            <path fill="none" stroke-width="3.0" stroke-linecap="butt" stroke-opacity="1.0" stroke="rgb(0, 0, 0)" stroke-linejoin="round" d=" M 143.603, 161.895 140.767, 162.780 140.111, 162.985 139.480, 163.181 138.166, 163.592 137.951, 163.556 134.767, 163.032 134.015, 162.908 131.701, 161.219 129.972, 159.614 128.182, 158.156 126.898, 157.185 126.421, 156.836 126.305, 156.760 124.893, 155.839 125.737, 156.354 126.305, 156.760 " />
            <path fill="none" stroke-width="3.0" stroke-linecap="butt" stroke-opacity="1.0" stroke="rgb(0, 0, 0)" stroke-linejoin="round" d=" M 263.135, 76.850 256.194, 76.505 249.416, 76.482 " />
            <path fill="none" stroke-width="3.0" stroke-linecap="butt" stroke-opacity="1.0" stroke="rgb(0, 0, 0)" stroke-linejoin="round" d=" M 298.868, 91.544 296.482, 89.645 293.323, 87.464 286.871, 83.887 280.586, 81.485 275.799, 79.457 269.343, 77.923 263.135, 76.850 256.913, 76.643 249.416, 76.482 242.831, 77.370 236.665, 78.945 230.670, 81.147 224.273, 84.365 217.883, 88.627 209.682, 94.349 204.556, 97.924 198.218, 102.496 192.583, 107.839 187.967, 112.594 183.054, 118.049 178.255, 123.531 177.036, 124.697 " />
            <path fill="none" stroke-width="3.0" stroke-linecap="butt" stroke-opacity="1.0" stroke="rgb(0, 0, 0)" stroke-linejoin="round" d=" M 142.842, 247.718 145.460, 253.093 148.406, 259.388 150.945, 265.434 152.601, 271.162 154.551, 276.441 154.603, 276.582 " />
            <path fill="none" stroke-width="3.0" stroke-linecap="butt" stroke-opacity="1.0" stroke="rgb(0, 0, 0)" stroke-linejoin="round" d=" M 178.188, 123.773 177.036, 124.697 173.481, 127.548 169.520, 130.353 164.198, 133.051 158.258, 135.974 152.866, 139.405 147.132, 144.617 141.350, 150.578 136.722, 158.292 134.767, 163.032 " />
            <path fill="none" stroke-width="3.0" stroke-linecap="butt" stroke-opacity="1.0" stroke="rgb(0, 0, 0)" stroke-linejoin="round" d=" M 154.551, 276.441 154.969, 279.869 155.061, 284.256 153.105, 287.530 151.016, 290.295 148.964, 292.828 147.044, 295.152 144.962, 298.292 144.810, 298.957 " />
            <path fill="none" stroke-width="3.0" stroke-linecap="butt" stroke-opacity="1.0" stroke="rgb(0, 0, 0)" stroke-linejoin="round" d=" M 156.129, 313.651 155.991, 313.586 156.019, 313.168 156.509, 312.518 157.041, 311.776 157.576, 311.026 158.491, 310.093 159.029, 309.543 159.571, 308.988 " />
            <path fill="none" stroke-width="3.0" stroke-linecap="butt" stroke-opacity="1.0" stroke="rgb(0, 0, 0)" stroke-linejoin="round" d=" M 160.016, 307.001 159.900, 307.376 159.842, 307.564 158.839, 308.588 158.045, 309.647 157.949, 309.776 157.206, 310.779 156.715, 311.551 156.244, 312.326 155.859, 313.062 155.762, 313.437 155.914, 313.639 156.129, 313.651 156.625, 313.176 157.243, 312.463 157.885, 311.757 158.855, 311.027 160.073, 310.263 160.091, 310.251 " />
            <path fill="none" stroke-width="3.0" stroke-linecap="butt" stroke-opacity="1.0" stroke="rgb(0, 0, 0)" stroke-linejoin="round" d=" M 150.048, 314.081 150.104, 313.942 150.187, 313.365 150.894, 312.257 151.587, 311.332 152.336, 310.317 153.489, 309.140 154.278, 308.344 " />
            <path fill="none" stroke-width="3.0" stroke-linecap="butt" stroke-opacity="1.0" stroke="rgb(0, 0, 0)" stroke-linejoin="round" d=" M 154.898, 304.611 154.545, 305.755 154.499, 305.906 154.403, 306.216 154.253, 306.913 153.760, 307.517 153.474, 307.868 152.855, 308.784 151.887, 310.093 151.194, 311.153 150.593, 312.141 150.012, 313.297 149.863, 313.857 150.048, 314.081 150.302, 313.914 150.972, 312.928 151.738, 312.005 152.575, 311.087 152.604, 311.055 152.630, 311.026 " />
            <path fill="none" stroke-width="3.0" stroke-linecap="butt" stroke-opacity="1.0" stroke="rgb(0, 0, 0)" stroke-linejoin="round" d=" M 159.828, 306.098 160.911, 303.400 " />
            <path fill="none" stroke-width="3.0" stroke-linecap="butt" stroke-opacity="1.0" stroke="rgb(0, 0, 0)" stroke-linejoin="round" d=" M 145.517, 312.792 145.518, 312.592 145.480, 311.914 146.095, 310.783 146.671, 309.863 147.468, 308.584 148.318, 307.620 149.355, 306.442 " />
            <path fill="none" stroke-width="3.0" stroke-linecap="butt" stroke-opacity="1.0" stroke="rgb(0, 0, 0)" stroke-linejoin="round" d=" M 150.980, 299.203 150.685, 300.670 150.281, 302.683 149.547, 304.434 149.441, 304.665 149.230, 305.125 148.530, 306.170 147.701, 307.445 147.006, 308.457 146.277, 309.746 145.785, 310.687 145.324, 311.848 145.300, 312.490 145.517, 312.792 145.725, 312.639 146.298, 311.656 146.992, 310.712 147.388, 310.214 148.012, 309.428 " />
            <path fill="none" stroke-width="3.0" stroke-linecap="butt" stroke-opacity="1.0" stroke="rgb(0, 0, 0)" stroke-linejoin="round" d=" M 152.901, 299.975 151.121, 302.791 151.091, 302.838 150.040, 304.371 149.825, 304.656 149.436, 305.170 " />
            <path fill="none" stroke-width="3.0" stroke-linecap="butt" stroke-opacity="1.0" stroke="rgb(0, 0, 0)" stroke-linejoin="round" d=" M 142.947, 309.044 143.180, 307.704 143.786, 306.788 144.406, 305.829 144.775, 305.355 145.336, 304.629 146.308, 303.374 146.411, 301.883 " />
            <path fill="none" stroke-width="3.0" stroke-linecap="butt" stroke-opacity="1.0" stroke="rgb(0, 0, 0)" stroke-linejoin="round" d=" M 148.837, 295.226 147.881, 297.893 147.072, 299.463 146.861, 299.872 146.314, 301.312 146.285, 301.428 146.211, 301.725 146.159, 301.933 145.479, 303.099 144.750, 304.435 144.285, 305.177 143.977, 305.656 143.431, 306.639 142.967, 307.606 142.670, 308.921 142.895, 309.320 143.339, 309.019 144.731, 307.239 145.137, 306.812 145.833, 306.127 146.678, 305.393 148.267, 304.616 148.614, 304.446 " />
            <path fill="none" stroke-width="3.0" stroke-linecap="butt" stroke-opacity="1.0" stroke="rgb(0, 0, 0)" stroke-linejoin="round" d=" M 142.895, 309.320 142.947, 309.044 142.962, 309.030 143.837, 308.195 144.687, 307.261 " />
            <path fill="none" stroke-width="3.0" stroke-linecap="butt" stroke-opacity="1.0" stroke="rgb(0, 0, 0)" stroke-linejoin="round" d=" M 142.959, 304.873 142.908, 303.834 143.188, 303.230 143.618, 302.305 143.915, 301.796 144.376, 301.007 144.911, 300.084 144.968, 298.738 144.970, 298.691 145.390, 297.765 " />
            <path fill="none" stroke-width="3.0" stroke-linecap="butt" stroke-opacity="1.0" stroke="rgb(0, 0, 0)" stroke-linejoin="round" d=" M 144.970, 298.691 144.810, 298.957 144.222, 299.932 143.868, 300.878 143.478, 301.682 143.229, 302.205 142.862, 303.163 142.696, 303.791 142.663, 304.814 142.936, 305.127 143.279, 304.844 144.092, 303.434 " />
            <path fill="none" stroke-width="3.0" stroke-linecap="butt" stroke-opacity="1.0" stroke="rgb(0, 0, 0)" stroke-linejoin="round" d=" M 142.936, 305.127 142.959, 304.873 143.454, 304.328 144.092, 303.434 144.491, 302.967 144.983, 302.455 145.652, 301.965 146.211, 301.725 " />
            <path fill="none" stroke-width="3.0" stroke-linecap="butt" stroke-opacity="1.0" stroke="rgb(0, 0, 0)" stroke-linejoin="round" d=" M 148.837, 295.226 146.480, 298.151 " />
            <path fill="none" stroke-width="3.0" stroke-linecap="butt" stroke-opacity="1.0" stroke="rgb(0, 0, 0)" stroke-linejoin="round" d=" M 145.390, 297.765 145.677, 299.032 146.480, 298.151 147.072, 299.463 " />
            <path fill="none" stroke-width="3.0" stroke-linecap="butt" stroke-opacity="1.0" stroke="rgb(0, 0, 0)" stroke-linejoin="round" d=" M 160.073, 310.263 161.279, 309.890 162.304, 310.013 163.433, 310.067 164.331, 309.925 166.450, 309.079 170.658, 306.306 171.358, 305.734 " />
            <path fill="none" stroke-width="3.0" stroke-linecap="butt" stroke-opacity="1.0" stroke="rgb(0, 0, 0)" stroke-linejoin="round" d=" M 154.478, 305.666 154.499, 305.906 " />
            <path fill="none" stroke-width="3.0" stroke-linecap="butt" stroke-opacity="1.0" stroke="rgb(0, 0, 0)" stroke-linejoin="round" d=" M 151.893, 307.306 152.331, 307.460 153.004, 307.669 153.760, 307.517 " />
            <path fill="none" stroke-width="3.0" stroke-linecap="butt" stroke-opacity="1.0" stroke="rgb(0, 0, 0)" stroke-linejoin="round" d=" M 145.369, 298.546 145.390, 297.765 147.529, 295.018 " />
            <path fill="none" stroke-width="3.0" stroke-linecap="butt" stroke-opacity="1.0" stroke="rgb(0, 0, 0)" stroke-linejoin="round" d=" M 160.091, 310.251 161.899, 309.675 " />
            <path fill="none" stroke-width="3.0" stroke-linecap="butt" stroke-opacity="1.0" stroke="rgb(0, 0, 0)" stroke-linejoin="round" d=" M 156.082, 304.270 155.019, 306.007 154.908, 306.235 154.607, 306.857 153.899, 307.489 153.474, 307.868 " />
            <path fill="none" stroke-width="3.0" stroke-linecap="butt" stroke-opacity="1.0" stroke="rgb(0, 0, 0)" stroke-linejoin="round" d=" M 147.658, 299.820 146.809, 301.130 146.578, 301.566 146.411, 301.883 145.479, 303.099 " />
            <path fill="none" stroke-width="3.0" stroke-linecap="butt" stroke-opacity="1.0" stroke="rgb(0, 0, 0)" stroke-linejoin="round" d=" M 145.967, 301.525 146.285, 301.428 " />
            <path fill="none" stroke-width="3.0" stroke-linecap="butt" stroke-opacity="1.0" stroke="rgb(0, 0, 0)" stroke-linejoin="round" d=" M 259.700, 229.616 259.620, 229.707 258.682, 230.787 257.376, 232.197 257.141, 232.404 256.520, 232.950 255.552, 233.999 254.652, 235.001 254.151, 235.966 253.685, 236.901 253.745, 237.587 253.785, 237.757 253.943, 237.727 254.166, 237.641 254.198, 237.621 254.683, 236.887 254.734, 236.829 " />
            <path fill="none" stroke-width="3.0" stroke-linecap="butt" stroke-opacity="1.0" stroke="rgb(0, 0, 0)" stroke-linejoin="round" d=" M 262.351, 232.855 263.777, 233.066 265.349, 233.133 266.598, 232.953 268.673, 231.780 269.912, 230.194 272.073, 227.379 272.599, 226.643 " />
            <path fill="none" stroke-width="3.0" stroke-linecap="butt" stroke-opacity="1.0" stroke="rgb(0, 0, 0)" stroke-linejoin="round" d=" M 252.133, 233.860 251.743, 234.220 251.420, 234.516 250.442, 235.488 249.755, 236.365 249.418, 236.435 249.195, 236.471 " />
            <path fill="none" stroke-width="3.0" stroke-linecap="butt" stroke-opacity="1.0" stroke="rgb(0, 0, 0)" stroke-linejoin="round" d=" M 254.194, 229.153 254.210, 229.236 254.167, 229.464 254.126, 229.676 253.236, 230.623 252.565, 231.432 252.195, 231.878 251.079, 233.075 250.395, 234.029 249.475, 235.431 249.199, 236.311 249.195, 236.471 249.631, 236.406 249.755, 236.365 " />
            <path fill="none" stroke-width="3.0" stroke-linecap="butt" stroke-opacity="1.0" stroke="rgb(0, 0, 0)" stroke-linejoin="round" d=" M 247.262, 232.840 247.181, 232.973 246.573, 234.190 246.120, 235.818 246.208, 236.525 246.410, 236.579 246.703, 236.449 246.945, 235.871 247.657, 234.543 248.408, 233.622 248.991, 233.005 249.778, 232.303 250.446, 231.822 251.714, 231.307 252.128, 231.139 " />
            <path fill="none" stroke-width="3.0" stroke-linecap="butt" stroke-opacity="1.0" stroke="rgb(0, 0, 0)" stroke-linejoin="round" d=" M 259.878, 227.043 259.923, 229.149 259.620, 229.707 " />
            <path fill="none" stroke-width="3.0" stroke-linecap="butt" stroke-opacity="1.0" stroke="rgb(0, 0, 0)" stroke-linejoin="round" d=" M 260.604, 233.060 261.502, 232.955 262.351, 232.855 262.721, 232.812 " />
            <path fill="none" stroke-width="3.0" stroke-linecap="butt" stroke-opacity="1.0" stroke="rgb(0, 0, 0)" stroke-linejoin="round" d=" M 255.389, 236.135 255.850, 235.749 256.794, 235.011 257.832, 234.378 258.687, 233.902 260.112, 233.265 261.502, 232.955 " />
            <path fill="none" stroke-width="3.0" stroke-linecap="butt" stroke-opacity="1.0" stroke="rgb(0, 0, 0)" stroke-linejoin="round" d=" M 251.743, 234.220 252.104, 233.942 253.242, 233.252 254.380, 232.733 256.300, 232.264 256.576, 232.197 " />
            <path fill="none" stroke-width="3.0" stroke-linecap="butt" stroke-opacity="1.0" stroke="rgb(0, 0, 0)" stroke-linejoin="round" d=" M 259.692, 231.445 258.104, 232.553 258.027, 232.607 257.040, 233.297 256.004, 234.288 254.997, 235.243 254.449, 236.189 253.934, 237.081 253.943, 237.727 " />
            <path fill="none" stroke-width="3.0" stroke-linecap="butt" stroke-opacity="1.0" stroke="rgb(0, 0, 0)" stroke-linejoin="round" d=" M 246.410, 236.579 246.446, 235.909 247.001, 234.318 247.754, 233.170 248.276, 232.362 " />
            <path fill="none" stroke-width="3.0" stroke-linecap="butt" stroke-opacity="1.0" stroke="rgb(0, 0, 0)" stroke-linejoin="round" d=" M 160.016, 307.001 159.828, 306.098 159.900, 307.376 " />
            <path fill="none" stroke-width="3.0" stroke-linecap="butt" stroke-opacity="1.0" stroke="rgb(0, 0, 0)" stroke-linejoin="round" d=" M 156.115, 309.507 156.384, 309.557 157.194, 309.738 158.045, 309.647 " />
            <path fill="none" stroke-width="3.0" stroke-linecap="butt" stroke-opacity="1.0" stroke="rgb(0, 0, 0)" stroke-linejoin="round" d=" M 148.267, 304.616 149.194, 304.671 149.441, 304.665 " />
            <path fill="none" stroke-width="3.0" stroke-linecap="butt" stroke-opacity="1.0" stroke="rgb(0, 0, 0)" stroke-linejoin="round" d=" M 152.575, 311.087 153.834, 310.195 154.330, 309.914 154.465, 309.837 154.712, 309.698 " />
            <path fill="none" stroke-width="3.0" stroke-linecap="butt" stroke-opacity="1.0" stroke="rgb(0, 0, 0)" stroke-linejoin="round" d=" M 147.388, 310.214 147.860, 309.645 148.990, 308.680 149.926, 308.085 150.091, 307.980 150.301, 307.846 " />
            <path fill="none" stroke-width="3.0" stroke-linecap="butt" stroke-opacity="1.0" stroke="rgb(0, 0, 0)" stroke-linejoin="round" d=" M 154.478, 305.666 154.984, 301.541 " />
            <path fill="none" stroke-width="3.0" stroke-linecap="butt" stroke-opacity="1.0" stroke="rgb(0, 0, 0)" stroke-linejoin="round" d=" M 249.694, 235.559 250.698, 234.214 251.396, 233.269 252.604, 232.135 253.246, 231.532 253.804, 231.007 " />
            <path fill="none" stroke-width="3.0" stroke-linecap="butt" stroke-opacity="1.0" stroke="rgb(0, 0, 0)" stroke-linejoin="round" d=" M 254.596, 236.971 254.734, 236.829 255.179, 236.369 255.389, 236.135 255.762, 235.720 " />
            <path fill="none" stroke-width="3.0" stroke-linecap="butt" stroke-opacity="1.0" stroke="rgb(0, 0, 0)" stroke-linejoin="round" d=" M 255.762, 235.720 256.786, 235.005 257.867, 234.241 258.865, 233.773 260.604, 233.060 " />
            <path fill="none" stroke-width="3.0" stroke-linecap="butt" stroke-opacity="1.0" stroke="rgb(0, 0, 0)" stroke-linejoin="round" d=" M 255.040, 228.670 254.695, 229.191 254.347, 229.638 254.292, 229.708 " />
            <path fill="none" stroke-width="3.0" stroke-linecap="butt" stroke-opacity="1.0" stroke="rgb(0, 0, 0)" stroke-linejoin="round" d=" M 160.572, 307.040 160.130, 307.567 160.073, 307.636 " />
            <path fill="none" stroke-width="3.0" stroke-linecap="butt" stroke-opacity="1.0" stroke="rgb(0, 0, 0)" stroke-linejoin="round" d=" M 142.601, 160.889 140.111, 162.985 " />
            <path fill="none" stroke-width="3.0" stroke-linecap="butt" stroke-opacity="1.0" stroke="rgb(0, 0, 0)" stroke-linejoin="round" d=" M 146.052, 189.779 148.953, 192.005 " />
            <path fill="none" stroke-width="3.0" stroke-linecap="butt" stroke-opacity="1.0" stroke="rgb(0, 0, 0)" stroke-linejoin="round" d=" M 120.172, 158.896 120.287, 160.072 121.186, 161.834 121.441, 162.328 " />
            <path fill="none" stroke-width="3.0" stroke-linecap="butt" stroke-opacity="1.0" stroke="rgb(0, 0, 0)" stroke-linejoin="round" d=" M 125.632, 243.742 126.154, 244.089 127.219, 244.732 125.632, 243.742 124.891, 243.280 " />
            <path fill="none" stroke-width="3.0" stroke-linecap="butt" stroke-opacity="1.0" stroke="rgb(0, 0, 0)" stroke-linejoin="round" d=" M 259.923, 229.149 260.087, 229.013 260.327, 228.814 259.878, 227.043 " />
            <path fill="none" stroke-width="3.0" stroke-linecap="butt" stroke-opacity="1.0" stroke="rgb(0, 0, 0)" stroke-linejoin="round" d=" M 144.491, 302.967 145.144, 302.265 " />
            <path fill="none" stroke-width="3.0" stroke-linecap="butt" stroke-opacity="1.0" stroke="rgb(0, 0, 0)" stroke-linejoin="round" d=" M 170.450, 252.420 170.604, 252.568 170.876, 252.828 170.955, 252.904 170.963, 252.911 171.021, 252.967 171.746, 253.661 " />
            <path fill="none" stroke-width="3.0" stroke-linecap="butt" stroke-opacity="1.0" stroke="rgb(0, 0, 0)" stroke-linejoin="round" d=" M 167.997, 251.826 170.876, 252.828 " />
            <path fill="none" stroke-width="3.0" stroke-linecap="butt" stroke-opacity="1.0" stroke="rgb(0, 0, 0)" stroke-linejoin="round" d=" M 171.294, 252.410 171.436, 252.804 171.462, 252.875 171.474, 252.908 171.475, 252.910 171.483, 252.934 171.527, 253.054 171.746, 253.661 172.120, 254.696 172.147, 254.769 " />
            <path fill="none" stroke-width="3.0" stroke-linecap="butt" stroke-opacity="1.0" stroke="rgb(0, 0, 0)" stroke-linejoin="round" d=" M 281.808, 204.715 279.873, 211.794 " />
            <path fill="none" stroke-width="3.0" stroke-linecap="butt" stroke-opacity="1.0" stroke="rgb(0, 0, 0)" stroke-linejoin="round" d=" M 104.907, 213.751 105.097, 214.170 105.329, 214.537 " />
            <path fill="none" stroke-width="3.0" stroke-linecap="butt" stroke-opacity="1.0" stroke="rgb(0, 0, 0)" stroke-linejoin="round" d=" M 78.499, 231.669 78.559, 231.788 " />
            <path fill="none" stroke-width="3.0" stroke-linecap="butt" stroke-opacity="1.0" stroke="rgb(0, 0, 0)" stroke-linejoin="round" d=" M 104.732, 236.102 104.781, 236.151 " />
            <path fill="none" stroke-width="3.0" stroke-linecap="butt" stroke-opacity="1.0" stroke="rgb(0, 0, 0)" stroke-linejoin="round" d=" M 117.144, 240.887 121.553, 241.892 123.308, 242.292 123.527, 242.342 123.570, 242.351 123.620, 242.363 124.190, 242.493 " />
            <path fill="none" stroke-width="3.0" stroke-linecap="butt" stroke-opacity="1.0" stroke="rgb(0, 0, 0)" stroke-linejoin="round" d=" M 121.553, 241.892 124.891, 243.280 125.014, 243.331 125.172, 243.396 128.071, 244.601 " />
            <path fill="none" stroke-width="3.0" stroke-linecap="butt" stroke-opacity="1.0" stroke="rgb(0, 0, 0)" stroke-linejoin="round" d=" M 139.480, 163.181 137.951, 163.556 " />
            <path fill="none" stroke-width="3.0" stroke-linecap="butt" stroke-opacity="1.0" stroke="rgb(0, 0, 0)" stroke-linejoin="round" d=" M 149.926, 308.085 151.893, 307.306 152.005, 307.262 " />
            <path fill="none" stroke-width="3.0" stroke-linecap="butt" stroke-opacity="1.0" stroke="rgb(0, 0, 0)" stroke-linejoin="round" d=" M 154.330, 309.914 156.115, 309.507 156.439, 309.433 " />
            <path fill="none" stroke-width="3.0" stroke-linecap="butt" stroke-opacity="1.0" stroke="rgb(0, 0, 0)" stroke-linejoin="round" d=" M 156.654, 354.167 157.881, 353.739 158.273, 353.602 " />
            <path fill="none" stroke-width="3.0" stroke-linecap="butt" stroke-opacity="1.0" stroke="rgb(0, 0, 0)" stroke-linejoin="round" d=" M 160.731, 356.254 161.943, 355.791 162.306, 355.652 " />
            <path fill="none" stroke-width="3.0" stroke-linecap="butt" stroke-opacity="1.0" stroke="rgb(0, 0, 0)" stroke-linejoin="round" d=" M 165.260, 357.888 167.495, 357.370 167.570, 357.353 " />
            <path fill="none" stroke-width="3.0" stroke-linecap="butt" stroke-opacity="1.0" stroke="rgb(0, 0, 0)" stroke-linejoin="round" d=" M 251.714, 231.307 252.565, 231.432 " />
            <path fill="none" stroke-width="3.0" stroke-linecap="butt" stroke-opacity="1.0" stroke="rgb(0, 0, 0)" stroke-linejoin="round" d=" M 254.167, 229.464 254.133, 229.188 " />
            <path fill="none" stroke-width="3.0" stroke-linecap="butt" stroke-opacity="1.0" stroke="rgb(0, 0, 0)" stroke-linejoin="round" d=" M 256.300, 232.264 257.141, 232.404 " />
            <path fill="none" stroke-width="3.0" stroke-linecap="butt" stroke-opacity="1.0" stroke="rgb(0, 0, 0)" stroke-linejoin="round" d=" M 271.266, 267.745 272.089, 267.308 272.362, 267.163 " />
            <path fill="none" stroke-width="3.0" stroke-linecap="butt" stroke-opacity="1.0" stroke="rgb(0, 0, 0)" stroke-linejoin="round" d=" M 272.089, 267.308 272.318, 267.325 " />
            <path fill="none" stroke-width="3.0" stroke-linecap="butt" stroke-opacity="1.0" stroke="rgb(0, 0, 0)" stroke-linejoin="round" d=" M 272.807, 270.663 274.010, 270.166 274.367, 270.018 " />
            <path fill="none" stroke-width="3.0" stroke-linecap="butt" stroke-opacity="1.0" stroke="rgb(0, 0, 0)" stroke-linejoin="round" d=" M 274.010, 270.166 274.779, 270.346 " />
            <path fill="none" stroke-width="3.0" stroke-linecap="butt" stroke-opacity="1.0" stroke="rgb(0, 0, 0)" stroke-linejoin="round" d=" M 275.602, 272.783 276.451, 272.474 276.832, 272.335 " />
            <path fill="none" stroke-width="3.0" stroke-linecap="butt" stroke-opacity="1.0" stroke="rgb(0, 0, 0)" stroke-linejoin="round" d=" M 280.522, 191.343 281.112, 190.173 " />
            <path fill="none" stroke-width="3.0" stroke-linecap="butt" stroke-opacity="1.0" stroke="rgb(0, 0, 0)" stroke-linejoin="round" d=" M 279.428, 274.925 282.016, 273.884 282.065, 273.864 " />
            <path fill="none" stroke-width="3.0" stroke-linecap="butt" stroke-opacity="1.0" stroke="rgb(0, 0, 0)" stroke-linejoin="round" d=" M 282.984, 184.026 283.204, 183.501 " />
            <path fill="none" stroke-width="3.0" stroke-linecap="butt" stroke-opacity="1.0" stroke="rgb(0, 0, 0)" stroke-linejoin="round" d=" M 282.016, 273.884 284.118, 273.610 " />
            <path fill="none" stroke-width="3.0" stroke-linecap="butt" stroke-opacity="1.0" stroke="rgb(0, 0, 0)" stroke-linejoin="round" d=" M 285.953, 274.883 287.827, 274.583 287.997, 274.556 " />
        </g>
    </g>
</svg>
