<?xml version='1.0' encoding='ascii'?>
<svg xmlns="http://www.w3.org/2000/svg" xmlns:inkscape="http://www.inkscape.org/namespaces/inkscape" version="1.1" width="400" height="400">
    <g id="ViewLayer_LineSet" inkscape:groupmode="lineset" inkscape:label="ViewLayer_LineSet">
        <g xmlns:inkscape="http://www.inkscape.org/namespaces/inkscape" inkscape:groupmode="layer" inkscape:label="fills" id="fills">
            <path fill_rule="evenodd" stroke="none" fill-opacity="1.0" fill="rgb(68, 34, 21)" d=" M 87.226, 97.375 86.754, 98.719 86.771, 99.746 86.932, 100.098 86.488, 101.218 85.685, 103.177 84.710, 106.723 83.712, 110.498 83.252, 114.088 82.773, 117.765 82.139, 121.904 81.161, 127.455 81.461, 132.581 82.796, 137.735 86.067, 142.552 86.959, 143.968 88.199, 149.680 90.788, 155.382 94.808, 163.697 95.592, 164.604 95.810, 167.666 95.926, 173.045 96.305, 178.546 97.505, 185.679 99.135, 192.621 101.202, 200.589 101.972, 203.200 102.982, 210.122 104.285, 217.615 106.332, 224.664 108.378, 231.877 108.931, 236.894 110.031, 243.483 109.810, 247.500 109.713, 249.465 108.472, 253.017 106.943, 257.227 105.336, 261.196 104.302, 264.151 104.248, 264.160 101.753, 264.257 98.849, 264.715 97.652, 264.622 95.893, 265.012 94.619, 265.418 94.463, 265.508 94.023, 265.689 93.913, 265.761 93.910, 265.771 93.564, 265.845 92.496, 265.966 91.417, 266.076 90.572, 266.325 89.756, 266.586 88.882, 267.029 88.766, 267.143 88.593, 267.644 88.738, 267.825 88.799, 267.860 89.978, 267.722 90.502, 267.675 90.186, 267.804 89.737, 267.862 88.567, 267.939 87.607, 268.023 86.810, 268.304 85.914, 268.667 85.135, 269.159 85.018, 269.286 84.922, 269.896 85.111, 270.165 86.178, 270.103 87.189, 270.008 88.121, 270.008 89.047, 270.214 89.805, 270.524 89.895, 270.589 88.859, 270.786 88.583, 270.944 87.981, 270.972 87.062, 270.984 86.082, 270.981 85.269, 271.062 84.594, 271.175 83.978, 271.344 83.811, 271.487 83.330, 272.287 83.494, 272.547 84.933, 272.841 86.417, 273.097 87.416, 273.444 88.069, 273.778 89.682, 275.476 89.804, 275.646 89.624, 275.858 89.118, 275.829 88.483, 275.639 87.661, 275.638 86.990, 275.604 86.449, 275.562 85.885, 275.594 85.350, 275.691 85.180, 275.910 84.969, 276.514 85.167, 276.709 85.911, 276.946 86.191, 277.043 86.877, 277.348 87.701, 277.763 88.652, 278.337 90.386, 280.273 92.166, 281.855 93.988, 282.997 94.641, 283.212 95.562, 283.739 98.898, 284.571 101.191, 284.887 102.273, 285.216 104.331, 285.287 107.122, 285.687 109.391, 286.106 111.856, 286.494 114.497, 286.640 117.104, 286.291 121.477, 285.271 124.191, 283.627 126.368, 281.237 128.624, 279.445 133.700, 277.887 138.431, 276.400 142.695, 273.803 146.367, 270.194 151.550, 264.967 155.290, 260.432 158.884, 255.859 161.899, 250.999 164.964, 245.897 166.027, 239.256 166.828, 233.502 166.802, 232.262 169.128, 236.217 171.620, 239.232 176.751, 245.236 183.258, 250.430 186.351, 252.293 186.680, 253.597 187.307, 257.775 187.297, 258.021 185.619, 258.101 183.666, 258.268 182.919, 258.411 180.440, 258.578 179.339, 258.770 178.781, 258.975 178.140, 259.288 176.889, 259.489 176.173, 259.553 175.708, 259.589 174.952, 259.825 174.227, 260.110 174.044, 260.226 173.615, 261.186 173.710, 261.363 173.515, 261.456 172.255, 261.534 171.242, 261.566 170.269, 261.879 169.567, 262.135 169.317, 262.265 168.692, 262.685 168.618, 263.342 168.822, 263.658 169.861, 263.542 170.611, 263.466 171.703, 263.508 172.724, 263.786 173.594, 264.222 173.736, 264.330 172.662, 264.526 172.159, 264.852 171.509, 264.840 170.647, 264.906 169.377, 264.932 168.559, 265.126 167.813, 265.340 167.048, 265.724 166.931, 265.826 166.755, 266.254 166.906, 266.448 166.940, 266.446 168.002, 266.379 168.764, 266.373 169.642, 266.490 170.652, 266.882 171.301, 267.261 172.182, 268.250 171.920, 268.319 171.388, 268.323 170.837, 268.252 169.809, 268.340 168.943, 268.420 168.438, 268.621 167.937, 268.838 167.473, 269.087 167.333, 269.204 167.268, 269.569 167.356, 269.764 168.030, 269.795 168.554, 269.798 169.083, 269.802 169.486, 269.925 170.342, 270.349 171.662, 271.567 172.605, 273.101 173.421, 274.220 175.389, 275.719 178.585, 277.274 180.732, 278.282 185.146, 279.806 189.623, 281.046 194.232, 282.195 196.108, 282.106 197.875, 282.015 199.547, 281.799 200.272, 281.781 203.288, 280.723 206.810, 278.891 208.423, 276.750 210.189, 274.474 212.113, 270.227 214.534, 265.946 215.194, 266.162 217.773, 266.916 217.821, 267.160 217.868, 268.588 219.219, 275.095 221.514, 283.715 223.432, 291.630 226.037, 299.412 229.268, 306.465 232.525, 313.026 233.855, 315.697 236.808, 321.615 239.417, 327.257 241.497, 331.242 241.376, 331.244 240.209, 331.390 239.498, 331.431 238.955, 331.487 238.250, 331.754 236.805, 332.304 235.638, 332.749 234.766, 333.318 233.743, 334.064 233.582, 334.225 233.325, 334.581 232.734, 334.818 231.888, 335.226 231.446, 335.432 231.015, 335.795 230.765, 336.140 230.742, 336.539 229.815, 336.709 229.164, 336.988 228.620, 337.250 228.357, 337.472 227.998, 337.847 227.764, 338.151 227.655, 338.604 227.799, 338.809 227.913, 338.786 228.329, 338.694 228.667, 338.557 229.132, 338.428 229.666, 338.347 230.372, 338.375 231.455, 338.639 232.075, 338.888 233.031, 339.643 232.830, 339.650 232.528, 339.562 232.028, 339.651 230.859, 339.576 229.998, 339.464 229.090, 339.471 228.246, 339.544 227.846, 339.779 227.398, 340.052 226.961, 340.430 226.855, 341.219 227.062, 341.449 227.230, 341.451 227.810, 341.316 228.366, 341.260 228.846, 341.309 229.708, 341.504 230.670, 341.840 231.219, 342.080 232.109, 342.606 233.528, 344.259 234.414, 346.124 236.568, 348.095 237.186, 348.564 239.172, 349.508 240.889, 350.160 243.948, 351.445 248.575, 353.275 250.238, 353.931 253.565, 354.941 254.716, 355.287 260.093, 356.596 265.992, 356.839 269.763, 355.472 272.296, 353.789 274.388, 352.004 275.953, 348.642 277.636, 345.156 278.419, 340.594 278.656, 335.223 279.142, 329.569 279.061, 323.699 278.775, 317.788 278.482, 312.035 277.639, 306.674 277.697, 301.964 277.800, 297.785 279.217, 293.892 280.460, 291.222 283.667, 286.317 285.242, 283.490 288.151, 278.949 290.992, 274.516 292.196, 272.334 292.811, 273.592 295.715, 279.491 298.827, 285.339 304.147, 294.279 307.689, 300.181 311.517, 305.243 314.526, 309.977 316.662, 313.603 314.289, 315.547 313.146, 316.244 312.287, 316.528 311.606, 316.616 311.516, 316.678 311.158, 316.714 310.008, 316.985 308.957, 317.087 307.887, 317.141 307.184, 317.390 306.615, 317.639 306.411, 317.744 305.697, 318.514 305.556, 319.038 305.785, 319.244 306.246, 319.082 307.063, 318.805 307.621, 318.766 307.923, 318.813 307.904, 318.820 307.426, 319.103 307.080, 319.357 306.164, 319.533 305.057, 319.651 304.319, 319.870 303.433, 320.230 303.172, 320.453 302.519, 321.328 302.086, 321.489 301.224, 321.869 300.997, 321.992 300.790, 322.499 300.768, 322.578 300.968, 322.816 301.087, 322.855 301.786, 322.741 302.614, 322.823 303.234, 323.040 304.148, 323.532 304.831, 324.004 305.381, 324.615 304.935, 324.634 303.323, 324.370 302.400, 324.102 301.453, 324.054 300.556, 324.025 300.167, 324.241 299.655, 324.580 299.321, 324.984 299.331, 325.641 299.484, 325.769 299.626, 325.852 299.969, 325.592 300.395, 325.534 300.873, 325.642 301.736, 325.940 302.659, 326.432 303.238, 326.774 304.526, 327.775 305.994, 329.583 307.749, 332.132 308.798, 333.556 310.729, 334.681 312.994, 335.104 315.583, 335.014 318.486, 335.108 322.043, 334.740 325.882, 333.990 330.403, 333.302 335.704, 332.540 339.222, 331.394 342.110, 329.503 343.681, 328.595 344.696, 327.788 346.032, 326.528 347.609, 324.578 348.751, 322.054 349.601, 318.071 348.802, 312.872 347.126, 304.824 346.567, 301.136 346.176, 298.724 344.780, 292.147 343.108, 285.137 341.227, 277.818 339.522, 270.638 338.510, 264.100 338.327, 258.419 338.630, 255.527 339.118, 252.764 339.719, 247.775 340.468, 241.552 340.999, 236.167 341.203, 230.648 340.961, 223.577 340.016, 216.832 338.423, 208.524 336.914, 203.244 333.045, 195.453 330.641, 190.970 327.791, 187.158 322.290, 179.951 319.283, 176.574 314.119, 171.507 309.807, 166.450 299.985, 157.556 293.929, 152.734 287.430, 148.788 281.781, 145.646 274.445, 140.987 266.865, 137.237 259.085, 134.197 251.262, 131.455 243.164, 129.701 234.926, 128.489 228.820, 127.266 226.737, 126.598 219.932, 123.770 214.342, 121.096 207.802, 116.991 200.438, 112.283 192.675, 108.169 183.005, 104.851 177.281, 102.799 167.645, 101.825 159.648, 102.016 153.002, 101.450 151.171, 100.622 150.385, 98.655 151.133, 95.404 151.944, 93.056 152.329, 90.690 152.332, 88.015 151.801, 85.496 149.638, 81.881 146.019, 79.272 141.418, 78.315 138.514, 78.509 136.108, 79.522 133.571, 80.654 131.569, 82.458 129.590, 84.140 126.921, 84.402 122.802, 84.462 120.703, 84.551 117.252, 85.395 114.682, 85.965 111.635, 87.077 109.722, 87.446 107.080, 87.524 103.845, 88.116 103.831, 88.120 101.641, 88.362 101.385, 88.441 100.515, 88.108 98.350, 87.402 97.612, 87.315 95.308, 87.249 92.991, 88.088 90.291, 90.218 88.157, 94.121 87.652, 96.820 87.226, 97.375  z" />
        </g>
        <g inkscape:groupmode="layer" id="strokes" inkscape:label="strokes">
            <path fill="none" stroke-width="3.0" stroke-linecap="butt" stroke-opacity="1.0" stroke="rgb(0, 0, 0)" stroke-linejoin="round" d=" M 87.652, 96.820 87.226, 97.375 86.754, 98.719 86.771, 99.746 86.932, 100.098 " />
            <path fill="none" stroke-width="3.0" stroke-linecap="butt" stroke-opacity="1.0" stroke="rgb(0, 0, 0)" stroke-linejoin="round" d=" M 87.384, 98.957 86.932, 100.098 86.488, 101.218 85.685, 103.177 84.710, 106.723 83.712, 110.498 83.252, 114.088 82.773, 117.765 82.139, 121.904 81.161, 127.455 81.461, 132.581 " />
            <path fill="none" stroke-width="3.0" stroke-linecap="butt" stroke-opacity="1.0" stroke="rgb(0, 0, 0)" stroke-linejoin="round" d=" M 105.384, 88.798 103.814, 89.495 " />
            <path fill="none" stroke-width="3.0" stroke-linecap="butt" stroke-opacity="1.0" stroke="rgb(0, 0, 0)" stroke-linejoin="round" d=" M 104.730, 89.944 103.925, 89.549 103.814, 89.495 102.657, 88.929 102.112, 88.720 102.019, 88.684 101.385, 88.441 100.515, 88.108 98.350, 87.402 97.612, 87.315 95.308, 87.249 92.991, 88.088 90.291, 90.218 88.157, 94.121 87.652, 96.820 87.479, 97.747 87.441, 97.949 " />
            <path fill="none" stroke-width="3.0" stroke-linecap="butt" stroke-opacity="1.0" stroke="rgb(0, 0, 0)" stroke-linejoin="round" d=" M 87.607, 100.229 87.610, 100.245 87.698, 100.653 87.789, 101.069 88.086, 102.445 88.787, 104.641 89.480, 106.009 89.810, 106.662 " />
            <path fill="none" stroke-width="3.0" stroke-linecap="butt" stroke-opacity="1.0" stroke="rgb(0, 0, 0)" stroke-linejoin="round" d=" M 87.479, 97.747 87.367, 98.123 87.384, 98.957 87.403, 99.965 87.492, 100.221 87.602, 100.533 87.648, 100.666 87.789, 101.069 " />
            <path fill="none" stroke-width="3.0" stroke-linecap="butt" stroke-opacity="1.0" stroke="rgb(0, 0, 0)" stroke-linejoin="round" d=" M 113.487, 87.272 110.923, 87.398 110.866, 87.401 110.297, 87.429 109.722, 87.446 107.080, 87.524 103.845, 88.116 103.831, 88.120 102.019, 88.684 " />
            <path fill="none" stroke-width="3.0" stroke-linecap="butt" stroke-opacity="1.0" stroke="rgb(0, 0, 0)" stroke-linejoin="round" d=" M 86.067, 142.552 86.959, 143.968 " />
            <path fill="none" stroke-width="3.0" stroke-linecap="butt" stroke-opacity="1.0" stroke="rgb(0, 0, 0)" stroke-linejoin="round" d=" M 83.628, 137.585 86.067, 142.552 82.796, 137.735 81.461, 132.581 83.628, 137.585 " />
            <path fill="none" stroke-width="3.0" stroke-linecap="butt" stroke-opacity="1.0" stroke="rgb(0, 0, 0)" stroke-linejoin="round" d=" M 158.311, 217.313 159.032, 218.554 163.479, 226.210 164.683, 228.436 165.599, 230.130 165.800, 230.501 165.937, 230.754 166.192, 231.225 166.802, 232.262 169.128, 236.217 171.620, 239.232 176.751, 245.236 183.258, 250.430 186.351, 252.293 190.518, 254.803 197.528, 258.813 206.106, 263.190 214.534, 265.946 215.194, 266.162 217.773, 266.916 " />
            <path fill="none" stroke-width="3.0" stroke-linecap="butt" stroke-opacity="1.0" stroke="rgb(0, 0, 0)" stroke-linejoin="round" d=" M 230.976, 341.936 231.219, 342.080 232.109, 342.606 233.528, 344.259 234.414, 346.124 236.568, 348.095 237.186, 348.564 239.172, 349.508 240.889, 350.160 243.948, 351.445 248.575, 353.275 250.238, 353.931 253.565, 354.941 254.716, 355.287 260.093, 356.596 265.992, 356.839 269.763, 355.472 272.296, 353.789 274.388, 352.004 275.953, 348.642 277.636, 345.156 278.419, 340.594 278.656, 335.223 279.142, 329.569 279.061, 323.699 278.775, 317.788 278.482, 312.035 277.639, 306.674 277.697, 301.964 277.800, 297.785 279.217, 293.892 280.460, 291.222 " />
            <path fill="none" stroke-width="3.0" stroke-linecap="butt" stroke-opacity="1.0" stroke="rgb(0, 0, 0)" stroke-linejoin="round" d=" M 217.221, 246.575 216.880, 248.875 216.370, 252.315 216.650, 261.188 216.785, 261.875 217.773, 266.916 217.821, 267.160 " />
            <path fill="none" stroke-width="3.0" stroke-linecap="butt" stroke-opacity="1.0" stroke="rgb(0, 0, 0)" stroke-linejoin="round" d=" M 125.563, 280.384 128.435, 279.503 128.558, 279.465 128.624, 279.445 133.700, 277.887 138.431, 276.400 142.695, 273.803 146.367, 270.194 151.550, 264.967 155.290, 260.432 158.884, 255.859 161.899, 250.999 164.964, 245.897 166.027, 239.256 166.828, 233.502 166.802, 232.262 " />
            <path fill="none" stroke-width="3.0" stroke-linecap="butt" stroke-opacity="1.0" stroke="rgb(0, 0, 0)" stroke-linejoin="round" d=" M 157.639, 237.526 157.726, 244.600 157.777, 252.022 " />
            <path fill="none" stroke-width="3.0" stroke-linecap="butt" stroke-opacity="1.0" stroke="rgb(0, 0, 0)" stroke-linejoin="round" d=" M 94.057, 157.152 95.454, 162.671 95.592, 164.604 95.810, 167.666 95.926, 173.045 96.305, 178.546 97.505, 185.679 99.135, 192.621 101.202, 200.589 101.972, 203.200 " />
            <path fill="none" stroke-width="3.0" stroke-linecap="butt" stroke-opacity="1.0" stroke="rgb(0, 0, 0)" stroke-linejoin="round" d=" M 217.551, 258.930 217.597, 260.341 217.813, 266.927 217.821, 267.160 217.868, 268.588 219.219, 275.095 221.514, 283.715 223.432, 291.630 226.037, 299.412 229.268, 306.465 232.525, 313.026 233.855, 315.697 236.808, 321.615 239.417, 327.257 241.497, 331.242 241.563, 331.370 241.757, 331.742 242.012, 332.230 242.196, 332.621 242.558, 333.387 244.242, 336.958 246.115, 341.147 " />
            <path fill="none" stroke-width="3.0" stroke-linecap="butt" stroke-opacity="1.0" stroke="rgb(0, 0, 0)" stroke-linejoin="round" d=" M 109.713, 249.465 108.472, 253.017 106.943, 257.227 105.336, 261.196 104.302, 264.151 104.300, 264.158 104.297, 264.166 104.205, 264.428 104.059, 264.733 104.059, 264.734 104.057, 264.738 104.056, 264.740 104.011, 264.834 103.924, 265.015 103.076, 266.786 " />
            <path fill="none" stroke-width="3.0" stroke-linecap="butt" stroke-opacity="1.0" stroke="rgb(0, 0, 0)" stroke-linejoin="round" d=" M 101.755, 201.712 101.972, 203.200 102.982, 210.122 104.285, 217.615 106.332, 224.664 108.378, 231.877 109.162, 234.642 " />
            <path fill="none" stroke-width="3.0" stroke-linecap="butt" stroke-opacity="1.0" stroke="rgb(0, 0, 0)" stroke-linejoin="round" d=" M 281.437, 289.442 283.760, 285.802 285.242, 283.490 288.151, 278.949 290.992, 274.516 292.196, 272.334 294.004, 269.055 297.442, 262.567 299.313, 259.215 299.329, 259.185 301.228, 255.782 301.320, 255.618 301.326, 255.607 304.114, 251.037 306.046, 247.739 307.820, 243.076 307.983, 242.646 308.267, 241.900 " />
            <path fill="none" stroke-width="3.0" stroke-linecap="butt" stroke-opacity="1.0" stroke="rgb(0, 0, 0)" stroke-linejoin="round" d=" M 86.699, 142.771 86.959, 143.968 88.199, 149.680 90.788, 155.382 94.808, 163.697 95.592, 164.604 " />
            <path fill="none" stroke-width="3.0" stroke-linecap="butt" stroke-opacity="1.0" stroke="rgb(0, 0, 0)" stroke-linejoin="round" d=" M 126.368, 281.237 128.624, 279.445 " />
            <path fill="none" stroke-width="3.0" stroke-linecap="butt" stroke-opacity="1.0" stroke="rgb(0, 0, 0)" stroke-linejoin="round" d=" M 92.913, 282.225 94.641, 283.212 95.562, 283.739 98.898, 284.571 101.191, 284.887 102.273, 285.216 104.331, 285.287 107.122, 285.687 109.391, 286.106 111.856, 286.494 114.497, 286.640 117.104, 286.291 121.477, 285.271 124.191, 283.627 126.368, 281.237 128.558, 279.465 " />
            <path fill="none" stroke-width="3.0" stroke-linecap="butt" stroke-opacity="1.0" stroke="rgb(0, 0, 0)" stroke-linejoin="round" d=" M 102.273, 285.216 104.694, 285.293 " />
            <path fill="none" stroke-width="3.0" stroke-linecap="butt" stroke-opacity="1.0" stroke="rgb(0, 0, 0)" stroke-linejoin="round" d=" M 307.794, 241.003 308.850, 240.761 308.955, 240.842 309.005, 240.882 310.188, 241.808 310.681, 242.269 313.070, 244.015 314.847, 245.050 316.405, 245.357 318.579, 245.373 320.292, 244.613 321.688, 243.065 322.951, 241.235 323.183, 238.740 323.225, 238.278 " />
            <path fill="none" stroke-width="3.0" stroke-linecap="butt" stroke-opacity="1.0" stroke="rgb(0, 0, 0)" stroke-linejoin="round" d=" M 94.463, 265.508 94.023, 265.689 93.913, 265.761 93.910, 265.771 " />
            <path fill="none" stroke-width="3.0" stroke-linecap="butt" stroke-opacity="1.0" stroke="rgb(0, 0, 0)" stroke-linejoin="round" d=" M 104.248, 264.160 101.753, 264.257 98.849, 264.715 97.652, 264.622 95.893, 265.012 94.619, 265.418 94.463, 265.508 94.189, 265.668 94.071, 265.737 94.007, 265.751 93.910, 265.771 93.564, 265.845 92.496, 265.966 91.417, 266.076 90.572, 266.325 89.756, 266.586 88.882, 267.029 88.766, 267.143 88.593, 267.644 88.738, 267.825 88.799, 267.860 89.978, 267.722 90.502, 267.675 " />
            <path fill="none" stroke-width="3.0" stroke-linecap="butt" stroke-opacity="1.0" stroke="rgb(0, 0, 0)" stroke-linejoin="round" d=" M 95.899, 265.970 95.655, 266.051 94.819, 266.332 94.506, 266.437 92.016, 267.271 90.585, 267.642 90.502, 267.675 90.186, 267.804 89.737, 267.862 88.567, 267.939 87.607, 268.023 86.810, 268.304 85.914, 268.667 85.135, 269.159 85.018, 269.286 84.922, 269.896 85.111, 270.165 86.178, 270.103 87.189, 270.008 88.121, 270.008 89.047, 270.214 " />
            <path fill="none" stroke-width="3.0" stroke-linecap="butt" stroke-opacity="1.0" stroke="rgb(0, 0, 0)" stroke-linejoin="round" d=" M 92.016, 267.271 94.246, 266.840 " />
            <path fill="none" stroke-width="3.0" stroke-linecap="butt" stroke-opacity="1.0" stroke="rgb(0, 0, 0)" stroke-linejoin="round" d=" M 92.746, 269.730 91.522, 268.939 " />
            <path fill="none" stroke-width="3.0" stroke-linecap="butt" stroke-opacity="1.0" stroke="rgb(0, 0, 0)" stroke-linejoin="round" d=" M 92.746, 269.730 91.355, 270.161 90.093, 270.552 89.970, 270.575 89.895, 270.589 88.859, 270.786 88.583, 270.944 87.981, 270.972 87.062, 270.984 86.082, 270.981 85.269, 271.062 84.594, 271.175 83.978, 271.344 83.811, 271.487 83.330, 272.287 83.494, 272.547 84.933, 272.841 86.417, 273.097 87.416, 273.444 88.069, 273.778 " />
            <path fill="none" stroke-width="3.0" stroke-linecap="butt" stroke-opacity="1.0" stroke="rgb(0, 0, 0)" stroke-linejoin="round" d=" M 91.781, 270.537 90.093, 270.552 " />
            <path fill="none" stroke-width="3.0" stroke-linecap="butt" stroke-opacity="1.0" stroke="rgb(0, 0, 0)" stroke-linejoin="round" d=" M 89.118, 275.829 88.483, 275.639 87.661, 275.638 86.990, 275.604 86.449, 275.562 85.885, 275.594 85.350, 275.691 85.180, 275.910 84.969, 276.514 " />
            <path fill="none" stroke-width="3.0" stroke-linecap="butt" stroke-opacity="1.0" stroke="rgb(0, 0, 0)" stroke-linejoin="round" d=" M 94.641, 283.212 93.988, 282.997 92.166, 281.855 90.386, 280.273 88.652, 278.337 87.701, 277.763 86.877, 277.348 86.191, 277.043 85.911, 276.946 85.482, 276.797 85.251, 276.669 85.174, 276.627 84.969, 276.514 85.167, 276.709 85.911, 276.946 " />
            <path fill="none" stroke-width="3.0" stroke-linecap="butt" stroke-opacity="1.0" stroke="rgb(0, 0, 0)" stroke-linejoin="round" d=" M 92.189, 272.824 90.153, 275.233 89.804, 275.646 89.624, 275.858 89.118, 275.829 88.925, 275.818 " />
            <path fill="none" stroke-width="3.0" stroke-linecap="butt" stroke-opacity="1.0" stroke="rgb(0, 0, 0)" stroke-linejoin="round" d=" M 88.766, 267.143 89.559, 266.815 90.328, 266.584 91.123, 266.346 92.062, 266.294 92.947, 266.219 93.897, 265.812 94.071, 265.737 " />
            <path fill="none" stroke-width="3.0" stroke-linecap="butt" stroke-opacity="1.0" stroke="rgb(0, 0, 0)" stroke-linejoin="round" d=" M 88.667, 270.058 89.047, 270.214 89.805, 270.524 89.895, 270.589 " />
            <path fill="none" stroke-width="3.0" stroke-linecap="butt" stroke-opacity="1.0" stroke="rgb(0, 0, 0)" stroke-linejoin="round" d=" M 87.928, 273.630 88.069, 273.778 89.682, 275.476 89.804, 275.646 " />
            <path fill="none" stroke-width="3.0" stroke-linecap="butt" stroke-opacity="1.0" stroke="rgb(0, 0, 0)" stroke-linejoin="round" d=" M 85.180, 275.910 85.616, 275.912 86.162, 275.934 86.658, 276.072 87.291, 276.247 88.010, 276.450 88.925, 275.818 88.483, 275.639 " />
            <path fill="none" stroke-width="3.0" stroke-linecap="butt" stroke-opacity="1.0" stroke="rgb(0, 0, 0)" stroke-linejoin="round" d=" M 93.913, 265.761 94.189, 265.668 " />
            <path fill="none" stroke-width="3.0" stroke-linecap="butt" stroke-opacity="1.0" stroke="rgb(0, 0, 0)" stroke-linejoin="round" d=" M 90.491, 267.512 89.586, 267.613 88.799, 267.860 " />
            <path fill="none" stroke-width="3.0" stroke-linecap="butt" stroke-opacity="1.0" stroke="rgb(0, 0, 0)" stroke-linejoin="round" d=" M 85.018, 269.286 85.680, 268.935 86.504, 268.653 87.257, 268.411 88.106, 268.454 89.102, 268.492 " />
            <path fill="none" stroke-width="3.0" stroke-linecap="butt" stroke-opacity="1.0" stroke="rgb(0, 0, 0)" stroke-linejoin="round" d=" M 88.667, 270.058 87.657, 269.778 86.767, 269.862 85.747, 269.980 85.111, 270.165 " />
            <path fill="none" stroke-width="3.0" stroke-linecap="butt" stroke-opacity="1.0" stroke="rgb(0, 0, 0)" stroke-linejoin="round" d=" M 239.642, 332.296 239.152, 332.434 237.312, 332.951 237.279, 332.960 237.215, 332.978 236.825, 333.087 235.928, 333.297 235.508, 333.581 235.093, 333.970 234.622, 334.412 234.585, 334.446 " />
            <path fill="none" stroke-width="3.0" stroke-linecap="butt" stroke-opacity="1.0" stroke="rgb(0, 0, 0)" stroke-linejoin="round" d=" M 236.762, 337.814 236.492, 338.003 236.368, 338.090 234.218, 339.598 233.307, 339.632 233.031, 339.643 232.830, 339.650 232.771, 339.653 " />
            <path fill="none" stroke-width="3.0" stroke-linecap="butt" stroke-opacity="1.0" stroke="rgb(0, 0, 0)" stroke-linejoin="round" d=" M 241.497, 331.242 241.376, 331.244 240.209, 331.390 239.498, 331.431 238.955, 331.487 238.250, 331.754 236.805, 332.304 235.638, 332.749 234.766, 333.318 233.743, 334.064 233.582, 334.225 233.325, 334.581 " />
            <path fill="none" stroke-width="3.0" stroke-linecap="butt" stroke-opacity="1.0" stroke="rgb(0, 0, 0)" stroke-linejoin="round" d=" M 234.496, 336.179 234.190, 336.195 233.362, 336.237 232.638, 336.217 231.802, 336.354 231.479, 336.410 230.972, 336.497 230.956, 336.500 230.924, 336.506 230.742, 336.539 229.815, 336.709 229.164, 336.988 228.620, 337.250 228.357, 337.472 227.998, 337.847 227.764, 338.151 227.655, 338.604 227.799, 338.809 227.913, 338.786 228.329, 338.694 228.667, 338.557 229.132, 338.428 229.666, 338.347 230.372, 338.375 231.455, 338.639 232.075, 338.888 " />
            <path fill="none" stroke-width="3.0" stroke-linecap="butt" stroke-opacity="1.0" stroke="rgb(0, 0, 0)" stroke-linejoin="round" d=" M 231.781, 338.656 232.075, 338.888 233.031, 339.643 " />
            <path fill="none" stroke-width="3.0" stroke-linecap="butt" stroke-opacity="1.0" stroke="rgb(0, 0, 0)" stroke-linejoin="round" d=" M 232.830, 339.650 232.528, 339.562 232.028, 339.651 230.859, 339.576 229.998, 339.464 229.090, 339.471 228.246, 339.544 227.846, 339.779 227.398, 340.052 226.961, 340.430 226.855, 341.219 227.062, 341.449 227.230, 341.451 227.810, 341.316 228.366, 341.260 228.846, 341.309 229.708, 341.504 230.670, 341.840 231.219, 342.080 " />
            <path fill="none" stroke-width="3.0" stroke-linecap="butt" stroke-opacity="1.0" stroke="rgb(0, 0, 0)" stroke-linejoin="round" d=" M 235.093, 333.970 234.303, 334.277 233.489, 334.520 233.448, 334.532 233.325, 334.581 232.734, 334.818 231.888, 335.226 231.446, 335.432 231.015, 335.795 230.765, 336.140 230.742, 336.539 " />
            <path fill="none" stroke-width="3.0" stroke-linecap="butt" stroke-opacity="1.0" stroke="rgb(0, 0, 0)" stroke-linejoin="round" d=" M 228.384, 338.491 228.068, 338.648 227.799, 338.809 " />
            <path fill="none" stroke-width="3.0" stroke-linecap="butt" stroke-opacity="1.0" stroke="rgb(0, 0, 0)" stroke-linejoin="round" d=" M 227.896, 341.107 227.364, 341.202 227.062, 341.449 " />
            <path fill="none" stroke-width="3.0" stroke-linecap="butt" stroke-opacity="1.0" stroke="rgb(0, 0, 0)" stroke-linejoin="round" d=" M 103.831, 88.120 101.641, 88.362 101.385, 88.441 " />
            <path fill="none" stroke-width="3.0" stroke-linecap="butt" stroke-opacity="1.0" stroke="rgb(0, 0, 0)" stroke-linejoin="round" d=" M 83.811, 271.487 84.349, 271.390 84.967, 271.334 85.717, 271.305 86.597, 271.389 87.367, 271.445 " />
            <path fill="none" stroke-width="3.0" stroke-linecap="butt" stroke-opacity="1.0" stroke="rgb(0, 0, 0)" stroke-linejoin="round" d=" M 108.378, 231.877 108.931, 236.894 110.031, 243.483 110.493, 246.251 110.519, 246.410 " />
            <path fill="none" stroke-width="3.0" stroke-linecap="butt" stroke-opacity="1.0" stroke="rgb(0, 0, 0)" stroke-linejoin="round" d=" M 307.530, 232.309 307.219, 233.568 307.601, 236.451 306.961, 240.282 307.794, 241.003 " />
            <path fill="none" stroke-width="3.0" stroke-linecap="butt" stroke-opacity="1.0" stroke="rgb(0, 0, 0)" stroke-linejoin="round" d=" M 227.846, 339.779 228.636, 339.768 229.557, 339.781 230.407, 339.945 231.470, 340.136 " />
            <path fill="none" stroke-width="3.0" stroke-linecap="butt" stroke-opacity="1.0" stroke="rgb(0, 0, 0)" stroke-linejoin="round" d=" M 228.357, 337.472 228.828, 337.242 229.452, 336.983 230.488, 336.903 231.192, 336.833 " />
            <path fill="none" stroke-width="3.0" stroke-linecap="butt" stroke-opacity="1.0" stroke="rgb(0, 0, 0)" stroke-linejoin="round" d=" M 231.446, 335.432 232.230, 335.087 232.919, 334.852 233.167, 334.799 233.708, 334.683 234.585, 334.446 235.164, 334.347 235.453, 334.349 " />
            <path fill="none" stroke-width="3.0" stroke-linecap="butt" stroke-opacity="1.0" stroke="rgb(0, 0, 0)" stroke-linejoin="round" d=" M 236.760, 334.628 235.623, 335.490 234.190, 336.195 " />
            <path fill="none" stroke-width="3.0" stroke-linecap="butt" stroke-opacity="1.0" stroke="rgb(0, 0, 0)" stroke-linejoin="round" d=" M 232.528, 339.562 232.771, 339.653 233.492, 340.487 " />
            <path fill="none" stroke-width="3.0" stroke-linecap="butt" stroke-opacity="1.0" stroke="rgb(0, 0, 0)" stroke-linejoin="round" d=" M 239.122, 332.351 239.152, 332.434 " />
            <path fill="none" stroke-width="3.0" stroke-linecap="butt" stroke-opacity="1.0" stroke="rgb(0, 0, 0)" stroke-linejoin="round" d=" M 233.582, 334.225 234.543, 333.547 235.397, 332.989 236.523, 332.652 237.843, 332.212 " />
            <path fill="none" stroke-width="3.0" stroke-linecap="butt" stroke-opacity="1.0" stroke="rgb(0, 0, 0)" stroke-linejoin="round" d=" M 126.921, 84.402 122.802, 84.462 120.703, 84.551 117.252, 85.395 114.682, 85.965 111.635, 87.077 " />
            <path fill="none" stroke-width="3.0" stroke-linecap="butt" stroke-opacity="1.0" stroke="rgb(0, 0, 0)" stroke-linejoin="round" d=" M 151.171, 100.622 150.385, 98.655 151.133, 95.404 151.944, 93.056 152.329, 90.690 152.332, 88.015 151.801, 85.496 149.638, 81.881 146.019, 79.272 141.418, 78.315 138.514, 78.509 136.108, 79.522 133.571, 80.654 131.569, 82.458 129.590, 84.140 126.921, 84.402 126.319, 84.462 " />
            <path fill="none" stroke-width="3.0" stroke-linecap="butt" stroke-opacity="1.0" stroke="rgb(0, 0, 0)" stroke-linejoin="round" d=" M 315.422, 173.036 314.119, 171.507 309.807, 166.450 302.394, 159.738 299.985, 157.556 293.929, 152.734 287.430, 148.788 281.781, 145.646 274.445, 140.987 266.865, 137.237 259.085, 134.197 251.262, 131.455 243.164, 129.701 234.926, 128.489 228.820, 127.266 226.662, 126.834 " />
            <path fill="none" stroke-width="3.0" stroke-linecap="butt" stroke-opacity="1.0" stroke="rgb(0, 0, 0)" stroke-linejoin="round" d=" M 228.820, 127.266 226.737, 126.598 219.932, 123.770 214.342, 121.096 207.802, 116.991 200.438, 112.283 192.675, 108.169 183.216, 104.924 183.005, 104.851 177.281, 102.799 167.645, 101.825 159.648, 102.016 153.002, 101.450 151.956, 101.361 " />
            <path fill="none" stroke-width="3.0" stroke-linecap="butt" stroke-opacity="1.0" stroke="rgb(0, 0, 0)" stroke-linejoin="round" d=" M 347.501, 307.302 347.126, 304.824 346.567, 301.136 346.176, 298.724 344.780, 292.147 343.108, 285.137 341.227, 277.818 339.522, 270.638 338.510, 264.100 338.327, 258.419 " />
            <path fill="none" stroke-width="3.0" stroke-linecap="butt" stroke-opacity="1.0" stroke="rgb(0, 0, 0)" stroke-linejoin="round" d=" M 292.196, 272.334 292.811, 273.592 295.715, 279.491 298.827, 285.339 303.941, 293.932 304.147, 294.279 307.689, 300.181 311.517, 305.243 314.526, 309.977 316.662, 313.603 316.945, 314.084 317.171, 314.519 317.821, 315.771 318.002, 316.119 318.221, 316.541 318.239, 316.575 318.273, 316.640 318.616, 317.301 318.830, 317.713 " />
            <path fill="none" stroke-width="3.0" stroke-linecap="butt" stroke-opacity="1.0" stroke="rgb(0, 0, 0)" stroke-linejoin="round" d=" M 338.348, 257.124 338.630, 255.527 339.118, 252.764 339.719, 247.775 340.468, 241.552 340.999, 236.167 341.203, 230.648 340.961, 223.577 340.016, 216.832 338.423, 208.524 336.914, 203.244 333.045, 195.453 330.641, 190.970 327.791, 187.158 322.290, 179.951 319.283, 176.574 314.119, 171.507 " />
            <path fill="none" stroke-width="3.0" stroke-linecap="butt" stroke-opacity="1.0" stroke="rgb(0, 0, 0)" stroke-linejoin="round" d=" M 302.244, 326.077 303.127, 326.688 303.238, 326.774 304.526, 327.775 305.994, 329.583 307.749, 332.132 308.798, 333.556 310.729, 334.681 312.994, 335.104 315.583, 335.014 318.486, 335.108 322.043, 334.740 325.882, 333.990 330.403, 333.302 335.704, 332.540 339.222, 331.394 342.110, 329.503 343.681, 328.595 344.696, 327.788 346.032, 326.528 347.609, 324.578 348.751, 322.054 349.601, 318.071 348.802, 312.872 347.126, 304.824 " />
            <path fill="none" stroke-width="3.0" stroke-linecap="butt" stroke-opacity="1.0" stroke="rgb(0, 0, 0)" stroke-linejoin="round" d=" M 199.547, 281.799 200.272, 281.781 203.288, 280.723 206.810, 278.891 208.423, 276.750 210.189, 274.474 212.113, 270.227 214.534, 265.946 " />
            <path fill="none" stroke-width="3.0" stroke-linecap="butt" stroke-opacity="1.0" stroke="rgb(0, 0, 0)" stroke-linejoin="round" d=" M 324.054, 227.553 324.030, 223.146 324.310, 218.480 " />
            <path fill="none" stroke-width="3.0" stroke-linecap="butt" stroke-opacity="1.0" stroke="rgb(0, 0, 0)" stroke-linejoin="round" d=" M 323.183, 238.740 323.637, 236.795 323.752, 233.129 324.231, 228.664 324.054, 227.553 323.427, 223.618 " />
            <path fill="none" stroke-width="3.0" stroke-linecap="butt" stroke-opacity="1.0" stroke="rgb(0, 0, 0)" stroke-linejoin="round" d=" M 175.698, 267.041 173.582, 267.881 172.623, 268.134 172.182, 268.250 171.920, 268.319 171.388, 268.323 170.837, 268.252 169.809, 268.340 168.943, 268.420 168.438, 268.621 167.937, 268.838 167.473, 269.087 167.333, 269.204 167.268, 269.569 167.356, 269.764 168.030, 269.795 168.554, 269.798 169.083, 269.802 169.486, 269.925 170.342, 270.349 171.662, 271.567 172.605, 273.101 173.421, 274.220 175.389, 275.719 178.585, 277.274 180.732, 278.282 185.146, 279.806 189.623, 281.046 194.232, 282.195 196.108, 282.106 197.875, 282.015 199.547, 281.799 200.459, 281.682 " />
            <path fill="none" stroke-width="3.0" stroke-linecap="butt" stroke-opacity="1.0" stroke="rgb(0, 0, 0)" stroke-linejoin="round" d=" M 176.982, 262.519 174.153, 264.254 173.809, 264.317 173.790, 264.321 173.736, 264.330 172.662, 264.526 172.159, 264.852 171.509, 264.840 170.647, 264.906 169.377, 264.932 168.559, 265.126 167.813, 265.340 167.048, 265.724 166.931, 265.826 166.755, 266.254 166.906, 266.448 166.940, 266.446 168.002, 266.379 168.764, 266.373 169.642, 266.490 170.652, 266.882 " />
            <path fill="none" stroke-width="3.0" stroke-linecap="butt" stroke-opacity="1.0" stroke="rgb(0, 0, 0)" stroke-linejoin="round" d=" M 180.597, 259.957 178.407, 260.575 175.875, 260.948 175.065, 261.081 174.995, 261.092 174.615, 261.155 173.980, 261.237 173.971, 261.238 173.958, 261.244 173.830, 261.306 173.710, 261.363 173.515, 261.456 172.255, 261.534 171.242, 261.566 170.269, 261.879 169.567, 262.135 169.317, 262.265 168.692, 262.685 168.618, 263.342 168.822, 263.658 169.861, 263.542 170.611, 263.466 171.703, 263.508 172.724, 263.786 173.594, 264.222 " />
            <path fill="none" stroke-width="3.0" stroke-linecap="butt" stroke-opacity="1.0" stroke="rgb(0, 0, 0)" stroke-linejoin="round" d=" M 187.297, 258.021 185.619, 258.101 183.666, 258.268 182.919, 258.411 180.440, 258.578 179.339, 258.770 178.781, 258.975 178.140, 259.288 176.889, 259.489 176.173, 259.553 175.708, 259.589 174.952, 259.825 174.227, 260.110 174.044, 260.226 173.615, 261.186 " />
            <path fill="none" stroke-width="3.0" stroke-linecap="butt" stroke-opacity="1.0" stroke="rgb(0, 0, 0)" stroke-linejoin="round" d=" M 173.958, 261.244 173.839, 261.224 173.615, 261.186 173.710, 261.363 " />
            <path fill="none" stroke-width="3.0" stroke-linecap="butt" stroke-opacity="1.0" stroke="rgb(0, 0, 0)" stroke-linejoin="round" d=" M 170.542, 266.818 170.652, 266.882 171.301, 267.261 172.182, 268.250 " />
            <path fill="none" stroke-width="3.0" stroke-linecap="butt" stroke-opacity="1.0" stroke="rgb(0, 0, 0)" stroke-linejoin="round" d=" M 173.439, 264.105 173.594, 264.222 173.736, 264.330 " />
            <path fill="none" stroke-width="3.0" stroke-linecap="butt" stroke-opacity="1.0" stroke="rgb(0, 0, 0)" stroke-linejoin="round" d=" M 174.044, 260.226 174.660, 260.011 175.377, 259.818 175.800, 259.798 176.459, 259.773 177.593, 259.726 178.781, 258.975 " />
            <path fill="none" stroke-width="3.0" stroke-linecap="butt" stroke-opacity="1.0" stroke="rgb(0, 0, 0)" stroke-linejoin="round" d=" M 167.333, 269.204 167.675, 269.032 168.111, 268.846 168.568, 268.664 169.297, 268.674 170.193, 268.702 " />
            <path fill="none" stroke-width="3.0" stroke-linecap="butt" stroke-opacity="1.0" stroke="rgb(0, 0, 0)" stroke-linejoin="round" d=" M 169.486, 269.925 168.691, 269.643 168.185, 269.689 167.670, 269.753 167.356, 269.764 " />
            <path fill="none" stroke-width="3.0" stroke-linecap="butt" stroke-opacity="1.0" stroke="rgb(0, 0, 0)" stroke-linejoin="round" d=" M 166.931, 265.826 167.622, 265.519 168.317, 265.391 169.117, 265.264 170.267, 265.408 171.024, 265.499 " />
            <path fill="none" stroke-width="3.0" stroke-linecap="butt" stroke-opacity="1.0" stroke="rgb(0, 0, 0)" stroke-linejoin="round" d=" M 168.807, 263.616 168.822, 263.658 " />
            <path fill="none" stroke-width="3.0" stroke-linecap="butt" stroke-opacity="1.0" stroke="rgb(0, 0, 0)" stroke-linejoin="round" d=" M 307.825, 323.234 306.473, 324.486 305.891, 324.595 305.620, 324.606 305.381, 324.615 304.935, 324.634 303.323, 324.370 302.400, 324.102 301.453, 324.054 300.556, 324.025 300.167, 324.241 299.655, 324.580 299.321, 324.984 299.331, 325.641 299.484, 325.769 299.626, 325.852 299.969, 325.592 300.395, 325.534 300.873, 325.642 301.736, 325.940 302.659, 326.432 303.238, 326.774 " />
            <path fill="none" stroke-width="3.0" stroke-linecap="butt" stroke-opacity="1.0" stroke="rgb(0, 0, 0)" stroke-linejoin="round" d=" M 308.581, 319.602 307.827, 320.127 307.796, 320.149 306.434, 321.098 305.763, 321.227 305.339, 321.269 304.916, 321.336 303.788, 321.346 303.602, 321.333 302.680, 321.268 302.670, 321.271 302.519, 321.328 302.086, 321.489 301.224, 321.869 300.997, 321.992 300.790, 322.499 300.768, 322.578 300.968, 322.816 301.087, 322.855 301.786, 322.741 302.614, 322.823 303.234, 323.040 304.148, 323.532 " />
            <path fill="none" stroke-width="3.0" stroke-linecap="butt" stroke-opacity="1.0" stroke="rgb(0, 0, 0)" stroke-linejoin="round" d=" M 312.777, 316.468 312.315, 316.720 311.486, 317.172 310.988, 317.453 310.143, 317.931 310.040, 317.989 309.984, 318.010 308.809, 318.469 307.923, 318.813 307.904, 318.820 307.426, 319.103 307.080, 319.357 306.336, 319.901 " />
            <path fill="none" stroke-width="3.0" stroke-linecap="butt" stroke-opacity="1.0" stroke="rgb(0, 0, 0)" stroke-linejoin="round" d=" M 313.146, 316.244 312.287, 316.528 311.979, 316.630 311.516, 316.678 311.158, 316.714 310.008, 316.985 308.957, 317.087 307.887, 317.141 307.184, 317.390 306.615, 317.639 306.411, 317.744 305.697, 318.514 305.556, 319.038 305.785, 319.244 306.246, 319.082 307.063, 318.805 307.621, 318.766 307.923, 318.813 " />
            <path fill="none" stroke-width="3.0" stroke-linecap="butt" stroke-opacity="1.0" stroke="rgb(0, 0, 0)" stroke-linejoin="round" d=" M 316.662, 313.603 314.289, 315.547 313.146, 316.244 312.784, 316.464 312.777, 316.468 312.376, 316.713 312.230, 316.801 " />
            <path fill="none" stroke-width="3.0" stroke-linecap="butt" stroke-opacity="1.0" stroke="rgb(0, 0, 0)" stroke-linejoin="round" d=" M 307.833, 320.062 307.796, 320.149 " />
            <path fill="none" stroke-width="3.0" stroke-linecap="butt" stroke-opacity="1.0" stroke="rgb(0, 0, 0)" stroke-linejoin="round" d=" M 304.761, 323.926 304.816, 323.987 304.831, 324.004 305.381, 324.615 " />
            <path fill="none" stroke-width="3.0" stroke-linecap="butt" stroke-opacity="1.0" stroke="rgb(0, 0, 0)" stroke-linejoin="round" d=" M 300.968, 322.816 301.452, 322.611 302.244, 322.654 302.771, 322.710 " />
            <path fill="none" stroke-width="3.0" stroke-linecap="butt" stroke-opacity="1.0" stroke="rgb(0, 0, 0)" stroke-linejoin="round" d=" M 169.317, 262.265 169.945, 262.036 170.857, 261.737 171.736, 261.765 172.861, 261.827 " />
            <path fill="none" stroke-width="3.0" stroke-linecap="butt" stroke-opacity="1.0" stroke="rgb(0, 0, 0)" stroke-linejoin="round" d=" M 172.243, 263.502 173.439, 264.105 " />
            <path fill="none" stroke-width="3.0" stroke-linecap="butt" stroke-opacity="1.0" stroke="rgb(0, 0, 0)" stroke-linejoin="round" d=" M 186.351, 252.293 186.680, 253.597 187.307, 257.775 187.343, 258.019 187.466, 258.839 187.521, 259.205 187.572, 259.543 " />
            <path fill="none" stroke-width="3.0" stroke-linecap="butt" stroke-opacity="1.0" stroke="rgb(0, 0, 0)" stroke-linejoin="round" d=" M 187.307, 257.775 187.297, 258.021 187.263, 258.839 187.246, 259.257 187.207, 260.198 186.304, 261.499 " />
            <path fill="none" stroke-width="3.0" stroke-linecap="butt" stroke-opacity="1.0" stroke="rgb(0, 0, 0)" stroke-linejoin="round" d=" M 312.287, 316.528 311.606, 316.616 311.516, 316.678 " />
            <path fill="none" stroke-width="3.0" stroke-linecap="butt" stroke-opacity="1.0" stroke="rgb(0, 0, 0)" stroke-linejoin="round" d=" M 306.411, 317.744 306.937, 317.540 307.630, 317.308 308.588, 317.303 309.515, 317.296 310.470, 317.393 310.906, 317.438 310.988, 317.453 " />
            <path fill="none" stroke-width="3.0" stroke-linecap="butt" stroke-opacity="1.0" stroke="rgb(0, 0, 0)" stroke-linejoin="round" d=" M 307.080, 319.357 306.164, 319.533 305.057, 319.651 304.319, 319.870 303.433, 320.230 303.172, 320.453 302.519, 321.328 " />
            <path fill="none" stroke-width="3.0" stroke-linecap="butt" stroke-opacity="1.0" stroke="rgb(0, 0, 0)" stroke-linejoin="round" d=" M 303.172, 320.453 303.947, 320.183 304.651, 319.975 305.595, 319.946 306.336, 319.901 307.036, 319.931 " />
            <path fill="none" stroke-width="3.0" stroke-linecap="butt" stroke-opacity="1.0" stroke="rgb(0, 0, 0)" stroke-linejoin="round" d=" M 303.602, 321.333 303.629, 321.317 304.434, 321.288 " />
            <path fill="none" stroke-width="3.0" stroke-linecap="butt" stroke-opacity="1.0" stroke="rgb(0, 0, 0)" stroke-linejoin="round" d=" M 300.997, 321.992 301.740, 321.649 302.337, 321.447 302.488, 321.465 303.300, 321.558 303.681, 321.602 304.258, 321.668 " />
            <path fill="none" stroke-width="3.0" stroke-linecap="butt" stroke-opacity="1.0" stroke="rgb(0, 0, 0)" stroke-linejoin="round" d=" M 303.803, 323.293 304.148, 323.532 304.831, 324.004 " />
            <path fill="none" stroke-width="3.0" stroke-linecap="butt" stroke-opacity="1.0" stroke="rgb(0, 0, 0)" stroke-linejoin="round" d=" M 299.669, 325.454 300.066, 325.414 300.506, 325.352 301.347, 325.706 302.244, 326.077 " />
            <path fill="none" stroke-width="3.0" stroke-linecap="butt" stroke-opacity="1.0" stroke="rgb(0, 0, 0)" stroke-linejoin="round" d=" M 300.167, 324.241 300.969, 324.324 301.926, 324.477 302.767, 324.835 304.159, 325.426 " />
            <path fill="none" stroke-width="3.0" stroke-linecap="butt" stroke-opacity="1.0" stroke="rgb(0, 0, 0)" stroke-linejoin="round" d=" M 309.158, 241.453 308.135, 242.492 " />
            <path fill="none" stroke-width="3.0" stroke-linecap="butt" stroke-opacity="1.0" stroke="rgb(0, 0, 0)" stroke-linejoin="round" d=" M 153.002, 101.450 151.171, 100.622 150.976, 100.534 150.587, 100.195 150.191, 99.850 146.969, 97.042 " />
            <path fill="none" stroke-width="3.0" stroke-linecap="butt" stroke-opacity="1.0" stroke="rgb(0, 0, 0)" stroke-linejoin="round" d=" M 306.533, 233.265 307.530, 232.309 309.367, 230.547 " />
            <path fill="none" stroke-width="3.0" stroke-linecap="butt" stroke-opacity="1.0" stroke="rgb(0, 0, 0)" stroke-linejoin="round" d=" M 114.163, 86.590 111.635, 87.077 109.722, 87.446 " />
            <path fill="none" stroke-width="3.0" stroke-linecap="butt" stroke-opacity="1.0" stroke="rgb(0, 0, 0)" stroke-linejoin="round" d=" M 111.018, 87.385 110.866, 87.401 " />
            <path fill="none" stroke-width="3.0" stroke-linecap="butt" stroke-opacity="1.0" stroke="rgb(0, 0, 0)" stroke-linejoin="round" d=" M 110.031, 243.483 109.810, 247.500 109.713, 249.465 109.572, 252.289 " />
            <path fill="none" stroke-width="3.0" stroke-linecap="butt" stroke-opacity="1.0" stroke="rgb(0, 0, 0)" stroke-linejoin="round" d=" M 337.926, 262.257 338.327, 258.419 338.630, 255.527 " />
            <path fill="none" stroke-width="3.0" stroke-linecap="butt" stroke-opacity="1.0" stroke="rgb(0, 0, 0)" stroke-linejoin="round" d=" M 158.049, 218.281 154.287, 213.971 " />
            <path fill="none" stroke-width="3.0" stroke-linecap="butt" stroke-opacity="1.0" stroke="rgb(0, 0, 0)" stroke-linejoin="round" d=" M 279.218, 293.121 280.460, 291.222 283.667, 286.317 285.242, 283.490 " />
            <path fill="none" stroke-width="3.0" stroke-linecap="butt" stroke-opacity="1.0" stroke="rgb(0, 0, 0)" stroke-linejoin="round" d=" M 167.615, 266.232 168.446, 266.225 " />
            <path fill="none" stroke-width="3.0" stroke-linecap="butt" stroke-opacity="1.0" stroke="rgb(0, 0, 0)" stroke-linejoin="round" d=" M 165.233, 231.434 165.937, 230.754 " />
            <path fill="none" stroke-width="3.0" stroke-linecap="butt" stroke-opacity="1.0" stroke="rgb(0, 0, 0)" stroke-linejoin="round" d=" M 89.480, 106.009 89.771, 108.048 " />
            <path fill="none" stroke-width="3.0" stroke-linecap="butt" stroke-opacity="1.0" stroke="rgb(0, 0, 0)" stroke-linejoin="round" d=" M 104.011, 264.834 103.291, 265.328 " />
            <path fill="none" stroke-width="3.0" stroke-linecap="butt" stroke-opacity="1.0" stroke="rgb(0, 0, 0)" stroke-linejoin="round" d=" M 104.302, 264.151 104.248, 264.160 104.201, 264.168 " />
            <path fill="none" stroke-width="3.0" stroke-linecap="butt" stroke-opacity="1.0" stroke="rgb(0, 0, 0)" stroke-linejoin="round" d=" M 150.587, 100.195 148.839, 97.268 " />
            <path fill="none" stroke-width="3.0" stroke-linecap="butt" stroke-opacity="1.0" stroke="rgb(0, 0, 0)" stroke-linejoin="round" d=" M 165.599, 230.130 162.766, 228.036 " />
            <path fill="none" stroke-width="3.0" stroke-linecap="butt" stroke-opacity="1.0" stroke="rgb(0, 0, 0)" stroke-linejoin="round" d=" M 164.683, 228.436 164.248, 228.106 " />
            <path fill="none" stroke-width="3.0" stroke-linecap="butt" stroke-opacity="1.0" stroke="rgb(0, 0, 0)" stroke-linejoin="round" d=" M 299.313, 259.215 299.544, 259.253 " />
            <path fill="none" stroke-width="3.0" stroke-linecap="butt" stroke-opacity="1.0" stroke="rgb(0, 0, 0)" stroke-linejoin="round" d=" M 301.228, 255.782 301.950, 255.359 " />
            <path fill="none" stroke-width="3.0" stroke-linecap="butt" stroke-opacity="1.0" stroke="rgb(0, 0, 0)" stroke-linejoin="round" d=" M 307.820, 243.076 308.135, 242.492 309.005, 240.882 " />
            <path fill="none" stroke-width="3.0" stroke-linecap="butt" stroke-opacity="1.0" stroke="rgb(0, 0, 0)" stroke-linejoin="round" d=" M 317.171, 314.519 317.432, 316.092 317.436, 316.116 317.536, 316.713 " />
        </g>
    </g>
</svg>
