<?xml version='1.0' encoding='ascii'?>
<svg xmlns="http://www.w3.org/2000/svg" xmlns:inkscape="http://www.inkscape.org/namespaces/inkscape" version="1.1" width="400" height="400">
    <g id="ViewLayer_LineSet" inkscape:groupmode="lineset" inkscape:label="ViewLayer_LineSet">
        <g xmlns:inkscape="http://www.inkscape.org/namespaces/inkscape" inkscape:groupmode="layer" inkscape:label="fills" id="fills">
            <path fill_rule="evenodd" stroke="none" fill-opacity="1.0" fill="rgb(68, 34, 21)" d=" M 313.006, 233.748 312.599, 233.015 312.470, 232.215 312.284, 230.196 311.772, 227.628 310.867, 224.009 310.192, 221.031 309.863, 219.604 309.726, 218.567 313.252, 209.937 313.258, 209.920 313.523, 209.355 317.541, 201.375 318.822, 192.953 318.098, 182.288 315.688, 174.794 312.466, 168.063 310.687, 165.288 310.324, 164.643 310.553, 162.775 311.276, 160.753 311.950, 159.154 312.580, 157.733 312.616, 156.618 312.542, 155.712 312.003, 154.869 311.134, 154.050 310.190, 153.713 309.305, 153.772 307.467, 153.937 305.253, 154.433 302.848, 155.067 301.851, 155.399 299.658, 153.531 293.988, 149.922 288.905, 146.798 283.825, 144.136 278.133, 141.504 271.088, 138.341 264.211, 134.354 257.314, 130.806 250.496, 127.965 243.632, 125.320 236.709, 122.777 235.128, 122.262 230.397, 120.302 222.780, 116.467 215.749, 112.219 213.409, 110.433 205.932, 104.614 198.291, 99.060 190.402, 94.001 183.614, 90.029 175.314, 85.611 166.935, 82.535 158.515, 80.648 150.830, 79.866 143.143, 79.840 136.702, 80.227 129.236, 81.085 121.660, 82.559 114.032, 84.704 109.501, 86.506 103.404, 89.269 98.902, 91.975 93.657, 95.033 86.177, 101.153 82.593, 105.239 80.620, 107.700 78.573, 110.235 77.369, 111.968 74.841, 116.542 72.181, 121.219 68.948, 127.030 66.215, 132.150 64.206, 136.625 63.477, 138.131 61.342, 144.306 59.967, 151.529 59.022, 160.641 58.781, 169.647 58.985, 176.486 59.516, 182.857 60.265, 189.073 60.985, 194.260 61.625, 199.356 61.530, 200.307 60.276, 205.199 58.482, 210.163 56.572, 214.823 54.766, 219.259 53.416, 223.651 52.482, 227.788 51.182, 231.842 50.382, 235.899 51.233, 239.829 54.097, 246.219 58.030, 251.389 61.952, 255.891 65.571, 259.989 69.735, 264.008 72.659, 266.293 74.835, 267.570 77.766, 268.273 79.461, 268.197 80.315, 267.859 82.755, 268.003 84.139, 268.472 85.354, 268.983 86.487, 269.526 87.723, 270.210 89.096, 271.294 89.626, 271.880 90.012, 271.953 90.135, 271.814 89.927, 270.803 88.671, 269.162 87.457, 268.183 86.309, 267.350 85.064, 266.529 84.490, 266.106 86.276, 266.190 89.675, 266.854 90.633, 267.228 91.636, 267.754 92.101, 268.073 92.361, 268.273 92.924, 268.752 93.734, 269.687 94.066, 270.105 94.198, 270.097 94.324, 270.082 94.427, 269.998 94.287, 269.378 93.573, 268.141 93.047, 267.492 92.353, 266.717 91.395, 265.804 90.469, 264.912 89.921, 264.370 90.910, 264.014 91.110, 263.962 92.715, 264.252 93.407, 264.624 94.447, 265.334 95.217, 266.024 96.084, 266.877 96.956, 268.082 97.263, 268.587 97.452, 268.768 97.565, 268.641 97.477, 268.000 96.812, 266.472 96.036, 265.338 95.332, 264.411 94.389, 263.293 93.648, 262.335 93.014, 261.498 94.733, 261.847 95.596, 262.359 96.694, 263.166 97.327, 263.865 98.173, 264.904 98.764, 265.827 98.989, 265.957 99.194, 266.001 99.215, 265.825 98.987, 264.922 98.243, 263.427 97.647, 262.424 96.684, 261.149 95.726, 259.883 94.901, 258.931 94.841, 258.833 95.067, 258.901 96.476, 259.547 97.248, 259.983 98.155, 260.714 98.995, 261.531 99.503, 262.216 99.910, 262.927 100.224, 263.655 100.366, 263.835 100.555, 263.873 100.653, 263.697 100.663, 263.050 100.328, 262.055 99.816, 261.088 99.015, 260.015 98.057, 258.980 97.217, 258.205 95.824, 256.887 94.828, 255.934 94.355, 255.373 93.011, 253.685 89.555, 249.845 88.631, 248.728 86.685, 246.066 84.361, 242.741 84.147, 242.409 87.567, 240.988 92.151, 238.744 96.293, 235.848 100.385, 232.792 103.764, 229.550 106.841, 225.819 109.606, 222.228 112.004, 218.942 114.202, 215.374 116.087, 211.638 117.177, 208.053 118.274, 205.109 119.468, 204.242 119.747, 204.922 121.124, 208.149 120.922, 211.778 120.841, 216.924 121.327, 221.994 121.564, 226.859 122.347, 231.432 123.656, 235.149 125.401, 238.508 127.223, 240.324 131.167, 243.585 135.527, 246.365 140.346, 248.922 142.896, 250.225 145.492, 251.910 147.063, 252.997 149.328, 253.595 150.516, 253.551 152.081, 253.134 153.564, 252.694 154.216, 252.715 155.770, 252.941 156.688, 253.264 158.223, 253.962 159.344, 254.547 160.182, 255.075 160.973, 255.617 161.762, 256.296 162.406, 257.013 162.842, 257.045 162.810, 256.138 162.101, 254.992 161.399, 254.035 160.565, 253.272 159.489, 252.276 158.411, 251.444 159.165, 251.169 161.036, 251.474 162.421, 252.077 163.502, 252.724 164.383, 253.403 165.393, 254.267 166.265, 255.171 166.386, 255.192 166.833, 255.213 166.401, 254.151 165.440, 252.779 164.587, 251.655 163.461, 250.482 162.913, 249.852 163.026, 249.807 164.214, 250.159 165.127, 250.697 165.847, 251.209 166.569, 251.789 167.454, 252.590 167.791, 252.957 167.986, 253.204 168.400, 253.766 168.735, 254.279 169.041, 254.366 169.244, 254.297 169.218, 253.596 168.968, 252.844 168.538, 251.999 167.754, 250.853 167.064, 249.962 166.275, 248.984 165.398, 247.710 165.156, 247.274 167.727, 247.938 168.529, 248.284 169.010, 248.583 171.073, 255.005 174.223, 268.035 175.765, 275.538 177.338, 283.307 179.797, 290.907 183.420, 298.320 187.440, 305.549 189.994, 310.852 191.706, 313.679 193.392, 316.449 196.290, 318.966 199.277, 320.736 202.731, 322.385 206.087, 323.636 207.440, 324.228 210.152, 324.817 211.524, 324.741 214.139, 324.735 215.356, 325.096 216.456, 325.503 217.156, 325.794 218.676, 326.732 219.136, 326.809 219.357, 326.415 218.947, 325.640 218.470, 325.150 217.628, 324.460 217.105, 324.082 216.522, 323.649 217.630, 323.650 218.771, 323.230 221.430, 323.612 222.732, 324.293 223.478, 324.776 223.958, 325.126 225.706, 326.738 226.179, 326.986 226.368, 326.571 225.940, 325.344 225.324, 324.433 224.607, 323.530 224.184, 323.086 223.524, 322.418 222.790, 321.665 223.586, 321.338 225.994, 321.952 226.090, 321.997 227.070, 322.481 228.281, 323.257 228.284, 323.259 229.366, 324.314 230.188, 325.146 230.907, 326.003 231.162, 326.095 231.365, 325.778 231.292, 325.164 230.667, 324.039 230.039, 323.149 229.126, 321.936 228.248, 320.989 227.123, 319.861 226.656, 319.446 226.709, 319.433 228.385, 319.856 229.180, 320.227 230.342, 320.984 231.220, 321.805 232.059, 322.696 232.823, 323.595 233.077, 323.687 233.228, 323.429 233.053, 322.906 232.362, 321.788 231.667, 320.864 230.867, 319.878 229.716, 318.700 228.960, 317.885 228.068, 317.061 227.729, 316.454 227.378, 315.960 228.793, 316.563 229.869, 317.396 230.714, 318.155 231.317, 318.880 231.905, 319.604 232.362, 320.128 232.561, 320.176 232.716, 319.991 232.650, 319.594 232.308, 318.860 231.872, 318.063 231.416, 317.267 230.686, 316.228 229.791, 315.017 228.771, 314.024 228.443, 313.503 227.530, 312.302 225.255, 310.180 221.937, 307.061 219.937, 305.398 217.913, 303.729 215.576, 301.576 213.879, 299.912 212.857, 297.634 212.636, 294.925 213.537, 289.926 214.959, 284.997 216.557, 278.958 218.287, 273.320 220.185, 267.986 222.306, 262.880 223.920, 260.547 228.069, 255.595 231.286, 252.357 235.108, 248.383 237.846, 244.972 239.550, 249.515 242.989, 258.147 247.619, 266.728 252.039, 274.522 256.827, 282.066 261.741, 289.377 266.631, 295.471 270.096, 301.303 272.686, 305.261 273.964, 307.269 276.413, 309.549 279.210, 311.606 282.688, 314.448 285.376, 316.312 287.757, 317.120 288.972, 317.772 290.857, 318.822 293.229, 319.826 295.325, 320.205 296.373, 320.066 297.825, 319.798 299.269, 319.377 301.004, 319.590 302.113, 319.840 303.202, 320.214 304.378, 320.787 305.257, 321.337 305.909, 321.735 306.117, 321.708 306.214, 321.460 306.070, 321.013 305.485, 320.368 304.789, 319.725 303.871, 318.945 303.147, 318.429 303.413, 318.319 304.346, 318.024 306.232, 318.111 307.229, 318.405 308.234, 318.899 309.155, 319.539 310.005, 320.235 310.986, 321.152 311.246, 321.290 311.390, 321.028 311.217, 320.473 310.424, 319.439 309.656, 318.605 308.861, 317.744 307.922, 316.881 307.130, 316.075 307.666, 315.852 309.663, 316.325 310.882, 316.792 311.863, 317.366 312.794, 318.083 313.805, 318.968 314.656, 319.787 314.880, 319.931 315.062, 319.608 314.965, 318.984 314.304, 317.946 313.480, 316.930 312.727, 316.051 311.878, 315.259 310.881, 314.250 310.036, 313.474 310.008, 313.432 311.623, 313.718 312.568, 314.046 313.567, 314.573 315.051, 315.545 316.489, 316.426 316.653, 316.015 316.172, 314.858 315.634, 314.219 315.017, 313.578 314.267, 312.841 313.387, 312.034 313.016, 311.644 313.187, 311.761 313.670, 312.162 313.863, 312.366 314.450, 312.928 314.816, 313.117 315.015, 312.747 314.804, 311.752 314.368, 311.009 313.822, 310.285 313.326, 309.735 312.692, 309.070 311.973, 308.214 311.059, 307.154 310.360, 306.219 307.973, 304.038 305.322, 301.496 302.628, 299.177 299.902, 296.658 297.253, 293.919 295.924, 290.598 294.777, 285.478 293.082, 279.702 291.570, 273.324 290.412, 266.389 290.173, 258.947 289.891, 251.310 291.053, 243.763 291.573, 237.649 292.563, 238.154 293.069, 238.463 295.878, 240.438 298.658, 242.163 301.448, 243.429 304.030, 243.701 305.936, 243.341 307.413, 242.508 308.253, 241.452 309.269, 241.120 309.789, 240.820 311.248, 239.429 312.025, 237.763 312.426, 236.668 312.430, 236.603 312.475, 236.620 312.604, 236.525 312.794, 236.431 312.932, 236.284 313.212, 235.470 313.229, 234.815 313.006, 233.748  z M 164.915, 236.867 161.420, 233.761 159.274, 232.162 164.466, 233.427 166.404, 233.699 166.602, 235.619 167.162, 239.618 167.000, 239.491 166.640, 238.900 164.915, 236.867  z  M 167.673, 244.552 168.119, 244.803 168.181, 245.107 167.673, 244.552  z" />
        </g>
        <g inkscape:groupmode="layer" id="strokes" inkscape:label="strokes">
            <path fill="none" stroke-width="3.0" stroke-linecap="butt" stroke-opacity="1.0" stroke="rgb(0, 0, 0)" stroke-linejoin="round" d=" M 309.372, 237.909 309.472, 237.701 309.474, 237.698 309.476, 237.693 309.478, 237.689 309.495, 237.655 309.502, 237.640 309.627, 237.383 309.718, 237.194 310.285, 236.420 311.304, 235.961 311.769, 235.996 311.812, 235.999 311.845, 236.002 311.989, 236.013 312.045, 236.017 312.302, 236.265 312.370, 236.330 312.423, 236.475 312.436, 236.511 312.461, 236.580 312.461, 236.582 312.475, 236.620 " />
            <path fill="none" stroke-width="3.0" stroke-linecap="butt" stroke-opacity="1.0" stroke="rgb(0, 0, 0)" stroke-linejoin="round" d=" M 312.932, 236.284 313.212, 235.470 313.229, 234.815 313.006, 233.748 312.599, 233.015 312.570, 232.962 312.532, 232.894 312.505, 232.845 312.497, 232.832 312.068, 232.058 311.907, 231.622 311.799, 231.330 " />
            <path fill="none" stroke-width="3.0" stroke-linecap="butt" stroke-opacity="1.0" stroke="rgb(0, 0, 0)" stroke-linejoin="round" d=" M 312.604, 236.525 312.794, 236.431 312.932, 236.284 312.806, 236.377 312.604, 236.525 312.475, 236.620 312.430, 236.603 312.377, 236.582 312.276, 236.543 312.196, 236.511 312.048, 236.454 " />
            <path fill="none" stroke-width="3.0" stroke-linecap="butt" stroke-opacity="1.0" stroke="rgb(0, 0, 0)" stroke-linejoin="round" d=" M 311.863, 236.097 312.048, 236.454 312.161, 236.518 312.190, 236.524 312.276, 236.543 " />
            <path fill="none" stroke-width="3.0" stroke-linecap="butt" stroke-opacity="1.0" stroke="rgb(0, 0, 0)" stroke-linejoin="round" d=" M 302.610, 240.677 304.242, 241.337 305.953, 241.542 307.414, 241.268 308.859, 240.689 309.038, 240.617 310.660, 239.431 310.695, 239.389 311.136, 238.808 311.755, 237.994 " />
            <path fill="none" stroke-width="3.0" stroke-linecap="butt" stroke-opacity="1.0" stroke="rgb(0, 0, 0)" stroke-linejoin="round" d=" M 288.452, 234.546 289.027, 234.839 289.145, 234.899 289.663, 235.163 291.473, 236.399 291.520, 236.431 291.653, 236.522 291.667, 236.534 294.644, 238.884 297.321, 240.993 299.227, 242.100 301.210, 242.743 303.510, 242.835 305.367, 242.318 306.588, 241.712 307.813, 241.595 308.253, 241.452 309.269, 241.120 309.789, 240.820 311.248, 239.429 312.025, 237.763 312.426, 236.668 312.430, 236.603 " />
            <path fill="none" stroke-width="3.0" stroke-linecap="butt" stroke-opacity="1.0" stroke="rgb(0, 0, 0)" stroke-linejoin="round" d=" M 306.432, 208.507 307.393, 208.081 308.050, 207.242 " />
            <path fill="none" stroke-width="3.0" stroke-linecap="butt" stroke-opacity="1.0" stroke="rgb(0, 0, 0)" stroke-linejoin="round" d=" M 304.704, 207.987 304.741, 207.952 305.360, 207.364 305.390, 207.335 305.491, 207.240 305.529, 207.204 " />
            <path fill="none" stroke-width="3.0" stroke-linecap="butt" stroke-opacity="1.0" stroke="rgb(0, 0, 0)" stroke-linejoin="round" d=" M 312.470, 232.215 312.284, 230.196 311.772, 227.628 310.867, 224.009 310.192, 221.031 309.863, 219.604 309.675, 218.788 309.561, 218.293 " />
            <path fill="none" stroke-width="3.0" stroke-linecap="butt" stroke-opacity="1.0" stroke="rgb(0, 0, 0)" stroke-linejoin="round" d=" M 306.456, 206.555 306.855, 206.359 306.996, 206.290 307.474, 206.088 307.753, 205.970 308.112, 205.838 308.416, 205.726 308.899, 205.581 309.248, 205.499 309.523, 205.435 " />
            <path fill="none" stroke-width="3.0" stroke-linecap="butt" stroke-opacity="1.0" stroke="rgb(0, 0, 0)" stroke-linejoin="round" d=" M 309.726, 218.567 313.252, 209.937 313.258, 209.920 315.326, 204.398 316.486, 199.494 316.674, 197.230 " />
            <path fill="none" stroke-width="3.0" stroke-linecap="butt" stroke-opacity="1.0" stroke="rgb(0, 0, 0)" stroke-linejoin="round" d=" M 302.371, 159.461 300.127, 160.984 298.200, 162.616 296.433, 164.260 " />
            <path fill="none" stroke-width="3.0" stroke-linecap="butt" stroke-opacity="1.0" stroke="rgb(0, 0, 0)" stroke-linejoin="round" d=" M 311.826, 155.626 312.542, 155.712 " />
            <path fill="none" stroke-width="3.0" stroke-linecap="butt" stroke-opacity="1.0" stroke="rgb(0, 0, 0)" stroke-linejoin="round" d=" M 310.213, 165.551 310.324, 164.643 310.553, 162.775 311.276, 160.753 311.950, 159.154 312.580, 157.733 312.616, 156.618 312.542, 155.712 312.003, 154.869 311.134, 154.050 310.190, 153.713 309.305, 153.772 307.467, 153.937 305.253, 154.433 302.848, 155.067 301.851, 155.399 300.356, 155.898 297.341, 155.945 " />
            <path fill="none" stroke-width="3.0" stroke-linecap="butt" stroke-opacity="1.0" stroke="rgb(0, 0, 0)" stroke-linejoin="round" d=" M 297.935, 165.088 299.374, 165.462 303.359, 165.178 " />
            <path fill="none" stroke-width="3.0" stroke-linecap="butt" stroke-opacity="1.0" stroke="rgb(0, 0, 0)" stroke-linejoin="round" d=" M 307.822, 164.933 310.213, 165.551 " />
            <path fill="none" stroke-width="3.0" stroke-linecap="butt" stroke-opacity="1.0" stroke="rgb(0, 0, 0)" stroke-linejoin="round" d=" M 304.080, 160.529 305.903, 159.544 305.951, 159.518 308.290, 158.253 " />
            <path fill="none" stroke-width="3.0" stroke-linecap="butt" stroke-opacity="1.0" stroke="rgb(0, 0, 0)" stroke-linejoin="round" d=" M 313.258, 209.920 313.523, 209.355 317.541, 201.375 318.822, 192.953 318.145, 182.976 318.098, 182.288 315.688, 174.794 312.466, 168.063 310.687, 165.288 310.324, 164.643 " />
            <path fill="none" stroke-width="3.0" stroke-linecap="butt" stroke-opacity="1.0" stroke="rgb(0, 0, 0)" stroke-linejoin="round" d=" M 215.749, 112.219 213.409, 110.433 205.932, 104.614 198.291, 99.060 190.402, 94.001 183.614, 90.029 175.314, 85.611 166.935, 82.535 158.515, 80.648 150.830, 79.866 143.143, 79.840 136.702, 80.227 129.236, 81.085 121.660, 82.559 114.032, 84.704 109.501, 86.506 103.404, 89.269 98.902, 91.975 93.657, 95.033 86.177, 101.153 82.593, 105.239 80.620, 107.700 78.573, 110.235 77.369, 111.968 74.841, 116.542 72.181, 121.219 68.948, 127.030 66.215, 132.150 64.206, 136.625 " />
            <path fill="none" stroke-width="3.0" stroke-linecap="butt" stroke-opacity="1.0" stroke="rgb(0, 0, 0)" stroke-linejoin="round" d=" M 271.088, 138.341 264.211, 134.354 257.314, 130.806 250.496, 127.965 243.632, 125.320 236.709, 122.777 235.128, 122.262 230.781, 120.845 " />
            <path fill="none" stroke-width="3.0" stroke-linecap="butt" stroke-opacity="1.0" stroke="rgb(0, 0, 0)" stroke-linejoin="round" d=" M 235.128, 122.262 230.397, 120.302 222.780, 116.467 215.749, 112.219 215.293, 111.943 " />
            <path fill="none" stroke-width="3.0" stroke-linecap="butt" stroke-opacity="1.0" stroke="rgb(0, 0, 0)" stroke-linejoin="round" d=" M 121.124, 208.149 120.922, 211.778 120.841, 216.924 121.327, 221.994 121.564, 226.859 122.347, 231.432 123.656, 235.149 125.401, 238.508 127.223, 240.324 131.167, 243.585 135.527, 246.365 140.346, 248.922 142.896, 250.225 145.492, 251.910 147.063, 252.997 149.328, 253.595 150.516, 253.551 152.081, 253.134 153.564, 252.694 " />
            <path fill="none" stroke-width="3.0" stroke-linecap="butt" stroke-opacity="1.0" stroke="rgb(0, 0, 0)" stroke-linejoin="round" d=" M 237.846, 244.972 239.550, 249.515 242.989, 258.147 247.619, 266.728 252.039, 274.522 256.827, 282.066 261.741, 289.377 266.631, 295.471 270.096, 301.303 272.686, 305.261 273.964, 307.269 276.413, 309.549 279.210, 311.606 282.688, 314.448 285.376, 316.312 287.757, 317.120 " />
            <path fill="none" stroke-width="3.0" stroke-linecap="butt" stroke-opacity="1.0" stroke="rgb(0, 0, 0)" stroke-linejoin="round" d=" M 297.536, 294.627 297.253, 293.919 295.924, 290.598 294.777, 285.478 293.082, 279.702 291.570, 273.324 290.412, 266.389 290.173, 258.947 289.891, 251.310 291.053, 243.763 291.573, 237.649 " />
            <path fill="none" stroke-width="3.0" stroke-linecap="butt" stroke-opacity="1.0" stroke="rgb(0, 0, 0)" stroke-linejoin="round" d=" M 140.909, 235.540 148.712, 232.495 152.612, 230.378 " />
            <path fill="none" stroke-width="3.0" stroke-linecap="butt" stroke-opacity="1.0" stroke="rgb(0, 0, 0)" stroke-linejoin="round" d=" M 301.851, 155.399 299.658, 153.531 293.988, 149.922 288.905, 146.798 283.825, 144.136 278.133, 141.504 271.088, 138.341 270.667, 138.152 " />
            <path fill="none" stroke-width="3.0" stroke-linecap="butt" stroke-opacity="1.0" stroke="rgb(0, 0, 0)" stroke-linejoin="round" d=" M 313.279, 311.746 313.670, 312.162 313.863, 312.366 314.450, 312.928 314.816, 313.117 315.015, 312.747 314.804, 311.752 314.368, 311.009 313.822, 310.285 313.326, 309.735 312.692, 309.070 311.973, 308.214 311.059, 307.154 310.360, 306.219 307.973, 304.038 305.322, 301.496 302.628, 299.177 299.902, 296.658 297.253, 293.919 " />
            <path fill="none" stroke-width="3.0" stroke-linecap="butt" stroke-opacity="1.0" stroke="rgb(0, 0, 0)" stroke-linejoin="round" d=" M 302.023, 319.809 302.113, 319.840 303.202, 320.214 304.378, 320.787 305.257, 321.337 305.909, 321.735 306.117, 321.708 306.214, 321.460 306.070, 321.013 305.485, 320.368 304.789, 319.725 303.871, 318.945 303.147, 318.429 302.883, 318.241 301.866, 317.473 300.746, 316.780 300.183, 316.219 300.046, 315.378 " />
            <path fill="none" stroke-width="3.0" stroke-linecap="butt" stroke-opacity="1.0" stroke="rgb(0, 0, 0)" stroke-linejoin="round" d=" M 301.273, 318.086 302.274, 318.616 302.446, 318.707 303.580, 319.287 304.560, 320.014 305.316, 320.608 305.961, 321.140 306.058, 321.636 305.909, 321.735 " />
            <path fill="none" stroke-width="3.0" stroke-linecap="butt" stroke-opacity="1.0" stroke="rgb(0, 0, 0)" stroke-linejoin="round" d=" M 303.790, 317.998 304.346, 318.024 306.232, 318.111 307.229, 318.405 308.234, 318.899 309.155, 319.539 310.005, 320.235 310.986, 321.152 311.246, 321.290 311.390, 321.028 311.217, 320.473 310.424, 319.439 309.656, 318.605 308.861, 317.744 307.922, 316.881 307.130, 316.075 307.036, 315.980 306.315, 315.457 306.127, 315.321 305.840, 314.680 305.166, 313.499 305.084, 313.355 305.065, 313.321 304.084, 310.209 " />
            <path fill="none" stroke-width="3.0" stroke-linecap="butt" stroke-opacity="1.0" stroke="rgb(0, 0, 0)" stroke-linejoin="round" d=" M 306.419, 316.432 307.488, 317.187 308.567, 317.950 309.412, 318.767 310.228, 319.557 311.102, 320.541 311.214, 321.147 311.246, 321.290 " />
            <path fill="none" stroke-width="3.0" stroke-linecap="butt" stroke-opacity="1.0" stroke="rgb(0, 0, 0)" stroke-linejoin="round" d=" M 298.891, 312.980 300.046, 315.378 " />
            <path fill="none" stroke-width="3.0" stroke-linecap="butt" stroke-opacity="1.0" stroke="rgb(0, 0, 0)" stroke-linejoin="round" d=" M 302.332, 310.885 304.090, 313.063 304.315, 313.321 304.375, 313.390 305.024, 314.135 305.365, 314.527 305.913, 315.291 307.036, 315.980 " />
            <path fill="none" stroke-width="3.0" stroke-linecap="butt" stroke-opacity="1.0" stroke="rgb(0, 0, 0)" stroke-linejoin="round" d=" M 307.130, 316.075 307.666, 315.852 309.663, 316.325 310.882, 316.792 311.863, 317.366 312.794, 318.083 313.805, 318.968 314.656, 319.787 314.880, 319.931 315.062, 319.608 314.965, 318.984 314.304, 317.946 313.480, 316.930 312.727, 316.051 311.878, 315.259 310.881, 314.250 310.036, 313.474 310.008, 313.432 309.690, 312.949 308.462, 311.198 308.071, 310.423 308.037, 310.356 307.928, 310.138 307.863, 310.009 307.758, 309.802 307.237, 308.768 " />
            <path fill="none" stroke-width="3.0" stroke-linecap="butt" stroke-opacity="1.0" stroke="rgb(0, 0, 0)" stroke-linejoin="round" d=" M 305.738, 308.744 307.250, 310.376 307.263, 310.390 307.355, 310.489 307.515, 310.661 307.552, 310.702 307.967, 311.150 309.399, 312.873 309.798, 313.345 309.822, 313.410 310.246, 314.579 311.417, 315.465 312.376, 316.195 313.173, 317.056 314.070, 318.033 314.849, 319.032 314.886, 319.706 314.880, 319.931 " />
            <path fill="none" stroke-width="3.0" stroke-linecap="butt" stroke-opacity="1.0" stroke="rgb(0, 0, 0)" stroke-linejoin="round" d=" M 310.008, 313.432 311.623, 313.718 312.568, 314.046 313.567, 314.573 315.051, 315.545 316.489, 316.426 316.653, 316.015 316.172, 314.858 315.634, 314.219 315.017, 313.578 314.267, 312.841 313.387, 312.034 313.016, 311.644 312.753, 311.367 312.616, 311.223 311.612, 310.277 311.372, 309.834 311.307, 309.713 310.291, 308.398 309.366, 307.388 308.854, 306.829 307.794, 305.357 " />
            <path fill="none" stroke-width="3.0" stroke-linecap="butt" stroke-opacity="1.0" stroke="rgb(0, 0, 0)" stroke-linejoin="round" d=" M 312.003, 311.590 312.922, 312.308 313.902, 313.072 314.715, 313.778 315.389, 314.387 316.006, 314.969 316.443, 316.154 316.489, 316.426 " />
            <path fill="none" stroke-width="3.0" stroke-linecap="butt" stroke-opacity="1.0" stroke="rgb(0, 0, 0)" stroke-linejoin="round" d=" M 308.203, 306.395 309.891, 308.246 311.124, 309.643 311.400, 310.132 " />
            <path fill="none" stroke-width="3.0" stroke-linecap="butt" stroke-opacity="1.0" stroke="rgb(0, 0, 0)" stroke-linejoin="round" d=" M 311.059, 307.154 311.501, 308.410 312.322, 309.232 312.994, 309.893 313.535, 310.422 314.099, 311.126 314.633, 311.813 314.775, 312.831 314.816, 313.117 " />
            <path fill="none" stroke-width="3.0" stroke-linecap="butt" stroke-opacity="1.0" stroke="rgb(0, 0, 0)" stroke-linejoin="round" d=" M 285.250, 315.777 287.757, 317.120 288.972, 317.772 290.857, 318.822 293.229, 319.826 295.325, 320.205 296.373, 320.066 297.825, 319.798 299.269, 319.377 301.004, 319.590 302.113, 319.840 " />
            <path fill="none" stroke-width="3.0" stroke-linecap="butt" stroke-opacity="1.0" stroke="rgb(0, 0, 0)" stroke-linejoin="round" d=" M 296.147, 319.560 298.709, 319.279 300.722, 319.492 302.023, 319.809 " />
            <path fill="none" stroke-width="3.0" stroke-linecap="butt" stroke-opacity="1.0" stroke="rgb(0, 0, 0)" stroke-linejoin="round" d=" M 307.360, 315.806 309.277, 316.062 310.686, 316.608 " />
            <path fill="none" stroke-width="3.0" stroke-linecap="butt" stroke-opacity="1.0" stroke="rgb(0, 0, 0)" stroke-linejoin="round" d=" M 313.016, 311.644 313.187, 311.761 313.670, 312.162 " />
            <path fill="none" stroke-width="3.0" stroke-linecap="butt" stroke-opacity="1.0" stroke="rgb(0, 0, 0)" stroke-linejoin="round" d=" M 167.000, 239.491 166.640, 238.900 164.915, 236.867 161.420, 233.761 159.274, 232.162 " />
            <path fill="none" stroke-width="3.0" stroke-linecap="butt" stroke-opacity="1.0" stroke="rgb(0, 0, 0)" stroke-linejoin="round" d=" M 162.706, 257.026 162.394, 256.980 161.909, 256.357 161.081, 255.656 160.302, 255.036 159.400, 254.506 158.238, 253.810 156.447, 253.112 155.345, 252.753 154.216, 252.715 153.564, 252.694 153.218, 252.682 " />
            <path fill="none" stroke-width="3.0" stroke-linecap="butt" stroke-opacity="1.0" stroke="rgb(0, 0, 0)" stroke-linejoin="round" d=" M 154.216, 252.715 155.770, 252.941 156.688, 253.264 158.223, 253.962 159.344, 254.547 160.182, 255.075 160.973, 255.617 161.762, 256.296 162.406, 257.013 162.842, 257.045 162.810, 256.138 162.101, 254.992 161.399, 254.035 160.565, 253.272 159.489, 252.276 158.411, 251.444 157.846, 251.008 157.094, 250.259 157.078, 250.243 156.970, 250.136 155.850, 249.111 155.375, 248.470 154.816, 246.490 " />
            <path fill="none" stroke-width="3.0" stroke-linecap="butt" stroke-opacity="1.0" stroke="rgb(0, 0, 0)" stroke-linejoin="round" d=" M 162.842, 257.045 162.706, 257.026 162.660, 256.323 161.912, 255.242 161.138, 254.332 160.245, 253.612 159.087, 252.696 157.547, 251.759 157.268, 251.589 156.182, 250.926 " />
            <path fill="none" stroke-width="3.0" stroke-linecap="butt" stroke-opacity="1.0" stroke="rgb(0, 0, 0)" stroke-linejoin="round" d=" M 166.615, 255.202 166.265, 255.171 165.453, 254.313 164.448, 253.349 " />
            <path fill="none" stroke-width="3.0" stroke-linecap="butt" stroke-opacity="1.0" stroke="rgb(0, 0, 0)" stroke-linejoin="round" d=" M 158.842, 251.116 159.165, 251.169 161.036, 251.474 162.421, 252.077 163.502, 252.724 164.383, 253.403 165.393, 254.267 166.265, 255.171 166.386, 255.192 166.833, 255.213 166.401, 254.151 165.440, 252.779 164.587, 251.655 163.461, 250.482 162.913, 249.852 162.140, 248.964 161.051, 247.993 160.862, 247.589 160.786, 246.666 " />
            <path fill="none" stroke-width="3.0" stroke-linecap="butt" stroke-opacity="1.0" stroke="rgb(0, 0, 0)" stroke-linejoin="round" d=" M 166.833, 255.213 166.615, 255.202 166.240, 254.308 165.218, 253.005 164.346, 251.902 163.178, 250.791 162.405, 250.055 161.734, 249.416 " />
            <path fill="none" stroke-width="3.0" stroke-linecap="butt" stroke-opacity="1.0" stroke="rgb(0, 0, 0)" stroke-linejoin="round" d=" M 167.483, 252.567 167.791, 252.957 167.986, 253.204 168.400, 253.766 168.735, 254.279 169.041, 254.366 169.244, 254.297 169.218, 253.596 168.968, 252.844 168.538, 251.999 167.754, 250.853 167.064, 249.962 166.275, 248.984 165.398, 247.710 165.156, 247.274 164.819, 246.666 164.530, 246.126 163.972, 245.031 163.556, 244.171 163.555, 244.170 163.554, 244.168 163.224, 243.486 " />
            <path fill="none" stroke-width="3.0" stroke-linecap="butt" stroke-opacity="1.0" stroke="rgb(0, 0, 0)" stroke-linejoin="round" d=" M 168.181, 245.107 167.673, 244.552 167.643, 244.520 167.443, 244.300 166.993, 243.634 166.124, 242.188 163.221, 238.162 " />
            <path fill="none" stroke-width="3.0" stroke-linecap="butt" stroke-opacity="1.0" stroke="rgb(0, 0, 0)" stroke-linejoin="round" d=" M 167.168, 239.666 167.113, 239.675 167.035, 239.687 165.766, 239.892 163.221, 238.162 " />
            <path fill="none" stroke-width="3.0" stroke-linecap="butt" stroke-opacity="1.0" stroke="rgb(0, 0, 0)" stroke-linejoin="round" d=" M 154.739, 248.653 155.052, 248.870 155.620, 249.265 " />
            <path fill="none" stroke-width="3.0" stroke-linecap="butt" stroke-opacity="1.0" stroke="rgb(0, 0, 0)" stroke-linejoin="round" d=" M 162.913, 249.852 163.026, 249.807 164.214, 250.159 165.127, 250.697 165.847, 251.209 166.569, 251.789 167.454, 252.590 167.791, 252.957 " />
            <path fill="none" stroke-width="3.0" stroke-linecap="butt" stroke-opacity="1.0" stroke="rgb(0, 0, 0)" stroke-linejoin="round" d=" M 161.852, 246.280 163.056, 246.916 163.124, 246.952 163.134, 246.958 163.199, 246.992 163.719, 247.355 163.780, 247.414 164.626, 248.228 165.681, 249.343 166.535, 250.246 167.250, 251.114 168.095, 252.217 168.564, 253.026 168.911, 253.714 169.041, 254.366 " />
            <path fill="none" stroke-width="3.0" stroke-linecap="butt" stroke-opacity="1.0" stroke="rgb(0, 0, 0)" stroke-linejoin="round" d=" M 312.570, 232.962 312.517, 232.732 312.449, 232.434 312.394, 232.190 311.799, 231.330 311.380, 231.054 " />
            <path fill="none" stroke-width="3.0" stroke-linecap="butt" stroke-opacity="1.0" stroke="rgb(0, 0, 0)" stroke-linejoin="round" d=" M 311.380, 231.054 310.132, 230.619 309.352, 230.662 309.311, 230.664 309.302, 230.665 308.310, 230.720 " />
            <path fill="none" stroke-width="3.0" stroke-linecap="butt" stroke-opacity="1.0" stroke="rgb(0, 0, 0)" stroke-linejoin="round" d=" M 311.136, 238.808 311.783, 237.963 312.377, 236.582 " />
            <path fill="none" stroke-width="3.0" stroke-linecap="butt" stroke-opacity="1.0" stroke="rgb(0, 0, 0)" stroke-linejoin="round" d=" M 309.480, 237.736 309.477, 237.720 309.474, 237.698 " />
            <path fill="none" stroke-width="3.0" stroke-linecap="butt" stroke-opacity="1.0" stroke="rgb(0, 0, 0)" stroke-linejoin="round" d=" M 290.946, 237.169 291.214, 237.332 291.253, 237.356 291.581, 237.556 292.563, 238.154 293.069, 238.463 295.878, 240.438 298.658, 242.163 301.448, 243.429 304.030, 243.701 305.936, 243.341 307.413, 242.508 308.253, 241.452 " />
            <path fill="none" stroke-width="3.0" stroke-linecap="butt" stroke-opacity="1.0" stroke="rgb(0, 0, 0)" stroke-linejoin="round" d=" M 303.147, 318.429 303.413, 318.319 304.346, 318.024 " />
            <path fill="none" stroke-width="3.0" stroke-linecap="butt" stroke-opacity="1.0" stroke="rgb(0, 0, 0)" stroke-linejoin="round" d=" M 310.360, 306.219 307.794, 305.357 " />
            <path fill="none" stroke-width="3.0" stroke-linecap="butt" stroke-opacity="1.0" stroke="rgb(0, 0, 0)" stroke-linejoin="round" d=" M 168.182, 246.032 168.415, 246.258 " />
            <path fill="none" stroke-width="3.0" stroke-linecap="butt" stroke-opacity="1.0" stroke="rgb(0, 0, 0)" stroke-linejoin="round" d=" M 165.156, 247.274 167.727, 247.938 168.529, 248.284 169.010, 248.583 " />
            <path fill="none" stroke-width="3.0" stroke-linecap="butt" stroke-opacity="1.0" stroke="rgb(0, 0, 0)" stroke-linejoin="round" d=" M 164.475, 246.743 164.056, 246.017 163.883, 245.808 163.159, 244.935 " />
            <path fill="none" stroke-width="3.0" stroke-linecap="butt" stroke-opacity="1.0" stroke="rgb(0, 0, 0)" stroke-linejoin="round" d=" M 167.346, 244.278 166.622, 243.513 165.487, 242.068 " />
            <path fill="none" stroke-width="3.0" stroke-linecap="butt" stroke-opacity="1.0" stroke="rgb(0, 0, 0)" stroke-linejoin="round" d=" M 163.224, 243.486 164.354, 243.247 164.360, 243.246 165.398, 243.994 165.835, 244.309 166.606, 244.797 " />
            <path fill="none" stroke-width="3.0" stroke-linecap="butt" stroke-opacity="1.0" stroke="rgb(0, 0, 0)" stroke-linejoin="round" d=" M 161.028, 248.026 160.672, 247.749 160.486, 247.605 159.775, 246.928 " />
            <path fill="none" stroke-width="3.0" stroke-linecap="butt" stroke-opacity="1.0" stroke="rgb(0, 0, 0)" stroke-linejoin="round" d=" M 160.755, 251.123 162.319, 251.918 " />
            <path fill="none" stroke-width="3.0" stroke-linecap="butt" stroke-opacity="1.0" stroke="rgb(0, 0, 0)" stroke-linejoin="round" d=" M 149.328, 253.595 150.131, 252.960 " />
            <path fill="none" stroke-width="3.0" stroke-linecap="butt" stroke-opacity="1.0" stroke="rgb(0, 0, 0)" stroke-linejoin="round" d=" M 300.506, 316.873 299.926, 316.513 299.647, 316.340 " />
            <path fill="none" stroke-width="3.0" stroke-linecap="butt" stroke-opacity="1.0" stroke="rgb(0, 0, 0)" stroke-linejoin="round" d=" M 300.850, 236.515 301.057, 237.932 301.067, 238.002 301.095, 238.197 301.297, 238.527 301.427, 238.740 301.827, 239.185 301.854, 239.215 302.155, 239.379 302.394, 239.509 302.551, 239.495 302.691, 239.481 303.078, 239.397 303.081, 239.392 303.382, 238.979 303.945, 238.403 304.995, 237.826 306.146, 237.625 306.309, 237.597 306.441, 237.698 306.882, 238.041 306.974, 238.652 306.590, 239.197 " />
            <path fill="none" stroke-width="3.0" stroke-linecap="butt" stroke-opacity="1.0" stroke="rgb(0, 0, 0)" stroke-linejoin="round" d=" M 302.511, 239.360 302.394, 239.509 " />
            <path fill="none" stroke-width="3.0" stroke-linecap="butt" stroke-opacity="1.0" stroke="rgb(0, 0, 0)" stroke-linejoin="round" d=" M 284.616, 212.667 284.948, 212.548 285.025, 212.521 285.106, 212.492 " />
            <path fill="none" stroke-width="3.0" stroke-linecap="butt" stroke-opacity="1.0" stroke="rgb(0, 0, 0)" stroke-linejoin="round" d=" M 285.941, 233.474 286.334, 233.940 286.535, 234.178 286.676, 234.345 286.859, 234.562 286.933, 234.650 287.114, 234.865 287.554, 235.188 287.554, 235.189 287.568, 235.199 287.591, 235.216 289.150, 236.361 291.182, 237.449 291.220, 237.469 291.243, 237.481 291.573, 237.649 292.563, 238.154 " />
            <path fill="none" stroke-width="3.0" stroke-linecap="butt" stroke-opacity="1.0" stroke="rgb(0, 0, 0)" stroke-linejoin="round" d=" M 286.799, 214.044 287.883, 213.876 " />
            <path fill="none" stroke-width="3.0" stroke-linecap="butt" stroke-opacity="1.0" stroke="rgb(0, 0, 0)" stroke-linejoin="round" d=" M 283.544, 212.959 284.179, 212.784 284.846, 212.565 284.935, 212.540 285.106, 212.492 285.302, 212.436 285.597, 212.352 286.472, 212.148 287.360, 211.984 288.238, 211.885 288.866, 212.080 " />
            <path fill="none" stroke-width="3.0" stroke-linecap="butt" stroke-opacity="1.0" stroke="rgb(0, 0, 0)" stroke-linejoin="round" d=" M 289.049, 211.975 288.463, 211.909 288.090, 211.867 287.997, 211.856 287.759, 211.829 " />
            <path fill="none" stroke-width="3.0" stroke-linecap="butt" stroke-opacity="1.0" stroke="rgb(0, 0, 0)" stroke-linejoin="round" d=" M 270.393, 170.863 268.414, 170.145 266.413, 169.648 263.875, 169.314 261.470, 169.277 " />
            <path fill="none" stroke-width="3.0" stroke-linecap="butt" stroke-opacity="1.0" stroke="rgb(0, 0, 0)" stroke-linejoin="round" d=" M 252.875, 168.639 251.793, 169.138 250.352, 169.996 248.966, 171.018 248.183, 172.276 247.651, 173.197 247.655, 175.673 248.039, 176.651 248.851, 178.112 249.844, 180.575 " />
            <path fill="none" stroke-width="3.0" stroke-linecap="butt" stroke-opacity="1.0" stroke="rgb(0, 0, 0)" stroke-linejoin="round" d=" M 261.393, 176.520 267.758, 173.605 " />
            <path fill="none" stroke-width="3.0" stroke-linecap="butt" stroke-opacity="1.0" stroke="rgb(0, 0, 0)" stroke-linejoin="round" d=" M 266.013, 172.153 260.078, 173.715 " />
            <path fill="none" stroke-width="3.0" stroke-linecap="butt" stroke-opacity="1.0" stroke="rgb(0, 0, 0)" stroke-linejoin="round" d=" M 249.357, 176.761 249.690, 177.672 249.873, 178.174 250.631, 179.684 251.703, 182.862 " />
            <path fill="none" stroke-width="3.0" stroke-linecap="butt" stroke-opacity="1.0" stroke="rgb(0, 0, 0)" stroke-linejoin="round" d=" M 258.665, 167.034 257.053, 167.597 " />
            <path fill="none" stroke-width="3.0" stroke-linecap="butt" stroke-opacity="1.0" stroke="rgb(0, 0, 0)" stroke-linejoin="round" d=" M 262.660, 167.120 260.730, 167.095 " />
            <path fill="none" stroke-width="3.0" stroke-linecap="butt" stroke-opacity="1.0" stroke="rgb(0, 0, 0)" stroke-linejoin="round" d=" M 256.423, 167.738 255.488, 167.881 253.950, 168.332 252.875, 168.639 256.402, 167.744 256.423, 167.738 256.741, 167.658 257.420, 167.565 257.984, 167.489 258.738, 167.386 260.730, 167.095 258.020, 167.465 257.053, 167.597 255.488, 167.881 " />
            <path fill="none" stroke-width="3.0" stroke-linecap="butt" stroke-opacity="1.0" stroke="rgb(0, 0, 0)" stroke-linejoin="round" d=" M 265.840, 230.134 267.092, 230.580 274.321, 233.150 276.736, 233.977 277.347, 234.159 280.105, 234.980 284.690, 235.191 " />
            <path fill="none" stroke-width="3.0" stroke-linecap="butt" stroke-opacity="1.0" stroke="rgb(0, 0, 0)" stroke-linejoin="round" d=" M 243.129, 238.866 246.764, 239.097 256.758, 238.744 257.356, 238.723 265.714, 236.324 272.129, 235.134 277.347, 234.159 " />
            <path fill="none" stroke-width="3.0" stroke-linecap="butt" stroke-opacity="1.0" stroke="rgb(0, 0, 0)" stroke-linejoin="round" d=" M 118.257, 201.288 118.453, 201.767 118.831, 202.687 119.296, 203.822 119.409, 204.097 119.468, 204.242 119.747, 204.922 121.124, 208.149 122.187, 210.640 124.839, 215.574 132.981, 221.380 136.301, 223.747 145.156, 227.988 152.612, 230.378 154.697, 231.047 159.274, 232.162 164.466, 233.427 166.404, 233.699 " />
            <path fill="none" stroke-width="3.0" stroke-linecap="butt" stroke-opacity="1.0" stroke="rgb(0, 0, 0)" stroke-linejoin="round" d=" M 240.299, 240.962 240.836, 240.564 243.129, 238.866 243.193, 238.818 243.194, 238.818 245.347, 237.223 247.290, 234.829 251.908, 234.399 " />
            <path fill="none" stroke-width="3.0" stroke-linecap="butt" stroke-opacity="1.0" stroke="rgb(0, 0, 0)" stroke-linejoin="round" d=" M 61.625, 199.356 61.530, 200.307 60.276, 205.199 58.482, 210.163 56.572, 214.823 54.766, 219.259 53.416, 223.651 52.482, 227.788 51.182, 231.842 50.382, 235.899 51.233, 239.829 54.097, 246.219 58.030, 251.389 61.952, 255.891 65.571, 259.989 69.735, 264.008 72.659, 266.293 74.835, 267.570 77.766, 268.273 79.461, 268.197 80.315, 267.859 82.755, 268.003 " />
            <path fill="none" stroke-width="3.0" stroke-linecap="butt" stroke-opacity="1.0" stroke="rgb(0, 0, 0)" stroke-linejoin="round" d=" M 78.262, 244.877 79.098, 244.260 81.173, 243.528 83.917, 242.505 84.147, 242.409 87.567, 240.988 92.151, 238.744 96.293, 235.848 100.385, 232.792 103.764, 229.550 106.841, 225.819 109.606, 222.228 112.004, 218.942 114.202, 215.374 116.087, 211.638 117.177, 208.053 118.274, 205.109 119.468, 204.242 " />
            <path fill="none" stroke-width="3.0" stroke-linecap="butt" stroke-opacity="1.0" stroke="rgb(0, 0, 0)" stroke-linejoin="round" d=" M 161.565, 204.369 162.486, 207.303 164.234, 214.542 164.648, 216.257 165.412, 223.845 166.007, 229.872 166.404, 233.699 166.602, 235.619 167.162, 239.618 167.168, 239.666 167.187, 239.796 167.196, 239.864 167.378, 241.167 168.116, 244.788 168.119, 244.803 168.181, 245.107 168.415, 246.258 168.678, 247.553 169.010, 248.583 171.073, 255.005 173.423, 264.725 174.223, 268.035 175.765, 275.538 177.338, 283.307 179.797, 290.907 183.420, 298.320 187.440, 305.549 189.994, 310.852 191.706, 313.679 193.392, 316.449 196.290, 318.966 199.277, 320.736 202.731, 322.385 206.087, 323.636 207.010, 323.980 " />
            <path fill="none" stroke-width="3.0" stroke-linecap="butt" stroke-opacity="1.0" stroke="rgb(0, 0, 0)" stroke-linejoin="round" d=" M 212.777, 299.998 212.597, 295.136 212.636, 294.925 213.537, 289.926 214.959, 284.997 216.557, 278.958 218.287, 273.320 220.185, 267.986 222.306, 262.880 223.920, 260.547 " />
            <path fill="none" stroke-width="3.0" stroke-linecap="butt" stroke-opacity="1.0" stroke="rgb(0, 0, 0)" stroke-linejoin="round" d=" M 221.865, 263.001 223.920, 260.547 228.069, 255.595 231.286, 252.357 235.108, 248.383 237.846, 244.972 237.992, 244.791 240.836, 240.564 " />
            <path fill="none" stroke-width="3.0" stroke-linecap="butt" stroke-opacity="1.0" stroke="rgb(0, 0, 0)" stroke-linejoin="round" d=" M 214.034, 300.258 213.879, 299.912 212.857, 297.634 212.636, 294.925 " />
            <path fill="none" stroke-width="3.0" stroke-linecap="butt" stroke-opacity="1.0" stroke="rgb(0, 0, 0)" stroke-linejoin="round" d=" M 227.378, 315.960 228.793, 316.563 229.869, 317.396 230.714, 318.155 231.317, 318.880 231.905, 319.604 232.362, 320.128 232.561, 320.176 232.716, 319.991 232.650, 319.594 232.308, 318.860 231.872, 318.063 231.416, 317.267 230.686, 316.228 229.791, 315.017 228.771, 314.024 228.443, 313.503 227.530, 312.302 225.255, 310.180 221.937, 307.061 219.937, 305.398 217.913, 303.729 215.576, 301.576 213.879, 299.912 " />
            <path fill="none" stroke-width="3.0" stroke-linecap="butt" stroke-opacity="1.0" stroke="rgb(0, 0, 0)" stroke-linejoin="round" d=" M 229.146, 315.407 230.174, 316.515 231.041, 317.448 231.545, 318.212 232.046, 318.969 232.511, 319.660 232.516, 320.088 " />
            <path fill="none" stroke-width="3.0" stroke-linecap="butt" stroke-opacity="1.0" stroke="rgb(0, 0, 0)" stroke-linejoin="round" d=" M 232.362, 320.128 232.516, 320.088 232.561, 320.176 " />
            <path fill="none" stroke-width="3.0" stroke-linecap="butt" stroke-opacity="1.0" stroke="rgb(0, 0, 0)" stroke-linejoin="round" d=" M 226.615, 319.410 226.709, 319.433 228.385, 319.856 229.180, 320.227 230.342, 320.984 231.220, 321.805 232.059, 322.696 232.823, 323.595 233.077, 323.687 233.228, 323.429 233.053, 322.906 232.362, 321.788 231.667, 320.864 230.867, 319.878 229.716, 318.700 228.960, 317.885 228.068, 317.061 227.729, 316.454 227.378, 315.960 227.356, 315.929 226.541, 314.784 226.014, 314.146 " />
            <path fill="none" stroke-width="3.0" stroke-linecap="butt" stroke-opacity="1.0" stroke="rgb(0, 0, 0)" stroke-linejoin="round" d=" M 228.475, 318.149 229.337, 318.926 230.606, 320.061 231.424, 321.050 232.171, 321.954 232.935, 323.005 233.053, 323.583 233.077, 323.687 " />
            <path fill="none" stroke-width="3.0" stroke-linecap="butt" stroke-opacity="1.0" stroke="rgb(0, 0, 0)" stroke-linejoin="round" d=" M 227.349, 314.175 226.014, 314.146 224.286, 311.818 " />
            <path fill="none" stroke-width="3.0" stroke-linecap="butt" stroke-opacity="1.0" stroke="rgb(0, 0, 0)" stroke-linejoin="round" d=" M 230.188, 325.146 230.907, 326.003 231.162, 326.095 231.365, 325.778 231.292, 325.164 230.667, 324.039 230.039, 323.149 229.126, 321.936 228.248, 320.989 227.123, 319.861 226.656, 319.446 226.615, 319.410 226.563, 319.363 226.159, 319.005 225.785, 318.402 224.637, 316.884 223.001, 314.095 " />
            <path fill="none" stroke-width="3.0" stroke-linecap="butt" stroke-opacity="1.0" stroke="rgb(0, 0, 0)" stroke-linejoin="round" d=" M 226.469, 320.437 227.728, 321.465 228.741, 322.296 229.714, 323.443 230.417, 324.265 231.150, 325.269 231.154, 325.922 231.162, 326.095 " />
            <path fill="none" stroke-width="3.0" stroke-linecap="butt" stroke-opacity="1.0" stroke="rgb(0, 0, 0)" stroke-linejoin="round" d=" M 221.576, 314.541 223.730, 316.624 224.109, 316.990 225.368, 318.403 226.012, 319.180 " />
            <path fill="none" stroke-width="3.0" stroke-linecap="butt" stroke-opacity="1.0" stroke="rgb(0, 0, 0)" stroke-linejoin="round" d=" M 222.495, 318.225 219.387, 316.127 " />
            <path fill="none" stroke-width="3.0" stroke-linecap="butt" stroke-opacity="1.0" stroke="rgb(0, 0, 0)" stroke-linejoin="round" d=" M 216.522, 323.649 217.630, 323.650 218.771, 323.230 221.430, 323.612 222.732, 324.293 223.478, 324.776 223.958, 325.126 225.706, 326.738 226.179, 326.986 226.368, 326.571 225.940, 325.344 225.324, 324.433 224.607, 323.530 224.184, 323.086 223.524, 322.418 222.790, 321.665 222.390, 321.255 221.337, 320.381 220.901, 319.730 220.167, 318.627 219.801, 317.455 219.387, 316.127 " />
            <path fill="none" stroke-width="3.0" stroke-linecap="butt" stroke-opacity="1.0" stroke="rgb(0, 0, 0)" stroke-linejoin="round" d=" M 221.202, 320.386 221.843, 321.768 221.844, 321.769 223.094, 322.806 223.810, 323.404 224.275, 323.793 225.031, 324.655 225.756, 325.473 226.125, 326.746 " />
            <path fill="none" stroke-width="3.0" stroke-linecap="butt" stroke-opacity="1.0" stroke="rgb(0, 0, 0)" stroke-linejoin="round" d=" M 224.122, 325.194 225.127, 326.008 226.058, 326.696 226.125, 326.746 226.179, 326.986 " />
            <path fill="none" stroke-width="3.0" stroke-linecap="butt" stroke-opacity="1.0" stroke="rgb(0, 0, 0)" stroke-linejoin="round" d=" M 217.156, 325.794 218.676, 326.732 219.136, 326.809 219.357, 326.415 218.947, 325.640 218.470, 325.150 217.628, 324.460 217.105, 324.082 216.522, 323.649 216.304, 323.487 215.456, 322.743 214.202, 321.971 " />
            <path fill="none" stroke-width="3.0" stroke-linecap="butt" stroke-opacity="1.0" stroke="rgb(0, 0, 0)" stroke-linejoin="round" d=" M 214.691, 323.426 215.733, 323.977 216.645, 324.481 217.237, 324.808 218.158, 325.448 218.743, 325.837 219.073, 326.688 " />
            <path fill="none" stroke-width="3.0" stroke-linecap="butt" stroke-opacity="1.0" stroke="rgb(0, 0, 0)" stroke-linejoin="round" d=" M 214.086, 324.719 214.139, 324.735 215.356, 325.096 216.456, 325.503 217.156, 325.794 218.308, 326.384 219.073, 326.688 219.136, 326.809 " />
            <path fill="none" stroke-width="3.0" stroke-linecap="butt" stroke-opacity="1.0" stroke="rgb(0, 0, 0)" stroke-linejoin="round" d=" M 214.544, 321.399 213.089, 316.991 213.888, 320.810 214.144, 321.757 214.193, 321.934 214.202, 321.971 214.179, 321.954 214.038, 321.852 214.006, 321.829 213.965, 321.799 213.241, 321.420 " />
            <path fill="none" stroke-width="3.0" stroke-linecap="butt" stroke-opacity="1.0" stroke="rgb(0, 0, 0)" stroke-linejoin="round" d=" M 215.456, 322.743 214.057, 322.141 214.035, 322.132 213.910, 322.020 213.880, 321.993 213.241, 321.420 210.580, 318.973 " />
            <path fill="none" stroke-width="3.0" stroke-linecap="butt" stroke-opacity="1.0" stroke="rgb(0, 0, 0)" stroke-linejoin="round" d=" M 206.087, 323.636 207.440, 324.228 210.152, 324.817 211.524, 324.741 214.139, 324.735 " />
            <path fill="none" stroke-width="3.0" stroke-linecap="butt" stroke-opacity="1.0" stroke="rgb(0, 0, 0)" stroke-linejoin="round" d=" M 225.831, 314.572 226.196, 314.937 227.208, 315.949 227.322, 316.063 227.825, 316.861 228.475, 318.149 227.425, 317.349 " />
            <path fill="none" stroke-width="3.0" stroke-linecap="butt" stroke-opacity="1.0" stroke="rgb(0, 0, 0)" stroke-linejoin="round" d=" M 223.357, 321.279 223.586, 321.338 225.994, 321.952 226.090, 321.997 " />
            <path fill="none" stroke-width="3.0" stroke-linecap="butt" stroke-opacity="1.0" stroke="rgb(0, 0, 0)" stroke-linejoin="round" d=" M 222.390, 321.255 221.202, 320.386 220.645, 319.725 219.880, 318.915 219.544, 318.559 " />
            <path fill="none" stroke-width="3.0" stroke-linecap="butt" stroke-opacity="1.0" stroke="rgb(0, 0, 0)" stroke-linejoin="round" d=" M 97.178, 259.926 97.248, 259.983 98.155, 260.714 98.995, 261.531 99.503, 262.216 99.910, 262.927 100.224, 263.655 100.366, 263.835 100.555, 263.873 100.653, 263.697 100.663, 263.050 100.328, 262.055 99.816, 261.088 99.015, 260.015 98.057, 258.980 97.217, 258.205 95.824, 256.887 94.828, 255.934 94.355, 255.373 93.011, 253.685 89.555, 249.845 88.631, 248.728 " />
            <path fill="none" stroke-width="3.0" stroke-linecap="butt" stroke-opacity="1.0" stroke="rgb(0, 0, 0)" stroke-linejoin="round" d=" M 95.563, 262.335 95.596, 262.359 96.694, 263.166 97.327, 263.865 98.173, 264.904 98.764, 265.827 98.989, 265.957 99.194, 266.001 99.215, 265.825 98.987, 264.922 98.243, 263.427 97.647, 262.424 96.684, 261.149 95.726, 259.883 94.901, 258.931 94.841, 258.833 94.832, 258.818 94.636, 258.497 94.230, 257.671 94.200, 257.609 93.325, 256.434 92.159, 254.481 " />
            <path fill="none" stroke-width="3.0" stroke-linecap="butt" stroke-opacity="1.0" stroke="rgb(0, 0, 0)" stroke-linejoin="round" d=" M 92.479, 264.125 92.631, 264.207 92.715, 264.252 93.407, 264.624 94.447, 265.334 95.217, 266.024 96.084, 266.877 96.956, 268.082 97.263, 268.587 97.452, 268.768 97.565, 268.641 97.477, 268.000 96.812, 266.472 96.036, 265.338 95.332, 264.411 94.389, 263.293 93.648, 262.335 93.014, 261.498 92.948, 261.411 92.932, 261.378 92.927, 261.369 92.681, 260.865 92.417, 260.183 92.338, 259.977 92.151, 259.493 " />
            <path fill="none" stroke-width="3.0" stroke-linecap="butt" stroke-opacity="1.0" stroke="rgb(0, 0, 0)" stroke-linejoin="round" d=" M 91.629, 267.710 92.101, 268.073 92.361, 268.273 92.924, 268.752 93.734, 269.687 94.066, 270.105 94.198, 270.097 94.324, 270.082 94.427, 269.998 94.287, 269.378 93.573, 268.141 93.047, 267.492 92.353, 266.717 91.395, 265.804 90.469, 264.912 89.921, 264.370 89.078, 263.536 88.519, 262.871 88.506, 262.833 88.436, 262.623 87.916, 261.069 " />
            <path fill="none" stroke-width="3.0" stroke-linecap="butt" stroke-opacity="1.0" stroke="rgb(0, 0, 0)" stroke-linejoin="round" d=" M 83.996, 268.412 84.131, 268.469 84.139, 268.472 85.354, 268.983 86.487, 269.526 87.723, 270.210 89.096, 271.294 89.626, 271.880 90.012, 271.953 90.135, 271.814 89.927, 270.803 88.671, 269.162 87.457, 268.183 86.309, 267.350 85.064, 266.529 84.490, 266.106 83.923, 265.689 83.660, 265.495 82.493, 264.644 82.227, 264.450 " />
            <path fill="none" stroke-width="3.0" stroke-linecap="butt" stroke-opacity="1.0" stroke="rgb(0, 0, 0)" stroke-linejoin="round" d=" M 89.921, 264.370 90.910, 264.014 91.074, 263.955 91.110, 263.962 92.715, 264.252 " />
            <path fill="none" stroke-width="3.0" stroke-linecap="butt" stroke-opacity="1.0" stroke="rgb(0, 0, 0)" stroke-linejoin="round" d=" M 84.490, 266.106 86.276, 266.190 89.675, 266.854 90.633, 267.228 91.636, 267.754 92.101, 268.073 " />
            <path fill="none" stroke-width="3.0" stroke-linecap="butt" stroke-opacity="1.0" stroke="rgb(0, 0, 0)" stroke-linejoin="round" d=" M 82.227, 264.450 83.079, 266.039 83.084, 266.048 84.632, 266.953 85.942, 267.730 87.096, 268.556 88.377, 269.464 89.721, 271.036 90.012, 271.953 " />
            <path fill="none" stroke-width="3.0" stroke-linecap="butt" stroke-opacity="1.0" stroke="rgb(0, 0, 0)" stroke-linejoin="round" d=" M 100.366, 263.835 100.340, 263.198 99.891, 262.253 99.428, 261.267 98.530, 260.264 97.584, 259.202 96.660, 258.487 95.049, 257.253 " />
            <path fill="none" stroke-width="3.0" stroke-linecap="butt" stroke-opacity="1.0" stroke="rgb(0, 0, 0)" stroke-linejoin="round" d=" M 98.989, 265.957 98.759, 265.050 97.897, 263.615 97.303, 262.608 96.195, 261.407 95.067, 260.202 " />
            <path fill="none" stroke-width="3.0" stroke-linecap="butt" stroke-opacity="1.0" stroke="rgb(0, 0, 0)" stroke-linejoin="round" d=" M 90.049, 261.178 91.120, 261.701 91.226, 261.753 91.238, 261.759 91.331, 261.804 91.365, 261.821 91.918, 262.189 92.888, 262.910 93.819, 263.754 94.926, 264.779 95.664, 265.683 96.551, 266.740 97.289, 268.204 97.452, 268.768 " />
            <path fill="none" stroke-width="3.0" stroke-linecap="butt" stroke-opacity="1.0" stroke="rgb(0, 0, 0)" stroke-linejoin="round" d=" M 94.066, 270.105 94.324, 270.082 94.123, 269.529 93.369, 268.362 92.800, 267.768 92.097, 267.020 91.027, 266.225 89.976, 265.453 " />
            <path fill="none" stroke-width="3.0" stroke-linecap="butt" stroke-opacity="1.0" stroke="rgb(0, 0, 0)" stroke-linejoin="round" d=" M 287.766, 234.550 288.452, 234.546 " />
            <path fill="none" stroke-width="3.0" stroke-linecap="butt" stroke-opacity="1.0" stroke="rgb(0, 0, 0)" stroke-linejoin="round" d=" M 287.563, 235.199 284.690, 235.191 284.989, 235.119 284.997, 235.117 286.738, 234.697 " />
            <path fill="none" stroke-width="3.0" stroke-linecap="butt" stroke-opacity="1.0" stroke="rgb(0, 0, 0)" stroke-linejoin="round" d=" M 285.027, 234.226 286.088, 234.303 " />
            <path fill="none" stroke-width="3.0" stroke-linecap="butt" stroke-opacity="1.0" stroke="rgb(0, 0, 0)" stroke-linejoin="round" d=" M 228.190, 323.169 228.284, 323.259 229.366, 324.314 230.188, 325.146 230.193, 325.150 " />
            <path fill="none" stroke-width="3.0" stroke-linecap="butt" stroke-opacity="1.0" stroke="rgb(0, 0, 0)" stroke-linejoin="round" d=" M 225.591, 321.751 226.090, 321.997 227.070, 322.481 228.281, 323.257 228.284, 323.259 " />
            <path fill="none" stroke-width="3.0" stroke-linecap="butt" stroke-opacity="1.0" stroke="rgb(0, 0, 0)" stroke-linejoin="round" d=" M 244.827, 229.360 246.563, 233.214 246.692, 233.501 246.725, 233.574 247.114, 234.437 247.290, 234.829 " />
            <path fill="none" stroke-width="3.0" stroke-linecap="butt" stroke-opacity="1.0" stroke="rgb(0, 0, 0)" stroke-linejoin="round" d=" M 82.436, 267.895 82.573, 267.941 82.755, 268.003 84.139, 268.472 " />
            <path fill="none" stroke-width="3.0" stroke-linecap="butt" stroke-opacity="1.0" stroke="rgb(0, 0, 0)" stroke-linejoin="round" d=" M 91.175, 259.812 92.007, 260.861 92.079, 260.952 92.416, 261.423 92.420, 261.429 92.460, 261.484 92.558, 261.622 " />
            <path fill="none" stroke-width="3.0" stroke-linecap="butt" stroke-opacity="1.0" stroke="rgb(0, 0, 0)" stroke-linejoin="round" d=" M 86.573, 261.675 88.005, 263.066 88.050, 263.106 88.250, 263.283 88.365, 263.385 88.826, 263.792 " />
            <path fill="none" stroke-width="3.0" stroke-linecap="butt" stroke-opacity="1.0" stroke="rgb(0, 0, 0)" stroke-linejoin="round" d=" M 82.220, 264.264 81.762, 264.482 81.603, 264.557 81.782, 264.526 82.227, 264.450 82.220, 264.264 82.145, 264.163 80.870, 262.451 " />
            <path fill="none" stroke-width="3.0" stroke-linecap="butt" stroke-opacity="1.0" stroke="rgb(0, 0, 0)" stroke-linejoin="round" d=" M 81.668, 265.318 81.594, 265.305 80.879, 265.183 " />
            <path fill="none" stroke-width="3.0" stroke-linecap="butt" stroke-opacity="1.0" stroke="rgb(0, 0, 0)" stroke-linejoin="round" d=" M 93.550, 257.665 94.220, 258.419 94.476, 258.724 94.644, 258.924 " />
            <path fill="none" stroke-width="3.0" stroke-linecap="butt" stroke-opacity="1.0" stroke="rgb(0, 0, 0)" stroke-linejoin="round" d=" M 92.499, 258.852 93.456, 259.181 " />
            <path fill="none" stroke-width="3.0" stroke-linecap="butt" stroke-opacity="1.0" stroke="rgb(0, 0, 0)" stroke-linejoin="round" d=" M 93.014, 261.498 94.733, 261.847 95.596, 262.359 " />
            <path fill="none" stroke-width="3.0" stroke-linecap="butt" stroke-opacity="1.0" stroke="rgb(0, 0, 0)" stroke-linejoin="round" d=" M 94.841, 258.833 95.067, 258.901 96.476, 259.547 97.248, 259.983 " />
            <path fill="none" stroke-width="3.0" stroke-linecap="butt" stroke-opacity="1.0" stroke="rgb(0, 0, 0)" stroke-linejoin="round" d=" M 88.655, 259.935 88.617, 262.397 " />
            <path fill="none" stroke-width="3.0" stroke-linecap="butt" stroke-opacity="1.0" stroke="rgb(0, 0, 0)" stroke-linejoin="round" d=" M 89.073, 249.333 88.631, 248.728 86.685, 246.066 84.361, 242.741 84.147, 242.409 " />
            <path fill="none" stroke-width="3.0" stroke-linecap="butt" stroke-opacity="1.0" stroke="rgb(0, 0, 0)" stroke-linejoin="round" d=" M 66.234, 132.430 64.206, 136.625 63.477, 138.131 61.342, 144.306 59.967, 151.529 59.022, 160.641 58.781, 169.647 58.985, 176.486 59.516, 182.857 60.265, 189.073 60.985, 194.260 61.625, 199.356 61.677, 199.776 " />
            <path fill="none" stroke-width="3.0" stroke-linecap="butt" stroke-opacity="1.0" stroke="rgb(0, 0, 0)" stroke-linejoin="round" d=" M 118.274, 205.109 116.694, 203.214 " />
            <path fill="none" stroke-width="3.0" stroke-linecap="butt" stroke-opacity="1.0" stroke="rgb(0, 0, 0)" stroke-linejoin="round" d=" M 118.257, 201.288 115.941, 195.277 113.658, 188.579 " />
            <path fill="none" stroke-width="3.0" stroke-linecap="butt" stroke-opacity="1.0" stroke="rgb(0, 0, 0)" stroke-linejoin="round" d=" M 93.305, 255.903 92.159, 254.481 93.511, 255.218 93.305, 255.903 " />
            <path fill="none" stroke-width="3.0" stroke-linecap="butt" stroke-opacity="1.0" stroke="rgb(0, 0, 0)" stroke-linejoin="round" d=" M 228.064, 313.486 228.596, 314.062 " />
            <path fill="none" stroke-width="3.0" stroke-linecap="butt" stroke-opacity="1.0" stroke="rgb(0, 0, 0)" stroke-linejoin="round" d=" M 283.648, 232.821 285.916, 234.198 286.088, 234.303 286.626, 234.630 286.738, 234.697 287.546, 235.188 287.546, 235.188 287.563, 235.199 287.591, 235.216 " />
            <path fill="none" stroke-width="3.0" stroke-linecap="butt" stroke-opacity="1.0" stroke="rgb(0, 0, 0)" stroke-linejoin="round" d=" M 311.629, 156.623 312.616, 156.618 " />
            <path fill="none" stroke-width="3.0" stroke-linecap="butt" stroke-opacity="1.0" stroke="rgb(0, 0, 0)" stroke-linejoin="round" d=" M 290.162, 241.130 291.220, 237.469 " />
            <path fill="none" stroke-width="3.0" stroke-linecap="butt" stroke-opacity="1.0" stroke="rgb(0, 0, 0)" stroke-linejoin="round" d=" M 228.190, 323.169 227.070, 322.481 " />
            <path fill="none" stroke-width="3.0" stroke-linecap="butt" stroke-opacity="1.0" stroke="rgb(0, 0, 0)" stroke-linejoin="round" d=" M 313.279, 311.746 312.753, 311.367 " />
            <path fill="none" stroke-width="3.0" stroke-linecap="butt" stroke-opacity="1.0" stroke="rgb(0, 0, 0)" stroke-linejoin="round" d=" M 288.500, 212.978 288.867, 212.571 " />
            <path fill="none" stroke-width="3.0" stroke-linecap="butt" stroke-opacity="1.0" stroke="rgb(0, 0, 0)" stroke-linejoin="round" d=" M 306.387, 207.848 306.747, 207.513 " />
            <path fill="none" stroke-width="3.0" stroke-linecap="butt" stroke-opacity="1.0" stroke="rgb(0, 0, 0)" stroke-linejoin="round" d=" M 307.296, 206.719 307.473, 206.123 307.474, 206.088 " />
            <path fill="none" stroke-width="3.0" stroke-linecap="butt" stroke-opacity="1.0" stroke="rgb(0, 0, 0)" stroke-linejoin="round" d=" M 82.145, 264.163 81.465, 261.277 " />
            <path fill="none" stroke-width="3.0" stroke-linecap="butt" stroke-opacity="1.0" stroke="rgb(0, 0, 0)" stroke-linejoin="round" d=" M 82.493, 264.644 82.220, 264.264 " />
            <path fill="none" stroke-width="3.0" stroke-linecap="butt" stroke-opacity="1.0" stroke="rgb(0, 0, 0)" stroke-linejoin="round" d=" M 88.506, 262.833 88.617, 262.397 " />
            <path fill="none" stroke-width="3.0" stroke-linecap="butt" stroke-opacity="1.0" stroke="rgb(0, 0, 0)" stroke-linejoin="round" d=" M 90.910, 264.014 91.110, 263.962 " />
            <path fill="none" stroke-width="3.0" stroke-linecap="butt" stroke-opacity="1.0" stroke="rgb(0, 0, 0)" stroke-linejoin="round" d=" M 92.417, 260.183 92.499, 258.852 " />
            <path fill="none" stroke-width="3.0" stroke-linecap="butt" stroke-opacity="1.0" stroke="rgb(0, 0, 0)" stroke-linejoin="round" d=" M 158.411, 251.444 159.165, 251.169 " />
            <path fill="none" stroke-width="3.0" stroke-linecap="butt" stroke-opacity="1.0" stroke="rgb(0, 0, 0)" stroke-linejoin="round" d=" M 167.162, 239.618 167.000, 239.491 166.491, 239.089 " />
            <path fill="none" stroke-width="3.0" stroke-linecap="butt" stroke-opacity="1.0" stroke="rgb(0, 0, 0)" stroke-linejoin="round" d=" M 167.673, 244.552 168.119, 244.803 " />
            <path fill="none" stroke-width="3.0" stroke-linecap="butt" stroke-opacity="1.0" stroke="rgb(0, 0, 0)" stroke-linejoin="round" d=" M 214.193, 321.934 214.544, 321.399 " />
            <path fill="none" stroke-width="3.0" stroke-linecap="butt" stroke-opacity="1.0" stroke="rgb(0, 0, 0)" stroke-linejoin="round" d=" M 222.790, 321.665 223.586, 321.338 " />
            <path fill="none" stroke-width="3.0" stroke-linecap="butt" stroke-opacity="1.0" stroke="rgb(0, 0, 0)" stroke-linejoin="round" d=" M 226.656, 319.446 226.709, 319.433 " />
            <path fill="none" stroke-width="3.0" stroke-linecap="butt" stroke-opacity="1.0" stroke="rgb(0, 0, 0)" stroke-linejoin="round" d=" M 243.193, 238.818 243.223, 238.819 " />
            <path fill="none" stroke-width="3.0" stroke-linecap="butt" stroke-opacity="1.0" stroke="rgb(0, 0, 0)" stroke-linejoin="round" d=" M 289.145, 234.899 289.085, 234.925 " />
            <path fill="none" stroke-width="3.0" stroke-linecap="butt" stroke-opacity="1.0" stroke="rgb(0, 0, 0)" stroke-linejoin="round" d=" M 305.491, 207.240 306.456, 206.555 306.837, 206.284 " />
            <path fill="none" stroke-width="3.0" stroke-linecap="butt" stroke-opacity="1.0" stroke="rgb(0, 0, 0)" stroke-linejoin="round" d=" M 306.146, 237.625 306.882, 238.041 " />
            <path fill="none" stroke-width="3.0" stroke-linecap="butt" stroke-opacity="1.0" stroke="rgb(0, 0, 0)" stroke-linejoin="round" d=" M 308.112, 205.838 308.343, 205.774 " />
            <path fill="none" stroke-width="3.0" stroke-linecap="butt" stroke-opacity="1.0" stroke="rgb(0, 0, 0)" stroke-linejoin="round" d=" M 309.366, 307.388 309.444, 306.942 " />
            <path fill="none" stroke-width="3.0" stroke-linecap="butt" stroke-opacity="1.0" stroke="rgb(0, 0, 0)" stroke-linejoin="round" d=" M 309.863, 219.604 309.726, 218.567 309.726, 218.567 309.726, 218.567 309.537, 217.140 " />
            <path fill="none" stroke-width="3.0" stroke-linecap="butt" stroke-opacity="1.0" stroke="rgb(0, 0, 0)" stroke-linejoin="round" d=" M 311.769, 235.996 311.863, 236.097 311.910, 236.147 " />
            <path fill="none" stroke-width="3.0" stroke-linecap="butt" stroke-opacity="1.0" stroke="rgb(0, 0, 0)" stroke-linejoin="round" d=" M 312.599, 233.015 312.470, 232.215 312.283, 231.061 " />
        </g>
    </g>
</svg>
