<?xml version='1.0' encoding='ascii'?>
<svg xmlns="http://www.w3.org/2000/svg" xmlns:inkscape="http://www.inkscape.org/namespaces/inkscape" version="1.1" width="400" height="400">
    <g id="ViewLayer_LineSet" inkscape:groupmode="lineset" inkscape:label="ViewLayer_LineSet">
        <g xmlns:inkscape="http://www.inkscape.org/namespaces/inkscape" inkscape:groupmode="layer" inkscape:label="fills" id="fills">
            <path fill_rule="evenodd" stroke="none" fill-opacity="1.0" fill="rgb(68, 34, 21)" d=" M 323.222, 103.248 322.592, 102.365 321.703, 101.422 320.523, 100.853 319.259, 100.418 318.069, 100.358 317.156, 100.392 316.813, 100.469 316.109, 100.210 314.099, 99.550 310.633, 98.286 306.910, 97.148 303.717, 96.344 301.010, 95.472 298.960, 94.264 298.752, 94.079 297.509, 92.060 296.801, 90.482 296.574, 89.434 295.526, 87.303 294.129, 85.698 292.335, 83.946 288.171, 81.685 283.190, 78.783 280.431, 77.264 273.770, 74.495 271.357, 73.618 267.353, 72.484 265.261, 71.652 265.151, 71.579 264.585, 69.245 263.674, 67.032 263.296, 65.739 263.132, 64.821 261.835, 62.586 259.973, 61.028 256.788, 59.783 253.210, 60.061 252.864, 60.221 250.117, 61.559 248.646, 63.359 248.385, 63.786 247.273, 65.878 246.458, 68.220 246.192, 69.388 245.932, 70.279 243.789, 72.708 239.787, 74.680 230.496, 78.521 221.512, 83.466 212.627, 88.814 204.115, 94.328 196.196, 99.750 194.693, 100.946 194.175, 101.273 188.083, 105.837 182.354, 110.598 177.552, 114.681 172.350, 118.726 166.330, 122.713 160.259, 125.966 153.524, 128.771 147.021, 131.494 140.312, 134.304 133.424, 137.613 125.963, 141.972 119.088, 146.346 112.859, 151.548 107.231, 157.291 102.763, 162.918 94.455, 173.529 90.675, 179.783 87.299, 184.843 84.501, 190.532 81.459, 195.953 79.861, 199.460 77.210, 207.240 75.768, 212.915 74.230, 221.345 73.730, 226.650 74.037, 234.944 74.321, 240.471 75.240, 245.621 76.735, 250.777 79.293, 258.922 80.795, 262.776 82.424, 266.839 84.087, 271.786 84.733, 273.456 85.155, 276.498 85.070, 282.362 84.879, 288.574 84.965, 294.998 85.371, 301.357 85.506, 307.414 85.933, 313.023 86.797, 321.534 87.352, 325.983 88.467, 329.335 90.925, 332.419 92.623, 333.816 95.366, 335.159 101.090, 335.993 101.410, 336.028 106.744, 335.385 107.339, 335.215 108.947, 334.587 111.801, 333.554 112.789, 333.088 116.707, 331.079 116.636, 331.456 116.005, 338.086 115.104, 344.267 114.772, 350.078 114.971, 355.376 115.569, 358.468 116.209, 361.068 117.305, 362.934 118.590, 364.193 119.781, 365.156 122.733, 366.614 124.666, 367.188 126.814, 367.644 132.316, 368.117 137.610, 368.223 139.014, 368.292 139.884, 368.417 142.212, 368.614 142.384, 368.625 143.703, 368.735 145.760, 368.848 147.871, 368.328 149.664, 368.204 151.275, 367.309 152.181, 366.623 153.626, 364.799 154.618, 362.784 154.808, 361.751 155.378, 360.920 156.299, 360.015 157.138, 359.280 157.804, 358.835 158.039, 358.687 158.785, 358.471 159.177, 358.520 159.367, 358.494 159.507, 358.265 159.544, 357.493 158.975, 357.019 158.515, 356.812 157.790, 356.945 157.153, 357.136 156.395, 357.464 155.484, 357.758 155.203, 357.696 154.348, 358.034 154.301, 358.006 153.900, 356.980 154.542, 356.205 155.212, 355.641 155.551, 355.410 156.045, 355.203 156.428, 355.142 156.968, 355.259 157.236, 355.310 157.378, 355.313 157.449, 355.102 157.442, 354.667 157.123, 354.117 156.839, 353.941 156.451, 353.817 155.977, 353.710 155.185, 353.801 154.414, 353.883 153.835, 353.962 153.903, 353.556 153.450, 352.776 153.022, 352.603 152.269, 352.346 151.642, 352.183 150.734, 352.152 150.825, 352.100 150.828, 352.025 150.548, 351.483 150.330, 351.350 149.387, 350.888 149.402, 350.859 152.354, 346.864 156.578, 340.379 160.672, 334.053 165.366, 326.122 169.514, 318.036 173.041, 309.731 175.865, 301.353 178.078, 292.963 179.881, 285.060 181.911, 277.529 184.199, 269.535 184.357, 268.767 187.355, 267.536 195.362, 262.105 196.681, 261.202 203.390, 256.327 209.249, 250.928 211.053, 248.855 211.015, 249.549 211.296, 257.209 212.314, 266.311 213.847, 273.525 215.711, 280.212 217.377, 285.969 218.486, 289.441 219.698, 291.633 221.943, 294.842 223.899, 296.235 225.647, 297.427 229.741, 298.559 234.418, 298.695 238.915, 297.918 243.052, 296.400 245.933, 294.804 248.687, 292.892 251.946, 290.164 253.624, 287.373 254.478, 286.201 254.602, 285.767 255.018, 285.082 255.600, 284.396 256.178, 283.841 256.574, 283.504 257.143, 283.244 257.361, 282.847 257.328, 282.204 257.116, 282.012 256.836, 281.956 256.405, 281.996 256.108, 282.088 255.647, 282.217 255.112, 282.266 254.740, 282.454 254.654, 282.440 254.600, 282.478 253.543, 282.132 253.032, 281.696 253.946, 280.347 254.382, 280.064 254.929, 279.803 255.292, 279.670 257.023, 279.286 257.128, 279.203 257.353, 278.864 257.057, 277.973 256.844, 277.861 256.237, 277.651 255.617, 277.515 255.249, 277.525 254.688, 277.557 253.850, 277.596 253.612, 277.474 253.214, 277.360 252.366, 277.313 251.862, 277.247 252.163, 277.116 253.087, 276.977 253.712, 276.982 254.576, 276.971 254.723, 276.664 254.699, 276.027 254.238, 275.708 253.929, 275.517 253.352, 275.317 252.556, 275.084 251.705, 275.129 250.668, 275.241 250.588, 275.243 249.983, 275.183 249.381, 275.133 249.129, 275.046 248.436, 274.919 247.687, 274.821 247.037, 274.902 247.950, 272.473 249.175, 267.588 252.320, 258.922 255.238, 251.455 258.555, 243.417 261.753, 234.704 265.057, 225.425 267.591, 216.697 269.433, 207.556 270.435, 198.344 271.235, 188.600 272.103, 177.879 272.376, 168.458 271.551, 158.992 270.250, 153.612 270.815, 152.676 272.162, 150.865 276.009, 148.191 280.636, 144.732 284.208, 140.235 288.229, 135.069 292.063, 132.130 292.632, 131.848 296.741, 129.314 299.937, 127.744 301.885, 126.787 302.897, 126.127 304.377, 125.144 305.967, 124.300 308.576, 123.167 311.124, 121.836 313.158, 120.336 313.577, 119.932 314.013, 119.777 315.734, 118.803 317.140, 117.747 318.171, 116.718 319.329, 115.072 320.308, 113.403 320.826, 112.572 321.398, 112.191 321.895, 111.559 322.052, 110.549 322.028, 110.389 322.233, 110.453 322.701, 110.415 323.124, 110.157 323.515, 109.716 323.842, 108.914 324.056, 107.691 324.196, 106.060 323.954, 104.507 323.222, 103.248  z M 120.702, 309.159 119.933, 308.931 119.248, 308.975 118.656, 308.925 119.468, 306.295 121.616, 300.861 122.874, 296.433 122.898, 296.666 122.838, 301.375 122.161, 306.707 121.631, 309.235 121.404, 309.228 120.702, 309.159  z  M 152.586, 353.929 152.274, 353.744 152.385, 353.734 153.110, 353.970 153.175, 354.011 152.586, 353.929  z" />
        </g>
        <g inkscape:groupmode="layer" id="strokes" inkscape:label="strokes">
            <path fill="none" stroke-width="3.0" stroke-linecap="butt" stroke-opacity="1.0" stroke="rgb(0, 0, 0)" stroke-linejoin="round" d=" M 320.673, 110.694 320.933, 109.939 320.956, 109.874 321.205, 109.149 321.544, 109.921 321.842, 110.330 322.028, 110.389 322.233, 110.453 322.701, 110.415 323.124, 110.157 323.515, 109.716 323.842, 108.914 324.056, 107.691 324.196, 106.060 323.954, 104.507 323.222, 103.248 322.592, 102.365 321.703, 101.422 320.523, 100.853 319.259, 100.418 318.069, 100.358 317.156, 100.392 316.813, 100.469 " />
            <path fill="none" stroke-width="3.0" stroke-linecap="butt" stroke-opacity="1.0" stroke="rgb(0, 0, 0)" stroke-linejoin="round" d=" M 295.526, 87.303 294.129, 85.698 292.335, 83.946 " />
            <path fill="none" stroke-width="3.0" stroke-linecap="butt" stroke-opacity="1.0" stroke="rgb(0, 0, 0)" stroke-linejoin="round" d=" M 317.773, 101.044 317.350, 100.666 316.813, 100.469 316.109, 100.210 314.099, 99.550 310.633, 98.286 306.910, 97.148 303.717, 96.344 301.010, 95.472 298.960, 94.264 " />
            <path fill="none" stroke-width="3.0" stroke-linecap="butt" stroke-opacity="1.0" stroke="rgb(0, 0, 0)" stroke-linejoin="round" d=" M 296.801, 90.482 296.574, 89.434 295.526, 87.303 294.500, 86.181 292.335, 83.946 288.171, 81.685 283.190, 78.783 280.431, 77.264 273.770, 74.495 271.357, 73.618 267.353, 72.484 265.261, 71.652 " />
            <path fill="none" stroke-width="3.0" stroke-linecap="butt" stroke-opacity="1.0" stroke="rgb(0, 0, 0)" stroke-linejoin="round" d=" M 267.697, 73.277 265.261, 71.652 265.151, 71.579 264.585, 69.245 263.674, 67.032 263.296, 65.739 262.970, 64.625 " />
            <path fill="none" stroke-width="3.0" stroke-linecap="butt" stroke-opacity="1.0" stroke="rgb(0, 0, 0)" stroke-linejoin="round" d=" M 263.296, 65.739 263.132, 64.821 261.835, 62.586 259.973, 61.028 256.788, 59.783 253.210, 60.061 252.864, 60.221 250.117, 61.559 248.646, 63.359 248.385, 63.786 247.273, 65.878 246.458, 68.220 246.192, 69.388 " />
            <path fill="none" stroke-width="3.0" stroke-linecap="butt" stroke-opacity="1.0" stroke="rgb(0, 0, 0)" stroke-linejoin="round" d=" M 246.669, 67.757 246.192, 69.388 245.932, 70.279 243.789, 72.708 239.787, 74.680 " />
            <path fill="none" stroke-width="3.0" stroke-linecap="butt" stroke-opacity="1.0" stroke="rgb(0, 0, 0)" stroke-linejoin="round" d=" M 245.709, 72.163 240.548, 74.366 239.787, 74.680 230.496, 78.521 221.735, 83.343 221.512, 83.466 212.944, 88.623 212.627, 88.814 204.234, 94.251 204.115, 94.328 196.196, 99.750 " />
            <path fill="none" stroke-width="3.0" stroke-linecap="butt" stroke-opacity="1.0" stroke="rgb(0, 0, 0)" stroke-linejoin="round" d=" M 201.308, 96.774 200.257, 97.437 194.693, 100.946 194.175, 101.273 188.083, 105.837 182.354, 110.598 177.552, 114.681 172.350, 118.726 166.330, 122.713 160.259, 125.966 153.524, 128.771 147.021, 131.494 140.312, 134.304 133.424, 137.613 125.963, 141.972 119.088, 146.346 112.859, 151.548 107.231, 157.291 102.763, 162.918 96.598, 170.792 94.455, 173.529 90.675, 179.783 87.299, 184.843 84.501, 190.532 83.988, 191.575 " />
            <path fill="none" stroke-width="3.0" stroke-linecap="butt" stroke-opacity="1.0" stroke="rgb(0, 0, 0)" stroke-linejoin="round" d=" M 208.943, 92.489 201.308, 96.774 196.196, 99.750 194.693, 100.946 " />
            <path fill="none" stroke-width="3.0" stroke-linecap="butt" stroke-opacity="1.0" stroke="rgb(0, 0, 0)" stroke-linejoin="round" d=" M 84.733, 273.456 85.155, 276.498 85.070, 282.362 84.879, 288.574 84.965, 294.998 85.371, 301.357 85.506, 307.414 85.933, 313.023 86.797, 321.534 87.352, 325.983 88.467, 329.335 90.925, 332.419 92.623, 333.816 95.366, 335.159 101.090, 335.993 101.410, 336.028 106.744, 335.385 107.339, 335.215 108.947, 334.587 112.789, 333.088 " />
            <path fill="none" stroke-width="3.0" stroke-linecap="butt" stroke-opacity="1.0" stroke="rgb(0, 0, 0)" stroke-linejoin="round" d=" M 84.501, 190.532 81.459, 195.953 79.861, 199.460 77.210, 207.240 75.768, 212.915 74.230, 221.345 73.730, 226.650 74.037, 234.944 74.321, 240.471 75.240, 245.621 76.735, 250.777 79.293, 258.922 80.795, 262.776 82.424, 266.839 84.087, 271.786 84.733, 273.456 85.887, 276.436 " />
            <path fill="none" stroke-width="3.0" stroke-linecap="butt" stroke-opacity="1.0" stroke="rgb(0, 0, 0)" stroke-linejoin="round" d=" M 114.288, 325.530 114.728, 322.885 115.852, 316.865 117.830, 311.600 118.098, 310.734 118.492, 309.455 118.495, 309.447 118.617, 309.050 118.631, 309.005 118.634, 308.996 118.656, 308.925 119.468, 306.295 121.616, 300.861 122.874, 296.433 " />
            <path fill="none" stroke-width="3.0" stroke-linecap="butt" stroke-opacity="1.0" stroke="rgb(0, 0, 0)" stroke-linejoin="round" d=" M 92.927, 231.782 93.933, 235.557 94.362, 240.010 " />
            <path fill="none" stroke-width="3.0" stroke-linecap="butt" stroke-opacity="1.0" stroke="rgb(0, 0, 0)" stroke-linejoin="round" d=" M 94.849, 235.673 94.362, 240.010 94.246, 241.037 94.342, 245.480 94.824, 248.852 95.728, 251.466 96.294, 252.905 97.847, 254.714 99.264, 255.748 101.531, 256.301 103.157, 256.338 104.791, 255.673 106.381, 254.612 107.671, 253.361 " />
            <path fill="none" stroke-width="3.0" stroke-linecap="butt" stroke-opacity="1.0" stroke="rgb(0, 0, 0)" stroke-linejoin="round" d=" M 121.631, 309.235 121.404, 309.228 120.702, 309.159 119.933, 308.931 119.248, 308.975 118.656, 308.925 " />
            <path fill="none" stroke-width="3.0" stroke-linecap="butt" stroke-opacity="1.0" stroke="rgb(0, 0, 0)" stroke-linejoin="round" d=" M 298.752, 94.079 297.509, 92.060 296.801, 90.482 296.242, 89.236 " />
            <path fill="none" stroke-width="3.0" stroke-linecap="butt" stroke-opacity="1.0" stroke="rgb(0, 0, 0)" stroke-linejoin="round" d=" M 121.343, 309.398 121.597, 309.397 " />
            <path fill="none" stroke-width="3.0" stroke-linecap="butt" stroke-opacity="1.0" stroke="rgb(0, 0, 0)" stroke-linejoin="round" d=" M 108.947, 334.587 111.801, 333.554 112.789, 333.088 116.707, 331.079 " />
            <path fill="none" stroke-width="3.0" stroke-linecap="butt" stroke-opacity="1.0" stroke="rgb(0, 0, 0)" stroke-linejoin="round" d=" M 113.353, 265.740 116.133, 266.896 " />
            <path fill="none" stroke-width="3.0" stroke-linecap="butt" stroke-opacity="1.0" stroke="rgb(0, 0, 0)" stroke-linejoin="round" d=" M 120.361, 309.629 120.061, 309.767 " />
            <path fill="none" stroke-width="3.0" stroke-linecap="butt" stroke-opacity="1.0" stroke="rgb(0, 0, 0)" stroke-linejoin="round" d=" M 303.102, 125.532 303.845, 124.646 304.986, 123.594 306.317, 122.752 308.320, 121.822 311.379, 120.714 313.577, 119.932 314.013, 119.777 315.734, 118.803 317.140, 117.747 318.171, 116.718 319.329, 115.072 320.308, 113.403 320.826, 112.572 321.398, 112.191 321.895, 111.559 322.052, 110.549 322.028, 110.389 " />
            <path fill="none" stroke-width="3.0" stroke-linecap="butt" stroke-opacity="1.0" stroke="rgb(0, 0, 0)" stroke-linejoin="round" d=" M 301.789, 110.162 301.865, 109.539 302.006, 109.110 302.013, 109.086 302.167, 108.616 302.543, 107.294 302.671, 106.633 302.818, 106.316 303.182, 105.416 303.542, 104.492 303.626, 104.177 303.775, 103.538 303.867, 102.994 303.834, 101.938 303.770, 100.866 303.436, 99.306 302.887, 98.091 301.055, 95.868 299.440, 94.690 298.874, 94.277 298.838, 94.250 296.617, 92.629 " />
            <path fill="none" stroke-width="3.0" stroke-linecap="butt" stroke-opacity="1.0" stroke="rgb(0, 0, 0)" stroke-linejoin="round" d=" M 302.047, 110.065 302.013, 109.086 " />
            <path fill="none" stroke-width="3.0" stroke-linecap="butt" stroke-opacity="1.0" stroke="rgb(0, 0, 0)" stroke-linejoin="round" d=" M 292.063, 132.130 292.632, 131.848 296.741, 129.314 299.937, 127.744 301.885, 126.787 302.897, 126.127 304.377, 125.144 " />
            <path fill="none" stroke-width="3.0" stroke-linecap="butt" stroke-opacity="1.0" stroke="rgb(0, 0, 0)" stroke-linejoin="round" d=" M 304.188, 125.245 304.377, 125.144 305.967, 124.300 308.576, 123.167 311.124, 121.836 313.158, 120.336 313.577, 119.932 " />
            <path fill="none" stroke-width="3.0" stroke-linecap="butt" stroke-opacity="1.0" stroke="rgb(0, 0, 0)" stroke-linejoin="round" d=" M 296.921, 123.487 297.852, 121.592 297.866, 121.564 297.866, 121.563 298.103, 121.082 298.125, 121.036 298.397, 120.482 299.287, 118.671 299.550, 118.113 301.539, 113.770 301.628, 113.271 301.629, 113.265 301.655, 113.119 " />
            <path fill="none" stroke-width="3.0" stroke-linecap="butt" stroke-opacity="1.0" stroke="rgb(0, 0, 0)" stroke-linejoin="round" d=" M 274.744, 107.771 275.460, 106.286 276.063, 104.822 276.846, 103.214 278.484, 98.901 279.684, 94.513 280.010, 91.122 279.699, 89.551 279.203, 88.590 278.352, 87.735 277.657, 87.013 276.247, 86.765 275.026, 86.765 273.764, 86.857 " />
            <path fill="none" stroke-width="3.0" stroke-linecap="butt" stroke-opacity="1.0" stroke="rgb(0, 0, 0)" stroke-linejoin="round" d=" M 274.744, 107.771 274.595, 110.420 " />
            <path fill="none" stroke-width="3.0" stroke-linecap="butt" stroke-opacity="1.0" stroke="rgb(0, 0, 0)" stroke-linejoin="round" d=" M 272.178, 108.693 272.950, 107.254 274.161, 105.802 " />
            <path fill="none" stroke-width="3.0" stroke-linecap="butt" stroke-opacity="1.0" stroke="rgb(0, 0, 0)" stroke-linejoin="round" d=" M 321.146, 110.522 320.956, 109.874 " />
            <path fill="none" stroke-width="3.0" stroke-linecap="butt" stroke-opacity="1.0" stroke="rgb(0, 0, 0)" stroke-linejoin="round" d=" M 272.162, 150.865 276.009, 148.191 280.636, 144.732 284.208, 140.235 288.229, 135.069 288.325, 134.944 289.897, 133.202 290.006, 133.081 293.281, 129.451 " />
            <path fill="none" stroke-width="3.0" stroke-linecap="butt" stroke-opacity="1.0" stroke="rgb(0, 0, 0)" stroke-linejoin="round" d=" M 266.738, 106.122 266.201, 110.255 " />
            <path fill="none" stroke-width="3.0" stroke-linecap="butt" stroke-opacity="1.0" stroke="rgb(0, 0, 0)" stroke-linejoin="round" d=" M 184.357, 268.767 187.355, 267.536 195.362, 262.105 196.681, 261.202 203.390, 256.327 209.249, 250.928 211.053, 248.855 212.429, 247.273 213.904, 245.578 213.947, 245.528 214.203, 245.234 218.030, 239.904 221.071, 235.557 224.282, 229.387 226.339, 224.401 " />
            <path fill="none" stroke-width="3.0" stroke-linecap="butt" stroke-opacity="1.0" stroke="rgb(0, 0, 0)" stroke-linejoin="round" d=" M 122.318, 291.172 122.493, 292.647 122.874, 296.433 122.898, 296.666 122.838, 301.375 122.161, 306.707 121.631, 309.235 121.597, 309.397 121.459, 310.053 121.449, 310.103 121.439, 310.151 121.134, 311.606 121.035, 312.078 119.457, 318.363 117.914, 324.690 116.707, 331.079 116.636, 331.456 116.005, 338.086 115.104, 344.267 114.772, 350.078 114.971, 355.376 115.569, 358.468 116.209, 361.068 117.305, 362.934 118.590, 364.193 " />
            <path fill="none" stroke-width="3.0" stroke-linecap="butt" stroke-opacity="1.0" stroke="rgb(0, 0, 0)" stroke-linejoin="round" d=" M 147.645, 354.191 147.756, 353.981 147.762, 353.970 148.730, 352.134 148.844, 351.916 148.909, 351.793 148.915, 351.783 148.927, 351.759 149.040, 351.545 149.209, 351.225 149.349, 350.959 149.387, 350.888 149.402, 350.859 152.354, 346.864 156.578, 340.379 160.672, 334.053 165.366, 326.122 169.514, 318.036 173.041, 309.731 175.865, 301.353 178.078, 292.963 179.881, 285.060 181.911, 277.529 184.199, 269.535 184.357, 268.767 186.363, 258.970 187.240, 254.690 187.850, 248.289 188.138, 245.272 " />
            <path fill="none" stroke-width="3.0" stroke-linecap="butt" stroke-opacity="1.0" stroke="rgb(0, 0, 0)" stroke-linejoin="round" d=" M 211.053, 248.855 211.015, 249.549 211.296, 257.209 212.314, 266.311 213.847, 273.525 215.711, 280.212 217.377, 285.969 218.486, 289.441 219.698, 291.633 221.943, 294.842 223.899, 296.235 225.647, 297.427 229.741, 298.559 234.418, 298.695 238.915, 297.918 243.052, 296.400 245.933, 294.804 248.687, 292.892 251.946, 290.164 253.624, 287.373 254.478, 286.201 254.602, 285.767 254.781, 285.137 " />
            <path fill="none" stroke-width="3.0" stroke-linecap="butt" stroke-opacity="1.0" stroke="rgb(0, 0, 0)" stroke-linejoin="round" d=" M 248.577, 269.236 249.175, 267.588 252.320, 258.922 255.238, 251.455 258.555, 243.417 261.753, 234.704 265.057, 225.425 267.591, 216.697 269.433, 207.556 270.435, 198.344 271.235, 188.600 272.042, 178.632 272.103, 177.879 272.376, 168.458 271.551, 158.992 270.250, 153.612 269.616, 150.992 268.663, 144.272 " />
            <path fill="none" stroke-width="3.0" stroke-linecap="butt" stroke-opacity="1.0" stroke="rgb(0, 0, 0)" stroke-linejoin="round" d=" M 244.610, 281.357 244.820, 280.800 244.870, 280.666 244.906, 280.570 245.645, 278.606 246.239, 277.026 246.250, 276.995 246.258, 276.974 246.951, 275.131 246.954, 275.121 246.969, 275.081 246.975, 275.067 247.037, 274.902 247.950, 272.473 249.175, 267.588 " />
            <path fill="none" stroke-width="3.0" stroke-linecap="butt" stroke-opacity="1.0" stroke="rgb(0, 0, 0)" stroke-linejoin="round" d=" M 113.647, 258.241 113.689, 258.483 114.097, 260.808 116.002, 266.505 116.133, 266.896 116.282, 267.342 117.021, 269.815 118.103, 273.376 119.403, 279.389 121.387, 286.559 122.318, 291.172 122.350, 291.332 123.088, 294.610 " />
            <path fill="none" stroke-width="3.0" stroke-linecap="butt" stroke-opacity="1.0" stroke="rgb(0, 0, 0)" stroke-linejoin="round" d=" M 122.733, 366.614 124.666, 367.188 126.814, 367.644 132.316, 368.117 137.610, 368.223 139.014, 368.292 141.075, 368.395 " />
            <path fill="none" stroke-width="3.0" stroke-linecap="butt" stroke-opacity="1.0" stroke="rgb(0, 0, 0)" stroke-linejoin="round" d=" M 226.339, 224.401 227.664, 219.333 228.442, 215.125 228.479, 214.964 229.785, 209.329 " />
            <path fill="none" stroke-width="3.0" stroke-linecap="butt" stroke-opacity="1.0" stroke="rgb(0, 0, 0)" stroke-linejoin="round" d=" M 147.757, 353.983 147.762, 353.970 " />
            <path fill="none" stroke-width="3.0" stroke-linecap="butt" stroke-opacity="1.0" stroke="rgb(0, 0, 0)" stroke-linejoin="round" d=" M 244.963, 284.858 244.971, 284.644 245.054, 282.472 245.645, 278.606 " />
            <path fill="none" stroke-width="3.0" stroke-linecap="butt" stroke-opacity="1.0" stroke="rgb(0, 0, 0)" stroke-linejoin="round" d=" M 251.862, 277.247 252.163, 277.116 253.087, 276.977 253.712, 276.982 254.576, 276.971 254.723, 276.664 254.699, 276.027 254.238, 275.708 253.929, 275.517 253.352, 275.317 252.556, 275.084 251.705, 275.129 250.668, 275.241 250.588, 275.243 249.983, 275.183 249.381, 275.133 249.335, 275.129 249.310, 275.127 248.932, 275.095 246.969, 275.081 " />
            <path fill="none" stroke-width="3.0" stroke-linecap="butt" stroke-opacity="1.0" stroke="rgb(0, 0, 0)" stroke-linejoin="round" d=" M 247.123, 275.137 248.932, 275.095 " />
            <path fill="none" stroke-width="3.0" stroke-linecap="butt" stroke-opacity="1.0" stroke="rgb(0, 0, 0)" stroke-linejoin="round" d=" M 249.742, 276.790 249.043, 276.877 " />
            <path fill="none" stroke-width="3.0" stroke-linecap="butt" stroke-opacity="1.0" stroke="rgb(0, 0, 0)" stroke-linejoin="round" d=" M 257.353, 278.864 257.057, 277.973 256.844, 277.861 256.237, 277.651 255.617, 277.515 255.249, 277.525 254.688, 277.557 253.850, 277.596 " />
            <path fill="none" stroke-width="3.0" stroke-linecap="butt" stroke-opacity="1.0" stroke="rgb(0, 0, 0)" stroke-linejoin="round" d=" M 254.382, 280.064 254.929, 279.803 255.292, 279.670 257.023, 279.286 257.128, 279.203 257.353, 278.864 257.101, 278.946 256.688, 279.080 255.925, 279.281 " />
            <path fill="none" stroke-width="3.0" stroke-linecap="butt" stroke-opacity="1.0" stroke="rgb(0, 0, 0)" stroke-linejoin="round" d=" M 257.361, 282.847 257.328, 282.204 257.116, 282.012 256.836, 281.956 256.405, 281.996 256.108, 282.088 255.647, 282.217 255.112, 282.266 254.740, 282.454 " />
            <path fill="none" stroke-width="3.0" stroke-linecap="butt" stroke-opacity="1.0" stroke="rgb(0, 0, 0)" stroke-linejoin="round" d=" M 254.634, 282.488 254.600, 282.478 253.543, 282.132 253.032, 281.696 253.013, 281.680 252.906, 281.589 252.671, 281.388 251.187, 280.124 " />
            <path fill="none" stroke-width="3.0" stroke-linecap="butt" stroke-opacity="1.0" stroke="rgb(0, 0, 0)" stroke-linejoin="round" d=" M 255.112, 282.266 255.053, 282.505 254.669, 282.490 254.634, 282.488 " />
            <path fill="none" stroke-width="3.0" stroke-linecap="butt" stroke-opacity="1.0" stroke="rgb(0, 0, 0)" stroke-linejoin="round" d=" M 255.053, 282.505 254.740, 282.454 254.654, 282.440 254.600, 282.478 " />
            <path fill="none" stroke-width="3.0" stroke-linecap="butt" stroke-opacity="1.0" stroke="rgb(0, 0, 0)" stroke-linejoin="round" d=" M 254.654, 282.440 254.634, 282.488 254.572, 282.497 252.590, 282.781 252.494, 282.795 " />
            <path fill="none" stroke-width="3.0" stroke-linecap="butt" stroke-opacity="1.0" stroke="rgb(0, 0, 0)" stroke-linejoin="round" d=" M 254.545, 277.954 253.850, 277.596 253.612, 277.474 253.214, 277.360 252.366, 277.313 251.862, 277.247 251.811, 277.241 251.801, 277.239 250.355, 277.049 249.043, 276.877 " />
            <path fill="none" stroke-width="3.0" stroke-linecap="butt" stroke-opacity="1.0" stroke="rgb(0, 0, 0)" stroke-linejoin="round" d=" M 254.545, 277.954 255.273, 277.856 255.739, 277.776 256.046, 277.722 256.592, 277.837 257.057, 277.973 " />
            <path fill="none" stroke-width="3.0" stroke-linecap="butt" stroke-opacity="1.0" stroke="rgb(0, 0, 0)" stroke-linejoin="round" d=" M 255.801, 282.993 256.155, 282.743 256.545, 282.501 256.794, 282.345 257.162, 282.246 257.328, 282.204 " />
            <path fill="none" stroke-width="3.0" stroke-linecap="butt" stroke-opacity="1.0" stroke="rgb(0, 0, 0)" stroke-linejoin="round" d=" M 256.574, 283.504 257.143, 283.244 257.361, 282.847 257.116, 283.122 257.103, 283.131 256.574, 283.504 256.178, 283.841 255.600, 284.396 255.018, 285.082 254.602, 285.767 " />
            <path fill="none" stroke-width="3.0" stroke-linecap="butt" stroke-opacity="1.0" stroke="rgb(0, 0, 0)" stroke-linejoin="round" d=" M 154.572, 358.699 154.362, 358.162 154.317, 358.046 154.301, 358.006 153.900, 356.980 153.789, 356.698 153.630, 356.292 152.661, 354.419 152.215, 354.005 151.959, 353.769 150.990, 352.872 150.653, 352.561 150.366, 352.295 150.353, 352.283 150.153, 352.098 150.088, 352.038 150.021, 351.976 149.209, 351.225 " />
            <path fill="none" stroke-width="3.0" stroke-linecap="butt" stroke-opacity="1.0" stroke="rgb(0, 0, 0)" stroke-linejoin="round" d=" M 150.734, 352.152 150.825, 352.100 150.828, 352.025 150.548, 351.483 150.330, 351.350 149.387, 350.888 " />
            <path fill="none" stroke-width="3.0" stroke-linecap="butt" stroke-opacity="1.0" stroke="rgb(0, 0, 0)" stroke-linejoin="round" d=" M 153.386, 354.041 153.324, 354.032 153.304, 354.029 153.296, 354.028 153.175, 354.011 152.586, 353.929 152.274, 353.744 151.620, 353.355 151.467, 353.265 150.990, 352.872 " />
            <path fill="none" stroke-width="3.0" stroke-linecap="butt" stroke-opacity="1.0" stroke="rgb(0, 0, 0)" stroke-linejoin="round" d=" M 147.871, 368.328 149.664, 368.204 151.275, 367.309 152.181, 366.623 153.626, 364.799 154.618, 362.784 154.808, 361.751 154.895, 361.275 154.949, 360.985 154.958, 360.934 155.123, 360.037 " />
            <path fill="none" stroke-width="3.0" stroke-linecap="butt" stroke-opacity="1.0" stroke="rgb(0, 0, 0)" stroke-linejoin="round" d=" M 150.875, 352.523 150.499, 352.282 150.461, 352.258 150.222, 352.105 150.199, 352.090 150.021, 351.976 " />
            <path fill="none" stroke-width="3.0" stroke-linecap="butt" stroke-opacity="1.0" stroke="rgb(0, 0, 0)" stroke-linejoin="round" d=" M 158.039, 358.687 158.785, 358.471 159.177, 358.520 159.367, 358.494 159.507, 358.265 159.544, 357.493 158.975, 357.019 158.515, 356.812 157.790, 356.945 157.153, 357.136 156.395, 357.464 155.484, 357.758 155.203, 357.696 154.348, 358.034 " />
            <path fill="none" stroke-width="3.0" stroke-linecap="butt" stroke-opacity="1.0" stroke="rgb(0, 0, 0)" stroke-linejoin="round" d=" M 154.876, 358.349 155.203, 357.696 156.160, 358.254 156.944, 357.821 157.675, 357.427 158.328, 357.217 158.975, 357.019 " />
            <path fill="none" stroke-width="3.0" stroke-linecap="butt" stroke-opacity="1.0" stroke="rgb(0, 0, 0)" stroke-linejoin="round" d=" M 150.825, 352.100 150.548, 351.483 149.628, 351.070 149.349, 350.959 " />
            <path fill="none" stroke-width="3.0" stroke-linecap="butt" stroke-opacity="1.0" stroke="rgb(0, 0, 0)" stroke-linejoin="round" d=" M 152.274, 353.744 152.385, 353.734 153.110, 353.970 153.175, 354.011 " />
            <path fill="none" stroke-width="3.0" stroke-linecap="butt" stroke-opacity="1.0" stroke="rgb(0, 0, 0)" stroke-linejoin="round" d=" M 155.551, 355.410 156.045, 355.203 156.428, 355.142 156.968, 355.259 157.236, 355.310 157.378, 355.313 157.449, 355.102 157.442, 354.667 157.123, 354.117 156.839, 353.941 156.451, 353.817 155.977, 353.710 155.185, 353.801 154.414, 353.883 153.835, 353.962 153.612, 353.992 153.324, 354.032 " />
            <path fill="none" stroke-width="3.0" stroke-linecap="butt" stroke-opacity="1.0" stroke="rgb(0, 0, 0)" stroke-linejoin="round" d=" M 157.378, 355.313 157.224, 355.174 " />
            <path fill="none" stroke-width="3.0" stroke-linecap="butt" stroke-opacity="1.0" stroke="rgb(0, 0, 0)" stroke-linejoin="round" d=" M 159.367, 358.494 159.214, 358.299 " />
            <path fill="none" stroke-width="3.0" stroke-linecap="butt" stroke-opacity="1.0" stroke="rgb(0, 0, 0)" stroke-linejoin="round" d=" M 299.440, 94.690 298.960, 94.264 298.752, 94.079 296.272, 91.878 295.604, 91.071 294.698, 89.977 " />
            <path fill="none" stroke-width="3.0" stroke-linecap="butt" stroke-opacity="1.0" stroke="rgb(0, 0, 0)" stroke-linejoin="round" d=" M 270.250, 153.612 270.815, 152.676 272.162, 150.865 272.498, 150.412 " />
            <path fill="none" stroke-width="3.0" stroke-linecap="butt" stroke-opacity="1.0" stroke="rgb(0, 0, 0)" stroke-linejoin="round" d=" M 251.493, 275.719 252.322, 275.550 253.018, 275.400 253.746, 275.572 254.238, 275.708 " />
            <path fill="none" stroke-width="3.0" stroke-linecap="butt" stroke-opacity="1.0" stroke="rgb(0, 0, 0)" stroke-linejoin="round" d=" M 249.381, 275.133 249.129, 275.046 248.436, 274.919 247.687, 274.821 " />
            <path fill="none" stroke-width="3.0" stroke-linecap="butt" stroke-opacity="1.0" stroke="rgb(0, 0, 0)" stroke-linejoin="round" d=" M 248.829, 275.018 248.136, 274.896 247.687, 274.821 247.037, 274.902 " />
            <path fill="none" stroke-width="3.0" stroke-linecap="butt" stroke-opacity="1.0" stroke="rgb(0, 0, 0)" stroke-linejoin="round" d=" M 253.013, 281.680 253.032, 281.631 253.386, 280.696 253.460, 280.501 253.551, 279.907 " />
            <path fill="none" stroke-width="3.0" stroke-linecap="butt" stroke-opacity="1.0" stroke="rgb(0, 0, 0)" stroke-linejoin="round" d=" M 253.032, 281.696 253.946, 280.347 254.382, 280.064 254.884, 279.737 " />
            <path fill="none" stroke-width="3.0" stroke-linecap="butt" stroke-opacity="1.0" stroke="rgb(0, 0, 0)" stroke-linejoin="round" d=" M 110.507, 251.197 111.066, 252.052 111.861, 255.469 113.262, 257.970 113.689, 258.483 " />
            <path fill="none" stroke-width="3.0" stroke-linecap="butt" stroke-opacity="1.0" stroke="rgb(0, 0, 0)" stroke-linejoin="round" d=" M 111.262, 250.854 111.855, 249.708 113.098, 247.751 " />
            <path fill="none" stroke-width="3.0" stroke-linecap="butt" stroke-opacity="1.0" stroke="rgb(0, 0, 0)" stroke-linejoin="round" d=" M 112.002, 240.285 112.380, 243.026 111.481, 246.127 110.895, 248.797 110.412, 250.412 110.338, 250.507 109.816, 251.183 " />
            <path fill="none" stroke-width="3.0" stroke-linecap="butt" stroke-opacity="1.0" stroke="rgb(0, 0, 0)" stroke-linejoin="round" d=" M 154.808, 361.751 155.378, 360.920 156.299, 360.015 157.138, 359.280 157.804, 358.835 158.039, 358.687 158.555, 358.363 " />
            <path fill="none" stroke-width="3.0" stroke-linecap="butt" stroke-opacity="1.0" stroke="rgb(0, 0, 0)" stroke-linejoin="round" d=" M 155.157, 354.281 155.741, 354.115 156.387, 353.926 156.822, 354.021 157.123, 354.117 " />
            <path fill="none" stroke-width="3.0" stroke-linecap="butt" stroke-opacity="1.0" stroke="rgb(0, 0, 0)" stroke-linejoin="round" d=" M 150.653, 352.561 150.875, 352.523 151.455, 352.501 152.246, 352.437 152.842, 352.576 153.450, 352.776 153.903, 353.556 153.835, 353.962 " />
            <path fill="none" stroke-width="3.0" stroke-linecap="butt" stroke-opacity="1.0" stroke="rgb(0, 0, 0)" stroke-linejoin="round" d=" M 153.450, 352.776 153.022, 352.603 152.269, 352.346 151.642, 352.183 150.734, 352.152 150.693, 352.150 150.638, 352.145 150.291, 352.111 150.233, 352.106 150.222, 352.105 " />
            <path fill="none" stroke-width="3.0" stroke-linecap="butt" stroke-opacity="1.0" stroke="rgb(0, 0, 0)" stroke-linejoin="round" d=" M 153.900, 356.980 154.542, 356.205 155.212, 355.641 155.551, 355.410 155.973, 355.122 " />
            <path fill="none" stroke-width="3.0" stroke-linecap="butt" stroke-opacity="1.0" stroke="rgb(0, 0, 0)" stroke-linejoin="round" d=" M 155.493, 358.717 155.340, 359.124 " />
            <path fill="none" stroke-width="3.0" stroke-linecap="butt" stroke-opacity="1.0" stroke="rgb(0, 0, 0)" stroke-linejoin="round" d=" M 139.884, 368.417 142.384, 368.625 143.703, 368.735 145.760, 368.848 147.871, 368.328 148.779, 368.104 " />
            <path fill="none" stroke-width="3.0" stroke-linecap="butt" stroke-opacity="1.0" stroke="rgb(0, 0, 0)" stroke-linejoin="round" d=" M 139.014, 368.292 139.884, 368.417 142.212, 368.614 142.384, 368.625 " />
            <path fill="none" stroke-width="3.0" stroke-linecap="butt" stroke-opacity="1.0" stroke="rgb(0, 0, 0)" stroke-linejoin="round" d=" M 118.590, 364.193 119.781, 365.156 122.733, 366.614 121.845, 366.097 118.590, 364.193 " />
            <path fill="none" stroke-width="3.0" stroke-linecap="butt" stroke-opacity="1.0" stroke="rgb(0, 0, 0)" stroke-linejoin="round" d=" M 153.386, 354.041 153.830, 353.988 153.945, 353.975 " />
            <path fill="none" stroke-width="3.0" stroke-linecap="butt" stroke-opacity="1.0" stroke="rgb(0, 0, 0)" stroke-linejoin="round" d=" M 154.876, 358.349 154.348, 358.034 154.301, 358.006 " />
            <path fill="none" stroke-width="3.0" stroke-linecap="butt" stroke-opacity="1.0" stroke="rgb(0, 0, 0)" stroke-linejoin="round" d=" M 92.000, 232.342 92.927, 231.782 " />
            <path fill="none" stroke-width="3.0" stroke-linecap="butt" stroke-opacity="1.0" stroke="rgb(0, 0, 0)" stroke-linejoin="round" d=" M 107.455, 253.527 107.671, 253.361 108.610, 252.643 109.816, 251.183 111.262, 250.854 " />
            <path fill="none" stroke-width="3.0" stroke-linecap="butt" stroke-opacity="1.0" stroke="rgb(0, 0, 0)" stroke-linejoin="round" d=" M 253.545, 276.758 252.698, 276.773 251.843, 277.218 251.811, 277.241 " />
            <path fill="none" stroke-width="3.0" stroke-linecap="butt" stroke-opacity="1.0" stroke="rgb(0, 0, 0)" stroke-linejoin="round" d=" M 246.975, 275.067 247.169, 275.044 248.129, 274.897 248.136, 274.896 " />
            <path fill="none" stroke-width="3.0" stroke-linecap="butt" stroke-opacity="1.0" stroke="rgb(0, 0, 0)" stroke-linejoin="round" d=" M 247.123, 275.137 246.954, 275.121 " />
            <path fill="none" stroke-width="3.0" stroke-linecap="butt" stroke-opacity="1.0" stroke="rgb(0, 0, 0)" stroke-linejoin="round" d=" M 121.459, 310.053 120.061, 309.767 119.644, 309.682 119.550, 309.663 118.495, 309.447 " />
            <path fill="none" stroke-width="3.0" stroke-linecap="butt" stroke-opacity="1.0" stroke="rgb(0, 0, 0)" stroke-linejoin="round" d=" M 154.895, 361.275 154.999, 360.941 155.080, 360.676 " />
            <path fill="none" stroke-width="3.0" stroke-linecap="butt" stroke-opacity="1.0" stroke="rgb(0, 0, 0)" stroke-linejoin="round" d=" M 187.850, 248.289 189.320, 244.229 " />
            <path fill="none" stroke-width="3.0" stroke-linecap="butt" stroke-opacity="1.0" stroke="rgb(0, 0, 0)" stroke-linejoin="round" d=" M 249.335, 275.129 248.829, 275.018 " />
            <path fill="none" stroke-width="3.0" stroke-linecap="butt" stroke-opacity="1.0" stroke="rgb(0, 0, 0)" stroke-linejoin="round" d=" M 288.229, 135.069 292.063, 132.130 292.547, 131.759 " />
        </g>
    </g>
</svg>
