<?xml version='1.0' encoding='ascii'?>
<svg xmlns="http://www.w3.org/2000/svg" xmlns:inkscape="http://www.inkscape.org/namespaces/inkscape" version="1.1" width="400" height="400">
    <g id="ViewLayer_LineSet" inkscape:groupmode="lineset" inkscape:label="ViewLayer_LineSet">
        <g xmlns:inkscape="http://www.inkscape.org/namespaces/inkscape" inkscape:groupmode="layer" inkscape:label="fills" id="fills">
            <path fill_rule="evenodd" stroke="none" fill-opacity="1.0" fill="rgb(68, 34, 21)" d=" M 36.344, 159.309 35.573, 160.366 35.275, 161.737 35.300, 163.298 35.485, 164.516 35.770, 165.375 36.150, 165.856 36.552, 166.088 36.915, 166.080 37.051, 166.073 37.280, 166.033 37.161, 166.559 37.274, 167.537 37.731, 168.177 38.258, 168.577 38.766, 169.482 39.647, 171.233 40.720, 173.042 41.827, 174.054 43.019, 175.100 44.236, 175.716 44.655, 176.476 45.491, 177.502 47.502, 178.609 48.565, 179.170 51.157, 180.124 54.618, 181.648 55.911, 182.336 57.795, 183.506 61.311, 185.646 65.855, 188.581 69.890, 190.681 70.870, 191.406 74.616, 195.656 78.160, 199.384 79.070, 199.952 84.720, 204.013 89.223, 206.024 89.955, 206.465 95.316, 210.855 102.265, 217.273 112.504, 222.497 113.582, 222.934 113.935, 224.946 114.867, 230.195 116.189, 235.427 118.654, 241.451 121.603, 247.385 124.293, 253.229 126.830, 260.960 127.490, 264.332 127.468, 267.684 126.120, 273.085 124.805, 276.841 122.601, 281.258 119.903, 287.322 117.389, 292.918 115.428, 298.089 113.847, 302.242 112.391, 305.409 111.458, 306.247 108.826, 307.637 105.756, 308.996 104.538, 309.730 101.831, 310.841 99.281, 311.958 97.726, 312.827 96.854, 313.343 95.596, 313.875 94.404, 314.470 93.247, 315.017 92.224, 315.684 91.440, 316.241 90.819, 316.806 90.689, 317.257 90.772, 317.525 90.933, 317.529 91.739, 317.172 92.646, 316.784 93.288, 316.552 92.347, 317.083 91.182, 317.726 90.234, 318.401 89.331, 319.071 88.379, 319.947 88.203, 320.465 88.254, 320.661 88.306, 320.794 88.535, 320.761 89.770, 320.050 90.754, 319.538 91.819, 319.097 92.979, 318.818 94.130, 318.737 94.510, 318.791 94.483, 318.816 94.230, 319.014 93.173, 319.438 91.847, 320.108 90.770, 320.676 89.848, 321.365 88.836, 322.182 87.973, 323.064 87.866, 323.642 87.922, 323.864 87.999, 324.042 88.185, 324.025 89.332, 323.437 90.534, 322.816 91.635, 322.333 92.817, 322.038 94.269, 321.893 96.325, 322.134 95.690, 322.368 94.605, 322.856 93.440, 323.362 92.479, 323.865 91.697, 324.324 91.006, 324.803 90.424, 325.787 90.507, 326.239 92.249, 325.778 94.055, 325.252 95.301, 325.066 96.468, 325.048 99.038, 325.672 99.830, 326.120 99.794, 326.134 98.890, 326.474 98.156, 326.735 97.343, 327.094 96.602, 327.495 96.201, 328.154 96.263, 328.489 96.296, 328.629 97.421, 328.426 98.505, 328.237 99.179, 328.177 100.362, 328.115 101.507, 328.119 101.662, 328.126 104.642, 328.970 106.442, 329.702 108.980, 329.808 111.659, 329.374 112.358, 329.373 115.596, 328.643 117.997, 327.844 119.899, 327.464 122.844, 326.266 123.466, 325.924 125.927, 325.231 128.530, 324.415 130.796, 323.395 132.243, 322.082 134.656, 320.776 135.874, 319.162 137.143, 317.391 140.857, 313.604 145.745, 310.129 154.302, 304.636 160.169, 299.817 165.186, 293.933 167.915, 290.699 170.585, 290.323 175.481, 289.335 180.606, 288.172 183.908, 286.342 185.093, 285.070 186.890, 282.682 188.659, 279.743 190.395, 275.379 193.666, 267.776 197.075, 259.478 199.659, 251.051 200.349, 246.071 201.179, 246.307 211.415, 249.076 222.538, 250.588 233.600, 251.417 244.525, 251.161 249.996, 250.287 258.071, 249.333 268.751, 246.372 269.309, 252.680 272.035, 258.968 274.058, 265.161 276.887, 271.204 280.272, 276.711 284.014, 281.780 287.818, 286.170 290.973, 290.171 293.776, 293.663 296.277, 296.779 292.619, 297.886 291.608, 298.172 290.396, 298.381 284.970, 299.536 282.748, 300.688 281.799, 301.205 280.498, 301.843 279.330, 302.393 277.343, 303.266 276.048, 303.993 275.094, 304.628 274.234, 305.419 273.463, 306.468 273.385, 307.126 273.390, 307.342 273.541, 307.365 273.834, 307.266 274.354, 306.673 275.173, 305.993 276.105, 305.446 276.329, 305.353 276.206, 305.453 274.970, 306.469 274.024, 307.470 272.959, 308.713 272.449, 309.732 272.871, 309.776 272.998, 309.792 274.031, 308.983 275.106, 308.210 276.095, 307.680 277.277, 307.173 277.638, 307.070 276.546, 307.941 275.542, 308.637 274.678, 309.298 273.652, 310.150 273.062, 310.792 272.626, 311.355 272.442, 311.934 272.402, 312.092 272.699, 312.039 272.725, 312.017 273.333, 311.602 273.865, 311.234 274.534, 310.858 275.630, 310.349 276.520, 310.001 277.402, 309.712 278.511, 309.447 279.477, 309.546 278.099, 310.243 277.105, 310.819 275.726, 311.633 274.895, 312.264 274.220, 312.816 273.696, 313.428 273.307, 313.930 273.080, 314.535 273.092, 314.668 273.351, 314.777 273.905, 314.404 274.354, 314.080 274.962, 313.696 275.646, 313.326 276.530, 312.976 277.873, 312.663 278.852, 312.563 281.555, 312.830 281.251, 312.939 279.996, 313.330 278.635, 313.876 277.413, 314.440 276.735, 314.973 275.965, 315.722 275.630, 316.704 275.614, 316.874 276.020, 316.957 276.870, 316.445 277.672, 316.066 278.372, 315.835 279.596, 315.535 280.966, 315.316 282.131, 315.205 283.700, 315.187 285.907, 315.883 286.909, 316.632 288.539, 317.394 291.805, 317.917 294.567, 317.733 297.637, 317.248 303.173, 316.767 308.329, 316.258 313.332, 315.361 319.971, 313.815 324.152, 311.664 325.204, 310.474 327.269, 307.296 328.484, 303.587 328.979, 298.895 328.950, 293.773 329.012, 288.477 329.142, 282.996 328.505, 277.765 329.310, 277.536 332.669, 276.033 337.442, 273.538 341.854, 270.913 347.015, 267.934 352.640, 264.611 353.235, 264.017 357.283, 259.720 358.107, 258.232 359.415, 254.086 359.899, 250.472 358.997, 246.236 358.064, 242.976 356.161, 238.142 354.221, 232.891 352.089, 227.290 349.237, 221.861 346.669, 216.521 345.710, 214.207 346.507, 211.591 348.403, 203.948 350.013, 196.224 350.904, 191.507 351.506, 185.297 351.483, 183.095 351.714, 181.267 353.379, 181.324 355.247, 180.750 356.073, 180.119 357.626, 178.311 357.986, 176.418 358.277, 173.498 357.747, 170.075 356.909, 165.965 356.180, 163.790 354.449, 159.171 352.618, 154.960 352.062, 153.270 349.254, 148.892 345.450, 143.691 341.647, 138.964 337.223, 133.431 332.227, 128.911 330.518, 127.286 323.220, 121.916 314.588, 117.091 305.745, 113.356 296.861, 110.569 288.228, 108.628 279.491, 107.330 269.781, 106.721 259.902, 107.118 249.896, 108.304 239.996, 109.772 230.373, 112.229 220.972, 115.207 211.501, 117.766 203.153, 119.098 194.740, 119.694 187.635, 119.789 179.902, 119.376 171.060, 118.719 162.278, 118.528 152.442, 119.495 143.199, 123.006 136.143, 126.773 128.856, 129.677 122.011, 129.978 117.310, 129.104 116.312, 128.435 115.575, 126.556 115.524, 126.218 115.415, 124.808 114.780, 122.228 114.127, 120.749 113.606, 119.488 112.400, 117.646 109.948, 115.700 109.474, 115.353 105.821, 114.472 102.308, 115.442 100.510, 116.753 99.411, 118.599 98.108, 120.643 97.498, 123.067 96.686, 125.416 96.513, 125.528 94.387, 126.415 90.684, 127.774 85.884, 129.825 78.131, 133.615 72.598, 136.887 68.162, 139.385 66.079, 141.450 64.869, 142.812 63.863, 144.938 63.630, 146.000 63.185, 146.956 59.537, 149.898 58.265, 151.437 56.368, 152.108 53.092, 153.059 48.362, 154.633 44.584, 156.085 42.342, 156.860 42.281, 156.897 41.624, 156.859 40.411, 156.948 39.154, 157.161 37.947, 157.651 37.086, 158.478 36.344, 159.309  z" />
        </g>
        <g inkscape:groupmode="layer" id="strokes" inkscape:label="strokes">
            <path fill="none" stroke-width="3.0" stroke-linecap="butt" stroke-opacity="1.0" stroke="rgb(0, 0, 0)" stroke-linejoin="round" d=" M 42.281, 156.897 41.624, 156.859 40.411, 156.948 39.154, 157.161 37.947, 157.651 37.086, 158.478 36.344, 159.309 35.573, 160.366 35.275, 161.737 35.300, 163.298 35.485, 164.516 35.770, 165.375 36.150, 165.856 36.552, 166.088 36.915, 166.080 37.051, 166.073 37.280, 166.033 37.430, 166.007 37.752, 165.488 38.165, 164.618 38.363, 165.491 38.387, 165.597 " />
            <path fill="none" stroke-width="3.0" stroke-linecap="butt" stroke-opacity="1.0" stroke="rgb(0, 0, 0)" stroke-linejoin="round" d=" M 37.280, 166.033 37.161, 166.559 37.274, 167.537 37.731, 168.177 38.258, 168.577 38.766, 169.482 39.647, 171.233 40.720, 173.042 41.827, 174.054 43.019, 175.100 44.236, 175.716 44.760, 175.982 45.660, 176.244 48.087, 176.776 48.093, 176.777 " />
            <path fill="none" stroke-width="3.0" stroke-linecap="butt" stroke-opacity="1.0" stroke="rgb(0, 0, 0)" stroke-linejoin="round" d=" M 66.006, 144.463 64.475, 145.916 63.634, 146.594 63.471, 146.726 63.185, 146.956 59.537, 149.898 58.265, 151.437 57.832, 151.962 57.374, 152.926 56.807, 154.550 56.577, 155.652 56.471, 156.551 56.405, 157.211 56.544, 158.055 56.864, 159.017 57.268, 159.905 57.321, 160.008 " />
            <path fill="none" stroke-width="3.0" stroke-linecap="butt" stroke-opacity="1.0" stroke="rgb(0, 0, 0)" stroke-linejoin="round" d=" M 57.854, 162.370 57.849, 162.482 57.795, 164.117 " />
            <path fill="none" stroke-width="3.0" stroke-linecap="butt" stroke-opacity="1.0" stroke="rgb(0, 0, 0)" stroke-linejoin="round" d=" M 47.493, 176.641 48.093, 176.777 50.630, 177.351 52.732, 178.074 54.204, 178.845 55.454, 180.013 56.014, 181.256 " />
            <path fill="none" stroke-width="3.0" stroke-linecap="butt" stroke-opacity="1.0" stroke="rgb(0, 0, 0)" stroke-linejoin="round" d=" M 44.236, 175.716 44.655, 176.476 45.491, 177.502 47.502, 178.609 48.565, 179.170 51.157, 180.124 54.618, 181.648 " />
            <path fill="none" stroke-width="3.0" stroke-linecap="butt" stroke-opacity="1.0" stroke="rgb(0, 0, 0)" stroke-linejoin="round" d=" M 57.304, 159.945 57.321, 160.008 57.373, 160.193 57.539, 160.710 57.788, 162.126 57.854, 162.370 57.940, 162.686 58.020, 162.976 58.105, 163.644 " />
            <path fill="none" stroke-width="3.0" stroke-linecap="butt" stroke-opacity="1.0" stroke="rgb(0, 0, 0)" stroke-linejoin="round" d=" M 54.036, 181.339 54.618, 181.648 55.911, 182.336 57.795, 183.506 61.311, 185.646 65.855, 188.581 69.890, 190.681 " />
            <path fill="none" stroke-width="3.0" stroke-linecap="butt" stroke-opacity="1.0" stroke="rgb(0, 0, 0)" stroke-linejoin="round" d=" M 82.940, 148.503 84.741, 152.074 " />
            <path fill="none" stroke-width="3.0" stroke-linecap="butt" stroke-opacity="1.0" stroke="rgb(0, 0, 0)" stroke-linejoin="round" d=" M 87.601, 139.281 86.528, 139.014 85.221, 139.012 84.149, 139.076 83.067, 139.421 82.240, 140.099 81.745, 141.074 81.461, 142.311 81.548, 143.126 81.805, 145.069 82.884, 149.148 84.237, 152.385 84.711, 154.106 85.393, 155.599 85.611, 156.133 86.019, 157.133 86.550, 158.888 " />
            <path fill="none" stroke-width="3.0" stroke-linecap="butt" stroke-opacity="1.0" stroke="rgb(0, 0, 0)" stroke-linejoin="round" d=" M 85.611, 156.133 86.548, 161.190 86.550, 158.888 " />
            <path fill="none" stroke-width="3.0" stroke-linecap="butt" stroke-opacity="1.0" stroke="rgb(0, 0, 0)" stroke-linejoin="round" d=" M 79.070, 199.952 84.720, 204.013 89.223, 206.024 " />
            <path fill="none" stroke-width="3.0" stroke-linecap="butt" stroke-opacity="1.0" stroke="rgb(0, 0, 0)" stroke-linejoin="round" d=" M 66.217, 187.961 69.890, 190.681 70.870, 191.406 74.616, 195.656 78.160, 199.384 79.070, 199.952 83.711, 202.848 85.827, 203.977 87.220, 204.721 89.600, 205.992 " />
            <path fill="none" stroke-width="3.0" stroke-linecap="butt" stroke-opacity="1.0" stroke="rgb(0, 0, 0)" stroke-linejoin="round" d=" M 85.827, 203.977 89.223, 206.024 89.955, 206.465 95.316, 210.855 102.265, 217.273 111.172, 221.817 112.504, 222.497 113.582, 222.934 " />
            <path fill="none" stroke-width="3.0" stroke-linecap="butt" stroke-opacity="1.0" stroke="rgb(0, 0, 0)" stroke-linejoin="round" d=" M 191.168, 243.457 200.349, 246.071 201.179, 246.307 210.832, 248.918 211.415, 249.076 221.324, 250.423 222.538, 250.588 232.510, 251.335 233.600, 251.417 243.597, 251.182 244.525, 251.161 249.996, 250.287 254.957, 249.495 " />
            <path fill="none" stroke-width="3.0" stroke-linecap="butt" stroke-opacity="1.0" stroke="rgb(0, 0, 0)" stroke-linejoin="round" d=" M 124.805, 276.841 122.601, 281.258 119.903, 287.322 117.389, 292.918 115.428, 298.089 113.847, 302.242 112.391, 305.409 111.458, 306.247 110.213, 307.366 " />
            <path fill="none" stroke-width="3.0" stroke-linecap="butt" stroke-opacity="1.0" stroke="rgb(0, 0, 0)" stroke-linejoin="round" d=" M 127.490, 264.332 127.468, 267.684 126.120, 273.085 124.805, 276.841 124.107, 278.834 " />
            <path fill="none" stroke-width="3.0" stroke-linecap="butt" stroke-opacity="1.0" stroke="rgb(0, 0, 0)" stroke-linejoin="round" d=" M 165.186, 293.933 167.832, 290.711 169.427, 288.769 170.085, 287.967 176.200, 280.055 178.084, 277.618 183.089, 271.147 188.380, 264.813 189.761, 257.075 190.799, 249.776 191.168, 243.457 191.182, 243.214 191.604, 237.005 192.584, 232.233 " />
            <path fill="none" stroke-width="3.0" stroke-linecap="butt" stroke-opacity="1.0" stroke="rgb(0, 0, 0)" stroke-linejoin="round" d=" M 110.709, 212.935 112.267, 216.866 112.845, 219.302 112.849, 219.320 113.015, 220.021 113.230, 220.930 113.582, 222.934 113.935, 224.946 114.867, 230.195 116.189, 235.427 118.654, 241.451 121.603, 247.385 124.293, 253.229 125.302, 255.421 " />
            <path fill="none" stroke-width="3.0" stroke-linecap="butt" stroke-opacity="1.0" stroke="rgb(0, 0, 0)" stroke-linejoin="round" d=" M 267.464, 232.495 268.195, 239.684 268.673, 245.479 268.751, 246.372 269.309, 252.680 272.035, 258.968 274.058, 265.161 276.887, 271.204 280.272, 276.711 284.014, 281.780 287.818, 286.170 290.973, 290.171 293.776, 293.663 296.277, 296.779 296.336, 296.853 298.196, 299.757 298.205, 299.771 298.217, 299.791 " />
            <path fill="none" stroke-width="3.0" stroke-linecap="butt" stroke-opacity="1.0" stroke="rgb(0, 0, 0)" stroke-linejoin="round" d=" M 328.307, 277.500 328.133, 274.708 327.969, 272.065 327.664, 266.833 327.228, 261.803 328.136, 256.920 329.713, 251.729 " />
            <path fill="none" stroke-width="3.0" stroke-linecap="butt" stroke-opacity="1.0" stroke="rgb(0, 0, 0)" stroke-linejoin="round" d=" M 287.357, 308.324 285.591, 311.133 284.746, 311.732 284.177, 311.834 282.912, 312.342 281.666, 312.790 281.555, 312.830 281.251, 312.939 279.996, 313.330 278.635, 313.876 277.413, 314.440 276.735, 314.973 275.965, 315.722 275.630, 316.704 275.614, 316.874 276.020, 316.957 276.870, 316.445 277.672, 316.066 278.372, 315.835 279.596, 315.535 280.966, 315.316 282.131, 315.205 283.700, 315.187 285.907, 315.883 286.909, 316.632 288.539, 317.394 291.805, 317.917 294.567, 317.733 297.637, 317.248 303.173, 316.767 308.329, 316.258 313.332, 315.361 319.971, 313.815 324.152, 311.664 325.204, 310.474 327.269, 307.296 328.484, 303.587 328.979, 298.895 328.950, 293.773 329.012, 288.477 329.142, 282.996 328.505, 277.765 328.133, 274.708 " />
            <path fill="none" stroke-width="3.0" stroke-linecap="butt" stroke-opacity="1.0" stroke="rgb(0, 0, 0)" stroke-linejoin="round" d=" M 328.262, 254.756 329.713, 251.729 332.492, 245.929 335.137, 240.669 337.750, 235.313 341.006, 227.917 343.862, 220.279 345.710, 214.207 346.507, 211.591 348.403, 203.948 350.013, 196.224 350.904, 191.507 351.506, 185.297 351.483, 183.095 351.464, 181.258 351.433, 178.220 " />
            <path fill="none" stroke-width="3.0" stroke-linecap="butt" stroke-opacity="1.0" stroke="rgb(0, 0, 0)" stroke-linejoin="round" d=" M 123.466, 325.924 125.927, 325.231 128.530, 324.415 130.796, 323.395 132.243, 322.082 134.656, 320.776 135.874, 319.162 137.143, 317.391 140.857, 313.604 145.745, 310.129 154.160, 304.727 154.302, 304.636 160.169, 299.817 165.186, 293.933 167.915, 290.699 168.064, 290.523 169.427, 288.769 " />
            <path fill="none" stroke-width="3.0" stroke-linecap="butt" stroke-opacity="1.0" stroke="rgb(0, 0, 0)" stroke-linejoin="round" d=" M 298.215, 300.915 300.105, 304.149 " />
            <path fill="none" stroke-width="3.0" stroke-linecap="butt" stroke-opacity="1.0" stroke="rgb(0, 0, 0)" stroke-linejoin="round" d=" M 101.507, 328.119 101.662, 328.126 104.642, 328.970 106.442, 329.702 108.980, 329.808 111.659, 329.374 112.358, 329.373 115.596, 328.643 117.997, 327.844 119.899, 327.464 122.844, 326.266 123.466, 325.924 125.883, 324.595 " />
            <path fill="none" stroke-width="3.0" stroke-linecap="butt" stroke-opacity="1.0" stroke="rgb(0, 0, 0)" stroke-linejoin="round" d=" M 351.714, 181.267 353.379, 181.324 355.247, 180.750 356.073, 180.119 357.626, 178.311 357.986, 176.418 358.277, 173.498 357.747, 170.075 356.909, 165.965 356.180, 163.790 354.449, 159.171 352.618, 154.960 352.485, 154.655 " />
            <path fill="none" stroke-width="3.0" stroke-linecap="butt" stroke-opacity="1.0" stroke="rgb(0, 0, 0)" stroke-linejoin="round" d=" M 90.759, 317.393 90.865, 316.894 91.554, 316.393 92.349, 315.887 93.372, 315.252 94.545, 314.804 95.746, 314.291 97.156, 314.000 97.347, 313.912 " />
            <path fill="none" stroke-width="3.0" stroke-linecap="butt" stroke-opacity="1.0" stroke="rgb(0, 0, 0)" stroke-linejoin="round" d=" M 111.458, 306.247 108.826, 307.637 105.756, 308.996 104.538, 309.730 101.831, 310.841 99.281, 311.958 97.726, 312.827 96.854, 313.343 95.596, 313.875 94.404, 314.470 93.247, 315.017 92.224, 315.684 91.440, 316.241 90.819, 316.806 90.689, 317.257 90.772, 317.525 90.933, 317.529 91.739, 317.172 92.646, 316.784 93.288, 316.552 " />
            <path fill="none" stroke-width="3.0" stroke-linecap="butt" stroke-opacity="1.0" stroke="rgb(0, 0, 0)" stroke-linejoin="round" d=" M 90.772, 317.525 90.759, 317.393 90.933, 317.529 91.611, 317.163 92.583, 316.721 93.520, 316.309 93.989, 316.204 " />
            <path fill="none" stroke-width="3.0" stroke-linecap="butt" stroke-opacity="1.0" stroke="rgb(0, 0, 0)" stroke-linejoin="round" d=" M 94.510, 318.791 94.130, 318.737 92.979, 318.818 91.819, 319.097 90.754, 319.538 89.770, 320.050 88.535, 320.761 88.306, 320.794 88.254, 320.661 88.410, 320.081 89.406, 319.328 90.321, 318.698 91.267, 318.046 92.431, 317.494 93.567, 316.939 94.199, 316.275 94.488, 315.971 95.082, 315.427 95.150, 315.364 96.703, 314.287 97.347, 313.912 99.049, 312.922 99.832, 312.445 102.285, 311.102 " />
            <path fill="none" stroke-width="3.0" stroke-linecap="butt" stroke-opacity="1.0" stroke="rgb(0, 0, 0)" stroke-linejoin="round" d=" M 94.488, 315.971 93.989, 316.204 93.494, 316.436 93.288, 316.552 92.347, 317.083 91.182, 317.726 90.234, 318.401 89.331, 319.071 88.379, 319.947 88.203, 320.465 88.254, 320.661 " />
            <path fill="none" stroke-width="3.0" stroke-linecap="butt" stroke-opacity="1.0" stroke="rgb(0, 0, 0)" stroke-linejoin="round" d=" M 96.325, 322.134 94.269, 321.893 92.817, 322.038 91.635, 322.333 90.534, 322.816 89.332, 323.437 88.185, 324.025 87.999, 324.042 87.922, 323.864 87.999, 323.213 88.889, 322.493 89.925, 321.769 90.850, 321.128 91.965, 320.705 93.315, 320.186 " />
            <path fill="none" stroke-width="3.0" stroke-linecap="butt" stroke-opacity="1.0" stroke="rgb(0, 0, 0)" stroke-linejoin="round" d=" M 94.230, 319.014 93.173, 319.438 91.847, 320.108 90.770, 320.676 89.848, 321.365 88.836, 322.182 87.973, 323.064 87.866, 323.642 87.922, 323.864 " />
            <path fill="none" stroke-width="3.0" stroke-linecap="butt" stroke-opacity="1.0" stroke="rgb(0, 0, 0)" stroke-linejoin="round" d=" M 94.215, 319.026 94.230, 319.014 94.483, 318.816 94.515, 318.792 94.533, 318.778 94.688, 318.657 96.533, 317.507 98.279, 316.493 99.021, 316.061 99.297, 315.901 99.327, 315.883 " />
            <path fill="none" stroke-width="3.0" stroke-linecap="butt" stroke-opacity="1.0" stroke="rgb(0, 0, 0)" stroke-linejoin="round" d=" M 99.057, 314.684 98.941, 314.800 98.938, 314.804 97.965, 315.782 96.443, 317.311 94.830, 318.485 94.525, 318.777 94.510, 318.791 94.483, 318.816 " />
            <path fill="none" stroke-width="3.0" stroke-linecap="butt" stroke-opacity="1.0" stroke="rgb(0, 0, 0)" stroke-linejoin="round" d=" M 100.034, 318.961 98.359, 319.065 97.183, 319.139 " />
            <path fill="none" stroke-width="3.0" stroke-linecap="butt" stroke-opacity="1.0" stroke="rgb(0, 0, 0)" stroke-linejoin="round" d=" M 90.507, 326.239 90.485, 326.024 91.045, 324.976 91.760, 324.582 92.556, 324.190 93.523, 323.753 94.695, 323.350 95.774, 322.966 " />
            <path fill="none" stroke-width="3.0" stroke-linecap="butt" stroke-opacity="1.0" stroke="rgb(0, 0, 0)" stroke-linejoin="round" d=" M 100.034, 318.961 99.121, 320.052 98.976, 320.225 98.778, 320.462 97.397, 321.567 96.998, 321.886 96.491, 322.073 96.325, 322.134 95.690, 322.368 94.605, 322.856 93.440, 323.362 92.479, 323.865 91.697, 324.324 91.006, 324.803 90.424, 325.787 90.507, 326.239 92.249, 325.778 94.055, 325.252 95.301, 325.066 96.468, 325.048 99.038, 325.672 99.830, 326.120 " />
            <path fill="none" stroke-width="3.0" stroke-linecap="butt" stroke-opacity="1.0" stroke="rgb(0, 0, 0)" stroke-linejoin="round" d=" M 101.311, 319.694 100.276, 320.125 99.996, 320.242 99.879, 320.291 98.986, 320.662 97.397, 321.567 " />
            <path fill="none" stroke-width="3.0" stroke-linecap="butt" stroke-opacity="1.0" stroke="rgb(0, 0, 0)" stroke-linejoin="round" d=" M 96.263, 328.489 96.654, 327.742 97.421, 327.458 98.267, 327.150 99.042, 326.986 100.007, 326.780 100.832, 326.607 101.169, 326.537 102.079, 325.471 " />
            <path fill="none" stroke-width="3.0" stroke-linecap="butt" stroke-opacity="1.0" stroke="rgb(0, 0, 0)" stroke-linejoin="round" d=" M 102.184, 325.434 100.882, 325.682 99.830, 326.120 99.794, 326.134 98.890, 326.474 98.156, 326.735 97.343, 327.094 96.602, 327.495 96.201, 328.154 96.263, 328.489 96.296, 328.629 97.421, 328.426 98.505, 328.237 " />
            <path fill="none" stroke-width="3.0" stroke-linecap="butt" stroke-opacity="1.0" stroke="rgb(0, 0, 0)" stroke-linejoin="round" d=" M 102.641, 324.242 102.761, 324.678 " />
            <path fill="none" stroke-width="3.0" stroke-linecap="butt" stroke-opacity="1.0" stroke="rgb(0, 0, 0)" stroke-linejoin="round" d=" M 102.079, 325.471 102.184, 325.434 102.286, 325.398 102.900, 325.182 102.964, 325.159 103.120, 325.104 103.175, 325.085 103.355, 323.655 103.356, 323.650 103.649, 321.328 102.867, 323.590 102.863, 323.600 102.641, 324.242 " />
            <path fill="none" stroke-width="3.0" stroke-linecap="butt" stroke-opacity="1.0" stroke="rgb(0, 0, 0)" stroke-linejoin="round" d=" M 94.215, 319.026 93.173, 319.438 " />
            <path fill="none" stroke-width="3.0" stroke-linecap="butt" stroke-opacity="1.0" stroke="rgb(0, 0, 0)" stroke-linejoin="round" d=" M 102.079, 325.471 100.882, 325.682 " />
            <path fill="none" stroke-width="3.0" stroke-linecap="butt" stroke-opacity="1.0" stroke="rgb(0, 0, 0)" stroke-linejoin="round" d=" M 90.585, 319.524 89.514, 320.094 88.535, 320.761 " />
            <path fill="none" stroke-width="3.0" stroke-linecap="butt" stroke-opacity="1.0" stroke="rgb(0, 0, 0)" stroke-linejoin="round" d=" M 94.294, 321.818 92.730, 321.994 91.465, 322.254 90.334, 322.818 89.064, 323.480 88.185, 324.025 " />
            <path fill="none" stroke-width="3.0" stroke-linecap="butt" stroke-opacity="1.0" stroke="rgb(0, 0, 0)" stroke-linejoin="round" d=" M 101.804, 328.120 101.507, 328.119 100.362, 328.115 99.179, 328.177 98.505, 328.237 98.225, 328.262 97.178, 328.433 96.263, 328.489 " />
            <path fill="none" stroke-width="3.0" stroke-linecap="butt" stroke-opacity="1.0" stroke="rgb(0, 0, 0)" stroke-linejoin="round" d=" M 291.608, 298.172 290.396, 298.381 284.970, 299.536 282.748, 300.688 281.799, 301.205 280.498, 301.843 279.330, 302.393 277.343, 303.266 276.048, 303.993 275.094, 304.628 274.234, 305.419 273.463, 306.468 273.385, 307.126 273.390, 307.342 273.541, 307.365 273.834, 307.266 274.354, 306.673 275.173, 305.993 276.105, 305.446 276.329, 305.353 " />
            <path fill="none" stroke-width="3.0" stroke-linecap="butt" stroke-opacity="1.0" stroke="rgb(0, 0, 0)" stroke-linejoin="round" d=" M 280.431, 302.727 279.656, 303.093 279.536, 303.150 278.928, 303.479 277.902, 304.097 277.737, 304.197 276.329, 305.353 276.206, 305.453 274.970, 306.469 274.024, 307.470 272.959, 308.713 272.449, 309.732 272.871, 309.776 " />
            <path fill="none" stroke-width="3.0" stroke-linecap="butt" stroke-opacity="1.0" stroke="rgb(0, 0, 0)" stroke-linejoin="round" d=" M 277.638, 307.070 277.277, 307.173 276.095, 307.680 275.106, 308.210 274.031, 308.983 272.998, 309.792 272.871, 309.776 272.635, 309.747 272.449, 309.732 " />
            <path fill="none" stroke-width="3.0" stroke-linecap="butt" stroke-opacity="1.0" stroke="rgb(0, 0, 0)" stroke-linejoin="round" d=" M 280.596, 304.095 280.536, 304.236 280.304, 304.780 279.159, 305.772 278.688, 306.202 277.726, 307.000 277.638, 307.070 276.546, 307.941 275.542, 308.637 274.678, 309.298 273.652, 310.150 273.062, 310.792 272.626, 311.355 272.442, 311.934 272.402, 312.092 272.699, 312.039 272.725, 312.017 273.333, 311.602 273.865, 311.234 274.534, 310.858 275.630, 310.349 276.520, 310.001 277.402, 309.712 278.511, 309.447 279.477, 309.546 " />
            <path fill="none" stroke-width="3.0" stroke-linecap="butt" stroke-opacity="1.0" stroke="rgb(0, 0, 0)" stroke-linejoin="round" d=" M 281.986, 307.548 281.915, 307.626 281.904, 307.637 281.822, 307.728 280.734, 308.920 279.907, 309.329 279.616, 309.476 279.477, 309.546 278.099, 310.243 277.105, 310.819 275.726, 311.633 274.895, 312.264 274.220, 312.816 273.696, 313.428 273.307, 313.930 273.080, 314.535 273.092, 314.668 273.351, 314.777 273.905, 314.404 274.354, 314.080 274.962, 313.696 275.646, 313.326 276.530, 312.976 277.873, 312.663 278.852, 312.563 281.555, 312.830 " />
            <path fill="none" stroke-width="3.0" stroke-linecap="butt" stroke-opacity="1.0" stroke="rgb(0, 0, 0)" stroke-linejoin="round" d=" M 284.206, 300.649 281.932, 301.895 281.013, 302.307 280.449, 302.560 279.656, 303.093 " />
            <path fill="none" stroke-width="3.0" stroke-linecap="butt" stroke-opacity="1.0" stroke="rgb(0, 0, 0)" stroke-linejoin="round" d=" M 281.013, 302.307 280.684, 302.402 279.513, 302.865 277.500, 303.620 276.249, 304.374 275.284, 304.956 274.466, 305.753 273.631, 306.724 273.541, 307.365 " />
            <path fill="none" stroke-width="3.0" stroke-linecap="butt" stroke-opacity="1.0" stroke="rgb(0, 0, 0)" stroke-linejoin="round" d=" M 274.975, 308.248 273.874, 309.054 272.998, 309.792 " />
            <path fill="none" stroke-width="3.0" stroke-linecap="butt" stroke-opacity="1.0" stroke="rgb(0, 0, 0)" stroke-linejoin="round" d=" M 272.402, 312.092 272.572, 311.588 272.999, 311.082 273.600, 310.474 274.648, 309.693 275.541, 309.083 276.597, 308.476 277.856, 307.731 278.848, 307.259 279.387, 307.064 " />
            <path fill="none" stroke-width="3.0" stroke-linecap="butt" stroke-opacity="1.0" stroke="rgb(0, 0, 0)" stroke-linejoin="round" d=" M 273.102, 311.688 272.699, 312.039 " />
            <path fill="none" stroke-width="3.0" stroke-linecap="butt" stroke-opacity="1.0" stroke="rgb(0, 0, 0)" stroke-linejoin="round" d=" M 274.210, 314.115 273.766, 314.453 273.351, 314.777 " />
            <path fill="none" stroke-width="3.0" stroke-linecap="butt" stroke-opacity="1.0" stroke="rgb(0, 0, 0)" stroke-linejoin="round" d=" M 278.121, 310.861 277.126, 311.335 275.720, 311.995 274.894, 312.598 274.229, 313.099 273.709, 313.682 273.328, 314.133 273.092, 314.668 " />
            <path fill="none" stroke-width="3.0" stroke-linecap="butt" stroke-opacity="1.0" stroke="rgb(0, 0, 0)" stroke-linejoin="round" d=" M 277.414, 316.086 276.593, 316.503 276.020, 316.957 " />
            <path fill="none" stroke-width="3.0" stroke-linecap="butt" stroke-opacity="1.0" stroke="rgb(0, 0, 0)" stroke-linejoin="round" d=" M 282.990, 312.941 282.623, 313.041 281.287, 313.407 279.997, 313.752 278.621, 314.285 277.385, 314.777 276.696, 315.320 275.922, 315.986 275.614, 316.874 " />
            <path fill="none" stroke-width="3.0" stroke-linecap="butt" stroke-opacity="1.0" stroke="rgb(0, 0, 0)" stroke-linejoin="round" d=" M 39.369, 165.069 39.480, 163.133 39.651, 161.206 39.843, 160.472 40.116, 159.428 " />
            <path fill="none" stroke-width="3.0" stroke-linecap="butt" stroke-opacity="1.0" stroke="rgb(0, 0, 0)" stroke-linejoin="round" d=" M 91.703, 318.959 92.935, 318.696 94.170, 318.524 " />
            <path fill="none" stroke-width="3.0" stroke-linecap="butt" stroke-opacity="1.0" stroke="rgb(0, 0, 0)" stroke-linejoin="round" d=" M 112.088, 218.825 113.015, 220.021 " />
            <path fill="none" stroke-width="3.0" stroke-linecap="butt" stroke-opacity="1.0" stroke="rgb(0, 0, 0)" stroke-linejoin="round" d=" M 278.572, 306.477 279.141, 305.958 280.313, 305.257 " />
            <path fill="none" stroke-width="3.0" stroke-linecap="butt" stroke-opacity="1.0" stroke="rgb(0, 0, 0)" stroke-linejoin="round" d=" M 279.686, 309.530 280.683, 309.142 281.765, 308.670 282.339, 308.420 " />
            <path fill="none" stroke-width="3.0" stroke-linecap="butt" stroke-opacity="1.0" stroke="rgb(0, 0, 0)" stroke-linejoin="round" d=" M 279.848, 304.085 280.596, 304.095 " />
            <path fill="none" stroke-width="3.0" stroke-linecap="butt" stroke-opacity="1.0" stroke="rgb(0, 0, 0)" stroke-linejoin="round" d=" M 273.040, 308.892 274.148, 307.723 275.100, 306.736 276.412, 305.820 277.894, 304.768 278.010, 304.686 " />
            <path fill="none" stroke-width="3.0" stroke-linecap="butt" stroke-opacity="1.0" stroke="rgb(0, 0, 0)" stroke-linejoin="round" d=" M 281.915, 307.626 282.110, 306.386 281.986, 307.548 " />
            <path fill="none" stroke-width="3.0" stroke-linecap="butt" stroke-opacity="1.0" stroke="rgb(0, 0, 0)" stroke-linejoin="round" d=" M 267.464, 232.495 269.508, 225.969 " />
            <path fill="none" stroke-width="3.0" stroke-linecap="butt" stroke-opacity="1.0" stroke="rgb(0, 0, 0)" stroke-linejoin="round" d=" M 286.121, 312.068 285.765, 311.981 284.746, 311.732 " />
            <path fill="none" stroke-width="3.0" stroke-linecap="butt" stroke-opacity="1.0" stroke="rgb(0, 0, 0)" stroke-linejoin="round" d=" M 103.006, 324.308 102.828, 324.578 102.761, 324.678 102.286, 325.398 " />
            <path fill="none" stroke-width="3.0" stroke-linecap="butt" stroke-opacity="1.0" stroke="rgb(0, 0, 0)" stroke-linejoin="round" d=" M 96.513, 125.528 94.387, 126.415 90.684, 127.774 85.884, 129.825 78.131, 133.615 72.598, 136.887 68.162, 139.385 66.079, 141.450 64.869, 142.812 63.863, 144.938 63.630, 146.000 " />
            <path fill="none" stroke-width="3.0" stroke-linecap="butt" stroke-opacity="1.0" stroke="rgb(0, 0, 0)" stroke-linejoin="round" d=" M 58.265, 151.437 56.368, 152.108 53.092, 153.059 48.362, 154.633 44.584, 156.085 42.342, 156.860 42.281, 156.897 41.890, 157.136 " />
            <path fill="none" stroke-width="3.0" stroke-linecap="butt" stroke-opacity="1.0" stroke="rgb(0, 0, 0)" stroke-linejoin="round" d=" M 96.693, 125.411 96.686, 125.416 96.513, 125.528 94.029, 127.143 " />
            <path fill="none" stroke-width="3.0" stroke-linecap="butt" stroke-opacity="1.0" stroke="rgb(0, 0, 0)" stroke-linejoin="round" d=" M 114.523, 121.708 114.127, 120.749 113.606, 119.488 112.400, 117.646 109.948, 115.700 109.474, 115.353 105.821, 114.472 102.308, 115.442 100.510, 116.753 99.411, 118.599 98.108, 120.643 97.498, 123.067 96.686, 125.416 " />
            <path fill="none" stroke-width="3.0" stroke-linecap="butt" stroke-opacity="1.0" stroke="rgb(0, 0, 0)" stroke-linejoin="round" d=" M 116.312, 128.435 115.575, 126.556 115.524, 126.218 115.211, 124.140 " />
            <path fill="none" stroke-width="3.0" stroke-linecap="butt" stroke-opacity="1.0" stroke="rgb(0, 0, 0)" stroke-linejoin="round" d=" M 337.068, 133.516 332.227, 128.911 330.518, 127.286 323.220, 121.916 314.588, 117.091 305.745, 113.356 296.861, 110.569 288.228, 108.628 279.491, 107.330 269.781, 106.721 259.902, 107.118 249.896, 108.304 239.996, 109.772 230.373, 112.229 220.972, 115.207 211.501, 117.766 203.153, 119.098 194.740, 119.694 187.635, 119.789 179.902, 119.376 171.060, 118.719 162.278, 118.528 152.442, 119.495 143.199, 123.006 136.143, 126.773 128.856, 129.677 122.011, 129.978 117.310, 129.104 116.517, 128.956 116.199, 128.897 114.168, 128.519 " />
            <path fill="none" stroke-width="3.0" stroke-linecap="butt" stroke-opacity="1.0" stroke="rgb(0, 0, 0)" stroke-linejoin="round" d=" M 167.915, 290.699 170.585, 290.323 175.481, 289.335 180.606, 288.172 183.908, 286.342 185.093, 285.070 186.890, 282.682 188.659, 279.743 190.395, 275.379 193.666, 267.776 197.075, 259.478 199.659, 251.051 200.349, 246.071 " />
            <path fill="none" stroke-width="3.0" stroke-linecap="butt" stroke-opacity="1.0" stroke="rgb(0, 0, 0)" stroke-linejoin="round" d=" M 356.161, 238.142 354.221, 232.891 352.089, 227.290 349.237, 221.861 346.669, 216.521 345.710, 214.207 " />
            <path fill="none" stroke-width="3.0" stroke-linecap="butt" stroke-opacity="1.0" stroke="rgb(0, 0, 0)" stroke-linejoin="round" d=" M 328.505, 277.765 329.310, 277.536 332.669, 276.033 337.442, 273.538 341.854, 270.913 347.015, 267.934 352.640, 264.611 353.235, 264.017 357.283, 259.720 358.107, 258.232 359.415, 254.086 359.899, 250.472 358.997, 246.236 " />
            <path fill="none" stroke-width="3.0" stroke-linecap="butt" stroke-opacity="1.0" stroke="rgb(0, 0, 0)" stroke-linejoin="round" d=" M 358.064, 242.976 356.161, 238.142 357.453, 241.480 358.997, 246.236 358.064, 242.976 " />
            <path fill="none" stroke-width="3.0" stroke-linecap="butt" stroke-opacity="1.0" stroke="rgb(0, 0, 0)" stroke-linejoin="round" d=" M 352.618, 154.960 352.062, 153.270 349.254, 148.892 345.450, 143.691 341.647, 138.964 337.223, 133.431 332.227, 128.911 " />
            <path fill="none" stroke-width="3.0" stroke-linecap="butt" stroke-opacity="1.0" stroke="rgb(0, 0, 0)" stroke-linejoin="round" d=" M 64.327, 144.503 63.630, 146.000 63.185, 146.956 " />
            <path fill="none" stroke-width="3.0" stroke-linecap="butt" stroke-opacity="1.0" stroke="rgb(0, 0, 0)" stroke-linejoin="round" d=" M 96.693, 125.411 97.498, 123.067 " />
            <path fill="none" stroke-width="3.0" stroke-linecap="butt" stroke-opacity="1.0" stroke="rgb(0, 0, 0)" stroke-linejoin="round" d=" M 249.996, 250.287 258.071, 249.333 267.708, 246.661 268.751, 246.372 " />
            <path fill="none" stroke-width="3.0" stroke-linecap="butt" stroke-opacity="1.0" stroke="rgb(0, 0, 0)" stroke-linejoin="round" d=" M 351.483, 183.095 351.714, 181.267 351.964, 179.289 352.199, 172.521 352.179, 170.569 352.168, 169.507 352.151, 167.815 " />
            <path fill="none" stroke-width="3.0" stroke-linecap="butt" stroke-opacity="1.0" stroke="rgb(0, 0, 0)" stroke-linejoin="round" d=" M 115.524, 126.218 115.415, 124.808 114.780, 122.228 114.127, 120.749 " />
            <path fill="none" stroke-width="3.0" stroke-linecap="butt" stroke-opacity="1.0" stroke="rgb(0, 0, 0)" stroke-linejoin="round" d=" M 124.293, 253.229 126.830, 260.960 127.490, 264.332 127.858, 266.208 " />
            <path fill="none" stroke-width="3.0" stroke-linecap="butt" stroke-opacity="1.0" stroke="rgb(0, 0, 0)" stroke-linejoin="round" d=" M 193.490, 229.793 193.165, 226.454 " />
            <path fill="none" stroke-width="3.0" stroke-linecap="butt" stroke-opacity="1.0" stroke="rgb(0, 0, 0)" stroke-linejoin="round" d=" M 275.920, 307.602 277.226, 307.047 " />
            <path fill="none" stroke-width="3.0" stroke-linecap="butt" stroke-opacity="1.0" stroke="rgb(0, 0, 0)" stroke-linejoin="round" d=" M 280.694, 315.181 281.982, 315.098 " />
            <path fill="none" stroke-width="3.0" stroke-linecap="butt" stroke-opacity="1.0" stroke="rgb(0, 0, 0)" stroke-linejoin="round" d=" M 296.277, 296.779 292.619, 297.886 291.608, 298.172 288.914, 298.934 " />
            <path fill="none" stroke-width="3.0" stroke-linecap="butt" stroke-opacity="1.0" stroke="rgb(0, 0, 0)" stroke-linejoin="round" d=" M 269.597, 240.697 269.513, 241.945 269.226, 246.240 269.161, 247.213 " />
            <path fill="none" stroke-width="3.0" stroke-linecap="butt" stroke-opacity="1.0" stroke="rgb(0, 0, 0)" stroke-linejoin="round" d=" M 38.363, 165.491 38.095, 166.247 " />
            <path fill="none" stroke-width="3.0" stroke-linecap="butt" stroke-opacity="1.0" stroke="rgb(0, 0, 0)" stroke-linejoin="round" d=" M 112.849, 219.320 112.834, 219.295 111.500, 217.079 " />
            <path fill="none" stroke-width="3.0" stroke-linecap="butt" stroke-opacity="1.0" stroke="rgb(0, 0, 0)" stroke-linejoin="round" d=" M 117.310, 129.104 116.312, 128.435 115.267, 127.735 " />
            <path fill="none" stroke-width="3.0" stroke-linecap="butt" stroke-opacity="1.0" stroke="rgb(0, 0, 0)" stroke-linejoin="round" d=" M 298.196, 299.757 298.215, 300.915 " />
            <path fill="none" stroke-width="3.0" stroke-linecap="butt" stroke-opacity="1.0" stroke="rgb(0, 0, 0)" stroke-linejoin="round" d=" M 352.179, 170.569 353.039, 168.203 " />
        </g>
    </g>
</svg>
