<?xml version='1.0' encoding='ascii'?>
<svg xmlns="http://www.w3.org/2000/svg" xmlns:inkscape="http://www.inkscape.org/namespaces/inkscape" version="1.1" width="400" height="400">
    <g id="ViewLayer_LineSet" inkscape:groupmode="lineset" inkscape:label="ViewLayer_LineSet">
        <g xmlns:inkscape="http://www.inkscape.org/namespaces/inkscape" inkscape:groupmode="layer" inkscape:label="fills" id="fills">
            <path fill_rule="evenodd" stroke="none" fill-opacity="1.0" fill="rgb(68, 34, 21)" d=" M 194.489, 64.053 190.948, 62.831 187.129, 62.134 185.753, 61.993 183.564, 61.354 180.083, 61.454 179.122, 61.569 177.845, 61.421 176.195, 59.614 174.188, 58.094 172.103, 56.350 169.671, 55.159 166.717, 54.745 162.556, 55.245 158.745, 57.279 156.033, 60.673 155.237, 62.983 155.061, 65.381 155.156, 67.552 155.581, 69.917 155.316, 73.340 150.058, 81.416 145.664, 89.647 142.462, 95.913 139.482, 103.636 137.326, 111.221 135.560, 117.375 133.185, 122.280 130.282, 129.761 128.316, 137.530 127.740, 145.688 127.021, 150.842 125.732, 164.227 125.673, 173.108 126.426, 182.091 127.439, 190.450 128.573, 198.573 130.915, 211.724 132.544, 218.467 134.282, 224.391 136.074, 229.590 139.513, 238.800 139.576, 238.930 139.536, 239.042 139.423, 240.650 139.433, 242.504 139.912, 244.638 140.651, 245.625 141.863, 248.173 142.341, 248.939 143.307, 249.565 144.784, 250.981 144.486, 257.375 144.936, 262.259 145.922, 269.491 146.788, 275.639 147.248, 284.488 148.229, 292.852 148.988, 298.019 150.309, 305.036 150.663, 307.081 150.883, 308.459 151.508, 311.956 152.638, 318.843 153.919, 325.598 155.058, 332.251 156.508, 338.320 157.981, 343.930 159.091, 348.341 159.251, 349.850 159.895, 353.081 160.968, 356.249 161.086, 356.595 163.044, 360.119 164.982, 362.541 169.143, 365.175 173.379, 365.710 177.110, 365.514 182.417, 363.727 183.746, 362.584 185.231, 361.232 185.904, 360.636 187.431, 359.230 188.524, 356.772 189.190, 353.070 189.871, 350.333 190.228, 346.764 190.888, 341.349 191.756, 336.156 192.246, 332.017 192.379, 330.209 193.251, 319.829 193.654, 313.922 194.125, 308.796 194.598, 304.488 194.788, 303.795 195.155, 302.768 196.561, 297.779 198.087, 294.292 199.967, 289.632 200.884, 287.912 201.780, 288.173 207.314, 288.630 212.915, 287.961 217.973, 285.974 218.044, 285.922 218.280, 285.949 218.565, 287.301 219.432, 291.361 219.690, 295.569 220.375, 299.442 221.093, 303.335 221.854, 307.271 222.828, 311.998 223.792, 317.447 224.594, 322.987 225.336, 329.518 226.154, 336.057 227.305, 342.722 228.693, 349.082 229.973, 355.199 230.690, 359.256 230.360, 359.812 229.624, 362.541 229.227, 364.821 229.475, 367.787 230.082, 368.796 230.759, 369.770 231.720, 370.565 232.963, 371.182 234.603, 372.105 236.911, 373.333 239.535, 374.162 241.698, 374.365 245.827, 374.141 247.952, 373.751 250.336, 373.131 251.727, 372.688 254.519, 371.303 256.407, 370.165 257.624, 368.203 258.359, 366.940 259.260, 364.294 260.001, 361.054 260.735, 356.984 261.567, 352.026 262.620, 346.251 262.848, 344.813 263.832, 338.197 265.056, 330.576 265.857, 321.816 266.365, 313.162 266.980, 304.848 267.673, 296.842 268.429, 289.092 268.749, 282.053 268.714, 276.150 269.484, 269.615 269.675, 263.260 270.014, 248.035 268.947, 239.666 268.719, 234.337 267.262, 228.069 265.425, 220.719 262.962, 212.705 260.538, 206.715 260.552, 202.861 259.859, 198.198 258.965, 192.795 258.150, 188.124 256.766, 182.957 255.655, 176.428 253.969, 168.943 251.684, 160.221 249.118, 150.486 245.908, 140.759 241.631, 130.657 238.254, 123.638 232.529, 114.404 224.856, 106.707 221.249, 103.312 221.283, 102.049 220.630, 98.219 220.151, 94.207 219.839, 89.895 218.950, 85.157 218.672, 83.859 218.707, 83.796 219.639, 81.401 220.099, 78.918 219.716, 75.020 217.806, 70.665 214.812, 67.904 212.504, 66.859 210.201, 66.754 207.916, 66.740 207.160, 67.007 206.112, 67.389 203.988, 66.646 203.895, 66.625 203.739, 66.571 200.704, 65.891 199.043, 65.764 197.898, 65.402 194.489, 64.053  z" />
        </g>
        <g inkscape:groupmode="layer" id="strokes" inkscape:label="strokes">
            <path fill="none" stroke-width="3.0" stroke-linecap="butt" stroke-opacity="1.0" stroke="rgb(0, 0, 0)" stroke-linejoin="round" d=" M 199.043, 65.764 197.898, 65.402 194.489, 64.053 190.948, 62.831 187.129, 62.134 185.753, 61.993 " />
            <path fill="none" stroke-width="3.0" stroke-linecap="butt" stroke-opacity="1.0" stroke="rgb(0, 0, 0)" stroke-linejoin="round" d=" M 180.941, 61.779 179.122, 61.569 177.845, 61.421 176.195, 59.614 174.188, 58.094 172.103, 56.350 169.671, 55.159 166.717, 54.745 162.556, 55.245 158.745, 57.279 156.033, 60.673 155.237, 62.983 155.061, 65.381 155.156, 67.552 155.581, 69.917 155.316, 73.340 150.058, 81.416 145.664, 89.647 142.462, 95.913 139.482, 103.636 137.326, 111.221 135.560, 117.375 " />
            <path fill="none" stroke-width="3.0" stroke-linecap="butt" stroke-opacity="1.0" stroke="rgb(0, 0, 0)" stroke-linejoin="round" d=" M 188.751, 62.856 186.803, 62.301 185.753, 61.993 183.564, 61.354 180.083, 61.454 179.122, 61.569 " />
            <path fill="none" stroke-width="3.0" stroke-linecap="butt" stroke-opacity="1.0" stroke="rgb(0, 0, 0)" stroke-linejoin="round" d=" M 190.115, 347.689 190.228, 346.764 190.888, 341.349 " />
            <path fill="none" stroke-width="3.0" stroke-linecap="butt" stroke-opacity="1.0" stroke="rgb(0, 0, 0)" stroke-linejoin="round" d=" M 190.798, 341.890 190.888, 341.349 191.756, 336.156 192.246, 332.017 192.379, 330.209 193.216, 320.244 193.251, 319.829 193.654, 313.922 194.125, 308.796 194.598, 304.488 194.788, 303.795 " />
            <path fill="none" stroke-width="3.0" stroke-linecap="butt" stroke-opacity="1.0" stroke="rgb(0, 0, 0)" stroke-linejoin="round" d=" M 151.508, 311.956 152.638, 318.843 153.919, 325.598 155.058, 332.251 156.508, 338.320 157.981, 343.930 159.091, 348.341 159.232, 348.902 160.810, 355.178 " />
            <path fill="none" stroke-width="3.0" stroke-linecap="butt" stroke-opacity="1.0" stroke="rgb(0, 0, 0)" stroke-linejoin="round" d=" M 146.788, 275.639 147.248, 284.488 148.229, 292.852 148.988, 298.019 150.309, 305.036 150.663, 307.081 151.508, 311.956 150.883, 308.459 150.663, 307.081 " />
            <path fill="none" stroke-width="3.0" stroke-linecap="butt" stroke-opacity="1.0" stroke="rgb(0, 0, 0)" stroke-linejoin="round" d=" M 141.185, 242.264 142.998, 244.618 143.137, 244.799 " />
            <path fill="none" stroke-width="3.0" stroke-linecap="butt" stroke-opacity="1.0" stroke="rgb(0, 0, 0)" stroke-linejoin="round" d=" M 128.114, 143.010 127.740, 145.688 127.021, 150.842 126.063, 160.796 125.732, 164.227 125.673, 173.108 126.426, 182.091 127.439, 190.450 128.573, 198.573 130.326, 208.418 130.915, 211.724 132.544, 218.467 134.282, 224.391 136.074, 229.590 139.513, 238.800 139.576, 238.930 140.736, 241.335 141.185, 242.264 142.770, 244.076 142.821, 244.135 142.878, 244.199 142.989, 244.327 143.292, 244.673 144.879, 246.487 144.987, 246.607 " />
            <path fill="none" stroke-width="3.0" stroke-linecap="butt" stroke-opacity="1.0" stroke="rgb(0, 0, 0)" stroke-linejoin="round" d=" M 136.780, 114.856 135.560, 117.375 133.185, 122.280 130.282, 129.761 128.316, 137.530 127.740, 145.688 " />
            <path fill="none" stroke-width="3.0" stroke-linecap="butt" stroke-opacity="1.0" stroke="rgb(0, 0, 0)" stroke-linejoin="round" d=" M 193.836, 306.454 194.788, 303.795 195.155, 302.768 196.561, 297.779 198.087, 294.292 199.967, 289.632 " />
            <path fill="none" stroke-width="3.0" stroke-linecap="butt" stroke-opacity="1.0" stroke="rgb(0, 0, 0)" stroke-linejoin="round" d=" M 185.231, 361.232 185.904, 360.636 187.431, 359.230 " />
            <path fill="none" stroke-width="3.0" stroke-linecap="butt" stroke-opacity="1.0" stroke="rgb(0, 0, 0)" stroke-linejoin="round" d=" M 159.091, 348.341 159.251, 349.850 159.895, 353.081 160.968, 356.249 161.086, 356.595 163.044, 360.119 164.982, 362.541 169.143, 365.175 173.379, 365.710 177.110, 365.514 182.417, 363.727 183.746, 362.584 185.231, 361.232 187.431, 359.230 188.524, 356.772 189.190, 353.070 189.871, 350.333 190.228, 346.764 " />
            <path fill="none" stroke-width="3.0" stroke-linecap="butt" stroke-opacity="1.0" stroke="rgb(0, 0, 0)" stroke-linejoin="round" d=" M 199.558, 290.399 199.967, 289.632 200.884, 287.912 201.320, 287.095 203.342, 285.589 " />
            <path fill="none" stroke-width="3.0" stroke-linecap="butt" stroke-opacity="1.0" stroke="rgb(0, 0, 0)" stroke-linejoin="round" d=" M 144.982, 246.712 143.380, 245.051 143.290, 244.958 143.275, 244.942 143.156, 244.818 143.137, 244.799 143.486, 245.507 144.363, 247.286 144.915, 248.160 " />
            <path fill="none" stroke-width="3.0" stroke-linecap="butt" stroke-opacity="1.0" stroke="rgb(0, 0, 0)" stroke-linejoin="round" d=" M 139.433, 242.504 140.221, 244.719 140.651, 245.625 141.863, 248.173 142.341, 248.939 143.307, 249.565 144.784, 250.981 " />
            <path fill="none" stroke-width="3.0" stroke-linecap="butt" stroke-opacity="1.0" stroke="rgb(0, 0, 0)" stroke-linejoin="round" d=" M 139.576, 238.930 139.536, 239.042 139.423, 240.650 139.433, 242.504 139.912, 244.638 140.651, 245.625 " />
            <path fill="none" stroke-width="3.0" stroke-linecap="butt" stroke-opacity="1.0" stroke="rgb(0, 0, 0)" stroke-linejoin="round" d=" M 202.097, 259.947 202.974, 262.220 203.159, 262.697 203.605, 263.854 205.215, 268.165 205.702, 269.280 206.404, 270.885 207.556, 272.977 208.536, 274.269 209.543, 275.269 211.591, 276.287 213.804, 276.459 214.422, 276.316 216.394, 275.859 217.838, 274.736 219.553, 272.164 220.650, 269.862 220.731, 269.691 221.379, 266.994 221.504, 266.474 " />
            <path fill="none" stroke-width="3.0" stroke-linecap="butt" stroke-opacity="1.0" stroke="rgb(0, 0, 0)" stroke-linejoin="round" d=" M 198.939, 258.311 201.598, 256.899 200.555, 257.613 201.621, 259.415 " />
            <path fill="none" stroke-width="3.0" stroke-linecap="butt" stroke-opacity="1.0" stroke="rgb(0, 0, 0)" stroke-linejoin="round" d=" M 201.621, 259.415 203.159, 262.697 " />
            <path fill="none" stroke-width="3.0" stroke-linecap="butt" stroke-opacity="1.0" stroke="rgb(0, 0, 0)" stroke-linejoin="round" d=" M 147.795, 216.769 146.513, 223.550 145.729, 229.974 145.679, 231.268 145.670, 231.486 145.670, 231.499 145.670, 231.503 145.669, 231.511 145.668, 231.533 145.663, 231.663 145.655, 231.883 145.655, 231.893 145.576, 233.932 145.564, 234.234 145.545, 234.745 145.544, 234.756 145.538, 234.914 145.480, 236.412 145.025, 245.793 144.989, 246.569 144.987, 246.607 144.982, 246.711 144.982, 246.712 144.924, 247.964 144.915, 248.160 144.784, 250.981 144.486, 257.375 144.936, 262.259 145.922, 269.491 146.788, 275.639 147.943, 283.838 " />
            <path fill="none" stroke-width="3.0" stroke-linecap="butt" stroke-opacity="1.0" stroke="rgb(0, 0, 0)" stroke-linejoin="round" d=" M 139.369, 186.804 139.230, 188.047 138.371, 195.738 138.042, 198.778 138.736, 208.754 138.939, 211.681 141.229, 221.415 141.317, 221.792 142.391, 226.037 144.504, 231.276 144.651, 231.640 144.821, 232.061 144.926, 232.320 144.928, 232.326 144.948, 232.376 145.365, 233.410 145.576, 233.932 " />
            <path fill="none" stroke-width="3.0" stroke-linecap="butt" stroke-opacity="1.0" stroke="rgb(0, 0, 0)" stroke-linejoin="round" d=" M 137.985, 176.492 139.089, 180.637 139.422, 183.708 " />
            <path fill="none" stroke-width="3.0" stroke-linecap="butt" stroke-opacity="1.0" stroke="rgb(0, 0, 0)" stroke-linejoin="round" d=" M 139.430, 183.533 139.422, 183.708 139.230, 188.047 " />
            <path fill="none" stroke-width="3.0" stroke-linecap="butt" stroke-opacity="1.0" stroke="rgb(0, 0, 0)" stroke-linejoin="round" d=" M 203.342, 285.589 202.164, 287.070 " />
            <path fill="none" stroke-width="3.0" stroke-linecap="butt" stroke-opacity="1.0" stroke="rgb(0, 0, 0)" stroke-linejoin="round" d=" M 200.704, 65.891 199.043, 65.764 197.841, 65.672 " />
            <path fill="none" stroke-width="3.0" stroke-linecap="butt" stroke-opacity="1.0" stroke="rgb(0, 0, 0)" stroke-linejoin="round" d=" M 203.895, 66.625 203.739, 66.571 200.704, 65.891 203.895, 66.625 203.988, 66.646 206.112, 67.389 " />
            <path fill="none" stroke-width="3.0" stroke-linecap="butt" stroke-opacity="1.0" stroke="rgb(0, 0, 0)" stroke-linejoin="round" d=" M 221.249, 103.312 221.283, 102.049 220.630, 98.219 220.151, 94.207 219.839, 89.895 218.950, 85.157 218.672, 83.859 " />
            <path fill="none" stroke-width="3.0" stroke-linecap="butt" stroke-opacity="1.0" stroke="rgb(0, 0, 0)" stroke-linejoin="round" d=" M 204.873, 67.840 203.701, 68.279 201.738, 67.357 " />
            <path fill="none" stroke-width="3.0" stroke-linecap="butt" stroke-opacity="1.0" stroke="rgb(0, 0, 0)" stroke-linejoin="round" d=" M 215.559, 90.025 216.070, 88.700 216.459, 87.692 216.577, 87.493 217.579, 85.803 218.672, 83.859 218.707, 83.796 219.639, 81.401 220.099, 78.918 219.716, 75.020 217.806, 70.665 214.812, 67.904 212.504, 66.859 210.201, 66.754 207.916, 66.740 207.160, 67.007 206.112, 67.389 206.108, 67.390 206.037, 67.416 205.744, 67.522 205.665, 67.551 204.873, 67.840 205.694, 67.540 205.744, 67.522 " />
            <path fill="none" stroke-width="3.0" stroke-linecap="butt" stroke-opacity="1.0" stroke="rgb(0, 0, 0)" stroke-linejoin="round" d=" M 216.151, 88.918 216.577, 87.493 " />
            <path fill="none" stroke-width="3.0" stroke-linecap="butt" stroke-opacity="1.0" stroke="rgb(0, 0, 0)" stroke-linejoin="round" d=" M 210.990, 87.712 211.471, 89.610 212.008, 91.732 " />
            <path fill="none" stroke-width="3.0" stroke-linecap="butt" stroke-opacity="1.0" stroke="rgb(0, 0, 0)" stroke-linejoin="round" d=" M 217.052, 283.620 218.200, 285.573 218.243, 285.775 218.280, 285.949 218.565, 287.301 219.432, 291.361 219.690, 295.569 220.375, 299.442 221.093, 303.335 221.854, 307.271 222.828, 311.998 223.792, 317.447 224.594, 322.987 225.336, 329.518 226.154, 336.057 227.305, 342.722 228.693, 349.082 229.973, 355.199 230.690, 359.256 230.920, 360.554 230.950, 360.722 230.980, 360.949 230.982, 360.961 231.551, 365.201 231.623, 367.707 " />
            <path fill="none" stroke-width="3.0" stroke-linecap="butt" stroke-opacity="1.0" stroke="rgb(0, 0, 0)" stroke-linejoin="round" d=" M 256.407, 370.165 257.624, 368.203 258.359, 366.940 259.260, 364.294 260.001, 361.054 260.735, 356.984 261.567, 352.026 262.620, 346.251 262.848, 344.813 263.832, 338.197 265.056, 330.576 265.857, 321.816 266.365, 313.162 266.980, 304.848 267.673, 296.842 268.429, 289.092 268.749, 282.053 268.714, 276.150 " />
            <path fill="none" stroke-width="3.0" stroke-linecap="butt" stroke-opacity="1.0" stroke="rgb(0, 0, 0)" stroke-linejoin="round" d=" M 256.766, 182.957 255.655, 176.428 253.969, 168.943 251.684, 160.221 249.118, 150.486 245.984, 140.990 245.908, 140.759 242.009, 131.551 241.631, 130.657 238.254, 123.638 232.985, 115.139 232.529, 114.404 225.469, 107.322 224.856, 106.707 221.249, 103.312 219.582, 101.743 214.209, 98.508 213.508, 98.086 213.367, 98.001 211.623, 96.951 211.477, 96.863 211.447, 96.845 210.989, 96.569 209.304, 95.555 208.944, 95.338 208.881, 95.300 207.956, 94.743 207.630, 94.547 206.759, 94.022 " />
            <path fill="none" stroke-width="3.0" stroke-linecap="butt" stroke-opacity="1.0" stroke="rgb(0, 0, 0)" stroke-linejoin="round" d=" M 267.914, 282.935 268.714, 276.150 269.484, 269.615 269.675, 263.260 269.898, 253.262 270.014, 248.035 268.947, 239.666 268.719, 234.337 267.262, 228.069 265.425, 220.719 262.962, 212.705 260.538, 206.715 258.981, 202.868 257.769, 197.295 " />
            <path fill="none" stroke-width="3.0" stroke-linecap="butt" stroke-opacity="1.0" stroke="rgb(0, 0, 0)" stroke-linejoin="round" d=" M 260.538, 206.715 260.552, 202.861 259.859, 198.198 258.965, 192.795 258.150, 188.124 256.766, 182.957 256.342, 181.374 252.786, 172.028 252.132, 170.309 249.991, 166.173 247.886, 162.056 246.589, 158.737 246.442, 158.360 246.332, 158.078 " />
            <path fill="none" stroke-width="3.0" stroke-linecap="butt" stroke-opacity="1.0" stroke="rgb(0, 0, 0)" stroke-linejoin="round" d=" M 221.379, 266.994 221.780, 265.695 221.964, 265.231 222.675, 263.429 223.043, 262.497 223.179, 261.979 223.393, 261.167 223.433, 261.014 223.685, 260.060 223.706, 259.979 223.744, 259.835 224.082, 258.554 " />
            <path fill="none" stroke-width="3.0" stroke-linecap="butt" stroke-opacity="1.0" stroke="rgb(0, 0, 0)" stroke-linejoin="round" d=" M 230.690, 359.256 230.360, 359.812 229.624, 362.541 229.227, 364.821 229.475, 367.787 230.082, 368.796 230.759, 369.770 231.720, 370.565 " />
            <path fill="none" stroke-width="3.0" stroke-linecap="butt" stroke-opacity="1.0" stroke="rgb(0, 0, 0)" stroke-linejoin="round" d=" M 200.884, 287.912 201.780, 288.173 207.314, 288.630 212.915, 287.961 217.973, 285.974 218.044, 285.922 218.243, 285.775 " />
            <path fill="none" stroke-width="3.0" stroke-linecap="butt" stroke-opacity="1.0" stroke="rgb(0, 0, 0)" stroke-linejoin="round" d=" M 225.462, 255.200 225.152, 257.925 " />
            <path fill="none" stroke-width="3.0" stroke-linecap="butt" stroke-opacity="1.0" stroke="rgb(0, 0, 0)" stroke-linejoin="round" d=" M 232.963, 371.182 231.720, 370.565 232.907, 371.151 232.963, 371.182 234.603, 372.105 236.911, 373.333 239.535, 374.162 241.698, 374.365 245.827, 374.141 247.952, 373.751 250.336, 373.131 251.727, 372.688 " />
            <path fill="none" stroke-width="3.0" stroke-linecap="butt" stroke-opacity="1.0" stroke="rgb(0, 0, 0)" stroke-linejoin="round" d=" M 254.519, 371.303 256.407, 370.165 252.793, 372.126 251.727, 372.688 254.519, 371.303 " />
            <path fill="none" stroke-width="3.0" stroke-linecap="butt" stroke-opacity="1.0" stroke="rgb(0, 0, 0)" stroke-linejoin="round" d=" M 217.052, 283.620 216.228, 285.673 216.002, 286.236 " />
            <path fill="none" stroke-width="3.0" stroke-linecap="butt" stroke-opacity="1.0" stroke="rgb(0, 0, 0)" stroke-linejoin="round" d=" M 214.374, 276.500 214.422, 276.316 " />
            <path fill="none" stroke-width="3.0" stroke-linecap="butt" stroke-opacity="1.0" stroke="rgb(0, 0, 0)" stroke-linejoin="round" d=" M 142.998, 244.618 143.627, 246.114 " />
            <path fill="none" stroke-width="3.0" stroke-linecap="butt" stroke-opacity="1.0" stroke="rgb(0, 0, 0)" stroke-linejoin="round" d=" M 214.209, 98.508 213.357, 97.838 213.223, 97.733 211.727, 96.558 211.546, 96.415 211.074, 96.044 209.917, 95.135 " />
            <path fill="none" stroke-width="3.0" stroke-linecap="butt" stroke-opacity="1.0" stroke="rgb(0, 0, 0)" stroke-linejoin="round" d=" M 213.357, 97.838 212.703, 96.767 " />
            <path fill="none" stroke-width="3.0" stroke-linecap="butt" stroke-opacity="1.0" stroke="rgb(0, 0, 0)" stroke-linejoin="round" d=" M 218.044, 285.922 218.280, 285.949 " />
            <path fill="none" stroke-width="3.0" stroke-linecap="butt" stroke-opacity="1.0" stroke="rgb(0, 0, 0)" stroke-linejoin="round" d=" M 221.964, 265.231 224.601, 262.610 " />
            <path fill="none" stroke-width="3.0" stroke-linecap="butt" stroke-opacity="1.0" stroke="rgb(0, 0, 0)" stroke-linejoin="round" d=" M 223.179, 261.979 223.567, 261.183 224.084, 260.120 224.092, 260.103 224.099, 260.089 225.152, 257.925 " />
            <path fill="none" stroke-width="3.0" stroke-linecap="butt" stroke-opacity="1.0" stroke="rgb(0, 0, 0)" stroke-linejoin="round" d=" M 230.980, 360.949 230.931, 361.056 " />
            <path fill="none" stroke-width="3.0" stroke-linecap="butt" stroke-opacity="1.0" stroke="rgb(0, 0, 0)" stroke-linejoin="round" d=" M 246.589, 158.737 245.172, 153.713 " />
        </g>
    </g>
</svg>
