<?xml version='1.0' encoding='ascii'?>
<svg xmlns="http://www.w3.org/2000/svg" xmlns:inkscape="http://www.inkscape.org/namespaces/inkscape" version="1.1" width="400" height="400">
    <g id="ViewLayer_LineSet" inkscape:groupmode="lineset" inkscape:label="ViewLayer_LineSet">
        <g xmlns:inkscape="http://www.inkscape.org/namespaces/inkscape" inkscape:groupmode="layer" inkscape:label="fills" id="fills">
            <path fill_rule="evenodd" stroke="none" fill-opacity="1.0" fill="rgb(68, 34, 21)" d=" M 199.086, 266.575 201.800, 264.974 204.477, 262.873 205.750, 261.828 206.660, 261.168 208.047, 260.327 208.840, 259.928 210.413, 259.149 211.597, 258.612 212.168, 258.692 213.577, 258.562 218.152, 258.578 221.559, 257.486 221.729, 259.037 222.312, 265.058 222.305, 272.454 224.041, 280.478 225.391, 288.830 226.666, 297.315 228.132, 304.898 228.385, 306.438 229.384, 313.580 229.663, 315.536 230.115, 320.313 230.777, 328.100 231.009, 333.228 231.362, 336.485 231.847, 339.474 232.091, 340.942 232.591, 343.794 233.691, 346.934 235.488, 350.427 236.187, 351.470 237.346, 351.855 237.868, 352.056 238.015, 352.072 238.523, 352.595 239.108, 353.360 239.602, 354.162 240.029, 355.116 240.347, 355.950 240.659, 356.577 240.884, 356.653 241.017, 356.488 240.902, 355.799 240.772, 355.136 240.582, 354.283 240.307, 353.219 240.082, 352.227 239.888, 351.355 241.833, 352.654 242.674, 353.161 243.459, 353.250 243.872, 353.542 244.249, 354.211 244.600, 355.055 244.926, 356.137 245.189, 357.199 245.454, 358.340 245.671, 358.591 245.823, 358.399 245.678, 357.194 245.609, 356.530 245.437, 355.473 245.259, 354.380 245.094, 353.255 245.028, 352.609 245.551, 352.069 245.933, 351.569 246.931, 352.299 247.915, 353.019 248.452, 353.151 248.659, 353.605 249.151, 354.602 249.461, 355.457 249.774, 356.603 250.073, 357.913 250.306, 358.999 250.502, 359.243 250.678, 359.019 250.682, 359.006 250.658, 357.981 250.578, 357.140 250.449, 355.897 250.309, 354.806 250.223, 353.792 250.195, 353.199 250.307, 352.215 250.372, 351.996 250.634, 351.622 251.048, 350.715 251.939, 351.300 252.861, 351.933 253.577, 352.218 253.784, 352.550 254.113, 353.465 254.390, 354.469 254.610, 355.404 254.844, 356.193 255.138, 356.938 255.287, 357.257 255.496, 356.935 255.462, 356.401 255.330, 354.857 255.254, 354.052 255.160, 353.114 255.087, 352.081 255.085, 351.899 255.928, 350.743 256.174, 349.666 256.838, 349.481 257.892, 349.953 258.070, 350.196 258.253, 351.133 258.336, 351.913 258.372, 352.547 258.394, 353.312 258.459, 354.028 258.710, 354.364 258.958, 354.100 259.147, 353.411 259.191, 352.614 259.274, 351.430 259.348, 350.780 259.411, 350.049 259.676, 349.363 260.263, 347.950 260.561, 345.622 260.551, 342.893 259.856, 338.819 259.009, 334.992 257.881, 331.126 257.238, 326.091 257.883, 319.546 257.921, 319.110 259.074, 312.177 260.593, 304.792 261.852, 296.969 264.073, 288.969 266.147, 280.525 267.962, 271.763 269.773, 262.849 270.816, 257.094 271.411, 253.765 272.129, 248.500 273.558, 235.657 274.312, 225.885 274.252, 216.038 273.333, 207.521 272.562, 203.645 271.818, 200.353 271.528, 198.981 270.601, 194.976 268.125, 188.308 265.388, 182.013 262.672, 176.319 261.537, 174.009 261.613, 173.009 261.942, 166.237 261.540, 159.751 259.675, 143.769 257.066, 128.722 253.889, 114.834 253.834, 114.662 253.070, 110.663 251.659, 104.904 250.086, 101.216 247.053, 94.401 245.036, 90.346 242.268, 85.904 235.814, 78.540 232.251, 75.746 222.707, 70.568 219.402, 69.334 210.140, 66.376 201.260, 65.040 199.421, 64.887 190.863, 64.934 182.447, 65.568 174.180, 67.531 165.916, 70.717 158.305, 75.602 156.460, 76.861 151.892, 80.607 146.148, 85.991 141.809, 90.719 138.102, 95.718 135.018, 101.142 133.460, 104.244 131.289, 111.129 129.970, 122.255 130.143, 132.226 130.500, 137.516 131.272, 146.831 131.235, 152.924 131.556, 159.006 132.311, 165.000 133.004, 171.052 133.620, 176.371 134.127, 180.794 134.928, 184.596 136.752, 191.268 137.719, 193.819 138.710, 196.015 139.889, 197.568 140.387, 198.976 141.004, 202.851 141.359, 205.869 141.451, 208.375 141.966, 213.065 142.753, 217.122 142.735, 218.094 143.632, 225.583 144.539, 232.178 146.139, 239.529 148.491, 247.070 150.763, 254.548 152.886, 261.831 154.864, 269.010 156.847, 276.133 158.920, 283.287 161.610, 290.323 164.383, 297.437 165.811, 303.219 166.012, 308.655 166.266, 311.695 166.856, 314.253 167.851, 316.602 168.245, 318.122 170.250, 320.431 171.076, 321.214 171.563, 322.008 171.933, 322.764 172.147, 323.273 172.578, 324.238 172.628, 324.316 172.820, 324.732 173.184, 325.005 173.357, 324.704 173.287, 324.058 172.984, 323.084 172.797, 322.567 172.549, 321.768 172.379, 320.874 172.317, 320.007 173.178, 319.634 174.571, 321.104 176.115, 322.184 176.196, 322.181 176.787, 322.902 177.261, 324.248 177.440, 325.065 177.532, 325.607 177.702, 326.700 177.770, 326.996 177.875, 327.609 177.938, 327.732 178.135, 328.031 178.306, 327.702 178.317, 327.581 178.314, 327.467 178.343, 326.633 178.259, 325.517 178.099, 324.056 178.024, 322.726 177.960, 321.722 178.535, 321.017 179.210, 320.280 180.463, 321.481 181.551, 322.708 181.861, 322.787 182.119, 323.603 182.503, 324.775 182.690, 325.774 182.923, 327.254 183.067, 328.321 183.283, 329.394 183.513, 329.602 183.670, 329.362 183.671, 328.243 183.614, 327.147 183.596, 325.625 183.549, 324.657 183.631, 323.492 183.642, 322.377 184.196, 321.838 184.858, 321.151 185.655, 321.734 186.772, 322.660 186.852, 322.679 187.085, 323.185 187.302, 323.939 187.503, 325.097 187.643, 326.306 187.727, 327.417 187.872, 328.531 187.923, 328.586 188.071, 328.732 188.217, 328.544 188.227, 328.467 188.223, 327.323 188.178, 326.229 188.188, 325.036 188.178, 323.921 188.261, 323.196 188.495, 322.591 188.534, 322.581 189.798, 321.266 190.609, 319.826 191.151, 320.177 191.513, 321.408 191.584, 322.513 191.562, 323.468 191.588, 324.342 191.602, 325.209 191.674, 325.859 191.854, 325.997 192.053, 325.911 192.182, 325.288 192.254, 324.410 192.351, 323.529 192.475, 322.539 192.744, 321.406 193.088, 320.318 193.499, 319.925 193.564, 319.877 193.622, 319.806 194.268, 317.543 194.279, 316.172 194.293, 312.625 194.131, 310.373 193.805, 308.103 193.117, 304.720 192.074, 299.269 191.822, 294.468 191.698, 287.304 192.135, 279.909 192.270, 278.862 192.466, 277.431 194.071, 267.093 194.547, 267.234 195.180, 267.304 196.732, 267.290 198.869, 266.668 199.086, 266.575  z" />
        </g>
        <g inkscape:groupmode="layer" id="strokes" inkscape:label="strokes">
            <path fill="none" stroke-width="3.0" stroke-linecap="butt" stroke-opacity="1.0" stroke="rgb(0, 0, 0)" stroke-linejoin="round" d=" M 191.571, 262.370 191.038, 261.785 190.959, 261.133 191.291, 260.747 191.415, 260.602 191.478, 260.607 191.505, 260.609 191.669, 260.621 191.795, 260.631 191.983, 260.645 192.181, 260.660 192.254, 260.666 192.303, 260.670 192.355, 260.673 192.751, 260.703 193.904, 261.208 194.570, 261.757 194.903, 262.094 194.978, 262.169 195.424, 262.243 195.704, 262.228 196.257, 261.912 196.640, 261.391 196.878, 260.807 196.967, 259.109 " />
            <path fill="none" stroke-width="3.0" stroke-linecap="butt" stroke-opacity="1.0" stroke="rgb(0, 0, 0)" stroke-linejoin="round" d=" M 185.986, 260.544 185.988, 260.548 186.693, 261.921 187.130, 262.386 187.878, 263.183 187.988, 263.269 189.724, 264.294 190.802, 264.597 191.399, 264.764 192.811, 264.835 194.376, 264.406 194.506, 264.370 194.594, 264.346 " />
            <path fill="none" stroke-width="3.0" stroke-linecap="butt" stroke-opacity="1.0" stroke="rgb(0, 0, 0)" stroke-linejoin="round" d=" M 187.130, 262.386 187.319, 262.749 187.933, 263.642 189.369, 264.771 190.012, 265.074 191.370, 265.321 191.386, 265.321 192.551, 265.286 193.806, 265.758 194.266, 265.837 195.740, 266.089 198.127, 265.779 200.148, 264.982 202.115, 263.738 204.722, 261.335 207.651, 258.565 208.353, 257.998 209.215, 257.302 209.283, 257.247 209.319, 257.218 209.713, 256.899 211.069, 256.048 212.009, 255.960 " />
            <path fill="none" stroke-width="3.0" stroke-linecap="butt" stroke-opacity="1.0" stroke="rgb(0, 0, 0)" stroke-linejoin="round" d=" M 208.305, 235.786 209.368, 235.841 210.408, 235.406 " />
            <path fill="none" stroke-width="3.0" stroke-linecap="butt" stroke-opacity="1.0" stroke="rgb(0, 0, 0)" stroke-linejoin="round" d=" M 210.424, 234.025 210.915, 234.143 210.928, 234.146 211.353, 234.232 " />
            <path fill="none" stroke-width="3.0" stroke-linecap="butt" stroke-opacity="1.0" stroke="rgb(0, 0, 0)" stroke-linejoin="round" d=" M 191.386, 265.321 192.986, 266.770 194.071, 267.093 194.547, 267.234 195.180, 267.304 196.732, 267.290 198.869, 266.668 199.086, 266.575 201.800, 264.974 204.477, 262.873 205.750, 261.828 206.845, 260.930 206.989, 260.812 207.189, 260.648 " />
            <path fill="none" stroke-width="3.0" stroke-linecap="butt" stroke-opacity="1.0" stroke="rgb(0, 0, 0)" stroke-linejoin="round" d=" M 207.603, 233.724 208.363, 233.717 209.244, 233.787 210.139, 233.912 210.941, 234.074 210.968, 234.080 211.683, 234.250 212.422, 234.427 212.663, 234.502 212.851, 234.561 " />
            <path fill="none" stroke-width="3.0" stroke-linecap="butt" stroke-opacity="1.0" stroke="rgb(0, 0, 0)" stroke-linejoin="round" d=" M 206.998, 234.025 207.603, 233.724 207.729, 233.662 207.917, 233.568 " />
            <path fill="none" stroke-width="3.0" stroke-linecap="butt" stroke-opacity="1.0" stroke="rgb(0, 0, 0)" stroke-linejoin="round" d=" M 211.683, 257.968 211.922, 257.688 212.001, 257.595 212.291, 257.254 212.818, 256.634 213.720, 255.501 213.882, 255.297 213.895, 255.280 " />
            <path fill="none" stroke-width="3.0" stroke-linecap="butt" stroke-opacity="1.0" stroke="rgb(0, 0, 0)" stroke-linejoin="round" d=" M 205.750, 261.828 206.660, 261.168 208.047, 260.327 209.037, 259.726 " />
            <path fill="none" stroke-width="3.0" stroke-linecap="butt" stroke-opacity="1.0" stroke="rgb(0, 0, 0)" stroke-linejoin="round" d=" M 227.881, 190.427 225.796, 190.922 223.789, 191.619 222.139, 192.451 " />
            <path fill="none" stroke-width="3.0" stroke-linecap="butt" stroke-opacity="1.0" stroke="rgb(0, 0, 0)" stroke-linejoin="round" d=" M 241.125, 191.985 242.196, 192.337 243.939, 192.909 " />
            <path fill="none" stroke-width="3.0" stroke-linecap="butt" stroke-opacity="1.0" stroke="rgb(0, 0, 0)" stroke-linejoin="round" d=" M 244.403, 197.698 244.829, 196.505 244.903, 195.176 244.923, 193.543 244.747, 192.747 243.491, 190.942 241.524, 189.634 239.178, 188.797 237.948, 188.475 " />
            <path fill="none" stroke-width="3.0" stroke-linecap="butt" stroke-opacity="1.0" stroke="rgb(0, 0, 0)" stroke-linejoin="round" d=" M 223.248, 193.900 224.881, 195.003 231.244, 197.177 " />
            <path fill="none" stroke-width="3.0" stroke-linecap="butt" stroke-opacity="1.0" stroke="rgb(0, 0, 0)" stroke-linejoin="round" d=" M 238.091, 199.620 242.451, 201.842 242.934, 199.261 243.427, 197.528 243.754, 196.167 243.943, 195.061 243.962, 194.945 " />
            <path fill="none" stroke-width="3.0" stroke-linecap="butt" stroke-opacity="1.0" stroke="rgb(0, 0, 0)" stroke-linejoin="round" d=" M 229.818, 188.058 231.108, 188.025 235.021, 188.081 236.435, 188.178 237.948, 188.475 235.427, 188.237 234.592, 188.159 232.617, 188.148 " />
            <path fill="none" stroke-width="3.0" stroke-linecap="butt" stroke-opacity="1.0" stroke="rgb(0, 0, 0)" stroke-linejoin="round" d=" M 211.597, 258.612 212.168, 258.692 213.577, 258.562 218.152, 258.578 221.559, 257.486 222.392, 257.219 222.581, 257.084 225.772, 254.808 225.912, 254.708 227.494, 253.580 228.513, 253.015 228.672, 252.927 228.681, 252.922 229.129, 252.674 229.689, 252.363 233.504, 250.246 233.654, 250.163 233.690, 250.143 234.122, 249.904 234.136, 249.892 234.978, 249.179 " />
            <path fill="none" stroke-width="3.0" stroke-linecap="butt" stroke-opacity="1.0" stroke="rgb(0, 0, 0)" stroke-linejoin="round" d=" M 222.581, 257.084 223.332, 257.147 228.707, 256.144 236.478, 252.336 237.362, 251.681 237.398, 251.654 237.410, 251.646 237.707, 251.426 237.810, 251.349 243.811, 246.902 248.442, 241.660 250.658, 239.151 252.580, 235.630 253.200, 234.495 255.891, 229.566 " />
            <path fill="none" stroke-width="3.0" stroke-linecap="butt" stroke-opacity="1.0" stroke="rgb(0, 0, 0)" stroke-linejoin="round" d=" M 245.036, 90.346 242.268, 85.904 235.814, 78.540 232.251, 75.746 223.461, 70.977 222.707, 70.568 219.402, 69.334 210.140, 66.376 201.260, 65.040 199.421, 64.887 190.863, 64.934 182.447, 65.568 174.180, 67.531 165.916, 70.717 158.305, 75.602 156.460, 76.861 151.892, 80.607 " />
            <path fill="none" stroke-width="3.0" stroke-linecap="butt" stroke-opacity="1.0" stroke="rgb(0, 0, 0)" stroke-linejoin="round" d=" M 221.559, 257.486 221.729, 259.037 222.312, 265.058 222.305, 272.454 224.041, 280.478 225.391, 288.830 226.666, 297.315 228.132, 304.898 228.269, 305.610 228.385, 306.438 229.384, 313.580 229.663, 315.536 230.438, 320.961 " />
            <path fill="none" stroke-width="3.0" stroke-linecap="butt" stroke-opacity="1.0" stroke="rgb(0, 0, 0)" stroke-linejoin="round" d=" M 257.921, 319.110 259.074, 312.177 260.593, 304.792 261.852, 296.969 264.073, 288.969 266.147, 280.525 267.962, 271.763 269.773, 262.849 270.816, 257.094 271.411, 253.765 272.129, 248.500 273.235, 238.561 273.558, 235.657 274.312, 225.885 274.252, 216.038 273.333, 207.521 " />
            <path fill="none" stroke-width="3.0" stroke-linecap="butt" stroke-opacity="1.0" stroke="rgb(0, 0, 0)" stroke-linejoin="round" d=" M 271.528, 198.981 270.601, 194.976 268.125, 188.308 " />
            <path fill="none" stroke-width="3.0" stroke-linecap="butt" stroke-opacity="1.0" stroke="rgb(0, 0, 0)" stroke-linejoin="round" d=" M 269.453, 192.147 268.125, 188.308 265.388, 182.013 " />
            <path fill="none" stroke-width="3.0" stroke-linecap="butt" stroke-opacity="1.0" stroke="rgb(0, 0, 0)" stroke-linejoin="round" d=" M 271.818, 200.353 272.562, 203.645 273.333, 207.521 271.818, 200.353 271.528, 198.981 271.448, 198.717 271.335, 198.348 269.453, 192.147 268.888, 190.703 266.899, 185.613 265.388, 182.013 262.672, 176.319 261.537, 174.009 261.518, 173.972 261.499, 173.932 260.581, 172.065 260.533, 171.968 259.755, 170.385 259.137, 169.127 256.494, 163.751 " />
            <path fill="none" stroke-width="3.0" stroke-linecap="butt" stroke-opacity="1.0" stroke="rgb(0, 0, 0)" stroke-linejoin="round" d=" M 261.613, 173.009 261.942, 166.237 261.540, 159.751 260.381, 149.818 259.675, 143.769 257.966, 133.916 257.066, 128.722 254.836, 118.974 253.889, 114.834 253.834, 114.662 250.763, 105.145 250.315, 103.756 249.561, 101.421 248.943, 99.505 248.449, 98.123 248.376, 97.918 247.388, 95.155 246.929, 94.217 246.917, 94.193 245.036, 90.346 247.053, 94.401 250.086, 101.216 251.659, 104.904 253.070, 110.663 253.834, 114.662 " />
            <path fill="none" stroke-width="3.0" stroke-linecap="butt" stroke-opacity="1.0" stroke="rgb(0, 0, 0)" stroke-linejoin="round" d=" M 229.663, 315.536 230.115, 320.313 230.777, 328.100 231.009, 333.228 231.362, 336.485 231.847, 339.474 232.091, 340.942 232.591, 343.794 233.691, 346.934 235.488, 350.427 236.187, 351.470 237.346, 351.855 237.868, 352.056 238.015, 352.072 " />
            <path fill="none" stroke-width="3.0" stroke-linecap="butt" stroke-opacity="1.0" stroke="rgb(0, 0, 0)" stroke-linejoin="round" d=" M 259.411, 350.049 259.676, 349.363 260.263, 347.950 260.561, 345.622 260.551, 342.893 259.856, 338.819 259.009, 334.992 257.881, 331.126 257.238, 326.091 257.883, 319.546 257.921, 319.110 258.474, 312.835 " />
            <path fill="none" stroke-width="3.0" stroke-linecap="butt" stroke-opacity="1.0" stroke="rgb(0, 0, 0)" stroke-linejoin="round" d=" M 241.007, 356.457 240.910, 355.953 240.772, 355.136 240.582, 354.283 240.307, 353.219 240.082, 352.227 239.888, 351.355 239.859, 351.225 239.845, 351.162 239.847, 350.883 239.851, 350.838 239.861, 350.714 239.900, 350.240 " />
            <path fill="none" stroke-width="3.0" stroke-linecap="butt" stroke-opacity="1.0" stroke="rgb(0, 0, 0)" stroke-linejoin="round" d=" M 238.857, 351.398 238.884, 351.457 239.324, 352.410 239.770, 353.364 240.133, 354.410 240.418, 355.252 240.710, 356.006 240.717, 356.527 240.659, 356.577 " />
            <path fill="none" stroke-width="3.0" stroke-linecap="butt" stroke-opacity="1.0" stroke="rgb(0, 0, 0)" stroke-linejoin="round" d=" M 240.884, 356.653 241.007, 356.457 241.017, 356.488 " />
            <path fill="none" stroke-width="3.0" stroke-linecap="butt" stroke-opacity="1.0" stroke="rgb(0, 0, 0)" stroke-linejoin="round" d=" M 243.803, 353.420 243.872, 353.542 244.249, 354.211 244.600, 355.055 244.926, 356.137 245.189, 357.199 245.454, 358.340 245.671, 358.591 245.823, 358.399 245.734, 357.782 245.609, 356.530 245.437, 355.473 245.259, 354.380 245.094, 353.255 245.028, 352.609 244.978, 352.116 244.843, 351.209 " />
            <path fill="none" stroke-width="3.0" stroke-linecap="butt" stroke-opacity="1.0" stroke="rgb(0, 0, 0)" stroke-linejoin="round" d=" M 244.032, 352.197 244.325, 353.078 244.341, 353.125 244.396, 353.292 244.757, 354.397 245.005, 355.473 245.256, 356.518 245.540, 357.776 245.522, 358.405 245.671, 358.591 " />
            <path fill="none" stroke-width="3.0" stroke-linecap="butt" stroke-opacity="1.0" stroke="rgb(0, 0, 0)" stroke-linejoin="round" d=" M 240.488, 346.114 240.453, 348.778 240.214, 350.477 239.859, 351.225 " />
            <path fill="none" stroke-width="3.0" stroke-linecap="butt" stroke-opacity="1.0" stroke="rgb(0, 0, 0)" stroke-linejoin="round" d=" M 243.807, 345.626 243.948, 348.255 244.197, 350.080 244.311, 351.002 244.964, 352.093 244.978, 352.116 " />
            <path fill="none" stroke-width="3.0" stroke-linecap="butt" stroke-opacity="1.0" stroke="rgb(0, 0, 0)" stroke-linejoin="round" d=" M 250.502, 359.243 250.682, 359.006 250.623, 358.345 250.578, 357.140 250.449, 355.897 250.309, 354.806 250.223, 353.792 250.195, 353.199 250.164, 352.532 " />
            <path fill="none" stroke-width="3.0" stroke-linecap="butt" stroke-opacity="1.0" stroke="rgb(0, 0, 0)" stroke-linejoin="round" d=" M 248.903, 345.505 249.261, 348.525 249.440, 350.630 249.532, 351.219 249.123, 352.463 249.266, 353.002 249.293, 353.101 249.453, 353.705 249.733, 354.729 249.939, 355.829 250.194, 357.080 250.433, 358.320 250.379, 358.990 250.502, 359.243 " />
            <path fill="none" stroke-width="3.0" stroke-linecap="butt" stroke-opacity="1.0" stroke="rgb(0, 0, 0)" stroke-linejoin="round" d=" M 251.048, 350.715 251.485, 349.216 251.729, 346.556 250.610, 349.011 " />
            <path fill="none" stroke-width="3.0" stroke-linecap="butt" stroke-opacity="1.0" stroke="rgb(0, 0, 0)" stroke-linejoin="round" d=" M 250.372, 351.996 250.634, 351.622 251.048, 350.715 251.939, 351.300 252.861, 351.933 253.577, 352.218 " />
            <path fill="none" stroke-width="3.0" stroke-linecap="butt" stroke-opacity="1.0" stroke="rgb(0, 0, 0)" stroke-linejoin="round" d=" M 245.028, 352.609 245.551, 352.069 245.933, 351.569 246.931, 352.299 247.915, 353.019 248.452, 353.151 " />
            <path fill="none" stroke-width="3.0" stroke-linecap="butt" stroke-opacity="1.0" stroke="rgb(0, 0, 0)" stroke-linejoin="round" d=" M 253.411, 351.952 253.577, 352.218 253.784, 352.550 254.113, 353.465 254.390, 354.469 254.610, 355.404 254.844, 356.193 255.138, 356.938 255.287, 357.257 255.496, 356.935 255.377, 355.635 255.330, 354.857 255.254, 354.052 255.160, 353.114 255.087, 352.081 255.085, 351.899 255.084, 351.787 255.083, 351.748 255.076, 351.084 " />
            <path fill="none" stroke-width="3.0" stroke-linecap="butt" stroke-opacity="1.0" stroke="rgb(0, 0, 0)" stroke-linejoin="round" d=" M 254.125, 351.080 254.340, 352.067 254.349, 352.110 254.367, 352.196 254.560, 353.116 254.749, 354.060 254.921, 354.870 255.102, 355.642 255.138, 356.938 " />
            <path fill="none" stroke-width="3.0" stroke-linecap="butt" stroke-opacity="1.0" stroke="rgb(0, 0, 0)" stroke-linejoin="round" d=" M 254.372, 345.040 254.434, 347.307 254.589, 349.034 254.581, 349.586 " />
            <path fill="none" stroke-width="3.0" stroke-linecap="butt" stroke-opacity="1.0" stroke="rgb(0, 0, 0)" stroke-linejoin="round" d=" M 255.085, 351.899 255.928, 350.743 256.174, 349.666 256.838, 349.481 257.425, 349.317 257.892, 349.953 258.070, 350.196 258.253, 351.133 258.336, 351.913 258.372, 352.547 258.394, 353.312 258.459, 354.028 258.710, 354.364 258.958, 354.100 259.147, 353.411 259.191, 352.614 259.274, 351.430 259.348, 350.780 259.411, 350.049 259.417, 349.981 259.503, 349.390 259.562, 348.988 " />
            <path fill="none" stroke-width="3.0" stroke-linecap="butt" stroke-opacity="1.0" stroke="rgb(0, 0, 0)" stroke-linejoin="round" d=" M 258.958, 354.100 259.049, 353.077 259.200, 352.266 259.274, 351.430 " />
            <path fill="none" stroke-width="3.0" stroke-linecap="butt" stroke-opacity="1.0" stroke="rgb(0, 0, 0)" stroke-linejoin="round" d=" M 259.178, 347.620 258.607, 348.845 258.681, 349.879 258.727, 350.711 258.758, 351.375 258.742, 352.210 258.757, 353.027 258.556, 354.032 258.710, 354.364 " />
            <path fill="none" stroke-width="3.0" stroke-linecap="butt" stroke-opacity="1.0" stroke="rgb(0, 0, 0)" stroke-linejoin="round" d=" M 257.425, 349.317 257.394, 348.047 257.823, 346.702 " />
            <path fill="none" stroke-width="3.0" stroke-linecap="butt" stroke-opacity="1.0" stroke="rgb(0, 0, 0)" stroke-linejoin="round" d=" M 259.562, 348.988 259.178, 347.620 259.286, 346.544 256.133, 344.324 256.481, 347.616 256.174, 349.666 " />
            <path fill="none" stroke-width="3.0" stroke-linecap="butt" stroke-opacity="1.0" stroke="rgb(0, 0, 0)" stroke-linejoin="round" d=" M 245.933, 351.569 246.339, 350.000 246.294, 345.957 " />
            <path fill="none" stroke-width="3.0" stroke-linecap="butt" stroke-opacity="1.0" stroke="rgb(0, 0, 0)" stroke-linejoin="round" d=" M 237.649, 351.696 238.015, 352.072 238.523, 352.595 239.108, 353.360 239.602, 354.162 240.029, 355.116 240.347, 355.950 240.659, 356.577 240.884, 356.653 241.017, 356.488 240.902, 355.799 240.772, 355.136 " />
            <path fill="none" stroke-width="3.0" stroke-linecap="butt" stroke-opacity="1.0" stroke="rgb(0, 0, 0)" stroke-linejoin="round" d=" M 242.934, 352.878 243.459, 353.250 243.872, 353.542 " />
            <path fill="none" stroke-width="3.0" stroke-linecap="butt" stroke-opacity="1.0" stroke="rgb(0, 0, 0)" stroke-linejoin="round" d=" M 248.295, 352.807 248.452, 353.151 248.659, 353.605 249.151, 354.602 249.461, 355.457 249.774, 356.603 250.073, 357.913 250.306, 358.999 250.502, 359.243 250.678, 359.019 250.682, 359.006 250.658, 357.981 250.578, 357.140 " />
            <path fill="none" stroke-width="3.0" stroke-linecap="butt" stroke-opacity="1.0" stroke="rgb(0, 0, 0)" stroke-linejoin="round" d=" M 245.823, 358.399 245.678, 357.194 245.609, 356.530 " />
            <path fill="none" stroke-width="3.0" stroke-linecap="butt" stroke-opacity="1.0" stroke="rgb(0, 0, 0)" stroke-linejoin="round" d=" M 198.123, 258.207 197.035, 256.832 195.974, 256.093 195.936, 256.066 195.918, 256.054 195.441, 255.721 194.179, 255.223 194.176, 255.222 193.686, 255.029 193.681, 255.027 193.670, 255.022 193.667, 255.021 193.328, 254.887 " />
            <path fill="none" stroke-width="3.0" stroke-linecap="butt" stroke-opacity="1.0" stroke="rgb(0, 0, 0)" stroke-linejoin="round" d=" M 208.047, 260.327 208.840, 259.928 210.413, 259.149 211.597, 258.612 213.156, 257.904 214.317, 257.086 214.636, 256.861 215.236, 256.438 " />
            <path fill="none" stroke-width="3.0" stroke-linecap="butt" stroke-opacity="1.0" stroke="rgb(0, 0, 0)" stroke-linejoin="round" d=" M 190.959, 261.133 191.304, 260.884 191.450, 260.779 191.518, 260.730 191.669, 260.621 " />
            <path fill="none" stroke-width="3.0" stroke-linecap="butt" stroke-opacity="1.0" stroke="rgb(0, 0, 0)" stroke-linejoin="round" d=" M 236.275, 351.041 237.649, 351.696 " />
            <path fill="none" stroke-width="3.0" stroke-linecap="butt" stroke-opacity="1.0" stroke="rgb(0, 0, 0)" stroke-linejoin="round" d=" M 239.888, 351.355 241.833, 352.654 242.674, 353.161 243.459, 353.250 " />
            <path fill="none" stroke-width="3.0" stroke-linecap="butt" stroke-opacity="1.0" stroke="rgb(0, 0, 0)" stroke-linejoin="round" d=" M 250.195, 353.199 250.307, 352.215 250.372, 351.996 250.483, 351.621 250.888, 350.516 250.931, 350.397 " />
            <path fill="none" stroke-width="3.0" stroke-linecap="butt" stroke-opacity="1.0" stroke="rgb(0, 0, 0)" stroke-linejoin="round" d=" M 239.030, 350.045 238.687, 349.226 " />
            <path fill="none" stroke-width="3.0" stroke-linecap="butt" stroke-opacity="1.0" stroke="rgb(0, 0, 0)" stroke-linejoin="round" d=" M 239.845, 351.162 239.798, 350.890 239.777, 350.770 239.738, 350.545 239.671, 350.161 239.603, 349.450 " />
            <path fill="none" stroke-width="3.0" stroke-linecap="butt" stroke-opacity="1.0" stroke="rgb(0, 0, 0)" stroke-linejoin="round" d=" M 255.496, 356.935 255.462, 356.401 255.330, 354.857 " />
            <path fill="none" stroke-width="3.0" stroke-linecap="butt" stroke-opacity="1.0" stroke="rgb(0, 0, 0)" stroke-linejoin="round" d=" M 185.867, 259.761 186.162, 259.673 186.220, 259.656 186.234, 259.652 186.372, 259.611 186.479, 259.579 187.463, 259.896 188.141, 260.637 188.636, 261.388 188.811, 261.883 " />
            <path fill="none" stroke-width="3.0" stroke-linecap="butt" stroke-opacity="1.0" stroke="rgb(0, 0, 0)" stroke-linejoin="round" d=" M 186.372, 259.611 186.363, 259.670 186.071, 260.300 186.014, 260.394 185.933, 260.420 185.690, 260.499 185.638, 260.494 185.638, 260.480 185.638, 260.471 185.641, 260.149 185.793, 259.888 185.867, 259.761 " />
            <path fill="none" stroke-width="3.0" stroke-linecap="butt" stroke-opacity="1.0" stroke="rgb(0, 0, 0)" stroke-linejoin="round" d=" M 185.856, 255.190 185.654, 255.701 185.608, 255.816 185.605, 255.824 185.574, 255.902 185.457, 256.186 185.176, 256.862 184.884, 257.713 184.714, 258.763 184.862, 259.460 185.168, 260.211 " />
            <path fill="none" stroke-width="3.0" stroke-linecap="butt" stroke-opacity="1.0" stroke="rgb(0, 0, 0)" stroke-linejoin="round" d=" M 185.579, 260.459 185.361, 260.379 185.168, 260.211 185.350, 260.321 185.579, 260.459 185.638, 260.494 " />
            <path fill="none" stroke-width="3.0" stroke-linecap="butt" stroke-opacity="1.0" stroke="rgb(0, 0, 0)" stroke-linejoin="round" d=" M 187.803, 229.893 188.167, 229.930 188.203, 229.934 " />
            <path fill="none" stroke-width="3.0" stroke-linecap="butt" stroke-opacity="1.0" stroke="rgb(0, 0, 0)" stroke-linejoin="round" d=" M 188.888, 230.060 189.277, 230.273 189.793, 230.557 190.334, 230.855 190.666, 231.098 190.697, 231.121 190.735, 231.149 190.745, 231.156 191.221, 231.505 191.341, 231.593 " />
            <path fill="none" stroke-width="3.0" stroke-linecap="butt" stroke-opacity="1.0" stroke="rgb(0, 0, 0)" stroke-linejoin="round" d=" M 188.727, 240.601 188.725, 240.606 188.720, 240.628 188.561, 241.303 188.432, 241.846 188.381, 242.062 188.370, 242.109 188.360, 242.149 188.059, 243.422 187.381, 246.391 186.868, 249.443 186.364, 252.146 185.823, 254.544 185.758, 254.908 " />
            <path fill="none" stroke-width="3.0" stroke-linecap="butt" stroke-opacity="1.0" stroke="rgb(0, 0, 0)" stroke-linejoin="round" d=" M 188.920, 232.054 189.891, 232.374 " />
            <path fill="none" stroke-width="3.0" stroke-linecap="butt" stroke-opacity="1.0" stroke="rgb(0, 0, 0)" stroke-linejoin="round" d=" M 186.803, 229.668 187.047, 229.666 187.083, 229.672 187.441, 229.724 188.051, 229.873 188.197, 229.917 188.288, 229.945 188.796, 230.098 189.277, 230.273 " />
            <path fill="none" stroke-width="3.0" stroke-linecap="butt" stroke-opacity="1.0" stroke="rgb(0, 0, 0)" stroke-linejoin="round" d=" M 186.641, 229.653 186.803, 229.668 187.083, 229.672 " />
            <path fill="none" stroke-width="3.0" stroke-linecap="butt" stroke-opacity="1.0" stroke="rgb(0, 0, 0)" stroke-linejoin="round" d=" M 188.510, 240.274 188.509, 240.295 188.506, 240.323 188.391, 241.767 188.369, 242.041 188.365, 242.092 188.360, 242.149 " />
            <path fill="none" stroke-width="3.0" stroke-linecap="butt" stroke-opacity="1.0" stroke="rgb(0, 0, 0)" stroke-linejoin="round" d=" M 188.118, 241.241 188.332, 241.978 188.365, 242.092 " />
            <path fill="none" stroke-width="3.0" stroke-linecap="butt" stroke-opacity="1.0" stroke="rgb(0, 0, 0)" stroke-linejoin="round" d=" M 179.833, 217.946 180.145, 221.011 180.615, 225.258 180.671, 225.761 181.575, 228.539 182.380, 231.012 184.891, 236.102 188.332, 241.978 " />
            <path fill="none" stroke-width="3.0" stroke-linecap="butt" stroke-opacity="1.0" stroke="rgb(0, 0, 0)" stroke-linejoin="round" d=" M 196.283, 186.725 194.290, 185.062 192.069, 183.563 190.638, 182.636 189.783, 182.082 187.480, 180.927 " />
            <path fill="none" stroke-width="3.0" stroke-linecap="butt" stroke-opacity="1.0" stroke="rgb(0, 0, 0)" stroke-linejoin="round" d=" M 189.154, 178.784 186.963, 178.082 186.706, 178.000 185.363, 177.743 183.518, 177.548 181.943, 177.636 180.712, 178.267 180.355, 179.462 180.268, 179.755 " />
            <path fill="none" stroke-width="3.0" stroke-linecap="butt" stroke-opacity="1.0" stroke="rgb(0, 0, 0)" stroke-linejoin="round" d=" M 189.662, 188.670 193.544, 188.189 " />
            <path fill="none" stroke-width="3.0" stroke-linecap="butt" stroke-opacity="1.0" stroke="rgb(0, 0, 0)" stroke-linejoin="round" d=" M 192.334, 186.035 189.628, 185.544 " />
            <path fill="none" stroke-width="3.0" stroke-linecap="butt" stroke-opacity="1.0" stroke="rgb(0, 0, 0)" stroke-linejoin="round" d=" M 180.355, 179.462 179.885, 180.318 179.960, 181.314 180.378, 182.452 181.136, 184.025 181.927, 185.750 182.970, 187.687 183.785, 191.123 183.833, 191.326 183.536, 192.052 182.033, 195.725 179.778, 203.791 178.701, 213.135 179.283, 221.449 180.615, 225.258 " />
            <path fill="none" stroke-width="3.0" stroke-linecap="butt" stroke-opacity="1.0" stroke="rgb(0, 0, 0)" stroke-linejoin="round" d=" M 198.353, 178.622 194.827, 179.763 192.051, 179.283 189.722, 178.642 187.369, 178.168 186.963, 178.082 " />
            <path fill="none" stroke-width="3.0" stroke-linecap="butt" stroke-opacity="1.0" stroke="rgb(0, 0, 0)" stroke-linejoin="round" d=" M 140.961, 129.399 140.792, 133.011 139.602, 142.940 139.551, 143.369 139.432, 147.713 139.469, 157.713 139.470, 158.028 140.030, 162.654 141.261, 171.610 143.636, 180.307 145.395, 184.898 147.255, 188.874 " />
            <path fill="none" stroke-width="3.0" stroke-linecap="butt" stroke-opacity="1.0" stroke="rgb(0, 0, 0)" stroke-linejoin="round" d=" M 133.460, 104.244 131.289, 111.129 130.112, 121.060 129.970, 122.255 130.143, 132.226 130.500, 137.516 131.272, 146.831 131.235, 152.924 131.556, 159.006 132.311, 165.000 133.004, 171.052 133.620, 176.371 134.127, 180.794 134.928, 184.596 136.752, 191.268 137.719, 193.819 138.710, 196.015 139.889, 197.568 140.102, 197.849 " />
            <path fill="none" stroke-width="3.0" stroke-linecap="butt" stroke-opacity="1.0" stroke="rgb(0, 0, 0)" stroke-linejoin="round" d=" M 193.622, 319.806 194.268, 317.543 194.279, 316.172 194.293, 312.625 194.131, 310.373 193.805, 308.103 193.117, 304.720 192.074, 299.269 191.822, 294.468 191.698, 287.304 192.135, 279.909 192.270, 278.862 " />
            <path fill="none" stroke-width="3.0" stroke-linecap="butt" stroke-opacity="1.0" stroke="rgb(0, 0, 0)" stroke-linejoin="round" d=" M 151.140, 171.705 150.607, 173.909 150.307, 175.154 149.153, 179.930 148.771, 181.699 147.255, 188.874 146.842, 190.830 144.719, 200.603 144.329, 202.399 142.878, 210.478 142.753, 217.122 142.735, 218.094 143.632, 225.583 144.539, 232.178 146.139, 239.529 148.491, 247.070 150.763, 254.548 152.886, 261.831 154.864, 269.010 156.847, 276.133 158.920, 283.287 161.610, 290.323 164.383, 297.437 165.811, 303.219 166.012, 308.655 166.266, 311.695 166.856, 314.253 167.851, 316.602 167.892, 316.697 169.393, 319.254 170.250, 320.431 " />
            <path fill="none" stroke-width="3.0" stroke-linecap="butt" stroke-opacity="1.0" stroke="rgb(0, 0, 0)" stroke-linejoin="round" d=" M 191.658, 283.335 192.270, 278.862 192.466, 277.431 194.000, 267.550 194.071, 267.093 " />
            <path fill="none" stroke-width="3.0" stroke-linecap="butt" stroke-opacity="1.0" stroke="rgb(0, 0, 0)" stroke-linejoin="round" d=" M 139.889, 197.568 140.387, 198.976 141.004, 202.851 141.359, 205.869 141.579, 207.740 " />
            <path fill="none" stroke-width="3.0" stroke-linecap="butt" stroke-opacity="1.0" stroke="rgb(0, 0, 0)" stroke-linejoin="round" d=" M 143.157, 201.497 142.082, 200.392 140.261, 198.053 140.102, 197.849 140.945, 199.916 " />
            <path fill="none" stroke-width="3.0" stroke-linecap="butt" stroke-opacity="1.0" stroke="rgb(0, 0, 0)" stroke-linejoin="round" d=" M 144.036, 88.833 149.840, 82.604 151.892, 80.607 146.148, 85.991 141.809, 90.719 138.102, 95.718 " />
            <path fill="none" stroke-width="3.0" stroke-linecap="butt" stroke-opacity="1.0" stroke="rgb(0, 0, 0)" stroke-linejoin="round" d=" M 192.053, 325.911 192.018, 325.887 191.991, 325.468 192.096, 324.678 192.164, 323.793 192.219, 322.903 192.351, 321.721 192.436, 320.801 192.438, 320.788 192.481, 320.328 " />
            <path fill="none" stroke-width="3.0" stroke-linecap="butt" stroke-opacity="1.0" stroke="rgb(0, 0, 0)" stroke-linejoin="round" d=" M 191.507, 320.334 191.511, 320.384 191.513, 320.410 191.605, 321.710 191.692, 322.869 191.702, 323.755 191.724, 324.637 191.780, 325.451 191.715, 325.865 " />
            <path fill="none" stroke-width="3.0" stroke-linecap="butt" stroke-opacity="1.0" stroke="rgb(0, 0, 0)" stroke-linejoin="round" d=" M 191.674, 325.859 191.715, 325.865 191.854, 325.997 " />
            <path fill="none" stroke-width="3.0" stroke-linecap="butt" stroke-opacity="1.0" stroke="rgb(0, 0, 0)" stroke-linejoin="round" d=" M 186.772, 322.506 186.852, 322.679 187.085, 323.185 187.302, 323.939 187.503, 325.097 187.643, 326.306 187.727, 327.417 187.872, 328.531 187.923, 328.586 188.071, 328.732 188.217, 328.544 188.152, 327.964 188.163, 326.684 188.162, 325.596 188.126, 324.411 188.128, 322.959 188.134, 322.681 188.136, 322.614 188.151, 321.971 " />
            <path fill="none" stroke-width="3.0" stroke-linecap="butt" stroke-opacity="1.0" stroke="rgb(0, 0, 0)" stroke-linejoin="round" d=" M 187.239, 321.902 187.383, 322.760 187.390, 322.804 187.410, 322.925 187.624, 324.413 187.712, 325.617 187.815, 326.723 187.945, 327.986 187.923, 328.586 " />
            <path fill="none" stroke-width="3.0" stroke-linecap="butt" stroke-opacity="1.0" stroke="rgb(0, 0, 0)" stroke-linejoin="round" d=" M 189.992, 317.969 189.536, 315.122 " />
            <path fill="none" stroke-width="3.0" stroke-linecap="butt" stroke-opacity="1.0" stroke="rgb(0, 0, 0)" stroke-linejoin="round" d=" M 188.495, 322.591 188.534, 322.581 189.798, 321.266 190.609, 319.826 " />
            <path fill="none" stroke-width="3.0" stroke-linecap="butt" stroke-opacity="1.0" stroke="rgb(0, 0, 0)" stroke-linejoin="round" d=" M 183.513, 329.602 183.657, 329.368 183.579, 328.717 183.571, 327.442 183.535, 326.394 183.453, 324.944 183.433, 323.784 183.382, 322.629 183.376, 322.498 183.376, 322.498 183.376, 322.488 183.371, 322.374 " />
            <path fill="none" stroke-width="3.0" stroke-linecap="butt" stroke-opacity="1.0" stroke="rgb(0, 0, 0)" stroke-linejoin="round" d=" M 182.325, 322.546 182.362, 322.718 182.405, 322.916 182.629, 323.946 182.854, 325.070 183.027, 326.490 183.175, 327.514 183.368, 328.738 183.354, 329.389 183.513, 329.602 " />
            <path fill="none" stroke-width="3.0" stroke-linecap="butt" stroke-opacity="1.0" stroke="rgb(0, 0, 0)" stroke-linejoin="round" d=" M 181.956, 315.401 182.467, 318.573 182.614, 320.320 182.642, 321.256 " />
            <path fill="none" stroke-width="3.0" stroke-linecap="butt" stroke-opacity="1.0" stroke="rgb(0, 0, 0)" stroke-linejoin="round" d=" M 180.753, 319.016 179.049, 315.776 179.299, 318.985 179.210, 320.280 " />
            <path fill="none" stroke-width="3.0" stroke-linecap="butt" stroke-opacity="1.0" stroke="rgb(0, 0, 0)" stroke-linejoin="round" d=" M 178.306, 327.702 178.167, 326.340 178.161, 325.281 178.092, 324.191 178.054, 323.638 177.984, 322.796 177.905, 321.789 177.876, 321.427 177.869, 321.337 177.102, 320.003 " />
            <path fill="none" stroke-width="3.0" stroke-linecap="butt" stroke-opacity="1.0" stroke="rgb(0, 0, 0)" stroke-linejoin="round" d=" M 176.811, 317.714 176.990, 319.183 177.102, 320.003 176.897, 321.490 177.266, 322.912 177.443, 323.722 177.554, 324.248 177.703, 325.325 177.887, 326.359 177.938, 327.732 " />
            <path fill="none" stroke-width="3.0" stroke-linecap="butt" stroke-opacity="1.0" stroke="rgb(0, 0, 0)" stroke-linejoin="round" d=" M 177.938, 327.732 178.135, 328.031 178.306, 327.702 " />
            <path fill="none" stroke-width="3.0" stroke-linecap="butt" stroke-opacity="1.0" stroke="rgb(0, 0, 0)" stroke-linejoin="round" d=" M 172.317, 320.007 173.178, 319.634 174.571, 321.104 176.115, 322.184 176.196, 322.181 " />
            <path fill="none" stroke-width="3.0" stroke-linecap="butt" stroke-opacity="1.0" stroke="rgb(0, 0, 0)" stroke-linejoin="round" d=" M 173.357, 324.704 173.031, 323.754 172.891, 323.117 172.600, 322.159 172.440, 321.618 172.200, 320.776 171.979, 319.778 171.015, 318.600 170.751, 317.637 " />
            <path fill="none" stroke-width="3.0" stroke-linecap="butt" stroke-opacity="1.0" stroke="rgb(0, 0, 0)" stroke-linejoin="round" d=" M 170.950, 320.034 171.437, 320.949 171.807, 321.758 172.049, 322.283 172.440, 323.234 172.736, 323.832 172.946, 324.813 " />
            <path fill="none" stroke-width="3.0" stroke-linecap="butt" stroke-opacity="1.0" stroke="rgb(0, 0, 0)" stroke-linejoin="round" d=" M 167.851, 316.602 168.245, 318.122 170.250, 320.431 171.076, 321.214 171.563, 322.008 171.933, 322.764 172.147, 323.273 172.578, 324.238 172.628, 324.316 172.946, 324.813 173.184, 325.005 " />
            <path fill="none" stroke-width="3.0" stroke-linecap="butt" stroke-opacity="1.0" stroke="rgb(0, 0, 0)" stroke-linejoin="round" d=" M 172.628, 324.316 172.820, 324.732 173.184, 325.005 173.357, 324.704 173.287, 324.058 172.984, 323.084 172.797, 322.567 172.549, 321.768 172.379, 320.874 172.317, 320.007 172.297, 319.723 172.270, 319.347 " />
            <path fill="none" stroke-width="3.0" stroke-linecap="butt" stroke-opacity="1.0" stroke="rgb(0, 0, 0)" stroke-linejoin="round" d=" M 173.178, 319.634 173.339, 318.540 173.081, 313.726 171.979, 317.472 " />
            <path fill="none" stroke-width="3.0" stroke-linecap="butt" stroke-opacity="1.0" stroke="rgb(0, 0, 0)" stroke-linejoin="round" d=" M 170.751, 317.637 171.634, 318.626 171.979, 317.472 172.530, 318.648 172.297, 319.723 " />
            <path fill="none" stroke-width="3.0" stroke-linecap="butt" stroke-opacity="1.0" stroke="rgb(0, 0, 0)" stroke-linejoin="round" d=" M 184.437, 315.882 184.851, 320.029 184.858, 321.151 " />
            <path fill="none" stroke-width="3.0" stroke-linecap="butt" stroke-opacity="1.0" stroke="rgb(0, 0, 0)" stroke-linejoin="round" d=" M 183.642, 322.377 184.196, 321.838 184.858, 321.151 185.655, 321.734 186.772, 322.660 186.852, 322.679 " />
            <path fill="none" stroke-width="3.0" stroke-linecap="butt" stroke-opacity="1.0" stroke="rgb(0, 0, 0)" stroke-linejoin="round" d=" M 180.359, 321.363 180.463, 321.481 181.551, 322.708 181.861, 322.787 " />
            <path fill="none" stroke-width="3.0" stroke-linecap="butt" stroke-opacity="1.0" stroke="rgb(0, 0, 0)" stroke-linejoin="round" d=" M 177.960, 321.722 178.535, 321.017 179.210, 320.280 180.463, 321.481 " />
            <path fill="none" stroke-width="3.0" stroke-linecap="butt" stroke-opacity="1.0" stroke="rgb(0, 0, 0)" stroke-linejoin="round" d=" M 171.248, 318.306 170.751, 317.637 170.381, 314.470 " />
            <path fill="none" stroke-width="3.0" stroke-linecap="butt" stroke-opacity="1.0" stroke="rgb(0, 0, 0)" stroke-linejoin="round" d=" M 190.865, 319.536 191.049, 319.826 191.151, 320.177 191.513, 321.408 191.584, 322.513 191.562, 323.468 191.588, 324.342 191.602, 325.209 191.674, 325.859 191.854, 325.997 192.053, 325.911 192.182, 325.288 192.254, 324.410 192.351, 323.529 192.475, 322.539 192.744, 321.406 193.088, 320.318 193.499, 319.925 193.622, 319.806 193.564, 319.877 193.499, 319.925 " />
            <path fill="none" stroke-width="3.0" stroke-linecap="butt" stroke-opacity="1.0" stroke="rgb(0, 0, 0)" stroke-linejoin="round" d=" M 187.213, 317.691 187.516, 319.608 187.581, 320.541 187.239, 321.902 187.048, 320.808 " />
            <path fill="none" stroke-width="3.0" stroke-linecap="butt" stroke-opacity="1.0" stroke="rgb(0, 0, 0)" stroke-linejoin="round" d=" M 188.217, 328.544 188.227, 328.467 188.223, 327.323 188.178, 326.229 188.188, 325.036 188.178, 323.921 188.261, 323.196 188.495, 322.591 188.549, 322.452 " />
            <path fill="none" stroke-width="3.0" stroke-linecap="butt" stroke-opacity="1.0" stroke="rgb(0, 0, 0)" stroke-linejoin="round" d=" M 181.777, 322.519 181.861, 322.787 182.119, 323.603 182.503, 324.775 182.690, 325.774 182.923, 327.254 183.067, 328.321 183.283, 329.394 183.513, 329.602 183.670, 329.362 183.671, 328.243 183.614, 327.147 183.596, 325.625 183.549, 324.657 183.631, 323.492 183.642, 322.377 183.645, 322.029 183.645, 322.029 183.646, 321.943 " />
            <path fill="none" stroke-width="3.0" stroke-linecap="butt" stroke-opacity="1.0" stroke="rgb(0, 0, 0)" stroke-linejoin="round" d=" M 178.099, 324.056 178.024, 322.726 177.960, 321.722 177.912, 320.979 " />
            <path fill="none" stroke-width="3.0" stroke-linecap="butt" stroke-opacity="1.0" stroke="rgb(0, 0, 0)" stroke-linejoin="round" d=" M 176.067, 322.023 176.196, 322.181 176.787, 322.902 177.261, 324.248 177.440, 325.065 177.532, 325.607 177.702, 326.700 177.770, 326.996 177.931, 327.699 177.938, 327.732 177.875, 327.609 177.770, 326.996 " />
            <path fill="none" stroke-width="3.0" stroke-linecap="butt" stroke-opacity="1.0" stroke="rgb(0, 0, 0)" stroke-linejoin="round" d=" M 178.314, 327.467 178.317, 327.581 178.306, 327.702 178.309, 327.600 178.314, 327.467 178.343, 326.633 178.259, 325.517 178.099, 324.056 178.054, 323.638 " />
            <path fill="none" stroke-width="3.0" stroke-linecap="butt" stroke-opacity="1.0" stroke="rgb(0, 0, 0)" stroke-linejoin="round" d=" M 186.107, 254.809 185.856, 255.190 185.610, 255.787 185.607, 255.795 185.457, 256.175 185.457, 256.186 " />
            <path fill="none" stroke-width="3.0" stroke-linecap="butt" stroke-opacity="1.0" stroke="rgb(0, 0, 0)" stroke-linejoin="round" d=" M 185.933, 260.420 185.947, 260.471 185.988, 260.548 " />
            <path fill="none" stroke-width="3.0" stroke-linecap="butt" stroke-opacity="1.0" stroke="rgb(0, 0, 0)" stroke-linejoin="round" d=" M 186.630, 251.970 185.758, 254.908 185.635, 255.325 185.607, 255.795 " />
            <path fill="none" stroke-width="3.0" stroke-linecap="butt" stroke-opacity="1.0" stroke="rgb(0, 0, 0)" stroke-linejoin="round" d=" M 186.102, 259.932 186.159, 259.811 186.234, 259.652 " />
            <path fill="none" stroke-width="3.0" stroke-linecap="butt" stroke-opacity="1.0" stroke="rgb(0, 0, 0)" stroke-linejoin="round" d=" M 191.068, 318.571 189.992, 317.969 190.306, 319.631 190.609, 319.826 191.151, 320.177 " />
            <path fill="none" stroke-width="3.0" stroke-linecap="butt" stroke-opacity="1.0" stroke="rgb(0, 0, 0)" stroke-linejoin="round" d=" M 183.645, 322.029 183.957, 321.485 184.386, 320.735 " />
            <path fill="none" stroke-width="3.0" stroke-linecap="butt" stroke-opacity="1.0" stroke="rgb(0, 0, 0)" stroke-linejoin="round" d=" M 141.359, 205.869 141.451, 208.375 141.966, 213.065 142.753, 217.122 " />
            <path fill="none" stroke-width="3.0" stroke-linecap="butt" stroke-opacity="1.0" stroke="rgb(0, 0, 0)" stroke-linejoin="round" d=" M 135.018, 101.142 133.460, 104.244 136.301, 98.946 138.102, 95.718 135.018, 101.142 " />
            <path fill="none" stroke-width="3.0" stroke-linecap="butt" stroke-opacity="1.0" stroke="rgb(0, 0, 0)" stroke-linejoin="round" d=" M 191.967, 318.265 191.991, 318.973 " />
            <path fill="none" stroke-width="3.0" stroke-linecap="butt" stroke-opacity="1.0" stroke="rgb(0, 0, 0)" stroke-linejoin="round" d=" M 240.789, 192.855 242.979, 193.558 243.539, 193.738 " />
            <path fill="none" stroke-width="3.0" stroke-linecap="butt" stroke-opacity="1.0" stroke="rgb(0, 0, 0)" stroke-linejoin="round" d=" M 150.874, 167.317 150.307, 175.154 " />
            <path fill="none" stroke-width="3.0" stroke-linecap="butt" stroke-opacity="1.0" stroke="rgb(0, 0, 0)" stroke-linejoin="round" d=" M 188.197, 229.917 188.203, 229.934 188.354, 230.396 188.852, 231.028 189.172, 231.342 189.514, 231.567 " />
            <path fill="none" stroke-width="3.0" stroke-linecap="butt" stroke-opacity="1.0" stroke="rgb(0, 0, 0)" stroke-linejoin="round" d=" M 183.785, 191.123 183.536, 192.052 " />
            <path fill="none" stroke-width="3.0" stroke-linecap="butt" stroke-opacity="1.0" stroke="rgb(0, 0, 0)" stroke-linejoin="round" d=" M 190.666, 231.098 190.710, 231.147 190.754, 231.195 190.950, 231.410 191.227, 231.715 " />
            <path fill="none" stroke-width="3.0" stroke-linecap="butt" stroke-opacity="1.0" stroke="rgb(0, 0, 0)" stroke-linejoin="round" d=" M 214.317, 257.086 216.642, 256.502 216.906, 256.436 " />
            <path fill="none" stroke-width="3.0" stroke-linecap="butt" stroke-opacity="1.0" stroke="rgb(0, 0, 0)" stroke-linejoin="round" d=" M 225.772, 254.808 227.833, 254.075 " />
            <path fill="none" stroke-width="3.0" stroke-linecap="butt" stroke-opacity="1.0" stroke="rgb(0, 0, 0)" stroke-linejoin="round" d=" M 228.132, 304.898 228.385, 306.438 " />
            <path fill="none" stroke-width="3.0" stroke-linecap="butt" stroke-opacity="1.0" stroke="rgb(0, 0, 0)" stroke-linejoin="round" d=" M 239.851, 350.838 240.214, 350.477 " />
            <path fill="none" stroke-width="3.0" stroke-linecap="butt" stroke-opacity="1.0" stroke="rgb(0, 0, 0)" stroke-linejoin="round" d=" M 250.315, 103.756 249.268, 99.793 " />
            <path fill="none" stroke-width="3.0" stroke-linecap="butt" stroke-opacity="1.0" stroke="rgb(0, 0, 0)" stroke-linejoin="round" d=" M 252.580, 235.630 254.855, 232.613 " />
            <path fill="none" stroke-width="3.0" stroke-linecap="butt" stroke-opacity="1.0" stroke="rgb(0, 0, 0)" stroke-linejoin="round" d=" M 255.084, 351.787 255.153, 351.022 " />
            <path fill="none" stroke-width="3.0" stroke-linecap="butt" stroke-opacity="1.0" stroke="rgb(0, 0, 0)" stroke-linejoin="round" d=" M 256.838, 349.481 257.892, 349.953 " />
            <path fill="none" stroke-width="3.0" stroke-linecap="butt" stroke-opacity="1.0" stroke="rgb(0, 0, 0)" stroke-linejoin="round" d=" M 259.755, 170.385 258.226, 164.858 " />
            <path fill="none" stroke-width="3.0" stroke-linecap="butt" stroke-opacity="1.0" stroke="rgb(0, 0, 0)" stroke-linejoin="round" d=" M 260.581, 172.065 260.554, 171.474 " />
            <path fill="none" stroke-width="3.0" stroke-linecap="butt" stroke-opacity="1.0" stroke="rgb(0, 0, 0)" stroke-linejoin="round" d=" M 261.518, 173.972 261.613, 173.009 261.537, 174.009 " />
        </g>
    </g>
</svg>
